<?xml version="1.0" encoding="utf-8" standalone="no"?>
<!DOCTYPE svg PUBLIC "-//W3C//DTD SVG 1.1//EN"
  "http://www.w3.org/Graphics/SVG/1.1/DTD/svg11.dtd">
<svg xmlns:xlink="http://www.w3.org/1999/xlink" width="460.8pt" height="345.6pt" viewBox="0 0 460.8 345.6" xmlns="http://www.w3.org/2000/svg" version="1.1">
 <metadata>
  <rdf:RDF xmlns:dc="http://purl.org/dc/elements/1.1/" xmlns:cc="http://creativecommons.org/ns#" xmlns:rdf="http://www.w3.org/1999/02/22-rdf-syntax-ns#">
   <cc:Work>
    <dc:type rdf:resource="http://purl.org/dc/dcmitype/StillImage"/>
    <dc:date>2025-08-21T18:16:03.444135</dc:date>
    <dc:format>image/svg+xml</dc:format>
    <dc:creator>
     <cc:Agent>
      <dc:title>Matplotlib v3.9.2, https://matplotlib.org/</dc:title>
     </cc:Agent>
    </dc:creator>
   </cc:Work>
  </rdf:RDF>
 </metadata>
 <defs>
  <style type="text/css">*{stroke-linejoin: round; stroke-linecap: butt}</style>
 </defs>
 <g id="figure_1">
  <g id="patch_1">
   <path d="M 0 345.6 
L 460.8 345.6 
L 460.8 0 
L 0 0 
z
" style="fill: #ffffff"/>
  </g>
  <g id="axes_1">
   <g id="patch_2">
    <path d="M 57.6 307.584 
L 414.72 307.584 
L 414.72 41.472 
L 57.6 41.472 
z
" style="fill: #eeeeee"/>
   </g>
   <g id="PolyCollection_1">
    <path d="M 82.240324 262.174075 
L 82.217607 262.174075 
L 82.215187 260.386064 
L 82.213147 258.598052 
L 82.210168 256.810041 
L 82.204307 255.022029 
L 82.193895 253.234018 
L 82.178181 251.446006 
L 82.157181 249.657995 
L 82.131109 247.869983 
L 82.100426 246.081972 
L 82.066395 244.29396 
L 82.030384 242.505949 
L 81.991149 240.717937 
L 81.942833 238.929926 
L 81.87768 237.141914 
L 81.793023 235.353903 
L 81.69535 233.565891 
L 81.594971 231.77788 
L 81.495425 229.989868 
L 81.389704 228.201857 
L 81.267883 226.413845 
L 81.126177 224.625834 
L 80.966325 222.837822 
L 80.788686 221.049811 
L 80.590755 219.261799 
L 80.37236 217.473788 
L 80.137449 215.685776 
L 79.888222 213.897765 
L 79.619691 212.109753 
L 79.322828 210.321742 
L 78.993984 208.53373 
L 78.640451 206.745719 
L 78.275943 204.957707 
L 77.911599 203.169696 
L 77.552246 201.381685 
L 77.198632 199.593673 
L 76.849779 197.805662 
L 76.503697 196.01765 
L 76.159222 194.229639 
L 75.819799 192.441627 
L 75.495156 190.653616 
L 75.195419 188.865604 
L 74.920877 187.077593 
L 74.661627 185.289581 
L 74.412945 183.50157 
L 74.188614 181.713558 
L 74.012744 179.925547 
L 73.899179 178.137535 
L 73.843506 176.349524 
L 73.832727 174.561512 
L 73.856056 172.773501 
L 73.906611 170.985489 
L 73.980348 169.197478 
L 74.079132 167.409466 
L 74.213468 165.621455 
L 74.39784 163.833443 
L 74.641828 162.045432 
L 74.944523 160.25742 
L 75.291759 158.469409 
L 75.656191 156.681397 
L 76.009357 154.893386 
L 76.343733 153.105374 
L 76.680776 151.317363 
L 77.050599 149.529351 
L 77.46343 147.74134 
L 77.902187 145.953328 
L 78.338811 144.165317 
L 78.752481 142.377305 
L 79.132755 140.589294 
L 79.472784 138.801282 
L 79.767647 137.013271 
L 80.020499 135.225259 
L 80.24516 133.437248 
L 80.458635 131.649236 
L 80.670535 129.861225 
L 80.878436 128.073214 
L 81.071217 126.285202 
L 81.237511 124.497191 
L 81.373578 122.709179 
L 81.484495 120.921168 
L 81.578856 119.133156 
L 81.663665 117.345145 
L 81.743151 115.557133 
L 81.819132 113.769122 
L 81.890951 111.98111 
L 81.956166 110.193099 
L 82.012382 108.405087 
L 82.05856 106.617076 
L 82.094942 104.829064 
L 82.122299 103.041053 
L 82.141418 101.253041 
L 82.153276 99.46503 
L 82.159713 97.677018 
L 82.163593 95.889007 
L 82.167744 94.100995 
L 82.173512 92.312984 
L 82.180541 90.524972 
L 82.187993 88.736961 
L 82.195642 86.948949 
L 82.203633 85.160938 
L 82.254298 85.160938 
L 82.254298 85.160938 
L 82.262289 86.948949 
L 82.269938 88.736961 
L 82.27739 90.524972 
L 82.284419 92.312984 
L 82.290187 94.100995 
L 82.294338 95.889007 
L 82.298218 97.677018 
L 82.304655 99.46503 
L 82.316513 101.253041 
L 82.335632 103.041053 
L 82.362989 104.829064 
L 82.399371 106.617076 
L 82.445549 108.405087 
L 82.501765 110.193099 
L 82.56698 111.98111 
L 82.638799 113.769122 
L 82.71478 115.557133 
L 82.794266 117.345145 
L 82.879075 119.133156 
L 82.973436 120.921168 
L 83.084353 122.709179 
L 83.22042 124.497191 
L 83.386714 126.285202 
L 83.579495 128.073214 
L 83.787396 129.861225 
L 83.999296 131.649236 
L 84.212771 133.437248 
L 84.437432 135.225259 
L 84.690284 137.013271 
L 84.985147 138.801282 
L 85.325176 140.589294 
L 85.70545 142.377305 
L 86.11912 144.165317 
L 86.555744 145.953328 
L 86.994501 147.74134 
L 87.407332 149.529351 
L 87.777155 151.317363 
L 88.114198 153.105374 
L 88.448574 154.893386 
L 88.80174 156.681397 
L 89.166172 158.469409 
L 89.513408 160.25742 
L 89.816103 162.045432 
L 90.060091 163.833443 
L 90.244463 165.621455 
L 90.378799 167.409466 
L 90.477583 169.197478 
L 90.551321 170.985489 
L 90.601875 172.773501 
L 90.625204 174.561512 
L 90.614425 176.349524 
L 90.558752 178.137535 
L 90.445187 179.925547 
L 90.269317 181.713558 
L 90.044986 183.50157 
L 89.796304 185.289581 
L 89.537054 187.077593 
L 89.262512 188.865604 
L 88.962775 190.653616 
L 88.638132 192.441627 
L 88.298709 194.229639 
L 87.954234 196.01765 
L 87.608152 197.805662 
L 87.259299 199.593673 
L 86.905685 201.381685 
L 86.546332 203.169696 
L 86.181988 204.957707 
L 85.81748 206.745719 
L 85.463948 208.53373 
L 85.135103 210.321742 
L 84.83824 212.109753 
L 84.569709 213.897765 
L 84.320482 215.685776 
L 84.085571 217.473788 
L 83.867176 219.261799 
L 83.669245 221.049811 
L 83.491606 222.837822 
L 83.331754 224.625834 
L 83.190048 226.413845 
L 83.068227 228.201857 
L 82.962506 229.989868 
L 82.86296 231.77788 
L 82.762581 233.565891 
L 82.664908 235.353903 
L 82.580251 237.141914 
L 82.515098 238.929926 
L 82.466782 240.717937 
L 82.427547 242.505949 
L 82.391536 244.29396 
L 82.357505 246.081972 
L 82.326822 247.869983 
L 82.30075 249.657995 
L 82.27975 251.446006 
L 82.264036 253.234018 
L 82.253624 255.022029 
L 82.247763 256.810041 
L 82.244784 258.598052 
L 82.242744 260.386064 
L 82.240324 262.174075 
z
" clip-path="url(#p5fb1f5d78f)" style="fill: #348abd; fill-opacity: 0.3"/>
   </g>
   <g id="PolyCollection_2">
    <path d="M 110.226097 245.763975 
L 110.206756 245.763975 
L 110.205178 244.372399 
L 110.204698 242.980823 
L 110.204803 241.589248 
L 110.204547 240.197672 
L 110.20276 238.806096 
L 110.19825 237.41452 
L 110.190363 236.022945 
L 110.179485 234.631369 
L 110.166526 233.239793 
L 110.151567 231.848218 
L 110.133312 230.456642 
L 110.110408 229.065066 
L 110.083342 227.67349 
L 110.054311 226.281915 
L 110.024274 224.890339 
L 109.989356 223.498763 
L 109.940361 222.107188 
L 109.868077 220.715612 
L 109.77175 219.324036 
L 109.661611 217.93246 
L 109.549729 216.540885 
L 109.437675 215.149309 
L 109.315736 213.757733 
L 109.174311 212.366158 
L 109.011881 210.974582 
L 108.830256 209.583006 
L 108.627713 208.19143 
L 108.401792 206.799855 
L 108.155047 205.408279 
L 107.891713 204.016703 
L 107.609244 202.625128 
L 107.29783 201.233552 
L 106.9506 199.841976 
L 106.573063 198.4504 
L 106.180433 197.058825 
L 105.786614 195.667249 
L 105.398089 194.275673 
L 105.016007 192.884098 
L 104.639233 191.492522 
L 104.265472 190.100946 
L 103.893821 188.70937 
L 103.529533 187.317795 
L 103.185107 185.926219 
L 102.871754 184.534643 
L 102.58929 183.143068 
L 102.332476 181.751492 
L 102.110462 180.359916 
L 101.948868 178.96834 
L 101.863842 177.576765 
L 101.84055 176.185189 
L 101.843662 174.793613 
L 101.843926 173.402038 
L 101.832586 172.010462 
L 101.820188 170.618886 
L 101.830556 169.22731 
L 101.893331 167.835735 
L 102.033285 166.444159 
L 102.260785 165.052583 
L 102.569871 163.661007 
L 102.939934 162.269432 
L 103.336917 160.877856 
L 103.725466 159.48628 
L 104.094572 158.094705 
L 104.468069 156.703129 
L 104.879575 155.311553 
L 105.337703 153.919977 
L 105.819605 152.528402 
L 106.292979 151.136826 
L 106.73602 149.74525 
L 107.137597 148.353675 
L 107.489969 146.962099 
L 107.790959 145.570523 
L 108.050911 144.178947 
L 108.289492 142.787372 
L 108.522629 141.395796 
L 108.752592 140.00422 
L 108.968735 138.612645 
L 109.157019 137.221069 
L 109.310986 135.829493 
L 109.435228 134.437917 
L 109.539682 133.046342 
L 109.632879 131.654766 
L 109.719926 130.26319 
L 109.80276 128.871615 
L 109.880246 127.480039 
L 109.949403 126.088463 
L 110.007732 124.696887 
L 110.054481 123.305312 
L 110.090223 121.913736 
L 110.115915 120.52216 
L 110.132599 119.130585 
L 110.141989 117.739009 
L 110.147089 116.347433 
L 110.151448 114.955857 
L 110.157318 113.564282 
L 110.164782 112.172706 
L 110.172915 110.78113 
L 110.181308 109.389555 
L 110.190053 107.997979 
L 110.242799 107.997979 
L 110.242799 107.997979 
L 110.251545 109.389555 
L 110.259938 110.78113 
L 110.26807 112.172706 
L 110.275535 113.564282 
L 110.281405 114.955857 
L 110.285764 116.347433 
L 110.290864 117.739009 
L 110.300254 119.130585 
L 110.316937 120.52216 
L 110.34263 121.913736 
L 110.378371 123.305312 
L 110.425121 124.696887 
L 110.48345 126.088463 
L 110.552606 127.480039 
L 110.630093 128.871615 
L 110.712927 130.26319 
L 110.799973 131.654766 
L 110.89317 133.046342 
L 110.997624 134.437917 
L 111.121866 135.829493 
L 111.275834 137.221069 
L 111.464118 138.612645 
L 111.680261 140.00422 
L 111.910223 141.395796 
L 112.143361 142.787372 
L 112.381942 144.178947 
L 112.641893 145.570523 
L 112.942884 146.962099 
L 113.295256 148.353675 
L 113.696833 149.74525 
L 114.139874 151.136826 
L 114.613248 152.528402 
L 115.09515 153.919977 
L 115.553278 155.311553 
L 115.964784 156.703129 
L 116.338281 158.094705 
L 116.707387 159.48628 
L 117.095936 160.877856 
L 117.492919 162.269432 
L 117.862981 163.661007 
L 118.172067 165.052583 
L 118.399568 166.444159 
L 118.539522 167.835735 
L 118.602297 169.22731 
L 118.612665 170.618886 
L 118.600267 172.010462 
L 118.588927 173.402038 
L 118.589191 174.793613 
L 118.592303 176.185189 
L 118.56901 177.576765 
L 118.483985 178.96834 
L 118.32239 180.359916 
L 118.100376 181.751492 
L 117.843563 183.143068 
L 117.561099 184.534643 
L 117.247746 185.926219 
L 116.90332 187.317795 
L 116.539032 188.70937 
L 116.16738 190.100946 
L 115.793619 191.492522 
L 115.416846 192.884098 
L 115.034764 194.275673 
L 114.646239 195.667249 
L 114.25242 197.058825 
L 113.85979 198.4504 
L 113.482253 199.841976 
L 113.135022 201.233552 
L 112.823609 202.625128 
L 112.54114 204.016703 
L 112.277805 205.408279 
L 112.03106 206.799855 
L 111.80514 208.19143 
L 111.602596 209.583006 
L 111.420972 210.974582 
L 111.258541 212.366158 
L 111.117117 213.757733 
L 110.995178 215.149309 
L 110.883124 216.540885 
L 110.771242 217.93246 
L 110.661103 219.324036 
L 110.564776 220.715612 
L 110.492492 222.107188 
L 110.443497 223.498763 
L 110.408579 224.890339 
L 110.378542 226.281915 
L 110.349511 227.67349 
L 110.322444 229.065066 
L 110.299541 230.456642 
L 110.281285 231.848218 
L 110.266326 233.239793 
L 110.253367 234.631369 
L 110.24249 236.022945 
L 110.234603 237.41452 
L 110.230093 238.806096 
L 110.228305 240.197672 
L 110.228049 241.589248 
L 110.228155 242.980823 
L 110.227675 244.372399 
L 110.226097 245.763975 
z
" clip-path="url(#p5fb1f5d78f)" style="fill: #348abd; fill-opacity: 0.3"/>
   </g>
   <g id="PolyCollection_3">
    <path d="M 138.212238 231.279179 
L 138.195536 231.279179 
L 138.194293 230.186472 
L 138.19402 229.093764 
L 138.194377 228.001057 
L 138.194802 226.90835 
L 138.194794 225.815642 
L 138.193836 224.722935 
L 138.191039 223.630228 
L 138.185313 222.53752 
L 138.176262 221.444813 
L 138.164563 220.352106 
L 138.150972 219.259398 
L 138.134979 218.166691 
L 138.114921 217.073984 
L 138.089817 215.981276 
L 138.060927 214.888569 
L 138.030596 213.795862 
L 137.998502 212.703154 
L 137.958434 211.610447 
L 137.899784 210.51774 
L 137.815258 209.425032 
L 137.708853 208.332325 
L 137.593652 207.239618 
L 137.478718 206.14691 
L 137.359685 205.054203 
L 137.224866 203.961496 
L 137.067986 202.868788 
L 136.890128 201.776081 
L 136.691538 200.683374 
L 136.469219 199.590666 
L 136.223308 198.497959 
L 135.958412 197.405252 
L 135.675354 196.312544 
L 135.366018 195.219837 
L 135.020719 194.12713 
L 134.640423 193.034422 
L 134.238867 191.941715 
L 133.832254 190.849008 
L 133.429882 189.7563 
L 133.034206 188.663593 
L 132.644502 187.570886 
L 132.258532 186.478178 
L 131.874856 185.385471 
L 131.497948 184.292764 
L 131.141148 183.200056 
L 130.820094 182.107349 
L 130.54196 181.014642 
L 130.308271 179.921934 
L 130.13045 178.829227 
L 130.029104 177.73652 
L 130.007662 176.643812 
L 130.034972 175.551105 
L 130.062266 174.458398 
L 130.052717 173.36569 
L 129.995652 172.272983 
L 129.90737 171.180276 
L 129.827614 170.087568 
L 129.807649 168.994861 
L 129.888947 167.902154 
L 130.086517 166.809446 
L 130.388914 165.716739 
L 130.766783 164.624032 
L 131.178813 163.531324 
L 131.585149 162.438617 
L 131.973351 161.34591 
L 132.368131 160.253202 
L 132.80345 159.160495 
L 133.285786 158.067788 
L 133.789304 156.97508 
L 134.280286 155.882373 
L 134.736669 154.789666 
L 135.14673 153.696958 
L 135.502936 152.604251 
L 135.806165 151.511544 
L 136.071084 150.418836 
L 136.318825 149.326129 
L 136.562321 148.233422 
L 136.798721 147.140714 
L 137.01413 146.048007 
L 137.195902 144.9553 
L 137.342326 143.862592 
L 137.461735 142.769885 
L 137.564662 141.677178 
L 137.658592 140.58447 
L 137.747263 139.491763 
L 137.830861 138.399056 
L 137.906782 137.306348 
L 137.97193 136.213641 
L 138.024784 135.120934 
L 138.065553 134.028226 
L 138.095211 132.935519 
L 138.114888 131.842812 
L 138.12628 130.750104 
L 138.13239 129.657397 
L 138.137039 128.56469 
L 138.142963 127.471982 
L 138.150598 126.379275 
L 138.159067 125.286568 
L 138.167859 124.19386 
L 138.176994 123.101153 
L 138.23078 123.101153 
L 138.23078 123.101153 
L 138.239915 124.19386 
L 138.248707 125.286568 
L 138.257176 126.379275 
L 138.264812 127.471982 
L 138.270736 128.56469 
L 138.275384 129.657397 
L 138.281494 130.750104 
L 138.292886 131.842812 
L 138.312563 132.935519 
L 138.342222 134.028226 
L 138.38299 135.120934 
L 138.435844 136.213641 
L 138.500993 137.306348 
L 138.576913 138.399056 
L 138.660511 139.491763 
L 138.749182 140.58447 
L 138.843112 141.677178 
L 138.946039 142.769885 
L 139.065449 143.862592 
L 139.211872 144.9553 
L 139.393644 146.048007 
L 139.609053 147.140714 
L 139.845453 148.233422 
L 140.088949 149.326129 
L 140.33669 150.418836 
L 140.60161 151.511544 
L 140.904838 152.604251 
L 141.261044 153.696958 
L 141.671106 154.789666 
L 142.127488 155.882373 
L 142.61847 156.97508 
L 143.121988 158.067788 
L 143.604324 159.160495 
L 144.039644 160.253202 
L 144.434424 161.34591 
L 144.822625 162.438617 
L 145.228961 163.531324 
L 145.640992 164.624032 
L 146.01886 165.716739 
L 146.321257 166.809446 
L 146.518827 167.902154 
L 146.600125 168.994861 
L 146.580161 170.087568 
L 146.500405 171.180276 
L 146.412122 172.272983 
L 146.355057 173.36569 
L 146.345509 174.458398 
L 146.372802 175.551105 
L 146.400112 176.643812 
L 146.378671 177.73652 
L 146.277325 178.829227 
L 146.099503 179.921934 
L 145.865815 181.014642 
L 145.58768 182.107349 
L 145.266627 183.200056 
L 144.909827 184.292764 
L 144.532919 185.385471 
L 144.149242 186.478178 
L 143.763272 187.570886 
L 143.373568 188.663593 
L 142.977892 189.7563 
L 142.57552 190.849008 
L 142.168908 191.941715 
L 141.767351 193.034422 
L 141.387056 194.12713 
L 141.041756 195.219837 
L 140.732421 196.312544 
L 140.449362 197.405252 
L 140.184466 198.497959 
L 139.938555 199.590666 
L 139.716236 200.683374 
L 139.517646 201.776081 
L 139.339788 202.868788 
L 139.182908 203.961496 
L 139.048089 205.054203 
L 138.929056 206.14691 
L 138.814123 207.239618 
L 138.698921 208.332325 
L 138.592516 209.425032 
L 138.50799 210.51774 
L 138.44934 211.610447 
L 138.409272 212.703154 
L 138.377178 213.795862 
L 138.346848 214.888569 
L 138.317957 215.981276 
L 138.292853 217.073984 
L 138.272795 218.166691 
L 138.256802 219.259398 
L 138.243211 220.352106 
L 138.231513 221.444813 
L 138.222461 222.53752 
L 138.216735 223.630228 
L 138.213938 224.722935 
L 138.21298 225.815642 
L 138.212972 226.90835 
L 138.213397 228.001057 
L 138.213754 229.093764 
L 138.213482 230.186472 
L 138.212238 231.279179 
z
" clip-path="url(#p5fb1f5d78f)" style="fill: #348abd; fill-opacity: 0.3"/>
   </g>
   <g id="PolyCollection_4">
    <path d="M 166.1997 218.709536 
L 166.182996 218.709536 
L 166.181751 217.853741 
L 166.181458 216.997946 
L 166.181786 216.14215 
L 166.18219 215.286355 
L 166.182167 214.430559 
L 166.181187 213.574764 
L 166.178362 212.718968 
L 166.172625 211.863173 
L 166.163573 211.007377 
L 166.151843 210.151582 
L 166.138152 209.295786 
L 166.122012 208.439991 
L 166.101818 207.584195 
L 166.07662 206.7284 
L 166.047624 205.872604 
L 166.017062 205.016809 
L 165.984538 204.161013 
L 165.9439 203.305218 
L 165.884745 202.449422 
L 165.799945 201.593627 
L 165.69334 200.737831 
L 165.577597 199.882036 
L 165.461586 199.02624 
L 165.341244 198.170445 
L 165.205288 197.31465 
L 165.047388 196.458854 
L 164.868276 195.603059 
L 164.668129 194.747263 
L 164.444195 193.891468 
L 164.196642 193.035672 
L 163.929783 192.179877 
L 163.644279 191.324081 
L 163.332255 190.468286 
L 162.984392 189.61249 
L 162.601696 188.756695 
L 162.197593 187.900899 
L 161.788087 187.045104 
L 161.382598 186.189308 
L 160.983759 185.333513 
L 160.59091 184.477717 
L 160.201969 183.621922 
L 159.816101 182.766126 
L 159.439342 181.910331 
L 159.088294 181.054535 
L 158.784107 180.19874 
L 158.540251 179.342945 
L 158.360347 178.487149 
L 158.248693 177.631354 
L 158.211583 176.775558 
L 158.240038 175.919763 
L 158.299007 175.063967 
L 158.341828 174.208172 
L 158.332107 173.352376 
L 158.253076 172.496581 
L 158.111686 171.640785 
L 157.945428 170.78499 
L 157.818289 169.929194 
L 157.79511 169.073399 
L 157.911002 168.217603 
L 158.161621 167.361808 
L 158.514778 166.506012 
L 158.924173 165.650217 
L 159.342801 164.794421 
L 159.745884 163.938626 
L 160.146927 163.08283 
L 160.579814 162.227035 
L 161.060652 161.371239 
L 161.571622 160.515444 
L 162.078851 159.659649 
L 162.555747 158.803853 
L 162.987605 157.948058 
L 163.365686 157.092262 
L 163.68863 156.236467 
L 163.968273 155.380671 
L 164.225318 154.524876 
L 164.475338 153.66908 
L 164.718856 152.813285 
L 164.943623 151.957489 
L 165.136083 151.101694 
L 165.292252 150.245898 
L 165.418981 149.390103 
L 165.526934 148.534307 
L 165.624439 147.678512 
L 165.71594 146.822716 
L 165.802145 145.966921 
L 165.880763 145.111125 
L 165.948665 144.25533 
L 166.004067 143.399534 
L 166.046974 142.543739 
L 166.078317 141.687944 
L 166.099284 140.832148 
L 166.111631 139.976353 
L 166.118369 139.120557 
L 166.12333 138.264762 
L 166.129358 137.408966 
L 166.137069 136.553171 
L 166.145696 135.697375 
L 166.154704 134.84158 
L 166.164028 133.985784 
L 166.218668 133.985784 
L 166.218668 133.985784 
L 166.227992 134.84158 
L 166.237 135.697375 
L 166.245627 136.553171 
L 166.253338 137.408966 
L 166.259366 138.264762 
L 166.264327 139.120557 
L 166.271065 139.976353 
L 166.283412 140.832148 
L 166.304379 141.687944 
L 166.335722 142.543739 
L 166.378629 143.399534 
L 166.434031 144.25533 
L 166.501932 145.111125 
L 166.580551 145.966921 
L 166.666756 146.822716 
L 166.758257 147.678512 
L 166.855762 148.534307 
L 166.963715 149.390103 
L 167.090444 150.245898 
L 167.246613 151.101694 
L 167.439073 151.957489 
L 167.66384 152.813285 
L 167.907358 153.66908 
L 168.157378 154.524876 
L 168.414423 155.380671 
L 168.694065 156.236467 
L 169.01701 157.092262 
L 169.395091 157.948058 
L 169.826949 158.803853 
L 170.303845 159.659649 
L 170.811074 160.515444 
L 171.322044 161.371239 
L 171.802882 162.227035 
L 172.235769 163.08283 
L 172.636812 163.938626 
L 173.039895 164.794421 
L 173.458523 165.650217 
L 173.867918 166.506012 
L 174.221075 167.361808 
L 174.471694 168.217603 
L 174.587586 169.073399 
L 174.564407 169.929194 
L 174.437268 170.78499 
L 174.27101 171.640785 
L 174.12962 172.496581 
L 174.050589 173.352376 
L 174.040868 174.208172 
L 174.083689 175.063967 
L 174.142658 175.919763 
L 174.171113 176.775558 
L 174.134003 177.631354 
L 174.022349 178.487149 
L 173.842445 179.342945 
L 173.598589 180.19874 
L 173.294402 181.054535 
L 172.943354 181.910331 
L 172.566595 182.766126 
L 172.180727 183.621922 
L 171.791786 184.477717 
L 171.398937 185.333513 
L 171.000098 186.189308 
L 170.594609 187.045104 
L 170.185103 187.900899 
L 169.781 188.756695 
L 169.398304 189.61249 
L 169.050441 190.468286 
L 168.738417 191.324081 
L 168.452913 192.179877 
L 168.186054 193.035672 
L 167.938501 193.891468 
L 167.714567 194.747263 
L 167.51442 195.603059 
L 167.335308 196.458854 
L 167.177408 197.31465 
L 167.041451 198.170445 
L 166.92111 199.02624 
L 166.805099 199.882036 
L 166.689356 200.737831 
L 166.582751 201.593627 
L 166.497951 202.449422 
L 166.438796 203.305218 
L 166.398158 204.161013 
L 166.365634 205.016809 
L 166.335072 205.872604 
L 166.306076 206.7284 
L 166.280878 207.584195 
L 166.260684 208.439991 
L 166.244544 209.295786 
L 166.230853 210.151582 
L 166.219123 211.007377 
L 166.210071 211.863173 
L 166.204334 212.718968 
L 166.201509 213.574764 
L 166.200529 214.430559 
L 166.200506 215.286355 
L 166.20091 216.14215 
L 166.201238 216.997946 
L 166.200945 217.853741 
L 166.1997 218.709536 
z
" clip-path="url(#p5fb1f5d78f)" style="fill: #348abd; fill-opacity: 0.3"/>
   </g>
   <g id="PolyCollection_5">
    <path d="M 194.187186 209.272619 
L 194.170431 209.272619 
L 194.169183 208.593449 
L 194.168871 207.91428 
L 194.169175 207.23511 
L 194.169556 206.555941 
L 194.169504 205.876771 
L 194.16846 205.197602 
L 194.16553 204.518432 
L 194.159683 203.839263 
L 194.150546 203.160093 
L 194.138716 202.480924 
L 194.124843 201.801755 
L 194.108413 201.122585 
L 194.087894 200.443416 
L 194.062436 199.764246 
L 194.033239 199.085077 
L 194.002354 198.405907 
L 193.969111 197.726738 
L 193.927225 197.047568 
L 193.866541 196.368399 
L 193.780468 195.689229 
L 193.673096 195.01006 
L 193.556642 194.33089 
L 193.439284 193.651721 
L 193.316871 192.972551 
L 193.17864 192.293382 
L 193.018549 191.614213 
L 192.837015 190.935043 
L 192.633974 190.255874 
L 192.406979 189.576704 
L 192.156467 188.897535 
L 191.886389 188.218365 
L 191.596826 187.539196 
L 191.279925 186.860026 
L 190.927127 186.180857 
L 190.540167 185.501687 
L 190.132474 184.822518 
L 189.7196 184.143348 
L 189.31072 183.464179 
L 188.908491 182.78501 
L 188.512432 182.10584 
L 188.121337 181.426671 
L 187.737092 180.747501 
L 187.371137 180.068332 
L 187.046981 179.389162 
L 186.79012 178.709993 
L 186.610985 178.030823 
L 186.50155 177.351654 
L 186.450949 176.672484 
L 186.455533 175.993315 
L 186.506746 175.314145 
L 186.57736 174.634976 
L 186.628594 173.955806 
L 186.626394 173.276637 
L 186.547768 172.597468 
L 186.384702 171.918298 
L 186.158444 171.239129 
L 185.930016 170.559959 
L 185.78287 169.88079 
L 185.782571 169.20162 
L 185.947551 168.522451 
L 186.251682 167.843281 
L 186.644197 167.164112 
L 187.069283 166.484942 
L 187.488324 165.805773 
L 187.899809 165.126603 
L 188.332413 164.447434 
L 188.810081 163.768265 
L 189.325613 163.089095 
L 189.84811 162.409926 
L 190.346958 161.730756 
L 190.803224 161.051587 
L 191.206239 160.372417 
L 191.552453 159.693248 
L 191.85046 159.014078 
L 192.119577 158.334909 
L 192.377558 157.655739 
L 192.628772 156.97657 
L 192.863479 156.2974 
L 193.067786 155.618231 
L 193.235357 154.939062 
L 193.37103 154.259892 
L 193.485203 153.580723 
L 193.587042 152.901553 
L 193.681858 152.222384 
L 193.77101 151.543214 
L 193.852627 150.864045 
L 193.923614 150.184875 
L 193.98193 149.505706 
L 194.027325 148.826536 
L 194.060646 148.147367 
L 194.083138 147.468197 
L 194.096629 146.789028 
L 194.104142 146.109858 
L 194.109508 145.430689 
L 194.115677 144.75152 
L 194.123469 144.07235 
L 194.13226 143.393181 
L 194.141499 142.714011 
L 194.151025 142.034842 
L 194.206592 142.034842 
L 194.206592 142.034842 
L 194.216118 142.714011 
L 194.225357 143.393181 
L 194.234149 144.07235 
L 194.241941 144.75152 
L 194.24811 145.430689 
L 194.253476 146.109858 
L 194.260988 146.789028 
L 194.27448 147.468197 
L 194.296971 148.147367 
L 194.330293 148.826536 
L 194.375688 149.505706 
L 194.434004 150.184875 
L 194.504991 150.864045 
L 194.586607 151.543214 
L 194.675759 152.222384 
L 194.770576 152.901553 
L 194.872414 153.580723 
L 194.986588 154.259892 
L 195.122261 154.939062 
L 195.289832 155.618231 
L 195.494138 156.2974 
L 195.728846 156.97657 
L 195.980059 157.655739 
L 196.23804 158.334909 
L 196.507158 159.014078 
L 196.805165 159.693248 
L 197.151378 160.372417 
L 197.554394 161.051587 
L 198.010659 161.730756 
L 198.509507 162.409926 
L 199.032004 163.089095 
L 199.547537 163.768265 
L 200.025205 164.447434 
L 200.457809 165.126603 
L 200.869294 165.805773 
L 201.288334 166.484942 
L 201.713421 167.164112 
L 202.105936 167.843281 
L 202.410067 168.522451 
L 202.575047 169.20162 
L 202.574748 169.88079 
L 202.427601 170.559959 
L 202.199174 171.239129 
L 201.972915 171.918298 
L 201.80985 172.597468 
L 201.731224 173.276637 
L 201.729024 173.955806 
L 201.780257 174.634976 
L 201.850872 175.314145 
L 201.902085 175.993315 
L 201.906668 176.672484 
L 201.856067 177.351654 
L 201.746632 178.030823 
L 201.567497 178.709993 
L 201.310637 179.389162 
L 200.98648 180.068332 
L 200.620526 180.747501 
L 200.236281 181.426671 
L 199.845185 182.10584 
L 199.449126 182.78501 
L 199.046897 183.464179 
L 198.638017 184.143348 
L 198.225144 184.822518 
L 197.81745 185.501687 
L 197.430491 186.180857 
L 197.077693 186.860026 
L 196.760792 187.539196 
L 196.471229 188.218365 
L 196.201151 188.897535 
L 195.950639 189.576704 
L 195.723644 190.255874 
L 195.520603 190.935043 
L 195.339068 191.614213 
L 195.178977 192.293382 
L 195.040746 192.972551 
L 194.918333 193.651721 
L 194.800976 194.33089 
L 194.684521 195.01006 
L 194.57715 195.689229 
L 194.491077 196.368399 
L 194.430393 197.047568 
L 194.388506 197.726738 
L 194.355264 198.405907 
L 194.324379 199.085077 
L 194.295181 199.764246 
L 194.269724 200.443416 
L 194.249205 201.122585 
L 194.232775 201.801755 
L 194.218901 202.480924 
L 194.207072 203.160093 
L 194.197934 203.839263 
L 194.192087 204.518432 
L 194.189158 205.197602 
L 194.188113 205.876771 
L 194.188061 206.555941 
L 194.188443 207.23511 
L 194.188747 207.91428 
L 194.188435 208.593449 
L 194.187186 209.272619 
z
" clip-path="url(#p5fb1f5d78f)" style="fill: #348abd; fill-opacity: 0.3"/>
   </g>
   <g id="PolyCollection_6">
    <path d="M 222.174637 202.026422 
L 222.157902 202.026422 
L 222.156653 201.481861 
L 222.156319 200.937301 
L 222.15659 200.39274 
L 222.156937 199.84818 
L 222.156838 199.30362 
L 222.155701 198.759059 
L 222.152627 198.214499 
L 222.146636 197.669938 
L 222.137394 197.125378 
L 222.125454 196.580818 
L 222.111364 196.036257 
L 222.094575 195.491697 
L 222.073653 194.947136 
L 222.047898 194.402576 
L 222.018505 193.858015 
L 221.987256 193.313455 
L 221.953056 192.768895 
L 221.909401 192.224334 
L 221.846523 191.679774 
L 221.758685 191.135213 
L 221.650439 190.590653 
L 221.533381 190.046093 
L 221.414598 189.501532 
L 221.289647 188.956972 
L 221.148462 188.412411 
L 220.985514 187.867851 
L 220.800882 187.32329 
L 220.594176 186.77873 
L 220.36336 186.23417 
L 220.10927 185.689609 
L 219.835335 185.145049 
L 219.540712 184.600488 
L 219.217535 184.055928 
L 218.858474 183.511368 
L 218.466562 182.966807 
L 218.055377 182.422247 
L 217.639787 181.877686 
L 217.228585 181.333126 
L 216.824971 180.788565 
L 216.430409 180.244005 
L 216.048073 179.699445 
L 215.686897 179.154884 
L 215.365037 178.610324 
L 215.106322 178.065763 
L 214.926199 177.521203 
L 214.818546 176.976642 
L 214.761688 176.432082 
L 214.740433 175.887522 
L 214.75568 175.342961 
L 214.807987 174.798401 
L 214.879096 174.25384 
L 214.936037 173.70928 
L 214.946877 173.16472 
L 214.885856 172.620159 
L 214.732811 172.075599 
L 214.486342 171.531038 
L 214.18634 170.986478 
L 213.916406 170.441917 
L 213.770031 169.897357 
L 213.803922 169.352797 
L 214.016922 168.808236 
L 214.363179 168.263676 
L 214.778905 167.719115 
L 215.209624 167.174555 
L 215.634211 166.629995 
L 216.069057 166.085434 
L 216.541447 165.540874 
L 217.056375 164.996313 
L 217.590282 164.451753 
L 218.110587 163.907192 
L 218.59314 163.362632 
L 219.02403 162.818072 
L 219.397227 162.273511 
L 219.717702 161.728951 
L 220.002219 161.18439 
L 220.269839 160.63983 
L 220.529104 160.09527 
L 220.773887 159.550709 
L 220.990875 159.006149 
L 221.171495 158.461588 
L 221.317961 157.917028 
L 221.43978 157.372467 
L 221.546802 156.827907 
L 221.645383 156.283347 
L 221.737722 155.738786 
L 221.82252 155.194226 
L 221.896837 154.649665 
L 221.958392 154.105105 
L 222.006625 153.560545 
L 222.042244 153.015984 
L 222.066531 152.471424 
L 222.081392 151.926863 
L 222.089857 151.382303 
L 222.095739 150.837742 
L 222.102087 150.293182 
L 222.10995 149.748622 
L 222.118888 149.204061 
L 222.128347 148.659501 
L 222.13806 148.11494 
L 222.194479 148.11494 
L 222.194479 148.11494 
L 222.204193 148.659501 
L 222.213651 149.204061 
L 222.222589 149.748622 
L 222.230452 150.293182 
L 222.236801 150.837742 
L 222.242683 151.382303 
L 222.251147 151.926863 
L 222.266008 152.471424 
L 222.290295 153.015984 
L 222.325915 153.560545 
L 222.374147 154.105105 
L 222.435702 154.649665 
L 222.510019 155.194226 
L 222.594817 155.738786 
L 222.687156 156.283347 
L 222.785737 156.827907 
L 222.892759 157.372467 
L 223.014578 157.917028 
L 223.161045 158.461588 
L 223.341665 159.006149 
L 223.558652 159.550709 
L 223.803435 160.09527 
L 224.0627 160.63983 
L 224.33032 161.18439 
L 224.614837 161.728951 
L 224.935312 162.273511 
L 225.30851 162.818072 
L 225.7394 163.362632 
L 226.221953 163.907192 
L 226.742258 164.451753 
L 227.276164 164.996313 
L 227.791092 165.540874 
L 228.263482 166.085434 
L 228.698328 166.629995 
L 229.122915 167.174555 
L 229.553634 167.719115 
L 229.969361 168.263676 
L 230.315618 168.808236 
L 230.528617 169.352797 
L 230.562508 169.897357 
L 230.416133 170.441917 
L 230.146199 170.986478 
L 229.846198 171.531038 
L 229.599728 172.075599 
L 229.446683 172.620159 
L 229.385663 173.16472 
L 229.396503 173.70928 
L 229.453443 174.25384 
L 229.524552 174.798401 
L 229.576859 175.342961 
L 229.592106 175.887522 
L 229.570851 176.432082 
L 229.513993 176.976642 
L 229.40634 177.521203 
L 229.226218 178.065763 
L 228.967502 178.610324 
L 228.645643 179.154884 
L 228.284466 179.699445 
L 227.902131 180.244005 
L 227.507569 180.788565 
L 227.103955 181.333126 
L 226.692752 181.877686 
L 226.277162 182.422247 
L 225.865977 182.966807 
L 225.474065 183.511368 
L 225.115004 184.055928 
L 224.791828 184.600488 
L 224.497204 185.145049 
L 224.223269 185.689609 
L 223.96918 186.23417 
L 223.738363 186.77873 
L 223.531657 187.32329 
L 223.347025 187.867851 
L 223.184077 188.412411 
L 223.042892 188.956972 
L 222.917942 189.501532 
L 222.799158 190.046093 
L 222.6821 190.590653 
L 222.573854 191.135213 
L 222.486017 191.679774 
L 222.423138 192.224334 
L 222.379484 192.768895 
L 222.345284 193.313455 
L 222.314034 193.858015 
L 222.284641 194.402576 
L 222.258886 194.947136 
L 222.237964 195.491697 
L 222.221176 196.036257 
L 222.207085 196.580818 
L 222.195145 197.125378 
L 222.185903 197.669938 
L 222.179912 198.214499 
L 222.176839 198.759059 
L 222.175701 199.30362 
L 222.175602 199.84818 
L 222.175949 200.39274 
L 222.17622 200.937301 
L 222.175886 201.481861 
L 222.174637 202.026422 
z
" clip-path="url(#p5fb1f5d78f)" style="fill: #348abd; fill-opacity: 0.3"/>
   </g>
   <g id="PolyCollection_7">
    <path d="M 250.162084 196.339172 
L 250.145377 196.339172 
L 250.144129 195.899325 
L 250.143766 195.459479 
L 250.143993 195.019632 
L 250.144292 194.579785 
L 250.144121 194.139938 
L 250.142847 193.700092 
L 250.139566 193.260245 
L 250.13336 192.820398 
L 250.123944 192.380551 
L 250.111814 191.940704 
L 250.097389 191.500858 
L 250.080073 191.061011 
L 250.058561 190.621164 
L 250.032345 190.181317 
L 250.002607 189.74147 
L 249.970741 189.301624 
L 249.935046 188.861777 
L 249.888716 188.42193 
L 249.822537 187.982083 
L 249.731976 187.542237 
L 249.622227 187.10239 
L 249.504058 186.662543 
L 249.383061 186.222696 
L 249.254337 185.782849 
L 249.108676 185.343003 
L 248.941215 184.903156 
L 248.751668 184.463309 
L 248.539301 184.023462 
L 248.302628 183.583615 
L 248.042936 183.143769 
L 247.762856 182.703922 
L 247.460299 182.264075 
L 247.127506 181.824228 
L 246.759005 181.384382 
L 246.3598 180.944535 
L 245.94408 180.504688 
L 245.526828 180.064841 
L 245.118658 179.624994 
L 244.727294 179.185148 
L 244.360267 178.745301 
L 244.025195 178.305454 
L 243.729816 177.865607 
L 243.483526 177.425761 
L 243.296604 176.985914 
L 243.172629 176.546067 
L 243.100672 176.10622 
L 243.061284 175.666373 
L 243.044359 175.226527 
L 243.055923 174.78668 
L 243.102052 174.346833 
L 243.170259 173.906986 
L 243.231804 173.467139 
L 243.257264 173.027293 
L 243.222142 172.587446 
L 243.101642 172.147599 
L 242.875714 171.707752 
L 242.553088 171.267906 
L 242.193203 170.828059 
L 241.896107 170.388212 
L 241.757492 169.948365 
L 241.82241 169.508518 
L 242.072363 169.068672 
L 242.446347 168.628825 
L 242.875072 168.188978 
L 243.313236 167.749131 
L 243.755955 167.309284 
L 244.225243 166.869438 
L 244.736514 166.429591 
L 245.278051 165.989744 
L 245.819537 165.549897 
L 246.331801 165.110051 
L 246.795875 164.670204 
L 247.202296 164.230357 
L 247.552034 163.79051 
L 247.858162 163.350663 
L 248.139714 162.910817 
L 248.409282 162.47097 
L 248.66549 162.031123 
L 248.896919 161.591276 
L 249.093255 161.15143 
L 249.253578 160.711583 
L 249.38567 160.271736 
L 249.499711 159.831889 
L 249.603247 159.392042 
L 249.699588 158.952196 
L 249.788222 158.512349 
L 249.866513 158.072502 
L 249.931994 157.632655 
L 249.983739 157.192808 
L 250.02225 156.752962 
L 250.048811 156.313115 
L 250.065414 155.873268 
L 250.075108 155.433421 
L 250.081688 154.993575 
L 250.08831 154.553728 
L 250.096281 154.113881 
L 250.105384 153.674034 
L 250.115087 153.234187 
L 250.125012 152.794341 
L 250.182448 152.794341 
L 250.182448 152.794341 
L 250.192374 153.234187 
L 250.202077 153.674034 
L 250.21118 154.113881 
L 250.21915 154.553728 
L 250.225772 154.993575 
L 250.232353 155.433421 
L 250.242046 155.873268 
L 250.258649 156.313115 
L 250.285211 156.752962 
L 250.323722 157.192808 
L 250.375467 157.632655 
L 250.440948 158.072502 
L 250.519239 158.512349 
L 250.607873 158.952196 
L 250.704214 159.392042 
L 250.80775 159.831889 
L 250.921791 160.271736 
L 251.053882 160.711583 
L 251.214205 161.15143 
L 251.410542 161.591276 
L 251.64197 162.031123 
L 251.898179 162.47097 
L 252.167747 162.910817 
L 252.449299 163.350663 
L 252.755427 163.79051 
L 253.105165 164.230357 
L 253.511586 164.670204 
L 253.97566 165.110051 
L 254.487924 165.549897 
L 255.02941 165.989744 
L 255.570947 166.429591 
L 256.082218 166.869438 
L 256.551506 167.309284 
L 256.994224 167.749131 
L 257.432389 168.188978 
L 257.861114 168.628825 
L 258.235098 169.068672 
L 258.485051 169.508518 
L 258.549969 169.948365 
L 258.411354 170.388212 
L 258.114258 170.828059 
L 257.754373 171.267906 
L 257.431747 171.707752 
L 257.205819 172.147599 
L 257.085319 172.587446 
L 257.050197 173.027293 
L 257.075656 173.467139 
L 257.137201 173.906986 
L 257.205409 174.346833 
L 257.251538 174.78668 
L 257.263101 175.226527 
L 257.246177 175.666373 
L 257.206789 176.10622 
L 257.134832 176.546067 
L 257.010857 176.985914 
L 256.823934 177.425761 
L 256.577645 177.865607 
L 256.282265 178.305454 
L 255.947194 178.745301 
L 255.580167 179.185148 
L 255.188803 179.624994 
L 254.780633 180.064841 
L 254.363381 180.504688 
L 253.947661 180.944535 
L 253.548456 181.384382 
L 253.179955 181.824228 
L 252.847161 182.264075 
L 252.544604 182.703922 
L 252.264525 183.143769 
L 252.004833 183.583615 
L 251.76816 184.023462 
L 251.555793 184.463309 
L 251.366246 184.903156 
L 251.198785 185.343003 
L 251.053124 185.782849 
L 250.9244 186.222696 
L 250.803403 186.662543 
L 250.685233 187.10239 
L 250.575485 187.542237 
L 250.484924 187.982083 
L 250.418745 188.42193 
L 250.372415 188.861777 
L 250.33672 189.301624 
L 250.304854 189.74147 
L 250.275116 190.181317 
L 250.248899 190.621164 
L 250.227388 191.061011 
L 250.210072 191.500858 
L 250.195647 191.940704 
L 250.183517 192.380551 
L 250.174101 192.820398 
L 250.167895 193.260245 
L 250.164614 193.700092 
L 250.163339 194.139938 
L 250.163169 194.579785 
L 250.163468 195.019632 
L 250.163695 195.459479 
L 250.163332 195.899325 
L 250.162084 196.339172 
z
" clip-path="url(#p5fb1f5d78f)" style="fill: #348abd; fill-opacity: 0.3"/>
   </g>
   <g id="PolyCollection_8">
    <path d="M 278.149525 191.787333 
L 278.132858 191.787333 
L 278.131609 191.430436 
L 278.13121 191.073538 
L 278.131381 190.716641 
L 278.131611 190.359744 
L 278.131333 190.002847 
L 278.129862 189.64595 
L 278.126294 189.289053 
L 278.119784 188.932156 
L 278.1101 188.575259 
L 278.097663 188.218362 
L 278.082737 187.861464 
L 278.064676 187.504567 
L 278.042343 187.14767 
L 278.015458 186.790773 
L 277.985145 186.433876 
L 277.952238 186.076979 
L 277.914224 185.720082 
L 277.863978 185.363185 
L 277.793126 185.006288 
L 277.69872 184.649391 
L 277.586674 184.292493 
L 277.466583 183.935596 
L 277.342145 183.578699 
L 277.207944 183.221802 
L 277.055801 182.864905 
L 276.88159 182.508008 
L 276.684634 182.151111 
L 276.463962 181.794214 
L 276.218802 181.437317 
L 275.950756 181.080419 
L 275.66126 180.723522 
L 275.346879 180.366625 
L 275.000804 180.009728 
L 274.621318 179.652831 
L 274.218219 179.295934 
L 273.810047 178.939037 
L 273.415742 178.58214 
L 273.048816 178.225243 
L 272.716108 177.868345 
L 272.418558 177.511448 
L 272.153418 177.154551 
L 271.918911 176.797654 
L 271.719328 176.440757 
L 271.564474 176.08386 
L 271.460277 175.726963 
L 271.39914 175.370066 
L 271.364188 175.013169 
L 271.346011 174.656271 
L 271.350999 174.299374 
L 271.388328 173.942477 
L 271.451205 173.58558 
L 271.51558 173.228683 
L 271.554499 172.871786 
L 271.546357 172.514889 
L 271.468677 172.157992 
L 271.293623 171.801095 
L 271.002649 171.444197 
L 270.615288 171.0873 
L 270.205828 170.730403 
L 269.883951 170.373506 
L 269.744953 170.016609 
L 269.825341 169.659712 
L 270.094816 169.302815 
L 270.483388 168.945918 
L 270.922169 168.589021 
L 271.375622 168.232123 
L 271.846891 167.875226 
L 272.353536 167.518329 
L 272.897476 167.161432 
L 273.456978 166.804535 
L 274.000905 166.447638 
L 274.503948 166.090741 
L 274.951321 165.733844 
L 275.339154 165.376947 
L 275.675682 165.020049 
L 275.978076 164.663152 
L 276.26205 164.306255 
L 276.53187 163.949358 
L 276.779791 163.592461 
L 276.994917 163.235564 
L 277.173003 162.878667 
L 277.319092 162.52177 
L 277.442954 162.164873 
L 277.553301 161.807975 
L 277.654876 161.451078 
L 277.748269 161.094181 
L 277.831384 160.737284 
L 277.901674 160.380387 
L 277.957825 160.02349 
L 278.000035 159.666593 
L 278.029538 159.309696 
L 278.0484 158.952799 
L 278.059704 158.595901 
L 278.067242 158.239004 
L 278.074283 157.882107 
L 278.082425 157.52521 
L 278.091722 157.168313 
L 278.101695 156.811416 
L 278.11186 156.454519 
L 278.170522 156.454519 
L 278.170522 156.454519 
L 278.180688 156.811416 
L 278.19066 157.168313 
L 278.199957 157.52521 
L 278.208099 157.882107 
L 278.21514 158.239004 
L 278.222678 158.595901 
L 278.233982 158.952799 
L 278.252845 159.309696 
L 278.282348 159.666593 
L 278.324558 160.02349 
L 278.380708 160.380387 
L 278.450999 160.737284 
L 278.534113 161.094181 
L 278.627507 161.451078 
L 278.729082 161.807975 
L 278.839429 162.164873 
L 278.963291 162.52177 
L 279.10938 162.878667 
L 279.287465 163.235564 
L 279.502592 163.592461 
L 279.750513 163.949358 
L 280.020333 164.306255 
L 280.304307 164.663152 
L 280.6067 165.020049 
L 280.943228 165.376947 
L 281.331062 165.733844 
L 281.778435 166.090741 
L 282.281478 166.447638 
L 282.825404 166.804535 
L 283.384907 167.161432 
L 283.928846 167.518329 
L 284.435491 167.875226 
L 284.90676 168.232123 
L 285.360213 168.589021 
L 285.798994 168.945918 
L 286.187566 169.302815 
L 286.457041 169.659712 
L 286.537429 170.016609 
L 286.398431 170.373506 
L 286.076555 170.730403 
L 285.667094 171.0873 
L 285.279734 171.444197 
L 284.98876 171.801095 
L 284.813705 172.157992 
L 284.736026 172.514889 
L 284.727883 172.871786 
L 284.766802 173.228683 
L 284.831177 173.58558 
L 284.894054 173.942477 
L 284.931384 174.299374 
L 284.936372 174.656271 
L 284.918195 175.013169 
L 284.883242 175.370066 
L 284.822105 175.726963 
L 284.717908 176.08386 
L 284.563055 176.440757 
L 284.363472 176.797654 
L 284.128965 177.154551 
L 283.863825 177.511448 
L 283.566275 177.868345 
L 283.233566 178.225243 
L 282.866641 178.58214 
L 282.472336 178.939037 
L 282.064163 179.295934 
L 281.661065 179.652831 
L 281.281578 180.009728 
L 280.935503 180.366625 
L 280.621123 180.723522 
L 280.331626 181.080419 
L 280.063581 181.437317 
L 279.81842 181.794214 
L 279.597748 182.151111 
L 279.400792 182.508008 
L 279.226582 182.864905 
L 279.074438 183.221802 
L 278.940238 183.578699 
L 278.815799 183.935596 
L 278.695708 184.292493 
L 278.583663 184.649391 
L 278.489256 185.006288 
L 278.418405 185.363185 
L 278.368159 185.720082 
L 278.330144 186.076979 
L 278.297237 186.433876 
L 278.266925 186.790773 
L 278.240039 187.14767 
L 278.217706 187.504567 
L 278.199646 187.861464 
L 278.184719 188.218362 
L 278.172282 188.575259 
L 278.162599 188.932156 
L 278.156089 189.289053 
L 278.15252 189.64595 
L 278.151049 190.002847 
L 278.150771 190.359744 
L 278.151002 190.716641 
L 278.151172 191.073538 
L 278.150774 191.430436 
L 278.149525 191.787333 
z
" clip-path="url(#p5fb1f5d78f)" style="fill: #348abd; fill-opacity: 0.3"/>
   </g>
   <g id="PolyCollection_9">
    <path d="M 306.136957 188.083819 
L 306.120347 188.083819 
L 306.119098 187.793637 
L 306.118655 187.503455 
L 306.118753 187.213272 
L 306.118886 186.92309 
L 306.118449 186.632908 
L 306.116701 186.342725 
L 306.112743 186.052543 
L 306.105815 185.762361 
L 306.095734 185.472179 
L 306.082819 185.181996 
L 306.067159 184.891814 
L 306.048074 184.601632 
L 306.024641 184.311449 
L 305.996818 184.021267 
L 305.965555 183.731085 
L 305.930884 183.440903 
L 305.889293 183.15072 
L 305.833452 182.860538 
L 305.756269 182.570356 
L 305.656738 182.280173 
L 305.541359 181.989991 
L 305.418047 181.699809 
L 305.28829 181.409627 
L 305.146252 181.119444 
L 304.984934 180.829262 
L 304.800919 180.53908 
L 304.593189 180.248897 
L 304.360893 179.958715 
L 304.104341 179.668533 
L 303.825785 179.378351 
L 303.526626 179.088168 
L 303.205191 178.797986 
L 302.860335 178.507804 
L 302.497857 178.217621 
L 302.131625 177.927439 
L 301.777393 177.637257 
L 301.445961 177.347075 
L 301.141549 177.056892 
L 300.864019 176.76671 
L 300.611182 176.476528 
L 300.38063 176.186345 
L 300.172572 175.896163 
L 299.992906 175.605981 
L 299.852035 175.315798 
L 299.756561 175.025616 
L 299.700449 174.735434 
L 299.667824 174.445252 
L 299.647918 174.155069 
L 299.645265 173.864887 
L 299.6711 173.574705 
L 299.725158 173.284522 
L 299.78946 172.99434 
L 299.839372 172.704158 
L 299.855185 172.413976 
L 299.819667 172.123793 
L 299.708232 171.833611 
L 299.489968 171.543429 
L 299.147959 171.253246 
L 298.708058 170.963064 
L 298.251845 170.672882 
L 297.894155 170.3827 
L 297.732414 170.092517 
L 297.802155 169.802335 
L 298.069525 169.512153 
L 298.461687 169.22197 
L 298.911501 168.931788 
L 299.387568 168.641606 
L 299.892043 168.351424 
L 300.433734 168.061241 
L 301.004447 167.771059 
L 301.577984 167.480877 
L 302.124346 167.190694 
L 302.621326 166.900512 
L 303.058308 166.61033 
L 303.437221 166.320148 
L 303.771122 166.029965 
L 304.076826 165.739783 
L 304.364276 165.449601 
L 304.631371 165.159418 
L 304.8687 164.869236 
L 305.069267 164.579054 
L 305.234432 164.288872 
L 305.372348 163.998689 
L 305.492457 163.708507 
L 305.601196 163.418325 
L 305.7007 163.128142 
L 305.789774 162.83796 
L 305.866011 162.547778 
L 305.927728 162.257595 
L 305.974727 161.967413 
L 306.008095 161.677231 
L 306.02994 161.387049 
L 306.043388 161.096866 
L 306.052249 160.806684 
L 306.05993 160.516502 
L 306.068351 160.226319 
L 306.077886 159.936137 
L 306.088155 159.645955 
L 306.098588 159.355773 
L 306.158716 159.355773 
L 306.158716 159.355773 
L 306.169149 159.645955 
L 306.179418 159.936137 
L 306.188953 160.226319 
L 306.197374 160.516502 
L 306.205055 160.806684 
L 306.213916 161.096866 
L 306.227364 161.387049 
L 306.249209 161.677231 
L 306.282577 161.967413 
L 306.329577 162.257595 
L 306.391293 162.547778 
L 306.46753 162.83796 
L 306.556604 163.128142 
L 306.656108 163.418325 
L 306.764847 163.708507 
L 306.884956 163.998689 
L 307.022872 164.288872 
L 307.188037 164.579054 
L 307.388604 164.869236 
L 307.625933 165.159418 
L 307.893028 165.449601 
L 308.180478 165.739783 
L 308.486182 166.029965 
L 308.820083 166.320148 
L 309.198996 166.61033 
L 309.635978 166.900512 
L 310.132958 167.190694 
L 310.67932 167.480877 
L 311.252857 167.771059 
L 311.82357 168.061241 
L 312.365261 168.351424 
L 312.869736 168.641606 
L 313.345803 168.931788 
L 313.795617 169.22197 
L 314.187779 169.512153 
L 314.455149 169.802335 
L 314.52489 170.092517 
L 314.363149 170.3827 
L 314.005459 170.672882 
L 313.549246 170.963064 
L 313.109345 171.253246 
L 312.767336 171.543429 
L 312.549072 171.833611 
L 312.437637 172.123793 
L 312.402119 172.413976 
L 312.417932 172.704158 
L 312.467844 172.99434 
L 312.532146 173.284522 
L 312.586204 173.574705 
L 312.612039 173.864887 
L 312.609386 174.155069 
L 312.58948 174.445252 
L 312.556855 174.735434 
L 312.500743 175.025616 
L 312.405269 175.315798 
L 312.264398 175.605981 
L 312.084733 175.896163 
L 311.876674 176.186345 
L 311.646122 176.476528 
L 311.393285 176.76671 
L 311.115755 177.056892 
L 310.811343 177.347075 
L 310.479911 177.637257 
L 310.12568 177.927439 
L 309.759447 178.217621 
L 309.396969 178.507804 
L 309.052113 178.797986 
L 308.730678 179.088168 
L 308.431519 179.378351 
L 308.152963 179.668533 
L 307.896411 179.958715 
L 307.664115 180.248897 
L 307.456385 180.53908 
L 307.27237 180.829262 
L 307.111052 181.119444 
L 306.969014 181.409627 
L 306.839257 181.699809 
L 306.715945 181.989991 
L 306.600566 182.280173 
L 306.501035 182.570356 
L 306.423852 182.860538 
L 306.368012 183.15072 
L 306.32642 183.440903 
L 306.291749 183.731085 
L 306.260486 184.021267 
L 306.232663 184.311449 
L 306.20923 184.601632 
L 306.190145 184.891814 
L 306.174485 185.181996 
L 306.16157 185.472179 
L 306.151489 185.762361 
L 306.144561 186.052543 
L 306.140603 186.342725 
L 306.138855 186.632908 
L 306.138418 186.92309 
L 306.138551 187.213272 
L 306.138649 187.503455 
L 306.138206 187.793637 
L 306.136957 188.083819 
z
" clip-path="url(#p5fb1f5d78f)" style="fill: #348abd; fill-opacity: 0.3"/>
   </g>
   <g id="PolyCollection_10">
    <path d="M 334.124386 185.033031 
L 334.107839 185.033031 
L 334.106587 184.797122 
L 334.106091 184.561213 
L 334.106096 184.325304 
L 334.10609 184.089395 
L 334.105419 183.853486 
L 334.103285 183.617577 
L 334.098803 183.381668 
L 334.091298 183.145759 
L 334.08062 182.90985 
L 334.066961 182.673941 
L 334.050225 182.438032 
L 334.029736 182.202123 
L 334.004825 181.966214 
L 333.975637 181.730305 
L 333.942724 181.494396 
L 333.905008 181.258487 
L 333.857875 181.022578 
L 333.794141 180.786669 
L 333.708573 180.55076 
L 333.602312 180.314851 
L 333.481974 180.078942 
L 333.353189 179.843033 
L 333.215182 179.607124 
L 333.062143 179.371215 
L 332.88879 179.135306 
L 332.693288 178.899397 
L 332.47621 178.663488 
L 332.239602 178.427579 
L 331.987197 178.19167 
L 331.722704 177.955761 
L 331.446309 177.719852 
L 331.154458 177.483943 
L 330.845103 177.248034 
L 330.523225 177.012125 
L 330.200297 176.776216 
L 329.888432 176.540307 
L 329.595542 176.304398 
L 329.324826 176.068489 
L 329.076444 175.83258 
L 328.848862 175.596671 
L 328.640107 175.360762 
L 328.450165 175.124853 
L 328.28387 174.888944 
L 328.150607 174.653035 
L 328.057795 174.417126 
L 328.002327 174.181217 
L 327.970354 173.945308 
L 327.949013 173.709399 
L 327.938596 173.47349 
L 327.950259 173.237581 
L 327.990531 173.001672 
L 328.049849 172.765763 
L 328.107138 172.529854 
L 328.142627 172.293945 
L 328.142406 172.058036 
L 328.090429 171.822127 
L 327.959755 171.586218 
L 327.717017 171.350309 
L 327.343582 171.1144 
L 326.86333 170.878491 
L 326.356419 170.642582 
L 325.940109 170.406673 
L 325.719875 170.170764 
L 325.741683 169.934855 
L 325.979108 169.698946 
L 326.361853 169.463037 
L 326.821877 169.227128 
L 327.323744 168.991219 
L 327.861849 168.75531 
L 328.435863 168.519401 
L 329.031442 168.283492 
L 329.620822 168.047583 
L 330.175122 167.811674 
L 330.674426 167.575765 
L 331.111804 167.339856 
L 331.493367 167.103947 
L 331.833798 166.868038 
L 332.147122 166.632129 
L 332.438225 166.39622 
L 332.70207 166.160311 
L 332.930814 165.924402 
L 333.121864 165.688493 
L 333.280245 165.452584 
L 333.415024 165.216675 
L 333.534258 164.980766 
L 333.642124 164.744857 
L 333.738887 164.508948 
L 333.822665 164.273039 
L 333.891544 164.03713 
L 333.944862 163.801221 
L 333.983425 163.565312 
L 334.009304 163.329403 
L 334.025672 163.093494 
L 334.036393 162.857585 
L 334.045054 162.621676 
L 334.053941 162.385767 
L 334.063799 162.149858 
L 334.074409 161.913949 
L 334.085151 161.67804 
L 334.147075 161.67804 
L 334.147075 161.67804 
L 334.157816 161.913949 
L 334.168427 162.149858 
L 334.178285 162.385767 
L 334.187171 162.621676 
L 334.195833 162.857585 
L 334.206554 163.093494 
L 334.222921 163.329403 
L 334.248801 163.565312 
L 334.287364 163.801221 
L 334.340682 164.03713 
L 334.409561 164.273039 
L 334.493339 164.508948 
L 334.590102 164.744857 
L 334.697968 164.980766 
L 334.817202 165.216675 
L 334.951981 165.452584 
L 335.110362 165.688493 
L 335.301412 165.924402 
L 335.530155 166.160311 
L 335.794001 166.39622 
L 336.085104 166.632129 
L 336.398428 166.868038 
L 336.738859 167.103947 
L 337.120422 167.339856 
L 337.5578 167.575765 
L 338.057104 167.811674 
L 338.611404 168.047583 
L 339.200783 168.283492 
L 339.796363 168.519401 
L 340.370377 168.75531 
L 340.908482 168.991219 
L 341.410348 169.227128 
L 341.870372 169.463037 
L 342.253118 169.698946 
L 342.490542 169.934855 
L 342.512351 170.170764 
L 342.292116 170.406673 
L 341.875807 170.642582 
L 341.368896 170.878491 
L 340.888644 171.1144 
L 340.515209 171.350309 
L 340.272471 171.586218 
L 340.141797 171.822127 
L 340.08982 172.058036 
L 340.089599 172.293945 
L 340.125088 172.529854 
L 340.182377 172.765763 
L 340.241694 173.001672 
L 340.281967 173.237581 
L 340.29363 173.47349 
L 340.283212 173.709399 
L 340.261872 173.945308 
L 340.229899 174.181217 
L 340.174431 174.417126 
L 340.081618 174.653035 
L 339.948356 174.888944 
L 339.782061 175.124853 
L 339.592119 175.360762 
L 339.383364 175.596671 
L 339.155782 175.83258 
L 338.9074 176.068489 
L 338.636684 176.304398 
L 338.343794 176.540307 
L 338.031928 176.776216 
L 337.709 177.012125 
L 337.387123 177.248034 
L 337.077767 177.483943 
L 336.785917 177.719852 
L 336.509522 177.955761 
L 336.245028 178.19167 
L 335.992624 178.427579 
L 335.756016 178.663488 
L 335.538938 178.899397 
L 335.343436 179.135306 
L 335.170083 179.371215 
L 335.017044 179.607124 
L 334.879036 179.843033 
L 334.750252 180.078942 
L 334.629913 180.314851 
L 334.523652 180.55076 
L 334.438085 180.786669 
L 334.374351 181.022578 
L 334.327217 181.258487 
L 334.289502 181.494396 
L 334.256589 181.730305 
L 334.227401 181.966214 
L 334.20249 182.202123 
L 334.182001 182.438032 
L 334.165265 182.673941 
L 334.151606 182.90985 
L 334.140928 183.145759 
L 334.133423 183.381668 
L 334.128941 183.617577 
L 334.126807 183.853486 
L 334.126136 184.089395 
L 334.126129 184.325304 
L 334.126134 184.561213 
L 334.125639 184.797122 
L 334.124386 185.033031 
z
" clip-path="url(#p5fb1f5d78f)" style="fill: #348abd; fill-opacity: 0.3"/>
   </g>
   <g id="PolyCollection_11">
    <path d="M 362.111765 182.501261 
L 362.095382 182.501261 
L 362.094129 182.309807 
L 362.093572 182.118353 
L 362.093456 181.926899 
L 362.093252 181.735445 
L 362.092247 181.543992 
L 362.089595 181.352538 
L 362.084435 181.161084 
L 362.076175 180.96963 
L 362.064667 180.778176 
L 362.049949 180.586723 
L 362.031762 180.395269 
L 362.00949 180.203815 
L 361.982729 180.012361 
L 361.951632 179.820907 
L 361.915981 179.629453 
L 361.873298 179.438 
L 361.818082 179.246546 
L 361.744149 179.055092 
L 361.649064 178.863638 
L 361.536456 178.672184 
L 361.412995 178.480731 
L 361.282552 178.289277 
L 361.143602 178.097823 
L 360.991972 177.906369 
L 360.824671 177.714915 
L 360.640729 177.523462 
L 360.440326 177.332008 
L 360.224913 177.140554 
L 359.997243 176.9491 
L 359.759172 176.757646 
L 359.509147 176.566192 
L 359.243506 176.374739 
L 358.961564 176.183285 
L 358.669302 175.991831 
L 358.37751 175.800377 
L 358.096468 175.608923 
L 357.832424 175.41747 
L 357.587753 175.226016 
L 357.362516 175.034562 
L 357.155429 174.843108 
L 356.964619 174.651654 
L 356.78931 174.4602 
L 356.632401 174.268747 
L 356.501469 174.077293 
L 356.404903 173.885839 
L 356.344159 173.694385 
L 356.309735 173.502931 
L 356.287541 173.311478 
L 356.271308 173.120024 
L 356.267853 172.92857 
L 356.288292 172.737116 
L 356.333886 172.545662 
L 356.391329 172.354209 
L 356.441177 172.162755 
L 356.468317 171.971301 
L 356.462395 171.779847 
L 356.408607 171.588393 
L 356.279859 171.396939 
L 356.040654 171.205486 
L 355.66555 171.014032 
L 355.166002 170.822578 
L 354.609355 170.631124 
L 354.109755 170.43967 
L 353.785672 170.248217 
L 353.707335 170.056763 
L 353.870924 169.865309 
L 354.216739 169.673855 
L 354.673689 169.482401 
L 355.194664 169.290947 
L 355.760828 169.099494 
L 356.362604 168.90804 
L 356.98192 168.716586 
L 357.590641 168.525132 
L 358.160402 168.333678 
L 358.672342 168.142225 
L 359.121466 167.950771 
L 359.515509 167.759317 
L 359.868518 167.567863 
L 360.191586 167.376409 
L 360.486818 167.184956 
L 360.749086 166.993502 
L 360.973273 166.802048 
L 361.160159 166.610594 
L 361.316571 166.41914 
L 361.451256 166.227686 
L 361.570663 166.036233 
L 361.677242 165.844779 
L 361.770308 165.653325 
L 361.848084 165.461871 
L 361.909477 165.270417 
L 361.954863 165.078964 
L 361.986131 164.88751 
L 362.006444 164.696056 
L 362.019746 164.504602 
L 362.029848 164.313148 
L 362.039443 164.121694 
L 362.049713 163.930241 
L 362.060674 163.738787 
L 362.071717 163.547333 
L 362.135431 163.547333 
L 362.135431 163.547333 
L 362.146474 163.738787 
L 362.157435 163.930241 
L 362.167704 164.121694 
L 362.177299 164.313148 
L 362.187402 164.504602 
L 362.200703 164.696056 
L 362.221017 164.88751 
L 362.252285 165.078964 
L 362.297671 165.270417 
L 362.359063 165.461871 
L 362.43684 165.653325 
L 362.529905 165.844779 
L 362.636485 166.036233 
L 362.755891 166.227686 
L 362.890577 166.41914 
L 363.046988 166.610594 
L 363.233874 166.802048 
L 363.458062 166.993502 
L 363.720329 167.184956 
L 364.015561 167.376409 
L 364.338629 167.567863 
L 364.691638 167.759317 
L 365.085681 167.950771 
L 365.534806 168.142225 
L 366.046745 168.333678 
L 366.616507 168.525132 
L 367.225227 168.716586 
L 367.844543 168.90804 
L 368.446319 169.099494 
L 369.012484 169.290947 
L 369.533458 169.482401 
L 369.990408 169.673855 
L 370.336223 169.865309 
L 370.499812 170.056763 
L 370.421475 170.248217 
L 370.097392 170.43967 
L 369.597793 170.631124 
L 369.041146 170.822578 
L 368.541597 171.014032 
L 368.166493 171.205486 
L 367.927288 171.396939 
L 367.79854 171.588393 
L 367.744752 171.779847 
L 367.73883 171.971301 
L 367.765971 172.162755 
L 367.815818 172.354209 
L 367.873261 172.545662 
L 367.918855 172.737116 
L 367.939294 172.92857 
L 367.935839 173.120024 
L 367.919606 173.311478 
L 367.897412 173.502931 
L 367.862988 173.694385 
L 367.802244 173.885839 
L 367.705679 174.077293 
L 367.574747 174.268747 
L 367.417837 174.4602 
L 367.242529 174.651654 
L 367.051718 174.843108 
L 366.844631 175.034562 
L 366.619394 175.226016 
L 366.374723 175.41747 
L 366.11068 175.608923 
L 365.829638 175.800377 
L 365.537846 175.991831 
L 365.245583 176.183285 
L 364.963642 176.374739 
L 364.698001 176.566192 
L 364.447975 176.757646 
L 364.209904 176.9491 
L 363.982235 177.140554 
L 363.766821 177.332008 
L 363.566419 177.523462 
L 363.382477 177.714915 
L 363.215175 177.906369 
L 363.063545 178.097823 
L 362.924596 178.289277 
L 362.794153 178.480731 
L 362.670691 178.672184 
L 362.558083 178.863638 
L 362.462999 179.055092 
L 362.389065 179.246546 
L 362.33385 179.438 
L 362.291166 179.629453 
L 362.255515 179.820907 
L 362.224418 180.012361 
L 362.197657 180.203815 
L 362.175386 180.395269 
L 362.157198 180.586723 
L 362.14248 180.778176 
L 362.130972 180.96963 
L 362.122712 181.161084 
L 362.117552 181.352538 
L 362.1149 181.543992 
L 362.113895 181.735445 
L 362.113691 181.926899 
L 362.113575 182.118353 
L 362.113018 182.309807 
L 362.111765 182.501261 
z
" clip-path="url(#p5fb1f5d78f)" style="fill: #348abd; fill-opacity: 0.3"/>
   </g>
   <g id="PolyCollection_12">
    <path d="M 390.099158 180.39629 
L 390.082911 180.39629 
L 390.081646 180.241312 
L 390.081011 180.086335 
L 390.080735 179.931357 
L 390.080247 179.776379 
L 390.078764 179.621401 
L 390.075389 179.466424 
L 390.069288 179.311446 
L 390.059934 179.156468 
L 390.047151 179.00149 
L 390.03084 178.846513 
L 390.010691 178.691535 
L 389.986335 178.536557 
L 389.95777 178.381579 
L 389.92518 178.226601 
L 389.887654 178.071624 
L 389.841805 177.916646 
L 389.782301 177.761668 
L 389.705011 177.60669 
L 389.610444 177.451713 
L 389.503704 177.296735 
L 389.39021 177.141757 
L 389.271231 176.986779 
L 389.143733 176.831802 
L 389.003887 176.676824 
L 388.849728 176.521846 
L 388.680864 176.366868 
L 388.497599 176.211891 
L 388.301382 176.056913 
L 388.094856 175.901935 
L 387.879731 175.746957 
L 387.654511 175.59198 
L 387.415591 175.437002 
L 387.161692 175.282024 
L 386.897361 175.127046 
L 386.631812 174.972069 
L 386.374396 174.817091 
L 386.131143 174.662113 
L 385.904574 174.507135 
L 385.695101 174.352158 
L 385.501949 174.19718 
L 385.323546 174.042202 
L 385.158368 173.887224 
L 385.006837 173.732247 
L 384.873365 173.577269 
L 384.765841 173.422291 
L 384.690584 173.267313 
L 384.645732 173.112336 
L 384.620235 172.957358 
L 384.601822 172.80238 
L 384.5875 172.647402 
L 384.585639 172.492425 
L 384.606493 172.337447 
L 384.650235 172.182469 
L 384.704228 172.027491 
L 384.751139 171.872514 
L 384.778119 171.717536 
L 384.77714 171.562558 
L 384.736594 171.40758 
L 384.632703 171.252603 
L 384.429478 171.097625 
L 384.091408 170.942647 
L 383.607684 170.787669 
L 383.018024 170.632692 
L 382.420295 170.477714 
L 381.943554 170.322736 
L 381.694796 170.167758 
L 381.713902 170.01278 
L 381.968819 169.857803 
L 382.390305 169.702825 
L 382.914658 169.547847 
L 383.503102 169.392869 
L 384.133427 169.237892 
L 384.783289 169.082914 
L 385.423877 168.927936 
L 386.02598 168.772958 
L 386.569408 168.617981 
L 387.048181 168.463003 
L 387.469131 168.308025 
L 387.844829 168.153047 
L 388.18476 167.99807 
L 388.490605 167.843092 
L 388.758671 167.688114 
L 388.986346 167.533136 
L 389.176459 167.378159 
L 389.336482 167.223181 
L 389.474508 167.068203 
L 389.595778 166.913225 
L 389.701792 166.758248 
L 389.791654 166.60327 
L 389.864117 166.448292 
L 389.919047 166.293314 
L 389.957972 166.138337 
L 389.983955 165.983359 
L 390.001053 165.828381 
L 390.013398 165.673403 
L 390.024189 165.518426 
L 390.035136 165.363448 
L 390.046592 165.20847 
L 390.058042 165.053492 
L 390.124027 165.053492 
L 390.124027 165.053492 
L 390.135477 165.20847 
L 390.146933 165.363448 
L 390.15788 165.518426 
L 390.168671 165.673403 
L 390.181016 165.828381 
L 390.198114 165.983359 
L 390.224097 166.138337 
L 390.263022 166.293314 
L 390.317952 166.448292 
L 390.390415 166.60327 
L 390.480277 166.758248 
L 390.586291 166.913225 
L 390.707561 167.068203 
L 390.845587 167.223181 
L 391.00561 167.378159 
L 391.195723 167.533136 
L 391.423398 167.688114 
L 391.691464 167.843092 
L 391.997309 167.99807 
L 392.33724 168.153047 
L 392.712938 168.308025 
L 393.133888 168.463003 
L 393.612661 168.617981 
L 394.156089 168.772958 
L 394.758192 168.927936 
L 395.39878 169.082914 
L 396.048642 169.237892 
L 396.678967 169.392869 
L 397.267411 169.547847 
L 397.791764 169.702825 
L 398.21325 169.857803 
L 398.468167 170.01278 
L 398.487273 170.167758 
L 398.238515 170.322736 
L 397.761774 170.477714 
L 397.164045 170.632692 
L 396.574385 170.787669 
L 396.090661 170.942647 
L 395.752591 171.097625 
L 395.549366 171.252603 
L 395.445475 171.40758 
L 395.404929 171.562558 
L 395.40395 171.717536 
L 395.43093 171.872514 
L 395.477841 172.027491 
L 395.531834 172.182469 
L 395.575576 172.337447 
L 395.59643 172.492425 
L 395.594569 172.647402 
L 395.580247 172.80238 
L 395.561834 172.957358 
L 395.536337 173.112336 
L 395.491485 173.267313 
L 395.416228 173.422291 
L 395.308704 173.577269 
L 395.175232 173.732247 
L 395.023701 173.887224 
L 394.858523 174.042202 
L 394.68012 174.19718 
L 394.486968 174.352158 
L 394.277495 174.507135 
L 394.050926 174.662113 
L 393.807673 174.817091 
L 393.550257 174.972069 
L 393.284708 175.127046 
L 393.020377 175.282024 
L 392.766478 175.437002 
L 392.527558 175.59198 
L 392.302338 175.746957 
L 392.087213 175.901935 
L 391.880687 176.056913 
L 391.68447 176.211891 
L 391.501205 176.366868 
L 391.332341 176.521846 
L 391.178182 176.676824 
L 391.038336 176.831802 
L 390.910838 176.986779 
L 390.791859 177.141757 
L 390.678365 177.296735 
L 390.571625 177.451713 
L 390.477058 177.60669 
L 390.399768 177.761668 
L 390.340264 177.916646 
L 390.294415 178.071624 
L 390.256889 178.226601 
L 390.224299 178.381579 
L 390.195734 178.536557 
L 390.171378 178.691535 
L 390.151229 178.846513 
L 390.134918 179.00149 
L 390.122134 179.156468 
L 390.11278 179.311446 
L 390.10668 179.466424 
L 390.103305 179.621401 
L 390.101822 179.776379 
L 390.101334 179.931357 
L 390.101058 180.086335 
L 390.100423 180.241312 
L 390.099158 180.39629 
z
" clip-path="url(#p5fb1f5d78f)" style="fill: #348abd; fill-opacity: 0.3"/>
   </g>
   <g id="matplotlib.axis_1">
    <g id="xtick_1">
     <g id="line2d_1">
      <path d="M 82.228966 307.584 
L 82.228966 41.472 
" clip-path="url(#p5fb1f5d78f)" style="fill: none; stroke-dasharray: 1.85,0.8; stroke-dashoffset: 0; stroke: #b2b2b2; stroke-width: 0.5"/>
     </g>
     <g id="line2d_2">
      <defs>
       <path id="mf4faf779bc" d="M 0 0 
L 0 -3.5 
" style="stroke: #000000; stroke-width: 0.8"/>
      </defs>
      <g>
       <use xlink:href="#mf4faf779bc" x="82.228966" y="307.584" style="stroke: #000000; stroke-width: 0.8"/>
      </g>
     </g>
     <g id="text_1">
      <!-- 0 -->
      <g transform="translate(79.047716 318.682437) scale(0.1 -0.1)">
       <defs>
        <path id="DejaVuSans-30" d="M 2034 4250 
Q 1547 4250 1301 3770 
Q 1056 3291 1056 2328 
Q 1056 1369 1301 889 
Q 1547 409 2034 409 
Q 2525 409 2770 889 
Q 3016 1369 3016 2328 
Q 3016 3291 2770 3770 
Q 2525 4250 2034 4250 
z
M 2034 4750 
Q 2819 4750 3233 4129 
Q 3647 3509 3647 2328 
Q 3647 1150 3233 529 
Q 2819 -91 2034 -91 
Q 1250 -91 836 529 
Q 422 1150 422 2328 
Q 422 3509 836 4129 
Q 1250 4750 2034 4750 
z
" transform="scale(0.015625)"/>
       </defs>
       <use xlink:href="#DejaVuSans-30"/>
      </g>
     </g>
    </g>
    <g id="xtick_2">
     <g id="line2d_3">
      <path d="M 138.203887 307.584 
L 138.203887 41.472 
" clip-path="url(#p5fb1f5d78f)" style="fill: none; stroke-dasharray: 1.85,0.8; stroke-dashoffset: 0; stroke: #b2b2b2; stroke-width: 0.5"/>
     </g>
     <g id="line2d_4">
      <g>
       <use xlink:href="#mf4faf779bc" x="138.203887" y="307.584" style="stroke: #000000; stroke-width: 0.8"/>
      </g>
     </g>
     <g id="text_2">
      <!-- 50 -->
      <g transform="translate(131.841387 318.682437) scale(0.1 -0.1)">
       <defs>
        <path id="DejaVuSans-35" d="M 691 4666 
L 3169 4666 
L 3169 4134 
L 1269 4134 
L 1269 2991 
Q 1406 3038 1543 3061 
Q 1681 3084 1819 3084 
Q 2600 3084 3056 2656 
Q 3513 2228 3513 1497 
Q 3513 744 3044 326 
Q 2575 -91 1722 -91 
Q 1428 -91 1123 -41 
Q 819 9 494 109 
L 494 744 
Q 775 591 1075 516 
Q 1375 441 1709 441 
Q 2250 441 2565 725 
Q 2881 1009 2881 1497 
Q 2881 1984 2565 2268 
Q 2250 2553 1709 2553 
Q 1456 2553 1204 2497 
Q 953 2441 691 2322 
L 691 4666 
z
" transform="scale(0.015625)"/>
       </defs>
       <use xlink:href="#DejaVuSans-35"/>
       <use xlink:href="#DejaVuSans-30" x="63.623047"/>
      </g>
     </g>
    </g>
    <g id="xtick_3">
     <g id="line2d_5">
      <path d="M 194.178809 307.584 
L 194.178809 41.472 
" clip-path="url(#p5fb1f5d78f)" style="fill: none; stroke-dasharray: 1.85,0.8; stroke-dashoffset: 0; stroke: #b2b2b2; stroke-width: 0.5"/>
     </g>
     <g id="line2d_6">
      <g>
       <use xlink:href="#mf4faf779bc" x="194.178809" y="307.584" style="stroke: #000000; stroke-width: 0.8"/>
      </g>
     </g>
     <g id="text_3">
      <!-- 100 -->
      <g transform="translate(184.635059 318.682437) scale(0.1 -0.1)">
       <defs>
        <path id="DejaVuSans-31" d="M 794 531 
L 1825 531 
L 1825 4091 
L 703 3866 
L 703 4441 
L 1819 4666 
L 2450 4666 
L 2450 531 
L 3481 531 
L 3481 0 
L 794 0 
L 794 531 
z
" transform="scale(0.015625)"/>
       </defs>
       <use xlink:href="#DejaVuSans-31"/>
       <use xlink:href="#DejaVuSans-30" x="63.623047"/>
       <use xlink:href="#DejaVuSans-30" x="127.246094"/>
      </g>
     </g>
    </g>
    <g id="xtick_4">
     <g id="line2d_7">
      <path d="M 250.15373 307.584 
L 250.15373 41.472 
" clip-path="url(#p5fb1f5d78f)" style="fill: none; stroke-dasharray: 1.85,0.8; stroke-dashoffset: 0; stroke: #b2b2b2; stroke-width: 0.5"/>
     </g>
     <g id="line2d_8">
      <g>
       <use xlink:href="#mf4faf779bc" x="250.15373" y="307.584" style="stroke: #000000; stroke-width: 0.8"/>
      </g>
     </g>
     <g id="text_4">
      <!-- 150 -->
      <g transform="translate(240.60998 318.682437) scale(0.1 -0.1)">
       <use xlink:href="#DejaVuSans-31"/>
       <use xlink:href="#DejaVuSans-35" x="63.623047"/>
       <use xlink:href="#DejaVuSans-30" x="127.246094"/>
      </g>
     </g>
    </g>
    <g id="xtick_5">
     <g id="line2d_9">
      <path d="M 306.128652 307.584 
L 306.128652 41.472 
" clip-path="url(#p5fb1f5d78f)" style="fill: none; stroke-dasharray: 1.85,0.8; stroke-dashoffset: 0; stroke: #b2b2b2; stroke-width: 0.5"/>
     </g>
     <g id="line2d_10">
      <g>
       <use xlink:href="#mf4faf779bc" x="306.128652" y="307.584" style="stroke: #000000; stroke-width: 0.8"/>
      </g>
     </g>
     <g id="text_5">
      <!-- 200 -->
      <g transform="translate(296.584902 318.682437) scale(0.1 -0.1)">
       <defs>
        <path id="DejaVuSans-32" d="M 1228 531 
L 3431 531 
L 3431 0 
L 469 0 
L 469 531 
Q 828 903 1448 1529 
Q 2069 2156 2228 2338 
Q 2531 2678 2651 2914 
Q 2772 3150 2772 3378 
Q 2772 3750 2511 3984 
Q 2250 4219 1831 4219 
Q 1534 4219 1204 4116 
Q 875 4013 500 3803 
L 500 4441 
Q 881 4594 1212 4672 
Q 1544 4750 1819 4750 
Q 2544 4750 2975 4387 
Q 3406 4025 3406 3419 
Q 3406 3131 3298 2873 
Q 3191 2616 2906 2266 
Q 2828 2175 2409 1742 
Q 1991 1309 1228 531 
z
" transform="scale(0.015625)"/>
       </defs>
       <use xlink:href="#DejaVuSans-32"/>
       <use xlink:href="#DejaVuSans-30" x="63.623047"/>
       <use xlink:href="#DejaVuSans-30" x="127.246094"/>
      </g>
     </g>
    </g>
    <g id="xtick_6">
     <g id="line2d_11">
      <path d="M 362.103574 307.584 
L 362.103574 41.472 
" clip-path="url(#p5fb1f5d78f)" style="fill: none; stroke-dasharray: 1.85,0.8; stroke-dashoffset: 0; stroke: #b2b2b2; stroke-width: 0.5"/>
     </g>
     <g id="line2d_12">
      <g>
       <use xlink:href="#mf4faf779bc" x="362.103574" y="307.584" style="stroke: #000000; stroke-width: 0.8"/>
      </g>
     </g>
     <g id="text_6">
      <!-- 250 -->
      <g transform="translate(352.559824 318.682437) scale(0.1 -0.1)">
       <use xlink:href="#DejaVuSans-32"/>
       <use xlink:href="#DejaVuSans-35" x="63.623047"/>
       <use xlink:href="#DejaVuSans-30" x="127.246094"/>
      </g>
     </g>
    </g>
    <g id="text_7">
     <!-- $s$ -->
     <g transform="translate(233.34 333.88025) scale(0.12 -0.12)">
      <defs>
       <path id="Cmmi10-73" d="M 556 391 
Q 728 97 1247 97 
Q 1472 97 1675 173 
Q 1878 250 2011 403 
Q 2144 556 2144 775 
Q 2144 941 2025 1047 
Q 1906 1153 1734 1191 
L 1388 1259 
Q 1150 1319 997 1481 
Q 844 1644 844 1875 
Q 844 2159 998 2378 
Q 1153 2597 1406 2712 
Q 1659 2828 1931 2828 
Q 2222 2828 2451 2689 
Q 2681 2550 2681 2278 
Q 2681 2131 2598 2018 
Q 2516 1906 2369 1906 
Q 2284 1906 2223 1961 
Q 2163 2016 2163 2100 
Q 2163 2175 2205 2245 
Q 2247 2316 2317 2358 
Q 2388 2400 2463 2400 
Q 2406 2538 2251 2600 
Q 2097 2663 1919 2663 
Q 1756 2663 1593 2597 
Q 1431 2531 1332 2404 
Q 1234 2278 1234 2106 
Q 1234 1991 1315 1903 
Q 1397 1816 1516 1778 
L 1888 1703 
Q 2066 1666 2214 1570 
Q 2363 1475 2448 1329 
Q 2534 1184 2534 997 
Q 2534 759 2401 528 
Q 2269 297 2075 159 
Q 1734 -72 1241 -72 
Q 900 -72 615 84 
Q 331 241 331 550 
Q 331 725 432 854 
Q 534 984 709 984 
Q 813 984 883 921 
Q 953 859 953 756 
Q 953 609 843 500 
Q 734 391 588 391 
L 556 391 
z
" transform="scale(0.015625)"/>
      </defs>
      <use xlink:href="#Cmmi10-73" transform="translate(0 0.8125)"/>
     </g>
    </g>
   </g>
   <g id="matplotlib.axis_2">
    <g id="ytick_1">
     <g id="line2d_13">
      <path d="M 57.6 271.296 
L 414.72 271.296 
" clip-path="url(#p5fb1f5d78f)" style="fill: none; stroke-dasharray: 1.85,0.8; stroke-dashoffset: 0; stroke: #b2b2b2; stroke-width: 0.5"/>
     </g>
     <g id="line2d_14">
      <defs>
       <path id="m756c506896" d="M 0 0 
L 3.5 0 
" style="stroke: #000000; stroke-width: 0.8"/>
      </defs>
      <g>
       <use xlink:href="#m756c506896" x="57.6" y="271.296" style="stroke: #000000; stroke-width: 0.8"/>
      </g>
     </g>
     <g id="text_8">
      <!-- 4 -->
      <g transform="translate(39.357813 275.095219) scale(0.1 -0.1)">
       <defs>
        <path id="DejaVuSans-2212" d="M 678 2272 
L 4684 2272 
L 4684 1741 
L 678 1741 
L 678 2272 
z
" transform="scale(0.015625)"/>
        <path id="DejaVuSans-34" d="M 2419 4116 
L 825 1625 
L 2419 1625 
L 2419 4116 
z
M 2253 4666 
L 3047 4666 
L 3047 1625 
L 3713 1625 
L 3713 1100 
L 3047 1100 
L 3047 0 
L 2419 0 
L 2419 1100 
L 313 1100 
L 313 1709 
L 2253 4666 
z
" transform="scale(0.015625)"/>
       </defs>
       <use xlink:href="#DejaVuSans-2212"/>
       <use xlink:href="#DejaVuSans-34" x="83.789062"/>
      </g>
     </g>
    </g>
    <g id="ytick_2">
     <g id="line2d_15">
      <path d="M 57.6 222.912 
L 414.72 222.912 
" clip-path="url(#p5fb1f5d78f)" style="fill: none; stroke-dasharray: 1.85,0.8; stroke-dashoffset: 0; stroke: #b2b2b2; stroke-width: 0.5"/>
     </g>
     <g id="line2d_16">
      <g>
       <use xlink:href="#m756c506896" x="57.6" y="222.912" style="stroke: #000000; stroke-width: 0.8"/>
      </g>
     </g>
     <g id="text_9">
      <!-- 2 -->
      <g transform="translate(39.357813 226.711219) scale(0.1 -0.1)">
       <use xlink:href="#DejaVuSans-2212"/>
       <use xlink:href="#DejaVuSans-32" x="83.789062"/>
      </g>
     </g>
    </g>
    <g id="ytick_3">
     <g id="line2d_17">
      <path d="M 57.6 174.528 
L 414.72 174.528 
" clip-path="url(#p5fb1f5d78f)" style="fill: none; stroke-dasharray: 1.85,0.8; stroke-dashoffset: 0; stroke: #b2b2b2; stroke-width: 0.5"/>
     </g>
     <g id="line2d_18">
      <g>
       <use xlink:href="#m756c506896" x="57.6" y="174.528" style="stroke: #000000; stroke-width: 0.8"/>
      </g>
     </g>
     <g id="text_10">
      <!-- 0 -->
      <g transform="translate(47.7375 178.327219) scale(0.1 -0.1)">
       <use xlink:href="#DejaVuSans-30"/>
      </g>
     </g>
    </g>
    <g id="ytick_4">
     <g id="line2d_19">
      <path d="M 57.6 126.144 
L 414.72 126.144 
" clip-path="url(#p5fb1f5d78f)" style="fill: none; stroke-dasharray: 1.85,0.8; stroke-dashoffset: 0; stroke: #b2b2b2; stroke-width: 0.5"/>
     </g>
     <g id="line2d_20">
      <g>
       <use xlink:href="#m756c506896" x="57.6" y="126.144" style="stroke: #000000; stroke-width: 0.8"/>
      </g>
     </g>
     <g id="text_11">
      <!-- 2 -->
      <g transform="translate(47.7375 129.943219) scale(0.1 -0.1)">
       <use xlink:href="#DejaVuSans-32"/>
      </g>
     </g>
    </g>
    <g id="ytick_5">
     <g id="line2d_21">
      <path d="M 57.6 77.76 
L 414.72 77.76 
" clip-path="url(#p5fb1f5d78f)" style="fill: none; stroke-dasharray: 1.85,0.8; stroke-dashoffset: 0; stroke: #b2b2b2; stroke-width: 0.5"/>
     </g>
     <g id="line2d_22">
      <g>
       <use xlink:href="#m756c506896" x="57.6" y="77.76" style="stroke: #000000; stroke-width: 0.8"/>
      </g>
     </g>
     <g id="text_12">
      <!-- 4 -->
      <g transform="translate(47.7375 81.559219) scale(0.1 -0.1)">
       <use xlink:href="#DejaVuSans-34"/>
      </g>
     </g>
    </g>
    <g id="text_13">
     <!-- $x_{s}$ -->
     <g transform="translate(32.862188 180.348) rotate(-90) scale(0.12 -0.12)">
      <defs>
       <path id="Cmmi10-78" d="M 500 184 
Q 613 97 819 97 
Q 1019 97 1172 289 
Q 1325 481 1381 709 
L 1672 1844 
Q 1741 2153 1741 2266 
Q 1741 2425 1652 2544 
Q 1563 2663 1403 2663 
Q 1200 2663 1022 2536 
Q 844 2409 722 2214 
Q 600 2019 550 1819 
Q 538 1778 500 1778 
L 422 1778 
Q 372 1778 372 1838 
L 372 1856 
Q 434 2094 584 2320 
Q 734 2547 951 2687 
Q 1169 2828 1416 2828 
Q 1650 2828 1839 2703 
Q 2028 2578 2106 2363 
Q 2216 2559 2386 2693 
Q 2556 2828 2759 2828 
Q 2897 2828 3040 2779 
Q 3184 2731 3275 2631 
Q 3366 2531 3366 2381 
Q 3366 2219 3261 2101 
Q 3156 1984 2994 1984 
Q 2891 1984 2822 2050 
Q 2753 2116 2753 2216 
Q 2753 2350 2845 2451 
Q 2938 2553 3066 2572 
Q 2950 2663 2747 2663 
Q 2541 2663 2389 2472 
Q 2238 2281 2175 2047 
L 1894 916 
Q 1825 659 1825 494 
Q 1825 331 1917 214 
Q 2009 97 2163 97 
Q 2463 97 2698 361 
Q 2934 625 3009 941 
Q 3022 978 3059 978 
L 3138 978 
Q 3163 978 3178 961 
Q 3194 944 3194 922 
Q 3194 916 3188 903 
Q 3097 522 2806 225 
Q 2516 -72 2150 -72 
Q 1916 -72 1727 54 
Q 1538 181 1459 397 
Q 1359 209 1182 68 
Q 1006 -72 806 -72 
Q 669 -72 523 -23 
Q 378 25 287 125 
Q 197 225 197 378 
Q 197 528 301 651 
Q 406 775 563 775 
Q 669 775 741 711 
Q 813 647 813 544 
Q 813 409 723 309 
Q 634 209 500 184 
z
" transform="scale(0.015625)"/>
      </defs>
      <use xlink:href="#Cmmi10-78" transform="translate(0 0.8125)"/>
      <use xlink:href="#Cmmi10-73" transform="translate(57.080078 -16.19375) scale(0.7)"/>
     </g>
    </g>
   </g>
   <g id="LineCollection_1">
    <path d="M 78.030846 85.160938 
L 86.427085 85.160938 
" clip-path="url(#p5fb1f5d78f)" style="fill: none; stroke: #348abd; stroke-width: 2"/>
    <path d="M 106.018307 107.997979 
L 114.414545 107.997979 
" clip-path="url(#p5fb1f5d78f)" style="fill: none; stroke: #348abd; stroke-width: 2"/>
    <path d="M 134.005768 123.101153 
L 142.402006 123.101153 
" clip-path="url(#p5fb1f5d78f)" style="fill: none; stroke: #348abd; stroke-width: 2"/>
    <path d="M 161.993229 133.985784 
L 170.389467 133.985784 
" clip-path="url(#p5fb1f5d78f)" style="fill: none; stroke: #348abd; stroke-width: 2"/>
    <path d="M 189.98069 142.034842 
L 198.376928 142.034842 
" clip-path="url(#p5fb1f5d78f)" style="fill: none; stroke: #348abd; stroke-width: 2"/>
    <path d="M 217.96815 148.11494 
L 226.364389 148.11494 
" clip-path="url(#p5fb1f5d78f)" style="fill: none; stroke: #348abd; stroke-width: 2"/>
    <path d="M 245.955611 152.794341 
L 254.35185 152.794341 
" clip-path="url(#p5fb1f5d78f)" style="fill: none; stroke: #348abd; stroke-width: 2"/>
    <path d="M 273.943072 156.454519 
L 282.33931 156.454519 
" clip-path="url(#p5fb1f5d78f)" style="fill: none; stroke: #348abd; stroke-width: 2"/>
    <path d="M 301.930533 159.355773 
L 310.326771 159.355773 
" clip-path="url(#p5fb1f5d78f)" style="fill: none; stroke: #348abd; stroke-width: 2"/>
    <path d="M 329.917994 161.67804 
L 338.314232 161.67804 
" clip-path="url(#p5fb1f5d78f)" style="fill: none; stroke: #348abd; stroke-width: 2"/>
    <path d="M 357.905455 163.547333 
L 366.301693 163.547333 
" clip-path="url(#p5fb1f5d78f)" style="fill: none; stroke: #348abd; stroke-width: 2"/>
    <path d="M 385.892915 165.053492 
L 394.289154 165.053492 
" clip-path="url(#p5fb1f5d78f)" style="fill: none; stroke: #348abd; stroke-width: 2"/>
   </g>
   <g id="LineCollection_2">
    <path d="M 78.030846 262.174075 
L 86.427085 262.174075 
" clip-path="url(#p5fb1f5d78f)" style="fill: none; stroke: #348abd; stroke-width: 2"/>
    <path d="M 106.018307 245.763975 
L 114.414545 245.763975 
" clip-path="url(#p5fb1f5d78f)" style="fill: none; stroke: #348abd; stroke-width: 2"/>
    <path d="M 134.005768 231.279179 
L 142.402006 231.279179 
" clip-path="url(#p5fb1f5d78f)" style="fill: none; stroke: #348abd; stroke-width: 2"/>
    <path d="M 161.993229 218.709536 
L 170.389467 218.709536 
" clip-path="url(#p5fb1f5d78f)" style="fill: none; stroke: #348abd; stroke-width: 2"/>
    <path d="M 189.98069 209.272619 
L 198.376928 209.272619 
" clip-path="url(#p5fb1f5d78f)" style="fill: none; stroke: #348abd; stroke-width: 2"/>
    <path d="M 217.96815 202.026422 
L 226.364389 202.026422 
" clip-path="url(#p5fb1f5d78f)" style="fill: none; stroke: #348abd; stroke-width: 2"/>
    <path d="M 245.955611 196.339172 
L 254.35185 196.339172 
" clip-path="url(#p5fb1f5d78f)" style="fill: none; stroke: #348abd; stroke-width: 2"/>
    <path d="M 273.943072 191.787333 
L 282.33931 191.787333 
" clip-path="url(#p5fb1f5d78f)" style="fill: none; stroke: #348abd; stroke-width: 2"/>
    <path d="M 301.930533 188.083819 
L 310.326771 188.083819 
" clip-path="url(#p5fb1f5d78f)" style="fill: none; stroke: #348abd; stroke-width: 2"/>
    <path d="M 329.917994 185.033031 
L 338.314232 185.033031 
" clip-path="url(#p5fb1f5d78f)" style="fill: none; stroke: #348abd; stroke-width: 2"/>
    <path d="M 357.905455 182.501261 
L 366.301693 182.501261 
" clip-path="url(#p5fb1f5d78f)" style="fill: none; stroke: #348abd; stroke-width: 2"/>
    <path d="M 385.892915 180.39629 
L 394.289154 180.39629 
" clip-path="url(#p5fb1f5d78f)" style="fill: none; stroke: #348abd; stroke-width: 2"/>
   </g>
   <g id="LineCollection_3">
    <path d="M 82.228966 262.174075 
L 82.228966 85.160938 
" clip-path="url(#p5fb1f5d78f)" style="fill: none; stroke: #348abd; stroke-width: 2"/>
    <path d="M 110.216426 245.763975 
L 110.216426 107.997979 
" clip-path="url(#p5fb1f5d78f)" style="fill: none; stroke: #348abd; stroke-width: 2"/>
    <path d="M 138.203887 231.279179 
L 138.203887 123.101153 
" clip-path="url(#p5fb1f5d78f)" style="fill: none; stroke: #348abd; stroke-width: 2"/>
    <path d="M 166.191348 218.709536 
L 166.191348 133.985784 
" clip-path="url(#p5fb1f5d78f)" style="fill: none; stroke: #348abd; stroke-width: 2"/>
    <path d="M 194.178809 209.272619 
L 194.178809 142.034842 
" clip-path="url(#p5fb1f5d78f)" style="fill: none; stroke: #348abd; stroke-width: 2"/>
    <path d="M 222.16627 202.026422 
L 222.16627 148.11494 
" clip-path="url(#p5fb1f5d78f)" style="fill: none; stroke: #348abd; stroke-width: 2"/>
    <path d="M 250.15373 196.339172 
L 250.15373 152.794341 
" clip-path="url(#p5fb1f5d78f)" style="fill: none; stroke: #348abd; stroke-width: 2"/>
    <path d="M 278.141191 191.787333 
L 278.141191 156.454519 
" clip-path="url(#p5fb1f5d78f)" style="fill: none; stroke: #348abd; stroke-width: 2"/>
    <path d="M 306.128652 188.083819 
L 306.128652 159.355773 
" clip-path="url(#p5fb1f5d78f)" style="fill: none; stroke: #348abd; stroke-width: 2"/>
    <path d="M 334.116113 185.033031 
L 334.116113 161.67804 
" clip-path="url(#p5fb1f5d78f)" style="fill: none; stroke: #348abd; stroke-width: 2"/>
    <path d="M 362.103574 182.501261 
L 362.103574 163.547333 
" clip-path="url(#p5fb1f5d78f)" style="fill: none; stroke: #348abd; stroke-width: 2"/>
    <path d="M 390.091034 180.39629 
L 390.091034 165.053492 
" clip-path="url(#p5fb1f5d78f)" style="fill: none; stroke: #348abd; stroke-width: 2"/>
   </g>
   <g id="LineCollection_4">
    <path d="M 241.197743 295.488 
L 241.197743 53.568 
" clip-path="url(#p5fb1f5d78f)" style="fill: none; stroke-dasharray: 7.4,3.2; stroke-dashoffset: 0; stroke: #ff0000; stroke-width: 2"/>
   </g>
   <g id="patch_3">
    <path d="M 57.6 307.584 
L 57.6 41.472 
" style="fill: none; stroke: #bcbcbc; stroke-width: 0.8; stroke-linejoin: miter; stroke-linecap: square"/>
   </g>
   <g id="patch_4">
    <path d="M 414.72 307.584 
L 414.72 41.472 
" style="fill: none; stroke: #bcbcbc; stroke-width: 0.8; stroke-linejoin: miter; stroke-linecap: square"/>
   </g>
   <g id="patch_5">
    <path d="M 57.6 307.584 
L 414.72 307.584 
" style="fill: none; stroke: #bcbcbc; stroke-width: 0.8; stroke-linejoin: miter; stroke-linecap: square"/>
   </g>
   <g id="patch_6">
    <path d="M 57.6 41.472 
L 414.72 41.472 
" style="fill: none; stroke: #bcbcbc; stroke-width: 0.8; stroke-linejoin: miter; stroke-linecap: square"/>
   </g>
   <g id="text_14">
    <!-- Violin plot of critical time n = 10000 -->
    <g transform="translate(105.789375 35.472) scale(0.144 -0.144)">
     <defs>
      <path id="DejaVuSans-56" d="M 1831 0 
L 50 4666 
L 709 4666 
L 2188 738 
L 3669 4666 
L 4325 4666 
L 2547 0 
L 1831 0 
z
" transform="scale(0.015625)"/>
      <path id="DejaVuSans-69" d="M 603 3500 
L 1178 3500 
L 1178 0 
L 603 0 
L 603 3500 
z
M 603 4863 
L 1178 4863 
L 1178 4134 
L 603 4134 
L 603 4863 
z
" transform="scale(0.015625)"/>
      <path id="DejaVuSans-6f" d="M 1959 3097 
Q 1497 3097 1228 2736 
Q 959 2375 959 1747 
Q 959 1119 1226 758 
Q 1494 397 1959 397 
Q 2419 397 2687 759 
Q 2956 1122 2956 1747 
Q 2956 2369 2687 2733 
Q 2419 3097 1959 3097 
z
M 1959 3584 
Q 2709 3584 3137 3096 
Q 3566 2609 3566 1747 
Q 3566 888 3137 398 
Q 2709 -91 1959 -91 
Q 1206 -91 779 398 
Q 353 888 353 1747 
Q 353 2609 779 3096 
Q 1206 3584 1959 3584 
z
" transform="scale(0.015625)"/>
      <path id="DejaVuSans-6c" d="M 603 4863 
L 1178 4863 
L 1178 0 
L 603 0 
L 603 4863 
z
" transform="scale(0.015625)"/>
      <path id="DejaVuSans-6e" d="M 3513 2113 
L 3513 0 
L 2938 0 
L 2938 2094 
Q 2938 2591 2744 2837 
Q 2550 3084 2163 3084 
Q 1697 3084 1428 2787 
Q 1159 2491 1159 1978 
L 1159 0 
L 581 0 
L 581 3500 
L 1159 3500 
L 1159 2956 
Q 1366 3272 1645 3428 
Q 1925 3584 2291 3584 
Q 2894 3584 3203 3211 
Q 3513 2838 3513 2113 
z
" transform="scale(0.015625)"/>
      <path id="DejaVuSans-20" transform="scale(0.015625)"/>
      <path id="DejaVuSans-70" d="M 1159 525 
L 1159 -1331 
L 581 -1331 
L 581 3500 
L 1159 3500 
L 1159 2969 
Q 1341 3281 1617 3432 
Q 1894 3584 2278 3584 
Q 2916 3584 3314 3078 
Q 3713 2572 3713 1747 
Q 3713 922 3314 415 
Q 2916 -91 2278 -91 
Q 1894 -91 1617 61 
Q 1341 213 1159 525 
z
M 3116 1747 
Q 3116 2381 2855 2742 
Q 2594 3103 2138 3103 
Q 1681 3103 1420 2742 
Q 1159 2381 1159 1747 
Q 1159 1113 1420 752 
Q 1681 391 2138 391 
Q 2594 391 2855 752 
Q 3116 1113 3116 1747 
z
" transform="scale(0.015625)"/>
      <path id="DejaVuSans-74" d="M 1172 4494 
L 1172 3500 
L 2356 3500 
L 2356 3053 
L 1172 3053 
L 1172 1153 
Q 1172 725 1289 603 
Q 1406 481 1766 481 
L 2356 481 
L 2356 0 
L 1766 0 
Q 1100 0 847 248 
Q 594 497 594 1153 
L 594 3053 
L 172 3053 
L 172 3500 
L 594 3500 
L 594 4494 
L 1172 4494 
z
" transform="scale(0.015625)"/>
      <path id="DejaVuSans-66" d="M 2375 4863 
L 2375 4384 
L 1825 4384 
Q 1516 4384 1395 4259 
Q 1275 4134 1275 3809 
L 1275 3500 
L 2222 3500 
L 2222 3053 
L 1275 3053 
L 1275 0 
L 697 0 
L 697 3053 
L 147 3053 
L 147 3500 
L 697 3500 
L 697 3744 
Q 697 4328 969 4595 
Q 1241 4863 1831 4863 
L 2375 4863 
z
" transform="scale(0.015625)"/>
      <path id="DejaVuSans-63" d="M 3122 3366 
L 3122 2828 
Q 2878 2963 2633 3030 
Q 2388 3097 2138 3097 
Q 1578 3097 1268 2742 
Q 959 2388 959 1747 
Q 959 1106 1268 751 
Q 1578 397 2138 397 
Q 2388 397 2633 464 
Q 2878 531 3122 666 
L 3122 134 
Q 2881 22 2623 -34 
Q 2366 -91 2075 -91 
Q 1284 -91 818 406 
Q 353 903 353 1747 
Q 353 2603 823 3093 
Q 1294 3584 2113 3584 
Q 2378 3584 2631 3529 
Q 2884 3475 3122 3366 
z
" transform="scale(0.015625)"/>
      <path id="DejaVuSans-72" d="M 2631 2963 
Q 2534 3019 2420 3045 
Q 2306 3072 2169 3072 
Q 1681 3072 1420 2755 
Q 1159 2438 1159 1844 
L 1159 0 
L 581 0 
L 581 3500 
L 1159 3500 
L 1159 2956 
Q 1341 3275 1631 3429 
Q 1922 3584 2338 3584 
Q 2397 3584 2469 3576 
Q 2541 3569 2628 3553 
L 2631 2963 
z
" transform="scale(0.015625)"/>
      <path id="DejaVuSans-61" d="M 2194 1759 
Q 1497 1759 1228 1600 
Q 959 1441 959 1056 
Q 959 750 1161 570 
Q 1363 391 1709 391 
Q 2188 391 2477 730 
Q 2766 1069 2766 1631 
L 2766 1759 
L 2194 1759 
z
M 3341 1997 
L 3341 0 
L 2766 0 
L 2766 531 
Q 2569 213 2275 61 
Q 1981 -91 1556 -91 
Q 1019 -91 701 211 
Q 384 513 384 1019 
Q 384 1609 779 1909 
Q 1175 2209 1959 2209 
L 2766 2209 
L 2766 2266 
Q 2766 2663 2505 2880 
Q 2244 3097 1772 3097 
Q 1472 3097 1187 3025 
Q 903 2953 641 2809 
L 641 3341 
Q 956 3463 1253 3523 
Q 1550 3584 1831 3584 
Q 2591 3584 2966 3190 
Q 3341 2797 3341 1997 
z
" transform="scale(0.015625)"/>
      <path id="DejaVuSans-6d" d="M 3328 2828 
Q 3544 3216 3844 3400 
Q 4144 3584 4550 3584 
Q 5097 3584 5394 3201 
Q 5691 2819 5691 2113 
L 5691 0 
L 5113 0 
L 5113 2094 
Q 5113 2597 4934 2840 
Q 4756 3084 4391 3084 
Q 3944 3084 3684 2787 
Q 3425 2491 3425 1978 
L 3425 0 
L 2847 0 
L 2847 2094 
Q 2847 2600 2669 2842 
Q 2491 3084 2119 3084 
Q 1678 3084 1418 2786 
Q 1159 2488 1159 1978 
L 1159 0 
L 581 0 
L 581 3500 
L 1159 3500 
L 1159 2956 
Q 1356 3278 1631 3431 
Q 1906 3584 2284 3584 
Q 2666 3584 2933 3390 
Q 3200 3197 3328 2828 
z
" transform="scale(0.015625)"/>
      <path id="DejaVuSans-65" d="M 3597 1894 
L 3597 1613 
L 953 1613 
Q 991 1019 1311 708 
Q 1631 397 2203 397 
Q 2534 397 2845 478 
Q 3156 559 3463 722 
L 3463 178 
Q 3153 47 2828 -22 
Q 2503 -91 2169 -91 
Q 1331 -91 842 396 
Q 353 884 353 1716 
Q 353 2575 817 3079 
Q 1281 3584 2069 3584 
Q 2775 3584 3186 3129 
Q 3597 2675 3597 1894 
z
M 3022 2063 
Q 3016 2534 2758 2815 
Q 2500 3097 2075 3097 
Q 1594 3097 1305 2825 
Q 1016 2553 972 2059 
L 3022 2063 
z
" transform="scale(0.015625)"/>
      <path id="DejaVuSans-3d" d="M 678 2906 
L 4684 2906 
L 4684 2381 
L 678 2381 
L 678 2906 
z
M 678 1631 
L 4684 1631 
L 4684 1100 
L 678 1100 
L 678 1631 
z
" transform="scale(0.015625)"/>
     </defs>
     <use xlink:href="#DejaVuSans-56"/>
     <use xlink:href="#DejaVuSans-69" x="66.158203"/>
     <use xlink:href="#DejaVuSans-6f" x="93.941406"/>
     <use xlink:href="#DejaVuSans-6c" x="155.123047"/>
     <use xlink:href="#DejaVuSans-69" x="182.90625"/>
     <use xlink:href="#DejaVuSans-6e" x="210.689453"/>
     <use xlink:href="#DejaVuSans-20" x="274.068359"/>
     <use xlink:href="#DejaVuSans-70" x="305.855469"/>
     <use xlink:href="#DejaVuSans-6c" x="369.332031"/>
     <use xlink:href="#DejaVuSans-6f" x="397.115234"/>
     <use xlink:href="#DejaVuSans-74" x="458.296875"/>
     <use xlink:href="#DejaVuSans-20" x="497.505859"/>
     <use xlink:href="#DejaVuSans-6f" x="529.292969"/>
     <use xlink:href="#DejaVuSans-66" x="590.474609"/>
     <use xlink:href="#DejaVuSans-20" x="625.679688"/>
     <use xlink:href="#DejaVuSans-63" x="657.466797"/>
     <use xlink:href="#DejaVuSans-72" x="712.447266"/>
     <use xlink:href="#DejaVuSans-69" x="753.560547"/>
     <use xlink:href="#DejaVuSans-74" x="781.34375"/>
     <use xlink:href="#DejaVuSans-69" x="820.552734"/>
     <use xlink:href="#DejaVuSans-63" x="848.335938"/>
     <use xlink:href="#DejaVuSans-61" x="903.316406"/>
     <use xlink:href="#DejaVuSans-6c" x="964.595703"/>
     <use xlink:href="#DejaVuSans-20" x="992.378906"/>
     <use xlink:href="#DejaVuSans-74" x="1024.166016"/>
     <use xlink:href="#DejaVuSans-69" x="1063.375"/>
     <use xlink:href="#DejaVuSans-6d" x="1091.158203"/>
     <use xlink:href="#DejaVuSans-65" x="1188.570312"/>
     <use xlink:href="#DejaVuSans-20" x="1250.09375"/>
     <use xlink:href="#DejaVuSans-6e" x="1281.880859"/>
     <use xlink:href="#DejaVuSans-20" x="1345.259766"/>
     <use xlink:href="#DejaVuSans-3d" x="1377.046875"/>
     <use xlink:href="#DejaVuSans-20" x="1460.835938"/>
     <use xlink:href="#DejaVuSans-31" x="1492.623047"/>
     <use xlink:href="#DejaVuSans-30" x="1556.246094"/>
     <use xlink:href="#DejaVuSans-30" x="1619.869141"/>
     <use xlink:href="#DejaVuSans-30" x="1683.492188"/>
     <use xlink:href="#DejaVuSans-30" x="1747.115234"/>
    </g>
   </g>
   <g id="legend_1">
    <g id="patch_7">
     <path d="M 401.52 57.072 
L 406.32 57.072 
Q 408.72 57.072 408.72 54.672 
L 408.72 49.872 
Q 408.72 47.472 406.32 47.472 
L 401.52 47.472 
Q 399.12 47.472 399.12 49.872 
L 399.12 54.672 
Q 399.12 57.072 401.52 57.072 
z
" style="fill: #eeeeee; opacity: 0.8; stroke: #cccccc; stroke-width: 0.5; stroke-linejoin: miter"/>
    </g>
   </g>
  </g>
 </g>
 <defs>
  <clipPath id="p5fb1f5d78f">
   <rect x="57.6" y="41.472" width="357.12" height="266.112"/>
  </clipPath>
 </defs>
</svg>
