<?xml version="1.0" encoding="utf-8" standalone="no"?>
<!DOCTYPE svg PUBLIC "-//W3C//DTD SVG 1.1//EN"
  "http://www.w3.org/Graphics/SVG/1.1/DTD/svg11.dtd">
<svg xmlns:xlink="http://www.w3.org/1999/xlink" width="460.8pt" height="345.6pt" viewBox="0 0 460.8 345.6" xmlns="http://www.w3.org/2000/svg" version="1.1">
 <metadata>
  <rdf:RDF xmlns:dc="http://purl.org/dc/elements/1.1/" xmlns:cc="http://creativecommons.org/ns#" xmlns:rdf="http://www.w3.org/1999/02/22-rdf-syntax-ns#">
   <cc:Work>
    <dc:type rdf:resource="http://purl.org/dc/dcmitype/StillImage"/>
    <dc:date>2025-08-22T10:56:12.288505</dc:date>
    <dc:format>image/svg+xml</dc:format>
    <dc:creator>
     <cc:Agent>
      <dc:title>Matplotlib v3.9.2, https://matplotlib.org/</dc:title>
     </cc:Agent>
    </dc:creator>
   </cc:Work>
  </rdf:RDF>
 </metadata>
 <defs>
  <style type="text/css">*{stroke-linejoin: round; stroke-linecap: butt}</style>
 </defs>
 <g id="figure_1">
  <g id="patch_1">
   <path d="M 0 345.6 
L 460.8 345.6 
L 460.8 0 
L 0 0 
z
" style="fill: #ffffff"/>
  </g>
  <g id="axes_1">
   <g id="patch_2">
    <path d="M 57.6 307.584 
L 414.72 307.584 
L 414.72 41.472 
L 57.6 41.472 
z
" style="fill: #eeeeee"/>
   </g>
   <g id="matplotlib.axis_1">
    <g id="xtick_1">
     <g id="line2d_1">
      <path d="M 73.832727 307.584 
L 73.832727 41.472 
" clip-path="url(#pba27ab1cd6)" style="fill: none; stroke-dasharray: 1.85,0.8; stroke-dashoffset: 0; stroke: #b2b2b2; stroke-width: 0.5"/>
     </g>
     <g id="line2d_2">
      <defs>
       <path id="m50e4ffa51f" d="M 0 0 
L 0 -3.5 
" style="stroke: #000000; stroke-width: 0.8"/>
      </defs>
      <g>
       <use xlink:href="#m50e4ffa51f" x="73.832727" y="307.584" style="stroke: #000000; stroke-width: 0.8"/>
      </g>
     </g>
     <g id="text_1">
      <!-- 0 -->
      <g transform="translate(70.651477 318.682437) scale(0.1 -0.1)">
       <defs>
        <path id="DejaVuSans-30" d="M 2034 4250 
Q 1547 4250 1301 3770 
Q 1056 3291 1056 2328 
Q 1056 1369 1301 889 
Q 1547 409 2034 409 
Q 2525 409 2770 889 
Q 3016 1369 3016 2328 
Q 3016 3291 2770 3770 
Q 2525 4250 2034 4250 
z
M 2034 4750 
Q 2819 4750 3233 4129 
Q 3647 3509 3647 2328 
Q 3647 1150 3233 529 
Q 2819 -91 2034 -91 
Q 1250 -91 836 529 
Q 422 1150 422 2328 
Q 422 3509 836 4129 
Q 1250 4750 2034 4750 
z
" transform="scale(0.015625)"/>
       </defs>
       <use xlink:href="#DejaVuSans-30"/>
      </g>
     </g>
    </g>
    <g id="xtick_2">
     <g id="line2d_3">
      <path d="M 128.122785 307.584 
L 128.122785 41.472 
" clip-path="url(#pba27ab1cd6)" style="fill: none; stroke-dasharray: 1.85,0.8; stroke-dashoffset: 0; stroke: #b2b2b2; stroke-width: 0.5"/>
     </g>
     <g id="line2d_4">
      <g>
       <use xlink:href="#m50e4ffa51f" x="128.122785" y="307.584" style="stroke: #000000; stroke-width: 0.8"/>
      </g>
     </g>
     <g id="text_2">
      <!-- 50 -->
      <g transform="translate(121.760285 318.682437) scale(0.1 -0.1)">
       <defs>
        <path id="DejaVuSans-35" d="M 691 4666 
L 3169 4666 
L 3169 4134 
L 1269 4134 
L 1269 2991 
Q 1406 3038 1543 3061 
Q 1681 3084 1819 3084 
Q 2600 3084 3056 2656 
Q 3513 2228 3513 1497 
Q 3513 744 3044 326 
Q 2575 -91 1722 -91 
Q 1428 -91 1123 -41 
Q 819 9 494 109 
L 494 744 
Q 775 591 1075 516 
Q 1375 441 1709 441 
Q 2250 441 2565 725 
Q 2881 1009 2881 1497 
Q 2881 1984 2565 2268 
Q 2250 2553 1709 2553 
Q 1456 2553 1204 2497 
Q 953 2441 691 2322 
L 691 4666 
z
" transform="scale(0.015625)"/>
       </defs>
       <use xlink:href="#DejaVuSans-35"/>
       <use xlink:href="#DejaVuSans-30" x="63.623047"/>
      </g>
     </g>
    </g>
    <g id="xtick_3">
     <g id="line2d_5">
      <path d="M 182.412843 307.584 
L 182.412843 41.472 
" clip-path="url(#pba27ab1cd6)" style="fill: none; stroke-dasharray: 1.85,0.8; stroke-dashoffset: 0; stroke: #b2b2b2; stroke-width: 0.5"/>
     </g>
     <g id="line2d_6">
      <g>
       <use xlink:href="#m50e4ffa51f" x="182.412843" y="307.584" style="stroke: #000000; stroke-width: 0.8"/>
      </g>
     </g>
     <g id="text_3">
      <!-- 100 -->
      <g transform="translate(172.869093 318.682437) scale(0.1 -0.1)">
       <defs>
        <path id="DejaVuSans-31" d="M 794 531 
L 1825 531 
L 1825 4091 
L 703 3866 
L 703 4441 
L 1819 4666 
L 2450 4666 
L 2450 531 
L 3481 531 
L 3481 0 
L 794 0 
L 794 531 
z
" transform="scale(0.015625)"/>
       </defs>
       <use xlink:href="#DejaVuSans-31"/>
       <use xlink:href="#DejaVuSans-30" x="63.623047"/>
       <use xlink:href="#DejaVuSans-30" x="127.246094"/>
      </g>
     </g>
    </g>
    <g id="xtick_4">
     <g id="line2d_7">
      <path d="M 236.702901 307.584 
L 236.702901 41.472 
" clip-path="url(#pba27ab1cd6)" style="fill: none; stroke-dasharray: 1.85,0.8; stroke-dashoffset: 0; stroke: #b2b2b2; stroke-width: 0.5"/>
     </g>
     <g id="line2d_8">
      <g>
       <use xlink:href="#m50e4ffa51f" x="236.702901" y="307.584" style="stroke: #000000; stroke-width: 0.8"/>
      </g>
     </g>
     <g id="text_4">
      <!-- 150 -->
      <g transform="translate(227.159151 318.682437) scale(0.1 -0.1)">
       <use xlink:href="#DejaVuSans-31"/>
       <use xlink:href="#DejaVuSans-35" x="63.623047"/>
       <use xlink:href="#DejaVuSans-30" x="127.246094"/>
      </g>
     </g>
    </g>
    <g id="xtick_5">
     <g id="line2d_9">
      <path d="M 290.992958 307.584 
L 290.992958 41.472 
" clip-path="url(#pba27ab1cd6)" style="fill: none; stroke-dasharray: 1.85,0.8; stroke-dashoffset: 0; stroke: #b2b2b2; stroke-width: 0.5"/>
     </g>
     <g id="line2d_10">
      <g>
       <use xlink:href="#m50e4ffa51f" x="290.992958" y="307.584" style="stroke: #000000; stroke-width: 0.8"/>
      </g>
     </g>
     <g id="text_5">
      <!-- 200 -->
      <g transform="translate(281.449208 318.682437) scale(0.1 -0.1)">
       <defs>
        <path id="DejaVuSans-32" d="M 1228 531 
L 3431 531 
L 3431 0 
L 469 0 
L 469 531 
Q 828 903 1448 1529 
Q 2069 2156 2228 2338 
Q 2531 2678 2651 2914 
Q 2772 3150 2772 3378 
Q 2772 3750 2511 3984 
Q 2250 4219 1831 4219 
Q 1534 4219 1204 4116 
Q 875 4013 500 3803 
L 500 4441 
Q 881 4594 1212 4672 
Q 1544 4750 1819 4750 
Q 2544 4750 2975 4387 
Q 3406 4025 3406 3419 
Q 3406 3131 3298 2873 
Q 3191 2616 2906 2266 
Q 2828 2175 2409 1742 
Q 1991 1309 1228 531 
z
" transform="scale(0.015625)"/>
       </defs>
       <use xlink:href="#DejaVuSans-32"/>
       <use xlink:href="#DejaVuSans-30" x="63.623047"/>
       <use xlink:href="#DejaVuSans-30" x="127.246094"/>
      </g>
     </g>
    </g>
    <g id="xtick_6">
     <g id="line2d_11">
      <path d="M 345.283016 307.584 
L 345.283016 41.472 
" clip-path="url(#pba27ab1cd6)" style="fill: none; stroke-dasharray: 1.85,0.8; stroke-dashoffset: 0; stroke: #b2b2b2; stroke-width: 0.5"/>
     </g>
     <g id="line2d_12">
      <g>
       <use xlink:href="#m50e4ffa51f" x="345.283016" y="307.584" style="stroke: #000000; stroke-width: 0.8"/>
      </g>
     </g>
     <g id="text_6">
      <!-- 250 -->
      <g transform="translate(335.739266 318.682437) scale(0.1 -0.1)">
       <use xlink:href="#DejaVuSans-32"/>
       <use xlink:href="#DejaVuSans-35" x="63.623047"/>
       <use xlink:href="#DejaVuSans-30" x="127.246094"/>
      </g>
     </g>
    </g>
    <g id="xtick_7">
     <g id="line2d_13">
      <path d="M 399.573074 307.584 
L 399.573074 41.472 
" clip-path="url(#pba27ab1cd6)" style="fill: none; stroke-dasharray: 1.85,0.8; stroke-dashoffset: 0; stroke: #b2b2b2; stroke-width: 0.5"/>
     </g>
     <g id="line2d_14">
      <g>
       <use xlink:href="#m50e4ffa51f" x="399.573074" y="307.584" style="stroke: #000000; stroke-width: 0.8"/>
      </g>
     </g>
     <g id="text_7">
      <!-- 300 -->
      <g transform="translate(390.029324 318.682437) scale(0.1 -0.1)">
       <defs>
        <path id="DejaVuSans-33" d="M 2597 2516 
Q 3050 2419 3304 2112 
Q 3559 1806 3559 1356 
Q 3559 666 3084 287 
Q 2609 -91 1734 -91 
Q 1441 -91 1130 -33 
Q 819 25 488 141 
L 488 750 
Q 750 597 1062 519 
Q 1375 441 1716 441 
Q 2309 441 2620 675 
Q 2931 909 2931 1356 
Q 2931 1769 2642 2001 
Q 2353 2234 1838 2234 
L 1294 2234 
L 1294 2753 
L 1863 2753 
Q 2328 2753 2575 2939 
Q 2822 3125 2822 3475 
Q 2822 3834 2567 4026 
Q 2313 4219 1838 4219 
Q 1578 4219 1281 4162 
Q 984 4106 628 3988 
L 628 4550 
Q 988 4650 1302 4700 
Q 1616 4750 1894 4750 
Q 2613 4750 3031 4423 
Q 3450 4097 3450 3541 
Q 3450 3153 3228 2886 
Q 3006 2619 2597 2516 
z
" transform="scale(0.015625)"/>
       </defs>
       <use xlink:href="#DejaVuSans-33"/>
       <use xlink:href="#DejaVuSans-30" x="63.623047"/>
       <use xlink:href="#DejaVuSans-30" x="127.246094"/>
      </g>
     </g>
    </g>
    <g id="text_8">
     <!-- $s$ -->
     <g transform="translate(233.34 333.88025) scale(0.12 -0.12)">
      <defs>
       <path id="Cmmi10-73" d="M 556 391 
Q 728 97 1247 97 
Q 1472 97 1675 173 
Q 1878 250 2011 403 
Q 2144 556 2144 775 
Q 2144 941 2025 1047 
Q 1906 1153 1734 1191 
L 1388 1259 
Q 1150 1319 997 1481 
Q 844 1644 844 1875 
Q 844 2159 998 2378 
Q 1153 2597 1406 2712 
Q 1659 2828 1931 2828 
Q 2222 2828 2451 2689 
Q 2681 2550 2681 2278 
Q 2681 2131 2598 2018 
Q 2516 1906 2369 1906 
Q 2284 1906 2223 1961 
Q 2163 2016 2163 2100 
Q 2163 2175 2205 2245 
Q 2247 2316 2317 2358 
Q 2388 2400 2463 2400 
Q 2406 2538 2251 2600 
Q 2097 2663 1919 2663 
Q 1756 2663 1593 2597 
Q 1431 2531 1332 2404 
Q 1234 2278 1234 2106 
Q 1234 1991 1315 1903 
Q 1397 1816 1516 1778 
L 1888 1703 
Q 2066 1666 2214 1570 
Q 2363 1475 2448 1329 
Q 2534 1184 2534 997 
Q 2534 759 2401 528 
Q 2269 297 2075 159 
Q 1734 -72 1241 -72 
Q 900 -72 615 84 
Q 331 241 331 550 
Q 331 725 432 854 
Q 534 984 709 984 
Q 813 984 883 921 
Q 953 859 953 756 
Q 953 609 843 500 
Q 734 391 588 391 
L 556 391 
z
" transform="scale(0.015625)"/>
      </defs>
      <use xlink:href="#Cmmi10-73" transform="translate(0 0.8125)"/>
     </g>
    </g>
   </g>
   <g id="matplotlib.axis_2">
    <g id="ytick_1">
     <g id="line2d_15">
      <path d="M 57.6 271.296 
L 414.72 271.296 
" clip-path="url(#pba27ab1cd6)" style="fill: none; stroke-dasharray: 1.85,0.8; stroke-dashoffset: 0; stroke: #b2b2b2; stroke-width: 0.5"/>
     </g>
     <g id="line2d_16">
      <defs>
       <path id="mfdf5dd97c2" d="M 0 0 
L 3.5 0 
" style="stroke: #000000; stroke-width: 0.8"/>
      </defs>
      <g>
       <use xlink:href="#mfdf5dd97c2" x="57.6" y="271.296" style="stroke: #000000; stroke-width: 0.8"/>
      </g>
     </g>
     <g id="text_9">
      <!-- −4 -->
      <g transform="translate(39.357813 275.095219) scale(0.1 -0.1)">
       <defs>
        <path id="DejaVuSans-2212" d="M 678 2272 
L 4684 2272 
L 4684 1741 
L 678 1741 
L 678 2272 
z
" transform="scale(0.015625)"/>
        <path id="DejaVuSans-34" d="M 2419 4116 
L 825 1625 
L 2419 1625 
L 2419 4116 
z
M 2253 4666 
L 3047 4666 
L 3047 1625 
L 3713 1625 
L 3713 1100 
L 3047 1100 
L 3047 0 
L 2419 0 
L 2419 1100 
L 313 1100 
L 313 1709 
L 2253 4666 
z
" transform="scale(0.015625)"/>
       </defs>
       <use xlink:href="#DejaVuSans-2212"/>
       <use xlink:href="#DejaVuSans-34" x="83.789062"/>
      </g>
     </g>
    </g>
    <g id="ytick_2">
     <g id="line2d_17">
      <path d="M 57.6 222.912 
L 414.72 222.912 
" clip-path="url(#pba27ab1cd6)" style="fill: none; stroke-dasharray: 1.85,0.8; stroke-dashoffset: 0; stroke: #b2b2b2; stroke-width: 0.5"/>
     </g>
     <g id="line2d_18">
      <g>
       <use xlink:href="#mfdf5dd97c2" x="57.6" y="222.912" style="stroke: #000000; stroke-width: 0.8"/>
      </g>
     </g>
     <g id="text_10">
      <!-- −2 -->
      <g transform="translate(39.357813 226.711219) scale(0.1 -0.1)">
       <use xlink:href="#DejaVuSans-2212"/>
       <use xlink:href="#DejaVuSans-32" x="83.789062"/>
      </g>
     </g>
    </g>
    <g id="ytick_3">
     <g id="line2d_19">
      <path d="M 57.6 174.528 
L 414.72 174.528 
" clip-path="url(#pba27ab1cd6)" style="fill: none; stroke-dasharray: 1.85,0.8; stroke-dashoffset: 0; stroke: #b2b2b2; stroke-width: 0.5"/>
     </g>
     <g id="line2d_20">
      <g>
       <use xlink:href="#mfdf5dd97c2" x="57.6" y="174.528" style="stroke: #000000; stroke-width: 0.8"/>
      </g>
     </g>
     <g id="text_11">
      <!-- 0 -->
      <g transform="translate(47.7375 178.327219) scale(0.1 -0.1)">
       <use xlink:href="#DejaVuSans-30"/>
      </g>
     </g>
    </g>
    <g id="ytick_4">
     <g id="line2d_21">
      <path d="M 57.6 126.144 
L 414.72 126.144 
" clip-path="url(#pba27ab1cd6)" style="fill: none; stroke-dasharray: 1.85,0.8; stroke-dashoffset: 0; stroke: #b2b2b2; stroke-width: 0.5"/>
     </g>
     <g id="line2d_22">
      <g>
       <use xlink:href="#mfdf5dd97c2" x="57.6" y="126.144" style="stroke: #000000; stroke-width: 0.8"/>
      </g>
     </g>
     <g id="text_12">
      <!-- 2 -->
      <g transform="translate(47.7375 129.943219) scale(0.1 -0.1)">
       <use xlink:href="#DejaVuSans-32"/>
      </g>
     </g>
    </g>
    <g id="ytick_5">
     <g id="line2d_23">
      <path d="M 57.6 77.76 
L 414.72 77.76 
" clip-path="url(#pba27ab1cd6)" style="fill: none; stroke-dasharray: 1.85,0.8; stroke-dashoffset: 0; stroke: #b2b2b2; stroke-width: 0.5"/>
     </g>
     <g id="line2d_24">
      <g>
       <use xlink:href="#mfdf5dd97c2" x="57.6" y="77.76" style="stroke: #000000; stroke-width: 0.8"/>
      </g>
     </g>
     <g id="text_13">
      <!-- 4 -->
      <g transform="translate(47.7375 81.559219) scale(0.1 -0.1)">
       <use xlink:href="#DejaVuSans-34"/>
      </g>
     </g>
    </g>
    <g id="text_14">
     <!-- $x_{s}$ -->
     <g transform="translate(32.862188 180.348) rotate(-90) scale(0.12 -0.12)">
      <defs>
       <path id="Cmmi10-78" d="M 500 184 
Q 613 97 819 97 
Q 1019 97 1172 289 
Q 1325 481 1381 709 
L 1672 1844 
Q 1741 2153 1741 2266 
Q 1741 2425 1652 2544 
Q 1563 2663 1403 2663 
Q 1200 2663 1022 2536 
Q 844 2409 722 2214 
Q 600 2019 550 1819 
Q 538 1778 500 1778 
L 422 1778 
Q 372 1778 372 1838 
L 372 1856 
Q 434 2094 584 2320 
Q 734 2547 951 2687 
Q 1169 2828 1416 2828 
Q 1650 2828 1839 2703 
Q 2028 2578 2106 2363 
Q 2216 2559 2386 2693 
Q 2556 2828 2759 2828 
Q 2897 2828 3040 2779 
Q 3184 2731 3275 2631 
Q 3366 2531 3366 2381 
Q 3366 2219 3261 2101 
Q 3156 1984 2994 1984 
Q 2891 1984 2822 2050 
Q 2753 2116 2753 2216 
Q 2753 2350 2845 2451 
Q 2938 2553 3066 2572 
Q 2950 2663 2747 2663 
Q 2541 2663 2389 2472 
Q 2238 2281 2175 2047 
L 1894 916 
Q 1825 659 1825 494 
Q 1825 331 1917 214 
Q 2009 97 2163 97 
Q 2463 97 2698 361 
Q 2934 625 3009 941 
Q 3022 978 3059 978 
L 3138 978 
Q 3163 978 3178 961 
Q 3194 944 3194 922 
Q 3194 916 3188 903 
Q 3097 522 2806 225 
Q 2516 -72 2150 -72 
Q 1916 -72 1727 54 
Q 1538 181 1459 397 
Q 1359 209 1182 68 
Q 1006 -72 806 -72 
Q 669 -72 523 -23 
Q 378 25 287 125 
Q 197 225 197 378 
Q 197 528 301 651 
Q 406 775 563 775 
Q 669 775 741 711 
Q 813 647 813 544 
Q 813 409 723 309 
Q 634 209 500 184 
z
" transform="scale(0.015625)"/>
      </defs>
      <use xlink:href="#Cmmi10-78" transform="translate(0 0.8125)"/>
      <use xlink:href="#Cmmi10-73" transform="translate(57.080078 -16.19375) scale(0.7)"/>
     </g>
    </g>
   </g>
   <g id="line2d_25">
    <path d="M 73.832727 180.039278 
L 74.918528 181.250556 
L 76.00433 181.117079 
L 77.090131 181.241945 
L 78.175932 186.148139 
L 79.261733 182.404718 
L 80.347534 184.283505 
L 81.433335 177.489494 
L 82.519137 176.617516 
L 83.604938 173.167728 
L 84.690739 175.653145 
L 85.77654 177.399182 
L 87.948142 176.971325 
L 89.033943 174.759979 
L 90.119745 173.767151 
L 91.205546 165.954169 
L 92.291347 165.217145 
L 93.377148 165.758913 
L 94.462949 161.100013 
L 95.54875 160.226726 
L 96.634552 160.995018 
L 97.720353 157.101943 
L 98.806154 155.297643 
L 99.891955 155.195864 
L 100.977756 153.161375 
L 102.063557 158.830156 
L 103.149358 158.934163 
L 104.23516 162.952304 
L 105.320961 160.459339 
L 106.406762 157.341107 
L 107.492563 159.553577 
L 108.578364 157.518302 
L 109.664165 157.113802 
L 110.749967 160.980015 
L 111.835768 163.810276 
L 112.921569 159.737134 
L 114.00737 159.943068 
L 115.093171 159.705566 
L 116.178972 163.965477 
L 117.264773 163.83145 
L 118.350575 167.59265 
L 119.436376 173.739277 
L 120.522177 170.545393 
L 121.607978 170.607023 
L 122.693779 174.179362 
L 123.77958 169.555833 
L 124.865382 168.242595 
L 125.951183 162.947522 
L 127.036984 168.778784 
L 128.122785 173.482449 
L 129.208586 175.986002 
L 130.294387 173.676607 
L 131.380189 170.899684 
L 132.46599 173.478608 
L 133.551791 173.875063 
L 134.637592 172.157756 
L 135.723393 172.207609 
L 136.809194 175.228734 
L 137.894995 176.190917 
L 138.980797 178.090294 
L 140.066598 178.389029 
L 141.152399 176.402762 
L 142.2382 172.184881 
L 143.324001 168.571102 
L 144.409802 166.643058 
L 145.495604 162.234028 
L 146.581405 160.320533 
L 147.667206 159.921067 
L 148.753007 164.104901 
L 149.838808 169.597409 
L 150.924609 172.133477 
L 152.01041 175.242736 
L 153.096212 177.965618 
L 155.267814 184.263054 
L 156.353615 184.742954 
L 157.439416 185.563047 
L 158.525217 190.462516 
L 159.611019 188.950272 
L 160.69682 183.883764 
L 161.782621 183.119773 
L 162.868422 186.871906 
L 163.954223 185.641145 
L 165.040024 184.784584 
L 166.125825 184.604343 
L 167.211627 180.202511 
L 168.297428 176.621417 
L 169.383229 175.792969 
L 170.46903 172.056941 
L 171.554831 173.41561 
L 172.640632 175.777294 
L 173.726434 175.056249 
L 174.812235 171.083316 
L 175.898036 171.344501 
L 176.983837 166.108044 
L 178.069638 166.042464 
L 181.327042 157.315843 
L 182.412843 155.241639 
L 183.498644 158.435732 
L 184.584445 159.179944 
L 185.670246 157.881502 
L 186.756047 153.483343 
L 187.841849 154.414746 
L 188.92765 156.619444 
L 190.013451 158.178193 
L 191.099252 155.767555 
L 192.185053 152.10897 
L 193.270854 149.596559 
L 194.356656 149.671012 
L 195.442457 155.423427 
L 196.528258 153.203014 
L 197.614059 153.012064 
L 198.69986 156.824188 
L 199.785661 154.611475 
L 200.871462 157.495535 
L 201.957264 154.390596 
L 203.043065 156.144005 
L 204.128866 155.643112 
L 205.214667 159.836622 
L 206.300468 160.635769 
L 207.386269 157.54061 
L 208.472071 158.504608 
L 209.557872 161.064373 
L 210.643673 163.957126 
L 211.729474 168.597103 
L 213.901076 164.700881 
L 214.986877 169.499893 
L 216.072679 168.911297 
L 217.15848 172.420465 
L 218.244281 173.038464 
L 219.330082 172.847441 
L 220.415883 170.091976 
L 221.501684 171.774995 
L 222.587486 167.061818 
L 223.673287 166.04645 
L 224.759088 166.969949 
L 225.844889 168.918072 
L 226.93069 172.383008 
L 228.016491 171.703531 
L 229.102292 168.263607 
L 230.188094 170.055889 
L 231.273895 176.312259 
L 232.359696 179.222637 
L 233.445497 179.799997 
L 234.531298 173.947327 
L 235.617099 170.356306 
L 236.702901 173.539609 
L 237.788702 173.619116 
L 239.960304 176.2447 
L 241.046105 176.094693 
L 242.131906 180.047692 
L 243.217708 180.144016 
L 244.303509 178.956868 
L 245.38931 180.314921 
L 246.475111 182.777687 
L 247.560912 181.935404 
L 248.646713 178.724349 
L 249.732514 181.290873 
L 250.818316 183.172635 
L 251.904117 181.116956 
L 252.989918 180.852599 
L 254.075719 180.105959 
L 255.16152 178.116538 
L 256.247321 182.292714 
L 257.333123 185.632369 
L 258.418924 185.280107 
L 259.504725 188.783096 
L 260.590526 184.916207 
L 261.676327 183.911288 
L 263.847929 182.654672 
L 264.933731 182.159959 
L 266.019532 181.894479 
L 267.105333 179.269008 
L 268.191134 178.814355 
L 269.276935 179.496877 
L 270.362736 178.412462 
L 271.448538 181.534925 
L 272.534339 181.676029 
L 273.62014 182.507858 
L 274.705941 181.232392 
L 275.791742 182.3156 
L 276.877543 185.533901 
L 277.963344 181.73528 
L 279.049146 179.75832 
L 280.134947 177.220247 
L 281.220748 180.76673 
L 282.306549 181.357295 
L 283.39235 182.795278 
L 284.478151 181.662959 
L 285.563953 183.707919 
L 286.649754 184.132296 
L 287.735555 183.688495 
L 288.821356 187.486426 
L 289.907157 188.630672 
L 290.992958 187.090833 
L 292.07876 187.026262 
L 293.164561 185.338276 
L 294.250362 185.184163 
L 295.336163 189.274505 
L 296.421964 188.490417 
L 297.507765 190.925874 
L 298.593566 185.381036 
L 299.679368 188.066149 
L 300.765169 187.173989 
L 301.85097 184.514498 
L 302.936771 188.59818 
L 304.022572 188.551332 
L 305.108373 189.344779 
L 306.194175 185.241674 
L 307.279976 185.159804 
L 308.365777 185.846807 
L 309.451578 186.276688 
L 311.62318 185.657131 
L 312.708981 185.789523 
L 314.880584 188.176047 
L 315.966385 189.92466 
L 317.052186 192.364956 
L 318.137987 192.710717 
L 319.223788 191.183295 
L 321.395391 186.675293 
L 322.481192 186.671569 
L 323.566993 184.819508 
L 324.652794 185.460325 
L 325.738595 185.343066 
L 326.824396 184.607325 
L 327.910198 184.530234 
L 328.995999 184.648414 
L 330.0818 183.614103 
L 331.167601 183.939703 
L 332.253402 183.024117 
L 333.339203 183.056714 
L 334.425005 182.086981 
L 335.510806 186.468524 
L 336.596607 187.8787 
L 337.682408 188.569525 
L 338.768209 188.841896 
L 339.85401 189.526635 
L 340.939811 189.338544 
L 342.025613 189.442243 
L 343.111414 189.876176 
L 344.197215 188.575027 
L 345.283016 188.765667 
L 346.368817 190.040292 
L 347.454618 189.780072 
L 348.54042 188.572057 
L 349.626221 188.805391 
L 350.712022 188.594611 
L 351.797823 187.349249 
L 352.883624 187.288579 
L 353.969425 187.65921 
L 355.055227 189.833323 
L 356.141028 190.199593 
L 357.226829 192.991498 
L 358.31263 191.953276 
L 359.398431 192.276939 
L 360.484232 195.246341 
L 361.570033 196.261743 
L 362.655835 195.216335 
L 363.741636 195.758649 
L 364.827437 195.204334 
L 365.913238 193.923653 
L 366.999039 194.147912 
L 369.170642 196.775952 
L 370.256443 197.112855 
L 371.342244 197.826992 
L 372.428045 196.992809 
L 373.513846 197.64284 
L 374.599647 197.330614 
L 375.685448 197.360107 
L 376.77125 197.967701 
L 377.857051 197.252303 
L 378.942852 197.479286 
L 380.028653 197.578925 
L 381.114454 199.470946 
L 382.200255 200.161715 
L 383.286057 198.537215 
L 384.371858 199.457538 
L 385.457659 198.958066 
L 386.54346 199.487495 
L 387.629261 198.716606 
L 388.715062 199.021968 
L 389.800863 198.741956 
L 390.886665 197.652711 
L 394.144068 199.675996 
L 395.229869 199.701372 
L 396.31567 200.335552 
L 397.401472 200.559208 
L 398.487273 200.955246 
L 398.487273 200.955246 
" clip-path="url(#pba27ab1cd6)" style="fill: none; stroke: #0000ff; stroke-opacity: 0.5; stroke-width: 2; stroke-linecap: square"/>
   </g>
   <g id="line2d_26">
    <path d="M 73.832727 155.449788 
L 74.918528 154.713128 
L 76.00433 153.810876 
L 77.090131 154.018028 
L 79.261733 157.171 
L 80.347534 160.203702 
L 81.433335 162.612339 
L 82.519137 168.420633 
L 83.604938 169.106116 
L 84.690739 171.564733 
L 86.862341 174.553043 
L 87.948142 174.583079 
L 89.033943 178.143388 
L 90.119745 176.596239 
L 91.205546 174.086309 
L 92.291347 176.982902 
L 93.377148 176.374733 
L 94.462949 175.055955 
L 95.54875 174.582992 
L 96.634552 175.291428 
L 97.720353 173.809405 
L 98.806154 173.33932 
L 99.891955 171.030559 
L 100.977756 176.159994 
L 102.063557 172.126727 
L 103.149358 171.208524 
L 104.23516 173.630001 
L 105.320961 173.593267 
L 106.406762 178.322554 
L 107.492563 178.668437 
L 108.578364 178.590261 
L 109.664165 175.341435 
L 110.749967 173.543213 
L 111.835768 175.341538 
L 112.921569 174.49362 
L 114.00737 175.813543 
L 115.093171 174.381557 
L 116.178972 177.964202 
L 117.264773 179.269754 
L 118.350575 177.293029 
L 119.436376 177.779484 
L 120.522177 178.696752 
L 121.607978 175.479078 
L 122.693779 165.024035 
L 123.77958 164.627094 
L 124.865382 165.277569 
L 125.951183 164.009865 
L 127.036984 163.649638 
L 128.122785 169.274166 
L 129.208586 167.458902 
L 130.294387 172.666003 
L 131.380189 173.949911 
L 132.46599 168.705168 
L 133.551791 174.527112 
L 134.637592 175.067286 
L 135.723393 175.274266 
L 136.809194 175.902259 
L 137.894995 172.431585 
L 138.980797 167.552328 
L 140.066598 167.0416 
L 141.152399 167.610134 
L 142.2382 164.076865 
L 143.324001 164.384677 
L 144.409802 159.040882 
L 145.495604 159.587037 
L 146.581405 160.321768 
L 147.667206 162.694586 
L 148.753007 163.798508 
L 149.838808 163.551406 
L 150.924609 159.622551 
L 153.096212 160.174403 
L 154.182013 161.135863 
L 155.267814 165.85683 
L 156.353615 165.933173 
L 157.439416 166.598205 
L 158.525217 169.687843 
L 159.611019 172.125008 
L 160.69682 166.927505 
L 161.782621 167.526179 
L 162.868422 165.828523 
L 163.954223 167.986734 
L 165.040024 166.768151 
L 166.125825 169.722645 
L 167.211627 167.999429 
L 168.297428 160.532955 
L 169.383229 161.511038 
L 170.46903 160.519371 
L 171.554831 163.404339 
L 172.640632 165.711816 
L 174.812235 164.750854 
L 175.898036 165.412686 
L 176.983837 166.555011 
L 178.069638 163.387021 
L 179.155439 165.814393 
L 180.24124 169.254942 
L 181.327042 172.199492 
L 182.412843 177.270777 
L 183.498644 174.452677 
L 184.584445 174.846219 
L 185.670246 177.297594 
L 186.756047 178.758661 
L 188.92765 182.479976 
L 190.013451 176.545738 
L 191.099252 173.818921 
L 192.185053 170.400224 
L 193.270854 168.621701 
L 194.356656 165.490289 
L 195.442457 166.977316 
L 196.528258 164.066562 
L 197.614059 162.981948 
L 198.69986 168.445179 
L 199.785661 168.191063 
L 200.871462 165.56176 
L 201.957264 165.054433 
L 203.043065 165.690853 
L 204.128866 167.336785 
L 206.300468 170.081106 
L 207.386269 171.679702 
L 208.472071 174.935538 
L 209.557872 176.802123 
L 210.643673 181.931653 
L 211.729474 176.887062 
L 212.815275 175.665674 
L 213.901076 178.005518 
L 214.986877 176.704713 
L 216.072679 179.678814 
L 217.15848 173.840346 
L 218.244281 178.051357 
L 219.330082 178.04217 
L 220.415883 177.882128 
L 221.501684 178.536588 
L 222.587486 180.618534 
L 223.673287 179.464142 
L 224.759088 176.365414 
L 225.844889 171.388813 
L 226.93069 174.036667 
L 228.016491 171.62377 
L 229.102292 170.514357 
L 230.188094 165.815883 
L 231.273895 167.653074 
L 232.359696 170.628549 
L 233.445497 172.546422 
L 234.531298 173.532141 
L 235.617099 176.793524 
L 236.702901 175.205025 
L 237.788702 173.383051 
L 238.874503 174.322598 
L 239.960304 172.498367 
L 241.046105 179.51666 
L 242.131906 180.881454 
L 243.217708 177.801692 
L 244.303509 178.645849 
L 246.475111 182.329249 
L 247.560912 183.195745 
L 249.732514 182.831483 
L 250.818316 184.786463 
L 251.904117 184.446137 
L 252.989918 183.043109 
L 254.075719 184.660752 
L 255.16152 186.793462 
L 256.247321 186.608793 
L 257.333123 187.099862 
L 258.418924 188.020857 
L 259.504725 185.86291 
L 260.590526 186.61865 
L 261.676327 184.711269 
L 262.762128 184.595845 
L 263.847929 185.039523 
L 264.933731 186.400752 
L 266.019532 188.108413 
L 267.105333 185.398934 
L 268.191134 181.989551 
L 269.276935 181.730133 
L 270.362736 180.694687 
L 271.448538 181.960229 
L 272.534339 183.788866 
L 274.705941 189.827354 
L 275.791742 190.661735 
L 276.877543 191.951878 
L 277.963344 190.428736 
L 279.049146 189.584693 
L 281.220748 183.499574 
L 282.306549 182.508944 
L 283.39235 183.223995 
L 284.478151 180.244101 
L 285.563953 181.404399 
L 286.649754 178.020555 
L 287.735555 179.115758 
L 288.821356 177.894475 
L 289.907157 180.806429 
L 290.992958 176.359262 
L 292.07876 176.04334 
L 293.164561 177.551617 
L 294.250362 177.925566 
L 295.336163 175.508075 
L 296.421964 177.291476 
L 297.507765 174.321622 
L 298.593566 173.141315 
L 299.679368 173.417675 
L 301.85097 171.477315 
L 302.936771 171.729536 
L 304.022572 168.83898 
L 305.108373 168.010736 
L 306.194175 168.747976 
L 307.279976 170.369261 
L 308.365777 169.397621 
L 309.451578 168.915173 
L 310.537379 169.412126 
L 311.62318 169.448653 
L 312.708981 170.082056 
L 313.794783 171.632245 
L 314.880584 172.669258 
L 315.966385 171.477801 
L 317.052186 171.775612 
L 318.137987 172.568386 
L 319.223788 170.733335 
L 320.30959 170.58858 
L 321.395391 170.606787 
L 322.481192 171.862105 
L 323.566993 172.197621 
L 324.652794 169.189283 
L 325.738595 168.457225 
L 326.824396 166.871939 
L 327.910198 168.032898 
L 328.995999 166.208801 
L 330.0818 166.848486 
L 331.167601 167.767028 
L 332.253402 167.754937 
L 333.339203 170.710812 
L 334.425005 169.645082 
L 335.510806 171.905124 
L 336.596607 172.654539 
L 337.682408 174.226706 
L 338.768209 176.223013 
L 340.939811 178.299452 
L 343.111414 179.13076 
L 345.283016 179.529006 
L 346.368817 181.505403 
L 347.454618 179.22351 
L 348.54042 180.235908 
L 349.626221 180.031936 
L 350.712022 182.142462 
L 351.797823 181.727752 
L 352.883624 182.045287 
L 353.969425 183.889109 
L 355.055227 185.157297 
L 356.141028 185.48416 
L 357.226829 188.428703 
L 358.31263 189.556224 
L 359.398431 188.253265 
L 360.484232 189.956746 
L 361.570033 188.448174 
L 362.655835 187.800727 
L 363.741636 188.232616 
L 364.827437 190.056845 
L 365.913238 189.128065 
L 366.999039 190.85734 
L 368.08484 193.728637 
L 369.170642 192.175915 
L 370.256443 191.020232 
L 371.342244 189.272177 
L 372.428045 190.882648 
L 373.513846 190.650855 
L 374.599647 189.392771 
L 375.685448 189.671481 
L 376.77125 189.445926 
L 377.857051 189.820084 
L 378.942852 189.969482 
L 380.028653 188.464106 
L 381.114454 187.674344 
L 382.200255 187.931948 
L 384.371858 189.077681 
L 386.54346 189.818024 
L 387.629261 189.222098 
L 388.715062 189.229629 
L 389.800863 187.972271 
L 390.886665 188.468069 
L 391.972466 189.323727 
L 393.058267 189.321739 
L 394.144068 188.504208 
L 395.229869 188.6833 
L 396.31567 188.639431 
L 397.401472 189.064401 
L 398.487273 189.276106 
L 398.487273 189.276106 
" clip-path="url(#pba27ab1cd6)" style="fill: none; stroke: #0000ff; stroke-opacity: 0.5; stroke-width: 2; stroke-linecap: square"/>
   </g>
   <g id="line2d_27">
    <path d="M 73.832727 162.447166 
L 74.918528 162.059411 
L 76.00433 159.114997 
L 77.090131 155.720578 
L 78.175932 156.10022 
L 79.261733 157.448034 
L 80.347534 157.375105 
L 81.433335 163.447751 
L 82.519137 165.655917 
L 83.604938 164.929754 
L 84.690739 166.42225 
L 85.77654 162.339383 
L 86.862341 165.818083 
L 87.948142 166.073721 
L 89.033943 166.052512 
L 90.119745 166.843389 
L 91.205546 172.642324 
L 92.291347 170.345989 
L 93.377148 172.479356 
L 95.54875 179.520681 
L 96.634552 178.401118 
L 97.720353 178.840185 
L 98.806154 174.359526 
L 99.891955 175.342755 
L 100.977756 177.327761 
L 102.063557 176.272724 
L 103.149358 174.354446 
L 104.23516 168.369743 
L 105.320961 166.724389 
L 107.492563 170.72856 
L 108.578364 166.40402 
L 109.664165 158.304579 
L 110.749967 162.967289 
L 111.835768 163.825927 
L 112.921569 163.614918 
L 114.00737 162.389913 
L 115.093171 158.668341 
L 116.178972 161.149342 
L 118.350575 158.767598 
L 119.436376 154.180404 
L 120.522177 156.926809 
L 121.607978 158.110174 
L 122.693779 154.947065 
L 123.77958 154.158959 
L 124.865382 153.546853 
L 125.951183 156.010713 
L 127.036984 155.099169 
L 128.122785 156.444633 
L 129.208586 155.948549 
L 130.294387 163.096598 
L 131.380189 159.583513 
L 132.46599 156.830987 
L 133.551791 155.403565 
L 134.637592 153.406117 
L 135.723393 153.855179 
L 136.809194 152.393829 
L 137.894995 149.184566 
L 138.980797 150.356418 
L 140.066598 145.762657 
L 141.152399 148.977918 
L 142.2382 144.368515 
L 143.324001 149.717382 
L 144.409802 148.855122 
L 145.495604 148.959824 
L 146.581405 150.371044 
L 147.667206 150.73911 
L 148.753007 146.135988 
L 149.838808 146.01366 
L 150.924609 142.505576 
L 152.01041 142.03801 
L 154.182013 151.690925 
L 155.267814 149.037523 
L 156.353615 147.585562 
L 157.439416 143.315207 
L 159.611019 151.574738 
L 160.69682 152.928524 
L 161.782621 152.662032 
L 162.868422 154.711136 
L 163.954223 153.551 
L 165.040024 150.468899 
L 166.125825 152.309384 
L 167.211627 148.5432 
L 168.297428 146.889084 
L 169.383229 145.582104 
L 170.46903 149.761749 
L 171.554831 143.767329 
L 172.640632 145.681843 
L 173.726434 144.587973 
L 174.812235 141.962603 
L 175.898036 140.57114 
L 176.983837 138.238769 
L 178.069638 136.758986 
L 179.155439 141.974517 
L 180.24124 144.961194 
L 181.327042 139.110659 
L 184.584445 144.466507 
L 185.670246 148.230973 
L 186.756047 146.845816 
L 187.841849 149.756589 
L 188.92765 149.535686 
L 190.013451 151.760608 
L 191.099252 152.929079 
L 192.185053 149.731314 
L 193.270854 151.10023 
L 194.356656 150.957942 
L 195.442457 151.400365 
L 196.528258 151.560935 
L 197.614059 149.770205 
L 198.69986 150.836637 
L 199.785661 150.473981 
L 200.871462 150.725395 
L 201.957264 149.649723 
L 203.043065 144.11583 
L 204.128866 147.923412 
L 205.214667 147.297342 
L 206.300468 147.996258 
L 207.386269 150.927807 
L 208.472071 154.815325 
L 210.643673 153.992275 
L 211.729474 155.582902 
L 212.815275 156.441659 
L 213.901076 156.42932 
L 214.986877 155.752469 
L 216.072679 154.327418 
L 217.15848 153.332769 
L 218.244281 153.226425 
L 219.330082 154.482045 
L 220.415883 157.351985 
L 221.501684 157.232717 
L 222.587486 159.064372 
L 223.673287 155.086917 
L 224.759088 155.590832 
L 226.93069 157.760439 
L 229.102292 163.813862 
L 230.188094 164.94772 
L 231.273895 168.215403 
L 232.359696 169.737605 
L 233.445497 165.897495 
L 234.531298 167.585611 
L 235.617099 170.465233 
L 236.702901 171.520144 
L 237.788702 167.931522 
L 238.874503 166.291371 
L 239.960304 159.727237 
L 241.046105 158.556556 
L 242.131906 159.102532 
L 243.217708 160.327684 
L 244.303509 159.779665 
L 245.38931 160.081381 
L 246.475111 161.282276 
L 247.560912 164.02627 
L 248.646713 162.163133 
L 249.732514 162.639772 
L 250.818316 165.332441 
L 251.904117 165.273037 
L 252.989918 161.628219 
L 254.075719 160.851677 
L 255.16152 162.693175 
L 256.247321 159.979745 
L 257.333123 167.748346 
L 258.418924 171.530772 
L 259.504725 172.76508 
L 260.590526 171.838069 
L 261.676327 173.84689 
L 262.762128 173.834255 
L 263.847929 176.994283 
L 264.933731 175.610398 
L 266.019532 175.663939 
L 267.105333 179.782784 
L 268.191134 179.930454 
L 269.276935 180.377697 
L 270.362736 181.403277 
L 271.448538 182.625527 
L 272.534339 182.738539 
L 273.62014 179.21988 
L 274.705941 182.430852 
L 275.791742 182.675189 
L 276.877543 180.891617 
L 277.963344 179.539371 
L 279.049146 180.796052 
L 280.134947 181.277695 
L 281.220748 179.568301 
L 282.306549 178.850933 
L 283.39235 181.002696 
L 284.478151 184.388727 
L 285.563953 181.623662 
L 286.649754 183.828933 
L 287.735555 181.896623 
L 288.821356 180.37333 
L 289.907157 178.416308 
L 290.992958 177.427311 
L 293.164561 171.925879 
L 294.250362 172.339239 
L 295.336163 170.162239 
L 296.421964 172.775098 
L 297.507765 172.558193 
L 298.593566 170.559746 
L 299.679368 169.812971 
L 300.765169 168.029986 
L 302.936771 168.490247 
L 304.022572 171.35214 
L 305.108373 173.42024 
L 306.194175 171.634648 
L 308.365777 174.786186 
L 309.451578 174.512391 
L 310.537379 176.164669 
L 311.62318 177.477745 
L 312.708981 177.527408 
L 313.794783 174.81354 
L 314.880584 173.26834 
L 315.966385 173.641128 
L 317.052186 174.712495 
L 318.137987 172.610552 
L 319.223788 172.898813 
L 320.30959 173.751142 
L 321.395391 174.846872 
L 322.481192 171.994895 
L 324.652794 170.867721 
L 325.738595 172.519138 
L 327.910198 170.073717 
L 328.995999 167.839867 
L 330.0818 170.464659 
L 331.167601 171.10955 
L 332.253402 172.879017 
L 333.339203 172.423246 
L 334.425005 171.346895 
L 335.510806 169.96782 
L 336.596607 169.59254 
L 337.682408 171.596601 
L 338.768209 172.118073 
L 339.85401 176.088531 
L 340.939811 179.485922 
L 342.025613 181.306493 
L 343.111414 181.660356 
L 344.197215 182.443487 
L 345.283016 182.54956 
L 346.368817 182.409545 
L 347.454618 183.599531 
L 348.54042 183.632107 
L 349.626221 183.188783 
L 350.712022 183.335436 
L 351.797823 183.646383 
L 352.883624 184.101799 
L 353.969425 185.587848 
L 355.055227 184.328632 
L 356.141028 185.653357 
L 357.226829 187.261338 
L 358.31263 185.645117 
L 359.398431 185.38667 
L 360.484232 186.296045 
L 361.570033 185.622859 
L 362.655835 187.997895 
L 363.741636 187.061339 
L 364.827437 187.940489 
L 365.913238 186.817689 
L 366.999039 186.859669 
L 368.08484 187.838481 
L 369.170642 186.332599 
L 370.256443 184.524309 
L 371.342244 185.327136 
L 372.428045 184.570758 
L 373.513846 185.1671 
L 374.599647 185.351316 
L 375.685448 185.088936 
L 376.77125 185.317682 
L 377.857051 186.159237 
L 378.942852 186.323786 
L 380.028653 184.957429 
L 381.114454 185.091989 
L 382.200255 184.626801 
L 383.286057 185.049351 
L 385.457659 184.300862 
L 386.54346 184.184455 
L 387.629261 183.741653 
L 388.715062 184.775157 
L 389.800863 184.596816 
L 390.886665 184.080025 
L 391.972466 184.497921 
L 393.058267 185.491995 
L 395.229869 186.235602 
L 396.31567 185.993089 
L 398.487273 186.260076 
L 398.487273 186.260076 
" clip-path="url(#pba27ab1cd6)" style="fill: none; stroke: #0000ff; stroke-opacity: 0.5; stroke-width: 2; stroke-linecap: square"/>
   </g>
   <g id="line2d_28">
    <path d="M 73.832727 170.560843 
L 74.918528 169.431584 
L 76.00433 166.655182 
L 77.090131 170.09386 
L 78.175932 171.362925 
L 79.261733 176.591617 
L 80.347534 180.317578 
L 81.433335 176.901325 
L 82.519137 174.818542 
L 83.604938 176.163937 
L 84.690739 176.723529 
L 85.77654 180.328205 
L 86.862341 181.222946 
L 87.948142 184.246967 
L 89.033943 180.580685 
L 90.119745 181.476919 
L 91.205546 183.107894 
L 92.291347 188.948998 
L 93.377148 188.459667 
L 94.462949 186.26092 
L 95.54875 191.705464 
L 96.634552 188.009482 
L 97.720353 183.229238 
L 98.806154 189.273145 
L 99.891955 190.504894 
L 100.977756 194.085715 
L 102.063557 193.84788 
L 103.149358 196.582089 
L 104.23516 194.673628 
L 105.320961 193.213416 
L 106.406762 191.458726 
L 107.492563 189.397419 
L 108.578364 188.038002 
L 109.664165 189.508033 
L 110.749967 190.474631 
L 111.835768 191.742592 
L 112.921569 194.295022 
L 114.00737 192.3143 
L 115.093171 191.105544 
L 116.178972 193.631967 
L 117.264773 192.266981 
L 118.350575 189.558656 
L 119.436376 187.966686 
L 120.522177 193.263908 
L 121.607978 196.019238 
L 122.693779 194.492275 
L 123.77958 192.033972 
L 124.865382 186.277364 
L 125.951183 191.428832 
L 127.036984 191.835253 
L 128.122785 192.883037 
L 129.208586 193.169517 
L 130.294387 193.783107 
L 131.380189 194.746327 
L 132.46599 191.655425 
L 133.551791 193.649927 
L 134.637592 189.731573 
L 135.723393 191.320544 
L 136.809194 193.963188 
L 137.894995 197.625116 
L 138.980797 198.52432 
L 140.066598 197.143193 
L 141.152399 197.978322 
L 142.2382 198.041363 
L 143.324001 196.408673 
L 144.409802 198.400342 
L 145.495604 192.585866 
L 146.581405 189.026112 
L 147.667206 192.702193 
L 148.753007 194.470717 
L 149.838808 194.911956 
L 150.924609 193.39553 
L 152.01041 195.679863 
L 153.096212 194.510928 
L 154.182013 197.06362 
L 155.267814 200.26926 
L 156.353615 199.368315 
L 157.439416 199.703762 
L 158.525217 204.366277 
L 159.611019 207.612843 
L 160.69682 201.199066 
L 161.782621 200.391969 
L 162.868422 196.371221 
L 163.954223 195.650038 
L 165.040024 197.494775 
L 166.125825 203.489803 
L 167.211627 203.948331 
L 168.297428 205.683631 
L 169.383229 208.481229 
L 170.46903 203.739284 
L 171.554831 203.877059 
L 172.640632 203.587543 
L 173.726434 200.912945 
L 174.812235 199.328083 
L 175.898036 202.303002 
L 176.983837 203.35887 
L 178.069638 204.57581 
L 179.155439 203.915995 
L 180.24124 204.728265 
L 181.327042 207.153936 
L 182.412843 203.178571 
L 183.498644 203.204591 
L 184.584445 203.035193 
L 185.670246 204.702796 
L 186.756047 207.967665 
L 187.841849 202.957772 
L 188.92765 202.620764 
L 190.013451 201.063674 
L 191.099252 204.151936 
L 192.185053 200.917213 
L 193.270854 200.307179 
L 195.442457 204.268635 
L 196.528258 201.524037 
L 197.614059 202.883869 
L 198.69986 205.412388 
L 199.785661 211.130945 
L 200.871462 208.61336 
L 201.957264 211.941312 
L 203.043065 216.185586 
L 204.128866 217.695977 
L 205.214667 215.314703 
L 206.300468 216.115744 
L 207.386269 209.596312 
L 208.472071 208.715595 
L 209.557872 206.701409 
L 210.643673 209.733102 
L 211.729474 207.683834 
L 212.815275 206.564828 
L 213.901076 207.467594 
L 214.986877 208.059419 
L 216.072679 207.444927 
L 217.15848 200.760817 
L 219.330082 194.357641 
L 220.415883 195.478028 
L 221.501684 194.378236 
L 222.587486 192.339845 
L 223.673287 194.22531 
L 224.759088 197.668458 
L 225.844889 197.412173 
L 226.93069 199.534162 
L 229.102292 199.274484 
L 230.188094 196.641764 
L 231.273895 199.83641 
L 232.359696 202.534988 
L 233.445497 203.531871 
L 234.531298 199.705757 
L 235.617099 199.465768 
L 236.702901 196.292191 
L 237.788702 194.49649 
L 238.874503 193.629757 
L 239.960304 191.232548 
L 241.046105 186.716564 
L 243.217708 195.456264 
L 244.303509 195.159184 
L 245.38931 193.527358 
L 246.475111 193.33073 
L 247.560912 191.415174 
L 248.646713 190.186369 
L 249.732514 183.129989 
L 250.818316 181.820023 
L 251.904117 183.093348 
L 252.989918 185.615417 
L 254.075719 185.804947 
L 256.247321 189.515746 
L 257.333123 189.106003 
L 259.504725 194.461038 
L 260.590526 196.082891 
L 261.676327 197.224347 
L 262.762128 193.08585 
L 263.847929 187.813892 
L 264.933731 187.301047 
L 266.019532 189.109701 
L 267.105333 187.820739 
L 268.191134 180.441776 
L 269.276935 176.933513 
L 271.448538 178.103441 
L 272.534339 178.343718 
L 273.62014 174.846778 
L 274.705941 174.925293 
L 275.791742 175.693316 
L 276.877543 175.661278 
L 277.963344 180.015975 
L 279.049146 181.298078 
L 280.134947 182.030808 
L 281.220748 182.928199 
L 282.306549 181.682701 
L 283.39235 181.738538 
L 284.478151 179.74088 
L 286.649754 182.092506 
L 287.735555 182.020227 
L 288.821356 184.444238 
L 289.907157 185.8936 
L 290.992958 184.129525 
L 292.07876 179.500675 
L 293.164561 179.050122 
L 294.250362 179.998265 
L 295.336163 182.766607 
L 296.421964 183.237151 
L 297.507765 180.070933 
L 298.593566 180.049537 
L 299.679368 180.49805 
L 300.765169 180.596075 
L 301.85097 179.087557 
L 302.936771 178.733891 
L 304.022572 178.56609 
L 305.108373 176.61828 
L 306.194175 180.23477 
L 307.279976 179.220233 
L 308.365777 180.005102 
L 309.451578 179.568667 
L 310.537379 177.733083 
L 311.62318 180.756099 
L 312.708981 179.719669 
L 313.794783 180.486777 
L 314.880584 180.16993 
L 315.966385 178.277677 
L 317.052186 180.755858 
L 318.137987 182.479145 
L 319.223788 182.287065 
L 320.30959 179.815219 
L 321.395391 179.692098 
L 322.481192 179.29517 
L 323.566993 177.212868 
L 324.652794 177.944028 
L 325.738595 175.437962 
L 326.824396 174.928394 
L 327.910198 174.687422 
L 328.995999 172.818598 
L 330.0818 175.923694 
L 331.167601 177.374753 
L 332.253402 179.255436 
L 333.339203 178.223339 
L 334.425005 182.136853 
L 335.510806 181.813452 
L 336.596607 182.502719 
L 337.682408 181.530712 
L 338.768209 184.418161 
L 339.85401 186.000315 
L 340.939811 187.18028 
L 343.111414 187.668266 
L 344.197215 185.100474 
L 345.283016 186.869043 
L 346.368817 187.60934 
L 347.454618 187.793769 
L 348.54042 188.621705 
L 349.626221 187.622061 
L 350.712022 189.325976 
L 351.797823 188.462796 
L 352.883624 187.951864 
L 353.969425 189.354385 
L 355.055227 189.975758 
L 356.141028 191.00431 
L 358.31263 193.666125 
L 359.398431 193.708222 
L 360.484232 192.742485 
L 361.570033 195.183141 
L 363.741636 196.534246 
L 364.827437 196.769149 
L 365.913238 198.62384 
L 366.999039 198.550902 
L 368.08484 197.830564 
L 369.170642 198.633056 
L 370.256443 199.293417 
L 371.342244 199.696863 
L 372.428045 201.134719 
L 373.513846 200.806612 
L 374.599647 201.481246 
L 375.685448 201.976002 
L 376.77125 200.020994 
L 377.857051 200.302328 
L 378.942852 200.811737 
L 380.028653 200.134196 
L 381.114454 200.111374 
L 382.200255 199.840508 
L 383.286057 201.531266 
L 384.371858 202.167724 
L 385.457659 202.092176 
L 386.54346 203.44734 
L 388.715062 204.387834 
L 389.800863 203.649384 
L 390.886665 204.511535 
L 391.972466 203.654375 
L 393.058267 203.422165 
L 394.144068 203.582278 
L 395.229869 203.415459 
L 396.31567 203.693914 
L 398.487273 204.592714 
L 398.487273 204.592714 
" clip-path="url(#pba27ab1cd6)" style="fill: none; stroke: #0000ff; stroke-opacity: 0.5; stroke-width: 2; stroke-linecap: square"/>
   </g>
   <g id="line2d_29">
    <path d="M 73.832727 143.848487 
L 74.918528 144.135132 
L 76.00433 142.895713 
L 77.090131 139.55496 
L 78.175932 144.61064 
L 79.261733 147.428604 
L 80.347534 143.917534 
L 81.433335 146.408085 
L 82.519137 149.510574 
L 83.604938 147.786668 
L 84.690739 148.32469 
L 85.77654 143.033254 
L 86.862341 143.763624 
L 87.948142 143.799073 
L 89.033943 151.028976 
L 90.119745 144.444635 
L 91.205546 148.929335 
L 92.291347 150.828114 
L 93.377148 146.132549 
L 94.462949 148.47752 
L 95.54875 149.469671 
L 96.634552 153.334824 
L 97.720353 156.417299 
L 98.806154 157.521802 
L 99.891955 158.873996 
L 100.977756 158.685245 
L 102.063557 162.358722 
L 103.149358 157.588389 
L 104.23516 155.00088 
L 105.320961 158.733818 
L 106.406762 158.44622 
L 107.492563 158.611525 
L 108.578364 156.735047 
L 109.664165 158.8834 
L 110.749967 156.129624 
L 111.835768 154.184285 
L 112.921569 157.407312 
L 114.00737 160.125897 
L 115.093171 155.625518 
L 116.178972 146.646122 
L 117.264773 147.857911 
L 118.350575 146.627512 
L 119.436376 149.047191 
L 120.522177 153.251886 
L 121.607978 159.748761 
L 122.693779 154.184518 
L 123.77958 151.557842 
L 124.865382 150.766723 
L 125.951183 149.600513 
L 127.036984 148.805557 
L 128.122785 148.18561 
L 129.208586 146.121994 
L 130.294387 151.94908 
L 131.380189 150.063016 
L 132.46599 154.030741 
L 133.551791 160.107697 
L 135.723393 161.996026 
L 136.809194 162.648887 
L 137.894995 160.599481 
L 138.980797 164.13061 
L 140.066598 166.923004 
L 141.152399 164.933624 
L 143.324001 171.71053 
L 144.409802 174.529204 
L 145.495604 175.226416 
L 146.581405 172.14544 
L 147.667206 170.092174 
L 148.753007 171.904975 
L 149.838808 175.280311 
L 150.924609 176.672145 
L 152.01041 175.477861 
L 153.096212 172.147677 
L 154.182013 176.074779 
L 155.267814 182.682789 
L 156.353615 178.37499 
L 157.439416 181.138272 
L 158.525217 180.309569 
L 159.611019 181.315652 
L 160.69682 181.788497 
L 161.782621 184.954331 
L 162.868422 186.41129 
L 163.954223 182.192422 
L 165.040024 181.018063 
L 166.125825 180.478869 
L 167.211627 185.02408 
L 168.297428 188.505481 
L 169.383229 187.875406 
L 171.554831 189.64781 
L 172.640632 185.071469 
L 173.726434 184.5511 
L 174.812235 187.532627 
L 175.898036 186.579162 
L 176.983837 186.771376 
L 178.069638 185.454252 
L 179.155439 187.895874 
L 180.24124 182.267824 
L 181.327042 177.893837 
L 182.412843 183.732658 
L 183.498644 181.80993 
L 184.584445 183.587626 
L 186.756047 173.612346 
L 187.841849 175.819948 
L 188.92765 180.906837 
L 190.013451 179.285688 
L 191.099252 177.355699 
L 192.185053 173.187677 
L 193.270854 175.711026 
L 194.356656 171.313308 
L 195.442457 172.638446 
L 196.528258 173.032116 
L 197.614059 176.734724 
L 198.69986 176.357092 
L 199.785661 173.943623 
L 200.871462 173.951552 
L 201.957264 171.669656 
L 203.043065 167.833304 
L 204.128866 170.586475 
L 205.214667 164.589254 
L 206.300468 163.094364 
L 208.472071 169.237003 
L 209.557872 164.740913 
L 210.643673 164.568188 
L 212.815275 167.51004 
L 213.901076 169.301128 
L 214.986877 168.295966 
L 216.072679 167.793102 
L 217.15848 165.857943 
L 218.244281 163.266314 
L 219.330082 166.344862 
L 220.415883 169.913092 
L 221.501684 168.997787 
L 222.587486 172.319993 
L 223.673287 172.097721 
L 224.759088 169.015434 
L 225.844889 169.611833 
L 226.93069 174.460392 
L 228.016491 175.054772 
L 229.102292 177.245103 
L 230.188094 176.287183 
L 231.273895 172.432754 
L 232.359696 172.232404 
L 233.445497 173.268864 
L 234.531298 170.009544 
L 235.617099 167.475642 
L 236.702901 167.033146 
L 237.788702 168.784777 
L 238.874503 169.0896 
L 239.960304 162.570651 
L 241.046105 161.300781 
L 242.131906 159.366223 
L 243.217708 160.093444 
L 244.303509 161.58868 
L 245.38931 161.799452 
L 246.475111 161.801857 
L 247.560912 158.822448 
L 248.646713 164.195405 
L 249.732514 165.459318 
L 250.818316 166.187657 
L 251.904117 165.727221 
L 252.989918 168.524073 
L 254.075719 170.357108 
L 255.16152 165.693063 
L 256.247321 168.000148 
L 257.333123 167.593815 
L 258.418924 164.115698 
L 259.504725 166.406458 
L 260.590526 166.274101 
L 261.676327 166.029732 
L 262.762128 171.472579 
L 263.847929 171.118488 
L 264.933731 172.3383 
L 266.019532 175.25171 
L 267.105333 178.943473 
L 268.191134 180.953304 
L 269.276935 180.657994 
L 270.362736 183.226577 
L 271.448538 181.856133 
L 272.534339 182.886872 
L 273.62014 184.458164 
L 274.705941 184.814168 
L 276.877543 184.272904 
L 277.963344 185.871423 
L 279.049146 185.598281 
L 280.134947 180.638394 
L 281.220748 177.988355 
L 282.306549 180.296991 
L 283.39235 180.045201 
L 284.478151 181.361392 
L 285.563953 176.224697 
L 286.649754 179.43207 
L 287.735555 180.310649 
L 288.821356 180.747905 
L 289.907157 181.858262 
L 290.992958 181.926089 
L 292.07876 179.42745 
L 293.164561 180.62374 
L 294.250362 181.135705 
L 295.336163 182.193645 
L 296.421964 180.899302 
L 297.507765 184.248506 
L 298.593566 183.186079 
L 300.765169 185.409214 
L 301.85097 186.370685 
L 302.936771 185.35551 
L 304.022572 183.135064 
L 305.108373 177.871009 
L 306.194175 178.794475 
L 307.279976 178.25692 
L 308.365777 179.37946 
L 309.451578 179.713895 
L 310.537379 177.700114 
L 311.62318 179.188413 
L 313.794783 174.139839 
L 314.880584 177.239727 
L 315.966385 175.5806 
L 317.052186 173.568935 
L 318.137987 170.794887 
L 319.223788 173.942798 
L 320.30959 175.659907 
L 321.395391 175.157143 
L 322.481192 170.325347 
L 323.566993 169.560238 
L 324.652794 172.170342 
L 325.738595 172.164989 
L 326.824396 171.05766 
L 327.910198 168.969949 
L 328.995999 170.003499 
L 330.0818 172.199677 
L 331.167601 172.683981 
L 332.253402 172.750285 
L 333.339203 173.230301 
L 334.425005 170.512995 
L 335.510806 170.497543 
L 336.596607 172.594853 
L 337.682408 171.975292 
L 338.768209 172.834135 
L 339.85401 171.066091 
L 340.939811 171.29473 
L 342.025613 169.685615 
L 344.197215 167.406233 
L 345.283016 167.43688 
L 346.368817 165.186224 
L 347.454618 164.213851 
L 348.54042 164.030326 
L 349.626221 164.679025 
L 350.712022 163.268996 
L 351.797823 164.781977 
L 352.883624 165.946291 
L 353.969425 164.281306 
L 355.055227 164.808186 
L 356.141028 164.879389 
L 357.226829 164.525148 
L 358.31263 165.167074 
L 359.398431 164.932721 
L 360.484232 165.888929 
L 361.570033 166.013605 
L 362.655835 165.169125 
L 363.741636 165.739471 
L 364.827437 164.858148 
L 366.999039 166.512926 
L 368.08484 165.756392 
L 369.170642 165.733577 
L 370.256443 165.107187 
L 371.342244 164.853751 
L 372.428045 164.325996 
L 373.513846 164.334466 
L 374.599647 164.500563 
L 375.685448 163.708642 
L 376.77125 163.221195 
L 377.857051 163.68153 
L 378.942852 163.841543 
L 380.028653 163.555536 
L 382.200255 164.358171 
L 383.286057 164.544161 
L 384.371858 165.482649 
L 385.457659 165.044602 
L 386.54346 165.606 
L 387.629261 166.503125 
L 388.715062 166.675295 
L 389.800863 167.321502 
L 390.886665 167.004587 
L 391.972466 167.040721 
L 393.058267 166.92448 
L 394.144068 165.625717 
L 395.229869 165.927439 
L 396.31567 165.415715 
L 397.401472 165.668286 
L 398.487273 165.505063 
L 398.487273 165.505063 
" clip-path="url(#pba27ab1cd6)" style="fill: none; stroke: #0000ff; stroke-opacity: 0.5; stroke-width: 2; stroke-linecap: square"/>
   </g>
   <g id="line2d_30">
    <path d="M 73.832727 157.19702 
L 74.918528 162.205578 
L 76.00433 159.796066 
L 77.090131 163.209444 
L 78.175932 164.674991 
L 79.261733 169.945186 
L 80.347534 177.629438 
L 81.433335 177.306826 
L 82.519137 175.068868 
L 83.604938 177.949174 
L 84.690739 183.107602 
L 85.77654 183.816995 
L 86.862341 184.812839 
L 87.948142 180.77259 
L 89.033943 183.417929 
L 90.119745 188.098461 
L 91.205546 189.056399 
L 92.291347 189.294952 
L 93.377148 190.616341 
L 94.462949 192.259078 
L 95.54875 194.648582 
L 96.634552 199.450694 
L 97.720353 198.957313 
L 98.806154 200.399082 
L 99.891955 202.405743 
L 100.977756 201.682976 
L 102.063557 200.037056 
L 103.149358 200.272882 
L 104.23516 199.24471 
L 105.320961 200.225692 
L 106.406762 200.706524 
L 107.492563 203.457597 
L 108.578364 199.902601 
L 109.664165 204.923954 
L 110.749967 203.048477 
L 111.835768 203.201708 
L 112.921569 205.02716 
L 114.00737 207.2731 
L 115.093171 207.457007 
L 116.178972 207.499763 
L 117.264773 208.926968 
L 118.350575 210.639547 
L 119.436376 209.221167 
L 120.522177 209.565313 
L 121.607978 206.503408 
L 122.693779 208.294895 
L 123.77958 209.078748 
L 124.865382 204.622345 
L 125.951183 204.68446 
L 127.036984 206.814674 
L 128.122785 212.388694 
L 129.208586 214.121178 
L 130.294387 213.106394 
L 131.380189 214.177348 
L 132.46599 213.62737 
L 133.551791 215.319669 
L 134.637592 214.599984 
L 135.723393 218.090123 
L 136.809194 216.615071 
L 137.894995 216.128845 
L 138.980797 212.363627 
L 140.066598 211.416708 
L 141.152399 209.750658 
L 142.2382 212.554702 
L 143.324001 210.534312 
L 144.409802 210.919839 
L 145.495604 203.725333 
L 146.581405 202.547584 
L 147.667206 201.847703 
L 148.753007 196.324697 
L 149.838808 198.701507 
L 150.924609 199.389894 
L 152.01041 201.392527 
L 153.096212 199.966691 
L 154.182013 200.693733 
L 155.267814 202.755846 
L 156.353615 205.904759 
L 157.439416 203.575879 
L 158.525217 206.481387 
L 159.611019 207.473016 
L 160.69682 203.72217 
L 161.782621 205.794754 
L 162.868422 209.313093 
L 163.954223 209.675402 
L 165.040024 211.389599 
L 166.125825 206.824027 
L 167.211627 209.46496 
L 168.297428 207.407338 
L 169.383229 208.415996 
L 170.46903 214.817493 
L 171.554831 214.713749 
L 172.640632 215.375725 
L 173.726434 217.90016 
L 174.812235 216.244383 
L 175.898036 219.676077 
L 176.983837 220.600704 
L 178.069638 223.088141 
L 179.155439 217.79132 
L 180.24124 208.885323 
L 181.327042 204.160459 
L 182.412843 204.349714 
L 183.498644 206.065574 
L 184.584445 205.769602 
L 185.670246 203.85 
L 186.756047 206.392677 
L 187.841849 209.914897 
L 188.92765 212.239667 
L 190.013451 214.255016 
L 191.099252 218.053908 
L 192.185053 220.048861 
L 193.270854 216.659924 
L 194.356656 219.977184 
L 195.442457 220.978155 
L 196.528258 216.211481 
L 198.69986 216.7278 
L 199.785661 214.717563 
L 200.871462 214.438508 
L 201.957264 220.004831 
L 203.043065 219.580073 
L 204.128866 219.87254 
L 205.214667 217.77027 
L 206.300468 217.21296 
L 207.386269 220.12545 
L 208.472071 222.374005 
L 209.557872 220.744185 
L 210.643673 221.368013 
L 211.729474 220.956657 
L 212.815275 222.354108 
L 213.901076 222.048738 
L 214.986877 221.228989 
L 216.072679 214.679527 
L 217.15848 212.239011 
L 218.244281 212.548134 
L 219.330082 211.82952 
L 220.415883 209.479735 
L 221.501684 212.638374 
L 223.673287 208.486634 
L 224.759088 205.880073 
L 225.844889 203.899886 
L 226.93069 208.344728 
L 228.016491 207.105624 
L 229.102292 211.364244 
L 230.188094 212.998433 
L 231.273895 211.021555 
L 232.359696 213.08796 
L 233.445497 208.175472 
L 234.531298 207.162503 
L 235.617099 206.806981 
L 236.702901 205.954413 
L 237.788702 200.319436 
L 238.874503 199.2166 
L 239.960304 200.754444 
L 241.046105 199.887208 
L 243.217708 203.38308 
L 244.303509 202.432394 
L 245.38931 200.46547 
L 246.475111 196.57225 
L 247.560912 194.280696 
L 248.646713 197.968231 
L 249.732514 199.198724 
L 250.818316 203.412033 
L 251.904117 199.753477 
L 252.989918 200.712633 
L 254.075719 199.344461 
L 255.16152 195.751799 
L 256.247321 196.19291 
L 257.333123 196.078556 
L 258.418924 192.195162 
L 260.590526 198.340361 
L 261.676327 196.303605 
L 262.762128 197.616216 
L 263.847929 197.388444 
L 264.933731 198.345126 
L 266.019532 195.632179 
L 267.105333 196.530595 
L 268.191134 200.913798 
L 269.276935 196.06591 
L 270.362736 195.40684 
L 271.448538 195.086538 
L 272.534339 193.387588 
L 274.705941 191.807907 
L 275.791742 195.186632 
L 276.877543 197.019332 
L 277.963344 194.140941 
L 279.049146 193.147005 
L 280.134947 192.91982 
L 281.220748 194.901223 
L 282.306549 196.183885 
L 283.39235 196.702879 
L 284.478151 196.368233 
L 285.563953 195.567322 
L 286.649754 191.948236 
L 287.735555 189.710737 
L 288.821356 189.925522 
L 289.907157 191.107578 
L 290.992958 193.570257 
L 292.07876 195.700172 
L 293.164561 193.07595 
L 294.250362 191.557564 
L 295.336163 188.903798 
L 296.421964 190.236811 
L 297.507765 190.485581 
L 298.593566 191.245534 
L 300.765169 193.935473 
L 301.85097 191.211647 
L 302.936771 190.969898 
L 304.022572 192.642128 
L 305.108373 192.303293 
L 306.194175 192.440471 
L 308.365777 190.985105 
L 309.451578 191.550595 
L 310.537379 191.747111 
L 311.62318 195.800389 
L 312.708981 196.111662 
L 314.880584 191.906288 
L 315.966385 190.897402 
L 317.052186 193.595656 
L 318.137987 194.122549 
L 319.223788 193.770742 
L 320.30959 195.067952 
L 321.395391 196.744408 
L 322.481192 195.375026 
L 323.566993 198.165731 
L 324.652794 197.449874 
L 325.738595 196.552057 
L 326.824396 194.746756 
L 327.910198 195.776208 
L 328.995999 196.133302 
L 330.0818 195.446892 
L 331.167601 194.488167 
L 332.253402 192.319568 
L 333.339203 194.849054 
L 334.425005 191.417473 
L 335.510806 188.912791 
L 336.596607 190.472604 
L 337.682408 190.032862 
L 338.768209 192.252445 
L 339.85401 193.856226 
L 342.025613 192.589807 
L 343.111414 194.84432 
L 344.197215 196.351366 
L 345.283016 193.920065 
L 346.368817 193.864467 
L 347.454618 193.369748 
L 348.54042 192.126729 
L 349.626221 191.533555 
L 350.712022 191.60639 
L 351.797823 192.348673 
L 352.883624 192.537156 
L 355.055227 189.654661 
L 357.226829 191.328583 
L 358.31263 189.272655 
L 359.398431 190.611171 
L 360.484232 191.543711 
L 361.570033 193.633457 
L 362.655835 196.902919 
L 363.741636 197.191476 
L 364.827437 197.731964 
L 365.913238 196.720229 
L 366.999039 197.920101 
L 368.08484 198.449969 
L 369.170642 199.659727 
L 370.256443 199.260655 
L 371.342244 200.114434 
L 372.428045 200.818557 
L 373.513846 200.770813 
L 374.599647 200.484979 
L 375.685448 199.845097 
L 376.77125 199.877303 
L 377.857051 200.301525 
L 378.942852 199.366221 
L 380.028653 200.08477 
L 381.114454 199.674826 
L 382.200255 198.795207 
L 383.286057 198.92299 
L 385.457659 199.550721 
L 386.54346 198.72796 
L 387.629261 200.121372 
L 388.715062 199.87841 
L 389.800863 198.598782 
L 390.886665 199.002257 
L 391.972466 198.368636 
L 393.058267 198.746971 
L 394.144068 198.318516 
L 395.229869 198.903151 
L 396.31567 198.202245 
L 397.401472 198.063056 
L 398.487273 198.947171 
L 398.487273 198.947171 
" clip-path="url(#pba27ab1cd6)" style="fill: none; stroke: #000000; stroke-opacity: 0.5; stroke-width: 2; stroke-linecap: square"/>
   </g>
   <g id="line2d_31">
    <path d="M 73.832727 171.119956 
L 74.918528 173.4672 
L 76.00433 178.068604 
L 78.175932 183.635331 
L 79.261733 183.940266 
L 80.347534 183.189382 
L 81.433335 183.700255 
L 82.519137 184.366814 
L 83.604938 182.734304 
L 84.690739 183.041553 
L 85.77654 190.084555 
L 86.862341 188.045058 
L 87.948142 185.304011 
L 89.033943 186.821636 
L 90.119745 189.365044 
L 91.205546 194.575221 
L 92.291347 190.30831 
L 93.377148 190.240737 
L 94.462949 190.428402 
L 95.54875 191.820322 
L 96.634552 196.479383 
L 97.720353 199.919954 
L 98.806154 197.32199 
L 99.891955 196.917421 
L 100.977756 200.963501 
L 102.063557 199.748485 
L 103.149358 204.848899 
L 104.23516 206.014671 
L 105.320961 206.830835 
L 106.406762 210.751697 
L 107.492563 212.340662 
L 108.578364 218.611911 
L 109.664165 224.078441 
L 111.835768 212.864085 
L 112.921569 214.854472 
L 114.00737 214.118385 
L 115.093171 219.657493 
L 117.264773 222.813052 
L 119.436376 214.95389 
L 120.522177 213.062995 
L 121.607978 211.607071 
L 122.693779 211.979225 
L 123.77958 210.545936 
L 124.865382 213.199132 
L 125.951183 212.095966 
L 127.036984 210.706816 
L 128.122785 205.275247 
L 129.208586 204.611423 
L 130.294387 205.484708 
L 131.380189 200.86769 
L 132.46599 198.08352 
L 133.551791 201.48806 
L 135.723393 195.859324 
L 136.809194 196.070586 
L 137.894995 196.828746 
L 138.980797 192.543137 
L 140.066598 189.639243 
L 141.152399 196.636067 
L 142.2382 194.2908 
L 143.324001 189.241528 
L 144.409802 195.331989 
L 145.495604 196.195607 
L 146.581405 198.850554 
L 147.667206 192.363516 
L 148.753007 192.467318 
L 149.838808 191.940082 
L 150.924609 191.655852 
L 153.096212 195.792252 
L 154.182013 195.974979 
L 155.267814 192.96089 
L 156.353615 193.806711 
L 157.439416 193.09454 
L 158.525217 192.978608 
L 159.611019 188.923674 
L 160.69682 195.293143 
L 161.782621 191.285814 
L 162.868422 190.228547 
L 163.954223 196.451093 
L 165.040024 197.98499 
L 166.125825 190.69033 
L 167.211627 198.313174 
L 168.297428 196.570946 
L 169.383229 199.923605 
L 170.46903 196.381839 
L 171.554831 203.021939 
L 172.640632 205.989633 
L 173.726434 204.977566 
L 174.812235 204.315746 
L 175.898036 206.214908 
L 178.069638 196.082914 
L 179.155439 196.043892 
L 180.24124 204.158072 
L 181.327042 206.857535 
L 182.412843 207.712161 
L 183.498644 203.277946 
L 184.584445 201.427233 
L 185.670246 200.792218 
L 186.756047 202.054831 
L 187.841849 200.664145 
L 188.92765 199.897571 
L 190.013451 199.891022 
L 191.099252 198.399705 
L 192.185053 199.139993 
L 193.270854 197.107242 
L 194.356656 198.655749 
L 195.442457 198.497151 
L 196.528258 203.144724 
L 197.614059 203.868494 
L 198.69986 202.490034 
L 199.785661 199.174342 
L 200.871462 199.586469 
L 201.957264 198.863714 
L 203.043065 197.525282 
L 204.128866 202.006878 
L 205.214667 198.436888 
L 206.300468 200.994464 
L 207.386269 198.427313 
L 208.472071 199.357065 
L 209.557872 197.028862 
L 210.643673 197.203121 
L 211.729474 199.542965 
L 212.815275 199.961984 
L 213.901076 198.597683 
L 214.986877 194.869683 
L 216.072679 193.771801 
L 217.15848 192.263735 
L 218.244281 189.403437 
L 219.330082 187.230904 
L 220.415883 183.135841 
L 221.501684 185.785848 
L 222.587486 186.156195 
L 223.673287 189.835675 
L 224.759088 184.237024 
L 225.844889 180.82075 
L 226.93069 181.032211 
L 228.016491 182.338155 
L 229.102292 183.346787 
L 230.188094 178.008499 
L 231.273895 176.809486 
L 232.359696 177.184436 
L 233.445497 174.323703 
L 234.531298 173.991153 
L 235.617099 173.929346 
L 236.702901 177.557142 
L 237.788702 176.675811 
L 238.874503 177.213598 
L 239.960304 176.808763 
L 241.046105 181.219154 
L 242.131906 180.921916 
L 243.217708 174.951903 
L 244.303509 173.834045 
L 245.38931 174.074512 
L 246.475111 173.662459 
L 247.560912 173.375907 
L 248.646713 171.51724 
L 249.732514 172.308206 
L 250.818316 170.517525 
L 251.904117 169.836335 
L 252.989918 170.279262 
L 254.075719 168.898324 
L 255.16152 167.302653 
L 256.247321 163.241863 
L 257.333123 165.472923 
L 258.418924 162.540864 
L 259.504725 164.488973 
L 260.590526 162.47299 
L 261.676327 163.632515 
L 262.762128 163.922305 
L 263.847929 163.431144 
L 264.933731 163.077728 
L 266.019532 165.207252 
L 267.105333 166.376664 
L 268.191134 166.357152 
L 269.276935 166.991393 
L 270.362736 164.225467 
L 271.448538 159.673233 
L 272.534339 159.900119 
L 273.62014 161.517016 
L 274.705941 160.963826 
L 276.877543 162.04471 
L 277.963344 163.630621 
L 279.049146 162.582231 
L 280.134947 157.48944 
L 281.220748 161.28739 
L 282.306549 158.966373 
L 283.39235 161.636567 
L 284.478151 161.843405 
L 285.563953 160.16506 
L 286.649754 156.541141 
L 287.735555 154.989555 
L 288.821356 158.792592 
L 289.907157 157.656388 
L 290.992958 155.049344 
L 292.07876 154.964956 
L 293.164561 155.132585 
L 294.250362 149.820641 
L 295.336163 149.049736 
L 296.421964 147.143806 
L 297.507765 146.728647 
L 298.593566 148.318697 
L 299.679368 148.451217 
L 300.765169 151.207714 
L 301.85097 146.63142 
L 302.936771 146.416179 
L 304.022572 145.637999 
L 305.108373 145.45941 
L 306.194175 145.82658 
L 307.279976 143.230661 
L 308.365777 142.20631 
L 309.451578 142.646654 
L 310.537379 142.935474 
L 311.62318 141.891278 
L 312.708981 143.557064 
L 313.794783 142.075283 
L 314.880584 142.729335 
L 315.966385 141.953473 
L 317.052186 142.3394 
L 318.137987 142.516715 
L 319.223788 146.250172 
L 320.30959 147.27793 
L 321.395391 147.063644 
L 322.481192 145.075982 
L 323.566993 144.001795 
L 324.652794 140.942794 
L 325.738595 140.216179 
L 326.824396 143.289843 
L 327.910198 143.073574 
L 328.995999 139.943854 
L 330.0818 140.317618 
L 331.167601 138.823183 
L 333.339203 143.532867 
L 334.425005 142.460817 
L 335.510806 142.68246 
L 336.596607 144.450954 
L 337.682408 141.094329 
L 338.768209 144.430259 
L 339.85401 144.415084 
L 340.939811 144.689525 
L 342.025613 143.902593 
L 343.111414 144.661646 
L 344.197215 146.630876 
L 345.283016 146.573701 
L 346.368817 147.245015 
L 347.454618 148.311714 
L 349.626221 149.291454 
L 350.712022 149.055562 
L 351.797823 152.846533 
L 352.883624 152.114685 
L 353.969425 150.766087 
L 355.055227 150.327735 
L 356.141028 151.250155 
L 357.226829 149.296339 
L 358.31263 149.156669 
L 359.398431 151.370892 
L 362.655835 151.749106 
L 363.741636 151.435138 
L 364.827437 152.110551 
L 365.913238 152.492019 
L 366.999039 151.77792 
L 368.08484 149.979591 
L 369.170642 151.624527 
L 370.256443 150.798159 
L 371.342244 150.566628 
L 372.428045 149.311253 
L 373.513846 149.182146 
L 374.599647 149.79817 
L 375.685448 148.927283 
L 376.77125 149.091439 
L 377.857051 148.104643 
L 378.942852 149.017175 
L 380.028653 149.750194 
L 381.114454 149.883435 
L 382.200255 149.769008 
L 383.286057 147.608415 
L 384.371858 147.617394 
L 385.457659 149.69067 
L 386.54346 149.825967 
L 387.629261 149.607691 
L 388.715062 150.063925 
L 389.800863 149.275869 
L 390.886665 149.905579 
L 391.972466 149.45037 
L 393.058267 150.563822 
L 395.229869 150.269275 
L 396.31567 150.978705 
L 397.401472 153.249137 
L 398.487273 137.487657 
L 398.487273 137.487657 
" clip-path="url(#pba27ab1cd6)" style="fill: none; stroke: #000000; stroke-opacity: 0.5; stroke-width: 2; stroke-linecap: square"/>
   </g>
   <g id="line2d_32">
    <path d="M 73.832727 201.442012 
L 74.918528 207.734877 
L 76.00433 202.603176 
L 77.090131 196.25684 
L 78.175932 193.610354 
L 79.261733 196.594104 
L 80.347534 197.324695 
L 81.433335 199.038691 
L 82.519137 199.441031 
L 84.690739 200.081693 
L 85.77654 202.532051 
L 86.862341 200.544363 
L 87.948142 207.503455 
L 89.033943 205.084835 
L 90.119745 204.445709 
L 91.205546 201.991113 
L 92.291347 205.60294 
L 93.377148 206.71243 
L 94.462949 207.327156 
L 95.54875 211.12309 
L 96.634552 213.133463 
L 97.720353 208.795961 
L 98.806154 211.588264 
L 99.891955 216.988188 
L 100.977756 218.523767 
L 102.063557 219.861532 
L 103.149358 219.453549 
L 104.23516 214.386441 
L 106.406762 214.653652 
L 107.492563 213.671048 
L 108.578364 214.155131 
L 109.664165 213.193112 
L 110.749967 215.451583 
L 111.835768 219.383289 
L 112.921569 213.992109 
L 114.00737 216.073754 
L 115.093171 207.891013 
L 116.178972 207.352423 
L 117.264773 207.085331 
L 118.350575 212.925097 
L 119.436376 217.490814 
L 120.522177 221.311932 
L 121.607978 222.247594 
L 122.693779 224.535237 
L 123.77958 221.181815 
L 124.865382 220.514547 
L 125.951183 216.940072 
L 127.036984 216.619651 
L 128.122785 216.754678 
L 129.208586 212.102163 
L 130.294387 214.390648 
L 131.380189 211.351578 
L 132.46599 212.051046 
L 133.551791 211.155599 
L 134.637592 209.211709 
L 135.723393 213.344918 
L 137.894995 223.337323 
L 138.980797 227.577705 
L 140.066598 226.601096 
L 141.152399 230.935152 
L 142.2382 229.497772 
L 143.324001 228.631773 
L 144.409802 226.452313 
L 145.495604 225.492661 
L 146.581405 222.690603 
L 147.667206 215.428435 
L 148.753007 220.686785 
L 149.838808 220.619838 
L 150.924609 218.834806 
L 152.01041 220.134824 
L 153.096212 216.104643 
L 154.182013 217.641309 
L 155.267814 216.988299 
L 156.353615 213.106173 
L 157.439416 215.07581 
L 158.525217 212.937617 
L 159.611019 214.710333 
L 160.69682 215.933313 
L 162.868422 204.051284 
L 163.954223 205.350861 
L 165.040024 208.604767 
L 166.125825 208.125135 
L 167.211627 209.073352 
L 168.297428 206.24247 
L 169.383229 211.473288 
L 170.46903 210.654556 
L 171.554831 210.770875 
L 172.640632 209.941377 
L 173.726434 214.475566 
L 174.812235 220.811196 
L 175.898036 218.156361 
L 176.983837 224.53445 
L 178.069638 224.302418 
L 179.155439 223.555329 
L 180.24124 221.185825 
L 181.327042 219.139189 
L 182.412843 217.3449 
L 183.498644 217.61405 
L 184.584445 221.861473 
L 185.670246 217.051344 
L 186.756047 217.576566 
L 187.841849 213.320143 
L 188.92765 214.57011 
L 191.099252 205.422849 
L 192.185053 205.719423 
L 193.270854 203.74636 
L 194.356656 207.166419 
L 195.442457 203.051905 
L 196.528258 200.526882 
L 197.614059 202.762766 
L 198.69986 199.362196 
L 199.785661 204.947835 
L 200.871462 203.482151 
L 201.957264 206.90603 
L 203.043065 206.27151 
L 204.128866 203.295071 
L 205.214667 207.110662 
L 206.300468 203.80001 
L 207.386269 206.010233 
L 208.472071 202.981836 
L 209.557872 203.048171 
L 210.643673 204.940543 
L 211.729474 202.245704 
L 212.815275 203.296754 
L 213.901076 202.537893 
L 214.986877 205.287911 
L 216.072679 209.502435 
L 217.15848 211.692635 
L 218.244281 209.598598 
L 219.330082 212.178892 
L 220.415883 217.560907 
L 221.501684 216.865425 
L 222.587486 211.688852 
L 223.673287 211.572268 
L 224.759088 213.444408 
L 225.844889 212.32767 
L 226.93069 213.097416 
L 228.016491 212.92283 
L 229.102292 214.071661 
L 230.188094 211.851649 
L 231.273895 212.450404 
L 232.359696 208.801145 
L 233.445497 201.802487 
L 234.531298 199.271596 
L 235.617099 201.557851 
L 236.702901 201.290327 
L 237.788702 199.480129 
L 238.874503 199.668562 
L 239.960304 196.863294 
L 241.046105 195.421507 
L 242.131906 197.247199 
L 243.217708 199.928676 
L 244.303509 201.936301 
L 245.38931 203.222064 
L 246.475111 198.085001 
L 247.560912 197.131325 
L 248.646713 196.715638 
L 249.732514 193.574411 
L 250.818316 197.942123 
L 251.904117 199.939869 
L 252.989918 204.730267 
L 254.075719 206.025778 
L 255.16152 204.144931 
L 256.247321 203.052508 
L 257.333123 205.828083 
L 258.418924 206.000924 
L 259.504725 203.886533 
L 260.590526 205.310358 
L 261.676327 206.403878 
L 262.762128 206.698474 
L 263.847929 204.654086 
L 264.933731 207.102399 
L 266.019532 208.798932 
L 267.105333 207.533298 
L 268.191134 208.853924 
L 269.276935 210.709403 
L 270.362736 213.13627 
L 271.448538 212.205259 
L 272.534339 207.944028 
L 273.62014 206.860747 
L 275.791742 201.587736 
L 276.877543 199.710307 
L 277.963344 200.631685 
L 279.049146 200.548749 
L 280.134947 199.084703 
L 281.220748 200.072526 
L 282.306549 199.183737 
L 283.39235 197.950858 
L 284.478151 197.411007 
L 285.563953 197.889391 
L 286.649754 196.942065 
L 287.735555 197.87251 
L 288.821356 201.925735 
L 289.907157 202.47965 
L 290.992958 204.186081 
L 292.07876 203.607677 
L 293.164561 201.136182 
L 294.250362 205.449036 
L 295.336163 203.729467 
L 296.421964 202.472136 
L 297.507765 200.381961 
L 298.593566 203.564835 
L 299.679368 201.831965 
L 300.765169 203.954472 
L 301.85097 204.981477 
L 302.936771 206.17903 
L 304.022572 202.240276 
L 305.108373 203.724948 
L 306.194175 203.026129 
L 307.279976 208.1175 
L 308.365777 208.38395 
L 310.537379 207.138397 
L 311.62318 205.526605 
L 312.708981 201.967219 
L 313.794783 199.013016 
L 314.880584 197.193162 
L 315.966385 198.738905 
L 317.052186 198.656632 
L 318.137987 197.401958 
L 319.223788 199.147268 
L 320.30959 198.131333 
L 321.395391 200.198608 
L 322.481192 200.539062 
L 323.566993 204.053182 
L 324.652794 201.432298 
L 325.738595 201.138728 
L 326.824396 203.256534 
L 327.910198 203.461858 
L 328.995999 200.685617 
L 330.0818 201.644114 
L 331.167601 199.572209 
L 332.253402 199.589553 
L 333.339203 200.519697 
L 334.425005 199.863666 
L 335.510806 199.018847 
L 336.596607 198.666103 
L 337.682408 197.774074 
L 338.768209 197.464169 
L 339.85401 200.585299 
L 340.939811 201.809953 
L 342.025613 201.207189 
L 343.111414 201.247102 
L 344.197215 201.155781 
L 345.283016 201.28092 
L 346.368817 202.620089 
L 347.454618 203.064269 
L 348.54042 201.475006 
L 349.626221 202.76134 
L 350.712022 201.443516 
L 351.797823 202.47225 
L 352.883624 203.003594 
L 353.969425 202.620188 
L 356.141028 202.676701 
L 357.226829 200.579976 
L 358.31263 200.200989 
L 359.398431 203.079919 
L 360.484232 202.866835 
L 362.655835 202.959376 
L 363.741636 200.696639 
L 364.827437 200.93023 
L 365.913238 199.841824 
L 366.999039 199.46961 
L 368.08484 199.502681 
L 369.170642 198.723637 
L 370.256443 199.544474 
L 371.342244 199.651716 
L 373.513846 198.566101 
L 374.599647 198.993059 
L 375.685448 200.216715 
L 376.77125 200.694933 
L 377.857051 201.636371 
L 378.942852 200.72408 
L 380.028653 198.923867 
L 381.114454 199.804369 
L 382.200255 199.710084 
L 383.286057 199.196817 
L 384.371858 198.178637 
L 385.457659 198.2255 
L 386.54346 198.411664 
L 387.629261 198.429107 
L 388.715062 197.9833 
L 389.800863 198.459078 
L 390.886665 198.179939 
L 391.972466 198.823412 
L 393.058267 198.287783 
L 394.144068 198.377757 
L 395.229869 197.711882 
L 396.31567 197.593248 
L 397.401472 193.410697 
L 398.487273 218.871631 
L 398.487273 218.871631 
" clip-path="url(#pba27ab1cd6)" style="fill: none; stroke: #000000; stroke-opacity: 0.5; stroke-width: 2; stroke-linecap: square"/>
   </g>
   <g id="line2d_33">
    <path d="M 73.832727 242.907388 
L 74.918528 240.872126 
L 76.00433 239.905443 
L 77.090131 237.601171 
L 78.175932 234.879341 
L 79.261733 234.88865 
L 80.347534 232.283577 
L 81.433335 228.704225 
L 82.519137 230.634515 
L 83.604938 228.233065 
L 84.690739 223.581083 
L 85.77654 224.090889 
L 86.862341 223.962126 
L 87.948142 226.821433 
L 89.033943 224.681622 
L 90.119745 217.414614 
L 91.205546 218.455509 
L 92.291347 217.253914 
L 93.377148 216.276188 
L 94.462949 222.361148 
L 95.54875 222.95895 
L 96.634552 226.022301 
L 97.720353 230.305053 
L 98.806154 227.750068 
L 99.891955 232.838045 
L 100.977756 229.89329 
L 102.063557 229.295326 
L 103.149358 221.761151 
L 104.23516 225.127396 
L 105.320961 224.636272 
L 106.406762 223.296143 
L 107.492563 221.708 
L 108.578364 221.557577 
L 110.749967 212.364457 
L 112.921569 216.622915 
L 115.093171 214.497516 
L 116.178972 214.860243 
L 117.264773 215.833494 
L 118.350575 212.53186 
L 119.436376 216.974936 
L 120.522177 216.866416 
L 121.607978 221.377148 
L 122.693779 220.032832 
L 123.77958 220.893999 
L 124.865382 224.329017 
L 125.951183 225.388802 
L 127.036984 221.611347 
L 128.122785 219.513156 
L 129.208586 216.199694 
L 130.294387 215.442626 
L 131.380189 211.431042 
L 132.46599 212.724649 
L 133.551791 212.548931 
L 134.637592 209.305252 
L 135.723393 211.730148 
L 136.809194 214.733611 
L 137.894995 213.621705 
L 138.980797 215.373097 
L 140.066598 216.549358 
L 141.152399 214.667995 
L 142.2382 214.689157 
L 143.324001 211.967673 
L 144.409802 212.056793 
L 145.495604 209.852621 
L 146.581405 209.447452 
L 147.667206 208.658409 
L 148.753007 210.136982 
L 149.838808 205.919293 
L 150.924609 205.208248 
L 152.01041 207.404257 
L 153.096212 207.73703 
L 154.182013 207.158281 
L 155.267814 207.58503 
L 156.353615 202.713444 
L 157.439416 202.822968 
L 158.525217 209.021429 
L 159.611019 207.867695 
L 160.69682 211.474363 
L 161.782621 210.159654 
L 162.868422 210.524146 
L 163.954223 214.129334 
L 165.040024 212.710271 
L 166.125825 211.513682 
L 167.211627 211.702841 
L 168.297428 216.465223 
L 169.383229 216.833947 
L 170.46903 217.949195 
L 171.554831 221.632788 
L 172.640632 221.193477 
L 173.726434 220.211508 
L 174.812235 221.159801 
L 175.898036 223.001457 
L 176.983837 222.699237 
L 178.069638 222.729935 
L 179.155439 225.415182 
L 180.24124 223.972427 
L 181.327042 223.33717 
L 182.412843 224.565516 
L 183.498644 220.977878 
L 184.584445 223.633838 
L 186.756047 222.90949 
L 187.841849 220.208884 
L 188.92765 221.224314 
L 191.099252 214.29534 
L 192.185053 210.168246 
L 193.270854 212.608689 
L 194.356656 210.591137 
L 195.442457 218.457266 
L 196.528258 225.089148 
L 197.614059 227.121943 
L 198.69986 227.873103 
L 199.785661 225.552256 
L 200.871462 223.621665 
L 201.957264 220.426253 
L 203.043065 218.199516 
L 204.128866 219.638025 
L 205.214667 219.501539 
L 206.300468 221.715934 
L 207.386269 220.918512 
L 208.472071 216.512452 
L 209.557872 219.925464 
L 210.643673 218.836624 
L 211.729474 216.514429 
L 212.815275 216.855461 
L 213.901076 215.447851 
L 214.986877 217.795533 
L 216.072679 219.841977 
L 217.15848 216.261393 
L 218.244281 215.442181 
L 219.330082 216.923279 
L 220.415883 215.636226 
L 221.501684 215.15956 
L 222.587486 213.698312 
L 223.673287 219.017033 
L 224.759088 216.266696 
L 225.844889 221.828451 
L 226.93069 218.781453 
L 228.016491 220.816343 
L 229.102292 220.041627 
L 230.188094 220.203531 
L 231.273895 221.745393 
L 232.359696 222.910961 
L 233.445497 220.931108 
L 234.531298 222.166087 
L 235.617099 221.724605 
L 236.702901 222.710767 
L 237.788702 222.096289 
L 238.874503 224.237187 
L 239.960304 222.358018 
L 241.046105 219.708973 
L 242.131906 219.324017 
L 243.217708 216.168103 
L 245.38931 218.18197 
L 246.475111 225.33288 
L 247.560912 225.658705 
L 248.646713 223.903464 
L 249.732514 227.342888 
L 250.818316 226.712508 
L 251.904117 227.150565 
L 252.989918 227.940636 
L 254.075719 227.872297 
L 255.16152 225.022947 
L 256.247321 225.274523 
L 257.333123 220.859491 
L 258.418924 219.6253 
L 259.504725 221.722146 
L 260.590526 222.910305 
L 261.676327 223.066823 
L 262.762128 220.544168 
L 264.933731 213.057054 
L 266.019532 212.513208 
L 267.105333 210.319101 
L 268.191134 211.84616 
L 269.276935 212.024966 
L 270.362736 215.61245 
L 271.448538 214.670937 
L 272.534339 214.227878 
L 273.62014 217.781866 
L 274.705941 213.867927 
L 275.791742 214.48273 
L 276.877543 211.733953 
L 277.963344 213.953225 
L 279.049146 212.208507 
L 281.220748 210.783218 
L 283.39235 205.989332 
L 284.478151 208.214881 
L 285.563953 208.442559 
L 286.649754 205.995399 
L 287.735555 205.611019 
L 288.821356 201.85494 
L 289.907157 198.957728 
L 290.992958 198.745409 
L 292.07876 199.196426 
L 293.164561 199.100459 
L 294.250362 199.537273 
L 295.336163 200.709715 
L 296.421964 200.48743 
L 297.507765 199.1633 
L 298.593566 200.817468 
L 299.679368 202.252435 
L 300.765169 200.864198 
L 301.85097 198.747662 
L 302.936771 200.457575 
L 304.022572 199.840938 
L 305.108373 202.195372 
L 306.194175 205.502072 
L 307.279976 203.922813 
L 308.365777 204.493161 
L 309.451578 204.006886 
L 310.537379 203.769659 
L 311.62318 201.823873 
L 312.708981 204.277966 
L 313.794783 206.100079 
L 314.880584 203.691387 
L 315.966385 205.435596 
L 317.052186 203.53575 
L 318.137987 200.542376 
L 319.223788 199.744641 
L 320.30959 200.550066 
L 322.481192 201.763183 
L 323.566993 201.574509 
L 324.652794 204.632165 
L 325.738595 203.795064 
L 326.824396 200.733178 
L 327.910198 198.493346 
L 328.995999 195.535679 
L 330.0818 196.588357 
L 331.167601 197.338398 
L 332.253402 197.787812 
L 333.339203 199.172423 
L 334.425005 199.039224 
L 335.510806 199.65893 
L 336.596607 200.951945 
L 337.682408 201.641402 
L 338.768209 200.586127 
L 339.85401 202.786176 
L 340.939811 204.02873 
L 342.025613 204.099628 
L 343.111414 202.982944 
L 344.197215 202.491658 
L 345.283016 199.376975 
L 346.368817 196.609782 
L 347.454618 197.251487 
L 348.54042 197.416097 
L 349.626221 196.774171 
L 350.712022 199.280521 
L 351.797823 196.99711 
L 352.883624 195.27585 
L 353.969425 196.202321 
L 355.055227 197.403413 
L 356.141028 197.610421 
L 357.226829 193.866855 
L 358.31263 191.3094 
L 359.398431 192.98822 
L 360.484232 192.691399 
L 361.570033 190.849607 
L 362.655835 192.54049 
L 364.827437 194.274084 
L 365.913238 194.854519 
L 366.999039 195.212683 
L 368.08484 196.344537 
L 369.170642 198.045045 
L 370.256443 198.654779 
L 371.342244 200.344648 
L 372.428045 200.079403 
L 373.513846 198.901335 
L 374.599647 199.976505 
L 375.685448 199.645858 
L 376.77125 198.928743 
L 377.857051 198.70196 
L 378.942852 198.639002 
L 380.028653 199.335404 
L 381.114454 198.879116 
L 383.286057 198.981736 
L 384.371858 199.197662 
L 385.457659 198.408252 
L 386.54346 199.13436 
L 387.629261 199.640555 
L 388.715062 199.461874 
L 389.800863 200.140341 
L 390.886665 198.99331 
L 391.972466 198.811031 
L 393.058267 198.985262 
L 394.144068 198.831621 
L 395.229869 199.050884 
L 396.31567 200.261992 
L 397.401472 203.151092 
L 398.487273 180.005642 
L 398.487273 180.005642 
" clip-path="url(#pba27ab1cd6)" style="fill: none; stroke: #000000; stroke-opacity: 0.5; stroke-width: 2; stroke-linecap: square"/>
   </g>
   <g id="line2d_34">
    <path d="M 73.832727 147.544843 
L 74.918528 147.258395 
L 76.00433 153.670356 
L 77.090131 154.659175 
L 78.175932 152.633323 
L 79.261733 154.261158 
L 81.433335 158.814751 
L 82.519137 160.849899 
L 83.604938 158.894348 
L 84.690739 160.561297 
L 85.77654 155.138577 
L 86.862341 153.43479 
L 87.948142 146.996876 
L 89.033943 144.488421 
L 90.119745 139.931166 
L 91.205546 138.71115 
L 92.291347 144.739404 
L 93.377148 149.849861 
L 94.462949 147.825938 
L 95.54875 150.445465 
L 97.720353 148.531882 
L 98.806154 146.038776 
L 99.891955 141.490373 
L 100.977756 144.027398 
L 102.063557 143.347419 
L 103.149358 144.816503 
L 104.23516 140.794728 
L 105.320961 141.843181 
L 106.406762 137.644671 
L 107.492563 139.956211 
L 108.578364 141.780637 
L 109.664165 145.341891 
L 110.749967 148.367027 
L 111.835768 142.168593 
L 112.921569 136.947986 
L 115.093171 142.274286 
L 116.178972 145.431184 
L 117.264773 150.589888 
L 118.350575 153.669174 
L 119.436376 151.86985 
L 120.522177 151.704091 
L 121.607978 154.411787 
L 122.693779 150.278105 
L 123.77958 146.641934 
L 124.865382 143.539652 
L 125.951183 144.639449 
L 127.036984 144.747569 
L 128.122785 143.230794 
L 129.208586 147.430259 
L 130.294387 142.225622 
L 131.380189 140.178991 
L 133.551791 141.538552 
L 134.637592 140.017986 
L 135.723393 141.862655 
L 136.809194 142.570837 
L 137.894995 133.705714 
L 138.980797 135.57733 
L 140.066598 140.282142 
L 141.152399 138.27236 
L 142.2382 141.396746 
L 143.324001 138.883871 
L 144.409802 138.819655 
L 145.495604 145.498869 
L 146.581405 148.122387 
L 147.667206 144.941254 
L 148.753007 145.685211 
L 149.838808 148.166891 
L 150.924609 151.901265 
L 152.01041 151.038831 
L 153.096212 155.095278 
L 154.182013 155.669959 
L 155.267814 155.654532 
L 156.353615 152.916027 
L 157.439416 147.732406 
L 158.525217 151.266537 
L 159.611019 150.226171 
L 160.69682 144.870281 
L 161.782621 141.534272 
L 162.868422 139.49378 
L 163.954223 137.939038 
L 165.040024 141.44779 
L 166.125825 141.225695 
L 167.211627 135.829921 
L 168.297428 133.329928 
L 169.383229 132.039712 
L 170.46903 133.184338 
L 171.554831 128.608457 
L 172.640632 132.374837 
L 173.726434 130.545318 
L 174.812235 131.098486 
L 175.898036 129.114658 
L 176.983837 127.715686 
L 178.069638 122.684043 
L 179.155439 124.799213 
L 180.24124 129.60587 
L 181.327042 128.972534 
L 182.412843 130.212399 
L 183.498644 129.150705 
L 184.584445 130.801552 
L 185.670246 133.058453 
L 186.756047 128.832236 
L 187.841849 130.180393 
L 188.92765 133.654715 
L 190.013451 128.355034 
L 192.185053 122.93197 
L 193.270854 125.94596 
L 194.356656 127.623592 
L 195.442457 127.807397 
L 196.528258 125.730052 
L 197.614059 126.641081 
L 198.69986 125.520747 
L 199.785661 126.84162 
L 200.871462 125.776461 
L 201.957264 123.074024 
L 203.043065 126.442619 
L 204.128866 132.242058 
L 205.214667 131.740072 
L 206.300468 129.3431 
L 207.386269 132.574797 
L 208.472071 136.282069 
L 209.557872 137.489577 
L 210.643673 131.569319 
L 211.729474 128.73261 
L 212.815275 128.075982 
L 214.986877 128.407289 
L 216.072679 129.423257 
L 217.15848 129.617262 
L 218.244281 126.470496 
L 219.330082 124.795059 
L 220.415883 123.705752 
L 225.844889 121.468652 
L 226.93069 123.756143 
L 228.016491 124.494442 
L 230.188094 126.888638 
L 231.273895 132.046135 
L 232.359696 133.832618 
L 233.445497 133.063004 
L 234.531298 133.679032 
L 235.617099 133.127499 
L 236.702901 135.491159 
L 238.874503 141.506226 
L 239.960304 144.787673 
L 242.131906 146.934555 
L 243.217708 144.249144 
L 244.303509 148.088146 
L 245.38931 140.70648 
L 246.475111 146.024424 
L 247.560912 152.284297 
L 248.646713 152.756494 
L 249.732514 150.217383 
L 250.818316 154.377482 
L 251.904117 153.774113 
L 252.989918 154.422017 
L 254.075719 151.694004 
L 255.16152 152.326559 
L 256.247321 155.658827 
L 257.333123 156.514214 
L 258.418924 156.732476 
L 259.504725 159.627855 
L 261.676327 159.425915 
L 262.762128 158.306427 
L 263.847929 154.490897 
L 264.933731 152.149057 
L 266.019532 154.270579 
L 267.105333 151.810731 
L 268.191134 150.578379 
L 269.276935 149.920812 
L 270.362736 148.802598 
L 271.448538 149.314452 
L 272.534339 151.55986 
L 273.62014 155.48359 
L 274.705941 154.3237 
L 275.791742 156.511002 
L 276.877543 153.3154 
L 277.963344 151.135477 
L 280.134947 147.254193 
L 281.220748 149.809513 
L 282.306549 148.669697 
L 283.39235 148.318452 
L 284.478151 146.187675 
L 285.563953 147.541755 
L 286.649754 147.120656 
L 287.735555 144.925178 
L 288.821356 141.187968 
L 289.907157 143.013047 
L 290.992958 141.384032 
L 292.07876 143.338345 
L 293.164561 142.052902 
L 294.250362 140.273774 
L 295.336163 142.827353 
L 296.421964 146.10726 
L 298.593566 149.612557 
L 299.679368 149.220991 
L 300.765169 150.24799 
L 302.936771 147.263359 
L 304.022572 145.137166 
L 305.108373 141.297577 
L 306.194175 140.292438 
L 307.279976 140.167272 
L 308.365777 139.863017 
L 309.451578 143.175397 
L 310.537379 144.436059 
L 311.62318 145.417893 
L 313.794783 141.80251 
L 314.880584 144.37678 
L 315.966385 143.927543 
L 317.052186 146.893241 
L 318.137987 146.691952 
L 319.223788 147.910355 
L 320.30959 149.827467 
L 321.395391 149.864267 
L 322.481192 148.189016 
L 323.566993 149.458785 
L 324.652794 147.421179 
L 325.738595 147.200087 
L 326.824396 147.42713 
L 327.910198 145.49211 
L 328.995999 144.404659 
L 330.0818 147.457621 
L 331.167601 147.935749 
L 332.253402 149.206016 
L 333.339203 147.422877 
L 334.425005 144.345381 
L 335.510806 143.678772 
L 336.596607 145.494902 
L 337.682408 144.52916 
L 338.768209 142.884394 
L 339.85401 146.268177 
L 340.939811 146.401833 
L 342.025613 146.398875 
L 343.111414 147.218572 
L 344.197215 147.692635 
L 345.283016 148.037092 
L 346.368817 146.748406 
L 347.454618 146.5101 
L 348.54042 145.055876 
L 349.626221 146.857727 
L 350.712022 146.604275 
L 351.797823 148.064987 
L 352.883624 146.901948 
L 353.969425 149.531337 
L 355.055227 149.523362 
L 356.141028 149.101192 
L 357.226829 147.021854 
L 358.31263 149.901275 
L 359.398431 150.257938 
L 360.484232 150.816321 
L 361.570033 151.796445 
L 362.655835 152.422937 
L 363.741636 150.073281 
L 364.827437 149.049476 
L 365.913238 148.31504 
L 366.999039 150.258501 
L 368.08484 150.717798 
L 369.170642 152.131014 
L 370.256443 152.87456 
L 371.342244 151.359016 
L 372.428045 150.63396 
L 373.513846 149.189911 
L 374.599647 150.42098 
L 375.685448 151.170776 
L 376.77125 151.542306 
L 377.857051 152.566555 
L 378.942852 151.490767 
L 380.028653 149.862323 
L 381.114454 150.072863 
L 382.200255 151.640895 
L 383.286057 151.484377 
L 384.371858 151.855751 
L 385.457659 150.886152 
L 386.54346 149.280247 
L 387.629261 149.888768 
L 388.715062 149.234448 
L 389.800863 150.985046 
L 390.886665 150.763016 
L 391.972466 150.170288 
L 393.058267 150.923026 
L 394.144068 150.836932 
L 395.229869 149.609342 
L 396.31567 148.953177 
L 397.401472 146.269843 
L 398.487273 165.634897 
L 398.487273 165.634897 
" clip-path="url(#pba27ab1cd6)" style="fill: none; stroke: #000000; stroke-opacity: 0.5; stroke-width: 2; stroke-linecap: square"/>
   </g>
   <g id="LineCollection_1">
    <path d="M 228.016491 295.488 
L 228.016491 53.568 
" clip-path="url(#pba27ab1cd6)" style="fill: none; stroke-dasharray: 7.4,3.2; stroke-dashoffset: 0; stroke: #ff0000; stroke-width: 2"/>
   </g>
   <g id="patch_3">
    <path d="M 57.6 307.584 
L 57.6 41.472 
" style="fill: none; stroke: #bcbcbc; stroke-width: 0.8; stroke-linejoin: miter; stroke-linecap: square"/>
   </g>
   <g id="patch_4">
    <path d="M 414.72 307.584 
L 414.72 41.472 
" style="fill: none; stroke: #bcbcbc; stroke-width: 0.8; stroke-linejoin: miter; stroke-linecap: square"/>
   </g>
   <g id="patch_5">
    <path d="M 57.6 307.584 
L 414.72 307.584 
" style="fill: none; stroke: #bcbcbc; stroke-width: 0.8; stroke-linejoin: miter; stroke-linecap: square"/>
   </g>
   <g id="patch_6">
    <path d="M 57.6 41.472 
L 414.72 41.472 
" style="fill: none; stroke: #bcbcbc; stroke-width: 0.8; stroke-linejoin: miter; stroke-linecap: square"/>
   </g>
   <g id="text_15">
    <!-- Trajectorie plot of critical time n = 10000 -->
    <g transform="translate(87.80625 35.472) scale(0.144 -0.144)">
     <defs>
      <path id="DejaVuSans-54" d="M -19 4666 
L 3928 4666 
L 3928 4134 
L 2272 4134 
L 2272 0 
L 1638 0 
L 1638 4134 
L -19 4134 
L -19 4666 
z
" transform="scale(0.015625)"/>
      <path id="DejaVuSans-72" d="M 2631 2963 
Q 2534 3019 2420 3045 
Q 2306 3072 2169 3072 
Q 1681 3072 1420 2755 
Q 1159 2438 1159 1844 
L 1159 0 
L 581 0 
L 581 3500 
L 1159 3500 
L 1159 2956 
Q 1341 3275 1631 3429 
Q 1922 3584 2338 3584 
Q 2397 3584 2469 3576 
Q 2541 3569 2628 3553 
L 2631 2963 
z
" transform="scale(0.015625)"/>
      <path id="DejaVuSans-61" d="M 2194 1759 
Q 1497 1759 1228 1600 
Q 959 1441 959 1056 
Q 959 750 1161 570 
Q 1363 391 1709 391 
Q 2188 391 2477 730 
Q 2766 1069 2766 1631 
L 2766 1759 
L 2194 1759 
z
M 3341 1997 
L 3341 0 
L 2766 0 
L 2766 531 
Q 2569 213 2275 61 
Q 1981 -91 1556 -91 
Q 1019 -91 701 211 
Q 384 513 384 1019 
Q 384 1609 779 1909 
Q 1175 2209 1959 2209 
L 2766 2209 
L 2766 2266 
Q 2766 2663 2505 2880 
Q 2244 3097 1772 3097 
Q 1472 3097 1187 3025 
Q 903 2953 641 2809 
L 641 3341 
Q 956 3463 1253 3523 
Q 1550 3584 1831 3584 
Q 2591 3584 2966 3190 
Q 3341 2797 3341 1997 
z
" transform="scale(0.015625)"/>
      <path id="DejaVuSans-6a" d="M 603 3500 
L 1178 3500 
L 1178 -63 
Q 1178 -731 923 -1031 
Q 669 -1331 103 -1331 
L -116 -1331 
L -116 -844 
L 38 -844 
Q 366 -844 484 -692 
Q 603 -541 603 -63 
L 603 3500 
z
M 603 4863 
L 1178 4863 
L 1178 4134 
L 603 4134 
L 603 4863 
z
" transform="scale(0.015625)"/>
      <path id="DejaVuSans-65" d="M 3597 1894 
L 3597 1613 
L 953 1613 
Q 991 1019 1311 708 
Q 1631 397 2203 397 
Q 2534 397 2845 478 
Q 3156 559 3463 722 
L 3463 178 
Q 3153 47 2828 -22 
Q 2503 -91 2169 -91 
Q 1331 -91 842 396 
Q 353 884 353 1716 
Q 353 2575 817 3079 
Q 1281 3584 2069 3584 
Q 2775 3584 3186 3129 
Q 3597 2675 3597 1894 
z
M 3022 2063 
Q 3016 2534 2758 2815 
Q 2500 3097 2075 3097 
Q 1594 3097 1305 2825 
Q 1016 2553 972 2059 
L 3022 2063 
z
" transform="scale(0.015625)"/>
      <path id="DejaVuSans-63" d="M 3122 3366 
L 3122 2828 
Q 2878 2963 2633 3030 
Q 2388 3097 2138 3097 
Q 1578 3097 1268 2742 
Q 959 2388 959 1747 
Q 959 1106 1268 751 
Q 1578 397 2138 397 
Q 2388 397 2633 464 
Q 2878 531 3122 666 
L 3122 134 
Q 2881 22 2623 -34 
Q 2366 -91 2075 -91 
Q 1284 -91 818 406 
Q 353 903 353 1747 
Q 353 2603 823 3093 
Q 1294 3584 2113 3584 
Q 2378 3584 2631 3529 
Q 2884 3475 3122 3366 
z
" transform="scale(0.015625)"/>
      <path id="DejaVuSans-74" d="M 1172 4494 
L 1172 3500 
L 2356 3500 
L 2356 3053 
L 1172 3053 
L 1172 1153 
Q 1172 725 1289 603 
Q 1406 481 1766 481 
L 2356 481 
L 2356 0 
L 1766 0 
Q 1100 0 847 248 
Q 594 497 594 1153 
L 594 3053 
L 172 3053 
L 172 3500 
L 594 3500 
L 594 4494 
L 1172 4494 
z
" transform="scale(0.015625)"/>
      <path id="DejaVuSans-6f" d="M 1959 3097 
Q 1497 3097 1228 2736 
Q 959 2375 959 1747 
Q 959 1119 1226 758 
Q 1494 397 1959 397 
Q 2419 397 2687 759 
Q 2956 1122 2956 1747 
Q 2956 2369 2687 2733 
Q 2419 3097 1959 3097 
z
M 1959 3584 
Q 2709 3584 3137 3096 
Q 3566 2609 3566 1747 
Q 3566 888 3137 398 
Q 2709 -91 1959 -91 
Q 1206 -91 779 398 
Q 353 888 353 1747 
Q 353 2609 779 3096 
Q 1206 3584 1959 3584 
z
" transform="scale(0.015625)"/>
      <path id="DejaVuSans-69" d="M 603 3500 
L 1178 3500 
L 1178 0 
L 603 0 
L 603 3500 
z
M 603 4863 
L 1178 4863 
L 1178 4134 
L 603 4134 
L 603 4863 
z
" transform="scale(0.015625)"/>
      <path id="DejaVuSans-20" transform="scale(0.015625)"/>
      <path id="DejaVuSans-70" d="M 1159 525 
L 1159 -1331 
L 581 -1331 
L 581 3500 
L 1159 3500 
L 1159 2969 
Q 1341 3281 1617 3432 
Q 1894 3584 2278 3584 
Q 2916 3584 3314 3078 
Q 3713 2572 3713 1747 
Q 3713 922 3314 415 
Q 2916 -91 2278 -91 
Q 1894 -91 1617 61 
Q 1341 213 1159 525 
z
M 3116 1747 
Q 3116 2381 2855 2742 
Q 2594 3103 2138 3103 
Q 1681 3103 1420 2742 
Q 1159 2381 1159 1747 
Q 1159 1113 1420 752 
Q 1681 391 2138 391 
Q 2594 391 2855 752 
Q 3116 1113 3116 1747 
z
" transform="scale(0.015625)"/>
      <path id="DejaVuSans-6c" d="M 603 4863 
L 1178 4863 
L 1178 0 
L 603 0 
L 603 4863 
z
" transform="scale(0.015625)"/>
      <path id="DejaVuSans-66" d="M 2375 4863 
L 2375 4384 
L 1825 4384 
Q 1516 4384 1395 4259 
Q 1275 4134 1275 3809 
L 1275 3500 
L 2222 3500 
L 2222 3053 
L 1275 3053 
L 1275 0 
L 697 0 
L 697 3053 
L 147 3053 
L 147 3500 
L 697 3500 
L 697 3744 
Q 697 4328 969 4595 
Q 1241 4863 1831 4863 
L 2375 4863 
z
" transform="scale(0.015625)"/>
      <path id="DejaVuSans-6d" d="M 3328 2828 
Q 3544 3216 3844 3400 
Q 4144 3584 4550 3584 
Q 5097 3584 5394 3201 
Q 5691 2819 5691 2113 
L 5691 0 
L 5113 0 
L 5113 2094 
Q 5113 2597 4934 2840 
Q 4756 3084 4391 3084 
Q 3944 3084 3684 2787 
Q 3425 2491 3425 1978 
L 3425 0 
L 2847 0 
L 2847 2094 
Q 2847 2600 2669 2842 
Q 2491 3084 2119 3084 
Q 1678 3084 1418 2786 
Q 1159 2488 1159 1978 
L 1159 0 
L 581 0 
L 581 3500 
L 1159 3500 
L 1159 2956 
Q 1356 3278 1631 3431 
Q 1906 3584 2284 3584 
Q 2666 3584 2933 3390 
Q 3200 3197 3328 2828 
z
" transform="scale(0.015625)"/>
      <path id="DejaVuSans-6e" d="M 3513 2113 
L 3513 0 
L 2938 0 
L 2938 2094 
Q 2938 2591 2744 2837 
Q 2550 3084 2163 3084 
Q 1697 3084 1428 2787 
Q 1159 2491 1159 1978 
L 1159 0 
L 581 0 
L 581 3500 
L 1159 3500 
L 1159 2956 
Q 1366 3272 1645 3428 
Q 1925 3584 2291 3584 
Q 2894 3584 3203 3211 
Q 3513 2838 3513 2113 
z
" transform="scale(0.015625)"/>
      <path id="DejaVuSans-3d" d="M 678 2906 
L 4684 2906 
L 4684 2381 
L 678 2381 
L 678 2906 
z
M 678 1631 
L 4684 1631 
L 4684 1100 
L 678 1100 
L 678 1631 
z
" transform="scale(0.015625)"/>
     </defs>
     <use xlink:href="#DejaVuSans-54"/>
     <use xlink:href="#DejaVuSans-72" x="46.333984"/>
     <use xlink:href="#DejaVuSans-61" x="87.447266"/>
     <use xlink:href="#DejaVuSans-6a" x="148.726562"/>
     <use xlink:href="#DejaVuSans-65" x="176.509766"/>
     <use xlink:href="#DejaVuSans-63" x="238.033203"/>
     <use xlink:href="#DejaVuSans-74" x="293.013672"/>
     <use xlink:href="#DejaVuSans-6f" x="332.222656"/>
     <use xlink:href="#DejaVuSans-72" x="393.404297"/>
     <use xlink:href="#DejaVuSans-69" x="434.517578"/>
     <use xlink:href="#DejaVuSans-65" x="462.300781"/>
     <use xlink:href="#DejaVuSans-20" x="523.824219"/>
     <use xlink:href="#DejaVuSans-70" x="555.611328"/>
     <use xlink:href="#DejaVuSans-6c" x="619.087891"/>
     <use xlink:href="#DejaVuSans-6f" x="646.871094"/>
     <use xlink:href="#DejaVuSans-74" x="708.052734"/>
     <use xlink:href="#DejaVuSans-20" x="747.261719"/>
     <use xlink:href="#DejaVuSans-6f" x="779.048828"/>
     <use xlink:href="#DejaVuSans-66" x="840.230469"/>
     <use xlink:href="#DejaVuSans-20" x="875.435547"/>
     <use xlink:href="#DejaVuSans-63" x="907.222656"/>
     <use xlink:href="#DejaVuSans-72" x="962.203125"/>
     <use xlink:href="#DejaVuSans-69" x="1003.316406"/>
     <use xlink:href="#DejaVuSans-74" x="1031.099609"/>
     <use xlink:href="#DejaVuSans-69" x="1070.308594"/>
     <use xlink:href="#DejaVuSans-63" x="1098.091797"/>
     <use xlink:href="#DejaVuSans-61" x="1153.072266"/>
     <use xlink:href="#DejaVuSans-6c" x="1214.351562"/>
     <use xlink:href="#DejaVuSans-20" x="1242.134766"/>
     <use xlink:href="#DejaVuSans-74" x="1273.921875"/>
     <use xlink:href="#DejaVuSans-69" x="1313.130859"/>
     <use xlink:href="#DejaVuSans-6d" x="1340.914062"/>
     <use xlink:href="#DejaVuSans-65" x="1438.326172"/>
     <use xlink:href="#DejaVuSans-20" x="1499.849609"/>
     <use xlink:href="#DejaVuSans-6e" x="1531.636719"/>
     <use xlink:href="#DejaVuSans-20" x="1595.015625"/>
     <use xlink:href="#DejaVuSans-3d" x="1626.802734"/>
     <use xlink:href="#DejaVuSans-20" x="1710.591797"/>
     <use xlink:href="#DejaVuSans-31" x="1742.378906"/>
     <use xlink:href="#DejaVuSans-30" x="1806.001953"/>
     <use xlink:href="#DejaVuSans-30" x="1869.625"/>
     <use xlink:href="#DejaVuSans-30" x="1933.248047"/>
     <use xlink:href="#DejaVuSans-30" x="1996.871094"/>
    </g>
   </g>
  </g>
 </g>
 <defs>
  <clipPath id="pba27ab1cd6">
   <rect x="57.6" y="41.472" width="357.12" height="266.112"/>
  </clipPath>
 </defs>
</svg>
