<?xml version="1.0" encoding="utf-8" standalone="no"?>
<!DOCTYPE svg PUBLIC "-//W3C//DTD SVG 1.1//EN"
  "http://www.w3.org/Graphics/SVG/1.1/DTD/svg11.dtd">
<svg xmlns:xlink="http://www.w3.org/1999/xlink" width="460.8pt" height="345.6pt" viewBox="0 0 460.8 345.6" xmlns="http://www.w3.org/2000/svg" version="1.1">
 <metadata>
  <rdf:RDF xmlns:dc="http://purl.org/dc/elements/1.1/" xmlns:cc="http://creativecommons.org/ns#" xmlns:rdf="http://www.w3.org/1999/02/22-rdf-syntax-ns#">
   <cc:Work>
    <dc:type rdf:resource="http://purl.org/dc/dcmitype/StillImage"/>
    <dc:date>2025-08-21T18:14:01.577883</dc:date>
    <dc:format>image/svg+xml</dc:format>
    <dc:creator>
     <cc:Agent>
      <dc:title>Matplotlib v3.9.2, https://matplotlib.org/</dc:title>
     </cc:Agent>
    </dc:creator>
   </cc:Work>
  </rdf:RDF>
 </metadata>
 <defs>
  <style type="text/css">*{stroke-linejoin: round; stroke-linecap: butt}</style>
 </defs>
 <g id="figure_1">
  <g id="patch_1">
   <path d="M 0 345.6 
L 460.8 345.6 
L 460.8 0 
L 0 0 
z
" style="fill: #ffffff"/>
  </g>
  <g id="axes_1">
   <g id="patch_2">
    <path d="M 57.6 307.584 
L 414.72 307.584 
L 414.72 41.472 
L 57.6 41.472 
z
" style="fill: #eeeeee"/>
   </g>
   <g id="PolyCollection_1">
    <path d="M 82.289659 261.630648 
L 82.168272 261.630648 
L 82.162621 260.061522 
L 82.158811 258.492397 
L 82.156267 256.923272 
L 82.153816 255.354146 
L 82.149888 253.785021 
L 82.142868 252.215896 
L 82.131507 250.64677 
L 82.115267 249.077645 
L 82.094478 247.50852 
L 82.070226 245.939395 
L 82.043962 244.370269 
L 82.016953 242.801144 
L 81.989719 241.232019 
L 81.961662 239.662893 
L 81.931004 238.093768 
L 81.895032 236.524643 
L 81.850583 234.955517 
L 81.794586 233.386392 
L 81.72453 231.817267 
L 81.638762 230.248141 
L 81.536599 228.679016 
L 81.418263 227.109891 
L 81.284683 225.540765 
L 81.137183 223.97164 
L 80.977097 222.402515 
L 80.80534 220.833389 
L 80.621989 219.264264 
L 80.425988 217.695139 
L 80.215145 216.126013 
L 79.986585 214.556888 
L 79.737641 212.987763 
L 79.466879 211.418637 
L 79.17471 209.849512 
L 78.863111 208.280387 
L 78.53443 206.711261 
L 78.189901 205.142136 
L 77.828875 203.573011 
L 77.449603 202.003885 
L 77.051622 200.43476 
L 76.638783 198.865635 
L 76.221375 197.296509 
L 75.81593 195.727384 
L 75.442249 194.158259 
L 75.11847 192.589133 
L 74.856011 191.020008 
L 74.656396 189.450883 
L 74.511259 187.881757 
L 74.405448 186.312632 
L 74.3219 184.743507 
L 74.246331 183.174381 
L 74.170151 181.605256 
L 74.09103 180.036131 
L 74.01169 178.467006 
L 73.938064 176.89788 
L 73.877825 175.328755 
L 73.839628 173.75963 
L 73.832727 172.190504 
L 73.866383 170.621379 
L 73.948684 169.052254 
L 74.084903 167.483128 
L 74.275901 165.914003 
L 74.517172 164.344878 
L 74.798952 162.775752 
L 75.10747 161.206627 
L 75.427119 159.637502 
L 75.743103 158.068376 
L 76.043981 156.499251 
L 76.323499 154.930126 
L 76.581186 153.361 
L 76.821494 151.791875 
L 77.051717 150.22275 
L 77.279374 148.653624 
L 77.509935 147.084499 
L 77.74565 145.515374 
L 77.98575 143.946248 
L 78.22777 142.377123 
L 78.469321 140.807998 
L 78.709564 139.238872 
L 78.949817 137.669747 
L 79.193092 136.100622 
L 79.442729 134.531496 
L 79.70062 132.962371 
L 79.965649 131.393246 
L 80.232979 129.82412 
L 80.494521 128.254995 
L 80.740536 126.68587 
L 80.961847 125.116744 
L 81.151931 123.547619 
L 81.308182 121.978494 
L 81.432007 120.409368 
L 81.52789 118.840243 
L 81.601922 117.271118 
L 81.660395 115.701992 
L 81.708898 114.132867 
L 81.751979 112.563742 
L 81.793188 110.994617 
L 81.835153 109.425491 
L 81.879526 107.856366 
L 81.92678 106.287241 
L 82.531151 106.287241 
L 82.531151 106.287241 
L 82.578405 107.856366 
L 82.622778 109.425491 
L 82.664743 110.994617 
L 82.705952 112.563742 
L 82.749033 114.132867 
L 82.797536 115.701992 
L 82.856009 117.271118 
L 82.930041 118.840243 
L 83.025924 120.409368 
L 83.149749 121.978494 
L 83.306 123.547619 
L 83.496084 125.116744 
L 83.717395 126.68587 
L 83.96341 128.254995 
L 84.224952 129.82412 
L 84.492282 131.393246 
L 84.757311 132.962371 
L 85.015202 134.531496 
L 85.264839 136.100622 
L 85.508114 137.669747 
L 85.748367 139.238872 
L 85.98861 140.807998 
L 86.230161 142.377123 
L 86.472181 143.946248 
L 86.712281 145.515374 
L 86.947996 147.084499 
L 87.178557 148.653624 
L 87.406214 150.22275 
L 87.636437 151.791875 
L 87.876745 153.361 
L 88.134432 154.930126 
L 88.41395 156.499251 
L 88.714828 158.068376 
L 89.030812 159.637502 
L 89.350461 161.206627 
L 89.658979 162.775752 
L 89.940759 164.344878 
L 90.18203 165.914003 
L 90.373028 167.483128 
L 90.509247 169.052254 
L 90.591548 170.621379 
L 90.625204 172.190504 
L 90.618303 173.75963 
L 90.580106 175.328755 
L 90.519867 176.89788 
L 90.446241 178.467006 
L 90.366901 180.036131 
L 90.28778 181.605256 
L 90.2116 183.174381 
L 90.136031 184.743507 
L 90.052483 186.312632 
L 89.946672 187.881757 
L 89.801535 189.450883 
L 89.60192 191.020008 
L 89.339461 192.589133 
L 89.015682 194.158259 
L 88.642001 195.727384 
L 88.236556 197.296509 
L 87.819148 198.865635 
L 87.406309 200.43476 
L 87.008328 202.003885 
L 86.629056 203.573011 
L 86.26803 205.142136 
L 85.923501 206.711261 
L 85.59482 208.280387 
L 85.283221 209.849512 
L 84.991052 211.418637 
L 84.72029 212.987763 
L 84.471346 214.556888 
L 84.242786 216.126013 
L 84.031943 217.695139 
L 83.835942 219.264264 
L 83.652591 220.833389 
L 83.480834 222.402515 
L 83.320748 223.97164 
L 83.173248 225.540765 
L 83.039668 227.109891 
L 82.921332 228.679016 
L 82.819169 230.248141 
L 82.733401 231.817267 
L 82.663345 233.386392 
L 82.607348 234.955517 
L 82.562899 236.524643 
L 82.526927 238.093768 
L 82.496269 239.662893 
L 82.468212 241.232019 
L 82.440978 242.801144 
L 82.413969 244.370269 
L 82.387705 245.939395 
L 82.363453 247.50852 
L 82.342664 249.077645 
L 82.326424 250.64677 
L 82.315063 252.215896 
L 82.308043 253.785021 
L 82.304115 255.354146 
L 82.301664 256.923272 
L 82.29912 258.492397 
L 82.29531 260.061522 
L 82.289659 261.630648 
z
" clip-path="url(#pa2beb90de6)" style="fill: #348abd; fill-opacity: 0.3"/>
   </g>
   <g id="PolyCollection_2">
    <path d="M 110.278548 240.190455 
L 110.154304 240.190455 
L 110.148647 238.996933 
L 110.145036 237.803411 
L 110.142936 236.609889 
L 110.141178 235.416367 
L 110.138149 234.222845 
L 110.13213 233.029323 
L 110.121729 231.835801 
L 110.106253 230.642279 
L 110.085921 229.448757 
L 110.061803 228.255235 
L 110.035474 227.061713 
L 110.008456 225.868191 
L 109.981616 224.674669 
L 109.954722 223.481147 
L 109.926283 222.287625 
L 109.893739 221.094103 
L 109.853907 219.900581 
L 109.803533 218.707059 
L 109.739789 217.513538 
L 109.660601 216.320016 
L 109.564799 215.126494 
L 109.45209 213.932972 
L 109.3229 212.73945 
L 109.178108 211.545928 
L 109.01871 210.352406 
L 108.845435 209.158884 
L 108.658366 207.965362 
L 108.456631 206.77184 
L 108.238288 205.578318 
L 108.000575 204.384796 
L 107.740609 203.191274 
L 107.45638 201.997752 
L 107.14758 200.80423 
L 106.815734 199.610708 
L 106.46335 198.417186 
L 106.092479 197.223664 
L 105.703602 196.030142 
L 105.295873 194.83662 
L 104.86912 193.643098 
L 104.426941 192.449576 
L 103.979365 191.256054 
L 103.543413 190.062532 
L 103.14067 188.86901 
L 102.792349 187.675488 
L 102.513607 186.481966 
L 102.30935 185.288444 
L 102.173204 184.094922 
L 102.089997 182.9014 
L 102.0406 181.707878 
L 102.007131 180.514356 
L 101.976702 179.320834 
L 101.942846 178.127313 
L 101.904969 176.933791 
L 101.866901 175.740269 
L 101.835569 174.546747 
L 101.820188 173.353225 
L 101.831673 172.159703 
L 101.881686 170.966181 
L 101.980966 169.772659 
L 102.137103 168.579137 
L 102.352354 167.385615 
L 102.622192 166.192093 
L 102.934986 164.998571 
L 103.2729 163.805049 
L 103.613777 162.611527 
L 103.933808 161.418005 
L 104.210777 160.224483 
L 104.427649 159.030961 
L 104.575985 157.837439 
L 104.658378 156.643917 
L 104.688998 155.450395 
L 104.691693 154.256873 
L 104.695847 153.063351 
L 104.731005 151.869829 
L 104.821771 150.676307 
L 104.984326 149.482785 
L 105.225142 148.289263 
L 105.541638 147.095741 
L 105.923879 145.902219 
L 106.356452 144.708697 
L 106.820093 143.515175 
L 107.293216 142.321653 
L 107.753731 141.128131 
L 108.181351 139.934609 
L 108.560087 138.741088 
L 108.880253 137.547566 
L 109.139275 136.354044 
L 109.340968 135.160522 
L 109.493528 133.967 
L 109.606977 132.773478 
L 109.690895 131.579956 
L 109.753098 130.386434 
L 109.79941 129.192912 
L 109.834259 127.99939 
L 109.861505 126.805868 
L 109.884973 125.612346 
L 109.908399 124.418824 
L 109.934857 123.225302 
L 109.966054 122.03178 
L 110.466799 122.03178 
L 110.466799 122.03178 
L 110.497996 123.225302 
L 110.524454 124.418824 
L 110.54788 125.612346 
L 110.571348 126.805868 
L 110.598594 127.99939 
L 110.633442 129.192912 
L 110.679755 130.386434 
L 110.741958 131.579956 
L 110.825876 132.773478 
L 110.939324 133.967 
L 111.091885 135.160522 
L 111.293577 136.354044 
L 111.5526 137.547566 
L 111.872766 138.741088 
L 112.251501 139.934609 
L 112.679122 141.128131 
L 113.139637 142.321653 
L 113.612759 143.515175 
L 114.076401 144.708697 
L 114.508974 145.902219 
L 114.891215 147.095741 
L 115.207711 148.289263 
L 115.448526 149.482785 
L 115.611081 150.676307 
L 115.701848 151.869829 
L 115.737005 153.063351 
L 115.74116 154.256873 
L 115.743855 155.450395 
L 115.774474 156.643917 
L 115.856867 157.837439 
L 116.005204 159.030961 
L 116.222076 160.224483 
L 116.499045 161.418005 
L 116.819076 162.611527 
L 117.159953 163.805049 
L 117.497867 164.998571 
L 117.810661 166.192093 
L 118.080498 167.385615 
L 118.29575 168.579137 
L 118.451887 169.772659 
L 118.551167 170.966181 
L 118.60118 172.159703 
L 118.612665 173.353225 
L 118.597284 174.546747 
L 118.565952 175.740269 
L 118.527884 176.933791 
L 118.490006 178.127313 
L 118.45615 179.320834 
L 118.425722 180.514356 
L 118.392253 181.707878 
L 118.342856 182.9014 
L 118.259649 184.094922 
L 118.123503 185.288444 
L 117.919245 186.481966 
L 117.640504 187.675488 
L 117.292183 188.86901 
L 116.88944 190.062532 
L 116.453488 191.256054 
L 116.005912 192.449576 
L 115.563733 193.643098 
L 115.13698 194.83662 
L 114.729251 196.030142 
L 114.340373 197.223664 
L 113.969503 198.417186 
L 113.617119 199.610708 
L 113.285272 200.80423 
L 112.976473 201.997752 
L 112.692243 203.191274 
L 112.432278 204.384796 
L 112.194565 205.578318 
L 111.976221 206.77184 
L 111.774487 207.965362 
L 111.587418 209.158884 
L 111.414143 210.352406 
L 111.254745 211.545928 
L 111.109953 212.73945 
L 110.980762 213.932972 
L 110.868053 215.126494 
L 110.772251 216.320016 
L 110.693064 217.513538 
L 110.62932 218.707059 
L 110.578946 219.900581 
L 110.539114 221.094103 
L 110.506569 222.287625 
L 110.47813 223.481147 
L 110.451237 224.674669 
L 110.424397 225.868191 
L 110.397378 227.061713 
L 110.371049 228.255235 
L 110.346932 229.448757 
L 110.3266 230.642279 
L 110.311124 231.835801 
L 110.300722 233.029323 
L 110.294704 234.222845 
L 110.291674 235.416367 
L 110.289917 236.609889 
L 110.287817 237.803411 
L 110.284206 238.996933 
L 110.278548 240.190455 
z
" clip-path="url(#pa2beb90de6)" style="fill: #348abd; fill-opacity: 0.3"/>
   </g>
   <g id="PolyCollection_3">
    <path d="M 138.266816 225.319736 
L 138.140959 225.319736 
L 138.135486 224.414779 
L 138.131913 223.509821 
L 138.129829 222.604864 
L 138.128291 221.699906 
L 138.125952 220.794949 
L 138.121305 219.889991 
L 138.113009 218.985034 
L 138.100207 218.080076 
L 138.082751 217.175119 
L 138.061244 216.270161 
L 138.036867 215.365204 
L 138.011015 214.460246 
L 137.984819 213.555289 
L 137.958699 212.650331 
L 137.932063 211.745374 
L 137.903261 210.840416 
L 137.869783 209.935459 
L 137.828638 209.030501 
L 137.776803 208.125544 
L 137.711615 207.220586 
L 137.631049 206.315629 
L 137.533846 205.410671 
L 137.419519 204.505714 
L 137.288237 203.600756 
L 137.140622 202.695799 
L 136.97747 201.790841 
L 136.799411 200.885884 
L 136.606571 199.980926 
L 136.398292 199.075969 
L 136.173029 198.171011 
L 135.928535 197.266054 
L 135.662366 196.361096 
L 135.372603 195.456139 
L 135.0585 194.551181 
L 134.720698 193.646224 
L 134.360829 192.741266 
L 133.980667 191.836309 
L 133.581394 190.931351 
L 133.163667 190.026394 
L 132.728843 189.121436 
L 132.281119 188.216479 
L 131.829612 187.311521 
L 131.389204 186.406564 
L 130.979229 185.501606 
L 130.620006 184.596649 
L 130.328167 183.691691 
L 130.112415 182.786734 
L 129.971278 181.881776 
L 129.893707 180.976819 
L 129.862226 180.071861 
L 129.857447 179.166904 
L 129.862336 178.261946 
L 129.865014 177.356989 
L 129.859653 176.452031 
L 129.845897 175.547074 
L 129.82762 174.642116 
L 129.811783 173.737159 
L 129.807649 172.832201 
L 129.826149 171.927244 
L 129.878986 171.022286 
L 129.977214 170.117329 
L 130.12939 169.212371 
L 130.339747 168.307414 
L 130.606909 167.402456 
L 130.923494 166.497499 
L 131.276642 165.592541 
L 131.649191 164.687584 
L 132.021143 163.782626 
L 132.371204 162.877669 
L 132.678361 161.972711 
L 132.92365 161.067754 
L 133.092223 160.162796 
L 133.175629 159.257839 
L 133.173968 158.352881 
L 133.097401 157.447923 
L 132.966474 156.542966 
L 132.810856 155.638008 
L 132.666429 154.733051 
L 132.570949 153.828093 
L 132.558876 152.923136 
L 132.656173 152.018178 
L 132.876055 151.113221 
L 133.216587 150.208263 
L 133.660782 149.303306 
L 134.179371 148.398348 
L 134.735752 147.493391 
L 135.292068 146.588433 
L 135.81502 145.683476 
L 136.280113 144.778518 
L 136.67357 143.873561 
L 136.991894 142.968603 
L 137.239701 142.063646 
L 137.426797 141.158688 
L 137.565385 140.253731 
L 137.667918 139.348773 
L 137.745703 138.443816 
L 137.8081 137.538858 
L 137.862095 136.633901 
L 137.91215 135.728943 
L 138.495625 135.728943 
L 138.495625 135.728943 
L 138.54568 136.633901 
L 138.599674 137.538858 
L 138.662071 138.443816 
L 138.739856 139.348773 
L 138.842389 140.253731 
L 138.980977 141.158688 
L 139.168073 142.063646 
L 139.41588 142.968603 
L 139.734205 143.873561 
L 140.127662 144.778518 
L 140.592754 145.683476 
L 141.115706 146.588433 
L 141.672023 147.493391 
L 142.228403 148.398348 
L 142.746992 149.303306 
L 143.191187 150.208263 
L 143.531719 151.113221 
L 143.751601 152.018178 
L 143.848898 152.923136 
L 143.836825 153.828093 
L 143.741346 154.733051 
L 143.596918 155.638008 
L 143.441301 156.542966 
L 143.310373 157.447923 
L 143.233807 158.352881 
L 143.232145 159.257839 
L 143.315551 160.162796 
L 143.484125 161.067754 
L 143.729414 161.972711 
L 144.03657 162.877669 
L 144.386631 163.782626 
L 144.758583 164.687584 
L 145.131132 165.592541 
L 145.484281 166.497499 
L 145.800866 167.402456 
L 146.068027 168.307414 
L 146.278385 169.212371 
L 146.430561 170.117329 
L 146.528788 171.022286 
L 146.581626 171.927244 
L 146.600125 172.832201 
L 146.595991 173.737159 
L 146.580154 174.642116 
L 146.561877 175.547074 
L 146.548121 176.452031 
L 146.542761 177.356989 
L 146.545438 178.261946 
L 146.550328 179.166904 
L 146.545549 180.071861 
L 146.514068 180.976819 
L 146.436496 181.881776 
L 146.295359 182.786734 
L 146.079607 183.691691 
L 145.787768 184.596649 
L 145.428545 185.501606 
L 145.018571 186.406564 
L 144.578162 187.311521 
L 144.126656 188.216479 
L 143.678931 189.121436 
L 143.244108 190.026394 
L 142.82638 190.931351 
L 142.427108 191.836309 
L 142.046945 192.741266 
L 141.687076 193.646224 
L 141.349274 194.551181 
L 141.035171 195.456139 
L 140.745409 196.361096 
L 140.47924 197.266054 
L 140.234746 198.171011 
L 140.009482 199.075969 
L 139.801203 199.980926 
L 139.608363 200.885884 
L 139.430305 201.790841 
L 139.267152 202.695799 
L 139.119537 203.600756 
L 138.988255 204.505714 
L 138.873928 205.410671 
L 138.776726 206.315629 
L 138.696159 207.220586 
L 138.630971 208.125544 
L 138.579136 209.030501 
L 138.537991 209.935459 
L 138.504513 210.840416 
L 138.475712 211.745374 
L 138.449076 212.650331 
L 138.422955 213.555289 
L 138.39676 214.460246 
L 138.370907 215.365204 
L 138.34653 216.270161 
L 138.325023 217.175119 
L 138.307567 218.080076 
L 138.294766 218.985034 
L 138.286469 219.889991 
L 138.281822 220.794949 
L 138.279483 221.699906 
L 138.277945 222.604864 
L 138.275861 223.509821 
L 138.272288 224.414779 
L 138.266816 225.319736 
z
" clip-path="url(#pa2beb90de6)" style="fill: #348abd; fill-opacity: 0.3"/>
   </g>
   <g id="PolyCollection_4">
    <path d="M 166.254295 214.047908 
L 166.128401 214.047908 
L 166.123058 213.341577 
L 166.119291 212.635247 
L 166.116749 211.928916 
L 166.114657 211.222586 
L 166.111903 210.516255 
L 166.107226 209.809925 
L 166.099448 209.103594 
L 166.087725 208.397264 
L 166.071725 207.690933 
L 166.0517 206.984603 
L 166.028397 206.278272 
L 166.002815 205.571941 
L 165.975867 204.865611 
L 165.94802 204.15928 
L 165.919006 203.45295 
L 165.887696 202.746619 
L 165.852152 202.040289 
L 165.809853 201.333958 
L 165.758025 200.627628 
L 165.693994 199.921297 
L 165.615487 199.214967 
L 165.520835 198.508636 
L 165.40905 197.802306 
L 165.279791 197.095975 
L 165.133215 196.389645 
L 164.969752 195.683314 
L 164.789817 194.976984 
L 164.593517 194.270653 
L 164.380417 193.564323 
L 164.149426 192.857992 
L 163.898899 192.151662 
L 163.626945 191.445331 
L 163.3319 190.739 
L 163.012794 190.03267 
L 162.669619 189.326339 
L 162.303302 188.620009 
L 161.915411 187.913678 
L 161.507881 187.207348 
L 161.083091 186.501017 
L 160.644532 185.794687 
L 160.197957 185.088356 
L 159.752554 184.382026 
L 159.321424 183.675695 
L 158.920777 182.969365 
L 158.56767 182.263034 
L 158.276754 181.556704 
L 158.056981 180.850373 
L 157.909379 180.144043 
L 157.826702 179.437712 
L 157.79511 178.731382 
L 157.797309 178.025051 
L 157.816157 177.31872 
L 157.837664 176.61239 
L 157.852713 175.906059 
L 157.857405 175.199729 
L 157.852412 174.493398 
L 157.84193 173.787068 
L 157.832741 173.080737 
L 157.833524 172.374407 
L 157.8543 171.668076 
L 157.905714 170.961746 
L 157.997965 170.255415 
L 158.139422 169.549085 
L 158.335176 168.842754 
L 158.58592 168.136424 
L 158.887464 167.430093 
L 159.23099 166.723763 
L 159.60392 166.017432 
L 159.99113 165.311102 
L 160.376174 164.604771 
L 160.742364 163.89844 
L 161.073636 163.19211 
L 161.355327 162.485779 
L 161.57497 161.779449 
L 161.723204 161.073118 
L 161.794752 160.366788 
L 161.789376 159.660457 
L 161.71263 158.954127 
L 161.576269 158.247796 
L 161.398198 157.541466 
L 161.201829 156.835135 
L 161.014764 156.128805 
L 160.866698 155.422474 
L 160.786544 154.716144 
L 160.79896 154.009813 
L 160.920737 153.303483 
L 161.157758 152.597152 
L 161.503358 151.890822 
L 161.938724 151.184491 
L 162.435532 150.47816 
L 162.960373 149.77183 
L 163.480005 149.065499 
L 163.96618 148.359169 
L 164.398994 147.652838 
L 164.76816 146.946508 
L 165.072263 146.240177 
L 165.316535 145.533847 
L 165.51 144.827516 
L 165.662775 144.121186 
L 166.719921 144.121186 
L 166.719921 144.121186 
L 166.872696 144.827516 
L 167.066161 145.533847 
L 167.310433 146.240177 
L 167.614536 146.946508 
L 167.983702 147.652838 
L 168.416516 148.359169 
L 168.902691 149.065499 
L 169.422323 149.77183 
L 169.947164 150.47816 
L 170.443972 151.184491 
L 170.879338 151.890822 
L 171.224938 152.597152 
L 171.461959 153.303483 
L 171.583736 154.009813 
L 171.596152 154.716144 
L 171.515998 155.422474 
L 171.367932 156.128805 
L 171.180867 156.835135 
L 170.984498 157.541466 
L 170.806427 158.247796 
L 170.670066 158.954127 
L 170.59332 159.660457 
L 170.587944 160.366788 
L 170.659492 161.073118 
L 170.807726 161.779449 
L 171.027369 162.485779 
L 171.30906 163.19211 
L 171.640332 163.89844 
L 172.006522 164.604771 
L 172.391566 165.311102 
L 172.778776 166.017432 
L 173.151706 166.723763 
L 173.495232 167.430093 
L 173.796776 168.136424 
L 174.04752 168.842754 
L 174.243273 169.549085 
L 174.38473 170.255415 
L 174.476982 170.961746 
L 174.528396 171.668076 
L 174.549172 172.374407 
L 174.549955 173.080737 
L 174.540766 173.787068 
L 174.530284 174.493398 
L 174.52529 175.199729 
L 174.529983 175.906059 
L 174.545032 176.61239 
L 174.566539 177.31872 
L 174.585387 178.025051 
L 174.587586 178.731382 
L 174.555994 179.437712 
L 174.473317 180.144043 
L 174.325715 180.850373 
L 174.105942 181.556704 
L 173.815026 182.263034 
L 173.461919 182.969365 
L 173.061271 183.675695 
L 172.630142 184.382026 
L 172.184738 185.088356 
L 171.738164 185.794687 
L 171.299605 186.501017 
L 170.874815 187.207348 
L 170.467285 187.913678 
L 170.079394 188.620009 
L 169.713077 189.326339 
L 169.369902 190.03267 
L 169.050795 190.739 
L 168.755751 191.445331 
L 168.483797 192.151662 
L 168.23327 192.857992 
L 168.002279 193.564323 
L 167.789179 194.270653 
L 167.592879 194.976984 
L 167.412944 195.683314 
L 167.249481 196.389645 
L 167.102905 197.095975 
L 166.973646 197.802306 
L 166.861861 198.508636 
L 166.767209 199.214967 
L 166.688702 199.921297 
L 166.624671 200.627628 
L 166.572843 201.333958 
L 166.530544 202.040289 
L 166.495 202.746619 
L 166.46369 203.45295 
L 166.434676 204.15928 
L 166.406828 204.865611 
L 166.379881 205.571941 
L 166.354299 206.278272 
L 166.330996 206.984603 
L 166.310971 207.690933 
L 166.294971 208.397264 
L 166.283248 209.103594 
L 166.27547 209.809925 
L 166.270793 210.516255 
L 166.268039 211.222586 
L 166.265946 211.928916 
L 166.263405 212.635247 
L 166.259638 213.341577 
L 166.254295 214.047908 
z
" clip-path="url(#pa2beb90de6)" style="fill: #348abd; fill-opacity: 0.3"/>
   </g>
   <g id="PolyCollection_5">
    <path d="M 194.242761 205.270719 
L 194.114857 205.270719 
L 194.109127 204.698077 
L 194.104494 204.125435 
L 194.100557 203.552794 
L 194.096579 202.980152 
L 194.091576 202.407511 
L 194.084483 201.834869 
L 194.07435 201.262227 
L 194.060529 200.689586 
L 194.04279 200.116944 
L 194.021333 199.544302 
L 193.996674 198.971661 
L 193.969422 198.399019 
L 193.939988 197.826378 
L 193.908315 197.253736 
L 193.873681 196.681094 
L 193.834638 196.108453 
L 193.789102 195.535811 
L 193.734566 194.96317 
L 193.668396 194.390528 
L 193.588124 193.817886 
L 193.491699 193.245245 
L 193.377633 192.672603 
L 193.245038 192.099962 
L 193.093537 191.52732 
L 192.92309 190.954678 
L 192.733749 190.382037 
L 192.525415 189.809395 
L 192.297648 189.236754 
L 192.049597 188.664112 
L 191.78009 188.09147 
L 191.487888 187.518829 
L 191.172033 186.946187 
L 190.832204 186.373545 
L 190.468951 185.800904 
L 190.083772 185.228262 
L 189.679071 184.655621 
L 189.258131 184.082979 
L 188.82527 183.510337 
L 188.386243 182.937696 
L 187.948782 182.365054 
L 187.522975 181.792413 
L 187.121093 181.219771 
L 186.756605 180.647129 
L 186.442373 180.074488 
L 186.188376 179.501846 
L 185.999612 178.929205 
L 185.874832 178.356563 
L 185.806577 177.783921 
L 185.782571 177.21128 
L 185.78808 176.638638 
L 185.808575 176.065997 
L 185.832 175.493355 
L 185.850175 174.920713 
L 185.859221 174.348072 
L 185.859221 173.77543 
L 185.853487 173.202788 
L 185.847808 172.630147 
L 185.849811 172.057505 
L 185.868432 171.484864 
L 185.913315 170.912222 
L 185.993997 170.33958 
L 186.118838 169.766939 
L 186.293843 169.194297 
L 186.521609 168.621656 
L 186.800667 168.049014 
L 187.125384 167.476372 
L 187.486437 166.903731 
L 187.871722 166.331089 
L 188.267472 165.758448 
L 188.659368 165.185806 
L 189.033461 164.613164 
L 189.376885 164.040523 
L 189.678358 163.467881 
L 189.928567 162.89524 
L 190.12049 162.322598 
L 190.249685 161.749956 
L 190.314562 161.177315 
L 190.316591 160.604673 
L 190.260422 160.032032 
L 190.153901 159.45939 
L 190.007963 158.886748 
L 189.836419 158.314107 
L 189.6556 157.741465 
L 189.483818 157.168823 
L 189.34055 156.596182 
L 189.245236 156.02354 
L 189.215655 155.450899 
L 189.265965 154.878257 
L 189.404692 154.305615 
L 189.633086 153.732974 
L 189.944345 153.160332 
L 190.324042 152.587691 
L 190.751834 152.015049 
L 191.204168 151.442407 
L 191.657415 150.869766 
L 192.090745 150.297124 
L 192.488176 149.724483 
L 192.83949 149.151841 
L 193.140054 148.579199 
L 195.217563 148.579199 
L 195.217563 148.579199 
L 195.518128 149.151841 
L 195.869442 149.724483 
L 196.266873 150.297124 
L 196.700203 150.869766 
L 197.153449 151.442407 
L 197.605783 152.015049 
L 198.033575 152.587691 
L 198.413272 153.160332 
L 198.724532 153.732974 
L 198.952926 154.305615 
L 199.091653 154.878257 
L 199.141963 155.450899 
L 199.112381 156.02354 
L 199.017068 156.596182 
L 198.8738 157.168823 
L 198.702018 157.741465 
L 198.521199 158.314107 
L 198.349655 158.886748 
L 198.203717 159.45939 
L 198.097195 160.032032 
L 198.041026 160.604673 
L 198.043055 161.177315 
L 198.107933 161.749956 
L 198.237128 162.322598 
L 198.42905 162.89524 
L 198.67926 163.467881 
L 198.980733 164.040523 
L 199.324156 164.613164 
L 199.698249 165.185806 
L 200.090145 165.758448 
L 200.485896 166.331089 
L 200.87118 166.903731 
L 201.232233 167.476372 
L 201.55695 168.049014 
L 201.836009 168.621656 
L 202.063774 169.194297 
L 202.238779 169.766939 
L 202.36362 170.33958 
L 202.444302 170.912222 
L 202.489186 171.484864 
L 202.507807 172.057505 
L 202.50981 172.630147 
L 202.50413 173.202788 
L 202.498397 173.77543 
L 202.498396 174.348072 
L 202.507443 174.920713 
L 202.525618 175.493355 
L 202.549043 176.065997 
L 202.569538 176.638638 
L 202.575047 177.21128 
L 202.551041 177.783921 
L 202.482786 178.356563 
L 202.358006 178.929205 
L 202.169242 179.501846 
L 201.915245 180.074488 
L 201.601012 180.647129 
L 201.236525 181.219771 
L 200.834642 181.792413 
L 200.408835 182.365054 
L 199.971375 182.937696 
L 199.532348 183.510337 
L 199.099487 184.082979 
L 198.678546 184.655621 
L 198.273846 185.228262 
L 197.888667 185.800904 
L 197.525414 186.373545 
L 197.185584 186.946187 
L 196.86973 187.518829 
L 196.577527 188.09147 
L 196.308021 188.664112 
L 196.05997 189.236754 
L 195.832203 189.809395 
L 195.623869 190.382037 
L 195.434528 190.954678 
L 195.26408 191.52732 
L 195.11258 192.099962 
L 194.979984 192.672603 
L 194.865918 193.245245 
L 194.769493 193.817886 
L 194.689222 194.390528 
L 194.623051 194.96317 
L 194.568516 195.535811 
L 194.522979 196.108453 
L 194.483937 196.681094 
L 194.449303 197.253736 
L 194.41763 197.826378 
L 194.388196 198.399019 
L 194.360943 198.971661 
L 194.336285 199.544302 
L 194.314828 200.116944 
L 194.297088 200.689586 
L 194.283267 201.262227 
L 194.273135 201.834869 
L 194.266042 202.407511 
L 194.261039 202.980152 
L 194.257061 203.552794 
L 194.253124 204.125435 
L 194.24849 204.698077 
L 194.242761 205.270719 
z
" clip-path="url(#pa2beb90de6)" style="fill: #348abd; fill-opacity: 0.3"/>
   </g>
   <g id="PolyCollection_6">
    <path d="M 222.232432 198.494976 
L 222.100107 198.494976 
L 222.093474 198.013763 
L 222.087394 197.53255 
L 222.081399 197.051337 
L 222.074746 196.570124 
L 222.066534 196.088911 
L 222.055851 195.607698 
L 222.041937 195.126485 
L 222.024305 194.645272 
L 222.00279 194.164059 
L 221.977485 193.682847 
L 221.948579 193.201634 
L 221.916133 192.720421 
L 221.879838 192.239208 
L 221.838833 191.757995 
L 221.791621 191.276782 
L 221.736122 190.795569 
L 221.669841 190.314356 
L 221.59012 189.833143 
L 221.494407 189.35193 
L 221.380501 188.870718 
L 221.246696 188.389505 
L 221.091826 187.908292 
L 220.915197 187.427079 
L 220.71644 186.945866 
L 220.495338 186.464653 
L 220.251677 185.98344 
L 219.985189 185.502227 
L 219.695606 185.021014 
L 219.382827 184.539802 
L 219.047138 184.058589 
L 218.689426 183.577376 
L 218.3113 183.096163 
L 217.915129 182.61495 
L 217.504012 182.133737 
L 217.081799 181.652524 
L 216.65325 181.171311 
L 216.224345 180.690098 
L 215.802636 180.208885 
L 215.397406 179.727673 
L 215.019379 179.24646 
L 214.679808 178.765247 
L 214.388991 178.284034 
L 214.154509 177.802821 
L 213.979654 177.321608 
L 213.86255 176.840395 
L 213.796277 176.359182 
L 213.770031 175.877969 
L 213.771021 175.396756 
L 213.786611 174.915544 
L 213.806183 174.434331 
L 213.82237 173.953118 
L 213.831527 173.471905 
L 213.833593 172.990692 
L 213.831578 172.509479 
L 213.830938 172.028266 
L 213.838978 171.547053 
L 213.864272 171.06584 
L 213.916019 170.584628 
L 214.003252 170.103415 
L 214.133861 169.622202 
L 214.313569 169.140989 
L 214.545009 168.659776 
L 214.827121 168.178563 
L 215.155005 167.69735 
L 215.520267 167.216137 
L 215.911772 166.734924 
L 216.316655 166.253711 
L 216.7214 165.772499 
L 217.112828 165.291286 
L 217.47891 164.810073 
L 217.809336 164.32886 
L 218.095879 163.847647 
L 218.332559 163.366434 
L 218.515672 162.885221 
L 218.643715 162.404008 
L 218.717254 161.922795 
L 218.738763 161.441582 
L 218.712459 160.96037 
L 218.644137 160.479157 
L 218.541016 159.997944 
L 218.4116 159.516731 
L 218.26557 159.035518 
L 218.11369 158.554305 
L 217.967711 158.073092 
L 217.840181 157.591879 
L 217.744062 157.110666 
L 217.692044 156.629454 
L 217.695517 156.148241 
L 217.763285 155.667028 
L 217.900242 155.185815 
L 218.106312 154.704602 
L 218.375983 154.223389 
L 218.698637 153.742176 
L 219.059664 153.260963 
L 219.442188 152.77975 
L 219.829022 152.298537 
L 220.204474 151.817325 
L 220.555684 151.336112 
L 220.873351 150.854899 
L 223.459188 150.854899 
L 223.459188 150.854899 
L 223.776855 151.336112 
L 224.128065 151.817325 
L 224.503517 152.298537 
L 224.890351 152.77975 
L 225.272875 153.260963 
L 225.633902 153.742176 
L 225.956556 154.223389 
L 226.226228 154.704602 
L 226.432297 155.185815 
L 226.569254 155.667028 
L 226.637022 156.148241 
L 226.640495 156.629454 
L 226.588477 157.110666 
L 226.492358 157.591879 
L 226.364828 158.073092 
L 226.218849 158.554305 
L 226.066969 159.035518 
L 225.920939 159.516731 
L 225.791523 159.997944 
L 225.688402 160.479157 
L 225.62008 160.96037 
L 225.593776 161.441582 
L 225.615286 161.922795 
L 225.688824 162.404008 
L 225.816868 162.885221 
L 225.99998 163.366434 
L 226.23666 163.847647 
L 226.523203 164.32886 
L 226.853629 164.810073 
L 227.219711 165.291286 
L 227.611139 165.772499 
L 228.015884 166.253711 
L 228.420767 166.734924 
L 228.812272 167.216137 
L 229.177534 167.69735 
L 229.505418 168.178563 
L 229.78753 168.659776 
L 230.01897 169.140989 
L 230.198678 169.622202 
L 230.329288 170.103415 
L 230.41652 170.584628 
L 230.468268 171.06584 
L 230.493561 171.547053 
L 230.501601 172.028266 
L 230.500961 172.509479 
L 230.498946 172.990692 
L 230.501012 173.471905 
L 230.510169 173.953118 
L 230.526356 174.434331 
L 230.545928 174.915544 
L 230.561518 175.396756 
L 230.562508 175.877969 
L 230.536262 176.359182 
L 230.469989 176.840395 
L 230.352885 177.321608 
L 230.17803 177.802821 
L 229.943548 178.284034 
L 229.652731 178.765247 
L 229.31316 179.24646 
L 228.935133 179.727673 
L 228.529903 180.208885 
L 228.108194 180.690098 
L 227.67929 181.171311 
L 227.25074 181.652524 
L 226.828527 182.133737 
L 226.41741 182.61495 
L 226.021239 183.096163 
L 225.643114 183.577376 
L 225.285401 184.058589 
L 224.949712 184.539802 
L 224.636933 185.021014 
L 224.34735 185.502227 
L 224.080862 185.98344 
L 223.837201 186.464653 
L 223.616099 186.945866 
L 223.417343 187.427079 
L 223.240714 187.908292 
L 223.085844 188.389505 
L 222.952038 188.870718 
L 222.838132 189.35193 
L 222.742419 189.833143 
L 222.662698 190.314356 
L 222.596417 190.795569 
L 222.540919 191.276782 
L 222.493707 191.757995 
L 222.452701 192.239208 
L 222.416406 192.720421 
L 222.38396 193.201634 
L 222.355054 193.682847 
L 222.329749 194.164059 
L 222.308234 194.645272 
L 222.290603 195.126485 
L 222.276688 195.607698 
L 222.266005 196.088911 
L 222.257793 196.570124 
L 222.251141 197.051337 
L 222.245145 197.53255 
L 222.239066 198.013763 
L 222.232432 198.494976 
z
" clip-path="url(#pa2beb90de6)" style="fill: #348abd; fill-opacity: 0.3"/>
   </g>
   <g id="PolyCollection_7">
    <path d="M 250.223292 193.183079 
L 250.084169 193.183079 
L 250.075961 192.766279 
L 250.067657 192.349479 
L 250.058716 191.932679 
L 250.048385 191.515879 
L 250.035815 191.099079 
L 250.020188 190.682279 
L 250.000828 190.265479 
L 249.977246 189.848679 
L 249.949109 189.431879 
L 249.916111 189.015079 
L 249.877787 188.598279 
L 249.833313 188.18148 
L 249.781357 187.76468 
L 249.720026 187.34788 
L 249.646927 186.93108 
L 249.559355 186.51428 
L 249.454541 186.09748 
L 249.329926 185.68068 
L 249.183389 185.26388 
L 249.01339 184.84708 
L 248.819003 184.43028 
L 248.599858 184.01348 
L 248.356018 183.59668 
L 248.087861 183.17988 
L 247.795987 182.76308 
L 247.481197 182.34628 
L 247.144536 181.92948 
L 246.787358 181.51268 
L 246.411402 181.09588 
L 246.018839 180.67908 
L 245.612337 180.26228 
L 245.195173 179.84548 
L 244.771454 179.42868 
L 244.346445 179.01188 
L 243.926902 178.59508 
L 243.521235 178.17828 
L 243.1393 177.76148 
L 242.791653 177.34468 
L 242.488297 176.92788 
L 242.237117 176.51108 
L 242.04241 176.09428 
L 241.903901 175.677481 
L 241.8166 175.260681 
L 241.771578 174.843881 
L 241.757492 174.427081 
L 241.762474 174.010281 
L 241.775948 173.593481 
L 241.789989 173.176681 
L 241.800069 172.759881 
L 241.805187 172.343081 
L 241.807577 171.926281 
L 241.812172 171.509481 
L 241.825981 171.092681 
L 241.857432 170.675881 
L 241.915636 170.259081 
L 242.009543 169.842281 
L 242.146984 169.425481 
L 242.333685 169.008681 
L 242.572395 168.591881 
L 242.862293 168.175081 
L 243.198808 167.758281 
L 243.573884 167.341481 
L 243.976649 166.924681 
L 244.394367 166.507881 
L 244.813511 166.091081 
L 245.220824 165.674281 
L 245.604229 165.257481 
L 245.953534 164.840681 
L 246.260875 164.423881 
L 246.520905 164.007081 
L 246.730758 163.590281 
L 246.88982 163.173481 
L 246.999401 162.756682 
L 247.062346 162.339882 
L 247.082671 161.923082 
L 247.065233 161.506282 
L 247.015473 161.089482 
L 246.939213 160.672682 
L 246.84253 160.255882 
L 246.731699 159.839082 
L 246.613234 159.422282 
L 246.494023 159.005482 
L 246.381506 158.588682 
L 246.283807 158.171882 
L 246.209702 157.755082 
L 246.168284 157.338282 
L 246.168282 156.921482 
L 246.217064 156.504682 
L 246.319516 156.087882 
L 246.477031 155.671082 
L 246.686919 155.254282 
L 246.9424 154.837482 
L 247.23327 154.420682 
L 247.547095 154.003882 
L 247.870679 153.587082 
L 248.191496 153.170282 
L 248.498808 152.753482 
L 248.784325 152.336682 
L 249.042384 151.919882 
L 251.265076 151.919882 
L 251.265076 151.919882 
L 251.523136 152.336682 
L 251.808653 152.753482 
L 252.115965 153.170282 
L 252.436782 153.587082 
L 252.760366 154.003882 
L 253.074191 154.420682 
L 253.365061 154.837482 
L 253.620542 155.254282 
L 253.83043 155.671082 
L 253.987945 156.087882 
L 254.090397 156.504682 
L 254.139179 156.921482 
L 254.139177 157.338282 
L 254.097759 157.755082 
L 254.023654 158.171882 
L 253.925955 158.588682 
L 253.813437 159.005482 
L 253.694227 159.422282 
L 253.575762 159.839082 
L 253.464931 160.255882 
L 253.368248 160.672682 
L 253.291988 161.089482 
L 253.242228 161.506282 
L 253.22479 161.923082 
L 253.245115 162.339882 
L 253.30806 162.756682 
L 253.417641 163.173481 
L 253.576703 163.590281 
L 253.786555 164.007081 
L 254.046586 164.423881 
L 254.353927 164.840681 
L 254.703232 165.257481 
L 255.086637 165.674281 
L 255.493949 166.091081 
L 255.913094 166.507881 
L 256.330812 166.924681 
L 256.733577 167.341481 
L 257.108653 167.758281 
L 257.445168 168.175081 
L 257.735066 168.591881 
L 257.973775 169.008681 
L 258.160477 169.425481 
L 258.297918 169.842281 
L 258.391825 170.259081 
L 258.450029 170.675881 
L 258.48148 171.092681 
L 258.495289 171.509481 
L 258.499884 171.926281 
L 258.502274 172.343081 
L 258.507392 172.759881 
L 258.517472 173.176681 
L 258.531513 173.593481 
L 258.544986 174.010281 
L 258.549969 174.427081 
L 258.535882 174.843881 
L 258.490861 175.260681 
L 258.40356 175.677481 
L 258.265051 176.09428 
L 258.070343 176.51108 
L 257.819164 176.92788 
L 257.515807 177.34468 
L 257.168161 177.76148 
L 256.786226 178.17828 
L 256.380559 178.59508 
L 255.961015 179.01188 
L 255.536007 179.42868 
L 255.112288 179.84548 
L 254.695123 180.26228 
L 254.288621 180.67908 
L 253.896059 181.09588 
L 253.520103 181.51268 
L 253.162925 181.92948 
L 252.826264 182.34628 
L 252.511474 182.76308 
L 252.219599 183.17988 
L 251.951442 183.59668 
L 251.707603 184.01348 
L 251.488458 184.43028 
L 251.294071 184.84708 
L 251.124072 185.26388 
L 250.977535 185.68068 
L 250.85292 186.09748 
L 250.748106 186.51428 
L 250.660534 186.93108 
L 250.587435 187.34788 
L 250.526103 187.76468 
L 250.474148 188.18148 
L 250.429674 188.598279 
L 250.391349 189.015079 
L 250.358352 189.431879 
L 250.330215 189.848679 
L 250.306633 190.265479 
L 250.287272 190.682279 
L 250.271646 191.099079 
L 250.259076 191.515879 
L 250.248745 191.932679 
L 250.239803 192.349479 
L 250.2315 192.766279 
L 250.223292 193.183079 
z
" clip-path="url(#pa2beb90de6)" style="fill: #348abd; fill-opacity: 0.3"/>
   </g>
   <g id="PolyCollection_8">
    <path d="M 278.216147 188.935936 
L 278.066235 188.935936 
L 278.05558 188.568328 
L 278.044014 188.20072 
L 278.030911 187.833112 
L 278.015476 187.465504 
L 277.996832 187.097895 
L 277.974102 186.730287 
L 277.946452 186.362679 
L 277.91307 185.995071 
L 277.873073 185.627463 
L 277.825378 185.259855 
L 277.768568 184.892247 
L 277.700805 184.524639 
L 277.619846 184.157031 
L 277.523156 183.789423 
L 277.408116 183.421815 
L 277.272275 183.054207 
L 277.113581 182.686599 
L 276.930552 182.318991 
L 276.72233 181.951383 
L 276.488647 181.583775 
L 276.22971 181.216166 
L 275.946078 180.848558 
L 275.638554 180.48095 
L 275.308147 180.113342 
L 274.956096 179.745734 
L 274.583941 179.378126 
L 274.193619 179.010518 
L 273.787599 178.64291 
L 273.369043 178.275302 
L 272.942035 177.907694 
L 272.511856 177.540086 
L 272.085242 177.172478 
L 271.670488 176.80487 
L 271.277237 176.437262 
L 270.915826 176.069654 
L 270.596175 175.702046 
L 270.326399 175.334437 
L 270.111423 174.966829 
L 269.951998 174.599221 
L 269.844413 174.231613 
L 269.781041 173.864005 
L 269.751618 173.496397 
L 269.744953 173.128789 
L 269.750682 172.761181 
L 269.760702 172.393573 
L 269.770084 172.025965 
L 269.777402 171.658357 
L 269.784596 171.290749 
L 269.796508 170.923141 
L 269.820229 170.555533 
L 269.864331 170.187925 
L 269.938005 169.820317 
L 270.050093 169.452708 
L 270.20808 169.0851 
L 270.417109 168.717492 
L 270.679164 168.349884 
L 270.99257 167.982276 
L 271.35189 167.614668 
L 271.748262 167.24706 
L 272.170118 166.879452 
L 272.604167 166.511844 
L 273.036512 166.144236 
L 273.453749 165.776628 
L 273.843927 165.40902 
L 274.197288 165.041412 
L 274.50672 164.673804 
L 274.767922 164.306196 
L 274.97929 163.938587 
L 275.141589 163.570979 
L 275.257486 163.203371 
L 275.331025 162.835763 
L 275.367132 162.468155 
L 275.371166 162.100547 
L 275.348568 161.732939 
L 275.304586 161.365331 
L 275.244077 160.997723 
L 275.171404 160.630115 
L 275.090449 160.262507 
L 275.004756 159.894899 
L 274.917818 159.527291 
L 274.833454 159.159683 
L 274.756187 158.792075 
L 274.691509 158.424467 
L 274.645873 158.056858 
L 274.626355 157.68925 
L 274.639954 157.321642 
L 274.692632 156.954034 
L 274.788281 156.586426 
L 274.927864 156.218818 
L 275.108942 155.85121 
L 275.325758 155.483602 
L 275.569872 155.115994 
L 275.831223 154.748386 
L 276.099387 154.380778 
L 276.364743 154.01317 
L 276.619322 153.645562 
L 276.857228 153.277954 
L 277.074629 152.910346 
L 277.269454 152.542738 
L 279.012928 152.542738 
L 279.012928 152.542738 
L 279.207753 152.910346 
L 279.425155 153.277954 
L 279.663061 153.645562 
L 279.91764 154.01317 
L 280.182995 154.380778 
L 280.45116 154.748386 
L 280.712511 155.115994 
L 280.956624 155.483602 
L 281.17344 155.85121 
L 281.354518 156.218818 
L 281.494101 156.586426 
L 281.589751 156.954034 
L 281.642428 157.321642 
L 281.656028 157.68925 
L 281.63651 158.056858 
L 281.590874 158.424467 
L 281.526195 158.792075 
L 281.448929 159.159683 
L 281.364564 159.527291 
L 281.277626 159.894899 
L 281.191934 160.262507 
L 281.110978 160.630115 
L 281.038306 160.997723 
L 280.977796 161.365331 
L 280.933814 161.732939 
L 280.911217 162.100547 
L 280.915251 162.468155 
L 280.951357 162.835763 
L 281.024897 163.203371 
L 281.140793 163.570979 
L 281.303092 163.938587 
L 281.51446 164.306196 
L 281.775662 164.673804 
L 282.085095 165.041412 
L 282.438456 165.40902 
L 282.828634 165.776628 
L 283.24587 166.144236 
L 283.678215 166.511844 
L 284.112264 166.879452 
L 284.53412 167.24706 
L 284.930493 167.614668 
L 285.289813 167.982276 
L 285.603218 168.349884 
L 285.865274 168.717492 
L 286.074302 169.0851 
L 286.23229 169.452708 
L 286.344378 169.820317 
L 286.418051 170.187925 
L 286.462154 170.555533 
L 286.485875 170.923141 
L 286.497786 171.290749 
L 286.50498 171.658357 
L 286.512298 172.025965 
L 286.52168 172.393573 
L 286.531701 172.761181 
L 286.537429 173.128789 
L 286.530765 173.496397 
L 286.501342 173.864005 
L 286.43797 174.231613 
L 286.330384 174.599221 
L 286.170959 174.966829 
L 285.955983 175.334437 
L 285.686207 175.702046 
L 285.366557 176.069654 
L 285.005145 176.437262 
L 284.611895 176.80487 
L 284.197141 177.172478 
L 283.770526 177.540086 
L 283.340347 177.907694 
L 282.913339 178.275302 
L 282.494783 178.64291 
L 282.088763 179.010518 
L 281.698442 179.378126 
L 281.326286 179.745734 
L 280.974236 180.113342 
L 280.643829 180.48095 
L 280.336304 180.848558 
L 280.052672 181.216166 
L 279.793736 181.583775 
L 279.560052 181.951383 
L 279.351831 182.318991 
L 279.168801 182.686599 
L 279.010108 183.054207 
L 278.874266 183.421815 
L 278.759226 183.789423 
L 278.662536 184.157031 
L 278.581578 184.524639 
L 278.513815 184.892247 
L 278.457004 185.259855 
L 278.40931 185.627463 
L 278.369313 185.995071 
L 278.33593 186.362679 
L 278.30828 186.730287 
L 278.28555 187.097895 
L 278.266906 187.465504 
L 278.251471 187.833112 
L 278.238368 188.20072 
L 278.226802 188.568328 
L 278.216147 188.935936 
z
" clip-path="url(#pa2beb90de6)" style="fill: #348abd; fill-opacity: 0.3"/>
   </g>
   <g id="PolyCollection_9">
    <path d="M 306.212028 185.484186 
L 306.045276 185.484186 
L 306.031011 185.155445 
L 306.014791 184.826704 
L 305.995879 184.497963 
L 305.973377 184.169222 
L 305.946272 183.840481 
L 305.913476 183.51174 
L 305.873813 183.182999 
L 305.825968 182.854259 
L 305.768408 182.525518 
L 305.699315 182.196777 
L 305.616555 181.868036 
L 305.51773 181.539295 
L 305.400318 181.210554 
L 305.261859 180.881813 
L 305.100167 180.553072 
L 304.91351 180.224331 
L 304.700713 179.89559 
L 304.461181 179.566849 
L 304.194849 179.238108 
L 303.902106 178.909367 
L 303.583714 178.580626 
L 303.240778 178.251885 
L 302.874758 177.923144 
L 302.487541 177.594403 
L 302.08156 177.265662 
L 301.659957 176.936921 
L 301.226797 176.60818 
L 300.787314 176.279439 
L 300.348136 175.950698 
L 299.917388 175.621957 
L 299.50454 175.293216 
L 299.119876 174.964475 
L 298.773555 174.635734 
L 298.474357 174.306994 
L 298.228354 173.978253 
L 298.037847 173.649512 
L 297.90086 173.320771 
L 297.811404 172.99203 
L 297.760468 172.663289 
L 297.737559 172.334548 
L 297.732414 172.005807 
L 297.736559 171.677066 
L 297.744436 171.348325 
L 297.753976 171.019584 
L 297.766649 170.690843 
L 297.787082 170.362102 
L 297.822385 170.033361 
L 297.881264 169.70462 
L 297.973003 169.375879 
L 298.10636 169.047138 
L 298.288462 168.718397 
L 298.523789 168.389656 
L 298.813397 168.060915 
L 299.154496 167.732174 
L 299.540449 167.403433 
L 299.96122 167.074692 
L 300.404193 166.745951 
L 300.855248 166.41721 
L 301.299958 166.088469 
L 301.724741 165.759729 
L 302.117851 165.430988 
L 302.470112 165.102247 
L 302.775327 164.773506 
L 303.030361 164.444765 
L 303.234926 164.116024 
L 303.391148 163.787283 
L 303.502995 163.458542 
L 303.575678 163.129801 
L 303.615085 162.80106 
L 303.627293 162.472319 
L 303.618172 162.143578 
L 303.593064 161.814837 
L 303.556538 161.486096 
L 303.512231 161.157355 
L 303.4628 160.828614 
L 303.410017 160.499873 
L 303.355034 160.171132 
L 303.298794 159.842391 
L 303.242533 159.51365 
L 303.188269 159.184909 
L 303.139175 158.856168 
L 303.099701 158.527427 
L 303.075405 158.198686 
L 303.072442 157.869945 
L 303.096791 157.541204 
L 303.153331 157.212464 
L 303.244944 156.883723 
L 303.371855 156.554982 
L 303.531353 156.226241 
L 303.718011 155.8975 
L 303.924359 155.568759 
L 304.141893 155.240018 
L 304.362185 154.911277 
L 304.577861 154.582536 
L 304.783252 154.253795 
L 304.974622 153.925054 
L 305.149993 153.596313 
L 305.308716 153.267572 
L 305.450937 152.938831 
L 306.806368 152.938831 
L 306.806368 152.938831 
L 306.948588 153.267572 
L 307.107311 153.596313 
L 307.282682 153.925054 
L 307.474052 154.253795 
L 307.679444 154.582536 
L 307.895119 154.911277 
L 308.115411 155.240018 
L 308.332945 155.568759 
L 308.539293 155.8975 
L 308.725951 156.226241 
L 308.88545 156.554982 
L 309.01236 156.883723 
L 309.103973 157.212464 
L 309.160513 157.541204 
L 309.184862 157.869945 
L 309.181899 158.198686 
L 309.157603 158.527427 
L 309.11813 158.856168 
L 309.069035 159.184909 
L 309.014771 159.51365 
L 308.95851 159.842391 
L 308.90227 160.171132 
L 308.847287 160.499873 
L 308.794504 160.828614 
L 308.745073 161.157355 
L 308.700766 161.486096 
L 308.66424 161.814837 
L 308.639132 162.143578 
L 308.630011 162.472319 
L 308.642219 162.80106 
L 308.681626 163.129801 
L 308.754309 163.458542 
L 308.866156 163.787283 
L 309.022378 164.116024 
L 309.226944 164.444765 
L 309.481977 164.773506 
L 309.787192 165.102247 
L 310.139453 165.430988 
L 310.532563 165.759729 
L 310.957346 166.088469 
L 311.402056 166.41721 
L 311.853112 166.745951 
L 312.296084 167.074692 
L 312.716855 167.403433 
L 313.102808 167.732174 
L 313.443907 168.060915 
L 313.733516 168.389656 
L 313.968842 168.718397 
L 314.150944 169.047138 
L 314.284301 169.375879 
L 314.37604 169.70462 
L 314.434919 170.033361 
L 314.470222 170.362102 
L 314.490655 170.690843 
L 314.503328 171.019584 
L 314.512868 171.348325 
L 314.520745 171.677066 
L 314.52489 172.005807 
L 314.519745 172.334548 
L 314.496836 172.663289 
L 314.4459 172.99203 
L 314.356444 173.320771 
L 314.219457 173.649512 
L 314.02895 173.978253 
L 313.782947 174.306994 
L 313.483749 174.635734 
L 313.137428 174.964475 
L 312.752764 175.293216 
L 312.339916 175.621957 
L 311.909169 175.950698 
L 311.46999 176.279439 
L 311.030507 176.60818 
L 310.597347 176.936921 
L 310.175744 177.265662 
L 309.769763 177.594403 
L 309.382546 177.923144 
L 309.016526 178.251885 
L 308.67359 178.580626 
L 308.355198 178.909367 
L 308.062455 179.238108 
L 307.796124 179.566849 
L 307.556591 179.89559 
L 307.343794 180.224331 
L 307.157137 180.553072 
L 306.995445 180.881813 
L 306.856986 181.210554 
L 306.739574 181.539295 
L 306.64075 181.868036 
L 306.557989 182.196777 
L 306.488896 182.525518 
L 306.431337 182.854259 
L 306.383491 183.182999 
L 306.343828 183.51174 
L 306.311032 183.840481 
L 306.283928 184.169222 
L 306.261425 184.497963 
L 306.242513 184.826704 
L 306.226293 185.155445 
L 306.212028 185.484186 
z
" clip-path="url(#pa2beb90de6)" style="fill: #348abd; fill-opacity: 0.3"/>
   </g>
   <g id="PolyCollection_10">
    <path d="M 334.209509 182.645094 
L 334.022716 182.645094 
L 334.004483 182.347127 
L 333.983314 182.049161 
L 333.958369 181.751195 
L 333.92861 181.453229 
L 333.892813 181.155263 
L 333.849558 180.857296 
L 333.797199 180.55933 
L 333.733817 180.261364 
L 333.657198 179.963398 
L 333.56485 179.665431 
L 333.454087 179.367465 
L 333.322185 179.069499 
L 333.166577 178.771533 
L 332.985047 178.473567 
L 332.775898 178.1756 
L 332.538033 177.877634 
L 332.270983 177.579668 
L 331.974866 177.281702 
L 331.650334 176.983736 
L 331.298538 176.685769 
L 330.921131 176.387803 
L 330.520345 176.089837 
L 330.099116 175.791871 
L 329.661278 175.493905 
L 329.211798 175.195938 
L 328.757 174.897972 
L 328.304713 174.600006 
L 327.864217 174.30204 
L 327.44588 174.004074 
L 327.060406 173.706107 
L 326.717737 173.408141 
L 326.425757 173.110175 
L 326.189089 172.812209 
L 326.008301 172.514243 
L 325.879763 172.216276 
L 325.796278 171.91831 
L 325.74836 171.620344 
L 325.7259 171.322378 
L 325.719875 171.024412 
L 325.723757 170.726445 
L 325.734424 170.428479 
L 325.752481 170.130513 
L 325.782029 169.832547 
L 325.829996 169.53458 
L 325.90514 169.236614 
L 326.016851 168.938648 
L 326.173861 168.640682 
L 326.382979 168.342716 
L 326.648009 168.044749 
L 326.968958 167.746783 
L 327.341687 167.448817 
L 327.758027 167.150851 
L 328.206381 166.852885 
L 328.672708 166.554918 
L 329.141758 166.256952 
L 329.598397 165.958986 
L 330.028837 165.66102 
L 330.421657 165.363054 
L 330.768485 165.065087 
L 331.064308 164.767121 
L 331.307414 164.469155 
L 331.499023 164.171189 
L 331.642719 163.873223 
L 331.743775 163.575256 
L 331.808502 163.27729 
L 331.843654 162.979324 
L 331.855956 162.681358 
L 331.851703 162.383392 
L 331.836443 162.085425 
L 331.814713 161.787459 
L 331.789851 161.489493 
L 331.763904 161.191527 
L 331.737697 160.893561 
L 331.711065 160.595594 
L 331.683259 160.297628 
L 331.653456 159.999662 
L 331.621308 159.701696 
L 331.587412 159.40373 
L 331.553633 159.105763 
L 331.523211 158.807797 
L 331.500612 158.509831 
L 331.49114 158.211865 
L 331.50033 157.913898 
L 331.533193 157.615932 
L 331.59343 157.317966 
L 331.682739 157.02 
L 331.800379 156.722034 
L 331.943087 156.424067 
L 332.105427 156.126101 
L 332.280504 155.828135 
L 332.460926 155.530169 
L 332.639795 155.232203 
L 332.811533 154.934236 
L 332.972356 154.63627 
L 333.120356 154.338304 
L 333.255203 154.040338 
L 333.377616 153.742372 
L 333.488756 153.444405 
L 333.589717 153.146439 
L 334.642509 153.146439 
L 334.642509 153.146439 
L 334.74347 153.444405 
L 334.85461 153.742372 
L 334.977023 154.040338 
L 335.11187 154.338304 
L 335.25987 154.63627 
L 335.420693 154.934236 
L 335.59243 155.232203 
L 335.7713 155.530169 
L 335.951721 155.828135 
L 336.126799 156.126101 
L 336.289139 156.424067 
L 336.431847 156.722034 
L 336.549487 157.02 
L 336.638796 157.317966 
L 336.699032 157.615932 
L 336.731896 157.913898 
L 336.741085 158.211865 
L 336.731614 158.509831 
L 336.709015 158.807797 
L 336.678592 159.105763 
L 336.644814 159.40373 
L 336.610917 159.701696 
L 336.578769 159.999662 
L 336.548967 160.297628 
L 336.52116 160.595594 
L 336.494528 160.893561 
L 336.468321 161.191527 
L 336.442375 161.489493 
L 336.417513 161.787459 
L 336.395783 162.085425 
L 336.380523 162.383392 
L 336.376269 162.681358 
L 336.388571 162.979324 
L 336.423724 163.27729 
L 336.48845 163.575256 
L 336.589507 163.873223 
L 336.733202 164.171189 
L 336.924812 164.469155 
L 337.167917 164.767121 
L 337.46374 165.065087 
L 337.810569 165.363054 
L 338.203389 165.66102 
L 338.633829 165.958986 
L 339.090467 166.256952 
L 339.559518 166.554918 
L 340.025845 166.852885 
L 340.474198 167.150851 
L 340.890538 167.448817 
L 341.263267 167.746783 
L 341.584217 168.044749 
L 341.849247 168.342716 
L 342.058365 168.640682 
L 342.215374 168.938648 
L 342.327086 169.236614 
L 342.40223 169.53458 
L 342.450197 169.832547 
L 342.479745 170.130513 
L 342.497802 170.428479 
L 342.508469 170.726445 
L 342.512351 171.024412 
L 342.506325 171.322378 
L 342.483866 171.620344 
L 342.435947 171.91831 
L 342.352463 172.216276 
L 342.223925 172.514243 
L 342.043136 172.812209 
L 341.806469 173.110175 
L 341.514489 173.408141 
L 341.17182 173.706107 
L 340.786346 174.004074 
L 340.368009 174.30204 
L 339.927512 174.600006 
L 339.475225 174.897972 
L 339.020428 175.195938 
L 338.570948 175.493905 
L 338.13311 175.791871 
L 337.71188 176.089837 
L 337.311094 176.387803 
L 336.933688 176.685769 
L 336.581891 176.983736 
L 336.257359 177.281702 
L 335.961242 177.579668 
L 335.694193 177.877634 
L 335.456328 178.1756 
L 335.247178 178.473567 
L 335.065649 178.771533 
L 334.91004 179.069499 
L 334.778139 179.367465 
L 334.667376 179.665431 
L 334.575027 179.963398 
L 334.498408 180.261364 
L 334.435027 180.55933 
L 334.382667 180.857296 
L 334.339413 181.155263 
L 334.303616 181.453229 
L 334.273857 181.751195 
L 334.248911 182.049161 
L 334.227743 182.347127 
L 334.209509 182.645094 
z
" clip-path="url(#pa2beb90de6)" style="fill: #348abd; fill-opacity: 0.3"/>
   </g>
   <g id="PolyCollection_11">
    <path d="M 362.201987 180.265771 
L 362.00516 180.265771 
L 361.984197 179.992333 
L 361.959411 179.718895 
L 361.929743 179.445457 
L 361.89387 179.172019 
L 361.850189 178.898581 
L 361.796807 178.625142 
L 361.731511 178.351704 
L 361.651771 178.078266 
L 361.554768 177.804828 
L 361.43749 177.53139 
L 361.296887 177.257952 
L 361.130075 176.984514 
L 360.934542 176.711076 
L 360.708332 176.437638 
L 360.450164 176.1642 
L 360.159491 175.890762 
L 359.836502 175.617324 
L 359.482112 175.343886 
L 359.097967 175.070448 
L 358.686508 174.79701 
L 358.251095 174.523572 
L 357.796203 174.250133 
L 357.327646 173.976695 
L 356.852779 173.703257 
L 356.380569 173.429819 
L 355.921418 173.156381 
L 355.486652 172.882943 
L 355.087614 172.609505 
L 354.73445 172.336067 
L 354.434798 172.062629 
L 354.192656 171.789191 
L 354.00777 171.515753 
L 353.875743 171.242315 
L 353.788917 170.968877 
L 353.73787 170.695439 
L 353.713216 170.422001 
L 353.707335 170.148563 
L 353.715706 169.875124 
L 353.737619 169.601686 
L 353.776226 169.328248 
L 353.837954 169.05481 
L 353.931428 168.781372 
L 354.066068 168.507934 
L 354.250546 168.234496 
L 354.491307 167.961058 
L 354.791326 167.68762 
L 355.149281 167.414182 
L 355.559262 167.140744 
L 356.011058 166.867306 
L 356.490975 166.593868 
L 356.983083 166.32043 
L 357.470685 166.046992 
L 357.937829 165.773554 
L 358.370642 165.500115 
L 358.758334 165.226677 
L 359.093783 164.953239 
L 359.373656 164.679801 
L 359.598124 164.406363 
L 359.770281 164.132925 
L 359.895393 163.859487 
L 359.980121 163.586049 
L 360.03183 163.312611 
L 360.05801 163.039173 
L 360.065844 162.765735 
L 360.061854 162.492297 
L 360.051615 162.218859 
L 360.039502 161.945421 
L 360.0285 161.671983 
L 360.02012 161.398545 
L 360.014469 161.125106 
L 360.010512 160.851668 
L 360.006477 160.57823 
L 360.000383 160.304792 
L 359.990561 160.031354 
L 359.976112 159.757916 
L 359.957223 159.484478 
L 359.935319 159.21104 
L 359.913061 158.937602 
L 359.894182 158.664164 
L 359.88319 158.390726 
L 359.884936 158.117288 
L 359.904067 157.84385 
L 359.9444 157.570412 
L 360.008309 157.296974 
L 360.096226 157.023536 
L 360.206393 156.750097 
L 360.334947 156.476659 
L 360.476371 156.203221 
L 360.624245 155.929783 
L 360.772149 155.656345 
L 360.914534 155.382907 
L 361.04738 155.109469 
L 361.168503 154.836031 
L 361.277494 154.562593 
L 361.37534 154.289155 
L 361.463844 154.015717 
L 361.545008 153.742279 
L 361.620514 153.468841 
L 361.691395 153.195403 
L 362.515752 153.195403 
L 362.515752 153.195403 
L 362.586633 153.468841 
L 362.662139 153.742279 
L 362.743303 154.015717 
L 362.831807 154.289155 
L 362.929653 154.562593 
L 363.038645 154.836031 
L 363.159767 155.109469 
L 363.292613 155.382907 
L 363.434999 155.656345 
L 363.582903 155.929783 
L 363.730776 156.203221 
L 363.872201 156.476659 
L 364.000755 156.750097 
L 364.110921 157.023536 
L 364.198838 157.296974 
L 364.262747 157.570412 
L 364.30308 157.84385 
L 364.322211 158.117288 
L 364.323957 158.390726 
L 364.312965 158.664164 
L 364.294086 158.937602 
L 364.271828 159.21104 
L 364.249925 159.484478 
L 364.231035 159.757916 
L 364.216586 160.031354 
L 364.206765 160.304792 
L 364.20067 160.57823 
L 364.196636 160.851668 
L 364.192678 161.125106 
L 364.187028 161.398545 
L 364.178647 161.671983 
L 364.167645 161.945421 
L 364.155532 162.218859 
L 364.145293 162.492297 
L 364.141304 162.765735 
L 364.149137 163.039173 
L 364.175318 163.312611 
L 364.227026 163.586049 
L 364.311755 163.859487 
L 364.436866 164.132925 
L 364.609023 164.406363 
L 364.833492 164.679801 
L 365.113364 164.953239 
L 365.448814 165.226677 
L 365.836506 165.500115 
L 366.269318 165.773554 
L 366.736462 166.046992 
L 367.224065 166.32043 
L 367.716172 166.593868 
L 368.19609 166.867306 
L 368.647885 167.140744 
L 369.057866 167.414182 
L 369.415821 167.68762 
L 369.71584 167.961058 
L 369.956601 168.234496 
L 370.14108 168.507934 
L 370.275719 168.781372 
L 370.369193 169.05481 
L 370.430921 169.328248 
L 370.469529 169.601686 
L 370.491442 169.875124 
L 370.499812 170.148563 
L 370.493932 170.422001 
L 370.469278 170.695439 
L 370.41823 170.968877 
L 370.331404 171.242315 
L 370.199377 171.515753 
L 370.014491 171.789191 
L 369.772349 172.062629 
L 369.472697 172.336067 
L 369.119534 172.609505 
L 368.720495 172.882943 
L 368.285729 173.156381 
L 367.826579 173.429819 
L 367.354368 173.703257 
L 366.879501 173.976695 
L 366.410945 174.250133 
L 365.956052 174.523572 
L 365.520639 174.79701 
L 365.10918 175.070448 
L 364.725035 175.343886 
L 364.370645 175.617324 
L 364.047657 175.890762 
L 363.756984 176.1642 
L 363.498816 176.437638 
L 363.272605 176.711076 
L 363.077072 176.984514 
L 362.91026 177.257952 
L 362.769658 177.53139 
L 362.652379 177.804828 
L 362.555376 178.078266 
L 362.475636 178.351704 
L 362.410341 178.625142 
L 362.356958 178.898581 
L 362.313277 179.172019 
L 362.277404 179.445457 
L 362.247736 179.718895 
L 362.22295 179.992333 
L 362.201987 180.265771 
z
" clip-path="url(#pa2beb90de6)" style="fill: #348abd; fill-opacity: 0.3"/>
   </g>
   <g id="PolyCollection_12">
    <path d="M 390.195301 178.133063 
L 389.986768 178.133063 
L 389.96229 177.88029 
L 389.932709 177.627517 
L 389.896603 177.374744 
L 389.852184 177.121971 
L 389.797277 176.869197 
L 389.729311 176.616424 
L 389.645336 176.363651 
L 389.542076 176.110878 
L 389.416046 175.858105 
L 389.263725 175.605332 
L 389.081779 175.352559 
L 388.867298 175.099786 
L 388.618015 174.847012 
L 388.332473 174.594239 
L 388.010138 174.341466 
L 387.65147 174.088693 
L 387.257982 173.83592 
L 386.832326 173.583147 
L 386.378434 173.330374 
L 385.901705 173.077601 
L 385.4092 172.824827 
L 384.909772 172.572054 
L 384.414005 172.319281 
L 383.93385 172.066508 
L 383.481878 171.813735 
L 383.070158 171.560962 
L 382.708911 171.308189 
L 382.405197 171.055416 
L 382.161955 170.802642 
L 381.977711 170.549869 
L 381.847092 170.297096 
L 381.762101 170.044323 
L 381.713915 169.79155 
L 381.694796 169.538777 
L 381.699738 169.286004 
L 381.72749 169.033231 
L 381.780814 168.780457 
L 381.865924 168.527684 
L 381.99128 168.274911 
L 382.16592 168.022138 
L 382.39764 167.769365 
L 382.691285 167.516592 
L 383.047443 167.263819 
L 383.461708 167.011046 
L 383.924658 166.758272 
L 384.42253 166.505499 
L 384.938478 166.252726 
L 385.454231 165.999953 
L 385.95187 165.74718 
L 386.415484 165.494407 
L 386.832463 165.241634 
L 387.194298 164.988861 
L 387.496806 164.736087 
L 387.739857 164.483314 
L 387.9267 164.230541 
L 388.063082 163.977768 
L 388.156327 163.724995 
L 388.214508 163.472222 
L 388.245807 163.219449 
L 388.258044 162.966676 
L 388.258345 162.713902 
L 388.252881 162.461129 
L 388.246631 162.208356 
L 388.24318 161.955583 
L 388.244579 161.70281 
L 388.251343 161.450037 
L 388.26261 161.197264 
L 388.276492 160.944491 
L 388.290539 160.691717 
L 388.302251 160.438944 
L 388.309534 160.186171 
L 388.311037 159.933398 
L 388.306336 159.680625 
L 388.295993 159.427852 
L 388.281527 159.175079 
L 388.265326 158.922306 
L 388.250532 158.669532 
L 388.24086 158.416759 
L 388.240344 158.163986 
L 388.252968 157.911213 
L 388.282197 157.65844 
L 388.330455 157.405667 
L 388.398648 157.152894 
L 388.48585 156.900121 
L 388.589254 156.647347 
L 388.704438 156.394574 
L 388.82593 156.141801 
L 388.947975 155.889028 
L 389.065339 155.636255 
L 389.173988 155.383482 
L 389.271509 155.130709 
L 389.357204 154.877936 
L 389.431883 154.625162 
L 389.497426 154.372389 
L 389.556241 154.119616 
L 389.61073 153.866843 
L 389.662855 153.61407 
L 389.713863 153.361297 
L 389.764185 153.108524 
L 390.417884 153.108524 
L 390.417884 153.108524 
L 390.468206 153.361297 
L 390.519214 153.61407 
L 390.571339 153.866843 
L 390.625828 154.119616 
L 390.684643 154.372389 
L 390.750186 154.625162 
L 390.824865 154.877936 
L 390.91056 155.130709 
L 391.008081 155.383482 
L 391.11673 155.636255 
L 391.234094 155.889028 
L 391.356139 156.141801 
L 391.477631 156.394574 
L 391.592815 156.647347 
L 391.696219 156.900121 
L 391.783421 157.152894 
L 391.851614 157.405667 
L 391.899872 157.65844 
L 391.929101 157.911213 
L 391.941725 158.163986 
L 391.941209 158.416759 
L 391.931537 158.669532 
L 391.916743 158.922306 
L 391.900542 159.175079 
L 391.886076 159.427852 
L 391.875733 159.680625 
L 391.871032 159.933398 
L 391.872534 160.186171 
L 391.879818 160.438944 
L 391.89153 160.691717 
L 391.905577 160.944491 
L 391.919459 161.197264 
L 391.930726 161.450037 
L 391.93749 161.70281 
L 391.938889 161.955583 
L 391.935438 162.208356 
L 391.929188 162.461129 
L 391.923724 162.713902 
L 391.924025 162.966676 
L 391.936262 163.219449 
L 391.967561 163.472222 
L 392.025742 163.724995 
L 392.118987 163.977768 
L 392.255369 164.230541 
L 392.442212 164.483314 
L 392.685263 164.736087 
L 392.987771 164.988861 
L 393.349606 165.241634 
L 393.766585 165.494407 
L 394.230199 165.74718 
L 394.727838 165.999953 
L 395.243591 166.252726 
L 395.759539 166.505499 
L 396.257411 166.758272 
L 396.720361 167.011046 
L 397.134626 167.263819 
L 397.490784 167.516592 
L 397.784429 167.769365 
L 398.016149 168.022138 
L 398.190789 168.274911 
L 398.316145 168.527684 
L 398.401255 168.780457 
L 398.454579 169.033231 
L 398.482331 169.286004 
L 398.487273 169.538777 
L 398.468154 169.79155 
L 398.419968 170.044323 
L 398.334977 170.297096 
L 398.204358 170.549869 
L 398.020114 170.802642 
L 397.776872 171.055416 
L 397.473157 171.308189 
L 397.111911 171.560962 
L 396.700191 171.813735 
L 396.248219 172.066508 
L 395.768064 172.319281 
L 395.272297 172.572054 
L 394.772869 172.824827 
L 394.280364 173.077601 
L 393.803635 173.330374 
L 393.349743 173.583147 
L 392.924087 173.83592 
L 392.530599 174.088693 
L 392.171931 174.341466 
L 391.849596 174.594239 
L 391.564054 174.847012 
L 391.314771 175.099786 
L 391.10029 175.352559 
L 390.918344 175.605332 
L 390.766023 175.858105 
L 390.639993 176.110878 
L 390.536733 176.363651 
L 390.452758 176.616424 
L 390.384792 176.869197 
L 390.329885 177.121971 
L 390.285466 177.374744 
L 390.24936 177.627517 
L 390.219779 177.88029 
L 390.195301 178.133063 
z
" clip-path="url(#pa2beb90de6)" style="fill: #348abd; fill-opacity: 0.3"/>
   </g>
   <g id="matplotlib.axis_1">
    <g id="xtick_1">
     <g id="line2d_1">
      <path d="M 82.228966 307.584 
L 82.228966 41.472 
" clip-path="url(#pa2beb90de6)" style="fill: none; stroke-dasharray: 1.85,0.8; stroke-dashoffset: 0; stroke: #b2b2b2; stroke-width: 0.5"/>
     </g>
     <g id="line2d_2">
      <defs>
       <path id="ma0b0dddd50" d="M 0 0 
L 0 -3.5 
" style="stroke: #000000; stroke-width: 0.8"/>
      </defs>
      <g>
       <use xlink:href="#ma0b0dddd50" x="82.228966" y="307.584" style="stroke: #000000; stroke-width: 0.8"/>
      </g>
     </g>
     <g id="text_1">
      <!-- 0 -->
      <g transform="translate(79.047716 318.682437) scale(0.1 -0.1)">
       <defs>
        <path id="DejaVuSans-30" d="M 2034 4250 
Q 1547 4250 1301 3770 
Q 1056 3291 1056 2328 
Q 1056 1369 1301 889 
Q 1547 409 2034 409 
Q 2525 409 2770 889 
Q 3016 1369 3016 2328 
Q 3016 3291 2770 3770 
Q 2525 4250 2034 4250 
z
M 2034 4750 
Q 2819 4750 3233 4129 
Q 3647 3509 3647 2328 
Q 3647 1150 3233 529 
Q 2819 -91 2034 -91 
Q 1250 -91 836 529 
Q 422 1150 422 2328 
Q 422 3509 836 4129 
Q 1250 4750 2034 4750 
z
" transform="scale(0.015625)"/>
       </defs>
       <use xlink:href="#DejaVuSans-30"/>
      </g>
     </g>
    </g>
    <g id="xtick_2">
     <g id="line2d_3">
      <path d="M 138.203887 307.584 
L 138.203887 41.472 
" clip-path="url(#pa2beb90de6)" style="fill: none; stroke-dasharray: 1.85,0.8; stroke-dashoffset: 0; stroke: #b2b2b2; stroke-width: 0.5"/>
     </g>
     <g id="line2d_4">
      <g>
       <use xlink:href="#ma0b0dddd50" x="138.203887" y="307.584" style="stroke: #000000; stroke-width: 0.8"/>
      </g>
     </g>
     <g id="text_2">
      <!-- 50 -->
      <g transform="translate(131.841387 318.682437) scale(0.1 -0.1)">
       <defs>
        <path id="DejaVuSans-35" d="M 691 4666 
L 3169 4666 
L 3169 4134 
L 1269 4134 
L 1269 2991 
Q 1406 3038 1543 3061 
Q 1681 3084 1819 3084 
Q 2600 3084 3056 2656 
Q 3513 2228 3513 1497 
Q 3513 744 3044 326 
Q 2575 -91 1722 -91 
Q 1428 -91 1123 -41 
Q 819 9 494 109 
L 494 744 
Q 775 591 1075 516 
Q 1375 441 1709 441 
Q 2250 441 2565 725 
Q 2881 1009 2881 1497 
Q 2881 1984 2565 2268 
Q 2250 2553 1709 2553 
Q 1456 2553 1204 2497 
Q 953 2441 691 2322 
L 691 4666 
z
" transform="scale(0.015625)"/>
       </defs>
       <use xlink:href="#DejaVuSans-35"/>
       <use xlink:href="#DejaVuSans-30" x="63.623047"/>
      </g>
     </g>
    </g>
    <g id="xtick_3">
     <g id="line2d_5">
      <path d="M 194.178809 307.584 
L 194.178809 41.472 
" clip-path="url(#pa2beb90de6)" style="fill: none; stroke-dasharray: 1.85,0.8; stroke-dashoffset: 0; stroke: #b2b2b2; stroke-width: 0.5"/>
     </g>
     <g id="line2d_6">
      <g>
       <use xlink:href="#ma0b0dddd50" x="194.178809" y="307.584" style="stroke: #000000; stroke-width: 0.8"/>
      </g>
     </g>
     <g id="text_3">
      <!-- 100 -->
      <g transform="translate(184.635059 318.682437) scale(0.1 -0.1)">
       <defs>
        <path id="DejaVuSans-31" d="M 794 531 
L 1825 531 
L 1825 4091 
L 703 3866 
L 703 4441 
L 1819 4666 
L 2450 4666 
L 2450 531 
L 3481 531 
L 3481 0 
L 794 0 
L 794 531 
z
" transform="scale(0.015625)"/>
       </defs>
       <use xlink:href="#DejaVuSans-31"/>
       <use xlink:href="#DejaVuSans-30" x="63.623047"/>
       <use xlink:href="#DejaVuSans-30" x="127.246094"/>
      </g>
     </g>
    </g>
    <g id="xtick_4">
     <g id="line2d_7">
      <path d="M 250.15373 307.584 
L 250.15373 41.472 
" clip-path="url(#pa2beb90de6)" style="fill: none; stroke-dasharray: 1.85,0.8; stroke-dashoffset: 0; stroke: #b2b2b2; stroke-width: 0.5"/>
     </g>
     <g id="line2d_8">
      <g>
       <use xlink:href="#ma0b0dddd50" x="250.15373" y="307.584" style="stroke: #000000; stroke-width: 0.8"/>
      </g>
     </g>
     <g id="text_4">
      <!-- 150 -->
      <g transform="translate(240.60998 318.682437) scale(0.1 -0.1)">
       <use xlink:href="#DejaVuSans-31"/>
       <use xlink:href="#DejaVuSans-35" x="63.623047"/>
       <use xlink:href="#DejaVuSans-30" x="127.246094"/>
      </g>
     </g>
    </g>
    <g id="xtick_5">
     <g id="line2d_9">
      <path d="M 306.128652 307.584 
L 306.128652 41.472 
" clip-path="url(#pa2beb90de6)" style="fill: none; stroke-dasharray: 1.85,0.8; stroke-dashoffset: 0; stroke: #b2b2b2; stroke-width: 0.5"/>
     </g>
     <g id="line2d_10">
      <g>
       <use xlink:href="#ma0b0dddd50" x="306.128652" y="307.584" style="stroke: #000000; stroke-width: 0.8"/>
      </g>
     </g>
     <g id="text_5">
      <!-- 200 -->
      <g transform="translate(296.584902 318.682437) scale(0.1 -0.1)">
       <defs>
        <path id="DejaVuSans-32" d="M 1228 531 
L 3431 531 
L 3431 0 
L 469 0 
L 469 531 
Q 828 903 1448 1529 
Q 2069 2156 2228 2338 
Q 2531 2678 2651 2914 
Q 2772 3150 2772 3378 
Q 2772 3750 2511 3984 
Q 2250 4219 1831 4219 
Q 1534 4219 1204 4116 
Q 875 4013 500 3803 
L 500 4441 
Q 881 4594 1212 4672 
Q 1544 4750 1819 4750 
Q 2544 4750 2975 4387 
Q 3406 4025 3406 3419 
Q 3406 3131 3298 2873 
Q 3191 2616 2906 2266 
Q 2828 2175 2409 1742 
Q 1991 1309 1228 531 
z
" transform="scale(0.015625)"/>
       </defs>
       <use xlink:href="#DejaVuSans-32"/>
       <use xlink:href="#DejaVuSans-30" x="63.623047"/>
       <use xlink:href="#DejaVuSans-30" x="127.246094"/>
      </g>
     </g>
    </g>
    <g id="xtick_6">
     <g id="line2d_11">
      <path d="M 362.103574 307.584 
L 362.103574 41.472 
" clip-path="url(#pa2beb90de6)" style="fill: none; stroke-dasharray: 1.85,0.8; stroke-dashoffset: 0; stroke: #b2b2b2; stroke-width: 0.5"/>
     </g>
     <g id="line2d_12">
      <g>
       <use xlink:href="#ma0b0dddd50" x="362.103574" y="307.584" style="stroke: #000000; stroke-width: 0.8"/>
      </g>
     </g>
     <g id="text_6">
      <!-- 250 -->
      <g transform="translate(352.559824 318.682437) scale(0.1 -0.1)">
       <use xlink:href="#DejaVuSans-32"/>
       <use xlink:href="#DejaVuSans-35" x="63.623047"/>
       <use xlink:href="#DejaVuSans-30" x="127.246094"/>
      </g>
     </g>
    </g>
    <g id="text_7">
     <!-- $s$ -->
     <g transform="translate(233.34 333.88025) scale(0.12 -0.12)">
      <defs>
       <path id="Cmmi10-73" d="M 556 391 
Q 728 97 1247 97 
Q 1472 97 1675 173 
Q 1878 250 2011 403 
Q 2144 556 2144 775 
Q 2144 941 2025 1047 
Q 1906 1153 1734 1191 
L 1388 1259 
Q 1150 1319 997 1481 
Q 844 1644 844 1875 
Q 844 2159 998 2378 
Q 1153 2597 1406 2712 
Q 1659 2828 1931 2828 
Q 2222 2828 2451 2689 
Q 2681 2550 2681 2278 
Q 2681 2131 2598 2018 
Q 2516 1906 2369 1906 
Q 2284 1906 2223 1961 
Q 2163 2016 2163 2100 
Q 2163 2175 2205 2245 
Q 2247 2316 2317 2358 
Q 2388 2400 2463 2400 
Q 2406 2538 2251 2600 
Q 2097 2663 1919 2663 
Q 1756 2663 1593 2597 
Q 1431 2531 1332 2404 
Q 1234 2278 1234 2106 
Q 1234 1991 1315 1903 
Q 1397 1816 1516 1778 
L 1888 1703 
Q 2066 1666 2214 1570 
Q 2363 1475 2448 1329 
Q 2534 1184 2534 997 
Q 2534 759 2401 528 
Q 2269 297 2075 159 
Q 1734 -72 1241 -72 
Q 900 -72 615 84 
Q 331 241 331 550 
Q 331 725 432 854 
Q 534 984 709 984 
Q 813 984 883 921 
Q 953 859 953 756 
Q 953 609 843 500 
Q 734 391 588 391 
L 556 391 
z
" transform="scale(0.015625)"/>
      </defs>
      <use xlink:href="#Cmmi10-73" transform="translate(0 0.8125)"/>
     </g>
    </g>
   </g>
   <g id="matplotlib.axis_2">
    <g id="ytick_1">
     <g id="line2d_13">
      <path d="M 57.6 271.296 
L 414.72 271.296 
" clip-path="url(#pa2beb90de6)" style="fill: none; stroke-dasharray: 1.85,0.8; stroke-dashoffset: 0; stroke: #b2b2b2; stroke-width: 0.5"/>
     </g>
     <g id="line2d_14">
      <defs>
       <path id="m96ca1bbfbd" d="M 0 0 
L 3.5 0 
" style="stroke: #000000; stroke-width: 0.8"/>
      </defs>
      <g>
       <use xlink:href="#m96ca1bbfbd" x="57.6" y="271.296" style="stroke: #000000; stroke-width: 0.8"/>
      </g>
     </g>
     <g id="text_8">
      <!-- 4 -->
      <g transform="translate(39.357813 275.095219) scale(0.1 -0.1)">
       <defs>
        <path id="DejaVuSans-2212" d="M 678 2272 
L 4684 2272 
L 4684 1741 
L 678 1741 
L 678 2272 
z
" transform="scale(0.015625)"/>
        <path id="DejaVuSans-34" d="M 2419 4116 
L 825 1625 
L 2419 1625 
L 2419 4116 
z
M 2253 4666 
L 3047 4666 
L 3047 1625 
L 3713 1625 
L 3713 1100 
L 3047 1100 
L 3047 0 
L 2419 0 
L 2419 1100 
L 313 1100 
L 313 1709 
L 2253 4666 
z
" transform="scale(0.015625)"/>
       </defs>
       <use xlink:href="#DejaVuSans-2212"/>
       <use xlink:href="#DejaVuSans-34" x="83.789062"/>
      </g>
     </g>
    </g>
    <g id="ytick_2">
     <g id="line2d_15">
      <path d="M 57.6 222.912 
L 414.72 222.912 
" clip-path="url(#pa2beb90de6)" style="fill: none; stroke-dasharray: 1.85,0.8; stroke-dashoffset: 0; stroke: #b2b2b2; stroke-width: 0.5"/>
     </g>
     <g id="line2d_16">
      <g>
       <use xlink:href="#m96ca1bbfbd" x="57.6" y="222.912" style="stroke: #000000; stroke-width: 0.8"/>
      </g>
     </g>
     <g id="text_9">
      <!-- 2 -->
      <g transform="translate(39.357813 226.711219) scale(0.1 -0.1)">
       <use xlink:href="#DejaVuSans-2212"/>
       <use xlink:href="#DejaVuSans-32" x="83.789062"/>
      </g>
     </g>
    </g>
    <g id="ytick_3">
     <g id="line2d_17">
      <path d="M 57.6 174.528 
L 414.72 174.528 
" clip-path="url(#pa2beb90de6)" style="fill: none; stroke-dasharray: 1.85,0.8; stroke-dashoffset: 0; stroke: #b2b2b2; stroke-width: 0.5"/>
     </g>
     <g id="line2d_18">
      <g>
       <use xlink:href="#m96ca1bbfbd" x="57.6" y="174.528" style="stroke: #000000; stroke-width: 0.8"/>
      </g>
     </g>
     <g id="text_10">
      <!-- 0 -->
      <g transform="translate(47.7375 178.327219) scale(0.1 -0.1)">
       <use xlink:href="#DejaVuSans-30"/>
      </g>
     </g>
    </g>
    <g id="ytick_4">
     <g id="line2d_19">
      <path d="M 57.6 126.144 
L 414.72 126.144 
" clip-path="url(#pa2beb90de6)" style="fill: none; stroke-dasharray: 1.85,0.8; stroke-dashoffset: 0; stroke: #b2b2b2; stroke-width: 0.5"/>
     </g>
     <g id="line2d_20">
      <g>
       <use xlink:href="#m96ca1bbfbd" x="57.6" y="126.144" style="stroke: #000000; stroke-width: 0.8"/>
      </g>
     </g>
     <g id="text_11">
      <!-- 2 -->
      <g transform="translate(47.7375 129.943219) scale(0.1 -0.1)">
       <use xlink:href="#DejaVuSans-32"/>
      </g>
     </g>
    </g>
    <g id="ytick_5">
     <g id="line2d_21">
      <path d="M 57.6 77.76 
L 414.72 77.76 
" clip-path="url(#pa2beb90de6)" style="fill: none; stroke-dasharray: 1.85,0.8; stroke-dashoffset: 0; stroke: #b2b2b2; stroke-width: 0.5"/>
     </g>
     <g id="line2d_22">
      <g>
       <use xlink:href="#m96ca1bbfbd" x="57.6" y="77.76" style="stroke: #000000; stroke-width: 0.8"/>
      </g>
     </g>
     <g id="text_12">
      <!-- 4 -->
      <g transform="translate(47.7375 81.559219) scale(0.1 -0.1)">
       <use xlink:href="#DejaVuSans-34"/>
      </g>
     </g>
    </g>
    <g id="text_13">
     <!-- $x_{s}$ -->
     <g transform="translate(32.862188 180.348) rotate(-90) scale(0.12 -0.12)">
      <defs>
       <path id="Cmmi10-78" d="M 500 184 
Q 613 97 819 97 
Q 1019 97 1172 289 
Q 1325 481 1381 709 
L 1672 1844 
Q 1741 2153 1741 2266 
Q 1741 2425 1652 2544 
Q 1563 2663 1403 2663 
Q 1200 2663 1022 2536 
Q 844 2409 722 2214 
Q 600 2019 550 1819 
Q 538 1778 500 1778 
L 422 1778 
Q 372 1778 372 1838 
L 372 1856 
Q 434 2094 584 2320 
Q 734 2547 951 2687 
Q 1169 2828 1416 2828 
Q 1650 2828 1839 2703 
Q 2028 2578 2106 2363 
Q 2216 2559 2386 2693 
Q 2556 2828 2759 2828 
Q 2897 2828 3040 2779 
Q 3184 2731 3275 2631 
Q 3366 2531 3366 2381 
Q 3366 2219 3261 2101 
Q 3156 1984 2994 1984 
Q 2891 1984 2822 2050 
Q 2753 2116 2753 2216 
Q 2753 2350 2845 2451 
Q 2938 2553 3066 2572 
Q 2950 2663 2747 2663 
Q 2541 2663 2389 2472 
Q 2238 2281 2175 2047 
L 1894 916 
Q 1825 659 1825 494 
Q 1825 331 1917 214 
Q 2009 97 2163 97 
Q 2463 97 2698 361 
Q 2934 625 3009 941 
Q 3022 978 3059 978 
L 3138 978 
Q 3163 978 3178 961 
Q 3194 944 3194 922 
Q 3194 916 3188 903 
Q 3097 522 2806 225 
Q 2516 -72 2150 -72 
Q 1916 -72 1727 54 
Q 1538 181 1459 397 
Q 1359 209 1182 68 
Q 1006 -72 806 -72 
Q 669 -72 523 -23 
Q 378 25 287 125 
Q 197 225 197 378 
Q 197 528 301 651 
Q 406 775 563 775 
Q 669 775 741 711 
Q 813 647 813 544 
Q 813 409 723 309 
Q 634 209 500 184 
z
" transform="scale(0.015625)"/>
      </defs>
      <use xlink:href="#Cmmi10-78" transform="translate(0 0.8125)"/>
      <use xlink:href="#Cmmi10-73" transform="translate(57.080078 -16.19375) scale(0.7)"/>
     </g>
    </g>
   </g>
   <g id="LineCollection_1">
    <path d="M 78.030846 106.287241 
L 86.427085 106.287241 
" clip-path="url(#pa2beb90de6)" style="fill: none; stroke: #348abd; stroke-width: 2"/>
    <path d="M 106.018307 122.03178 
L 114.414545 122.03178 
" clip-path="url(#pa2beb90de6)" style="fill: none; stroke: #348abd; stroke-width: 2"/>
    <path d="M 134.005768 135.728943 
L 142.402006 135.728943 
" clip-path="url(#pa2beb90de6)" style="fill: none; stroke: #348abd; stroke-width: 2"/>
    <path d="M 161.993229 144.121186 
L 170.389467 144.121186 
" clip-path="url(#pa2beb90de6)" style="fill: none; stroke: #348abd; stroke-width: 2"/>
    <path d="M 189.98069 148.579199 
L 198.376928 148.579199 
" clip-path="url(#pa2beb90de6)" style="fill: none; stroke: #348abd; stroke-width: 2"/>
    <path d="M 217.96815 150.854899 
L 226.364389 150.854899 
" clip-path="url(#pa2beb90de6)" style="fill: none; stroke: #348abd; stroke-width: 2"/>
    <path d="M 245.955611 151.919882 
L 254.35185 151.919882 
" clip-path="url(#pa2beb90de6)" style="fill: none; stroke: #348abd; stroke-width: 2"/>
    <path d="M 273.943072 152.542738 
L 282.33931 152.542738 
" clip-path="url(#pa2beb90de6)" style="fill: none; stroke: #348abd; stroke-width: 2"/>
    <path d="M 301.930533 152.938831 
L 310.326771 152.938831 
" clip-path="url(#pa2beb90de6)" style="fill: none; stroke: #348abd; stroke-width: 2"/>
    <path d="M 329.917994 153.146439 
L 338.314232 153.146439 
" clip-path="url(#pa2beb90de6)" style="fill: none; stroke: #348abd; stroke-width: 2"/>
    <path d="M 357.905455 153.195403 
L 366.301693 153.195403 
" clip-path="url(#pa2beb90de6)" style="fill: none; stroke: #348abd; stroke-width: 2"/>
    <path d="M 385.892915 153.108524 
L 394.289154 153.108524 
" clip-path="url(#pa2beb90de6)" style="fill: none; stroke: #348abd; stroke-width: 2"/>
   </g>
   <g id="LineCollection_2">
    <path d="M 78.030846 261.630648 
L 86.427085 261.630648 
" clip-path="url(#pa2beb90de6)" style="fill: none; stroke: #348abd; stroke-width: 2"/>
    <path d="M 106.018307 240.190455 
L 114.414545 240.190455 
" clip-path="url(#pa2beb90de6)" style="fill: none; stroke: #348abd; stroke-width: 2"/>
    <path d="M 134.005768 225.319736 
L 142.402006 225.319736 
" clip-path="url(#pa2beb90de6)" style="fill: none; stroke: #348abd; stroke-width: 2"/>
    <path d="M 161.993229 214.047908 
L 170.389467 214.047908 
" clip-path="url(#pa2beb90de6)" style="fill: none; stroke: #348abd; stroke-width: 2"/>
    <path d="M 189.98069 205.270719 
L 198.376928 205.270719 
" clip-path="url(#pa2beb90de6)" style="fill: none; stroke: #348abd; stroke-width: 2"/>
    <path d="M 217.96815 198.494976 
L 226.364389 198.494976 
" clip-path="url(#pa2beb90de6)" style="fill: none; stroke: #348abd; stroke-width: 2"/>
    <path d="M 245.955611 193.183079 
L 254.35185 193.183079 
" clip-path="url(#pa2beb90de6)" style="fill: none; stroke: #348abd; stroke-width: 2"/>
    <path d="M 273.943072 188.935936 
L 282.33931 188.935936 
" clip-path="url(#pa2beb90de6)" style="fill: none; stroke: #348abd; stroke-width: 2"/>
    <path d="M 301.930533 185.484186 
L 310.326771 185.484186 
" clip-path="url(#pa2beb90de6)" style="fill: none; stroke: #348abd; stroke-width: 2"/>
    <path d="M 329.917994 182.645094 
L 338.314232 182.645094 
" clip-path="url(#pa2beb90de6)" style="fill: none; stroke: #348abd; stroke-width: 2"/>
    <path d="M 357.905455 180.265771 
L 366.301693 180.265771 
" clip-path="url(#pa2beb90de6)" style="fill: none; stroke: #348abd; stroke-width: 2"/>
    <path d="M 385.892915 178.133063 
L 394.289154 178.133063 
" clip-path="url(#pa2beb90de6)" style="fill: none; stroke: #348abd; stroke-width: 2"/>
   </g>
   <g id="LineCollection_3">
    <path d="M 82.228966 261.630648 
L 82.228966 106.287241 
" clip-path="url(#pa2beb90de6)" style="fill: none; stroke: #348abd; stroke-width: 2"/>
    <path d="M 110.216426 240.190455 
L 110.216426 122.03178 
" clip-path="url(#pa2beb90de6)" style="fill: none; stroke: #348abd; stroke-width: 2"/>
    <path d="M 138.203887 225.319736 
L 138.203887 135.728943 
" clip-path="url(#pa2beb90de6)" style="fill: none; stroke: #348abd; stroke-width: 2"/>
    <path d="M 166.191348 214.047908 
L 166.191348 144.121186 
" clip-path="url(#pa2beb90de6)" style="fill: none; stroke: #348abd; stroke-width: 2"/>
    <path d="M 194.178809 205.270719 
L 194.178809 148.579199 
" clip-path="url(#pa2beb90de6)" style="fill: none; stroke: #348abd; stroke-width: 2"/>
    <path d="M 222.16627 198.494976 
L 222.16627 150.854899 
" clip-path="url(#pa2beb90de6)" style="fill: none; stroke: #348abd; stroke-width: 2"/>
    <path d="M 250.15373 193.183079 
L 250.15373 151.919882 
" clip-path="url(#pa2beb90de6)" style="fill: none; stroke: #348abd; stroke-width: 2"/>
    <path d="M 278.141191 188.935936 
L 278.141191 152.542738 
" clip-path="url(#pa2beb90de6)" style="fill: none; stroke: #348abd; stroke-width: 2"/>
    <path d="M 306.128652 185.484186 
L 306.128652 152.938831 
" clip-path="url(#pa2beb90de6)" style="fill: none; stroke: #348abd; stroke-width: 2"/>
    <path d="M 334.116113 182.645094 
L 334.116113 153.146439 
" clip-path="url(#pa2beb90de6)" style="fill: none; stroke: #348abd; stroke-width: 2"/>
    <path d="M 362.103574 180.265771 
L 362.103574 153.195403 
" clip-path="url(#pa2beb90de6)" style="fill: none; stroke: #348abd; stroke-width: 2"/>
    <path d="M 390.091034 178.133063 
L 390.091034 153.108524 
" clip-path="url(#pa2beb90de6)" style="fill: none; stroke: #348abd; stroke-width: 2"/>
   </g>
   <g id="LineCollection_4">
    <path d="M 241.197743 295.488 
L 241.197743 53.568 
" clip-path="url(#pa2beb90de6)" style="fill: none; stroke-dasharray: 7.4,3.2; stroke-dashoffset: 0; stroke: #ff0000; stroke-width: 2"/>
   </g>
   <g id="patch_3">
    <path d="M 57.6 307.584 
L 57.6 41.472 
" style="fill: none; stroke: #bcbcbc; stroke-width: 0.8; stroke-linejoin: miter; stroke-linecap: square"/>
   </g>
   <g id="patch_4">
    <path d="M 414.72 307.584 
L 414.72 41.472 
" style="fill: none; stroke: #bcbcbc; stroke-width: 0.8; stroke-linejoin: miter; stroke-linecap: square"/>
   </g>
   <g id="patch_5">
    <path d="M 57.6 307.584 
L 414.72 307.584 
" style="fill: none; stroke: #bcbcbc; stroke-width: 0.8; stroke-linejoin: miter; stroke-linecap: square"/>
   </g>
   <g id="patch_6">
    <path d="M 57.6 41.472 
L 414.72 41.472 
" style="fill: none; stroke: #bcbcbc; stroke-width: 0.8; stroke-linejoin: miter; stroke-linecap: square"/>
   </g>
   <g id="text_14">
    <!-- Violin plot of critical time n = 1000 -->
    <g transform="translate(110.370375 35.472) scale(0.144 -0.144)">
     <defs>
      <path id="DejaVuSans-56" d="M 1831 0 
L 50 4666 
L 709 4666 
L 2188 738 
L 3669 4666 
L 4325 4666 
L 2547 0 
L 1831 0 
z
" transform="scale(0.015625)"/>
      <path id="DejaVuSans-69" d="M 603 3500 
L 1178 3500 
L 1178 0 
L 603 0 
L 603 3500 
z
M 603 4863 
L 1178 4863 
L 1178 4134 
L 603 4134 
L 603 4863 
z
" transform="scale(0.015625)"/>
      <path id="DejaVuSans-6f" d="M 1959 3097 
Q 1497 3097 1228 2736 
Q 959 2375 959 1747 
Q 959 1119 1226 758 
Q 1494 397 1959 397 
Q 2419 397 2687 759 
Q 2956 1122 2956 1747 
Q 2956 2369 2687 2733 
Q 2419 3097 1959 3097 
z
M 1959 3584 
Q 2709 3584 3137 3096 
Q 3566 2609 3566 1747 
Q 3566 888 3137 398 
Q 2709 -91 1959 -91 
Q 1206 -91 779 398 
Q 353 888 353 1747 
Q 353 2609 779 3096 
Q 1206 3584 1959 3584 
z
" transform="scale(0.015625)"/>
      <path id="DejaVuSans-6c" d="M 603 4863 
L 1178 4863 
L 1178 0 
L 603 0 
L 603 4863 
z
" transform="scale(0.015625)"/>
      <path id="DejaVuSans-6e" d="M 3513 2113 
L 3513 0 
L 2938 0 
L 2938 2094 
Q 2938 2591 2744 2837 
Q 2550 3084 2163 3084 
Q 1697 3084 1428 2787 
Q 1159 2491 1159 1978 
L 1159 0 
L 581 0 
L 581 3500 
L 1159 3500 
L 1159 2956 
Q 1366 3272 1645 3428 
Q 1925 3584 2291 3584 
Q 2894 3584 3203 3211 
Q 3513 2838 3513 2113 
z
" transform="scale(0.015625)"/>
      <path id="DejaVuSans-20" transform="scale(0.015625)"/>
      <path id="DejaVuSans-70" d="M 1159 525 
L 1159 -1331 
L 581 -1331 
L 581 3500 
L 1159 3500 
L 1159 2969 
Q 1341 3281 1617 3432 
Q 1894 3584 2278 3584 
Q 2916 3584 3314 3078 
Q 3713 2572 3713 1747 
Q 3713 922 3314 415 
Q 2916 -91 2278 -91 
Q 1894 -91 1617 61 
Q 1341 213 1159 525 
z
M 3116 1747 
Q 3116 2381 2855 2742 
Q 2594 3103 2138 3103 
Q 1681 3103 1420 2742 
Q 1159 2381 1159 1747 
Q 1159 1113 1420 752 
Q 1681 391 2138 391 
Q 2594 391 2855 752 
Q 3116 1113 3116 1747 
z
" transform="scale(0.015625)"/>
      <path id="DejaVuSans-74" d="M 1172 4494 
L 1172 3500 
L 2356 3500 
L 2356 3053 
L 1172 3053 
L 1172 1153 
Q 1172 725 1289 603 
Q 1406 481 1766 481 
L 2356 481 
L 2356 0 
L 1766 0 
Q 1100 0 847 248 
Q 594 497 594 1153 
L 594 3053 
L 172 3053 
L 172 3500 
L 594 3500 
L 594 4494 
L 1172 4494 
z
" transform="scale(0.015625)"/>
      <path id="DejaVuSans-66" d="M 2375 4863 
L 2375 4384 
L 1825 4384 
Q 1516 4384 1395 4259 
Q 1275 4134 1275 3809 
L 1275 3500 
L 2222 3500 
L 2222 3053 
L 1275 3053 
L 1275 0 
L 697 0 
L 697 3053 
L 147 3053 
L 147 3500 
L 697 3500 
L 697 3744 
Q 697 4328 969 4595 
Q 1241 4863 1831 4863 
L 2375 4863 
z
" transform="scale(0.015625)"/>
      <path id="DejaVuSans-63" d="M 3122 3366 
L 3122 2828 
Q 2878 2963 2633 3030 
Q 2388 3097 2138 3097 
Q 1578 3097 1268 2742 
Q 959 2388 959 1747 
Q 959 1106 1268 751 
Q 1578 397 2138 397 
Q 2388 397 2633 464 
Q 2878 531 3122 666 
L 3122 134 
Q 2881 22 2623 -34 
Q 2366 -91 2075 -91 
Q 1284 -91 818 406 
Q 353 903 353 1747 
Q 353 2603 823 3093 
Q 1294 3584 2113 3584 
Q 2378 3584 2631 3529 
Q 2884 3475 3122 3366 
z
" transform="scale(0.015625)"/>
      <path id="DejaVuSans-72" d="M 2631 2963 
Q 2534 3019 2420 3045 
Q 2306 3072 2169 3072 
Q 1681 3072 1420 2755 
Q 1159 2438 1159 1844 
L 1159 0 
L 581 0 
L 581 3500 
L 1159 3500 
L 1159 2956 
Q 1341 3275 1631 3429 
Q 1922 3584 2338 3584 
Q 2397 3584 2469 3576 
Q 2541 3569 2628 3553 
L 2631 2963 
z
" transform="scale(0.015625)"/>
      <path id="DejaVuSans-61" d="M 2194 1759 
Q 1497 1759 1228 1600 
Q 959 1441 959 1056 
Q 959 750 1161 570 
Q 1363 391 1709 391 
Q 2188 391 2477 730 
Q 2766 1069 2766 1631 
L 2766 1759 
L 2194 1759 
z
M 3341 1997 
L 3341 0 
L 2766 0 
L 2766 531 
Q 2569 213 2275 61 
Q 1981 -91 1556 -91 
Q 1019 -91 701 211 
Q 384 513 384 1019 
Q 384 1609 779 1909 
Q 1175 2209 1959 2209 
L 2766 2209 
L 2766 2266 
Q 2766 2663 2505 2880 
Q 2244 3097 1772 3097 
Q 1472 3097 1187 3025 
Q 903 2953 641 2809 
L 641 3341 
Q 956 3463 1253 3523 
Q 1550 3584 1831 3584 
Q 2591 3584 2966 3190 
Q 3341 2797 3341 1997 
z
" transform="scale(0.015625)"/>
      <path id="DejaVuSans-6d" d="M 3328 2828 
Q 3544 3216 3844 3400 
Q 4144 3584 4550 3584 
Q 5097 3584 5394 3201 
Q 5691 2819 5691 2113 
L 5691 0 
L 5113 0 
L 5113 2094 
Q 5113 2597 4934 2840 
Q 4756 3084 4391 3084 
Q 3944 3084 3684 2787 
Q 3425 2491 3425 1978 
L 3425 0 
L 2847 0 
L 2847 2094 
Q 2847 2600 2669 2842 
Q 2491 3084 2119 3084 
Q 1678 3084 1418 2786 
Q 1159 2488 1159 1978 
L 1159 0 
L 581 0 
L 581 3500 
L 1159 3500 
L 1159 2956 
Q 1356 3278 1631 3431 
Q 1906 3584 2284 3584 
Q 2666 3584 2933 3390 
Q 3200 3197 3328 2828 
z
" transform="scale(0.015625)"/>
      <path id="DejaVuSans-65" d="M 3597 1894 
L 3597 1613 
L 953 1613 
Q 991 1019 1311 708 
Q 1631 397 2203 397 
Q 2534 397 2845 478 
Q 3156 559 3463 722 
L 3463 178 
Q 3153 47 2828 -22 
Q 2503 -91 2169 -91 
Q 1331 -91 842 396 
Q 353 884 353 1716 
Q 353 2575 817 3079 
Q 1281 3584 2069 3584 
Q 2775 3584 3186 3129 
Q 3597 2675 3597 1894 
z
M 3022 2063 
Q 3016 2534 2758 2815 
Q 2500 3097 2075 3097 
Q 1594 3097 1305 2825 
Q 1016 2553 972 2059 
L 3022 2063 
z
" transform="scale(0.015625)"/>
      <path id="DejaVuSans-3d" d="M 678 2906 
L 4684 2906 
L 4684 2381 
L 678 2381 
L 678 2906 
z
M 678 1631 
L 4684 1631 
L 4684 1100 
L 678 1100 
L 678 1631 
z
" transform="scale(0.015625)"/>
     </defs>
     <use xlink:href="#DejaVuSans-56"/>
     <use xlink:href="#DejaVuSans-69" x="66.158203"/>
     <use xlink:href="#DejaVuSans-6f" x="93.941406"/>
     <use xlink:href="#DejaVuSans-6c" x="155.123047"/>
     <use xlink:href="#DejaVuSans-69" x="182.90625"/>
     <use xlink:href="#DejaVuSans-6e" x="210.689453"/>
     <use xlink:href="#DejaVuSans-20" x="274.068359"/>
     <use xlink:href="#DejaVuSans-70" x="305.855469"/>
     <use xlink:href="#DejaVuSans-6c" x="369.332031"/>
     <use xlink:href="#DejaVuSans-6f" x="397.115234"/>
     <use xlink:href="#DejaVuSans-74" x="458.296875"/>
     <use xlink:href="#DejaVuSans-20" x="497.505859"/>
     <use xlink:href="#DejaVuSans-6f" x="529.292969"/>
     <use xlink:href="#DejaVuSans-66" x="590.474609"/>
     <use xlink:href="#DejaVuSans-20" x="625.679688"/>
     <use xlink:href="#DejaVuSans-63" x="657.466797"/>
     <use xlink:href="#DejaVuSans-72" x="712.447266"/>
     <use xlink:href="#DejaVuSans-69" x="753.560547"/>
     <use xlink:href="#DejaVuSans-74" x="781.34375"/>
     <use xlink:href="#DejaVuSans-69" x="820.552734"/>
     <use xlink:href="#DejaVuSans-63" x="848.335938"/>
     <use xlink:href="#DejaVuSans-61" x="903.316406"/>
     <use xlink:href="#DejaVuSans-6c" x="964.595703"/>
     <use xlink:href="#DejaVuSans-20" x="992.378906"/>
     <use xlink:href="#DejaVuSans-74" x="1024.166016"/>
     <use xlink:href="#DejaVuSans-69" x="1063.375"/>
     <use xlink:href="#DejaVuSans-6d" x="1091.158203"/>
     <use xlink:href="#DejaVuSans-65" x="1188.570312"/>
     <use xlink:href="#DejaVuSans-20" x="1250.09375"/>
     <use xlink:href="#DejaVuSans-6e" x="1281.880859"/>
     <use xlink:href="#DejaVuSans-20" x="1345.259766"/>
     <use xlink:href="#DejaVuSans-3d" x="1377.046875"/>
     <use xlink:href="#DejaVuSans-20" x="1460.835938"/>
     <use xlink:href="#DejaVuSans-31" x="1492.623047"/>
     <use xlink:href="#DejaVuSans-30" x="1556.246094"/>
     <use xlink:href="#DejaVuSans-30" x="1619.869141"/>
     <use xlink:href="#DejaVuSans-30" x="1683.492188"/>
    </g>
   </g>
   <g id="legend_1">
    <g id="patch_7">
     <path d="M 401.52 57.072 
L 406.32 57.072 
Q 408.72 57.072 408.72 54.672 
L 408.72 49.872 
Q 408.72 47.472 406.32 47.472 
L 401.52 47.472 
Q 399.12 47.472 399.12 49.872 
L 399.12 54.672 
Q 399.12 57.072 401.52 57.072 
z
" style="fill: #eeeeee; opacity: 0.8; stroke: #cccccc; stroke-width: 0.5; stroke-linejoin: miter"/>
    </g>
   </g>
  </g>
 </g>
 <defs>
  <clipPath id="pa2beb90de6">
   <rect x="57.6" y="41.472" width="357.12" height="266.112"/>
  </clipPath>
 </defs>
</svg>
