<?xml version="1.0" encoding="utf-8" standalone="no"?>
<!DOCTYPE svg PUBLIC "-//W3C//DTD SVG 1.1//EN"
  "http://www.w3.org/Graphics/SVG/1.1/DTD/svg11.dtd">
<svg xmlns:xlink="http://www.w3.org/1999/xlink" width="460.8pt" height="345.6pt" viewBox="0 0 460.8 345.6" xmlns="http://www.w3.org/2000/svg" version="1.1">
 <metadata>
  <rdf:RDF xmlns:dc="http://purl.org/dc/elements/1.1/" xmlns:cc="http://creativecommons.org/ns#" xmlns:rdf="http://www.w3.org/1999/02/22-rdf-syntax-ns#">
   <cc:Work>
    <dc:type rdf:resource="http://purl.org/dc/dcmitype/StillImage"/>
    <dc:date>2025-08-22T10:54:11.870277</dc:date>
    <dc:format>image/svg+xml</dc:format>
    <dc:creator>
     <cc:Agent>
      <dc:title>Matplotlib v3.9.2, https://matplotlib.org/</dc:title>
     </cc:Agent>
    </dc:creator>
   </cc:Work>
  </rdf:RDF>
 </metadata>
 <defs>
  <style type="text/css">*{stroke-linejoin: round; stroke-linecap: butt}</style>
 </defs>
 <g id="figure_1">
  <g id="patch_1">
   <path d="M 0 345.6 
L 460.8 345.6 
L 460.8 0 
L 0 0 
z
" style="fill: #ffffff"/>
  </g>
  <g id="axes_1">
   <g id="patch_2">
    <path d="M 57.6 307.584 
L 414.72 307.584 
L 414.72 41.472 
L 57.6 41.472 
z
" style="fill: #eeeeee"/>
   </g>
   <g id="matplotlib.axis_1">
    <g id="xtick_1">
     <g id="line2d_1">
      <path d="M 73.832727 307.584 
L 73.832727 41.472 
" clip-path="url(#p827ace09bf)" style="fill: none; stroke-dasharray: 1.85,0.8; stroke-dashoffset: 0; stroke: #b2b2b2; stroke-width: 0.5"/>
     </g>
     <g id="line2d_2">
      <defs>
       <path id="mf9f2c9f220" d="M 0 0 
L 0 -3.5 
" style="stroke: #000000; stroke-width: 0.8"/>
      </defs>
      <g>
       <use xlink:href="#mf9f2c9f220" x="73.832727" y="307.584" style="stroke: #000000; stroke-width: 0.8"/>
      </g>
     </g>
     <g id="text_1">
      <!-- 0 -->
      <g transform="translate(70.651477 318.682437) scale(0.1 -0.1)">
       <defs>
        <path id="DejaVuSans-30" d="M 2034 4250 
Q 1547 4250 1301 3770 
Q 1056 3291 1056 2328 
Q 1056 1369 1301 889 
Q 1547 409 2034 409 
Q 2525 409 2770 889 
Q 3016 1369 3016 2328 
Q 3016 3291 2770 3770 
Q 2525 4250 2034 4250 
z
M 2034 4750 
Q 2819 4750 3233 4129 
Q 3647 3509 3647 2328 
Q 3647 1150 3233 529 
Q 2819 -91 2034 -91 
Q 1250 -91 836 529 
Q 422 1150 422 2328 
Q 422 3509 836 4129 
Q 1250 4750 2034 4750 
z
" transform="scale(0.015625)"/>
       </defs>
       <use xlink:href="#DejaVuSans-30"/>
      </g>
     </g>
    </g>
    <g id="xtick_2">
     <g id="line2d_3">
      <path d="M 128.122785 307.584 
L 128.122785 41.472 
" clip-path="url(#p827ace09bf)" style="fill: none; stroke-dasharray: 1.85,0.8; stroke-dashoffset: 0; stroke: #b2b2b2; stroke-width: 0.5"/>
     </g>
     <g id="line2d_4">
      <g>
       <use xlink:href="#mf9f2c9f220" x="128.122785" y="307.584" style="stroke: #000000; stroke-width: 0.8"/>
      </g>
     </g>
     <g id="text_2">
      <!-- 50 -->
      <g transform="translate(121.760285 318.682437) scale(0.1 -0.1)">
       <defs>
        <path id="DejaVuSans-35" d="M 691 4666 
L 3169 4666 
L 3169 4134 
L 1269 4134 
L 1269 2991 
Q 1406 3038 1543 3061 
Q 1681 3084 1819 3084 
Q 2600 3084 3056 2656 
Q 3513 2228 3513 1497 
Q 3513 744 3044 326 
Q 2575 -91 1722 -91 
Q 1428 -91 1123 -41 
Q 819 9 494 109 
L 494 744 
Q 775 591 1075 516 
Q 1375 441 1709 441 
Q 2250 441 2565 725 
Q 2881 1009 2881 1497 
Q 2881 1984 2565 2268 
Q 2250 2553 1709 2553 
Q 1456 2553 1204 2497 
Q 953 2441 691 2322 
L 691 4666 
z
" transform="scale(0.015625)"/>
       </defs>
       <use xlink:href="#DejaVuSans-35"/>
       <use xlink:href="#DejaVuSans-30" x="63.623047"/>
      </g>
     </g>
    </g>
    <g id="xtick_3">
     <g id="line2d_5">
      <path d="M 182.412843 307.584 
L 182.412843 41.472 
" clip-path="url(#p827ace09bf)" style="fill: none; stroke-dasharray: 1.85,0.8; stroke-dashoffset: 0; stroke: #b2b2b2; stroke-width: 0.5"/>
     </g>
     <g id="line2d_6">
      <g>
       <use xlink:href="#mf9f2c9f220" x="182.412843" y="307.584" style="stroke: #000000; stroke-width: 0.8"/>
      </g>
     </g>
     <g id="text_3">
      <!-- 100 -->
      <g transform="translate(172.869093 318.682437) scale(0.1 -0.1)">
       <defs>
        <path id="DejaVuSans-31" d="M 794 531 
L 1825 531 
L 1825 4091 
L 703 3866 
L 703 4441 
L 1819 4666 
L 2450 4666 
L 2450 531 
L 3481 531 
L 3481 0 
L 794 0 
L 794 531 
z
" transform="scale(0.015625)"/>
       </defs>
       <use xlink:href="#DejaVuSans-31"/>
       <use xlink:href="#DejaVuSans-30" x="63.623047"/>
       <use xlink:href="#DejaVuSans-30" x="127.246094"/>
      </g>
     </g>
    </g>
    <g id="xtick_4">
     <g id="line2d_7">
      <path d="M 236.702901 307.584 
L 236.702901 41.472 
" clip-path="url(#p827ace09bf)" style="fill: none; stroke-dasharray: 1.85,0.8; stroke-dashoffset: 0; stroke: #b2b2b2; stroke-width: 0.5"/>
     </g>
     <g id="line2d_8">
      <g>
       <use xlink:href="#mf9f2c9f220" x="236.702901" y="307.584" style="stroke: #000000; stroke-width: 0.8"/>
      </g>
     </g>
     <g id="text_4">
      <!-- 150 -->
      <g transform="translate(227.159151 318.682437) scale(0.1 -0.1)">
       <use xlink:href="#DejaVuSans-31"/>
       <use xlink:href="#DejaVuSans-35" x="63.623047"/>
       <use xlink:href="#DejaVuSans-30" x="127.246094"/>
      </g>
     </g>
    </g>
    <g id="xtick_5">
     <g id="line2d_9">
      <path d="M 290.992958 307.584 
L 290.992958 41.472 
" clip-path="url(#p827ace09bf)" style="fill: none; stroke-dasharray: 1.85,0.8; stroke-dashoffset: 0; stroke: #b2b2b2; stroke-width: 0.5"/>
     </g>
     <g id="line2d_10">
      <g>
       <use xlink:href="#mf9f2c9f220" x="290.992958" y="307.584" style="stroke: #000000; stroke-width: 0.8"/>
      </g>
     </g>
     <g id="text_5">
      <!-- 200 -->
      <g transform="translate(281.449208 318.682437) scale(0.1 -0.1)">
       <defs>
        <path id="DejaVuSans-32" d="M 1228 531 
L 3431 531 
L 3431 0 
L 469 0 
L 469 531 
Q 828 903 1448 1529 
Q 2069 2156 2228 2338 
Q 2531 2678 2651 2914 
Q 2772 3150 2772 3378 
Q 2772 3750 2511 3984 
Q 2250 4219 1831 4219 
Q 1534 4219 1204 4116 
Q 875 4013 500 3803 
L 500 4441 
Q 881 4594 1212 4672 
Q 1544 4750 1819 4750 
Q 2544 4750 2975 4387 
Q 3406 4025 3406 3419 
Q 3406 3131 3298 2873 
Q 3191 2616 2906 2266 
Q 2828 2175 2409 1742 
Q 1991 1309 1228 531 
z
" transform="scale(0.015625)"/>
       </defs>
       <use xlink:href="#DejaVuSans-32"/>
       <use xlink:href="#DejaVuSans-30" x="63.623047"/>
       <use xlink:href="#DejaVuSans-30" x="127.246094"/>
      </g>
     </g>
    </g>
    <g id="xtick_6">
     <g id="line2d_11">
      <path d="M 345.283016 307.584 
L 345.283016 41.472 
" clip-path="url(#p827ace09bf)" style="fill: none; stroke-dasharray: 1.85,0.8; stroke-dashoffset: 0; stroke: #b2b2b2; stroke-width: 0.5"/>
     </g>
     <g id="line2d_12">
      <g>
       <use xlink:href="#mf9f2c9f220" x="345.283016" y="307.584" style="stroke: #000000; stroke-width: 0.8"/>
      </g>
     </g>
     <g id="text_6">
      <!-- 250 -->
      <g transform="translate(335.739266 318.682437) scale(0.1 -0.1)">
       <use xlink:href="#DejaVuSans-32"/>
       <use xlink:href="#DejaVuSans-35" x="63.623047"/>
       <use xlink:href="#DejaVuSans-30" x="127.246094"/>
      </g>
     </g>
    </g>
    <g id="xtick_7">
     <g id="line2d_13">
      <path d="M 399.573074 307.584 
L 399.573074 41.472 
" clip-path="url(#p827ace09bf)" style="fill: none; stroke-dasharray: 1.85,0.8; stroke-dashoffset: 0; stroke: #b2b2b2; stroke-width: 0.5"/>
     </g>
     <g id="line2d_14">
      <g>
       <use xlink:href="#mf9f2c9f220" x="399.573074" y="307.584" style="stroke: #000000; stroke-width: 0.8"/>
      </g>
     </g>
     <g id="text_7">
      <!-- 300 -->
      <g transform="translate(390.029324 318.682437) scale(0.1 -0.1)">
       <defs>
        <path id="DejaVuSans-33" d="M 2597 2516 
Q 3050 2419 3304 2112 
Q 3559 1806 3559 1356 
Q 3559 666 3084 287 
Q 2609 -91 1734 -91 
Q 1441 -91 1130 -33 
Q 819 25 488 141 
L 488 750 
Q 750 597 1062 519 
Q 1375 441 1716 441 
Q 2309 441 2620 675 
Q 2931 909 2931 1356 
Q 2931 1769 2642 2001 
Q 2353 2234 1838 2234 
L 1294 2234 
L 1294 2753 
L 1863 2753 
Q 2328 2753 2575 2939 
Q 2822 3125 2822 3475 
Q 2822 3834 2567 4026 
Q 2313 4219 1838 4219 
Q 1578 4219 1281 4162 
Q 984 4106 628 3988 
L 628 4550 
Q 988 4650 1302 4700 
Q 1616 4750 1894 4750 
Q 2613 4750 3031 4423 
Q 3450 4097 3450 3541 
Q 3450 3153 3228 2886 
Q 3006 2619 2597 2516 
z
" transform="scale(0.015625)"/>
       </defs>
       <use xlink:href="#DejaVuSans-33"/>
       <use xlink:href="#DejaVuSans-30" x="63.623047"/>
       <use xlink:href="#DejaVuSans-30" x="127.246094"/>
      </g>
     </g>
    </g>
    <g id="text_8">
     <!-- $s$ -->
     <g transform="translate(233.34 333.88025) scale(0.12 -0.12)">
      <defs>
       <path id="Cmmi10-73" d="M 556 391 
Q 728 97 1247 97 
Q 1472 97 1675 173 
Q 1878 250 2011 403 
Q 2144 556 2144 775 
Q 2144 941 2025 1047 
Q 1906 1153 1734 1191 
L 1388 1259 
Q 1150 1319 997 1481 
Q 844 1644 844 1875 
Q 844 2159 998 2378 
Q 1153 2597 1406 2712 
Q 1659 2828 1931 2828 
Q 2222 2828 2451 2689 
Q 2681 2550 2681 2278 
Q 2681 2131 2598 2018 
Q 2516 1906 2369 1906 
Q 2284 1906 2223 1961 
Q 2163 2016 2163 2100 
Q 2163 2175 2205 2245 
Q 2247 2316 2317 2358 
Q 2388 2400 2463 2400 
Q 2406 2538 2251 2600 
Q 2097 2663 1919 2663 
Q 1756 2663 1593 2597 
Q 1431 2531 1332 2404 
Q 1234 2278 1234 2106 
Q 1234 1991 1315 1903 
Q 1397 1816 1516 1778 
L 1888 1703 
Q 2066 1666 2214 1570 
Q 2363 1475 2448 1329 
Q 2534 1184 2534 997 
Q 2534 759 2401 528 
Q 2269 297 2075 159 
Q 1734 -72 1241 -72 
Q 900 -72 615 84 
Q 331 241 331 550 
Q 331 725 432 854 
Q 534 984 709 984 
Q 813 984 883 921 
Q 953 859 953 756 
Q 953 609 843 500 
Q 734 391 588 391 
L 556 391 
z
" transform="scale(0.015625)"/>
      </defs>
      <use xlink:href="#Cmmi10-73" transform="translate(0 0.8125)"/>
     </g>
    </g>
   </g>
   <g id="matplotlib.axis_2">
    <g id="ytick_1">
     <g id="line2d_15">
      <path d="M 57.6 271.296 
L 414.72 271.296 
" clip-path="url(#p827ace09bf)" style="fill: none; stroke-dasharray: 1.85,0.8; stroke-dashoffset: 0; stroke: #b2b2b2; stroke-width: 0.5"/>
     </g>
     <g id="line2d_16">
      <defs>
       <path id="m7b98aac5bc" d="M 0 0 
L 3.5 0 
" style="stroke: #000000; stroke-width: 0.8"/>
      </defs>
      <g>
       <use xlink:href="#m7b98aac5bc" x="57.6" y="271.296" style="stroke: #000000; stroke-width: 0.8"/>
      </g>
     </g>
     <g id="text_9">
      <!-- −4 -->
      <g transform="translate(39.357813 275.095219) scale(0.1 -0.1)">
       <defs>
        <path id="DejaVuSans-2212" d="M 678 2272 
L 4684 2272 
L 4684 1741 
L 678 1741 
L 678 2272 
z
" transform="scale(0.015625)"/>
        <path id="DejaVuSans-34" d="M 2419 4116 
L 825 1625 
L 2419 1625 
L 2419 4116 
z
M 2253 4666 
L 3047 4666 
L 3047 1625 
L 3713 1625 
L 3713 1100 
L 3047 1100 
L 3047 0 
L 2419 0 
L 2419 1100 
L 313 1100 
L 313 1709 
L 2253 4666 
z
" transform="scale(0.015625)"/>
       </defs>
       <use xlink:href="#DejaVuSans-2212"/>
       <use xlink:href="#DejaVuSans-34" x="83.789062"/>
      </g>
     </g>
    </g>
    <g id="ytick_2">
     <g id="line2d_17">
      <path d="M 57.6 222.912 
L 414.72 222.912 
" clip-path="url(#p827ace09bf)" style="fill: none; stroke-dasharray: 1.85,0.8; stroke-dashoffset: 0; stroke: #b2b2b2; stroke-width: 0.5"/>
     </g>
     <g id="line2d_18">
      <g>
       <use xlink:href="#m7b98aac5bc" x="57.6" y="222.912" style="stroke: #000000; stroke-width: 0.8"/>
      </g>
     </g>
     <g id="text_10">
      <!-- −2 -->
      <g transform="translate(39.357813 226.711219) scale(0.1 -0.1)">
       <use xlink:href="#DejaVuSans-2212"/>
       <use xlink:href="#DejaVuSans-32" x="83.789062"/>
      </g>
     </g>
    </g>
    <g id="ytick_3">
     <g id="line2d_19">
      <path d="M 57.6 174.528 
L 414.72 174.528 
" clip-path="url(#p827ace09bf)" style="fill: none; stroke-dasharray: 1.85,0.8; stroke-dashoffset: 0; stroke: #b2b2b2; stroke-width: 0.5"/>
     </g>
     <g id="line2d_20">
      <g>
       <use xlink:href="#m7b98aac5bc" x="57.6" y="174.528" style="stroke: #000000; stroke-width: 0.8"/>
      </g>
     </g>
     <g id="text_11">
      <!-- 0 -->
      <g transform="translate(47.7375 178.327219) scale(0.1 -0.1)">
       <use xlink:href="#DejaVuSans-30"/>
      </g>
     </g>
    </g>
    <g id="ytick_4">
     <g id="line2d_21">
      <path d="M 57.6 126.144 
L 414.72 126.144 
" clip-path="url(#p827ace09bf)" style="fill: none; stroke-dasharray: 1.85,0.8; stroke-dashoffset: 0; stroke: #b2b2b2; stroke-width: 0.5"/>
     </g>
     <g id="line2d_22">
      <g>
       <use xlink:href="#m7b98aac5bc" x="57.6" y="126.144" style="stroke: #000000; stroke-width: 0.8"/>
      </g>
     </g>
     <g id="text_12">
      <!-- 2 -->
      <g transform="translate(47.7375 129.943219) scale(0.1 -0.1)">
       <use xlink:href="#DejaVuSans-32"/>
      </g>
     </g>
    </g>
    <g id="ytick_5">
     <g id="line2d_23">
      <path d="M 57.6 77.76 
L 414.72 77.76 
" clip-path="url(#p827ace09bf)" style="fill: none; stroke-dasharray: 1.85,0.8; stroke-dashoffset: 0; stroke: #b2b2b2; stroke-width: 0.5"/>
     </g>
     <g id="line2d_24">
      <g>
       <use xlink:href="#m7b98aac5bc" x="57.6" y="77.76" style="stroke: #000000; stroke-width: 0.8"/>
      </g>
     </g>
     <g id="text_13">
      <!-- 4 -->
      <g transform="translate(47.7375 81.559219) scale(0.1 -0.1)">
       <use xlink:href="#DejaVuSans-34"/>
      </g>
     </g>
    </g>
    <g id="text_14">
     <!-- $x_{s}$ -->
     <g transform="translate(32.862188 180.348) rotate(-90) scale(0.12 -0.12)">
      <defs>
       <path id="Cmmi10-78" d="M 500 184 
Q 613 97 819 97 
Q 1019 97 1172 289 
Q 1325 481 1381 709 
L 1672 1844 
Q 1741 2153 1741 2266 
Q 1741 2425 1652 2544 
Q 1563 2663 1403 2663 
Q 1200 2663 1022 2536 
Q 844 2409 722 2214 
Q 600 2019 550 1819 
Q 538 1778 500 1778 
L 422 1778 
Q 372 1778 372 1838 
L 372 1856 
Q 434 2094 584 2320 
Q 734 2547 951 2687 
Q 1169 2828 1416 2828 
Q 1650 2828 1839 2703 
Q 2028 2578 2106 2363 
Q 2216 2559 2386 2693 
Q 2556 2828 2759 2828 
Q 2897 2828 3040 2779 
Q 3184 2731 3275 2631 
Q 3366 2531 3366 2381 
Q 3366 2219 3261 2101 
Q 3156 1984 2994 1984 
Q 2891 1984 2822 2050 
Q 2753 2116 2753 2216 
Q 2753 2350 2845 2451 
Q 2938 2553 3066 2572 
Q 2950 2663 2747 2663 
Q 2541 2663 2389 2472 
Q 2238 2281 2175 2047 
L 1894 916 
Q 1825 659 1825 494 
Q 1825 331 1917 214 
Q 2009 97 2163 97 
Q 2463 97 2698 361 
Q 2934 625 3009 941 
Q 3022 978 3059 978 
L 3138 978 
Q 3163 978 3178 961 
Q 3194 944 3194 922 
Q 3194 916 3188 903 
Q 3097 522 2806 225 
Q 2516 -72 2150 -72 
Q 1916 -72 1727 54 
Q 1538 181 1459 397 
Q 1359 209 1182 68 
Q 1006 -72 806 -72 
Q 669 -72 523 -23 
Q 378 25 287 125 
Q 197 225 197 378 
Q 197 528 301 651 
Q 406 775 563 775 
Q 669 775 741 711 
Q 813 647 813 544 
Q 813 409 723 309 
Q 634 209 500 184 
z
" transform="scale(0.015625)"/>
      </defs>
      <use xlink:href="#Cmmi10-78" transform="translate(0 0.8125)"/>
      <use xlink:href="#Cmmi10-73" transform="translate(57.080078 -16.19375) scale(0.7)"/>
     </g>
    </g>
   </g>
   <g id="line2d_25">
    <path d="M 73.832727 177.493318 
L 74.918528 170.589453 
L 76.00433 161.259316 
L 77.090131 159.512993 
L 78.175932 161.335054 
L 80.347534 170.047841 
L 81.433335 170.65709 
L 82.519137 169.943055 
L 83.604938 169.462588 
L 84.690739 173.620252 
L 85.77654 176.672706 
L 86.862341 173.045995 
L 87.948142 171.679407 
L 89.033943 174.432261 
L 90.119745 177.831632 
L 91.205546 175.256653 
L 92.291347 178.330809 
L 93.377148 171.762989 
L 94.462949 166.382756 
L 95.54875 167.209548 
L 96.634552 170.755628 
L 97.720353 172.509614 
L 98.806154 173.059808 
L 99.891955 165.675867 
L 100.977756 163.290228 
L 102.063557 158.963769 
L 103.149358 161.732242 
L 104.23516 160.065113 
L 105.320961 160.27015 
L 106.406762 157.746686 
L 107.492563 159.294893 
L 108.578364 161.547447 
L 109.664165 166.277888 
L 110.749967 168.120907 
L 111.835768 165.72871 
L 112.921569 169.365206 
L 114.00737 170.11843 
L 115.093171 167.316102 
L 116.178972 165.668562 
L 117.264773 166.503964 
L 118.350575 163.802485 
L 119.436376 165.046508 
L 120.522177 162.592681 
L 121.607978 166.479733 
L 122.693779 167.043056 
L 123.77958 165.774499 
L 124.865382 164.933896 
L 125.951183 160.769668 
L 127.036984 162.416657 
L 128.122785 165.952007 
L 129.208586 166.288073 
L 130.294387 170.914938 
L 131.380189 173.84437 
L 132.46599 169.20943 
L 133.551791 163.970069 
L 134.637592 165.488757 
L 135.723393 163.003553 
L 136.809194 170.942614 
L 137.894995 170.195568 
L 140.066598 177.94975 
L 141.152399 176.911275 
L 142.2382 182.32752 
L 143.324001 181.75226 
L 144.409802 183.197493 
L 145.495604 185.770511 
L 146.581405 184.931106 
L 147.667206 186.21882 
L 148.753007 186.543386 
L 149.838808 181.279879 
L 150.924609 179.678143 
L 152.01041 174.745082 
L 153.096212 176.542722 
L 154.182013 174.878557 
L 155.267814 171.467954 
L 156.353615 172.104537 
L 157.439416 171.873672 
L 158.525217 174.078486 
L 159.611019 177.215805 
L 160.69682 177.214463 
L 161.782621 175.002147 
L 162.868422 177.492808 
L 163.954223 177.209536 
L 165.040024 177.456908 
L 166.125825 179.218269 
L 167.211627 175.104198 
L 169.383229 168.087956 
L 170.46903 171.318901 
L 171.554831 167.415269 
L 172.640632 171.405785 
L 173.726434 168.722865 
L 175.898036 169.829874 
L 176.983837 173.207919 
L 178.069638 173.117607 
L 179.155439 173.284293 
L 181.327042 165.872638 
L 182.412843 165.035265 
L 183.498644 163.598108 
L 184.584445 164.32282 
L 185.670246 163.768845 
L 186.756047 165.118736 
L 187.841849 165.685693 
L 188.92765 165.636779 
L 190.013451 164.436134 
L 191.099252 164.045466 
L 192.185053 160.613902 
L 193.270854 160.021522 
L 194.356656 155.734502 
L 195.442457 157.481999 
L 196.528258 157.044761 
L 197.614059 155.348496 
L 198.69986 156.488367 
L 199.785661 157.931348 
L 200.871462 157.47114 
L 201.957264 157.684236 
L 203.043065 157.339124 
L 204.128866 156.019509 
L 205.214667 155.011761 
L 206.300468 158.247817 
L 207.386269 159.996348 
L 208.472071 159.998013 
L 209.557872 159.187246 
L 210.643673 153.775286 
L 211.729474 153.666334 
L 212.815275 153.988323 
L 213.901076 158.275684 
L 214.986877 156.222241 
L 216.072679 159.007442 
L 217.15848 158.414264 
L 218.244281 158.338966 
L 219.330082 155.983563 
L 220.415883 153.987412 
L 221.501684 157.124839 
L 222.587486 155.901285 
L 223.673287 151.914404 
L 224.759088 151.211833 
L 225.844889 152.870356 
L 226.93069 157.267052 
L 228.016491 157.581091 
L 229.102292 154.928232 
L 230.188094 153.993115 
L 232.359696 146.065294 
L 233.445497 147.639174 
L 234.531298 147.898019 
L 235.617099 144.331082 
L 236.702901 146.607364 
L 237.788702 148.08467 
L 238.874503 148.942056 
L 239.960304 148.209632 
L 241.046105 149.188491 
L 242.131906 156.697852 
L 243.217708 160.82736 
L 244.303509 158.690357 
L 245.38931 161.667133 
L 246.475111 161.013161 
L 248.646713 162.950671 
L 249.732514 165.151448 
L 250.818316 165.065209 
L 251.904117 164.417409 
L 252.989918 164.518693 
L 254.075719 166.278026 
L 255.16152 164.532106 
L 256.247321 167.342449 
L 257.333123 167.486373 
L 258.418924 165.265835 
L 259.504725 168.050752 
L 260.590526 170.262846 
L 261.676327 168.869578 
L 262.762128 168.274584 
L 263.847929 166.614793 
L 264.933731 170.092708 
L 266.019532 170.345899 
L 267.105333 171.249464 
L 268.191134 173.253121 
L 269.276935 173.813658 
L 270.362736 174.529962 
L 271.448538 174.560348 
L 272.534339 172.557157 
L 273.62014 170.24254 
L 274.705941 170.819593 
L 275.791742 172.317694 
L 276.877543 167.386829 
L 277.963344 165.086874 
L 279.049146 163.840025 
L 280.134947 164.754517 
L 281.220748 165.001293 
L 282.306549 165.065743 
L 283.39235 170.211503 
L 284.478151 171.737892 
L 285.563953 171.466015 
L 286.649754 170.995253 
L 287.735555 170.021293 
L 288.821356 169.601089 
L 289.907157 172.648341 
L 292.07876 177.894288 
L 293.164561 178.027258 
L 294.250362 176.438671 
L 296.421964 170.571507 
L 297.507765 170.400295 
L 298.593566 169.205554 
L 300.765169 168.054398 
L 301.85097 167.197427 
L 302.936771 166.831492 
L 304.022572 169.153022 
L 305.108373 166.195398 
L 306.194175 169.08302 
L 307.279976 168.05996 
L 308.365777 165.425466 
L 309.451578 165.565023 
L 310.537379 166.420953 
L 311.62318 170.062818 
L 312.708981 170.977985 
L 313.794783 169.161334 
L 314.880584 171.521809 
L 315.966385 170.549799 
L 317.052186 170.648382 
L 318.137987 170.378866 
L 319.223788 168.376809 
L 320.30959 167.823978 
L 321.395391 166.231849 
L 322.481192 163.976351 
L 323.566993 164.968901 
L 325.738595 162.508394 
L 326.824396 163.805743 
L 327.910198 163.766462 
L 328.995999 163.220629 
L 330.0818 160.215961 
L 331.167601 160.19486 
L 332.253402 159.278222 
L 333.339203 161.341624 
L 335.510806 167.54214 
L 336.596607 167.238484 
L 337.682408 169.629653 
L 338.768209 168.827934 
L 339.85401 167.069341 
L 340.939811 169.746289 
L 342.025613 168.264861 
L 343.111414 168.95878 
L 344.197215 168.782301 
L 345.283016 169.352722 
L 347.454618 166.268655 
L 349.626221 162.877519 
L 350.712022 163.894109 
L 351.797823 162.230354 
L 352.883624 163.069508 
L 353.969425 163.466762 
L 355.055227 163.446915 
L 356.141028 164.575412 
L 357.226829 164.299828 
L 358.31263 164.583365 
L 359.398431 165.665977 
L 360.484232 167.303099 
L 361.570033 166.263541 
L 362.655835 166.547732 
L 363.741636 166.499997 
L 364.827437 166.21676 
L 365.913238 167.759493 
L 366.999039 166.717738 
L 368.08484 167.552899 
L 369.170642 165.864866 
L 370.256443 167.067903 
L 371.342244 166.869251 
L 372.428045 167.409071 
L 373.513846 167.422414 
L 374.599647 167.118986 
L 375.685448 166.558433 
L 376.77125 167.188149 
L 377.857051 167.0117 
L 378.942852 167.392801 
L 380.028653 167.448207 
L 382.200255 165.483008 
L 383.286057 165.92193 
L 384.371858 166.571552 
L 385.457659 166.780441 
L 386.54346 166.377486 
L 387.629261 167.090508 
L 389.800863 166.868023 
L 391.972466 165.220536 
L 393.058267 166.350257 
L 394.144068 166.315648 
L 395.229869 166.152725 
L 397.401472 166.123759 
L 398.487273 166.050491 
L 398.487273 166.050491 
" clip-path="url(#p827ace09bf)" style="fill: none; stroke: #0000ff; stroke-opacity: 0.5; stroke-width: 2; stroke-linecap: square"/>
   </g>
   <g id="line2d_26">
    <path d="M 73.832727 160.078845 
L 74.918528 159.364249 
L 76.00433 155.501146 
L 77.090131 154.603871 
L 78.175932 157.488227 
L 79.261733 159.429772 
L 80.347534 154.240396 
L 81.433335 146.460355 
L 82.519137 142.987364 
L 84.690739 146.37709 
L 85.77654 147.76594 
L 86.862341 148.367379 
L 87.948142 148.12352 
L 89.033943 147.136926 
L 90.119745 151.358637 
L 91.205546 144.874298 
L 92.291347 144.332695 
L 93.377148 148.344559 
L 94.462949 147.850649 
L 95.54875 152.460523 
L 96.634552 154.388539 
L 97.720353 161.960148 
L 98.806154 164.802338 
L 99.891955 160.745654 
L 100.977756 163.035618 
L 102.063557 163.022951 
L 103.149358 164.326614 
L 104.23516 158.267768 
L 105.320961 157.52874 
L 106.406762 158.706846 
L 107.492563 159.545534 
L 108.578364 157.961129 
L 109.664165 161.730239 
L 110.749967 160.626095 
L 111.835768 161.233393 
L 112.921569 159.153527 
L 114.00737 163.449181 
L 115.093171 163.429005 
L 116.178972 162.16902 
L 117.264773 160.483244 
L 118.350575 162.013215 
L 119.436376 161.345291 
L 120.522177 156.550812 
L 121.607978 159.118569 
L 122.693779 156.417252 
L 123.77958 157.224826 
L 124.865382 154.727275 
L 125.951183 157.867188 
L 127.036984 163.218943 
L 128.122785 160.987058 
L 129.208586 165.785065 
L 130.294387 166.70542 
L 131.380189 167.442922 
L 132.46599 167.590223 
L 133.551791 165.204278 
L 134.637592 168.178263 
L 135.723393 163.990846 
L 136.809194 163.770488 
L 137.894995 159.628961 
L 138.980797 153.590884 
L 140.066598 156.635676 
L 141.152399 156.921311 
L 142.2382 155.332669 
L 143.324001 153.074015 
L 144.409802 152.273021 
L 145.495604 152.515868 
L 146.581405 160.642676 
L 147.667206 165.888319 
L 148.753007 167.857114 
L 149.838808 163.520912 
L 150.924609 162.675247 
L 152.01041 161.654085 
L 154.182013 163.959728 
L 155.267814 163.952672 
L 156.353615 165.309857 
L 157.439416 163.365649 
L 158.525217 164.279658 
L 159.611019 162.544783 
L 160.69682 167.799514 
L 161.782621 166.90912 
L 163.954223 165.851945 
L 165.040024 166.222359 
L 166.125825 165.562716 
L 167.211627 168.6754 
L 168.297428 168.350168 
L 169.383229 166.453576 
L 170.46903 171.709548 
L 171.554831 175.45476 
L 172.640632 170.397523 
L 173.726434 171.492696 
L 174.812235 176.128504 
L 175.898036 175.684184 
L 176.983837 176.013869 
L 178.069638 178.360803 
L 179.155439 178.489766 
L 180.24124 177.669196 
L 181.327042 174.228535 
L 182.412843 173.355605 
L 183.498644 172.267163 
L 184.584445 174.656814 
L 185.670246 173.63348 
L 187.841849 170.867816 
L 188.92765 170.31596 
L 190.013451 171.473827 
L 192.185053 165.796788 
L 193.270854 161.401911 
L 194.356656 163.729511 
L 195.442457 160.150238 
L 197.614059 157.045046 
L 198.69986 156.397316 
L 199.785661 160.624956 
L 201.957264 166.392807 
L 203.043065 167.478141 
L 204.128866 167.134029 
L 205.214667 164.875575 
L 206.300468 164.62279 
L 207.386269 166.052835 
L 208.472071 165.661201 
L 209.557872 165.400293 
L 210.643673 161.7014 
L 211.729474 165.993241 
L 213.901076 170.243227 
L 214.986877 171.074915 
L 216.072679 167.374165 
L 217.15848 166.575447 
L 218.244281 168.312716 
L 219.330082 167.183802 
L 220.415883 166.48681 
L 221.501684 167.128888 
L 222.587486 168.847321 
L 223.673287 168.285278 
L 224.759088 170.623233 
L 225.844889 167.348766 
L 226.93069 167.257176 
L 228.016491 169.594981 
L 229.102292 167.292221 
L 230.188094 167.424448 
L 231.273895 170.046835 
L 232.359696 170.676601 
L 233.445497 167.703521 
L 235.617099 164.922239 
L 236.702901 165.997229 
L 237.788702 167.342978 
L 238.874503 165.677454 
L 239.960304 164.56068 
L 241.046105 161.995498 
L 242.131906 162.892074 
L 243.217708 161.012648 
L 244.303509 157.912689 
L 245.38931 158.055633 
L 246.475111 157.698706 
L 248.646713 162.788658 
L 249.732514 164.901941 
L 250.818316 163.831105 
L 251.904117 164.901627 
L 252.989918 164.296726 
L 254.075719 168.78221 
L 255.16152 170.366978 
L 256.247321 172.193792 
L 257.333123 172.96711 
L 258.418924 172.531776 
L 259.504725 172.479767 
L 260.590526 169.538632 
L 261.676327 170.398785 
L 262.762128 169.190903 
L 263.847929 170.643207 
L 264.933731 173.688105 
L 266.019532 171.496693 
L 267.105333 167.652618 
L 268.191134 170.376259 
L 269.276935 170.160766 
L 270.362736 167.00126 
L 271.448538 165.471134 
L 272.534339 164.680824 
L 274.705941 165.456704 
L 275.791742 163.908784 
L 276.877543 167.329978 
L 279.049146 170.697252 
L 280.134947 170.688062 
L 281.220748 171.10283 
L 282.306549 171.712564 
L 283.39235 173.287753 
L 284.478151 174.522673 
L 285.563953 174.221234 
L 286.649754 173.556317 
L 287.735555 174.055736 
L 289.907157 169.806976 
L 290.992958 169.03789 
L 292.07876 165.848082 
L 293.164561 168.208316 
L 294.250362 167.676141 
L 295.336163 166.989362 
L 296.421964 166.798689 
L 299.679368 162.571134 
L 300.765169 161.308393 
L 301.85097 162.654282 
L 302.936771 158.507287 
L 304.022572 159.576383 
L 305.108373 158.615511 
L 306.194175 158.956025 
L 307.279976 159.062284 
L 308.365777 158.009332 
L 309.451578 155.069768 
L 310.537379 155.091709 
L 313.794783 155.794621 
L 315.966385 160.424402 
L 317.052186 161.532111 
L 318.137987 159.314485 
L 319.223788 157.522825 
L 320.30959 158.469524 
L 321.395391 159.96477 
L 322.481192 159.365724 
L 323.566993 160.328312 
L 324.652794 159.418053 
L 325.738595 161.379818 
L 326.824396 160.438341 
L 328.995999 163.39321 
L 330.0818 165.489872 
L 331.167601 168.48238 
L 332.253402 164.720351 
L 333.339203 163.761164 
L 334.425005 163.222473 
L 335.510806 163.819558 
L 336.596607 166.173992 
L 337.682408 164.430452 
L 338.768209 165.839299 
L 339.85401 165.584485 
L 340.939811 167.31089 
L 342.025613 166.074258 
L 343.111414 167.986377 
L 344.197215 168.974094 
L 346.368817 168.555328 
L 347.454618 166.753785 
L 348.54042 167.940085 
L 349.626221 167.147663 
L 350.712022 169.39221 
L 351.797823 169.830451 
L 353.969425 171.516316 
L 355.055227 171.122775 
L 356.141028 171.940279 
L 357.226829 172.018667 
L 358.31263 171.215163 
L 359.398431 170.854656 
L 361.570033 172.121832 
L 362.655835 170.878734 
L 363.741636 173.712393 
L 364.827437 174.313428 
L 365.913238 175.768779 
L 366.999039 176.211714 
L 368.08484 176.931426 
L 369.170642 175.396615 
L 370.256443 175.102149 
L 371.342244 174.514656 
L 372.428045 174.160192 
L 373.513846 175.015819 
L 374.599647 174.396507 
L 375.685448 174.132021 
L 376.77125 175.637081 
L 377.857051 176.080944 
L 378.942852 176.815446 
L 380.028653 177.393924 
L 381.114454 177.173167 
L 382.200255 175.78886 
L 383.286057 175.722917 
L 384.371858 174.908568 
L 385.457659 173.571593 
L 386.54346 173.574432 
L 387.629261 172.421454 
L 388.715062 172.658823 
L 389.800863 171.873494 
L 390.886665 171.663197 
L 391.972466 171.060355 
L 393.058267 171.27922 
L 394.144068 170.710976 
L 395.229869 170.981288 
L 397.401472 170.905307 
L 398.487273 170.872014 
L 398.487273 170.872014 
" clip-path="url(#p827ace09bf)" style="fill: none; stroke: #0000ff; stroke-opacity: 0.5; stroke-width: 2; stroke-linecap: square"/>
   </g>
   <g id="line2d_27">
    <path d="M 73.832727 109.034908 
L 74.918528 112.523045 
L 76.00433 117.554379 
L 77.090131 116.253237 
L 78.175932 121.996691 
L 79.261733 114.534603 
L 80.347534 117.199613 
L 81.433335 116.322874 
L 82.519137 113.627557 
L 83.604938 113.42487 
L 84.690739 115.387252 
L 85.77654 103.016018 
L 86.862341 103.792942 
L 87.948142 103.75646 
L 89.033943 102.887666 
L 90.119745 105.818301 
L 91.205546 101.48777 
L 92.291347 101.961736 
L 93.377148 103.257314 
L 94.462949 102.85618 
L 95.54875 103.147379 
L 96.634552 102.036725 
L 97.720353 107.330987 
L 98.806154 108.222215 
L 99.891955 104.786505 
L 100.977756 101.820248 
L 102.063557 103.449372 
L 103.149358 95.329356 
L 104.23516 96.579077 
L 105.320961 98.928407 
L 106.406762 96.336552 
L 107.492563 100.50435 
L 108.578364 104.142444 
L 109.664165 106.130101 
L 110.749967 102.820094 
L 111.835768 101.063404 
L 112.921569 103.106746 
L 114.00737 105.485881 
L 115.093171 110.362662 
L 116.178972 116.492342 
L 117.264773 114.377035 
L 118.350575 112.909538 
L 119.436376 112.341603 
L 120.522177 114.205092 
L 121.607978 115.787532 
L 122.693779 118.068602 
L 123.77958 121.863828 
L 124.865382 118.660886 
L 125.951183 118.58556 
L 127.036984 120.644579 
L 128.122785 118.174667 
L 129.208586 123.18105 
L 130.294387 126.563014 
L 131.380189 133.306683 
L 132.46599 136.270217 
L 133.551791 137.439271 
L 134.637592 138.99344 
L 135.723393 140.805073 
L 136.809194 140.112519 
L 137.894995 138.351777 
L 138.980797 134.330713 
L 140.066598 134.792483 
L 141.152399 130.643434 
L 142.2382 133.598761 
L 143.324001 136.135515 
L 144.409802 135.447576 
L 145.495604 141.257866 
L 146.581405 152.433853 
L 148.753007 151.694248 
L 149.838808 155.27657 
L 150.924609 153.013001 
L 152.01041 146.395187 
L 153.096212 140.623576 
L 154.182013 139.956542 
L 155.267814 140.770641 
L 156.353615 139.164667 
L 157.439416 140.688102 
L 158.525217 137.882327 
L 159.611019 141.447544 
L 160.69682 142.184133 
L 161.782621 143.162422 
L 162.868422 141.145957 
L 163.954223 141.988494 
L 165.040024 145.529137 
L 166.125825 141.107849 
L 167.211627 142.111283 
L 168.297428 139.879821 
L 169.383229 135.491439 
L 170.46903 136.635974 
L 171.554831 136.174642 
L 172.640632 134.516159 
L 173.726434 128.191992 
L 174.812235 127.902609 
L 175.898036 130.469583 
L 176.983837 128.420128 
L 178.069638 132.680949 
L 179.155439 132.392764 
L 180.24124 138.017779 
L 181.327042 135.64101 
L 182.412843 132.510497 
L 183.498644 133.083833 
L 184.584445 131.749474 
L 185.670246 130.095695 
L 186.756047 127.912094 
L 187.841849 129.685263 
L 188.92765 126.49268 
L 190.013451 131.211499 
L 191.099252 132.881315 
L 192.185053 132.77473 
L 193.270854 129.847042 
L 194.356656 127.888226 
L 195.442457 131.996823 
L 196.528258 129.972442 
L 197.614059 129.241703 
L 198.69986 131.65686 
L 199.785661 136.638528 
L 200.871462 136.017059 
L 201.957264 135.137296 
L 203.043065 131.082802 
L 204.128866 130.506145 
L 205.214667 129.113559 
L 207.386269 128.767272 
L 208.472071 127.62644 
L 209.557872 124.998827 
L 210.643673 123.76417 
L 211.729474 119.613409 
L 212.815275 125.784685 
L 213.901076 127.272056 
L 214.986877 127.731857 
L 216.072679 129.431072 
L 217.15848 126.4295 
L 218.244281 128.75649 
L 219.330082 126.831099 
L 220.415883 125.755029 
L 221.501684 124.959584 
L 222.587486 127.572817 
L 223.673287 126.263834 
L 224.759088 127.034611 
L 225.844889 125.295566 
L 226.93069 129.070236 
L 228.016491 128.885254 
L 229.102292 127.37521 
L 230.188094 123.74559 
L 231.273895 124.763446 
L 232.359696 119.648215 
L 233.445497 118.567015 
L 234.531298 117.30752 
L 235.617099 110.69696 
L 236.702901 111.957973 
L 237.788702 111.832472 
L 238.874503 109.107661 
L 239.960304 107.008982 
L 241.046105 112.625121 
L 242.131906 114.360122 
L 243.217708 118.155989 
L 244.303509 119.278397 
L 245.38931 118.42134 
L 246.475111 118.36436 
L 247.560912 117.814982 
L 248.646713 118.547747 
L 249.732514 118.216921 
L 250.818316 123.598618 
L 251.904117 126.38974 
L 252.989918 128.353596 
L 254.075719 129.667989 
L 255.16152 125.894198 
L 256.247321 128.865152 
L 257.333123 122.459342 
L 258.418924 124.299638 
L 259.504725 127.58704 
L 260.590526 127.825696 
L 261.676327 129.559923 
L 262.762128 129.836093 
L 263.847929 131.163226 
L 264.933731 136.062787 
L 266.019532 136.388642 
L 267.105333 138.820311 
L 268.191134 137.444686 
L 269.276935 136.577434 
L 270.362736 137.814357 
L 271.448538 140.641025 
L 272.534339 140.760147 
L 273.62014 144.263134 
L 274.705941 142.822311 
L 275.791742 140.749713 
L 276.877543 140.70038 
L 277.963344 137.283415 
L 279.049146 137.762849 
L 280.134947 138.718079 
L 281.220748 137.090578 
L 282.306549 132.899625 
L 283.39235 132.199152 
L 284.478151 135.138008 
L 286.649754 142.778287 
L 287.735555 144.059015 
L 288.821356 148.714271 
L 289.907157 146.763722 
L 290.992958 145.45574 
L 292.07876 144.963739 
L 293.164561 146.65154 
L 295.336163 147.362614 
L 296.421964 147.918883 
L 297.507765 149.042821 
L 298.593566 149.236961 
L 299.679368 150.524554 
L 300.765169 149.272354 
L 301.85097 148.501578 
L 302.936771 149.184215 
L 305.108373 151.264152 
L 306.194175 150.993303 
L 308.365777 153.580263 
L 309.451578 155.546744 
L 310.537379 155.211681 
L 311.62318 155.442455 
L 312.708981 158.838487 
L 313.794783 159.696742 
L 314.880584 158.995524 
L 315.966385 159.106508 
L 317.052186 158.423061 
L 318.137987 155.92892 
L 319.223788 154.397559 
L 320.30959 155.304445 
L 321.395391 155.593108 
L 322.481192 156.563695 
L 323.566993 153.356735 
L 324.652794 155.210203 
L 325.738595 156.036012 
L 326.824396 153.544986 
L 327.910198 152.119598 
L 328.995999 150.23663 
L 330.0818 146.82967 
L 331.167601 146.545572 
L 332.253402 144.885452 
L 333.339203 141.182139 
L 334.425005 142.788778 
L 335.510806 141.307652 
L 336.596607 142.936732 
L 337.682408 143.604288 
L 338.768209 143.836863 
L 339.85401 142.625822 
L 340.939811 139.668993 
L 342.025613 138.254115 
L 343.111414 137.53701 
L 344.197215 135.023758 
L 345.283016 137.923658 
L 346.368817 134.697101 
L 348.54042 131.437976 
L 349.626221 130.715397 
L 350.712022 132.710167 
L 351.797823 133.626853 
L 352.883624 132.274563 
L 353.969425 131.969725 
L 355.055227 131.19364 
L 356.141028 129.67826 
L 357.226829 129.103135 
L 358.31263 129.552353 
L 359.398431 129.419565 
L 360.484232 130.042567 
L 361.570033 129.344303 
L 362.655835 129.324963 
L 363.741636 130.120704 
L 364.827437 131.363492 
L 365.913238 133.379697 
L 366.999039 132.694917 
L 368.08484 131.067947 
L 369.170642 131.521245 
L 370.256443 131.173238 
L 371.342244 131.540023 
L 372.428045 130.249601 
L 373.513846 131.142833 
L 374.599647 129.979831 
L 375.685448 130.098727 
L 376.77125 129.076312 
L 377.857051 128.383695 
L 378.942852 127.884127 
L 380.028653 126.787369 
L 381.114454 126.820782 
L 382.200255 125.721193 
L 383.286057 125.804876 
L 384.371858 124.499379 
L 385.457659 124.274324 
L 386.54346 124.607002 
L 388.715062 124.904803 
L 389.800863 124.569266 
L 390.886665 123.593325 
L 391.972466 123.280786 
L 393.058267 121.728649 
L 394.144068 121.41311 
L 395.229869 120.2919 
L 396.31567 119.517381 
L 397.401472 118.542986 
L 398.487273 117.80352 
L 398.487273 117.80352 
" clip-path="url(#p827ace09bf)" style="fill: none; stroke: #0000ff; stroke-opacity: 0.5; stroke-width: 2; stroke-linecap: square"/>
   </g>
   <g id="line2d_28">
    <path d="M 73.832727 134.899207 
L 74.918528 132.811413 
L 76.00433 133.745018 
L 77.090131 139.370385 
L 78.175932 140.680549 
L 79.261733 137.087513 
L 80.347534 139.228744 
L 83.604938 135.689606 
L 84.690739 133.589778 
L 85.77654 131.769322 
L 86.862341 130.239817 
L 87.948142 125.674348 
L 89.033943 123.131365 
L 90.119745 124.274635 
L 91.205546 124.634385 
L 92.291347 120.88218 
L 93.377148 124.352291 
L 94.462949 123.301123 
L 95.54875 128.885057 
L 96.634552 131.822155 
L 97.720353 126.415465 
L 98.806154 125.024217 
L 99.891955 121.969019 
L 100.977756 120.102703 
L 102.063557 123.002503 
L 103.149358 120.964833 
L 104.23516 126.23209 
L 105.320961 122.934647 
L 106.406762 125.422413 
L 107.492563 126.830735 
L 108.578364 127.308705 
L 109.664165 123.932091 
L 110.749967 123.404139 
L 112.921569 116.506575 
L 115.093171 112.517921 
L 116.178972 108.079315 
L 117.264773 102.424025 
L 118.350575 104.906814 
L 119.436376 106.988493 
L 120.522177 111.620174 
L 121.607978 113.877025 
L 122.693779 113.208067 
L 123.77958 110.650182 
L 124.865382 115.340902 
L 125.951183 114.195203 
L 127.036984 114.722193 
L 128.122785 119.1602 
L 129.208586 118.803076 
L 130.294387 121.313446 
L 132.46599 125.044556 
L 133.551791 123.751743 
L 134.637592 128.913167 
L 135.723393 131.630382 
L 136.809194 135.024717 
L 137.894995 136.486204 
L 138.980797 134.434103 
L 140.066598 136.309365 
L 141.152399 134.723592 
L 142.2382 138.909988 
L 143.324001 132.758284 
L 144.409802 131.276561 
L 145.495604 129.071357 
L 146.581405 128.100435 
L 147.667206 126.409235 
L 148.753007 129.829385 
L 149.838808 130.036054 
L 150.924609 130.413427 
L 152.01041 130.516089 
L 153.096212 131.816227 
L 154.182013 128.086716 
L 155.267814 130.79472 
L 157.439416 124.030109 
L 158.525217 126.63848 
L 159.611019 124.83895 
L 160.69682 124.07461 
L 161.782621 127.854506 
L 162.868422 125.10343 
L 163.954223 122.883456 
L 165.040024 127.455412 
L 166.125825 128.595851 
L 167.211627 128.603579 
L 168.297428 131.455657 
L 169.383229 130.101502 
L 170.46903 126.834338 
L 172.640632 130.322784 
L 173.726434 130.740912 
L 174.812235 128.708652 
L 175.898036 134.122224 
L 176.983837 136.902511 
L 178.069638 133.122791 
L 179.155439 135.578804 
L 180.24124 132.694057 
L 181.327042 135.547599 
L 182.412843 135.774864 
L 183.498644 138.981246 
L 184.584445 139.426699 
L 185.670246 140.212561 
L 186.756047 139.884027 
L 187.841849 136.598887 
L 188.92765 141.279609 
L 190.013451 141.038621 
L 191.099252 137.361477 
L 192.185053 134.195958 
L 193.270854 134.522836 
L 194.356656 131.673157 
L 195.442457 135.532134 
L 196.528258 136.239192 
L 198.69986 142.432033 
L 199.785661 140.059662 
L 200.871462 137.967909 
L 201.957264 139.62261 
L 203.043065 136.622968 
L 204.128866 137.918378 
L 205.214667 135.549347 
L 206.300468 139.770358 
L 207.386269 141.258104 
L 208.472071 139.006282 
L 209.557872 137.895583 
L 210.643673 138.046426 
L 211.729474 135.739873 
L 212.815275 133.837211 
L 213.901076 132.185424 
L 214.986877 133.182204 
L 216.072679 132.706368 
L 217.15848 134.325042 
L 218.244281 132.109742 
L 219.330082 131.366634 
L 220.415883 131.132303 
L 221.501684 130.416979 
L 222.587486 128.984469 
L 223.673287 130.632126 
L 224.759088 134.520979 
L 225.844889 133.94267 
L 226.93069 131.352366 
L 228.016491 133.282494 
L 229.102292 128.021959 
L 230.188094 126.692073 
L 231.273895 128.7505 
L 232.359696 130.511456 
L 233.445497 127.842596 
L 234.531298 130.116105 
L 235.617099 131.586059 
L 236.702901 126.432152 
L 237.788702 128.573509 
L 238.874503 129.774911 
L 239.960304 130.703828 
L 241.046105 128.98076 
L 242.131906 136.018486 
L 243.217708 135.84278 
L 244.303509 138.651415 
L 245.38931 139.957086 
L 246.475111 136.844 
L 247.560912 132.903589 
L 248.646713 133.191456 
L 249.732514 131.630598 
L 250.818316 128.31869 
L 251.904117 132.714316 
L 252.989918 132.405905 
L 254.075719 138.324456 
L 255.16152 137.813778 
L 256.247321 137.155766 
L 257.333123 134.499397 
L 258.418924 137.045893 
L 259.504725 137.998379 
L 260.590526 142.459427 
L 261.676327 139.915786 
L 262.762128 140.812966 
L 263.847929 142.51145 
L 264.933731 138.734475 
L 266.019532 136.175497 
L 267.105333 140.443089 
L 268.191134 145.86645 
L 269.276935 145.277091 
L 270.362736 145.440467 
L 271.448538 145.112516 
L 272.534339 144.259724 
L 273.62014 146.226986 
L 274.705941 146.16325 
L 275.791742 146.771779 
L 276.877543 142.64346 
L 277.963344 146.009667 
L 279.049146 144.995548 
L 280.134947 146.879529 
L 281.220748 144.592609 
L 282.306549 146.364355 
L 283.39235 145.388721 
L 284.478151 147.682493 
L 285.563953 147.311336 
L 286.649754 146.225157 
L 287.735555 148.614776 
L 288.821356 148.76696 
L 289.907157 152.341091 
L 290.992958 150.134071 
L 292.07876 147.635199 
L 293.164561 149.102198 
L 294.250362 146.866072 
L 295.336163 147.529458 
L 296.421964 147.113732 
L 297.507765 150.126898 
L 298.593566 149.7801 
L 299.679368 151.2276 
L 300.765169 153.777336 
L 301.85097 155.456832 
L 302.936771 152.409984 
L 304.022572 149.860003 
L 305.108373 152.120205 
L 306.194175 153.578996 
L 307.279976 153.020125 
L 308.365777 150.811087 
L 309.451578 153.313055 
L 310.537379 153.605557 
L 311.62318 159.521761 
L 312.708981 158.937948 
L 313.794783 156.559315 
L 314.880584 156.657313 
L 315.966385 154.401565 
L 317.052186 155.121955 
L 318.137987 152.199814 
L 319.223788 152.899957 
L 320.30959 152.500566 
L 321.395391 153.467718 
L 322.481192 153.457608 
L 323.566993 153.702322 
L 324.652794 155.757824 
L 325.738595 156.438751 
L 326.824396 156.691688 
L 327.910198 157.971995 
L 328.995999 156.633089 
L 330.0818 156.339595 
L 331.167601 155.051501 
L 332.253402 152.189027 
L 333.339203 152.668072 
L 334.425005 150.157565 
L 335.510806 149.182047 
L 336.596607 148.375366 
L 337.682408 151.021822 
L 338.768209 152.058327 
L 339.85401 153.877203 
L 340.939811 156.785986 
L 342.025613 155.30409 
L 343.111414 154.352971 
L 344.197215 153.025206 
L 345.283016 152.343969 
L 346.368817 155.120279 
L 347.454618 154.270317 
L 348.54042 153.727077 
L 349.626221 152.395134 
L 350.712022 151.3849 
L 351.797823 150.566976 
L 352.883624 146.773894 
L 353.969425 143.659239 
L 355.055227 143.796356 
L 356.141028 145.47745 
L 357.226829 144.724989 
L 358.31263 144.515974 
L 361.570033 140.282454 
L 362.655835 141.163862 
L 363.741636 139.400243 
L 364.827437 138.781522 
L 365.913238 138.577087 
L 366.999039 139.028373 
L 368.08484 139.991197 
L 369.170642 139.354073 
L 370.256443 137.816185 
L 372.428045 137.374305 
L 373.513846 136.648781 
L 374.599647 135.779575 
L 375.685448 134.124389 
L 376.77125 134.716474 
L 377.857051 136.160419 
L 378.942852 135.155676 
L 380.028653 133.381769 
L 382.200255 132.130307 
L 383.286057 130.497268 
L 384.371858 129.293162 
L 386.54346 127.701128 
L 387.629261 127.721152 
L 388.715062 127.587246 
L 390.886665 126.699717 
L 391.972466 126.005365 
L 393.058267 124.998503 
L 394.144068 124.357947 
L 395.229869 123.583153 
L 396.31567 123.049068 
L 397.401472 122.069853 
L 398.487273 121.338893 
L 398.487273 121.338893 
" clip-path="url(#p827ace09bf)" style="fill: none; stroke: #0000ff; stroke-opacity: 0.5; stroke-width: 2; stroke-linecap: square"/>
   </g>
   <g id="line2d_29">
    <path d="M 73.832727 182.67041 
L 74.918528 187.539362 
L 76.00433 186.23872 
L 77.090131 190.170472 
L 78.175932 190.81783 
L 79.261733 187.923644 
L 80.347534 191.171754 
L 81.433335 187.89028 
L 82.519137 187.252834 
L 83.604938 188.760347 
L 84.690739 189.975685 
L 85.77654 187.09281 
L 86.862341 186.867935 
L 87.948142 185.547767 
L 89.033943 183.147269 
L 90.119745 182.898484 
L 91.205546 183.441687 
L 92.291347 184.990979 
L 93.377148 187.459114 
L 94.462949 187.016479 
L 95.54875 193.587321 
L 96.634552 192.458484 
L 97.720353 189.08458 
L 98.806154 190.010618 
L 99.891955 188.088554 
L 100.977756 189.148329 
L 102.063557 190.510272 
L 103.149358 191.144142 
L 104.23516 188.075041 
L 105.320961 187.688614 
L 107.492563 190.089735 
L 108.578364 187.508806 
L 109.664165 185.655974 
L 110.749967 184.216093 
L 111.835768 186.873458 
L 112.921569 185.417563 
L 114.00737 184.314848 
L 115.093171 189.418406 
L 116.178972 188.984357 
L 117.264773 185.616179 
L 118.350575 183.398697 
L 119.436376 181.536762 
L 120.522177 190.848908 
L 121.607978 189.395562 
L 122.693779 187.533306 
L 123.77958 181.316676 
L 124.865382 184.941983 
L 125.951183 185.164484 
L 127.036984 186.701651 
L 128.122785 183.442235 
L 129.208586 183.033757 
L 130.294387 177.405022 
L 132.46599 173.205075 
L 133.551791 172.928325 
L 134.637592 165.946064 
L 135.723393 170.589102 
L 136.809194 171.336796 
L 137.894995 168.875223 
L 138.980797 163.416034 
L 140.066598 169.579657 
L 141.152399 170.371061 
L 142.2382 171.555373 
L 143.324001 168.382963 
L 144.409802 160.537409 
L 145.495604 160.824197 
L 147.667206 161.222689 
L 148.753007 160.462944 
L 149.838808 155.630851 
L 150.924609 159.515472 
L 152.01041 158.69204 
L 153.096212 160.255958 
L 154.182013 158.288526 
L 155.267814 161.307995 
L 156.353615 158.465482 
L 157.439416 156.71543 
L 158.525217 153.549493 
L 159.611019 155.069605 
L 161.782621 153.360938 
L 162.868422 148.63972 
L 163.954223 148.941219 
L 165.040024 150.409097 
L 166.125825 146.947947 
L 168.297428 152.221999 
L 169.383229 154.310114 
L 170.46903 148.07427 
L 171.554831 147.918096 
L 172.640632 152.576944 
L 173.726434 153.992354 
L 174.812235 153.959775 
L 175.898036 153.707358 
L 176.983837 153.237363 
L 178.069638 152.477199 
L 179.155439 152.207733 
L 180.24124 152.840703 
L 181.327042 156.976536 
L 182.412843 154.157304 
L 183.498644 152.295235 
L 184.584445 157.005619 
L 185.670246 155.520344 
L 186.756047 151.503969 
L 187.841849 154.045337 
L 190.013451 162.479199 
L 191.099252 163.262275 
L 192.185053 165.702795 
L 193.270854 166.416836 
L 194.356656 169.410202 
L 195.442457 164.334044 
L 196.528258 164.06255 
L 197.614059 164.878651 
L 198.69986 163.515959 
L 199.785661 160.807165 
L 200.871462 163.606898 
L 201.957264 164.183712 
L 203.043065 164.542032 
L 204.128866 163.31076 
L 205.214667 161.488706 
L 206.300468 162.202331 
L 207.386269 157.354834 
L 208.472071 160.182038 
L 209.557872 162.031035 
L 210.643673 162.857961 
L 211.729474 161.362416 
L 212.815275 162.389887 
L 213.901076 162.73847 
L 216.072679 162.348641 
L 217.15848 159.988773 
L 218.244281 161.849752 
L 219.330082 161.683062 
L 220.415883 165.304248 
L 221.501684 165.573327 
L 222.587486 164.7051 
L 223.673287 163.208952 
L 224.759088 165.38656 
L 225.844889 166.114865 
L 226.93069 163.152188 
L 229.102292 168.837113 
L 230.188094 167.05316 
L 231.273895 163.276764 
L 232.359696 161.934368 
L 233.445497 165.385044 
L 234.531298 165.379593 
L 235.617099 167.207038 
L 236.702901 161.625346 
L 237.788702 163.53249 
L 238.874503 162.544649 
L 239.960304 164.529841 
L 241.046105 168.999573 
L 242.131906 166.541529 
L 243.217708 171.710005 
L 244.303509 175.399635 
L 245.38931 175.029865 
L 246.475111 176.154303 
L 247.560912 177.535318 
L 249.732514 183.887593 
L 250.818316 181.778821 
L 251.904117 184.102513 
L 252.989918 181.761954 
L 254.075719 184.27817 
L 255.16152 191.006246 
L 256.247321 192.492286 
L 257.333123 191.645191 
L 258.418924 191.882646 
L 259.504725 193.565896 
L 260.590526 193.056395 
L 261.676327 191.518813 
L 262.762128 193.011684 
L 263.847929 192.598178 
L 264.933731 194.523481 
L 266.019532 195.161959 
L 267.105333 190.303701 
L 268.191134 191.996924 
L 269.276935 191.332405 
L 270.362736 191.870682 
L 272.534339 187.118282 
L 273.62014 187.020019 
L 274.705941 185.987595 
L 275.791742 189.167776 
L 276.877543 187.193021 
L 277.963344 185.562248 
L 279.049146 184.942078 
L 280.134947 183.835414 
L 281.220748 184.161267 
L 282.306549 180.508056 
L 283.39235 182.040446 
L 284.478151 182.327347 
L 285.563953 180.310432 
L 286.649754 179.518673 
L 288.821356 180.184742 
L 289.907157 180.00212 
L 290.992958 181.961172 
L 292.07876 183.100463 
L 294.250362 184.810265 
L 295.336163 184.541991 
L 296.421964 185.77172 
L 297.507765 183.118522 
L 298.593566 185.915366 
L 299.679368 187.38174 
L 301.85097 188.739892 
L 302.936771 188.554067 
L 304.022572 186.87305 
L 305.108373 190.160768 
L 306.194175 190.242204 
L 307.279976 190.81371 
L 308.365777 191.09919 
L 309.451578 193.026278 
L 310.537379 192.597078 
L 311.62318 193.011571 
L 312.708981 194.247856 
L 313.794783 192.793505 
L 314.880584 189.682117 
L 315.966385 191.670857 
L 317.052186 191.173386 
L 318.137987 192.758971 
L 319.223788 195.098844 
L 320.30959 194.565113 
L 321.395391 193.773164 
L 322.481192 193.878786 
L 323.566993 196.766583 
L 324.652794 193.997565 
L 325.738595 194.339902 
L 326.824396 192.230603 
L 327.910198 193.208318 
L 328.995999 192.783613 
L 330.0818 193.809903 
L 331.167601 195.80375 
L 332.253402 194.167976 
L 333.339203 188.76244 
L 334.425005 186.921437 
L 335.510806 186.182063 
L 336.596607 186.988542 
L 337.682408 188.169531 
L 339.85401 186.732275 
L 340.939811 185.891326 
L 342.025613 186.752502 
L 344.197215 185.304607 
L 345.283016 182.353167 
L 346.368817 182.07596 
L 347.454618 184.446956 
L 348.54042 184.366577 
L 349.626221 181.789806 
L 350.712022 180.69923 
L 351.797823 180.184017 
L 352.883624 180.53006 
L 353.969425 178.620175 
L 355.055227 181.053159 
L 356.141028 180.257152 
L 357.226829 181.410955 
L 358.31263 182.269169 
L 359.398431 181.909061 
L 360.484232 181.991227 
L 361.570033 182.491842 
L 362.655835 184.039677 
L 363.741636 184.518319 
L 364.827437 184.227286 
L 365.913238 182.665917 
L 366.999039 185.192129 
L 368.08484 186.262778 
L 369.170642 187.711202 
L 370.256443 186.478737 
L 371.342244 187.791884 
L 372.428045 187.472549 
L 374.599647 184.287755 
L 375.685448 183.774954 
L 376.77125 183.513306 
L 377.857051 182.758938 
L 378.942852 182.318406 
L 380.028653 181.216412 
L 381.114454 181.949933 
L 382.200255 180.976708 
L 383.286057 181.611299 
L 384.371858 180.981755 
L 385.457659 180.760775 
L 386.54346 181.36548 
L 387.629261 181.398685 
L 388.715062 181.257943 
L 390.886665 181.30973 
L 391.972466 181.383403 
L 393.058267 180.860697 
L 394.144068 180.736118 
L 396.31567 179.662255 
L 398.487273 179.718945 
L 398.487273 179.718945 
" clip-path="url(#p827ace09bf)" style="fill: none; stroke: #0000ff; stroke-opacity: 0.5; stroke-width: 2; stroke-linecap: square"/>
   </g>
   <g id="line2d_30">
    <path d="M 73.832727 176.259188 
L 74.918528 175.924509 
L 76.00433 176.418522 
L 77.090131 175.370346 
L 78.175932 171.105241 
L 79.261733 173.415215 
L 80.347534 174.681135 
L 81.433335 175.036699 
L 82.519137 175.005053 
L 83.604938 172.752171 
L 84.690739 180.650787 
L 85.77654 181.592119 
L 86.862341 186.080754 
L 87.948142 191.355944 
L 89.033943 192.61222 
L 90.119745 187.522384 
L 91.205546 187.461527 
L 92.291347 196.315377 
L 93.377148 197.335932 
L 94.462949 202.495741 
L 95.54875 201.606248 
L 96.634552 201.201006 
L 97.720353 203.421273 
L 98.806154 204.384022 
L 99.891955 208.485775 
L 100.977756 207.5491 
L 102.063557 207.217205 
L 103.149358 206.36531 
L 104.23516 208.08739 
L 105.320961 205.091423 
L 106.406762 204.857297 
L 107.492563 205.86429 
L 108.578364 204.610288 
L 109.664165 203.125269 
L 110.749967 200.025464 
L 111.835768 202.983277 
L 112.921569 206.54132 
L 114.00737 201.295715 
L 115.093171 199.890523 
L 116.178972 200.899022 
L 117.264773 199.743067 
L 118.350575 202.705345 
L 119.436376 201.210764 
L 120.522177 202.576188 
L 121.607978 202.968191 
L 122.693779 204.035333 
L 123.77958 201.324563 
L 124.865382 199.920976 
L 125.951183 198.934358 
L 127.036984 202.922592 
L 128.122785 202.070941 
L 129.208586 198.76175 
L 130.294387 198.058707 
L 131.380189 201.319732 
L 133.551791 209.478627 
L 134.637592 207.729771 
L 135.723393 213.578934 
L 136.809194 214.10398 
L 137.894995 215.898759 
L 138.980797 218.745103 
L 140.066598 217.038186 
L 141.152399 214.52846 
L 142.2382 208.432803 
L 143.324001 207.926858 
L 144.409802 209.752857 
L 145.495604 213.932473 
L 146.581405 214.247262 
L 147.667206 217.422362 
L 148.753007 214.6032 
L 149.838808 210.569731 
L 150.924609 205.25196 
L 152.01041 204.804824 
L 153.096212 208.980177 
L 154.182013 208.841089 
L 155.267814 204.152527 
L 156.353615 210.807966 
L 157.439416 208.411745 
L 158.525217 208.025661 
L 159.611019 208.50529 
L 160.69682 208.827572 
L 161.782621 204.359216 
L 162.868422 207.947399 
L 163.954223 204.354589 
L 165.040024 204.33446 
L 167.211627 196.001605 
L 168.297428 192.906548 
L 169.383229 193.762278 
L 170.46903 202.80255 
L 171.554831 200.946131 
L 172.640632 197.192859 
L 173.726434 194.985078 
L 174.812235 198.994527 
L 175.898036 196.104501 
L 176.983837 191.359948 
L 178.069638 190.016677 
L 179.155439 194.808634 
L 180.24124 197.584308 
L 181.327042 197.814813 
L 182.412843 195.420393 
L 183.498644 196.648661 
L 184.584445 193.034279 
L 185.670246 196.672091 
L 186.756047 196.259234 
L 187.841849 198.423596 
L 188.92765 194.455626 
L 190.013451 197.078942 
L 191.099252 200.556369 
L 192.185053 197.252058 
L 193.270854 197.812255 
L 194.356656 200.233656 
L 195.442457 197.999498 
L 196.528258 200.900744 
L 197.614059 204.189426 
L 198.69986 200.259107 
L 199.785661 199.146817 
L 200.871462 200.774604 
L 201.957264 208.720432 
L 203.043065 207.901837 
L 204.128866 208.109205 
L 205.214667 205.310663 
L 206.300468 203.932704 
L 207.386269 208.939152 
L 208.472071 211.996566 
L 209.557872 208.508672 
L 210.643673 205.658737 
L 211.729474 204.337058 
L 212.815275 205.547713 
L 213.901076 205.424054 
L 214.986877 201.669762 
L 216.072679 203.918614 
L 218.244281 212.171255 
L 219.330082 210.532238 
L 220.415883 206.985387 
L 221.501684 206.944267 
L 222.587486 206.575761 
L 223.673287 208.493015 
L 224.759088 207.626961 
L 225.844889 209.488444 
L 228.016491 212.060047 
L 229.102292 210.584029 
L 230.188094 207.685637 
L 231.273895 208.312453 
L 232.359696 206.736854 
L 233.445497 208.839726 
L 234.531298 207.481423 
L 235.617099 211.36372 
L 236.702901 213.081874 
L 237.788702 211.407716 
L 238.874503 214.386609 
L 239.960304 216.356596 
L 241.046105 210.66336 
L 242.131906 209.506043 
L 243.217708 206.878323 
L 244.303509 201.427024 
L 245.38931 197.311127 
L 246.475111 192.564048 
L 247.560912 192.793533 
L 248.646713 191.519677 
L 249.732514 192.469761 
L 250.818316 189.394261 
L 251.904117 189.025244 
L 252.989918 187.825264 
L 254.075719 189.511564 
L 255.16152 188.358798 
L 256.247321 191.83694 
L 258.418924 194.480215 
L 259.504725 195.186588 
L 260.590526 197.54974 
L 261.676327 196.60124 
L 262.762128 197.742482 
L 263.847929 192.601466 
L 264.933731 194.797264 
L 266.019532 192.328098 
L 267.105333 193.180252 
L 268.191134 193.205207 
L 269.276935 190.088949 
L 270.362736 191.877117 
L 271.448538 192.686136 
L 272.534339 193.781333 
L 273.62014 192.387397 
L 274.705941 192.97825 
L 275.791742 191.740445 
L 277.963344 194.475247 
L 279.049146 194.693395 
L 280.134947 196.469076 
L 281.220748 196.176222 
L 282.306549 196.65031 
L 283.39235 196.037472 
L 284.478151 196.67211 
L 285.563953 195.490069 
L 286.649754 194.8345 
L 287.735555 195.45131 
L 288.821356 195.755217 
L 289.907157 195.50682 
L 290.992958 198.502747 
L 292.07876 198.8324 
L 293.164561 201.341911 
L 294.250362 203.275727 
L 295.336163 206.158099 
L 296.421964 205.74143 
L 297.507765 203.232617 
L 298.593566 202.725886 
L 299.679368 202.52935 
L 300.765169 203.357347 
L 301.85097 202.584658 
L 302.936771 203.473926 
L 304.022572 206.794718 
L 305.108373 207.469194 
L 306.194175 205.749445 
L 307.279976 204.75554 
L 308.365777 204.289913 
L 309.451578 206.367291 
L 310.537379 206.968299 
L 311.62318 208.474464 
L 312.708981 205.718238 
L 313.794783 206.106796 
L 314.880584 207.833404 
L 315.966385 209.107305 
L 317.052186 208.697436 
L 318.137987 207.51795 
L 319.223788 208.368141 
L 320.30959 208.722858 
L 321.395391 209.327931 
L 322.481192 206.435329 
L 323.566993 205.56643 
L 324.652794 202.996867 
L 325.738595 204.942667 
L 326.824396 203.636855 
L 328.995999 205.054429 
L 330.0818 204.889588 
L 331.167601 203.445649 
L 332.253402 201.469617 
L 333.339203 199.105086 
L 335.510806 199.770237 
L 336.596607 199.291672 
L 337.682408 199.242537 
L 338.768209 200.237584 
L 339.85401 200.807091 
L 340.939811 201.587365 
L 343.111414 201.271172 
L 344.197215 201.723995 
L 345.283016 200.667688 
L 346.368817 199.247179 
L 347.454618 196.936338 
L 348.54042 197.401841 
L 349.626221 199.152806 
L 351.797823 199.912745 
L 352.883624 198.90354 
L 353.969425 198.461008 
L 355.055227 199.48161 
L 356.141028 199.479827 
L 357.226829 198.025812 
L 358.31263 197.242238 
L 359.398431 196.236002 
L 360.484232 196.473568 
L 361.570033 197.092987 
L 362.655835 197.360356 
L 363.741636 198.830327 
L 365.913238 196.689862 
L 366.999039 197.044376 
L 368.08484 198.397188 
L 369.170642 200.280422 
L 370.256443 199.525933 
L 371.342244 200.720931 
L 372.428045 200.786995 
L 373.513846 201.237539 
L 374.599647 201.258761 
L 375.685448 200.84791 
L 376.77125 199.922172 
L 377.857051 200.847281 
L 378.942852 200.302434 
L 380.028653 199.151243 
L 381.114454 199.207504 
L 382.200255 200.466712 
L 383.286057 200.281178 
L 384.371858 199.947192 
L 385.457659 199.270925 
L 386.54346 200.802583 
L 388.715062 198.791666 
L 389.800863 199.050927 
L 390.886665 198.433947 
L 393.058267 198.907245 
L 394.144068 199.549387 
L 395.229869 199.144441 
L 396.31567 199.698053 
L 397.401472 202.095596 
L 398.487273 183.846321 
L 398.487273 183.846321 
" clip-path="url(#p827ace09bf)" style="fill: none; stroke: #000000; stroke-opacity: 0.5; stroke-width: 2; stroke-linecap: square"/>
   </g>
   <g id="line2d_31">
    <path d="M 73.832727 150.668446 
L 74.918528 148.908703 
L 76.00433 152.886704 
L 77.090131 153.800984 
L 78.175932 151.586721 
L 79.261733 148.270286 
L 80.347534 148.115515 
L 81.433335 150.851209 
L 83.604938 148.31947 
L 84.690739 143.501089 
L 85.77654 140.551223 
L 86.862341 145.098311 
L 87.948142 145.128397 
L 89.033943 140.568442 
L 90.119745 148.869865 
L 91.205546 152.436724 
L 92.291347 154.688212 
L 93.377148 160.216783 
L 94.462949 155.594286 
L 95.54875 155.665417 
L 96.634552 156.535357 
L 97.720353 153.197271 
L 98.806154 156.527546 
L 99.891955 156.726665 
L 100.977756 157.7263 
L 103.149358 157.178904 
L 104.23516 158.867611 
L 105.320961 160.065705 
L 106.406762 159.077247 
L 107.492563 159.410303 
L 108.578364 161.137463 
L 109.664165 163.267642 
L 110.749967 169.339824 
L 111.835768 170.611106 
L 112.921569 174.519466 
L 114.00737 171.658008 
L 115.093171 173.519881 
L 116.178972 173.718494 
L 117.264773 177.987975 
L 118.350575 173.734257 
L 119.436376 176.075557 
L 120.522177 178.99627 
L 121.607978 178.318884 
L 122.693779 179.936343 
L 123.77958 179.871092 
L 124.865382 182.599075 
L 125.951183 181.017835 
L 127.036984 182.624694 
L 128.122785 186.127939 
L 129.208586 188.866972 
L 130.294387 187.750822 
L 131.380189 187.671529 
L 132.46599 190.416787 
L 133.551791 180.806077 
L 134.637592 177.618706 
L 135.723393 177.707681 
L 136.809194 177.480269 
L 137.894995 174.659428 
L 138.980797 175.066251 
L 140.066598 173.662438 
L 141.152399 172.731638 
L 142.2382 169.501934 
L 143.324001 167.644543 
L 144.409802 172.215626 
L 145.495604 170.577765 
L 146.581405 174.474667 
L 147.667206 176.06071 
L 148.753007 173.415383 
L 149.838808 174.722602 
L 150.924609 185.729656 
L 152.01041 185.318486 
L 153.096212 188.733907 
L 154.182013 190.377656 
L 156.353615 185.810564 
L 157.439416 184.132406 
L 158.525217 183.513856 
L 159.611019 183.633085 
L 160.69682 184.995258 
L 161.782621 183.537307 
L 162.868422 179.605423 
L 163.954223 183.061498 
L 165.040024 182.685322 
L 166.125825 184.883482 
L 167.211627 187.917397 
L 168.297428 187.039687 
L 169.383229 184.480467 
L 170.46903 185.638411 
L 171.554831 188.344574 
L 172.640632 190.4584 
L 173.726434 191.225649 
L 174.812235 189.551702 
L 175.898036 193.403327 
L 176.983837 193.553593 
L 178.069638 195.169803 
L 179.155439 198.769268 
L 180.24124 197.703547 
L 182.412843 187.193227 
L 183.498644 181.815089 
L 184.584445 181.685232 
L 185.670246 181.854 
L 187.841849 181.149147 
L 188.92765 183.371603 
L 190.013451 184.873427 
L 191.099252 184.500931 
L 192.185053 189.778726 
L 193.270854 193.730514 
L 194.356656 188.400627 
L 195.442457 185.127165 
L 196.528258 185.026696 
L 197.614059 186.283311 
L 198.69986 189.028727 
L 199.785661 183.899115 
L 200.871462 185.746139 
L 201.957264 183.894465 
L 203.043065 182.988712 
L 204.128866 180.038477 
L 205.214667 180.933349 
L 206.300468 178.970641 
L 207.386269 176.011449 
L 208.472071 168.771569 
L 209.557872 171.127906 
L 210.643673 164.930132 
L 211.729474 163.7554 
L 213.901076 162.808307 
L 214.986877 160.203865 
L 216.072679 158.617429 
L 217.15848 158.311433 
L 218.244281 153.531925 
L 219.330082 154.228999 
L 220.415883 157.085639 
L 221.501684 156.663454 
L 222.587486 159.17002 
L 223.673287 155.321687 
L 224.759088 155.476313 
L 226.93069 157.248249 
L 229.102292 148.743087 
L 230.188094 148.038454 
L 231.273895 148.782276 
L 233.445497 153.785336 
L 234.531298 148.848566 
L 235.617099 150.059556 
L 236.702901 155.529799 
L 238.874503 159.427292 
L 239.960304 165.150893 
L 241.046105 167.518405 
L 242.131906 164.837843 
L 243.217708 164.223707 
L 245.38931 168.095361 
L 246.475111 168.330608 
L 247.560912 163.968716 
L 248.646713 161.591618 
L 249.732514 162.049942 
L 250.818316 156.545901 
L 251.904117 156.194689 
L 252.989918 159.395013 
L 254.075719 155.540518 
L 255.16152 155.856823 
L 256.247321 156.333679 
L 257.333123 156.190295 
L 258.418924 154.402274 
L 259.504725 155.604725 
L 260.590526 152.498073 
L 261.676327 151.137089 
L 262.762128 154.725276 
L 263.847929 150.423774 
L 264.933731 152.665906 
L 266.019532 150.003594 
L 268.191134 151.091376 
L 269.276935 149.959733 
L 270.362736 147.697183 
L 271.448538 152.692022 
L 272.534339 150.69346 
L 273.62014 153.967169 
L 275.791742 153.387515 
L 276.877543 156.900929 
L 279.049146 150.653482 
L 280.134947 149.552261 
L 281.220748 147.83898 
L 282.306549 144.786588 
L 283.39235 143.315709 
L 284.478151 143.30553 
L 285.563953 140.937083 
L 286.649754 141.17492 
L 287.735555 141.798396 
L 288.821356 144.655381 
L 289.907157 142.881315 
L 290.992958 142.767392 
L 292.07876 143.482414 
L 293.164561 141.08605 
L 294.250362 138.268254 
L 295.336163 140.428054 
L 296.421964 145.140978 
L 297.507765 146.049124 
L 298.593566 140.683882 
L 299.679368 141.555108 
L 300.765169 143.949832 
L 301.85097 146.017469 
L 302.936771 146.488913 
L 304.022572 145.845935 
L 305.108373 145.56789 
L 306.194175 147.736117 
L 307.279976 146.775926 
L 308.365777 148.501464 
L 309.451578 146.98576 
L 310.537379 142.948801 
L 311.62318 140.819291 
L 312.708981 139.518205 
L 313.794783 139.194389 
L 314.880584 140.220504 
L 315.966385 139.94477 
L 317.052186 138.880893 
L 318.137987 143.268822 
L 319.223788 141.243918 
L 320.30959 141.957471 
L 321.395391 143.592543 
L 322.481192 146.121636 
L 323.566993 144.964452 
L 324.652794 144.027802 
L 325.738595 143.586259 
L 326.824396 147.694442 
L 327.910198 146.306884 
L 328.995999 146.103557 
L 330.0818 147.048105 
L 331.167601 148.614033 
L 332.253402 147.900499 
L 333.339203 151.360924 
L 334.425005 149.289363 
L 335.510806 150.481829 
L 336.596607 153.72789 
L 337.682408 153.178287 
L 338.768209 153.052772 
L 339.85401 150.716703 
L 340.939811 147.422209 
L 342.025613 148.270768 
L 343.111414 148.603292 
L 344.197215 147.987931 
L 346.368817 147.382044 
L 347.454618 148.12477 
L 348.54042 145.010877 
L 349.626221 144.765427 
L 350.712022 147.547554 
L 351.797823 146.226065 
L 352.883624 147.007913 
L 353.969425 146.373628 
L 355.055227 144.886815 
L 356.141028 147.127873 
L 357.226829 144.442572 
L 358.31263 146.556339 
L 359.398431 147.854828 
L 360.484232 148.235283 
L 361.570033 147.238867 
L 362.655835 146.4485 
L 363.741636 146.699916 
L 364.827437 146.115874 
L 365.913238 146.086002 
L 366.999039 146.173812 
L 368.08484 148.181982 
L 369.170642 149.425998 
L 370.256443 148.475201 
L 371.342244 148.214016 
L 373.513846 148.11045 
L 374.599647 148.947741 
L 375.685448 148.450848 
L 376.77125 148.341513 
L 378.942852 150.731145 
L 380.028653 149.563998 
L 381.114454 149.66698 
L 382.200255 150.27954 
L 383.286057 149.759473 
L 384.371858 150.786848 
L 385.457659 150.41437 
L 386.54346 150.505796 
L 387.629261 150.405165 
L 388.715062 149.97991 
L 389.800863 150.775959 
L 390.886665 150.878943 
L 393.058267 149.881356 
L 394.144068 149.612728 
L 395.229869 149.759048 
L 396.31567 149.705361 
L 397.401472 148.757325 
L 398.487273 158.223011 
L 398.487273 158.223011 
" clip-path="url(#p827ace09bf)" style="fill: none; stroke: #000000; stroke-opacity: 0.5; stroke-width: 2; stroke-linecap: square"/>
   </g>
   <g id="line2d_32">
    <path d="M 73.832727 215.364314 
L 74.918528 211.142533 
L 76.00433 209.699581 
L 77.090131 215.528444 
L 78.175932 220.25185 
L 79.261733 215.282543 
L 80.347534 211.09227 
L 81.433335 212.629947 
L 82.519137 211.321582 
L 83.604938 211.614421 
L 84.690739 211.108063 
L 85.77654 215.107121 
L 86.862341 212.355566 
L 87.948142 207.995329 
L 89.033943 201.476261 
L 90.119745 202.407539 
L 91.205546 207.808606 
L 92.291347 208.079043 
L 93.377148 202.296474 
L 94.462949 191.948169 
L 97.720353 197.392733 
L 99.891955 205.255701 
L 102.063557 212.545211 
L 103.149358 208.058328 
L 104.23516 205.062938 
L 105.320961 200.535219 
L 106.406762 201.427666 
L 107.492563 203.619295 
L 108.578364 202.626961 
L 109.664165 202.218284 
L 110.749967 199.531393 
L 111.835768 203.468359 
L 112.921569 206.209066 
L 114.00737 208.268615 
L 115.093171 205.80768 
L 116.178972 209.957188 
L 117.264773 209.137307 
L 118.350575 208.844998 
L 119.436376 210.013818 
L 120.522177 212.120849 
L 121.607978 213.018873 
L 122.693779 214.075413 
L 123.77958 209.847622 
L 124.865382 204.3851 
L 125.951183 199.767146 
L 128.122785 207.905481 
L 129.208586 210.27907 
L 130.294387 212.317084 
L 131.380189 207.790164 
L 132.46599 209.679616 
L 133.551791 210.502053 
L 134.637592 206.725955 
L 135.723393 203.854411 
L 136.809194 207.487686 
L 137.894995 207.152366 
L 138.980797 205.40611 
L 140.066598 207.764551 
L 141.152399 208.385122 
L 142.2382 212.781925 
L 143.324001 222.630296 
L 144.409802 223.610098 
L 145.495604 218.801241 
L 146.581405 220.653983 
L 147.667206 217.377749 
L 148.753007 218.256454 
L 149.838808 223.460354 
L 150.924609 226.69559 
L 152.01041 226.97504 
L 153.096212 215.948224 
L 154.182013 214.704268 
L 155.267814 219.559873 
L 156.353615 212.221897 
L 157.439416 215.879537 
L 158.525217 216.290147 
L 159.611019 210.711092 
L 160.69682 208.034287 
L 161.782621 206.039662 
L 162.868422 203.258372 
L 163.954223 205.276984 
L 165.040024 203.339639 
L 166.125825 203.911327 
L 167.211627 207.887519 
L 168.297428 208.570842 
L 169.383229 208.178437 
L 170.46903 210.048291 
L 171.554831 211.461164 
L 172.640632 206.645406 
L 173.726434 210.242256 
L 174.812235 204.272001 
L 175.898036 199.70386 
L 176.983837 200.18514 
L 178.069638 201.958356 
L 179.155439 199.321743 
L 180.24124 198.599208 
L 181.327042 195.62946 
L 182.412843 196.447525 
L 183.498644 198.230267 
L 184.584445 195.96232 
L 185.670246 197.237427 
L 186.756047 194.879902 
L 187.841849 193.470857 
L 188.92765 191.49332 
L 190.013451 189.277369 
L 191.099252 190.104166 
L 192.185053 190.216898 
L 193.270854 188.956699 
L 194.356656 188.863931 
L 195.442457 190.802354 
L 196.528258 191.173407 
L 197.614059 191.228514 
L 198.69986 190.237948 
L 199.785661 187.050525 
L 200.871462 190.045028 
L 201.957264 185.950945 
L 203.043065 184.684267 
L 204.128866 182.646267 
L 205.214667 183.23785 
L 206.300468 183.975377 
L 208.472071 181.979528 
L 209.557872 180.646799 
L 210.643673 180.807278 
L 211.729474 187.549097 
L 212.815275 186.816255 
L 213.901076 187.81701 
L 214.986877 189.757984 
L 216.072679 186.955608 
L 217.15848 183.276859 
L 218.244281 185.331964 
L 219.330082 186.05724 
L 220.415883 190.977357 
L 221.501684 194.123055 
L 222.587486 195.52408 
L 223.673287 191.750653 
L 224.759088 194.3626 
L 225.844889 197.712407 
L 226.93069 198.212664 
L 228.016491 200.009909 
L 229.102292 202.28218 
L 230.188094 203.502681 
L 231.273895 201.4092 
L 232.359696 206.817248 
L 233.445497 208.342015 
L 234.531298 207.656275 
L 235.617099 210.714409 
L 236.702901 206.829374 
L 237.788702 209.82476 
L 238.874503 207.477171 
L 239.960304 205.738785 
L 241.046105 206.922686 
L 242.131906 206.103716 
L 243.217708 207.496428 
L 244.303509 210.076823 
L 245.38931 210.450004 
L 247.560912 206.094154 
L 249.732514 197.181881 
L 250.818316 198.343916 
L 251.904117 198.810152 
L 252.989918 199.635161 
L 254.075719 201.152908 
L 256.247321 205.324519 
L 257.333123 206.77708 
L 258.418924 208.787676 
L 260.590526 207.626875 
L 261.676327 207.543181 
L 262.762128 207.814863 
L 263.847929 206.712615 
L 264.933731 208.604908 
L 266.019532 211.081219 
L 267.105333 210.188686 
L 268.191134 213.479804 
L 269.276935 210.560487 
L 270.362736 212.658977 
L 271.448538 212.540984 
L 272.534339 210.288548 
L 273.62014 211.602754 
L 274.705941 213.527485 
L 275.791742 214.64712 
L 276.877543 211.069839 
L 277.963344 209.698872 
L 279.049146 207.990128 
L 280.134947 207.573804 
L 281.220748 206.185239 
L 282.306549 210.653202 
L 283.39235 210.864939 
L 284.478151 205.332506 
L 285.563953 203.516231 
L 286.649754 202.176033 
L 287.735555 201.883853 
L 288.821356 201.17219 
L 289.907157 202.976584 
L 290.992958 208.352533 
L 292.07876 206.869745 
L 293.164561 206.88388 
L 294.250362 207.584123 
L 295.336163 209.585188 
L 296.421964 207.75661 
L 297.507765 210.14669 
L 298.593566 209.927037 
L 300.765169 212.027963 
L 301.85097 210.812258 
L 302.936771 204.743068 
L 304.022572 203.275448 
L 305.108373 203.410387 
L 306.194175 203.014615 
L 307.279976 203.765566 
L 308.365777 204.347447 
L 309.451578 202.921082 
L 311.62318 201.171127 
L 312.708981 201.142672 
L 313.794783 200.11244 
L 314.880584 197.717353 
L 315.966385 201.715085 
L 318.137987 201.056092 
L 320.30959 196.456432 
L 321.395391 197.63851 
L 322.481192 199.617345 
L 323.566993 197.738866 
L 324.652794 198.491094 
L 325.738595 197.470617 
L 326.824396 198.556455 
L 327.910198 195.906414 
L 328.995999 193.951336 
L 330.0818 193.864928 
L 331.167601 192.050656 
L 332.253402 194.357729 
L 333.339203 193.791898 
L 334.425005 196.93634 
L 335.510806 194.600861 
L 336.596607 193.876578 
L 337.682408 194.01462 
L 338.768209 193.535897 
L 340.939811 196.983624 
L 342.025613 196.525258 
L 343.111414 197.025252 
L 344.197215 199.091546 
L 345.283016 197.677303 
L 346.368817 198.099589 
L 347.454618 200.899781 
L 348.54042 200.561291 
L 349.626221 201.217366 
L 350.712022 199.868182 
L 351.797823 200.35632 
L 352.883624 201.762899 
L 353.969425 203.429199 
L 356.141028 203.264611 
L 357.226829 201.004321 
L 358.31263 199.67335 
L 359.398431 199.787599 
L 360.484232 199.685361 
L 361.570033 199.933832 
L 363.741636 202.353693 
L 364.827437 201.485987 
L 365.913238 200.425471 
L 368.08484 202.420852 
L 369.170642 201.500347 
L 370.256443 199.70534 
L 371.342244 200.578126 
L 372.428045 200.036167 
L 373.513846 200.159301 
L 374.599647 200.869962 
L 375.685448 199.386248 
L 376.77125 199.764194 
L 377.857051 199.781752 
L 378.942852 200.45582 
L 380.028653 199.471157 
L 381.114454 200.237407 
L 384.371858 199.050155 
L 385.457659 199.80054 
L 387.629261 199.923629 
L 388.715062 198.60613 
L 389.800863 199.357617 
L 390.886665 198.885749 
L 391.972466 198.969092 
L 393.058267 198.704821 
L 394.144068 198.173514 
L 395.229869 198.625136 
L 396.31567 198.278693 
L 397.401472 197.220375 
L 398.487273 204.928952 
L 398.487273 204.928952 
" clip-path="url(#p827ace09bf)" style="fill: none; stroke: #000000; stroke-opacity: 0.5; stroke-width: 2; stroke-linecap: square"/>
   </g>
   <g id="line2d_33">
    <path d="M 73.832727 213.157133 
L 74.918528 209.545703 
L 76.00433 204.393346 
L 77.090131 203.901753 
L 78.175932 206.344218 
L 79.261733 206.931398 
L 80.347534 202.72908 
L 81.433335 202.160394 
L 82.519137 204.588886 
L 83.604938 199.50893 
L 84.690739 202.074576 
L 85.77654 199.105648 
L 86.862341 194.400192 
L 87.948142 194.180368 
L 89.033943 189.967011 
L 90.119745 191.76647 
L 91.205546 188.958497 
L 92.291347 185.610149 
L 93.377148 184.896238 
L 94.462949 188.099201 
L 95.54875 190.239316 
L 96.634552 188.335393 
L 97.720353 185.039531 
L 98.806154 187.323736 
L 99.891955 186.867556 
L 100.977756 189.149822 
L 102.063557 190.668799 
L 103.149358 188.33434 
L 104.23516 190.04389 
L 105.320961 194.44642 
L 106.406762 195.020541 
L 107.492563 192.212119 
L 108.578364 194.657839 
L 109.664165 188.654747 
L 110.749967 190.642601 
L 111.835768 189.54838 
L 112.921569 192.566205 
L 114.00737 192.071809 
L 115.093171 187.556496 
L 116.178972 191.896807 
L 117.264773 193.020231 
L 118.350575 194.856213 
L 119.436376 197.036749 
L 120.522177 197.637128 
L 122.693779 201.763584 
L 123.77958 202.742573 
L 124.865382 203.336575 
L 125.951183 198.897039 
L 127.036984 204.488358 
L 128.122785 205.443796 
L 129.208586 203.051927 
L 130.294387 205.012461 
L 132.46599 193.897055 
L 133.551791 195.235935 
L 134.637592 192.902996 
L 135.723393 193.452562 
L 136.809194 193.741054 
L 137.894995 191.868486 
L 138.980797 192.03021 
L 140.066598 191.810166 
L 141.152399 187.511963 
L 142.2382 189.142456 
L 143.324001 184.764429 
L 144.409802 180.933626 
L 145.495604 186.059072 
L 146.581405 180.254551 
L 147.667206 182.876369 
L 148.753007 183.270657 
L 149.838808 184.233036 
L 150.924609 183.120246 
L 152.01041 178.842845 
L 153.096212 175.196617 
L 155.267814 174.412197 
L 156.353615 176.937633 
L 157.439416 176.060015 
L 158.525217 178.166953 
L 159.611019 178.282777 
L 160.69682 173.552512 
L 161.782621 178.864574 
L 162.868422 177.716415 
L 163.954223 176.244746 
L 165.040024 169.665267 
L 166.125825 170.44998 
L 167.211627 170.151155 
L 168.297428 170.555421 
L 169.383229 169.40889 
L 170.46903 168.763553 
L 171.554831 169.740996 
L 172.640632 171.414305 
L 173.726434 170.284145 
L 174.812235 175.314575 
L 175.898036 173.889683 
L 176.983837 172.989597 
L 178.069638 170.761695 
L 179.155439 174.904255 
L 180.24124 176.986109 
L 181.327042 179.535145 
L 182.412843 179.063637 
L 184.584445 177.419061 
L 185.670246 175.744509 
L 186.756047 175.965367 
L 187.841849 174.764503 
L 188.92765 181.170482 
L 190.013451 176.277262 
L 191.099252 181.430234 
L 193.270854 173.334657 
L 194.356656 166.521002 
L 195.442457 163.488144 
L 196.528258 164.187427 
L 197.614059 166.202012 
L 198.69986 164.421321 
L 199.785661 164.167371 
L 200.871462 162.861973 
L 201.957264 168.388185 
L 203.043065 166.693098 
L 204.128866 167.997319 
L 205.214667 170.968796 
L 206.300468 166.865845 
L 207.386269 168.071026 
L 208.472071 169.549123 
L 209.557872 168.627512 
L 210.643673 165.783866 
L 211.729474 165.554781 
L 212.815275 168.075383 
L 213.901076 166.605319 
L 214.986877 164.516424 
L 216.072679 166.36864 
L 217.15848 165.957786 
L 218.244281 169.790657 
L 219.330082 165.714879 
L 220.415883 163.684641 
L 221.501684 160.94683 
L 222.587486 163.322304 
L 223.673287 164.903473 
L 224.759088 166.983351 
L 225.844889 167.632731 
L 228.016491 166.781233 
L 229.102292 169.682321 
L 230.188094 167.720245 
L 231.273895 170.116891 
L 232.359696 170.652835 
L 233.445497 171.327653 
L 234.531298 173.286121 
L 235.617099 171.923592 
L 236.702901 174.999198 
L 237.788702 174.867679 
L 238.874503 171.246701 
L 239.960304 172.885866 
L 241.046105 172.320057 
L 242.131906 172.946824 
L 243.217708 174.814142 
L 244.303509 174.197517 
L 245.38931 169.534225 
L 246.475111 170.6659 
L 247.560912 166.203333 
L 248.646713 160.486108 
L 249.732514 163.6681 
L 250.818316 162.270799 
L 251.904117 161.737656 
L 252.989918 161.864223 
L 255.16152 167.037854 
L 256.247321 167.67926 
L 257.333123 171.992057 
L 258.418924 170.05394 
L 259.504725 169.31442 
L 260.590526 169.821242 
L 261.676327 167.024925 
L 262.762128 165.828976 
L 263.847929 167.0121 
L 264.933731 166.34963 
L 266.019532 166.294882 
L 267.105333 164.425191 
L 268.191134 167.147083 
L 269.276935 164.746657 
L 270.362736 158.731719 
L 271.448538 163.094203 
L 272.534339 166.55784 
L 273.62014 167.868585 
L 274.705941 166.668727 
L 275.791742 169.068212 
L 276.877543 164.845043 
L 277.963344 163.663263 
L 279.049146 162.762623 
L 280.134947 162.812653 
L 281.220748 162.993714 
L 282.306549 166.317528 
L 283.39235 162.419405 
L 284.478151 161.893593 
L 285.563953 162.106354 
L 286.649754 165.398526 
L 287.735555 165.710595 
L 288.821356 163.186822 
L 289.907157 161.947048 
L 290.992958 159.010148 
L 292.07876 158.541684 
L 293.164561 156.833106 
L 294.250362 158.002919 
L 295.336163 157.915998 
L 296.421964 153.645498 
L 297.507765 152.676702 
L 298.593566 152.986588 
L 299.679368 154.888621 
L 300.765169 152.565279 
L 301.85097 152.787537 
L 304.022572 152.559145 
L 305.108373 152.660139 
L 306.194175 150.085447 
L 307.279976 154.775072 
L 308.365777 151.305406 
L 309.451578 151.489151 
L 310.537379 153.881474 
L 311.62318 151.287476 
L 312.708981 155.055089 
L 313.794783 153.807587 
L 314.880584 154.411094 
L 315.966385 151.52834 
L 317.052186 151.150355 
L 318.137987 152.311852 
L 319.223788 153.072695 
L 320.30959 152.171062 
L 321.395391 148.526676 
L 322.481192 148.62662 
L 323.566993 151.678974 
L 324.652794 152.788473 
L 325.738595 152.535041 
L 326.824396 152.105978 
L 327.910198 150.864712 
L 328.995999 152.997504 
L 330.0818 151.515732 
L 331.167601 153.382721 
L 332.253402 152.774454 
L 333.339203 154.476779 
L 334.425005 155.204013 
L 335.510806 154.624563 
L 336.596607 152.674289 
L 337.682408 154.150791 
L 338.768209 154.689886 
L 339.85401 156.563417 
L 340.939811 156.204539 
L 342.025613 157.242398 
L 344.197215 157.560635 
L 345.283016 157.909568 
L 346.368817 157.664168 
L 347.454618 156.77715 
L 348.54042 156.476723 
L 349.626221 155.005984 
L 350.712022 154.537222 
L 351.797823 153.205651 
L 352.883624 152.513265 
L 353.969425 153.203658 
L 355.055227 152.774662 
L 356.141028 153.514959 
L 357.226829 152.612256 
L 358.31263 150.331057 
L 359.398431 149.776484 
L 360.484232 148.568228 
L 361.570033 148.708747 
L 362.655835 150.245484 
L 363.741636 149.551639 
L 364.827437 150.119494 
L 365.913238 149.349241 
L 366.999039 149.304721 
L 368.08484 149.569697 
L 369.170642 150.226245 
L 370.256443 150.234257 
L 371.342244 148.552666 
L 372.428045 148.89024 
L 373.513846 147.766181 
L 374.599647 148.10441 
L 375.685448 148.2568 
L 376.77125 148.598495 
L 377.857051 147.759101 
L 378.942852 148.567071 
L 380.028653 149.10006 
L 381.114454 149.812658 
L 382.200255 150.023801 
L 383.286057 149.536279 
L 385.457659 150.717661 
L 386.54346 149.546779 
L 387.629261 149.357733 
L 388.715062 150.257674 
L 389.800863 150.67245 
L 390.886665 150.155212 
L 391.972466 150.781007 
L 393.058267 151.119855 
L 394.144068 150.777176 
L 395.229869 150.784966 
L 396.31567 150.540124 
L 397.401472 152.025652 
L 398.487273 144.908668 
L 398.487273 144.908668 
" clip-path="url(#p827ace09bf)" style="fill: none; stroke: #000000; stroke-opacity: 0.5; stroke-width: 2; stroke-linecap: square"/>
   </g>
   <g id="line2d_34">
    <path d="M 73.832727 183.073912 
L 74.918528 176.474056 
L 76.00433 181.077001 
L 77.090131 187.042979 
L 78.175932 182.829464 
L 79.261733 186.479514 
L 80.347534 191.258495 
L 81.433335 184.928541 
L 82.519137 180.670289 
L 83.604938 182.250236 
L 84.690739 184.882876 
L 85.77654 185.885532 
L 86.862341 185.431344 
L 87.948142 189.906797 
L 89.033943 184.989432 
L 90.119745 186.578786 
L 91.205546 187.562371 
L 92.291347 185.146171 
L 93.377148 183.299698 
L 94.462949 180.803198 
L 95.54875 185.35992 
L 97.720353 184.658247 
L 98.806154 185.817012 
L 99.891955 179.023909 
L 102.063557 175.837299 
L 103.149358 174.885864 
L 104.23516 182.219579 
L 105.320961 178.589065 
L 106.406762 177.600191 
L 107.492563 175.882256 
L 108.578364 181.939009 
L 109.664165 181.959569 
L 110.749967 183.176536 
L 111.835768 185.659451 
L 112.921569 183.504073 
L 114.00737 185.824029 
L 115.093171 181.59255 
L 116.178972 173.746323 
L 117.264773 172.600374 
L 118.350575 169.408121 
L 119.436376 173.567058 
L 122.693779 181.091155 
L 123.77958 181.808458 
L 124.865382 178.232141 
L 125.951183 177.146114 
L 127.036984 173.7717 
L 128.122785 172.268103 
L 129.208586 164.593442 
L 130.294387 162.900132 
L 131.380189 167.611217 
L 132.46599 167.639641 
L 133.551791 173.272927 
L 134.637592 169.788484 
L 135.723393 173.535933 
L 136.809194 171.826996 
L 137.894995 172.300637 
L 138.980797 175.010748 
L 141.152399 166.66655 
L 142.2382 169.741929 
L 143.324001 163.497377 
L 144.409802 160.20651 
L 145.495604 158.979411 
L 146.581405 160.885857 
L 147.667206 162.024501 
L 148.753007 160.052724 
L 149.838808 159.942858 
L 150.924609 160.749344 
L 152.01041 160.313788 
L 153.096212 171.792407 
L 154.182013 171.993001 
L 155.267814 170.323582 
L 156.353615 169.926705 
L 158.525217 180.435836 
L 159.611019 180.096866 
L 160.69682 177.353691 
L 161.782621 174.224975 
L 162.868422 171.836855 
L 163.954223 171.717521 
L 165.040024 166.505421 
L 166.125825 171.132214 
L 167.211627 174.011952 
L 168.297428 173.265652 
L 169.383229 174.888982 
L 170.46903 176.858612 
L 171.554831 174.725964 
L 172.640632 173.089904 
L 173.726434 177.177207 
L 174.812235 173.266222 
L 175.898036 173.165912 
L 176.983837 175.817609 
L 178.069638 177.698391 
L 179.155439 173.004188 
L 180.24124 169.696257 
L 181.327042 170.182097 
L 182.412843 169.785047 
L 184.584445 167.255101 
L 185.670246 168.521887 
L 186.756047 170.45853 
L 187.841849 164.985567 
L 188.92765 162.289575 
L 190.013451 163.899082 
L 191.099252 163.703683 
L 192.185053 163.207634 
L 193.270854 163.115394 
L 194.356656 166.248011 
L 195.442457 165.784251 
L 196.528258 164.900218 
L 197.614059 165.945127 
L 199.785661 161.721694 
L 200.871462 162.076083 
L 201.957264 165.948741 
L 203.043065 166.742799 
L 204.128866 167.382086 
L 205.214667 165.515223 
L 206.300468 164.01907 
L 207.386269 165.330101 
L 208.472071 159.925405 
L 209.557872 162.487857 
L 210.643673 165.76826 
L 211.729474 161.813844 
L 212.815275 164.197613 
L 213.901076 159.728624 
L 214.986877 160.270382 
L 216.072679 161.446596 
L 217.15848 160.184599 
L 218.244281 163.263667 
L 219.330082 166.897367 
L 220.415883 164.916795 
L 221.501684 164.673484 
L 222.587486 160.710887 
L 224.759088 157.305619 
L 225.844889 155.39688 
L 226.93069 160.265355 
L 228.016491 158.017158 
L 229.102292 160.899692 
L 230.188094 161.636359 
L 231.273895 159.590298 
L 232.359696 158.401421 
L 233.445497 158.522612 
L 234.531298 158.852465 
L 235.617099 157.443243 
L 236.702901 155.43019 
L 237.788702 156.88273 
L 238.874503 156.718 
L 239.960304 153.881753 
L 241.046105 156.812054 
L 242.131906 156.73556 
L 243.217708 154.408976 
L 244.303509 154.441415 
L 245.38931 158.044064 
L 246.475111 155.31693 
L 247.560912 155.828602 
L 248.646713 155.5876 
L 249.732514 157.976839 
L 250.818316 156.251532 
L 251.904117 153.59458 
L 252.989918 148.009911 
L 254.075719 147.245434 
L 255.16152 145.075079 
L 256.247321 146.000064 
L 257.333123 144.401788 
L 258.418924 144.91069 
L 259.504725 144.53786 
L 260.590526 141.136778 
L 261.676327 144.273572 
L 262.762128 143.431789 
L 263.847929 143.335574 
L 264.933731 143.640892 
L 266.019532 145.12478 
L 267.105333 140.561618 
L 269.276935 139.43105 
L 270.362736 137.886017 
L 271.448538 133.810984 
L 272.534339 136.743354 
L 273.62014 137.412652 
L 274.705941 136.668724 
L 275.791742 135.63573 
L 276.877543 133.588858 
L 277.963344 134.43304 
L 279.049146 134.631529 
L 280.134947 136.560752 
L 281.220748 135.917449 
L 282.306549 140.559065 
L 283.39235 140.725385 
L 284.478151 137.994636 
L 285.563953 137.944887 
L 286.649754 138.72667 
L 287.735555 139.70572 
L 288.821356 142.156708 
L 289.907157 142.595363 
L 290.992958 141.407894 
L 292.07876 142.635074 
L 293.164561 142.504142 
L 294.250362 146.903515 
L 295.336163 148.736624 
L 296.421964 148.607728 
L 297.507765 146.859251 
L 298.593566 150.83073 
L 300.765169 148.505902 
L 301.85097 149.573389 
L 302.936771 151.022595 
L 304.022572 149.816124 
L 305.108373 152.840269 
L 306.194175 150.893384 
L 307.279976 147.978985 
L 308.365777 152.08696 
L 309.451578 150.323881 
L 310.537379 150.221555 
L 311.62318 148.692031 
L 312.708981 150.302401 
L 313.794783 147.188251 
L 314.880584 146.46378 
L 317.052186 146.252352 
L 318.137987 147.154509 
L 319.223788 150.516893 
L 320.30959 150.832368 
L 321.395391 152.061712 
L 322.481192 149.44046 
L 323.566993 150.659389 
L 324.652794 148.377311 
L 325.738595 149.533042 
L 326.824396 150.005818 
L 327.910198 148.061414 
L 328.995999 148.289076 
L 330.0818 147.277458 
L 331.167601 148.024128 
L 332.253402 153.697102 
L 333.339203 153.085587 
L 334.425005 152.927678 
L 335.510806 152.23862 
L 336.596607 152.531383 
L 337.682408 148.485103 
L 338.768209 149.282059 
L 339.85401 150.264361 
L 340.939811 148.340991 
L 342.025613 148.54597 
L 343.111414 147.258753 
L 344.197215 146.728218 
L 345.283016 146.900497 
L 346.368817 147.351138 
L 347.454618 148.522472 
L 348.54042 146.986379 
L 349.626221 147.704366 
L 350.712022 147.555762 
L 351.797823 147.803722 
L 352.883624 148.349214 
L 353.969425 149.227113 
L 355.055227 149.155408 
L 356.141028 150.059431 
L 357.226829 150.675792 
L 358.31263 150.635877 
L 359.398431 152.250024 
L 360.484232 150.908573 
L 361.570033 150.827906 
L 362.655835 150.052083 
L 363.741636 150.163567 
L 365.913238 148.459438 
L 366.999039 148.94041 
L 368.08484 147.85192 
L 369.170642 148.632475 
L 370.256443 150.352331 
L 371.342244 149.794806 
L 372.428045 149.716457 
L 373.513846 149.904053 
L 374.599647 151.541795 
L 375.685448 150.427384 
L 377.857051 151.411395 
L 378.942852 150.176415 
L 380.028653 150.174029 
L 381.114454 150.447533 
L 383.286057 150.504948 
L 384.371858 150.882819 
L 385.457659 150.289891 
L 386.54346 149.870357 
L 387.629261 149.146646 
L 388.715062 149.035505 
L 389.800863 149.719457 
L 391.972466 150.451001 
L 393.058267 150.700731 
L 394.144068 150.025157 
L 395.229869 150.220116 
L 396.31567 150.917453 
L 397.401472 152.174666 
L 398.487273 142.18357 
L 398.487273 142.18357 
" clip-path="url(#p827ace09bf)" style="fill: none; stroke: #000000; stroke-opacity: 0.5; stroke-width: 2; stroke-linecap: square"/>
   </g>
   <g id="LineCollection_1">
    <path d="M 228.016491 295.488 
L 228.016491 53.568 
" clip-path="url(#p827ace09bf)" style="fill: none; stroke-dasharray: 7.4,3.2; stroke-dashoffset: 0; stroke: #ff0000; stroke-width: 2"/>
   </g>
   <g id="patch_3">
    <path d="M 57.6 307.584 
L 57.6 41.472 
" style="fill: none; stroke: #bcbcbc; stroke-width: 0.8; stroke-linejoin: miter; stroke-linecap: square"/>
   </g>
   <g id="patch_4">
    <path d="M 414.72 307.584 
L 414.72 41.472 
" style="fill: none; stroke: #bcbcbc; stroke-width: 0.8; stroke-linejoin: miter; stroke-linecap: square"/>
   </g>
   <g id="patch_5">
    <path d="M 57.6 307.584 
L 414.72 307.584 
" style="fill: none; stroke: #bcbcbc; stroke-width: 0.8; stroke-linejoin: miter; stroke-linecap: square"/>
   </g>
   <g id="patch_6">
    <path d="M 57.6 41.472 
L 414.72 41.472 
" style="fill: none; stroke: #bcbcbc; stroke-width: 0.8; stroke-linejoin: miter; stroke-linecap: square"/>
   </g>
   <g id="text_15">
    <!-- Trajectorie plot of critical time n = 1000 -->
    <g transform="translate(92.38725 35.472) scale(0.144 -0.144)">
     <defs>
      <path id="DejaVuSans-54" d="M -19 4666 
L 3928 4666 
L 3928 4134 
L 2272 4134 
L 2272 0 
L 1638 0 
L 1638 4134 
L -19 4134 
L -19 4666 
z
" transform="scale(0.015625)"/>
      <path id="DejaVuSans-72" d="M 2631 2963 
Q 2534 3019 2420 3045 
Q 2306 3072 2169 3072 
Q 1681 3072 1420 2755 
Q 1159 2438 1159 1844 
L 1159 0 
L 581 0 
L 581 3500 
L 1159 3500 
L 1159 2956 
Q 1341 3275 1631 3429 
Q 1922 3584 2338 3584 
Q 2397 3584 2469 3576 
Q 2541 3569 2628 3553 
L 2631 2963 
z
" transform="scale(0.015625)"/>
      <path id="DejaVuSans-61" d="M 2194 1759 
Q 1497 1759 1228 1600 
Q 959 1441 959 1056 
Q 959 750 1161 570 
Q 1363 391 1709 391 
Q 2188 391 2477 730 
Q 2766 1069 2766 1631 
L 2766 1759 
L 2194 1759 
z
M 3341 1997 
L 3341 0 
L 2766 0 
L 2766 531 
Q 2569 213 2275 61 
Q 1981 -91 1556 -91 
Q 1019 -91 701 211 
Q 384 513 384 1019 
Q 384 1609 779 1909 
Q 1175 2209 1959 2209 
L 2766 2209 
L 2766 2266 
Q 2766 2663 2505 2880 
Q 2244 3097 1772 3097 
Q 1472 3097 1187 3025 
Q 903 2953 641 2809 
L 641 3341 
Q 956 3463 1253 3523 
Q 1550 3584 1831 3584 
Q 2591 3584 2966 3190 
Q 3341 2797 3341 1997 
z
" transform="scale(0.015625)"/>
      <path id="DejaVuSans-6a" d="M 603 3500 
L 1178 3500 
L 1178 -63 
Q 1178 -731 923 -1031 
Q 669 -1331 103 -1331 
L -116 -1331 
L -116 -844 
L 38 -844 
Q 366 -844 484 -692 
Q 603 -541 603 -63 
L 603 3500 
z
M 603 4863 
L 1178 4863 
L 1178 4134 
L 603 4134 
L 603 4863 
z
" transform="scale(0.015625)"/>
      <path id="DejaVuSans-65" d="M 3597 1894 
L 3597 1613 
L 953 1613 
Q 991 1019 1311 708 
Q 1631 397 2203 397 
Q 2534 397 2845 478 
Q 3156 559 3463 722 
L 3463 178 
Q 3153 47 2828 -22 
Q 2503 -91 2169 -91 
Q 1331 -91 842 396 
Q 353 884 353 1716 
Q 353 2575 817 3079 
Q 1281 3584 2069 3584 
Q 2775 3584 3186 3129 
Q 3597 2675 3597 1894 
z
M 3022 2063 
Q 3016 2534 2758 2815 
Q 2500 3097 2075 3097 
Q 1594 3097 1305 2825 
Q 1016 2553 972 2059 
L 3022 2063 
z
" transform="scale(0.015625)"/>
      <path id="DejaVuSans-63" d="M 3122 3366 
L 3122 2828 
Q 2878 2963 2633 3030 
Q 2388 3097 2138 3097 
Q 1578 3097 1268 2742 
Q 959 2388 959 1747 
Q 959 1106 1268 751 
Q 1578 397 2138 397 
Q 2388 397 2633 464 
Q 2878 531 3122 666 
L 3122 134 
Q 2881 22 2623 -34 
Q 2366 -91 2075 -91 
Q 1284 -91 818 406 
Q 353 903 353 1747 
Q 353 2603 823 3093 
Q 1294 3584 2113 3584 
Q 2378 3584 2631 3529 
Q 2884 3475 3122 3366 
z
" transform="scale(0.015625)"/>
      <path id="DejaVuSans-74" d="M 1172 4494 
L 1172 3500 
L 2356 3500 
L 2356 3053 
L 1172 3053 
L 1172 1153 
Q 1172 725 1289 603 
Q 1406 481 1766 481 
L 2356 481 
L 2356 0 
L 1766 0 
Q 1100 0 847 248 
Q 594 497 594 1153 
L 594 3053 
L 172 3053 
L 172 3500 
L 594 3500 
L 594 4494 
L 1172 4494 
z
" transform="scale(0.015625)"/>
      <path id="DejaVuSans-6f" d="M 1959 3097 
Q 1497 3097 1228 2736 
Q 959 2375 959 1747 
Q 959 1119 1226 758 
Q 1494 397 1959 397 
Q 2419 397 2687 759 
Q 2956 1122 2956 1747 
Q 2956 2369 2687 2733 
Q 2419 3097 1959 3097 
z
M 1959 3584 
Q 2709 3584 3137 3096 
Q 3566 2609 3566 1747 
Q 3566 888 3137 398 
Q 2709 -91 1959 -91 
Q 1206 -91 779 398 
Q 353 888 353 1747 
Q 353 2609 779 3096 
Q 1206 3584 1959 3584 
z
" transform="scale(0.015625)"/>
      <path id="DejaVuSans-69" d="M 603 3500 
L 1178 3500 
L 1178 0 
L 603 0 
L 603 3500 
z
M 603 4863 
L 1178 4863 
L 1178 4134 
L 603 4134 
L 603 4863 
z
" transform="scale(0.015625)"/>
      <path id="DejaVuSans-20" transform="scale(0.015625)"/>
      <path id="DejaVuSans-70" d="M 1159 525 
L 1159 -1331 
L 581 -1331 
L 581 3500 
L 1159 3500 
L 1159 2969 
Q 1341 3281 1617 3432 
Q 1894 3584 2278 3584 
Q 2916 3584 3314 3078 
Q 3713 2572 3713 1747 
Q 3713 922 3314 415 
Q 2916 -91 2278 -91 
Q 1894 -91 1617 61 
Q 1341 213 1159 525 
z
M 3116 1747 
Q 3116 2381 2855 2742 
Q 2594 3103 2138 3103 
Q 1681 3103 1420 2742 
Q 1159 2381 1159 1747 
Q 1159 1113 1420 752 
Q 1681 391 2138 391 
Q 2594 391 2855 752 
Q 3116 1113 3116 1747 
z
" transform="scale(0.015625)"/>
      <path id="DejaVuSans-6c" d="M 603 4863 
L 1178 4863 
L 1178 0 
L 603 0 
L 603 4863 
z
" transform="scale(0.015625)"/>
      <path id="DejaVuSans-66" d="M 2375 4863 
L 2375 4384 
L 1825 4384 
Q 1516 4384 1395 4259 
Q 1275 4134 1275 3809 
L 1275 3500 
L 2222 3500 
L 2222 3053 
L 1275 3053 
L 1275 0 
L 697 0 
L 697 3053 
L 147 3053 
L 147 3500 
L 697 3500 
L 697 3744 
Q 697 4328 969 4595 
Q 1241 4863 1831 4863 
L 2375 4863 
z
" transform="scale(0.015625)"/>
      <path id="DejaVuSans-6d" d="M 3328 2828 
Q 3544 3216 3844 3400 
Q 4144 3584 4550 3584 
Q 5097 3584 5394 3201 
Q 5691 2819 5691 2113 
L 5691 0 
L 5113 0 
L 5113 2094 
Q 5113 2597 4934 2840 
Q 4756 3084 4391 3084 
Q 3944 3084 3684 2787 
Q 3425 2491 3425 1978 
L 3425 0 
L 2847 0 
L 2847 2094 
Q 2847 2600 2669 2842 
Q 2491 3084 2119 3084 
Q 1678 3084 1418 2786 
Q 1159 2488 1159 1978 
L 1159 0 
L 581 0 
L 581 3500 
L 1159 3500 
L 1159 2956 
Q 1356 3278 1631 3431 
Q 1906 3584 2284 3584 
Q 2666 3584 2933 3390 
Q 3200 3197 3328 2828 
z
" transform="scale(0.015625)"/>
      <path id="DejaVuSans-6e" d="M 3513 2113 
L 3513 0 
L 2938 0 
L 2938 2094 
Q 2938 2591 2744 2837 
Q 2550 3084 2163 3084 
Q 1697 3084 1428 2787 
Q 1159 2491 1159 1978 
L 1159 0 
L 581 0 
L 581 3500 
L 1159 3500 
L 1159 2956 
Q 1366 3272 1645 3428 
Q 1925 3584 2291 3584 
Q 2894 3584 3203 3211 
Q 3513 2838 3513 2113 
z
" transform="scale(0.015625)"/>
      <path id="DejaVuSans-3d" d="M 678 2906 
L 4684 2906 
L 4684 2381 
L 678 2381 
L 678 2906 
z
M 678 1631 
L 4684 1631 
L 4684 1100 
L 678 1100 
L 678 1631 
z
" transform="scale(0.015625)"/>
     </defs>
     <use xlink:href="#DejaVuSans-54"/>
     <use xlink:href="#DejaVuSans-72" x="46.333984"/>
     <use xlink:href="#DejaVuSans-61" x="87.447266"/>
     <use xlink:href="#DejaVuSans-6a" x="148.726562"/>
     <use xlink:href="#DejaVuSans-65" x="176.509766"/>
     <use xlink:href="#DejaVuSans-63" x="238.033203"/>
     <use xlink:href="#DejaVuSans-74" x="293.013672"/>
     <use xlink:href="#DejaVuSans-6f" x="332.222656"/>
     <use xlink:href="#DejaVuSans-72" x="393.404297"/>
     <use xlink:href="#DejaVuSans-69" x="434.517578"/>
     <use xlink:href="#DejaVuSans-65" x="462.300781"/>
     <use xlink:href="#DejaVuSans-20" x="523.824219"/>
     <use xlink:href="#DejaVuSans-70" x="555.611328"/>
     <use xlink:href="#DejaVuSans-6c" x="619.087891"/>
     <use xlink:href="#DejaVuSans-6f" x="646.871094"/>
     <use xlink:href="#DejaVuSans-74" x="708.052734"/>
     <use xlink:href="#DejaVuSans-20" x="747.261719"/>
     <use xlink:href="#DejaVuSans-6f" x="779.048828"/>
     <use xlink:href="#DejaVuSans-66" x="840.230469"/>
     <use xlink:href="#DejaVuSans-20" x="875.435547"/>
     <use xlink:href="#DejaVuSans-63" x="907.222656"/>
     <use xlink:href="#DejaVuSans-72" x="962.203125"/>
     <use xlink:href="#DejaVuSans-69" x="1003.316406"/>
     <use xlink:href="#DejaVuSans-74" x="1031.099609"/>
     <use xlink:href="#DejaVuSans-69" x="1070.308594"/>
     <use xlink:href="#DejaVuSans-63" x="1098.091797"/>
     <use xlink:href="#DejaVuSans-61" x="1153.072266"/>
     <use xlink:href="#DejaVuSans-6c" x="1214.351562"/>
     <use xlink:href="#DejaVuSans-20" x="1242.134766"/>
     <use xlink:href="#DejaVuSans-74" x="1273.921875"/>
     <use xlink:href="#DejaVuSans-69" x="1313.130859"/>
     <use xlink:href="#DejaVuSans-6d" x="1340.914062"/>
     <use xlink:href="#DejaVuSans-65" x="1438.326172"/>
     <use xlink:href="#DejaVuSans-20" x="1499.849609"/>
     <use xlink:href="#DejaVuSans-6e" x="1531.636719"/>
     <use xlink:href="#DejaVuSans-20" x="1595.015625"/>
     <use xlink:href="#DejaVuSans-3d" x="1626.802734"/>
     <use xlink:href="#DejaVuSans-20" x="1710.591797"/>
     <use xlink:href="#DejaVuSans-31" x="1742.378906"/>
     <use xlink:href="#DejaVuSans-30" x="1806.001953"/>
     <use xlink:href="#DejaVuSans-30" x="1869.625"/>
     <use xlink:href="#DejaVuSans-30" x="1933.248047"/>
    </g>
   </g>
  </g>
 </g>
 <defs>
  <clipPath id="p827ace09bf">
   <rect x="57.6" y="41.472" width="357.12" height="266.112"/>
  </clipPath>
 </defs>
</svg>
