<?xml version="1.0" encoding="utf-8" standalone="no"?>
<!DOCTYPE svg PUBLIC "-//W3C//DTD SVG 1.1//EN"
  "http://www.w3.org/Graphics/SVG/1.1/DTD/svg11.dtd">
<svg xmlns:xlink="http://www.w3.org/1999/xlink" width="460.8pt" height="345.6pt" viewBox="0 0 460.8 345.6" xmlns="http://www.w3.org/2000/svg" version="1.1">
 <metadata>
  <rdf:RDF xmlns:dc="http://purl.org/dc/elements/1.1/" xmlns:cc="http://creativecommons.org/ns#" xmlns:rdf="http://www.w3.org/1999/02/22-rdf-syntax-ns#">
   <cc:Work>
    <dc:type rdf:resource="http://purl.org/dc/dcmitype/StillImage"/>
    <dc:date>2025-08-21T17:05:39.284243</dc:date>
    <dc:format>image/svg+xml</dc:format>
    <dc:creator>
     <cc:Agent>
      <dc:title>Matplotlib v3.9.2, https://matplotlib.org/</dc:title>
     </cc:Agent>
    </dc:creator>
   </cc:Work>
  </rdf:RDF>
 </metadata>
 <defs>
  <style type="text/css">*{stroke-linejoin: round; stroke-linecap: butt}</style>
 </defs>
 <g id="figure_1">
  <g id="patch_1">
   <path d="M 0 345.6 
L 460.8 345.6 
L 460.8 0 
L 0 0 
z
" style="fill: #ffffff"/>
  </g>
  <g id="axes_1">
   <g id="patch_2">
    <path d="M 57.6 307.584 
L 414.72 307.584 
L 414.72 41.472 
L 57.6 41.472 
z
" style="fill: #eeeeee"/>
   </g>
   <g id="PolyCollection_1">
    <path d="M 82.234491 272.397381 
L 82.22344 272.397381 
L 82.223569 270.417104 
L 82.223798 268.436827 
L 82.222878 266.45655 
L 82.220273 264.476273 
L 82.216362 262.495996 
L 82.211521 260.515719 
L 82.205244 258.535442 
L 82.196434 256.555165 
L 82.184328 254.574888 
L 82.168803 252.594611 
L 82.150389 250.614334 
L 82.130812 248.634057 
L 82.112364 246.65378 
L 82.094666 244.673503 
L 82.072846 242.693226 
L 82.040846 240.712949 
L 81.995609 238.732672 
L 81.936318 236.752395 
L 81.861181 234.772118 
L 81.76779 232.791841 
L 81.655405 230.811563 
L 81.523619 228.831286 
L 81.370798 226.851009 
L 81.197833 224.870732 
L 81.010228 222.890455 
L 80.812614 220.910178 
L 80.604934 218.929901 
L 80.385127 216.949624 
L 80.149961 214.969347 
L 79.894156 212.98907 
L 79.615499 211.008793 
L 79.319032 209.028516 
L 79.007903 207.048239 
L 78.66927 205.067962 
L 78.278373 203.087685 
L 77.82454 201.107408 
L 77.329409 199.127131 
L 76.830452 197.146854 
L 76.349192 195.166577 
L 75.886328 193.1863 
L 75.446388 191.206023 
L 75.053196 189.225746 
L 74.734999 187.245469 
L 74.500728 185.265191 
L 74.334513 183.284914 
L 74.209075 181.304637 
L 74.10006 179.32436 
L 73.992225 177.344083 
L 73.889973 175.363806 
L 73.832727 173.383529 
L 73.880879 171.403252 
L 74.063701 169.422975 
L 74.343875 167.442698 
L 74.641397 165.462421 
L 74.891614 163.482144 
L 75.087202 161.501867 
L 75.277178 159.52159 
L 75.527684 157.541313 
L 75.874432 155.561036 
L 76.301359 153.580759 
L 76.760321 151.600482 
L 77.213311 149.620205 
L 77.65267 147.639928 
L 78.079602 145.659651 
L 78.481247 143.679374 
L 78.843199 141.699097 
L 79.170502 139.718819 
L 79.480153 137.738542 
L 79.778252 135.758265 
L 80.053798 133.777988 
L 80.293508 131.797711 
L 80.497656 129.817434 
L 80.680585 127.837157 
L 80.859013 125.85688 
L 81.040873 123.876603 
L 81.22157 121.896326 
L 81.388884 119.916049 
L 81.533572 117.935772 
L 81.655946 115.955495 
L 81.762109 113.975218 
L 81.856109 111.994941 
L 81.937002 110.014664 
L 82.002113 108.034387 
L 82.052014 106.05411 
L 82.091647 104.073833 
L 82.126115 102.093556 
L 82.156395 100.113279 
L 82.180459 98.133002 
L 82.197447 96.152725 
L 82.208958 94.172447 
L 82.216905 92.19217 
L 82.221937 90.211893 
L 82.224057 88.231616 
L 82.223731 86.251339 
L 82.222004 84.271062 
L 82.219852 82.290785 
L 82.217871 80.310508 
L 82.21673 78.330231 
L 82.217315 76.349954 
L 82.240616 76.349954 
L 82.240616 76.349954 
L 82.241201 78.330231 
L 82.24006 80.310508 
L 82.238079 82.290785 
L 82.235927 84.271062 
L 82.2342 86.251339 
L 82.233874 88.231616 
L 82.235994 90.211893 
L 82.241026 92.19217 
L 82.248973 94.172447 
L 82.260484 96.152725 
L 82.277472 98.133002 
L 82.301536 100.113279 
L 82.331816 102.093556 
L 82.366284 104.073833 
L 82.405917 106.05411 
L 82.455818 108.034387 
L 82.520929 110.014664 
L 82.601822 111.994941 
L 82.695822 113.975218 
L 82.801985 115.955495 
L 82.924359 117.935772 
L 83.069047 119.916049 
L 83.236361 121.896326 
L 83.417058 123.876603 
L 83.598918 125.85688 
L 83.777346 127.837157 
L 83.960275 129.817434 
L 84.164423 131.797711 
L 84.404133 133.777988 
L 84.679679 135.758265 
L 84.977778 137.738542 
L 85.287429 139.718819 
L 85.614732 141.699097 
L 85.976684 143.679374 
L 86.378329 145.659651 
L 86.805261 147.639928 
L 87.24462 149.620205 
L 87.69761 151.600482 
L 88.156572 153.580759 
L 88.583499 155.561036 
L 88.930247 157.541313 
L 89.180754 159.52159 
L 89.370729 161.501867 
L 89.566317 163.482144 
L 89.816534 165.462421 
L 90.114056 167.442698 
L 90.39423 169.422975 
L 90.577052 171.403252 
L 90.625204 173.383529 
L 90.567958 175.363806 
L 90.465706 177.344083 
L 90.357871 179.32436 
L 90.248856 181.304637 
L 90.123418 183.284914 
L 89.957203 185.265191 
L 89.722932 187.245469 
L 89.404735 189.225746 
L 89.011543 191.206023 
L 88.571603 193.1863 
L 88.108739 195.166577 
L 87.627479 197.146854 
L 87.128522 199.127131 
L 86.633391 201.107408 
L 86.179558 203.087685 
L 85.788661 205.067962 
L 85.450029 207.048239 
L 85.138899 209.028516 
L 84.842432 211.008793 
L 84.563775 212.98907 
L 84.30797 214.969347 
L 84.072804 216.949624 
L 83.852997 218.929901 
L 83.645317 220.910178 
L 83.447703 222.890455 
L 83.260098 224.870732 
L 83.087134 226.851009 
L 82.934312 228.831286 
L 82.802526 230.811563 
L 82.690141 232.791841 
L 82.59675 234.772118 
L 82.521613 236.752395 
L 82.462322 238.732672 
L 82.417085 240.712949 
L 82.385085 242.693226 
L 82.363265 244.673503 
L 82.345567 246.65378 
L 82.327119 248.634057 
L 82.307542 250.614334 
L 82.289128 252.594611 
L 82.273603 254.574888 
L 82.261497 256.555165 
L 82.252687 258.535442 
L 82.24641 260.515719 
L 82.241569 262.495996 
L 82.237659 264.476273 
L 82.235053 266.45655 
L 82.234133 268.436827 
L 82.234362 270.417104 
L 82.234491 272.397381 
z
" clip-path="url(#p485d6b4125)" style="fill: #348abd; fill-opacity: 0.3"/>
   </g>
   <g id="PolyCollection_2">
    <path d="M 110.221781 249.51069 
L 110.211072 249.51069 
L 110.211571 247.989768 
L 110.212552 246.468846 
L 110.212682 244.947923 
L 110.21114 243.427001 
L 110.208146 241.906079 
L 110.204488 240.385157 
L 110.20045 238.864235 
L 110.195201 237.343313 
L 110.187389 235.822391 
L 110.17621 234.301469 
L 110.161554 232.780547 
L 110.143645 231.259625 
L 110.123733 229.738703 
L 110.104282 228.217781 
L 110.085844 226.696859 
L 110.064044 225.175937 
L 110.0323 223.655014 
L 109.986847 222.134092 
L 109.926651 220.61317 
L 109.849847 219.092248 
L 109.753817 217.571326 
L 109.637695 216.050404 
L 109.500956 214.529482 
L 109.34192 213.00856 
L 109.162035 211.487638 
L 108.967418 209.966716 
L 108.762402 208.445794 
L 108.546373 206.924872 
L 108.316941 205.40395 
L 108.070006 203.883028 
L 107.800038 202.362105 
L 107.506909 200.841183 
L 107.19693 199.320261 
L 106.868629 197.799339 
L 106.501492 196.278417 
L 106.071355 194.757495 
L 105.581099 193.236573 
L 105.065699 191.715651 
L 104.560455 190.194729 
L 104.075566 188.673807 
L 103.61084 187.152885 
L 103.183153 185.631963 
L 102.824162 184.111041 
L 102.553375 182.590119 
L 102.36224 181.069196 
L 102.223342 179.548274 
L 102.108387 178.027352 
L 101.997729 176.50643 
L 101.889923 174.985508 
L 101.820188 173.464586 
L 101.855029 171.943664 
L 102.040614 170.422742 
L 102.356523 168.90182 
L 102.728609 167.380898 
L 103.079687 165.859976 
L 103.36965 164.339054 
L 103.605594 162.818132 
L 103.825035 161.29721 
L 104.067166 159.776287 
L 104.35233 158.255365 
L 104.681417 156.734443 
L 105.05091 155.213521 
L 105.460228 153.692599 
L 105.896847 152.171677 
L 106.32873 150.650755 
L 106.728876 149.129833 
L 107.097446 147.608911 
L 107.447723 146.087989 
L 107.780462 144.567067 
L 108.082388 143.046145 
L 108.344477 141.525223 
L 108.573118 140.004301 
L 108.783582 138.483378 
L 108.987144 136.962456 
L 109.183502 135.441534 
L 109.362235 133.920612 
L 109.512898 132.39969 
L 109.634966 130.878768 
L 109.736768 129.357846 
L 109.826456 127.836924 
L 109.906172 126.316002 
L 109.973282 124.79508 
L 110.025539 123.274158 
L 110.065378 121.753236 
L 110.098745 120.232314 
L 110.129455 118.711392 
L 110.156342 117.190469 
L 110.176687 115.669547 
L 110.190455 114.148625 
L 110.199891 112.627703 
L 110.206638 111.106781 
L 110.210821 109.585859 
L 110.212266 108.064937 
L 110.211515 106.544015 
L 110.209668 105.023093 
L 110.207598 103.502171 
L 110.205684 101.981249 
L 110.204485 100.460327 
L 110.204989 98.939405 
L 110.227863 98.939405 
L 110.227863 98.939405 
L 110.228367 100.460327 
L 110.227169 101.981249 
L 110.225255 103.502171 
L 110.223184 105.023093 
L 110.221338 106.544015 
L 110.220587 108.064937 
L 110.222032 109.585859 
L 110.226215 111.106781 
L 110.232962 112.627703 
L 110.242398 114.148625 
L 110.256166 115.669547 
L 110.276511 117.190469 
L 110.303398 118.711392 
L 110.334108 120.232314 
L 110.367474 121.753236 
L 110.407313 123.274158 
L 110.459571 124.79508 
L 110.52668 126.316002 
L 110.606397 127.836924 
L 110.696084 129.357846 
L 110.797887 130.878768 
L 110.919955 132.39969 
L 111.070618 133.920612 
L 111.24935 135.441534 
L 111.445709 136.962456 
L 111.649271 138.483378 
L 111.859735 140.004301 
L 112.088376 141.525223 
L 112.350465 143.046145 
L 112.652391 144.567067 
L 112.98513 146.087989 
L 113.335406 147.608911 
L 113.703977 149.129833 
L 114.104123 150.650755 
L 114.536006 152.171677 
L 114.972625 153.692599 
L 115.381943 155.213521 
L 115.751435 156.734443 
L 116.080523 158.255365 
L 116.365687 159.776287 
L 116.607818 161.29721 
L 116.827259 162.818132 
L 117.063203 164.339054 
L 117.353165 165.859976 
L 117.704243 167.380898 
L 118.07633 168.90182 
L 118.392239 170.422742 
L 118.577824 171.943664 
L 118.612665 173.464586 
L 118.54293 174.985508 
L 118.435123 176.50643 
L 118.324465 178.027352 
L 118.209511 179.548274 
L 118.070613 181.069196 
L 117.879477 182.590119 
L 117.608691 184.111041 
L 117.2497 185.631963 
L 116.822013 187.152885 
L 116.357287 188.673807 
L 115.872398 190.194729 
L 115.367153 191.715651 
L 114.851754 193.236573 
L 114.361498 194.757495 
L 113.93136 196.278417 
L 113.564224 197.799339 
L 113.235923 199.320261 
L 112.925944 200.841183 
L 112.632814 202.362105 
L 112.362847 203.883028 
L 112.115912 205.40395 
L 111.88648 206.924872 
L 111.670451 208.445794 
L 111.465434 209.966716 
L 111.270818 211.487638 
L 111.090932 213.00856 
L 110.931897 214.529482 
L 110.795157 216.050404 
L 110.679036 217.571326 
L 110.583006 219.092248 
L 110.506202 220.61317 
L 110.446006 222.134092 
L 110.400552 223.655014 
L 110.368809 225.175937 
L 110.347009 226.696859 
L 110.32857 228.217781 
L 110.30912 229.738703 
L 110.289208 231.259625 
L 110.271299 232.780547 
L 110.256643 234.301469 
L 110.245464 235.822391 
L 110.237652 237.343313 
L 110.232403 238.864235 
L 110.228365 240.385157 
L 110.224707 241.906079 
L 110.221713 243.427001 
L 110.220171 244.947923 
L 110.2203 246.468846 
L 110.221282 247.989768 
L 110.221781 249.51069 
z
" clip-path="url(#p485d6b4125)" style="fill: #348abd; fill-opacity: 0.3"/>
   </g>
   <g id="PolyCollection_3">
    <path d="M 138.209211 232.140775 
L 138.198564 232.140775 
L 138.199073 230.954782 
L 138.200075 229.76879 
L 138.200229 228.582797 
L 138.198705 227.396804 
L 138.195708 226.210811 
L 138.192022 225.024818 
L 138.187938 223.838825 
L 138.182627 222.652832 
L 138.174725 221.46684 
L 138.16341 220.280847 
L 138.148562 219.094854 
L 138.130441 217.908861 
L 138.110381 216.722868 
L 138.090843 215.536875 
L 138.072124 214.350883 
L 138.049556 213.16489 
L 138.016559 211.978897 
L 137.969536 210.792904 
L 137.907395 209.606911 
L 137.828083 208.420918 
L 137.729068 207.234925 
L 137.6096 206.048933 
L 137.468947 204.86294 
L 137.305587 203.676947 
L 137.121773 202.490954 
L 136.923838 201.304961 
L 136.715397 200.118968 
L 136.495389 198.932976 
L 136.261175 197.746983 
L 136.00809 196.56099 
L 135.731043 195.374997 
L 135.43157 194.189004 
L 135.115678 193.003011 
L 134.777832 191.817018 
L 134.394234 190.631026 
L 133.944576 189.445033 
L 133.440721 188.25904 
L 132.921565 187.073047 
L 132.417396 185.887054 
L 131.933506 184.701061 
L 131.472958 183.515069 
L 131.058924 182.329076 
L 130.722655 181.143083 
L 130.475912 179.95709 
L 130.302434 178.771097 
L 130.172432 177.585104 
L 130.059222 176.399111 
L 129.947421 175.213119 
L 129.846813 174.027126 
L 129.807649 172.841133 
L 129.897364 171.65514 
L 130.142221 170.469147 
L 130.501323 169.283154 
L 130.900835 168.097162 
L 131.282891 166.911169 
L 131.62611 165.725176 
L 131.935824 164.539183 
L 132.224348 163.35319 
L 132.499515 162.167197 
L 132.762965 160.981204 
L 133.015537 159.795212 
L 133.271145 158.609219 
L 133.559188 157.423226 
L 133.897548 156.237233 
L 134.272045 155.05124 
L 134.65635 153.865247 
L 135.037875 152.679254 
L 135.411899 151.493262 
L 135.765373 150.307269 
L 136.081444 149.121276 
L 136.355772 147.935283 
L 136.599977 146.74929 
L 136.829391 145.563297 
L 137.049823 144.377305 
L 137.254212 143.191312 
L 137.430926 142.005319 
L 137.575712 140.819326 
L 137.694513 139.633333 
L 137.795849 138.44734 
L 137.883519 137.261347 
L 137.956141 136.075355 
L 138.011643 134.889362 
L 138.052099 133.703369 
L 138.083972 132.517376 
L 138.112918 131.331383 
L 138.139369 130.14539 
L 138.160397 128.959398 
L 138.174757 127.773405 
L 138.184339 126.587412 
L 138.191459 125.401419 
L 138.19674 124.215426 
L 138.199713 123.029433 
L 138.200245 121.84344 
L 138.199034 120.657448 
L 138.197146 119.471455 
L 138.195238 118.285462 
L 138.193446 117.099469 
L 138.192239 115.913476 
L 138.192668 114.727483 
L 138.215107 114.727483 
L 138.215107 114.727483 
L 138.215536 115.913476 
L 138.214328 117.099469 
L 138.212537 118.285462 
L 138.210628 119.471455 
L 138.20874 120.657448 
L 138.207529 121.84344 
L 138.208061 123.029433 
L 138.211034 124.215426 
L 138.216315 125.401419 
L 138.223436 126.587412 
L 138.233017 127.773405 
L 138.247377 128.959398 
L 138.268405 130.14539 
L 138.294856 131.331383 
L 138.323802 132.517376 
L 138.355675 133.703369 
L 138.396131 134.889362 
L 138.451633 136.075355 
L 138.524256 137.261347 
L 138.611926 138.44734 
L 138.713261 139.633333 
L 138.832063 140.819326 
L 138.976849 142.005319 
L 139.153563 143.191312 
L 139.357952 144.377305 
L 139.578383 145.563297 
L 139.807798 146.74929 
L 140.052002 147.935283 
L 140.32633 149.121276 
L 140.642401 150.307269 
L 140.995875 151.493262 
L 141.3699 152.679254 
L 141.751424 153.865247 
L 142.13573 155.05124 
L 142.510226 156.237233 
L 142.848587 157.423226 
L 143.136629 158.609219 
L 143.392237 159.795212 
L 143.644809 160.981204 
L 143.90826 162.167197 
L 144.183426 163.35319 
L 144.471951 164.539183 
L 144.781664 165.725176 
L 145.124883 166.911169 
L 145.506939 168.097162 
L 145.906451 169.283154 
L 146.265553 170.469147 
L 146.51041 171.65514 
L 146.600125 172.841133 
L 146.560961 174.027126 
L 146.460353 175.213119 
L 146.348552 176.399111 
L 146.235342 177.585104 
L 146.10534 178.771097 
L 145.931862 179.95709 
L 145.685119 181.143083 
L 145.34885 182.329076 
L 144.934816 183.515069 
L 144.474268 184.701061 
L 143.990379 185.887054 
L 143.486209 187.073047 
L 142.967053 188.25904 
L 142.463198 189.445033 
L 142.01354 190.631026 
L 141.629942 191.817018 
L 141.292096 193.003011 
L 140.976204 194.189004 
L 140.676731 195.374997 
L 140.399685 196.56099 
L 140.146599 197.746983 
L 139.912386 198.932976 
L 139.692377 200.118968 
L 139.483936 201.304961 
L 139.286001 202.490954 
L 139.102188 203.676947 
L 138.938827 204.86294 
L 138.798174 206.048933 
L 138.678707 207.234925 
L 138.579692 208.420918 
L 138.500379 209.606911 
L 138.438238 210.792904 
L 138.391216 211.978897 
L 138.358218 213.16489 
L 138.33565 214.350883 
L 138.316931 215.536875 
L 138.297393 216.722868 
L 138.277334 217.908861 
L 138.259212 219.094854 
L 138.244364 220.280847 
L 138.23305 221.46684 
L 138.225147 222.652832 
L 138.219836 223.838825 
L 138.215752 225.024818 
L 138.212066 226.210811 
L 138.209069 227.396804 
L 138.207545 228.582797 
L 138.2077 229.76879 
L 138.208701 230.954782 
L 138.209211 232.140775 
z
" clip-path="url(#p485d6b4125)" style="fill: #348abd; fill-opacity: 0.3"/>
   </g>
   <g id="PolyCollection_4">
    <path d="M 166.196638 219.353174 
L 166.186058 219.353174 
L 166.186548 218.418244 
L 166.18751 217.483314 
L 166.187629 216.548383 
L 166.186087 215.613453 
L 166.183088 214.678522 
L 166.17939 213.743592 
L 166.175249 212.808662 
L 166.169828 211.873731 
L 166.161784 210.938801 
L 166.150315 210.00387 
L 166.135297 209.06894 
L 166.117038 208.13401 
L 166.09695 207.199079 
L 166.077402 206.264149 
L 166.058415 205.329218 
L 166.035184 204.394288 
L 166.001277 203.459358 
L 165.95323 202.524427 
L 165.889841 201.589497 
L 165.808973 200.654567 
L 165.708222 199.719636 
L 165.586848 198.784706 
L 165.443989 197.849775 
L 165.27837 196.914845 
L 165.092681 195.979915 
L 164.893126 195.044984 
L 164.682893 194.110054 
L 164.46079 193.175123 
L 164.224004 192.240193 
L 163.967654 191.305263 
L 163.687177 190.370332 
L 163.384827 189.435402 
L 163.065776 188.500471 
L 162.722255 187.565541 
L 162.329894 186.630611 
L 161.871517 185.69568 
L 161.362936 184.76075 
L 160.843178 183.82582 
L 160.339502 182.890889 
L 159.856139 181.955959 
L 159.398701 181.021028 
L 158.992471 180.086098 
L 158.667011 179.151168 
L 158.430153 178.216237 
L 158.262984 177.281307 
L 158.135533 176.346376 
L 158.022232 175.411446 
L 157.910533 174.476516 
L 157.816379 173.541585 
L 157.79511 172.606655 
L 157.910414 171.671724 
L 158.177773 170.736794 
L 158.54913 169.801864 
L 158.953505 168.866933 
L 159.344087 167.932003 
L 159.712726 166.997072 
L 160.072058 166.062142 
L 160.42903 165.127212 
L 160.774008 164.192281 
L 161.087465 163.257351 
L 161.354649 162.322421 
L 161.583784 161.38749 
L 161.808403 160.45256 
L 162.05759 159.517629 
L 162.330724 158.582699 
L 162.615347 157.647769 
L 162.91467 156.712838 
L 163.23875 155.777908 
L 163.579272 154.842977 
L 163.910353 153.908047 
L 164.212283 152.973117 
L 164.485189 152.038186 
L 164.739946 151.103256 
L 164.98168 150.168325 
L 165.203488 149.233395 
L 165.394326 148.298465 
L 165.550797 147.363534 
L 165.679217 146.428604 
L 165.78766 145.493674 
L 165.879164 144.558743 
L 165.95243 143.623813 
L 166.007254 142.688882 
L 166.04821 141.753952 
L 166.082159 140.819022 
L 166.112527 139.884091 
L 166.137847 138.949161 
L 166.156026 138.01423 
L 166.167934 137.0793 
L 166.176201 136.14437 
L 166.182392 135.209439 
L 166.186502 134.274509 
L 166.188226 133.339578 
L 166.187862 132.404648 
L 166.186319 131.469718 
L 166.184559 130.534787 
L 166.182929 129.599857 
L 166.181294 128.664927 
L 166.18007 127.729996 
L 166.180397 126.795066 
L 166.202299 126.795066 
L 166.202299 126.795066 
L 166.202625 127.729996 
L 166.201402 128.664927 
L 166.199767 129.599857 
L 166.198137 130.534787 
L 166.196377 131.469718 
L 166.194834 132.404648 
L 166.19447 133.339578 
L 166.196194 134.274509 
L 166.200304 135.209439 
L 166.206495 136.14437 
L 166.214761 137.0793 
L 166.22667 138.01423 
L 166.244849 138.949161 
L 166.270169 139.884091 
L 166.300536 140.819022 
L 166.334486 141.753952 
L 166.375442 142.688882 
L 166.430266 143.623813 
L 166.503532 144.558743 
L 166.595036 145.493674 
L 166.703479 146.428604 
L 166.831898 147.363534 
L 166.98837 148.298465 
L 167.179208 149.233395 
L 167.401015 150.168325 
L 167.64275 151.103256 
L 167.897506 152.038186 
L 168.170413 152.973117 
L 168.472343 153.908047 
L 168.803423 154.842977 
L 169.143946 155.777908 
L 169.468026 156.712838 
L 169.767348 157.647769 
L 170.051972 158.582699 
L 170.325106 159.517629 
L 170.574293 160.45256 
L 170.798912 161.38749 
L 171.028047 162.322421 
L 171.295231 163.257351 
L 171.608688 164.192281 
L 171.953666 165.127212 
L 172.310638 166.062142 
L 172.66997 166.997072 
L 173.038609 167.932003 
L 173.429191 168.866933 
L 173.833566 169.801864 
L 174.204923 170.736794 
L 174.472282 171.671724 
L 174.587586 172.606655 
L 174.566317 173.541585 
L 174.472163 174.476516 
L 174.360464 175.411446 
L 174.247163 176.346376 
L 174.119712 177.281307 
L 173.952542 178.216237 
L 173.715685 179.151168 
L 173.390225 180.086098 
L 172.983995 181.021028 
L 172.526557 181.955959 
L 172.043194 182.890889 
L 171.539518 183.82582 
L 171.01976 184.76075 
L 170.511179 185.69568 
L 170.052802 186.630611 
L 169.660441 187.565541 
L 169.31692 188.500471 
L 168.997869 189.435402 
L 168.695519 190.370332 
L 168.415041 191.305263 
L 168.158692 192.240193 
L 167.921906 193.175123 
L 167.699803 194.110054 
L 167.48957 195.044984 
L 167.290015 195.979915 
L 167.104326 196.914845 
L 166.938707 197.849775 
L 166.795848 198.784706 
L 166.674474 199.719636 
L 166.573723 200.654567 
L 166.492855 201.589497 
L 166.429466 202.524427 
L 166.381419 203.459358 
L 166.347512 204.394288 
L 166.324281 205.329218 
L 166.305294 206.264149 
L 166.285746 207.199079 
L 166.265658 208.13401 
L 166.247399 209.06894 
L 166.232381 210.00387 
L 166.220912 210.938801 
L 166.212868 211.873731 
L 166.207447 212.808662 
L 166.203306 213.743592 
L 166.199608 214.678522 
L 166.196609 215.613453 
L 166.195067 216.548383 
L 166.195186 217.483314 
L 166.196148 218.418244 
L 166.196638 219.353174 
z
" clip-path="url(#p485d6b4125)" style="fill: #348abd; fill-opacity: 0.3"/>
   </g>
   <g id="PolyCollection_5">
    <path d="M 194.184051 209.727957 
L 194.173567 209.727957 
L 194.174024 208.987278 
L 194.174933 208.246598 
L 194.175034 207.505918 
L 194.173533 206.765239 
L 194.170598 206.024559 
L 194.166938 205.283879 
L 194.162804 204.5432 
L 194.157416 203.80252 
L 194.149492 203.06184 
L 194.138214 202.321161 
L 194.123427 201.580481 
L 194.105434 200.839802 
L 194.085567 200.099122 
L 194.066048 199.358442 
L 194.04703 198.617763 
L 194.024143 197.877083 
L 193.991166 197.136403 
L 193.944401 196.395724 
L 193.882487 195.655044 
L 193.803443 194.914364 
L 193.704905 194.173685 
L 193.585953 193.433005 
L 193.445801 192.692325 
L 193.283246 191.951646 
L 193.100438 191.210966 
L 192.903157 190.470286 
L 192.695019 189.729607 
L 192.475314 188.988927 
L 192.241396 188.248247 
L 191.988763 187.507568 
L 191.712764 186.766888 
L 191.414554 186.026208 
L 191.09907 185.285529 
L 190.760926 184.544849 
L 190.378317 183.804169 
L 189.93228 183.06349 
L 189.432866 182.32281 
L 188.915842 181.582131 
L 188.411169 180.841451 
L 187.926564 180.100771 
L 187.466172 179.360092 
L 187.051376 178.619412 
L 186.711657 177.878732 
L 186.459503 177.138053 
L 186.280897 176.397373 
L 186.147523 175.656693 
L 186.032839 174.916014 
L 185.921501 174.175334 
L 185.822547 173.434654 
L 185.782571 172.693975 
L 185.865285 171.953295 
L 186.09876 171.212615 
L 186.448655 170.471936 
L 186.847291 169.731256 
L 187.241561 168.990576 
L 187.616142 168.249897 
L 187.98376 167.509217 
L 188.360175 166.768537 
L 188.746389 166.027858 
L 189.124858 165.287178 
L 189.466265 164.546498 
L 189.750701 163.805819 
L 189.990738 163.065139 
L 190.22089 162.32446 
L 190.459456 161.58378 
L 190.697513 160.8431 
L 190.927117 160.102421 
L 191.159428 159.361741 
L 191.408584 158.621061 
L 191.67213 157.880382 
L 191.935582 157.139702 
L 192.190323 156.399022 
L 192.440241 155.658343 
L 192.691583 154.917663 
L 192.940538 154.176983 
L 193.172483 153.436304 
L 193.372933 152.695624 
L 193.538034 151.954944 
L 193.673745 151.214265 
L 193.786938 150.473585 
L 193.879754 149.732905 
L 193.951825 148.992226 
L 194.00553 148.251546 
L 194.047128 147.510866 
L 194.082266 146.770187 
L 194.11203 146.029507 
L 194.134735 145.288828 
L 194.150198 144.548148 
L 194.160554 143.807468 
L 194.167864 143.066789 
L 194.172718 142.326109 
L 194.174998 141.585429 
L 194.175 140.84475 
L 194.173654 140.10407 
L 194.17197 139.36339 
L 194.17035 138.622711 
L 194.168741 137.882031 
L 194.167583 137.141351 
L 194.167946 136.400672 
L 194.189672 136.400672 
L 194.189672 136.400672 
L 194.190034 137.141351 
L 194.188877 137.882031 
L 194.187267 138.622711 
L 194.185648 139.36339 
L 194.183963 140.10407 
L 194.182617 140.84475 
L 194.18262 141.585429 
L 194.1849 142.326109 
L 194.189753 143.066789 
L 194.197064 143.807468 
L 194.207419 144.548148 
L 194.222882 145.288828 
L 194.245587 146.029507 
L 194.275351 146.770187 
L 194.310489 147.510866 
L 194.352087 148.251546 
L 194.405793 148.992226 
L 194.477863 149.732905 
L 194.570679 150.473585 
L 194.683872 151.214265 
L 194.819584 151.954944 
L 194.984685 152.695624 
L 195.185134 153.436304 
L 195.41708 154.176983 
L 195.666035 154.917663 
L 195.917377 155.658343 
L 196.167295 156.399022 
L 196.422036 157.139702 
L 196.685488 157.880382 
L 196.949034 158.621061 
L 197.198189 159.361741 
L 197.4305 160.102421 
L 197.660105 160.8431 
L 197.898162 161.58378 
L 198.136727 162.32446 
L 198.366879 163.065139 
L 198.606916 163.805819 
L 198.891353 164.546498 
L 199.232759 165.287178 
L 199.611228 166.027858 
L 199.997442 166.768537 
L 200.373857 167.509217 
L 200.741475 168.249897 
L 201.116057 168.990576 
L 201.510326 169.731256 
L 201.908963 170.471936 
L 202.258858 171.212615 
L 202.492333 171.953295 
L 202.575047 172.693975 
L 202.53507 173.434654 
L 202.436116 174.175334 
L 202.324779 174.916014 
L 202.210095 175.656693 
L 202.076721 176.397373 
L 201.898115 177.138053 
L 201.64596 177.878732 
L 201.306242 178.619412 
L 200.891445 179.360092 
L 200.431054 180.100771 
L 199.946448 180.841451 
L 199.441776 181.582131 
L 198.924751 182.32281 
L 198.425337 183.06349 
L 197.979301 183.804169 
L 197.596691 184.544849 
L 197.258548 185.285529 
L 196.943064 186.026208 
L 196.644853 186.766888 
L 196.368855 187.507568 
L 196.116221 188.248247 
L 195.882303 188.988927 
L 195.662598 189.729607 
L 195.454461 190.470286 
L 195.25718 191.210966 
L 195.074371 191.951646 
L 194.911817 192.692325 
L 194.771665 193.433005 
L 194.652712 194.173685 
L 194.554174 194.914364 
L 194.475131 195.655044 
L 194.413216 196.395724 
L 194.366452 197.136403 
L 194.333474 197.877083 
L 194.310588 198.617763 
L 194.291569 199.358442 
L 194.272051 200.099122 
L 194.252183 200.839802 
L 194.23419 201.580481 
L 194.219404 202.321161 
L 194.208126 203.06184 
L 194.200202 203.80252 
L 194.194814 204.5432 
L 194.190679 205.283879 
L 194.187019 206.024559 
L 194.184085 206.765239 
L 194.182583 207.505918 
L 194.182685 208.246598 
L 194.183594 208.987278 
L 194.184051 209.727957 
z
" clip-path="url(#p485d6b4125)" style="fill: #348abd; fill-opacity: 0.3"/>
   </g>
   <g id="PolyCollection_6">
    <path d="M 222.171465 202.302466 
L 222.161074 202.302466 
L 222.1615 201.709052 
L 222.162356 201.115639 
L 222.162432 200.522225 
L 222.160952 199.928812 
L 222.158063 199.335398 
L 222.154426 198.741985 
L 222.150276 198.148571 
L 222.144874 197.555158 
L 222.136984 196.961744 
L 222.125789 196.368331 
L 222.111111 195.774917 
L 222.093264 195.181504 
L 222.073544 194.58809 
L 222.054045 193.994677 
L 222.034911 193.401263 
L 222.012031 192.80785 
L 221.979388 192.214436 
L 221.933188 191.621023 
L 221.871911 191.027609 
L 221.793644 190.434196 
L 221.696096 189.840782 
L 221.578236 189.247369 
L 221.43928 188.653955 
L 221.278152 188.060542 
L 221.096788 187.467128 
L 220.900619 186.873715 
L 220.693377 186.280301 
L 220.474651 185.686888 
L 220.241888 185.093474 
L 219.990769 184.500061 
L 219.71678 183.906647 
L 219.420581 183.313234 
L 219.106611 182.71982 
L 218.770297 182.126407 
L 218.391489 181.532993 
L 217.951268 180.93958 
L 217.457085 180.346166 
L 216.942204 179.752753 
L 216.437116 179.159339 
L 215.951682 178.565926 
L 215.490219 177.972512 
L 215.072142 177.379099 
L 214.726004 176.785685 
L 214.46601 176.192272 
L 214.280826 175.598858 
L 214.143534 175.005445 
L 214.027449 174.412031 
L 213.916276 173.818618 
L 213.816445 173.225204 
L 213.770031 172.631791 
L 213.838713 172.038377 
L 214.055012 171.444964 
L 214.391966 170.85155 
L 214.78547 170.258137 
L 215.180366 169.664723 
L 215.556847 169.07131 
L 215.924729 168.477896 
L 216.300516 167.884483 
L 216.689249 167.291069 
L 217.07963 166.697656 
L 217.448488 166.104242 
L 217.776286 165.510829 
L 218.066733 164.917415 
L 218.342017 164.324002 
L 218.612075 163.730588 
L 218.86254 163.137175 
L 219.080467 162.543761 
L 219.277501 161.950348 
L 219.478383 161.356934 
L 219.695041 160.763521 
L 219.918681 160.170107 
L 220.133708 159.576694 
L 220.334803 158.98328 
L 220.530186 158.389867 
L 220.730959 157.796453 
L 220.939039 157.203039 
L 221.144506 156.609626 
L 221.333609 156.016212 
L 221.498772 155.422799 
L 221.640321 154.829385 
L 221.760481 154.235972 
L 221.859033 153.642558 
L 221.935435 153.049145 
L 221.992862 152.455731 
L 222.037694 151.862318 
L 222.074708 151.268904 
L 222.104541 150.675491 
L 222.126354 150.082077 
L 222.141063 149.488664 
L 222.150924 148.89525 
L 222.157474 148.301837 
L 222.161093 147.708423 
L 222.162035 147.11501 
L 222.161119 146.521596 
L 222.159427 145.928183 
L 222.157625 145.334769 
L 222.155934 144.741356 
L 222.154854 144.147942 
L 222.155317 143.554529 
L 222.177223 143.554529 
L 222.177223 143.554529 
L 222.177685 144.147942 
L 222.176605 144.741356 
L 222.174914 145.334769 
L 222.173112 145.928183 
L 222.17142 146.521596 
L 222.170504 147.11501 
L 222.171446 147.708423 
L 222.175065 148.301837 
L 222.181615 148.89525 
L 222.191477 149.488664 
L 222.206185 150.082077 
L 222.227998 150.675491 
L 222.257831 151.268904 
L 222.294846 151.862318 
L 222.339677 152.455731 
L 222.397105 153.049145 
L 222.473506 153.642558 
L 222.572058 154.235972 
L 222.692218 154.829385 
L 222.833767 155.422799 
L 222.99893 156.016212 
L 223.188033 156.609626 
L 223.3935 157.203039 
L 223.60158 157.796453 
L 223.802354 158.389867 
L 223.997736 158.98328 
L 224.198831 159.576694 
L 224.413859 160.170107 
L 224.637498 160.763521 
L 224.854156 161.356934 
L 225.055038 161.950348 
L 225.252072 162.543761 
L 225.469999 163.137175 
L 225.720464 163.730588 
L 225.990523 164.324002 
L 226.265806 164.917415 
L 226.556253 165.510829 
L 226.884052 166.104242 
L 227.252909 166.697656 
L 227.64329 167.291069 
L 228.032023 167.884483 
L 228.40781 168.477896 
L 228.775693 169.07131 
L 229.152173 169.664723 
L 229.547069 170.258137 
L 229.940573 170.85155 
L 230.277527 171.444964 
L 230.493826 172.038377 
L 230.562508 172.631791 
L 230.516094 173.225204 
L 230.416263 173.818618 
L 230.30509 174.412031 
L 230.189005 175.005445 
L 230.051713 175.598858 
L 229.866529 176.192272 
L 229.606535 176.785685 
L 229.260397 177.379099 
L 228.84232 177.972512 
L 228.380857 178.565926 
L 227.895423 179.159339 
L 227.390336 179.752753 
L 226.875454 180.346166 
L 226.381271 180.93958 
L 225.94105 181.532993 
L 225.562242 182.126407 
L 225.225929 182.71982 
L 224.911959 183.313234 
L 224.615759 183.906647 
L 224.341771 184.500061 
L 224.090652 185.093474 
L 223.857888 185.686888 
L 223.639162 186.280301 
L 223.43192 186.873715 
L 223.235751 187.467128 
L 223.054387 188.060542 
L 222.893259 188.653955 
L 222.754303 189.247369 
L 222.636443 189.840782 
L 222.538895 190.434196 
L 222.460629 191.027609 
L 222.399351 191.621023 
L 222.353151 192.214436 
L 222.320509 192.80785 
L 222.297628 193.401263 
L 222.278494 193.994677 
L 222.258995 194.58809 
L 222.239275 195.181504 
L 222.221428 195.774917 
L 222.206751 196.368331 
L 222.195555 196.961744 
L 222.187666 197.555158 
L 222.182263 198.148571 
L 222.178113 198.741985 
L 222.174476 199.335398 
L 222.171587 199.928812 
L 222.170108 200.522225 
L 222.170183 201.115639 
L 222.171039 201.709052 
L 222.171465 202.302466 
z
" clip-path="url(#p485d6b4125)" style="fill: #348abd; fill-opacity: 0.3"/>
   </g>
   <g id="PolyCollection_7">
    <path d="M 250.158889 196.443225 
L 250.148572 196.443225 
L 250.148976 195.962395 
L 250.149789 195.481566 
L 250.149826 195.000737 
L 250.148326 194.519908 
L 250.145434 194.039079 
L 250.141781 193.55825 
L 250.137568 193.077421 
L 250.132046 192.596592 
L 250.124004 192.115763 
L 250.112639 191.634934 
L 250.097782 191.154105 
L 250.079796 190.673276 
L 250.06004 190.192447 
L 250.040507 189.711618 
L 250.021074 189.230789 
L 249.997489 188.74996 
L 249.963864 188.269131 
L 249.916529 187.788302 
L 249.853882 187.307473 
L 249.773936 186.826644 
L 249.674492 186.345814 
L 249.554541 185.864985 
L 249.413212 185.384156 
L 249.24966 184.903327 
L 249.06622 184.422498 
L 248.868251 183.941669 
L 248.659082 183.46084 
L 248.438099 182.980011 
L 248.202561 182.499182 
L 247.947989 182.018353 
L 247.670333 181.537524 
L 247.37089 181.056695 
L 247.053347 180.575866 
L 246.711044 180.095037 
L 246.323164 179.614208 
L 245.873625 179.133379 
L 245.373837 178.65255 
L 244.857732 178.171721 
L 244.353177 177.690892 
L 243.868673 177.210063 
L 243.410605 176.729234 
L 243.000596 176.248404 
L 242.665965 175.767575 
L 242.417075 175.286746 
L 242.239515 174.805917 
L 242.105734 174.325088 
L 241.99015 173.844259 
L 241.879458 173.36343 
L 241.786088 172.882601 
L 241.757492 172.401772 
L 241.852802 171.920943 
L 242.094192 171.440114 
L 242.445769 170.959285 
L 242.842733 170.478456 
L 243.235741 169.997627 
L 243.611346 169.516798 
L 243.981833 169.035969 
L 244.362058 168.55514 
L 244.753805 168.074311 
L 245.143014 167.593482 
L 245.506839 167.112653 
L 245.832009 166.631823 
L 246.131043 166.150994 
L 246.428715 165.670165 
L 246.729118 165.189336 
L 247.010094 164.708507 
L 247.25292 164.227678 
L 247.463948 163.746849 
L 247.663838 163.26602 
L 247.865382 162.785191 
L 248.065218 162.304362 
L 248.252487 161.823533 
L 248.422597 161.342704 
L 248.582582 160.861875 
L 248.744618 160.381046 
L 248.915738 159.900217 
L 249.092259 159.419388 
L 249.262291 158.938559 
L 249.414822 158.45773 
L 249.547153 157.976901 
L 249.663074 157.496072 
L 249.765542 157.015242 
L 249.853434 156.534413 
L 249.924902 156.053584 
L 249.981532 155.572755 
L 250.027561 155.091926 
L 250.065688 154.611097 
L 250.095686 154.130268 
L 250.117135 153.649439 
L 250.131455 153.16861 
L 250.140767 152.687781 
L 250.146304 152.206952 
L 250.148601 151.726123 
L 250.148417 151.245294 
L 250.146888 150.764465 
L 250.144957 150.283636 
L 250.143156 149.802807 
L 250.142104 149.321978 
L 250.142651 148.841149 
L 250.164809 148.841149 
L 250.164809 148.841149 
L 250.165357 149.321978 
L 250.164305 149.802807 
L 250.162504 150.283636 
L 250.160573 150.764465 
L 250.159044 151.245294 
L 250.15886 151.726123 
L 250.161157 152.206952 
L 250.166694 152.687781 
L 250.176006 153.16861 
L 250.190326 153.649439 
L 250.211775 154.130268 
L 250.241772 154.611097 
L 250.2799 155.091926 
L 250.325929 155.572755 
L 250.382559 156.053584 
L 250.454027 156.534413 
L 250.541919 157.015242 
L 250.644387 157.496072 
L 250.760308 157.976901 
L 250.892639 158.45773 
L 251.04517 158.938559 
L 251.215202 159.419388 
L 251.391723 159.900217 
L 251.562843 160.381046 
L 251.724878 160.861875 
L 251.884864 161.342704 
L 252.054974 161.823533 
L 252.242243 162.304362 
L 252.442079 162.785191 
L 252.643623 163.26602 
L 252.843513 163.746849 
L 253.054541 164.227678 
L 253.297367 164.708507 
L 253.578342 165.189336 
L 253.878746 165.670165 
L 254.176418 166.150994 
L 254.475451 166.631823 
L 254.800622 167.112653 
L 255.164447 167.593482 
L 255.553656 168.074311 
L 255.945402 168.55514 
L 256.325628 169.035969 
L 256.696115 169.516798 
L 257.07172 169.997627 
L 257.464727 170.478456 
L 257.861692 170.959285 
L 258.213268 171.440114 
L 258.454659 171.920943 
L 258.549969 172.401772 
L 258.521372 172.882601 
L 258.428002 173.36343 
L 258.317311 173.844259 
L 258.201727 174.325088 
L 258.067946 174.805917 
L 257.890386 175.286746 
L 257.641496 175.767575 
L 257.306865 176.248404 
L 256.896855 176.729234 
L 256.438788 177.210063 
L 255.954284 177.690892 
L 255.449729 178.171721 
L 254.933624 178.65255 
L 254.433836 179.133379 
L 253.984297 179.614208 
L 253.596417 180.095037 
L 253.254113 180.575866 
L 252.936571 181.056695 
L 252.637128 181.537524 
L 252.359472 182.018353 
L 252.1049 182.499182 
L 251.869362 182.980011 
L 251.648379 183.46084 
L 251.439209 183.941669 
L 251.241241 184.422498 
L 251.057801 184.903327 
L 250.894249 185.384156 
L 250.75292 185.864985 
L 250.632968 186.345814 
L 250.533525 186.826644 
L 250.453579 187.307473 
L 250.390932 187.788302 
L 250.343597 188.269131 
L 250.309972 188.74996 
L 250.286387 189.230789 
L 250.266954 189.711618 
L 250.247421 190.192447 
L 250.227665 190.673276 
L 250.209679 191.154105 
L 250.194822 191.634934 
L 250.183457 192.115763 
L 250.175414 192.596592 
L 250.169893 193.077421 
L 250.16568 193.55825 
L 250.162027 194.039079 
L 250.159134 194.519908 
L 250.157635 195.000737 
L 250.157671 195.481566 
L 250.158484 195.962395 
L 250.158889 196.443225 
z
" clip-path="url(#p485d6b4125)" style="fill: #348abd; fill-opacity: 0.3"/>
   </g>
   <g id="PolyCollection_8">
    <path d="M 278.146323 191.725144 
L 278.13606 191.725144 
L 278.136454 191.331841 
L 278.13724 190.938539 
L 278.137221 190.545236 
L 278.13565 190.151934 
L 278.132693 189.758631 
L 278.128975 189.365329 
L 278.124636 188.972026 
L 278.11886 188.578723 
L 278.110428 188.185421 
L 278.098578 187.792118 
L 278.083184 187.398816 
L 278.064721 187.005513 
L 278.044727 186.612211 
L 278.025078 186.218908 
L 278.005023 185.825606 
L 277.979731 185.432303 
L 277.943404 185.039001 
L 277.892742 184.645698 
L 277.826099 184.252396 
L 277.741283 183.859093 
L 277.636261 183.465791 
L 277.510129 183.072488 
L 277.361866 182.679186 
L 277.191181 182.285883 
L 277.001509 181.892581 
L 276.798193 181.499278 
L 276.58349 181.105976 
L 276.356036 180.712673 
L 276.11248 180.31937 
L 275.847961 179.926068 
L 275.55974 179.532765 
L 275.250751 179.139463 
L 274.92235 178.74616 
L 274.561996 178.352858 
L 274.147495 177.959555 
L 273.671398 177.566253 
L 273.156271 177.17295 
L 272.637411 176.779648 
L 272.135285 176.386345 
L 271.655368 175.993043 
L 271.210304 175.59974 
L 270.827068 175.206438 
L 270.528049 174.813135 
L 270.31205 174.419833 
L 270.156269 174.02653 
L 270.032002 173.633228 
L 269.917929 173.239925 
L 269.811811 172.846623 
L 269.744953 172.45332 
L 269.776918 172.060017 
L 269.953224 171.666715 
L 270.263993 171.273412 
L 270.651284 170.88011 
L 271.053461 170.486807 
L 271.440299 170.093505 
L 271.815327 169.700202 
L 272.19491 169.3069 
L 272.587098 168.913597 
L 272.983536 168.520295 
L 273.362898 168.126992 
L 273.70579 167.73369 
L 274.015282 167.340387 
L 274.315656 166.947085 
L 274.621565 166.553782 
L 274.919235 166.16048 
L 275.187626 165.767177 
L 275.426329 165.373875 
L 275.65267 164.980572 
L 275.879139 164.587269 
L 276.101019 164.193967 
L 276.3031 163.800664 
L 276.475113 163.407362 
L 276.621116 163.014059 
L 276.755616 162.620757 
L 276.892816 162.227454 
L 277.038957 161.834152 
L 277.190073 161.440849 
L 277.33498 161.047547 
L 277.463667 160.654244 
L 277.574451 160.260942 
L 277.672182 159.867639 
L 277.760859 159.474337 
L 277.839705 159.081034 
L 277.905558 158.687732 
L 277.957748 158.294429 
L 277.999812 157.901127 
L 278.03605 157.507824 
L 278.067496 157.114522 
L 278.092576 156.721219 
L 278.110581 156.327916 
L 278.122717 155.934614 
L 278.130444 155.541311 
L 278.134475 155.148009 
L 278.135408 154.754706 
L 278.134304 154.361404 
L 278.132342 153.968101 
L 278.130412 153.574799 
L 278.129333 153.181496 
L 278.129949 152.788194 
L 278.152433 152.788194 
L 278.152433 152.788194 
L 278.153049 153.181496 
L 278.15197 153.574799 
L 278.15004 153.968101 
L 278.148079 154.361404 
L 278.146974 154.754706 
L 278.147907 155.148009 
L 278.151938 155.541311 
L 278.159665 155.934614 
L 278.171801 156.327916 
L 278.189806 156.721219 
L 278.214887 157.114522 
L 278.246333 157.507824 
L 278.282571 157.901127 
L 278.324635 158.294429 
L 278.376824 158.687732 
L 278.442678 159.081034 
L 278.521523 159.474337 
L 278.610201 159.867639 
L 278.707931 160.260942 
L 278.818715 160.654244 
L 278.947402 161.047547 
L 279.092309 161.440849 
L 279.243426 161.834152 
L 279.389566 162.227454 
L 279.526766 162.620757 
L 279.661267 163.014059 
L 279.80727 163.407362 
L 279.979282 163.800664 
L 280.181363 164.193967 
L 280.403244 164.587269 
L 280.629713 164.980572 
L 280.856054 165.373875 
L 281.094756 165.767177 
L 281.363147 166.16048 
L 281.660818 166.553782 
L 281.966726 166.947085 
L 282.2671 167.340387 
L 282.576593 167.73369 
L 282.919484 168.126992 
L 283.298846 168.520295 
L 283.695285 168.913597 
L 284.087472 169.3069 
L 284.467056 169.700202 
L 284.842083 170.093505 
L 285.228921 170.486807 
L 285.631098 170.88011 
L 286.018389 171.273412 
L 286.329159 171.666715 
L 286.505464 172.060017 
L 286.537429 172.45332 
L 286.470571 172.846623 
L 286.364453 173.239925 
L 286.250381 173.633228 
L 286.126113 174.02653 
L 285.970332 174.419833 
L 285.754333 174.813135 
L 285.455314 175.206438 
L 285.072078 175.59974 
L 284.627014 175.993043 
L 284.147097 176.386345 
L 283.644972 176.779648 
L 283.126112 177.17295 
L 282.610985 177.566253 
L 282.134887 177.959555 
L 281.720387 178.352858 
L 281.360033 178.74616 
L 281.031631 179.139463 
L 280.722642 179.532765 
L 280.434422 179.926068 
L 280.169902 180.31937 
L 279.926346 180.712673 
L 279.698892 181.105976 
L 279.48419 181.499278 
L 279.280873 181.892581 
L 279.091202 182.285883 
L 278.920517 182.679186 
L 278.772254 183.072488 
L 278.646121 183.465791 
L 278.541099 183.859093 
L 278.456284 184.252396 
L 278.389641 184.645698 
L 278.338979 185.039001 
L 278.302652 185.432303 
L 278.27736 185.825606 
L 278.257304 186.218908 
L 278.237655 186.612211 
L 278.217662 187.005513 
L 278.199199 187.398816 
L 278.183804 187.792118 
L 278.171955 188.185421 
L 278.163523 188.578723 
L 278.157747 188.972026 
L 278.153408 189.365329 
L 278.149689 189.758631 
L 278.146732 190.151934 
L 278.145162 190.545236 
L 278.145143 190.938539 
L 278.145928 191.331841 
L 278.146323 191.725144 
z
" clip-path="url(#p485d6b4125)" style="fill: #348abd; fill-opacity: 0.3"/>
   </g>
   <g id="PolyCollection_9">
    <path d="M 306.133768 187.8602 
L 306.123536 187.8602 
L 306.123935 187.535893 
L 306.124708 187.211586 
L 306.124609 186.887279 
L 306.122898 186.562972 
L 306.1198 186.238664 
L 306.115949 185.914357 
L 306.111384 185.59005 
L 306.105146 185.265743 
L 306.095985 184.941436 
L 306.083216 184.617129 
L 306.066809 184.292822 
L 306.047473 183.968515 
L 306.027062 183.644207 
L 306.007136 183.3199 
L 305.98569 182.995593 
L 305.956911 182.671286 
L 305.9153 182.346979 
L 305.858177 182.022672 
L 305.783704 181.698365 
L 305.689429 181.374058 
L 305.57369 181.04975 
L 305.435615 180.725443 
L 305.274129 180.401136 
L 305.090481 180.076829 
L 304.889802 179.752522 
L 304.676576 179.428215 
L 304.451062 179.103908 
L 304.210635 178.779601 
L 303.950736 178.455293 
L 303.666853 178.130986 
L 303.359649 177.806679 
L 303.032654 177.482372 
L 302.678942 177.158065 
L 302.276865 176.833758 
L 301.810569 176.509451 
L 301.293922 176.185144 
L 300.763094 175.860836 
L 300.2457 175.536529 
L 299.750244 175.212222 
L 299.286733 174.887915 
L 298.881065 174.563608 
L 298.559603 174.239301 
L 298.326197 173.914994 
L 298.159765 173.590687 
L 298.030036 173.26638 
L 297.913046 172.942072 
L 297.803891 172.617765 
L 297.732414 172.293458 
L 297.759921 171.969151 
L 297.935584 171.644844 
L 298.250788 171.320537 
L 298.645311 170.99623 
L 299.054819 170.671923 
L 299.448584 170.347615 
L 299.83122 170.023308 
L 300.219612 169.699001 
L 300.6207 169.374694 
L 301.023814 169.050387 
L 301.405765 168.72608 
L 301.748823 168.401773 
L 302.061107 168.077466 
L 302.368575 167.753158 
L 302.68043 167.428851 
L 302.977824 167.104544 
L 303.242693 166.780237 
L 303.481497 166.45593 
L 303.713915 166.131623 
L 303.949227 165.807316 
L 304.178859 165.483009 
L 304.387071 165.158701 
L 304.565932 164.834394 
L 304.720565 164.510087 
L 304.862401 164.18578 
L 305.000846 163.861473 
L 305.140039 163.537166 
L 305.277388 163.212859 
L 305.404375 162.888552 
L 305.513565 162.564244 
L 305.605494 162.239937 
L 305.686657 161.91563 
L 305.762229 161.591323 
L 305.83224 161.267016 
L 305.893093 160.942709 
L 305.941777 160.618402 
L 305.979551 160.294095 
L 306.011302 159.969787 
L 306.040679 159.64548 
L 306.066979 159.321173 
L 306.087626 158.996866 
L 306.102076 158.672559 
L 306.111953 158.348252 
L 306.118659 158.023945 
L 306.122432 157.699638 
L 306.123346 157.37533 
L 306.122138 157.051023 
L 306.119947 156.726716 
L 306.11779 156.402409 
L 306.116603 156.078102 
L 306.117249 155.753795 
L 306.140055 155.753795 
L 306.140055 155.753795 
L 306.140701 156.078102 
L 306.139514 156.402409 
L 306.137357 156.726716 
L 306.135166 157.051023 
L 306.133958 157.37533 
L 306.134872 157.699638 
L 306.138645 158.023945 
L 306.145351 158.348252 
L 306.155228 158.672559 
L 306.169678 158.996866 
L 306.190325 159.321173 
L 306.216625 159.64548 
L 306.246002 159.969787 
L 306.277754 160.294095 
L 306.315527 160.618402 
L 306.364211 160.942709 
L 306.425064 161.267016 
L 306.495075 161.591323 
L 306.570647 161.91563 
L 306.65181 162.239937 
L 306.743739 162.564244 
L 306.852929 162.888552 
L 306.979916 163.212859 
L 307.117265 163.537166 
L 307.256458 163.861473 
L 307.394903 164.18578 
L 307.536739 164.510087 
L 307.691372 164.834394 
L 307.870233 165.158701 
L 308.078445 165.483009 
L 308.308077 165.807316 
L 308.54339 166.131623 
L 308.775807 166.45593 
L 309.014611 166.780237 
L 309.279481 167.104544 
L 309.576874 167.428851 
L 309.888729 167.753158 
L 310.196197 168.077466 
L 310.508481 168.401773 
L 310.851539 168.72608 
L 311.23349 169.050387 
L 311.636604 169.374694 
L 312.037692 169.699001 
L 312.426084 170.023308 
L 312.80872 170.347615 
L 313.202485 170.671923 
L 313.611993 170.99623 
L 314.006516 171.320537 
L 314.32172 171.644844 
L 314.497383 171.969151 
L 314.52489 172.293458 
L 314.453413 172.617765 
L 314.344258 172.942072 
L 314.227268 173.26638 
L 314.097539 173.590687 
L 313.931107 173.914994 
L 313.697701 174.239301 
L 313.376239 174.563608 
L 312.970571 174.887915 
L 312.50706 175.212222 
L 312.011604 175.536529 
L 311.49421 175.860836 
L 310.963383 176.185144 
L 310.446735 176.509451 
L 309.98044 176.833758 
L 309.578362 177.158065 
L 309.22465 177.482372 
L 308.897655 177.806679 
L 308.590452 178.130986 
L 308.306568 178.455293 
L 308.046669 178.779601 
L 307.806242 179.103908 
L 307.580728 179.428215 
L 307.367502 179.752522 
L 307.166823 180.076829 
L 306.983175 180.401136 
L 306.821689 180.725443 
L 306.683614 181.04975 
L 306.567875 181.374058 
L 306.4736 181.698365 
L 306.399127 182.022672 
L 306.342004 182.346979 
L 306.300394 182.671286 
L 306.271614 182.995593 
L 306.250168 183.3199 
L 306.230242 183.644207 
L 306.209831 183.968515 
L 306.190496 184.292822 
L 306.174088 184.617129 
L 306.161319 184.941436 
L 306.152158 185.265743 
L 306.14592 185.59005 
L 306.141355 185.914357 
L 306.137504 186.238664 
L 306.134406 186.562972 
L 306.132696 186.887279 
L 306.132596 187.211586 
L 306.133369 187.535893 
L 306.133768 187.8602 
z
" clip-path="url(#p485d6b4125)" style="fill: #348abd; fill-opacity: 0.3"/>
   </g>
   <g id="PolyCollection_10">
    <path d="M 334.121218 184.652666 
L 334.111007 184.652666 
L 334.111421 184.384685 
L 334.11219 184.116704 
L 334.111987 183.848723 
L 334.110084 183.580742 
L 334.106791 183.312761 
L 334.10276 183.04478 
L 334.097868 182.776799 
L 334.090965 182.508818 
L 334.08078 182.240837 
L 334.066744 181.972856 
L 334.048987 181.704875 
L 334.028606 181.436894 
L 334.007782 181.168913 
L 333.987253 180.900932 
L 333.963153 180.632951 
L 333.928804 180.36497 
L 333.879496 180.096989 
L 333.813071 179.829008 
L 333.7272 179.561027 
L 333.619459 179.293046 
L 333.488667 179.025065 
L 333.333705 178.757084 
L 333.154365 178.489103 
L 332.954674 178.221122 
L 332.74042 177.953141 
L 332.513563 177.68516 
L 332.272111 177.417179 
L 332.011765 177.149198 
L 331.727191 176.881217 
L 331.41735 176.613236 
L 331.086179 176.345255 
L 330.72951 176.077274 
L 330.326186 175.809293 
L 329.856454 175.541312 
L 329.330679 175.273331 
L 328.786407 175.00535 
L 328.25486 174.737369 
L 327.746225 174.469388 
L 327.271222 174.201407 
L 326.857577 173.933426 
L 326.532983 173.665445 
L 326.299947 173.397464 
L 326.134438 173.129483 
L 326.004043 172.861502 
L 325.884923 172.593521 
L 325.776905 172.32554 
L 325.719875 172.057559 
L 325.781538 171.789578 
L 326.002616 171.521597 
L 326.356223 171.253616 
L 326.771049 170.985635 
L 327.186771 170.717654 
L 327.584714 170.449673 
L 327.977729 170.181692 
L 328.381644 169.913711 
L 328.7961 169.64573 
L 329.202265 169.377749 
L 329.575016 169.109768 
L 329.907663 168.841787 
L 330.222421 168.573806 
L 330.541268 168.305825 
L 330.855082 168.037844 
L 331.139814 167.769863 
L 331.392028 167.501882 
L 331.63071 167.233901 
L 331.8713 166.96592 
L 332.109819 166.697939 
L 332.329951 166.429958 
L 332.520324 166.161977 
L 332.684044 165.893996 
L 332.83341 165.626015 
L 332.979644 165.358034 
L 333.127838 165.090053 
L 333.274993 164.822072 
L 333.410614 164.554091 
L 333.524558 164.28611 
L 333.615929 164.018129 
L 333.691991 163.750148 
L 333.760156 163.482167 
L 333.823279 163.214186 
L 333.880033 162.946205 
L 333.927129 162.678224 
L 333.962867 162.410243 
L 333.990133 162.142262 
L 334.014613 161.874281 
L 334.039308 161.6063 
L 334.06218 161.338319 
L 334.079806 161.070338 
L 334.091689 160.802357 
L 334.09993 160.534376 
L 334.106167 160.266395 
L 334.110397 159.998414 
L 334.112149 159.730433 
L 334.111662 159.462452 
L 334.109883 159.194471 
L 334.107743 158.92649 
L 334.105776 158.658509 
L 334.104592 158.390528 
L 334.105112 158.122547 
L 334.127113 158.122547 
L 334.127113 158.122547 
L 334.127634 158.390528 
L 334.12645 158.658509 
L 334.124482 158.92649 
L 334.122343 159.194471 
L 334.120563 159.462452 
L 334.120076 159.730433 
L 334.121829 159.998414 
L 334.126059 160.266395 
L 334.132296 160.534376 
L 334.140537 160.802357 
L 334.15242 161.070338 
L 334.170045 161.338319 
L 334.192917 161.6063 
L 334.217613 161.874281 
L 334.242093 162.142262 
L 334.269358 162.410243 
L 334.305097 162.678224 
L 334.352193 162.946205 
L 334.408947 163.214186 
L 334.47207 163.482167 
L 334.540234 163.750148 
L 334.616297 164.018129 
L 334.707668 164.28611 
L 334.821611 164.554091 
L 334.957232 164.822072 
L 335.104387 165.090053 
L 335.252582 165.358034 
L 335.398816 165.626015 
L 335.548182 165.893996 
L 335.711902 166.161977 
L 335.902274 166.429958 
L 336.122406 166.697939 
L 336.360926 166.96592 
L 336.601516 167.233901 
L 336.840197 167.501882 
L 337.092412 167.769863 
L 337.377144 168.037844 
L 337.690958 168.305825 
L 338.009804 168.573806 
L 338.324562 168.841787 
L 338.657209 169.109768 
L 339.02996 169.377749 
L 339.436126 169.64573 
L 339.850582 169.913711 
L 340.254497 170.181692 
L 340.647512 170.449673 
L 341.045455 170.717654 
L 341.461177 170.985635 
L 341.876003 171.253616 
L 342.22961 171.521597 
L 342.450688 171.789578 
L 342.512351 172.057559 
L 342.455321 172.32554 
L 342.347303 172.593521 
L 342.228182 172.861502 
L 342.097788 173.129483 
L 341.932279 173.397464 
L 341.699243 173.665445 
L 341.374649 173.933426 
L 340.961004 174.201407 
L 340.486001 174.469388 
L 339.977365 174.737369 
L 339.445818 175.00535 
L 338.901547 175.273331 
L 338.375772 175.541312 
L 337.906039 175.809293 
L 337.502716 176.077274 
L 337.146047 176.345255 
L 336.814876 176.613236 
L 336.505035 176.881217 
L 336.220461 177.149198 
L 335.960114 177.417179 
L 335.718663 177.68516 
L 335.491806 177.953141 
L 335.277552 178.221122 
L 335.07786 178.489103 
L 334.898521 178.757084 
L 334.743559 179.025065 
L 334.612767 179.293046 
L 334.505026 179.561027 
L 334.419154 179.829008 
L 334.35273 180.096989 
L 334.303422 180.36497 
L 334.269073 180.632951 
L 334.244972 180.900932 
L 334.224443 181.168913 
L 334.20362 181.436894 
L 334.183239 181.704875 
L 334.165482 181.972856 
L 334.151446 182.240837 
L 334.141261 182.508818 
L 334.134358 182.776799 
L 334.129466 183.04478 
L 334.125434 183.312761 
L 334.122142 183.580742 
L 334.120239 183.848723 
L 334.120035 184.116704 
L 334.120804 184.384685 
L 334.121218 184.652666 
z
" clip-path="url(#p485d6b4125)" style="fill: #348abd; fill-opacity: 0.3"/>
   </g>
   <g id="PolyCollection_11">
    <path d="M 362.108676 181.969545 
L 362.098471 181.969545 
L 362.098901 181.75037 
L 362.09967 181.531195 
L 362.099369 181.312021 
L 362.097288 181.092846 
L 362.09382 180.873671 
L 362.089616 180.654497 
L 362.084393 180.435322 
L 362.076829 180.216147 
L 362.065665 179.996973 
L 362.050448 179.777798 
L 362.031493 179.558624 
L 362.010309 179.339449 
L 361.98919 179.120274 
L 361.967692 178.9011 
L 361.940279 178.681925 
L 361.900076 178.46275 
L 361.843251 178.243576 
L 361.76768 178.024401 
L 361.670612 177.805226 
L 361.550005 177.586052 
L 361.404807 177.366877 
L 361.233862 177.147702 
L 361.038965 176.928528 
L 360.826161 176.709353 
L 360.599864 176.490178 
L 360.359518 176.271004 
L 360.101488 176.051829 
L 359.820106 175.832654 
L 359.511862 175.61348 
L 359.179942 175.394305 
L 358.824523 175.17513 
L 358.427966 174.955956 
L 357.965524 174.736781 
L 357.438442 174.517606 
L 356.882499 174.298432 
L 356.335096 174.079257 
L 355.810608 173.860082 
L 355.318571 173.640908 
L 354.886276 173.421733 
L 354.544786 173.202558 
L 354.299947 172.983384 
L 354.12777 172.764209 
L 353.993668 172.545034 
L 353.871782 172.32586 
L 353.761887 172.106685 
L 353.707335 171.88751 
L 353.780197 171.668336 
L 354.019822 171.449161 
L 354.391749 171.229986 
L 354.81865 171.010812 
L 355.241169 170.791637 
L 355.645963 170.572462 
L 356.049321 170.353288 
L 356.465607 170.134113 
L 356.889716 169.914938 
L 357.298124 169.695764 
L 357.666714 169.476589 
L 357.998006 169.257414 
L 358.320224 169.03824 
L 358.647139 168.819065 
L 358.958998 168.59989 
L 359.235471 168.380716 
L 359.484804 168.161541 
L 359.728999 167.942366 
L 359.975692 167.723192 
L 360.212416 167.504017 
L 360.422295 167.284842 
L 360.601014 167.065668 
L 360.758562 166.846493 
L 360.908453 166.627318 
L 361.059134 166.408144 
L 361.210978 166.188969 
L 361.355285 165.969794 
L 361.480006 165.75062 
L 361.580715 165.531445 
L 361.6633 165.31227 
L 361.736026 165.093096 
L 361.802876 164.873921 
L 361.863273 164.654747 
L 361.914032 164.435572 
L 361.952178 164.216397 
L 361.978748 163.997223 
L 361.999511 163.778048 
L 362.020359 163.558873 
L 362.042194 163.339699 
L 362.061339 163.120524 
L 362.074688 162.901349 
L 362.083023 162.682175 
L 362.089129 162.463 
L 362.094458 162.243825 
L 362.098569 162.024651 
L 362.100656 161.805476 
L 362.100637 161.586301 
L 362.099205 161.367127 
L 362.097338 161.147952 
L 362.095572 160.928777 
L 362.09388 160.709603 
L 362.092639 160.490428 
L 362.092973 160.271253 
L 362.114175 160.271253 
L 362.114175 160.271253 
L 362.114509 160.490428 
L 362.113267 160.709603 
L 362.111576 160.928777 
L 362.10981 161.147952 
L 362.107943 161.367127 
L 362.106511 161.586301 
L 362.106491 161.805476 
L 362.108578 162.024651 
L 362.112689 162.243825 
L 362.118018 162.463 
L 362.124124 162.682175 
L 362.13246 162.901349 
L 362.145809 163.120524 
L 362.164953 163.339699 
L 362.186788 163.558873 
L 362.207637 163.778048 
L 362.228399 163.997223 
L 362.254969 164.216397 
L 362.293115 164.435572 
L 362.343875 164.654747 
L 362.404271 164.873921 
L 362.471122 165.093096 
L 362.543848 165.31227 
L 362.626432 165.531445 
L 362.727142 165.75062 
L 362.851862 165.969794 
L 362.996169 166.188969 
L 363.148013 166.408144 
L 363.298695 166.627318 
L 363.448585 166.846493 
L 363.606133 167.065668 
L 363.784853 167.284842 
L 363.994732 167.504017 
L 364.231455 167.723192 
L 364.478148 167.942366 
L 364.722344 168.161541 
L 364.971677 168.380716 
L 365.248149 168.59989 
L 365.560008 168.819065 
L 365.886923 169.03824 
L 366.209141 169.257414 
L 366.540433 169.476589 
L 366.909024 169.695764 
L 367.317431 169.914938 
L 367.741541 170.134113 
L 368.157827 170.353288 
L 368.561185 170.572462 
L 368.965978 170.791637 
L 369.388498 171.010812 
L 369.815399 171.229986 
L 370.187326 171.449161 
L 370.426951 171.668336 
L 370.499812 171.88751 
L 370.445261 172.106685 
L 370.335366 172.32586 
L 370.213479 172.545034 
L 370.079378 172.764209 
L 369.9072 172.983384 
L 369.662361 173.202558 
L 369.320871 173.421733 
L 368.888577 173.640908 
L 368.396539 173.860082 
L 367.872051 174.079257 
L 367.324649 174.298432 
L 366.768705 174.517606 
L 366.241624 174.736781 
L 365.779181 174.955956 
L 365.382624 175.17513 
L 365.027205 175.394305 
L 364.695286 175.61348 
L 364.387041 175.832654 
L 364.105659 176.051829 
L 363.84763 176.271004 
L 363.607283 176.490178 
L 363.380986 176.709353 
L 363.168182 176.928528 
L 362.973285 177.147702 
L 362.80234 177.366877 
L 362.657143 177.586052 
L 362.536535 177.805226 
L 362.439467 178.024401 
L 362.363896 178.243576 
L 362.307071 178.46275 
L 362.266868 178.681925 
L 362.239456 178.9011 
L 362.217958 179.120274 
L 362.196839 179.339449 
L 362.175655 179.558624 
L 362.156699 179.777798 
L 362.141482 179.996973 
L 362.130319 180.216147 
L 362.122755 180.435322 
L 362.117531 180.654497 
L 362.113328 180.873671 
L 362.10986 181.092846 
L 362.107778 181.312021 
L 362.107477 181.531195 
L 362.108246 181.75037 
L 362.108676 181.969545 
z
" clip-path="url(#p485d6b4125)" style="fill: #348abd; fill-opacity: 0.3"/>
   </g>
   <g id="PolyCollection_12">
    <path d="M 390.096139 179.720031 
L 390.08593 179.720031 
L 390.086374 179.543659 
L 390.087142 179.367286 
L 390.086766 179.190914 
L 390.084549 179.014542 
L 390.08095 178.838169 
L 390.076612 178.661797 
L 390.071115 178.485424 
L 390.063021 178.309052 
L 390.051096 178.132679 
L 390.03498 177.956307 
L 390.015158 177.779935 
L 389.99347 177.603562 
L 389.972117 177.42719 
L 389.94953 177.250817 
L 389.919077 177.074445 
L 389.874091 176.898072 
L 389.811326 176.7217 
L 389.72844 176.545328 
L 389.622537 176.368955 
L 389.491939 176.192583 
L 389.335478 176.01621 
L 389.152478 175.839838 
L 388.946705 175.663466 
L 388.724703 175.487093 
L 388.489042 175.310721 
L 388.237596 175.134348 
L 387.965501 174.957976 
L 387.666932 174.781603 
L 387.341448 174.605231 
L 386.993114 174.428859 
L 386.613879 174.252486 
L 386.177876 174.076114 
L 385.669491 173.899741 
L 385.111644 173.723369 
L 384.548003 173.546996 
L 384.004239 173.370624 
L 383.488528 173.194252 
L 383.021544 173.017879 
L 382.638112 172.841507 
L 382.356365 172.665134 
L 382.160537 172.488762 
L 382.015449 172.312389 
L 381.889353 172.136017 
L 381.771856 171.959645 
L 381.694796 171.783272 
L 381.73056 171.6069 
L 381.935221 171.430527 
L 382.290463 171.254155 
L 382.719512 171.077783 
L 383.152404 170.90141 
L 383.5664 170.725038 
L 383.975626 170.548665 
L 384.397082 170.372293 
L 384.82843 170.19592 
L 385.24668 170.019548 
L 385.625368 169.843176 
L 385.964154 169.666803 
L 386.291747 169.490431 
L 386.624228 169.314058 
L 386.94188 169.137686 
L 387.223138 168.961313 
L 387.476542 168.784941 
L 387.725013 168.608569 
L 387.975812 168.432196 
L 388.215221 168.255824 
L 388.426026 168.079451 
L 388.605109 167.903079 
L 388.76384 167.726706 
L 388.916081 167.550334 
L 389.069713 167.373962 
L 389.223694 167.197589 
L 389.367664 167.021217 
L 389.489671 166.844844 
L 389.587441 166.668472 
L 389.668505 166.4921 
L 389.740839 166.315727 
L 389.807307 166.139355 
L 389.86639 165.962982 
L 389.914458 165.78661 
L 389.949288 165.610237 
L 389.973709 165.433865 
L 389.994489 165.257493 
L 390.0164 165.08112 
L 390.038253 164.904748 
L 390.055619 164.728375 
L 390.06652 164.552003 
L 390.073097 164.37563 
L 390.078349 164.199258 
L 390.08323 164.022886 
L 390.087023 163.846513 
L 390.08902 163.670141 
L 390.089184 163.493768 
L 390.087984 163.317396 
L 390.086247 163.141023 
L 390.084777 162.964651 
L 390.083585 162.788279 
L 390.082106 162.611906 
L 390.08068 162.435534 
L 390.080779 162.259161 
L 390.10129 162.259161 
L 390.10129 162.259161 
L 390.101389 162.435534 
L 390.099963 162.611906 
L 390.098484 162.788279 
L 390.097292 162.964651 
L 390.095822 163.141023 
L 390.094085 163.317396 
L 390.092884 163.493768 
L 390.093049 163.670141 
L 390.095046 163.846513 
L 390.098839 164.022886 
L 390.10372 164.199258 
L 390.108972 164.37563 
L 390.115549 164.552003 
L 390.12645 164.728375 
L 390.143816 164.904748 
L 390.165669 165.08112 
L 390.18758 165.257493 
L 390.20836 165.433865 
L 390.23278 165.610237 
L 390.267611 165.78661 
L 390.315679 165.962982 
L 390.374762 166.139355 
L 390.44123 166.315727 
L 390.513564 166.4921 
L 390.594628 166.668472 
L 390.692398 166.844844 
L 390.814405 167.021217 
L 390.958374 167.197589 
L 391.112356 167.373962 
L 391.265988 167.550334 
L 391.418229 167.726706 
L 391.57696 167.903079 
L 391.756043 168.079451 
L 391.966848 168.255824 
L 392.206257 168.432196 
L 392.457056 168.608569 
L 392.705527 168.784941 
L 392.958931 168.961313 
L 393.240189 169.137686 
L 393.557841 169.314058 
L 393.890322 169.490431 
L 394.217915 169.666803 
L 394.556701 169.843176 
L 394.935389 170.019548 
L 395.353639 170.19592 
L 395.784987 170.372293 
L 396.206443 170.548665 
L 396.615669 170.725038 
L 397.029665 170.90141 
L 397.462557 171.077783 
L 397.891606 171.254155 
L 398.246848 171.430527 
L 398.451509 171.6069 
L 398.487273 171.783272 
L 398.410213 171.959645 
L 398.292715 172.136017 
L 398.16662 172.312389 
L 398.021532 172.488762 
L 397.825704 172.665134 
L 397.543957 172.841507 
L 397.160525 173.017879 
L 396.693541 173.194252 
L 396.17783 173.370624 
L 395.634066 173.546996 
L 395.070425 173.723369 
L 394.512578 173.899741 
L 394.004192 174.076114 
L 393.56819 174.252486 
L 393.188955 174.428859 
L 392.840621 174.605231 
L 392.515137 174.781603 
L 392.216568 174.957976 
L 391.944473 175.134348 
L 391.693027 175.310721 
L 391.457366 175.487093 
L 391.235364 175.663466 
L 391.029591 175.839838 
L 390.846591 176.01621 
L 390.69013 176.192583 
L 390.559532 176.368955 
L 390.453629 176.545328 
L 390.370743 176.7217 
L 390.307978 176.898072 
L 390.262992 177.074445 
L 390.232539 177.250817 
L 390.209952 177.42719 
L 390.188599 177.603562 
L 390.166911 177.779935 
L 390.147089 177.956307 
L 390.130973 178.132679 
L 390.119048 178.309052 
L 390.110954 178.485424 
L 390.105457 178.661797 
L 390.101119 178.838169 
L 390.09752 179.014542 
L 390.095303 179.190914 
L 390.094927 179.367286 
L 390.095695 179.543659 
L 390.096139 179.720031 
z
" clip-path="url(#p485d6b4125)" style="fill: #348abd; fill-opacity: 0.3"/>
   </g>
   <g id="matplotlib.axis_1">
    <g id="xtick_1">
     <g id="line2d_1">
      <path d="M 82.228966 307.584 
L 82.228966 41.472 
" clip-path="url(#p485d6b4125)" style="fill: none; stroke-dasharray: 1.85,0.8; stroke-dashoffset: 0; stroke: #b2b2b2; stroke-width: 0.5"/>
     </g>
     <g id="line2d_2">
      <defs>
       <path id="mbbff5fe8bb" d="M 0 0 
L 0 -3.5 
" style="stroke: #000000; stroke-width: 0.8"/>
      </defs>
      <g>
       <use xlink:href="#mbbff5fe8bb" x="82.228966" y="307.584" style="stroke: #000000; stroke-width: 0.8"/>
      </g>
     </g>
     <g id="text_1">
      <!-- 0 -->
      <g transform="translate(79.047716 318.682437) scale(0.1 -0.1)">
       <defs>
        <path id="DejaVuSans-30" d="M 2034 4250 
Q 1547 4250 1301 3770 
Q 1056 3291 1056 2328 
Q 1056 1369 1301 889 
Q 1547 409 2034 409 
Q 2525 409 2770 889 
Q 3016 1369 3016 2328 
Q 3016 3291 2770 3770 
Q 2525 4250 2034 4250 
z
M 2034 4750 
Q 2819 4750 3233 4129 
Q 3647 3509 3647 2328 
Q 3647 1150 3233 529 
Q 2819 -91 2034 -91 
Q 1250 -91 836 529 
Q 422 1150 422 2328 
Q 422 3509 836 4129 
Q 1250 4750 2034 4750 
z
" transform="scale(0.015625)"/>
       </defs>
       <use xlink:href="#DejaVuSans-30"/>
      </g>
     </g>
    </g>
    <g id="xtick_2">
     <g id="line2d_3">
      <path d="M 138.203887 307.584 
L 138.203887 41.472 
" clip-path="url(#p485d6b4125)" style="fill: none; stroke-dasharray: 1.85,0.8; stroke-dashoffset: 0; stroke: #b2b2b2; stroke-width: 0.5"/>
     </g>
     <g id="line2d_4">
      <g>
       <use xlink:href="#mbbff5fe8bb" x="138.203887" y="307.584" style="stroke: #000000; stroke-width: 0.8"/>
      </g>
     </g>
     <g id="text_2">
      <!-- 50 -->
      <g transform="translate(131.841387 318.682437) scale(0.1 -0.1)">
       <defs>
        <path id="DejaVuSans-35" d="M 691 4666 
L 3169 4666 
L 3169 4134 
L 1269 4134 
L 1269 2991 
Q 1406 3038 1543 3061 
Q 1681 3084 1819 3084 
Q 2600 3084 3056 2656 
Q 3513 2228 3513 1497 
Q 3513 744 3044 326 
Q 2575 -91 1722 -91 
Q 1428 -91 1123 -41 
Q 819 9 494 109 
L 494 744 
Q 775 591 1075 516 
Q 1375 441 1709 441 
Q 2250 441 2565 725 
Q 2881 1009 2881 1497 
Q 2881 1984 2565 2268 
Q 2250 2553 1709 2553 
Q 1456 2553 1204 2497 
Q 953 2441 691 2322 
L 691 4666 
z
" transform="scale(0.015625)"/>
       </defs>
       <use xlink:href="#DejaVuSans-35"/>
       <use xlink:href="#DejaVuSans-30" x="63.623047"/>
      </g>
     </g>
    </g>
    <g id="xtick_3">
     <g id="line2d_5">
      <path d="M 194.178809 307.584 
L 194.178809 41.472 
" clip-path="url(#p485d6b4125)" style="fill: none; stroke-dasharray: 1.85,0.8; stroke-dashoffset: 0; stroke: #b2b2b2; stroke-width: 0.5"/>
     </g>
     <g id="line2d_6">
      <g>
       <use xlink:href="#mbbff5fe8bb" x="194.178809" y="307.584" style="stroke: #000000; stroke-width: 0.8"/>
      </g>
     </g>
     <g id="text_3">
      <!-- 100 -->
      <g transform="translate(184.635059 318.682437) scale(0.1 -0.1)">
       <defs>
        <path id="DejaVuSans-31" d="M 794 531 
L 1825 531 
L 1825 4091 
L 703 3866 
L 703 4441 
L 1819 4666 
L 2450 4666 
L 2450 531 
L 3481 531 
L 3481 0 
L 794 0 
L 794 531 
z
" transform="scale(0.015625)"/>
       </defs>
       <use xlink:href="#DejaVuSans-31"/>
       <use xlink:href="#DejaVuSans-30" x="63.623047"/>
       <use xlink:href="#DejaVuSans-30" x="127.246094"/>
      </g>
     </g>
    </g>
    <g id="xtick_4">
     <g id="line2d_7">
      <path d="M 250.15373 307.584 
L 250.15373 41.472 
" clip-path="url(#p485d6b4125)" style="fill: none; stroke-dasharray: 1.85,0.8; stroke-dashoffset: 0; stroke: #b2b2b2; stroke-width: 0.5"/>
     </g>
     <g id="line2d_8">
      <g>
       <use xlink:href="#mbbff5fe8bb" x="250.15373" y="307.584" style="stroke: #000000; stroke-width: 0.8"/>
      </g>
     </g>
     <g id="text_4">
      <!-- 150 -->
      <g transform="translate(240.60998 318.682437) scale(0.1 -0.1)">
       <use xlink:href="#DejaVuSans-31"/>
       <use xlink:href="#DejaVuSans-35" x="63.623047"/>
       <use xlink:href="#DejaVuSans-30" x="127.246094"/>
      </g>
     </g>
    </g>
    <g id="xtick_5">
     <g id="line2d_9">
      <path d="M 306.128652 307.584 
L 306.128652 41.472 
" clip-path="url(#p485d6b4125)" style="fill: none; stroke-dasharray: 1.85,0.8; stroke-dashoffset: 0; stroke: #b2b2b2; stroke-width: 0.5"/>
     </g>
     <g id="line2d_10">
      <g>
       <use xlink:href="#mbbff5fe8bb" x="306.128652" y="307.584" style="stroke: #000000; stroke-width: 0.8"/>
      </g>
     </g>
     <g id="text_5">
      <!-- 200 -->
      <g transform="translate(296.584902 318.682437) scale(0.1 -0.1)">
       <defs>
        <path id="DejaVuSans-32" d="M 1228 531 
L 3431 531 
L 3431 0 
L 469 0 
L 469 531 
Q 828 903 1448 1529 
Q 2069 2156 2228 2338 
Q 2531 2678 2651 2914 
Q 2772 3150 2772 3378 
Q 2772 3750 2511 3984 
Q 2250 4219 1831 4219 
Q 1534 4219 1204 4116 
Q 875 4013 500 3803 
L 500 4441 
Q 881 4594 1212 4672 
Q 1544 4750 1819 4750 
Q 2544 4750 2975 4387 
Q 3406 4025 3406 3419 
Q 3406 3131 3298 2873 
Q 3191 2616 2906 2266 
Q 2828 2175 2409 1742 
Q 1991 1309 1228 531 
z
" transform="scale(0.015625)"/>
       </defs>
       <use xlink:href="#DejaVuSans-32"/>
       <use xlink:href="#DejaVuSans-30" x="63.623047"/>
       <use xlink:href="#DejaVuSans-30" x="127.246094"/>
      </g>
     </g>
    </g>
    <g id="xtick_6">
     <g id="line2d_11">
      <path d="M 362.103574 307.584 
L 362.103574 41.472 
" clip-path="url(#p485d6b4125)" style="fill: none; stroke-dasharray: 1.85,0.8; stroke-dashoffset: 0; stroke: #b2b2b2; stroke-width: 0.5"/>
     </g>
     <g id="line2d_12">
      <g>
       <use xlink:href="#mbbff5fe8bb" x="362.103574" y="307.584" style="stroke: #000000; stroke-width: 0.8"/>
      </g>
     </g>
     <g id="text_6">
      <!-- 250 -->
      <g transform="translate(352.559824 318.682437) scale(0.1 -0.1)">
       <use xlink:href="#DejaVuSans-32"/>
       <use xlink:href="#DejaVuSans-35" x="63.623047"/>
       <use xlink:href="#DejaVuSans-30" x="127.246094"/>
      </g>
     </g>
    </g>
    <g id="text_7">
     <!-- $s$ -->
     <g transform="translate(233.34 333.88025) scale(0.12 -0.12)">
      <defs>
       <path id="Cmmi10-73" d="M 556 391 
Q 728 97 1247 97 
Q 1472 97 1675 173 
Q 1878 250 2011 403 
Q 2144 556 2144 775 
Q 2144 941 2025 1047 
Q 1906 1153 1734 1191 
L 1388 1259 
Q 1150 1319 997 1481 
Q 844 1644 844 1875 
Q 844 2159 998 2378 
Q 1153 2597 1406 2712 
Q 1659 2828 1931 2828 
Q 2222 2828 2451 2689 
Q 2681 2550 2681 2278 
Q 2681 2131 2598 2018 
Q 2516 1906 2369 1906 
Q 2284 1906 2223 1961 
Q 2163 2016 2163 2100 
Q 2163 2175 2205 2245 
Q 2247 2316 2317 2358 
Q 2388 2400 2463 2400 
Q 2406 2538 2251 2600 
Q 2097 2663 1919 2663 
Q 1756 2663 1593 2597 
Q 1431 2531 1332 2404 
Q 1234 2278 1234 2106 
Q 1234 1991 1315 1903 
Q 1397 1816 1516 1778 
L 1888 1703 
Q 2066 1666 2214 1570 
Q 2363 1475 2448 1329 
Q 2534 1184 2534 997 
Q 2534 759 2401 528 
Q 2269 297 2075 159 
Q 1734 -72 1241 -72 
Q 900 -72 615 84 
Q 331 241 331 550 
Q 331 725 432 854 
Q 534 984 709 984 
Q 813 984 883 921 
Q 953 859 953 756 
Q 953 609 843 500 
Q 734 391 588 391 
L 556 391 
z
" transform="scale(0.015625)"/>
      </defs>
      <use xlink:href="#Cmmi10-73" transform="translate(0 0.8125)"/>
     </g>
    </g>
   </g>
   <g id="matplotlib.axis_2">
    <g id="ytick_1">
     <g id="line2d_13">
      <path d="M 57.6 271.296 
L 414.72 271.296 
" clip-path="url(#p485d6b4125)" style="fill: none; stroke-dasharray: 1.85,0.8; stroke-dashoffset: 0; stroke: #b2b2b2; stroke-width: 0.5"/>
     </g>
     <g id="line2d_14">
      <defs>
       <path id="m12c264144f" d="M 0 0 
L 3.5 0 
" style="stroke: #000000; stroke-width: 0.8"/>
      </defs>
      <g>
       <use xlink:href="#m12c264144f" x="57.6" y="271.296" style="stroke: #000000; stroke-width: 0.8"/>
      </g>
     </g>
     <g id="text_8">
      <!-- 4 -->
      <g transform="translate(39.357813 275.095219) scale(0.1 -0.1)">
       <defs>
        <path id="DejaVuSans-2212" d="M 678 2272 
L 4684 2272 
L 4684 1741 
L 678 1741 
L 678 2272 
z
" transform="scale(0.015625)"/>
        <path id="DejaVuSans-34" d="M 2419 4116 
L 825 1625 
L 2419 1625 
L 2419 4116 
z
M 2253 4666 
L 3047 4666 
L 3047 1625 
L 3713 1625 
L 3713 1100 
L 3047 1100 
L 3047 0 
L 2419 0 
L 2419 1100 
L 313 1100 
L 313 1709 
L 2253 4666 
z
" transform="scale(0.015625)"/>
       </defs>
       <use xlink:href="#DejaVuSans-2212"/>
       <use xlink:href="#DejaVuSans-34" x="83.789062"/>
      </g>
     </g>
    </g>
    <g id="ytick_2">
     <g id="line2d_15">
      <path d="M 57.6 222.912 
L 414.72 222.912 
" clip-path="url(#p485d6b4125)" style="fill: none; stroke-dasharray: 1.85,0.8; stroke-dashoffset: 0; stroke: #b2b2b2; stroke-width: 0.5"/>
     </g>
     <g id="line2d_16">
      <g>
       <use xlink:href="#m12c264144f" x="57.6" y="222.912" style="stroke: #000000; stroke-width: 0.8"/>
      </g>
     </g>
     <g id="text_9">
      <!-- 2 -->
      <g transform="translate(39.357813 226.711219) scale(0.1 -0.1)">
       <use xlink:href="#DejaVuSans-2212"/>
       <use xlink:href="#DejaVuSans-32" x="83.789062"/>
      </g>
     </g>
    </g>
    <g id="ytick_3">
     <g id="line2d_17">
      <path d="M 57.6 174.528 
L 414.72 174.528 
" clip-path="url(#p485d6b4125)" style="fill: none; stroke-dasharray: 1.85,0.8; stroke-dashoffset: 0; stroke: #b2b2b2; stroke-width: 0.5"/>
     </g>
     <g id="line2d_18">
      <g>
       <use xlink:href="#m12c264144f" x="57.6" y="174.528" style="stroke: #000000; stroke-width: 0.8"/>
      </g>
     </g>
     <g id="text_10">
      <!-- 0 -->
      <g transform="translate(47.7375 178.327219) scale(0.1 -0.1)">
       <use xlink:href="#DejaVuSans-30"/>
      </g>
     </g>
    </g>
    <g id="ytick_4">
     <g id="line2d_19">
      <path d="M 57.6 126.144 
L 414.72 126.144 
" clip-path="url(#p485d6b4125)" style="fill: none; stroke-dasharray: 1.85,0.8; stroke-dashoffset: 0; stroke: #b2b2b2; stroke-width: 0.5"/>
     </g>
     <g id="line2d_20">
      <g>
       <use xlink:href="#m12c264144f" x="57.6" y="126.144" style="stroke: #000000; stroke-width: 0.8"/>
      </g>
     </g>
     <g id="text_11">
      <!-- 2 -->
      <g transform="translate(47.7375 129.943219) scale(0.1 -0.1)">
       <use xlink:href="#DejaVuSans-32"/>
      </g>
     </g>
    </g>
    <g id="ytick_5">
     <g id="line2d_21">
      <path d="M 57.6 77.76 
L 414.72 77.76 
" clip-path="url(#p485d6b4125)" style="fill: none; stroke-dasharray: 1.85,0.8; stroke-dashoffset: 0; stroke: #b2b2b2; stroke-width: 0.5"/>
     </g>
     <g id="line2d_22">
      <g>
       <use xlink:href="#m12c264144f" x="57.6" y="77.76" style="stroke: #000000; stroke-width: 0.8"/>
      </g>
     </g>
     <g id="text_12">
      <!-- 4 -->
      <g transform="translate(47.7375 81.559219) scale(0.1 -0.1)">
       <use xlink:href="#DejaVuSans-34"/>
      </g>
     </g>
    </g>
    <g id="text_13">
     <!-- $x_{s}$ -->
     <g transform="translate(32.862188 180.348) rotate(-90) scale(0.12 -0.12)">
      <defs>
       <path id="Cmmi10-78" d="M 500 184 
Q 613 97 819 97 
Q 1019 97 1172 289 
Q 1325 481 1381 709 
L 1672 1844 
Q 1741 2153 1741 2266 
Q 1741 2425 1652 2544 
Q 1563 2663 1403 2663 
Q 1200 2663 1022 2536 
Q 844 2409 722 2214 
Q 600 2019 550 1819 
Q 538 1778 500 1778 
L 422 1778 
Q 372 1778 372 1838 
L 372 1856 
Q 434 2094 584 2320 
Q 734 2547 951 2687 
Q 1169 2828 1416 2828 
Q 1650 2828 1839 2703 
Q 2028 2578 2106 2363 
Q 2216 2559 2386 2693 
Q 2556 2828 2759 2828 
Q 2897 2828 3040 2779 
Q 3184 2731 3275 2631 
Q 3366 2531 3366 2381 
Q 3366 2219 3261 2101 
Q 3156 1984 2994 1984 
Q 2891 1984 2822 2050 
Q 2753 2116 2753 2216 
Q 2753 2350 2845 2451 
Q 2938 2553 3066 2572 
Q 2950 2663 2747 2663 
Q 2541 2663 2389 2472 
Q 2238 2281 2175 2047 
L 1894 916 
Q 1825 659 1825 494 
Q 1825 331 1917 214 
Q 2009 97 2163 97 
Q 2463 97 2698 361 
Q 2934 625 3009 941 
Q 3022 978 3059 978 
L 3138 978 
Q 3163 978 3178 961 
Q 3194 944 3194 922 
Q 3194 916 3188 903 
Q 3097 522 2806 225 
Q 2516 -72 2150 -72 
Q 1916 -72 1727 54 
Q 1538 181 1459 397 
Q 1359 209 1182 68 
Q 1006 -72 806 -72 
Q 669 -72 523 -23 
Q 378 25 287 125 
Q 197 225 197 378 
Q 197 528 301 651 
Q 406 775 563 775 
Q 669 775 741 711 
Q 813 647 813 544 
Q 813 409 723 309 
Q 634 209 500 184 
z
" transform="scale(0.015625)"/>
      </defs>
      <use xlink:href="#Cmmi10-78" transform="translate(0 0.8125)"/>
      <use xlink:href="#Cmmi10-73" transform="translate(57.080078 -16.19375) scale(0.7)"/>
     </g>
    </g>
   </g>
   <g id="LineCollection_1">
    <path d="M 241.197743 295.488 
L 241.197743 53.568 
" clip-path="url(#p485d6b4125)" style="fill: none; stroke-dasharray: 7.4,3.2; stroke-dashoffset: 0; stroke: #ff0000; stroke-width: 2"/>
   </g>
   <g id="LineCollection_2">
    <path d="M 78.030846 76.349954 
L 86.427085 76.349954 
" clip-path="url(#p485d6b4125)" style="fill: none; stroke: #348abd; stroke-width: 2"/>
    <path d="M 106.018307 98.939405 
L 114.414545 98.939405 
" clip-path="url(#p485d6b4125)" style="fill: none; stroke: #348abd; stroke-width: 2"/>
    <path d="M 134.005768 114.727483 
L 142.402006 114.727483 
" clip-path="url(#p485d6b4125)" style="fill: none; stroke: #348abd; stroke-width: 2"/>
    <path d="M 161.993229 126.795066 
L 170.389467 126.795066 
" clip-path="url(#p485d6b4125)" style="fill: none; stroke: #348abd; stroke-width: 2"/>
    <path d="M 189.98069 136.400672 
L 198.376928 136.400672 
" clip-path="url(#p485d6b4125)" style="fill: none; stroke: #348abd; stroke-width: 2"/>
    <path d="M 217.96815 143.554529 
L 226.364389 143.554529 
" clip-path="url(#p485d6b4125)" style="fill: none; stroke: #348abd; stroke-width: 2"/>
    <path d="M 245.955611 148.841149 
L 254.35185 148.841149 
" clip-path="url(#p485d6b4125)" style="fill: none; stroke: #348abd; stroke-width: 2"/>
    <path d="M 273.943072 152.788194 
L 282.33931 152.788194 
" clip-path="url(#p485d6b4125)" style="fill: none; stroke: #348abd; stroke-width: 2"/>
    <path d="M 301.930533 155.753795 
L 310.326771 155.753795 
" clip-path="url(#p485d6b4125)" style="fill: none; stroke: #348abd; stroke-width: 2"/>
    <path d="M 329.917994 158.122547 
L 338.314232 158.122547 
" clip-path="url(#p485d6b4125)" style="fill: none; stroke: #348abd; stroke-width: 2"/>
    <path d="M 357.905455 160.271253 
L 366.301693 160.271253 
" clip-path="url(#p485d6b4125)" style="fill: none; stroke: #348abd; stroke-width: 2"/>
    <path d="M 385.892915 162.259161 
L 394.289154 162.259161 
" clip-path="url(#p485d6b4125)" style="fill: none; stroke: #348abd; stroke-width: 2"/>
   </g>
   <g id="LineCollection_3">
    <path d="M 78.030846 272.397381 
L 86.427085 272.397381 
" clip-path="url(#p485d6b4125)" style="fill: none; stroke: #348abd; stroke-width: 2"/>
    <path d="M 106.018307 249.51069 
L 114.414545 249.51069 
" clip-path="url(#p485d6b4125)" style="fill: none; stroke: #348abd; stroke-width: 2"/>
    <path d="M 134.005768 232.140775 
L 142.402006 232.140775 
" clip-path="url(#p485d6b4125)" style="fill: none; stroke: #348abd; stroke-width: 2"/>
    <path d="M 161.993229 219.353174 
L 170.389467 219.353174 
" clip-path="url(#p485d6b4125)" style="fill: none; stroke: #348abd; stroke-width: 2"/>
    <path d="M 189.98069 209.727957 
L 198.376928 209.727957 
" clip-path="url(#p485d6b4125)" style="fill: none; stroke: #348abd; stroke-width: 2"/>
    <path d="M 217.96815 202.302466 
L 226.364389 202.302466 
" clip-path="url(#p485d6b4125)" style="fill: none; stroke: #348abd; stroke-width: 2"/>
    <path d="M 245.955611 196.443225 
L 254.35185 196.443225 
" clip-path="url(#p485d6b4125)" style="fill: none; stroke: #348abd; stroke-width: 2"/>
    <path d="M 273.943072 191.725144 
L 282.33931 191.725144 
" clip-path="url(#p485d6b4125)" style="fill: none; stroke: #348abd; stroke-width: 2"/>
    <path d="M 301.930533 187.8602 
L 310.326771 187.8602 
" clip-path="url(#p485d6b4125)" style="fill: none; stroke: #348abd; stroke-width: 2"/>
    <path d="M 329.917994 184.652666 
L 338.314232 184.652666 
" clip-path="url(#p485d6b4125)" style="fill: none; stroke: #348abd; stroke-width: 2"/>
    <path d="M 357.905455 181.969545 
L 366.301693 181.969545 
" clip-path="url(#p485d6b4125)" style="fill: none; stroke: #348abd; stroke-width: 2"/>
    <path d="M 385.892915 179.720031 
L 394.289154 179.720031 
" clip-path="url(#p485d6b4125)" style="fill: none; stroke: #348abd; stroke-width: 2"/>
   </g>
   <g id="LineCollection_4">
    <path d="M 82.228966 272.397381 
L 82.228966 76.349954 
" clip-path="url(#p485d6b4125)" style="fill: none; stroke: #348abd; stroke-width: 2"/>
    <path d="M 110.216426 249.51069 
L 110.216426 98.939405 
" clip-path="url(#p485d6b4125)" style="fill: none; stroke: #348abd; stroke-width: 2"/>
    <path d="M 138.203887 232.140775 
L 138.203887 114.727483 
" clip-path="url(#p485d6b4125)" style="fill: none; stroke: #348abd; stroke-width: 2"/>
    <path d="M 166.191348 219.353174 
L 166.191348 126.795066 
" clip-path="url(#p485d6b4125)" style="fill: none; stroke: #348abd; stroke-width: 2"/>
    <path d="M 194.178809 209.727957 
L 194.178809 136.400672 
" clip-path="url(#p485d6b4125)" style="fill: none; stroke: #348abd; stroke-width: 2"/>
    <path d="M 222.16627 202.302466 
L 222.16627 143.554529 
" clip-path="url(#p485d6b4125)" style="fill: none; stroke: #348abd; stroke-width: 2"/>
    <path d="M 250.15373 196.443225 
L 250.15373 148.841149 
" clip-path="url(#p485d6b4125)" style="fill: none; stroke: #348abd; stroke-width: 2"/>
    <path d="M 278.141191 191.725144 
L 278.141191 152.788194 
" clip-path="url(#p485d6b4125)" style="fill: none; stroke: #348abd; stroke-width: 2"/>
    <path d="M 306.128652 187.8602 
L 306.128652 155.753795 
" clip-path="url(#p485d6b4125)" style="fill: none; stroke: #348abd; stroke-width: 2"/>
    <path d="M 334.116113 184.652666 
L 334.116113 158.122547 
" clip-path="url(#p485d6b4125)" style="fill: none; stroke: #348abd; stroke-width: 2"/>
    <path d="M 362.103574 181.969545 
L 362.103574 160.271253 
" clip-path="url(#p485d6b4125)" style="fill: none; stroke: #348abd; stroke-width: 2"/>
    <path d="M 390.091034 179.720031 
L 390.091034 162.259161 
" clip-path="url(#p485d6b4125)" style="fill: none; stroke: #348abd; stroke-width: 2"/>
   </g>
   <g id="patch_3">
    <path d="M 57.6 307.584 
L 57.6 41.472 
" style="fill: none; stroke: #bcbcbc; stroke-width: 0.8; stroke-linejoin: miter; stroke-linecap: square"/>
   </g>
   <g id="patch_4">
    <path d="M 414.72 307.584 
L 414.72 41.472 
" style="fill: none; stroke: #bcbcbc; stroke-width: 0.8; stroke-linejoin: miter; stroke-linecap: square"/>
   </g>
   <g id="patch_5">
    <path d="M 57.6 307.584 
L 414.72 307.584 
" style="fill: none; stroke: #bcbcbc; stroke-width: 0.8; stroke-linejoin: miter; stroke-linecap: square"/>
   </g>
   <g id="patch_6">
    <path d="M 57.6 41.472 
L 414.72 41.472 
" style="fill: none; stroke: #bcbcbc; stroke-width: 0.8; stroke-linejoin: miter; stroke-linecap: square"/>
   </g>
   <g id="text_14">
    <!-- Violin plot of critical time n = 10000 -->
    <g transform="translate(105.789375 35.472) scale(0.144 -0.144)">
     <defs>
      <path id="DejaVuSans-56" d="M 1831 0 
L 50 4666 
L 709 4666 
L 2188 738 
L 3669 4666 
L 4325 4666 
L 2547 0 
L 1831 0 
z
" transform="scale(0.015625)"/>
      <path id="DejaVuSans-69" d="M 603 3500 
L 1178 3500 
L 1178 0 
L 603 0 
L 603 3500 
z
M 603 4863 
L 1178 4863 
L 1178 4134 
L 603 4134 
L 603 4863 
z
" transform="scale(0.015625)"/>
      <path id="DejaVuSans-6f" d="M 1959 3097 
Q 1497 3097 1228 2736 
Q 959 2375 959 1747 
Q 959 1119 1226 758 
Q 1494 397 1959 397 
Q 2419 397 2687 759 
Q 2956 1122 2956 1747 
Q 2956 2369 2687 2733 
Q 2419 3097 1959 3097 
z
M 1959 3584 
Q 2709 3584 3137 3096 
Q 3566 2609 3566 1747 
Q 3566 888 3137 398 
Q 2709 -91 1959 -91 
Q 1206 -91 779 398 
Q 353 888 353 1747 
Q 353 2609 779 3096 
Q 1206 3584 1959 3584 
z
" transform="scale(0.015625)"/>
      <path id="DejaVuSans-6c" d="M 603 4863 
L 1178 4863 
L 1178 0 
L 603 0 
L 603 4863 
z
" transform="scale(0.015625)"/>
      <path id="DejaVuSans-6e" d="M 3513 2113 
L 3513 0 
L 2938 0 
L 2938 2094 
Q 2938 2591 2744 2837 
Q 2550 3084 2163 3084 
Q 1697 3084 1428 2787 
Q 1159 2491 1159 1978 
L 1159 0 
L 581 0 
L 581 3500 
L 1159 3500 
L 1159 2956 
Q 1366 3272 1645 3428 
Q 1925 3584 2291 3584 
Q 2894 3584 3203 3211 
Q 3513 2838 3513 2113 
z
" transform="scale(0.015625)"/>
      <path id="DejaVuSans-20" transform="scale(0.015625)"/>
      <path id="DejaVuSans-70" d="M 1159 525 
L 1159 -1331 
L 581 -1331 
L 581 3500 
L 1159 3500 
L 1159 2969 
Q 1341 3281 1617 3432 
Q 1894 3584 2278 3584 
Q 2916 3584 3314 3078 
Q 3713 2572 3713 1747 
Q 3713 922 3314 415 
Q 2916 -91 2278 -91 
Q 1894 -91 1617 61 
Q 1341 213 1159 525 
z
M 3116 1747 
Q 3116 2381 2855 2742 
Q 2594 3103 2138 3103 
Q 1681 3103 1420 2742 
Q 1159 2381 1159 1747 
Q 1159 1113 1420 752 
Q 1681 391 2138 391 
Q 2594 391 2855 752 
Q 3116 1113 3116 1747 
z
" transform="scale(0.015625)"/>
      <path id="DejaVuSans-74" d="M 1172 4494 
L 1172 3500 
L 2356 3500 
L 2356 3053 
L 1172 3053 
L 1172 1153 
Q 1172 725 1289 603 
Q 1406 481 1766 481 
L 2356 481 
L 2356 0 
L 1766 0 
Q 1100 0 847 248 
Q 594 497 594 1153 
L 594 3053 
L 172 3053 
L 172 3500 
L 594 3500 
L 594 4494 
L 1172 4494 
z
" transform="scale(0.015625)"/>
      <path id="DejaVuSans-66" d="M 2375 4863 
L 2375 4384 
L 1825 4384 
Q 1516 4384 1395 4259 
Q 1275 4134 1275 3809 
L 1275 3500 
L 2222 3500 
L 2222 3053 
L 1275 3053 
L 1275 0 
L 697 0 
L 697 3053 
L 147 3053 
L 147 3500 
L 697 3500 
L 697 3744 
Q 697 4328 969 4595 
Q 1241 4863 1831 4863 
L 2375 4863 
z
" transform="scale(0.015625)"/>
      <path id="DejaVuSans-63" d="M 3122 3366 
L 3122 2828 
Q 2878 2963 2633 3030 
Q 2388 3097 2138 3097 
Q 1578 3097 1268 2742 
Q 959 2388 959 1747 
Q 959 1106 1268 751 
Q 1578 397 2138 397 
Q 2388 397 2633 464 
Q 2878 531 3122 666 
L 3122 134 
Q 2881 22 2623 -34 
Q 2366 -91 2075 -91 
Q 1284 -91 818 406 
Q 353 903 353 1747 
Q 353 2603 823 3093 
Q 1294 3584 2113 3584 
Q 2378 3584 2631 3529 
Q 2884 3475 3122 3366 
z
" transform="scale(0.015625)"/>
      <path id="DejaVuSans-72" d="M 2631 2963 
Q 2534 3019 2420 3045 
Q 2306 3072 2169 3072 
Q 1681 3072 1420 2755 
Q 1159 2438 1159 1844 
L 1159 0 
L 581 0 
L 581 3500 
L 1159 3500 
L 1159 2956 
Q 1341 3275 1631 3429 
Q 1922 3584 2338 3584 
Q 2397 3584 2469 3576 
Q 2541 3569 2628 3553 
L 2631 2963 
z
" transform="scale(0.015625)"/>
      <path id="DejaVuSans-61" d="M 2194 1759 
Q 1497 1759 1228 1600 
Q 959 1441 959 1056 
Q 959 750 1161 570 
Q 1363 391 1709 391 
Q 2188 391 2477 730 
Q 2766 1069 2766 1631 
L 2766 1759 
L 2194 1759 
z
M 3341 1997 
L 3341 0 
L 2766 0 
L 2766 531 
Q 2569 213 2275 61 
Q 1981 -91 1556 -91 
Q 1019 -91 701 211 
Q 384 513 384 1019 
Q 384 1609 779 1909 
Q 1175 2209 1959 2209 
L 2766 2209 
L 2766 2266 
Q 2766 2663 2505 2880 
Q 2244 3097 1772 3097 
Q 1472 3097 1187 3025 
Q 903 2953 641 2809 
L 641 3341 
Q 956 3463 1253 3523 
Q 1550 3584 1831 3584 
Q 2591 3584 2966 3190 
Q 3341 2797 3341 1997 
z
" transform="scale(0.015625)"/>
      <path id="DejaVuSans-6d" d="M 3328 2828 
Q 3544 3216 3844 3400 
Q 4144 3584 4550 3584 
Q 5097 3584 5394 3201 
Q 5691 2819 5691 2113 
L 5691 0 
L 5113 0 
L 5113 2094 
Q 5113 2597 4934 2840 
Q 4756 3084 4391 3084 
Q 3944 3084 3684 2787 
Q 3425 2491 3425 1978 
L 3425 0 
L 2847 0 
L 2847 2094 
Q 2847 2600 2669 2842 
Q 2491 3084 2119 3084 
Q 1678 3084 1418 2786 
Q 1159 2488 1159 1978 
L 1159 0 
L 581 0 
L 581 3500 
L 1159 3500 
L 1159 2956 
Q 1356 3278 1631 3431 
Q 1906 3584 2284 3584 
Q 2666 3584 2933 3390 
Q 3200 3197 3328 2828 
z
" transform="scale(0.015625)"/>
      <path id="DejaVuSans-65" d="M 3597 1894 
L 3597 1613 
L 953 1613 
Q 991 1019 1311 708 
Q 1631 397 2203 397 
Q 2534 397 2845 478 
Q 3156 559 3463 722 
L 3463 178 
Q 3153 47 2828 -22 
Q 2503 -91 2169 -91 
Q 1331 -91 842 396 
Q 353 884 353 1716 
Q 353 2575 817 3079 
Q 1281 3584 2069 3584 
Q 2775 3584 3186 3129 
Q 3597 2675 3597 1894 
z
M 3022 2063 
Q 3016 2534 2758 2815 
Q 2500 3097 2075 3097 
Q 1594 3097 1305 2825 
Q 1016 2553 972 2059 
L 3022 2063 
z
" transform="scale(0.015625)"/>
      <path id="DejaVuSans-3d" d="M 678 2906 
L 4684 2906 
L 4684 2381 
L 678 2381 
L 678 2906 
z
M 678 1631 
L 4684 1631 
L 4684 1100 
L 678 1100 
L 678 1631 
z
" transform="scale(0.015625)"/>
     </defs>
     <use xlink:href="#DejaVuSans-56"/>
     <use xlink:href="#DejaVuSans-69" x="66.158203"/>
     <use xlink:href="#DejaVuSans-6f" x="93.941406"/>
     <use xlink:href="#DejaVuSans-6c" x="155.123047"/>
     <use xlink:href="#DejaVuSans-69" x="182.90625"/>
     <use xlink:href="#DejaVuSans-6e" x="210.689453"/>
     <use xlink:href="#DejaVuSans-20" x="274.068359"/>
     <use xlink:href="#DejaVuSans-70" x="305.855469"/>
     <use xlink:href="#DejaVuSans-6c" x="369.332031"/>
     <use xlink:href="#DejaVuSans-6f" x="397.115234"/>
     <use xlink:href="#DejaVuSans-74" x="458.296875"/>
     <use xlink:href="#DejaVuSans-20" x="497.505859"/>
     <use xlink:href="#DejaVuSans-6f" x="529.292969"/>
     <use xlink:href="#DejaVuSans-66" x="590.474609"/>
     <use xlink:href="#DejaVuSans-20" x="625.679688"/>
     <use xlink:href="#DejaVuSans-63" x="657.466797"/>
     <use xlink:href="#DejaVuSans-72" x="712.447266"/>
     <use xlink:href="#DejaVuSans-69" x="753.560547"/>
     <use xlink:href="#DejaVuSans-74" x="781.34375"/>
     <use xlink:href="#DejaVuSans-69" x="820.552734"/>
     <use xlink:href="#DejaVuSans-63" x="848.335938"/>
     <use xlink:href="#DejaVuSans-61" x="903.316406"/>
     <use xlink:href="#DejaVuSans-6c" x="964.595703"/>
     <use xlink:href="#DejaVuSans-20" x="992.378906"/>
     <use xlink:href="#DejaVuSans-74" x="1024.166016"/>
     <use xlink:href="#DejaVuSans-69" x="1063.375"/>
     <use xlink:href="#DejaVuSans-6d" x="1091.158203"/>
     <use xlink:href="#DejaVuSans-65" x="1188.570312"/>
     <use xlink:href="#DejaVuSans-20" x="1250.09375"/>
     <use xlink:href="#DejaVuSans-6e" x="1281.880859"/>
     <use xlink:href="#DejaVuSans-20" x="1345.259766"/>
     <use xlink:href="#DejaVuSans-3d" x="1377.046875"/>
     <use xlink:href="#DejaVuSans-20" x="1460.835938"/>
     <use xlink:href="#DejaVuSans-31" x="1492.623047"/>
     <use xlink:href="#DejaVuSans-30" x="1556.246094"/>
     <use xlink:href="#DejaVuSans-30" x="1619.869141"/>
     <use xlink:href="#DejaVuSans-30" x="1683.492188"/>
     <use xlink:href="#DejaVuSans-30" x="1747.115234"/>
    </g>
   </g>
   <g id="legend_1">
    <g id="patch_7">
     <path d="M 296.806875 68.68575 
L 406.32 68.68575 
Q 408.72 68.68575 408.72 66.28575 
L 408.72 49.872 
Q 408.72 47.472 406.32 47.472 
L 296.806875 47.472 
Q 294.406875 47.472 294.406875 49.872 
L 294.406875 66.28575 
Q 294.406875 68.68575 296.806875 68.68575 
z
" style="fill: #eeeeee; opacity: 0.8; stroke: #cccccc; stroke-width: 0.5; stroke-linejoin: miter"/>
    </g>
    <g id="line2d_23">
     <path d="M 299.206875 57.190125 
L 323.206875 57.190125 
" style="fill: none; stroke-dasharray: 7.4,3.2; stroke-dashoffset: 0; stroke: #ff0000; stroke-width: 2"/>
    </g>
    <g id="text_15">
     <!-- critical time -->
     <g transform="translate(332.806875 61.390125) scale(0.12 -0.12)">
      <use xlink:href="#DejaVuSans-63"/>
      <use xlink:href="#DejaVuSans-72" x="54.980469"/>
      <use xlink:href="#DejaVuSans-69" x="96.09375"/>
      <use xlink:href="#DejaVuSans-74" x="123.876953"/>
      <use xlink:href="#DejaVuSans-69" x="163.085938"/>
      <use xlink:href="#DejaVuSans-63" x="190.869141"/>
      <use xlink:href="#DejaVuSans-61" x="245.849609"/>
      <use xlink:href="#DejaVuSans-6c" x="307.128906"/>
      <use xlink:href="#DejaVuSans-20" x="334.912109"/>
      <use xlink:href="#DejaVuSans-74" x="366.699219"/>
      <use xlink:href="#DejaVuSans-69" x="405.908203"/>
      <use xlink:href="#DejaVuSans-6d" x="433.691406"/>
      <use xlink:href="#DejaVuSans-65" x="531.103516"/>
     </g>
    </g>
   </g>
  </g>
 </g>
 <defs>
  <clipPath id="p485d6b4125">
   <rect x="57.6" y="41.472" width="357.12" height="266.112"/>
  </clipPath>
 </defs>
</svg>
