<?xml version="1.0" encoding="utf-8" standalone="no"?>
<!DOCTYPE svg PUBLIC "-//W3C//DTD SVG 1.1//EN"
  "http://www.w3.org/Graphics/SVG/1.1/DTD/svg11.dtd">
<svg xmlns:xlink="http://www.w3.org/1999/xlink" width="460.8pt" height="345.6pt" viewBox="0 0 460.8 345.6" xmlns="http://www.w3.org/2000/svg" version="1.1">
 <metadata>
  <rdf:RDF xmlns:dc="http://purl.org/dc/elements/1.1/" xmlns:cc="http://creativecommons.org/ns#" xmlns:rdf="http://www.w3.org/1999/02/22-rdf-syntax-ns#">
   <cc:Work>
    <dc:type rdf:resource="http://purl.org/dc/dcmitype/StillImage"/>
    <dc:date>2025-08-21T17:03:45.119522</dc:date>
    <dc:format>image/svg+xml</dc:format>
    <dc:creator>
     <cc:Agent>
      <dc:title>Matplotlib v3.9.2, https://matplotlib.org/</dc:title>
     </cc:Agent>
    </dc:creator>
   </cc:Work>
  </rdf:RDF>
 </metadata>
 <defs>
  <style type="text/css">*{stroke-linejoin: round; stroke-linecap: butt}</style>
 </defs>
 <g id="figure_1">
  <g id="patch_1">
   <path d="M 0 345.6 
L 460.8 345.6 
L 460.8 0 
L 0 0 
z
" style="fill: #ffffff"/>
  </g>
  <g id="axes_1">
   <g id="patch_2">
    <path d="M 57.6 307.584 
L 414.72 307.584 
L 414.72 41.472 
L 57.6 41.472 
z
" style="fill: #eeeeee"/>
   </g>
   <g id="PolyCollection_1">
    <path d="M 82.343195 253.369329 
L 82.114736 253.369329 
L 82.092426 251.636864 
L 82.069107 249.904399 
L 82.043699 248.171935 
L 82.014421 246.43947 
L 81.979063 244.707005 
L 81.935342 242.97454 
L 81.881274 241.242076 
L 81.815489 239.509611 
L 81.737453 237.777146 
L 81.647562 236.044681 
L 81.547075 234.312217 
L 81.437895 232.579752 
L 81.322188 230.847287 
L 81.201857 229.114822 
L 81.07792 227.382357 
L 80.949901 225.649893 
L 80.815443 223.917428 
L 80.670413 222.184963 
L 80.509669 220.452498 
L 80.328397 218.720034 
L 80.123561 216.987569 
L 79.894845 215.255104 
L 79.644553 213.522639 
L 79.376357 211.790175 
L 79.093263 210.05771 
L 78.795556 208.325245 
L 78.479589 206.59278 
L 78.138147 204.860315 
L 77.762637 203.127851 
L 77.34674 201.395386 
L 76.890426 199.662921 
L 76.402867 197.930456 
L 75.902966 196.197992 
L 75.417032 194.465527 
L 74.974088 192.733062 
L 74.600057 191.000597 
L 74.312308 189.268132 
L 74.115904 187.535668 
L 74.002556 185.803203 
L 73.952755 184.070738 
L 73.940761 182.338273 
L 73.94122 180.605809 
L 73.935413 178.873344 
L 73.915169 177.140879 
L 73.883314 175.408414 
L 73.850909 173.67595 
L 73.832727 171.943485 
L 73.842779 170.21102 
L 73.891196 168.478555 
L 73.98282 166.74609 
L 74.117048 165.013626 
L 74.28843 163.281161 
L 74.487831 161.548696 
L 74.704393 159.816231 
L 74.92835 158.083767 
L 75.15413 156.351302 
L 75.382548 154.618837 
L 75.620933 152.886372 
L 75.880825 151.153908 
L 76.173998 149.421443 
L 76.508334 147.688978 
L 76.884961 145.956513 
L 77.297415 144.224048 
L 77.732746 142.491584 
L 78.173966 140.759119 
L 78.603158 139.026654 
L 79.004551 137.294189 
L 79.366974 135.561725 
L 79.685165 133.82926 
L 79.959641 132.096795 
L 80.195311 130.36433 
L 80.39938 128.631865 
L 80.579333 126.899401 
L 80.741595 125.166936 
L 80.891064 123.434471 
L 81.031279 121.702006 
L 81.164743 119.969542 
L 81.293054 118.237077 
L 81.416765 116.504612 
L 81.535226 114.772147 
L 81.646688 113.039683 
L 81.748817 111.307218 
L 81.839462 109.574753 
L 81.917353 107.842288 
L 81.982448 106.109823 
L 82.035813 104.377359 
L 82.079157 102.644894 
L 82.114268 100.912429 
L 82.142585 99.179964 
L 82.165022 97.4475 
L 82.182042 95.715035 
L 82.193887 93.98257 
L 82.200842 92.250105 
L 82.203458 90.517641 
L 82.202661 88.785176 
L 82.199737 87.052711 
L 82.196181 85.320246 
L 82.19343 83.587781 
L 82.192569 81.855317 
L 82.265362 81.855317 
L 82.265362 81.855317 
L 82.264501 83.587781 
L 82.26175 85.320246 
L 82.258194 87.052711 
L 82.25527 88.785176 
L 82.254473 90.517641 
L 82.257089 92.250105 
L 82.264044 93.98257 
L 82.275889 95.715035 
L 82.292909 97.4475 
L 82.315346 99.179964 
L 82.343663 100.912429 
L 82.378774 102.644894 
L 82.422118 104.377359 
L 82.475483 106.109823 
L 82.540578 107.842288 
L 82.618469 109.574753 
L 82.709114 111.307218 
L 82.811243 113.039683 
L 82.922705 114.772147 
L 83.041166 116.504612 
L 83.164877 118.237077 
L 83.293188 119.969542 
L 83.426652 121.702006 
L 83.566867 123.434471 
L 83.716336 125.166936 
L 83.878598 126.899401 
L 84.058551 128.631865 
L 84.26262 130.36433 
L 84.49829 132.096795 
L 84.772766 133.82926 
L 85.090957 135.561725 
L 85.45338 137.294189 
L 85.854773 139.026654 
L 86.283965 140.759119 
L 86.725185 142.491584 
L 87.160516 144.224048 
L 87.57297 145.956513 
L 87.949597 147.688978 
L 88.283933 149.421443 
L 88.577107 151.153908 
L 88.836998 152.886372 
L 89.075383 154.618837 
L 89.303801 156.351302 
L 89.529581 158.083767 
L 89.753538 159.816231 
L 89.9701 161.548696 
L 90.169501 163.281161 
L 90.340883 165.013626 
L 90.475112 166.74609 
L 90.566735 168.478555 
L 90.615152 170.21102 
L 90.625204 171.943485 
L 90.607022 173.67595 
L 90.574617 175.408414 
L 90.542762 177.140879 
L 90.522518 178.873344 
L 90.516711 180.605809 
L 90.51717 182.338273 
L 90.505176 184.070738 
L 90.455375 185.803203 
L 90.342027 187.535668 
L 90.145623 189.268132 
L 89.857874 191.000597 
L 89.483843 192.733062 
L 89.040899 194.465527 
L 88.554965 196.197992 
L 88.055064 197.930456 
L 87.567505 199.662921 
L 87.111191 201.395386 
L 86.695294 203.127851 
L 86.319784 204.860315 
L 85.978342 206.59278 
L 85.662376 208.325245 
L 85.364668 210.05771 
L 85.081574 211.790175 
L 84.813378 213.522639 
L 84.563086 215.255104 
L 84.33437 216.987569 
L 84.129534 218.720034 
L 83.948262 220.452498 
L 83.787518 222.184963 
L 83.642488 223.917428 
L 83.50803 225.649893 
L 83.380011 227.382357 
L 83.256074 229.114822 
L 83.135743 230.847287 
L 83.020036 232.579752 
L 82.910856 234.312217 
L 82.810369 236.044681 
L 82.720478 237.777146 
L 82.642442 239.509611 
L 82.576657 241.242076 
L 82.522589 242.97454 
L 82.478869 244.707005 
L 82.44351 246.43947 
L 82.414232 248.171935 
L 82.388824 249.904399 
L 82.365505 251.636864 
L 82.343195 253.369329 
z
" clip-path="url(#pa5d65d522c)" style="fill: #348abd; fill-opacity: 0.3"/>
   </g>
   <g id="PolyCollection_2">
    <path d="M 110.333511 233.994333 
L 110.099342 233.994333 
L 110.077233 232.699262 
L 110.054266 231.40419 
L 110.029459 230.109119 
L 110.00117 228.814047 
L 109.96733 227.518976 
L 109.925753 226.223904 
L 109.874468 224.928833 
L 109.812002 223.633761 
L 109.737581 222.33869 
L 109.651236 221.043619 
L 109.553761 219.748547 
L 109.44654 218.453476 
L 109.33124 217.158404 
L 109.209381 215.863333 
L 109.081815 214.568261 
L 108.948195 213.27319 
L 108.806566 211.978118 
L 108.653293 210.683047 
L 108.483531 209.387975 
L 108.292255 208.092904 
L 108.075597 206.797832 
L 107.831964 205.502761 
L 107.562388 204.207689 
L 107.26979 202.912618 
L 106.957288 201.617546 
L 106.626165 200.322475 
L 106.274376 199.027404 
L 105.896422 197.732332 
L 105.48506 196.437261 
L 105.034677 195.142189 
L 104.545428 193.847118 
L 104.026792 192.552046 
L 103.499123 191.256975 
L 102.992341 189.961903 
L 102.541691 188.666832 
L 102.181337 187.37176 
L 101.937126 186.076689 
L 101.820188 184.781617 
L 101.823082 183.486546 
L 101.919924 182.191474 
L 102.071119 180.896403 
L 102.231945 179.601331 
L 102.362779 178.30626 
L 102.437872 177.011189 
L 102.449921 175.716117 
L 102.409182 174.421046 
L 102.337944 173.125974 
L 102.262786 171.830903 
L 102.207439 170.535831 
L 102.188222 169.24076 
L 102.212525 167.945688 
L 102.279505 166.650617 
L 102.381773 165.355545 
L 102.507351 164.060474 
L 102.641946 162.765402 
L 102.772011 161.470331 
L 102.888632 160.175259 
L 102.991338 158.880188 
L 103.090224 157.585117 
L 103.20495 156.290045 
L 103.360262 154.994974 
L 103.579286 153.699902 
L 103.876805 152.404831 
L 104.254849 151.109759 
L 104.701911 149.814688 
L 105.195771 148.519616 
L 105.708719 147.224545 
L 106.213426 145.929473 
L 106.687809 144.634402 
L 107.117806 143.33933 
L 107.49777 142.044259 
L 107.828948 140.749187 
L 108.116956 139.454116 
L 108.369248 138.159044 
L 108.593227 136.863973 
L 108.795185 135.568902 
L 108.979888 134.27383 
L 109.150468 132.978759 
L 109.308459 131.683687 
L 109.453961 130.388616 
L 109.586037 129.093544 
L 109.703341 127.798473 
L 109.80483 126.503401 
L 109.890325 125.20833 
L 109.960703 123.913258 
L 110.017712 122.618187 
L 110.063515 121.323115 
L 110.100189 120.028044 
L 110.129373 118.732972 
L 110.152149 117.437901 
L 110.169142 116.142829 
L 110.180753 114.847758 
L 110.187408 113.552687 
L 110.189762 112.257615 
L 110.188803 110.962544 
L 110.185828 109.667472 
L 110.182301 108.372401 
L 110.179607 107.077329 
L 110.178781 105.782258 
L 110.254072 105.782258 
L 110.254072 105.782258 
L 110.253245 107.077329 
L 110.250551 108.372401 
L 110.247025 109.667472 
L 110.24405 110.962544 
L 110.243091 112.257615 
L 110.245445 113.552687 
L 110.252099 114.847758 
L 110.26371 116.142829 
L 110.280704 117.437901 
L 110.303479 118.732972 
L 110.332663 120.028044 
L 110.369338 121.323115 
L 110.415141 122.618187 
L 110.47215 123.913258 
L 110.542528 125.20833 
L 110.628022 126.503401 
L 110.729512 127.798473 
L 110.846816 129.093544 
L 110.978892 130.388616 
L 111.124393 131.683687 
L 111.282384 132.978759 
L 111.452965 134.27383 
L 111.637668 135.568902 
L 111.839626 136.863973 
L 112.063604 138.159044 
L 112.315897 139.454116 
L 112.603905 140.749187 
L 112.935082 142.044259 
L 113.315047 143.33933 
L 113.745044 144.634402 
L 114.219427 145.929473 
L 114.724133 147.224545 
L 115.237081 148.519616 
L 115.730942 149.814688 
L 116.178004 151.109759 
L 116.556048 152.404831 
L 116.853567 153.699902 
L 117.07259 154.994974 
L 117.227903 156.290045 
L 117.342628 157.585117 
L 117.441515 158.880188 
L 117.54422 160.175259 
L 117.660842 161.470331 
L 117.790907 162.765402 
L 117.925501 164.060474 
L 118.051079 165.355545 
L 118.153348 166.650617 
L 118.220328 167.945688 
L 118.244631 169.24076 
L 118.225414 170.535831 
L 118.170067 171.830903 
L 118.094909 173.125974 
L 118.023671 174.421046 
L 117.982931 175.716117 
L 117.994981 177.011189 
L 118.070074 178.30626 
L 118.200908 179.601331 
L 118.361734 180.896403 
L 118.512929 182.191474 
L 118.609771 183.486546 
L 118.612665 184.781617 
L 118.495727 186.076689 
L 118.251516 187.37176 
L 117.891162 188.666832 
L 117.440512 189.961903 
L 116.93373 191.256975 
L 116.406061 192.552046 
L 115.887425 193.847118 
L 115.398176 195.142189 
L 114.947793 196.437261 
L 114.536431 197.732332 
L 114.158477 199.027404 
L 113.806687 200.322475 
L 113.475565 201.617546 
L 113.163062 202.912618 
L 112.870464 204.207689 
L 112.600889 205.502761 
L 112.357256 206.797832 
L 112.140597 208.092904 
L 111.949322 209.387975 
L 111.77956 210.683047 
L 111.626286 211.978118 
L 111.484657 213.27319 
L 111.351038 214.568261 
L 111.223472 215.863333 
L 111.101612 217.158404 
L 110.986313 218.453476 
L 110.879092 219.748547 
L 110.781617 221.043619 
L 110.695271 222.33869 
L 110.620851 223.633761 
L 110.558384 224.928833 
L 110.5071 226.223904 
L 110.465523 227.518976 
L 110.431682 228.814047 
L 110.403394 230.109119 
L 110.378587 231.40419 
L 110.355619 232.699262 
L 110.333511 233.994333 
z
" clip-path="url(#pa5d65d522c)" style="fill: #348abd; fill-opacity: 0.3"/>
   </g>
   <g id="PolyCollection_3">
    <path d="M 138.322052 220.620567 
L 138.085723 220.620567 
L 138.064133 219.626272 
L 138.041517 218.631977 
L 138.016963 217.637683 
L 137.988969 216.643388 
L 137.955611 215.649093 
L 137.914789 214.654799 
L 137.864502 213.660504 
L 137.803104 212.666209 
L 137.729509 211.671915 
L 137.64332 210.67762 
L 137.544851 209.683325 
L 137.435021 208.68903 
L 137.315113 207.694736 
L 137.186397 206.700441 
L 137.049656 205.706146 
L 136.904703 204.711852 
L 136.750008 203.717557 
L 136.582615 202.723262 
L 136.398474 201.728968 
L 136.193212 200.734673 
L 135.963139 199.740378 
L 135.706139 198.746084 
L 135.422023 197.751789 
L 135.11209 196.757494 
L 134.777963 195.7632 
L 134.420144 194.768905 
L 134.036984 193.77461 
L 133.624757 192.780315 
L 133.179246 191.786021 
L 132.698697 190.791726 
L 132.187421 189.797431 
L 131.65888 188.803137 
L 131.137016 187.808842 
L 130.654901 186.814547 
L 130.250445 185.820253 
L 129.959683 184.825958 
L 129.808927 183.831663 
L 129.807649 182.837369 
L 129.94411 181.843074 
L 130.185414 180.848779 
L 130.482638 179.854484 
L 130.780224 178.86019 
L 131.027338 177.865895 
L 131.188078 176.8716 
L 131.247647 175.877306 
L 131.212947 174.883011 
L 131.107904 173.888716 
L 130.965488 172.894422 
L 130.81916 171.900127 
L 130.696207 170.905832 
L 130.614267 169.911538 
L 130.581019 168.917243 
L 130.595918 167.922948 
L 130.65254 166.928653 
L 130.740477 165.934359 
L 130.846573 164.940064 
L 130.956017 163.945769 
L 131.054126 162.951475 
L 131.12923 161.95718 
L 131.176277 160.962885 
L 131.199946 159.968591 
L 131.215794 158.974296 
L 131.248399 157.980001 
L 131.326545 156.985707 
L 131.476624 155.991412 
L 131.716197 154.997117 
L 132.049674 154.002823 
L 132.46735 153.008528 
L 132.947911 152.014233 
L 133.463427 151.019938 
L 133.985213 150.025644 
L 134.488872 149.031349 
L 134.95737 148.037054 
L 135.381819 147.04276 
L 135.760339 146.048465 
L 136.095853 145.05417 
L 136.393646 144.059876 
L 136.659346 143.065581 
L 136.897591 142.071286 
L 137.111443 141.076992 
L 137.302426 140.082697 
L 137.470994 139.088402 
L 137.617212 138.094107 
L 137.741406 137.099813 
L 137.844581 136.105518 
L 137.928519 135.111223 
L 137.995576 134.116929 
L 138.048312 133.122634 
L 138.089127 132.128339 
L 138.120024 131.134045 
L 138.142565 130.13975 
L 138.157975 129.145455 
L 138.167327 128.151161 
L 138.17173 127.156866 
L 138.17244 126.162571 
L 138.170867 125.168276 
L 138.168469 124.173982 
L 138.166568 123.179687 
L 138.166145 122.185392 
L 138.241629 122.185392 
L 138.241629 122.185392 
L 138.241206 123.179687 
L 138.239306 124.173982 
L 138.236908 125.168276 
L 138.235334 126.162571 
L 138.236044 127.156866 
L 138.240447 128.151161 
L 138.249799 129.145455 
L 138.265209 130.13975 
L 138.28775 131.134045 
L 138.318648 132.128339 
L 138.359462 133.122634 
L 138.412198 134.116929 
L 138.479255 135.111223 
L 138.563193 136.105518 
L 138.666368 137.099813 
L 138.790562 138.094107 
L 138.936781 139.088402 
L 139.105349 140.082697 
L 139.296331 141.076992 
L 139.510183 142.071286 
L 139.748428 143.065581 
L 140.014128 144.059876 
L 140.311922 145.05417 
L 140.647435 146.048465 
L 141.025956 147.04276 
L 141.450404 148.037054 
L 141.918903 149.031349 
L 142.422561 150.025644 
L 142.944347 151.019938 
L 143.459863 152.014233 
L 143.940424 153.008528 
L 144.3581 154.002823 
L 144.691577 154.997117 
L 144.93115 155.991412 
L 145.081229 156.985707 
L 145.159376 157.980001 
L 145.191981 158.974296 
L 145.207828 159.968591 
L 145.231498 160.962885 
L 145.278544 161.95718 
L 145.353648 162.951475 
L 145.451757 163.945769 
L 145.561202 164.940064 
L 145.667297 165.934359 
L 145.755234 166.928653 
L 145.811856 167.922948 
L 145.826755 168.917243 
L 145.793507 169.911538 
L 145.711567 170.905832 
L 145.588614 171.900127 
L 145.442287 172.894422 
L 145.29987 173.888716 
L 145.194827 174.883011 
L 145.160127 175.877306 
L 145.219696 176.8716 
L 145.380436 177.865895 
L 145.627551 178.86019 
L 145.925136 179.854484 
L 146.22236 180.848779 
L 146.463664 181.843074 
L 146.600125 182.837369 
L 146.598847 183.831663 
L 146.448091 184.825958 
L 146.157329 185.820253 
L 145.752874 186.814547 
L 145.270759 187.808842 
L 144.748894 188.803137 
L 144.220353 189.797431 
L 143.709078 190.791726 
L 143.228529 191.786021 
L 142.783017 192.780315 
L 142.37079 193.77461 
L 141.98763 194.768905 
L 141.629812 195.7632 
L 141.295684 196.757494 
L 140.985751 197.751789 
L 140.701635 198.746084 
L 140.444635 199.740378 
L 140.214562 200.734673 
L 140.0093 201.728968 
L 139.825159 202.723262 
L 139.657766 203.717557 
L 139.503071 204.711852 
L 139.358118 205.706146 
L 139.221378 206.700441 
L 139.092661 207.694736 
L 138.972753 208.68903 
L 138.862924 209.683325 
L 138.764454 210.67762 
L 138.678265 211.671915 
L 138.60467 212.666209 
L 138.543273 213.660504 
L 138.492986 214.654799 
L 138.452163 215.649093 
L 138.418805 216.643388 
L 138.390811 217.637683 
L 138.366258 218.631977 
L 138.343642 219.626272 
L 138.322052 220.620567 
z
" clip-path="url(#pa5d65d522c)" style="fill: #348abd; fill-opacity: 0.3"/>
   </g>
   <g id="PolyCollection_4">
    <path d="M 166.317003 210.555047 
L 166.065693 210.555047 
L 166.042316 209.781677 
L 166.016919 209.008307 
L 165.988538 208.234936 
L 165.955732 207.461566 
L 165.916722 206.688196 
L 165.869586 205.914826 
L 165.812494 205.141456 
L 165.743937 204.368086 
L 165.662901 203.594716 
L 165.568967 202.821346 
L 165.462303 202.047975 
L 165.343534 201.274605 
L 165.213485 200.501235 
L 165.072825 199.727865 
L 164.921674 198.954495 
L 164.759257 198.181125 
L 164.583722 197.407755 
L 164.392223 196.634385 
L 164.181295 195.861015 
L 163.947448 195.087644 
L 163.687813 194.314274 
L 163.400584 193.540904 
L 163.085066 192.767534 
L 162.741266 191.994164 
L 162.369223 191.220794 
L 161.968432 190.447424 
L 161.537848 189.674054 
L 161.076813 188.900683 
L 160.586963 188.127313 
L 160.074758 187.353943 
L 159.553881 186.580573 
L 159.046555 185.807203 
L 158.582909 185.033833 
L 158.197934 184.260463 
L 157.926184 183.487093 
L 157.79511 182.713722 
L 157.818489 181.940352 
L 157.991635 181.166982 
L 158.289876 180.393612 
L 158.671105 179.620242 
L 159.082152 178.846872 
L 159.467697 178.073502 
L 159.779693 177.300132 
L 159.985098 176.526761 
L 160.0702 175.753391 
L 160.040797 174.980021 
L 159.918608 174.206651 
L 159.735169 173.433281 
L 159.52494 172.659911 
L 159.319231 171.886541 
L 159.142087 171.113171 
L 159.008569 170.339801 
L 158.925143 169.56643 
L 158.891457 168.79306 
L 158.902545 168.01969 
L 158.95068 167.24632 
L 159.026462 166.47295 
L 159.119224 165.69958 
L 159.217226 164.92621 
L 159.308239 164.15284 
L 159.380934 163.379469 
L 159.427063 162.606099 
L 159.443927 161.832729 
L 159.436301 161.059359 
L 159.416998 160.285989 
L 159.405593 159.512619 
L 159.425384 158.739249 
L 159.499247 157.965879 
L 159.645355 157.192508 
L 159.873824 156.419138 
L 160.18503 155.645768 
L 160.569906 154.872398 
L 161.011997 154.099028 
L 161.490634 153.325658 
L 161.984401 152.552288 
L 162.474093 151.778918 
L 162.94464 151.005548 
L 163.385802 150.232177 
L 163.791808 149.458807 
L 164.160312 148.685437 
L 164.491145 147.912067 
L 164.785218 147.138697 
L 165.043826 146.365327 
L 165.268365 145.591957 
L 165.460367 144.818587 
L 165.621667 144.045216 
L 165.754543 143.271846 
L 165.86172 142.498476 
L 165.946242 141.725106 
L 166.011266 140.951736 
L 166.059854 140.178366 
L 166.094851 139.404996 
L 166.118845 138.631626 
L 166.134205 137.858255 
L 166.143135 137.084885 
L 166.147687 136.311515 
L 166.149726 135.538145 
L 166.150835 134.764775 
L 166.152197 133.991405 
L 166.230499 133.991405 
L 166.230499 133.991405 
L 166.231861 134.764775 
L 166.23297 135.538145 
L 166.235009 136.311515 
L 166.239561 137.084885 
L 166.248491 137.858255 
L 166.263851 138.631626 
L 166.287845 139.404996 
L 166.322842 140.178366 
L 166.37143 140.951736 
L 166.436453 141.725106 
L 166.520976 142.498476 
L 166.628153 143.271846 
L 166.761029 144.045216 
L 166.922329 144.818587 
L 167.114331 145.591957 
L 167.33887 146.365327 
L 167.597478 147.138697 
L 167.891551 147.912067 
L 168.222384 148.685437 
L 168.590888 149.458807 
L 168.996894 150.232177 
L 169.438056 151.005548 
L 169.908603 151.778918 
L 170.398295 152.552288 
L 170.892062 153.325658 
L 171.370699 154.099028 
L 171.81279 154.872398 
L 172.197666 155.645768 
L 172.508872 156.419138 
L 172.737341 157.192508 
L 172.883449 157.965879 
L 172.957311 158.739249 
L 172.977103 159.512619 
L 172.965697 160.285989 
L 172.946395 161.059359 
L 172.938769 161.832729 
L 172.955633 162.606099 
L 173.001762 163.379469 
L 173.074457 164.15284 
L 173.16547 164.92621 
L 173.263472 165.69958 
L 173.356234 166.47295 
L 173.432016 167.24632 
L 173.480151 168.01969 
L 173.491239 168.79306 
L 173.457553 169.56643 
L 173.374127 170.339801 
L 173.240608 171.113171 
L 173.063465 171.886541 
L 172.857755 172.659911 
L 172.647527 173.433281 
L 172.464088 174.206651 
L 172.341899 174.980021 
L 172.312496 175.753391 
L 172.397597 176.526761 
L 172.603003 177.300132 
L 172.914999 178.073502 
L 173.300544 178.846872 
L 173.711591 179.620242 
L 174.09282 180.393612 
L 174.391061 181.166982 
L 174.564206 181.940352 
L 174.587586 182.713722 
L 174.456512 183.487093 
L 174.184762 184.260463 
L 173.799787 185.033833 
L 173.336141 185.807203 
L 172.828815 186.580573 
L 172.307937 187.353943 
L 171.795733 188.127313 
L 171.305883 188.900683 
L 170.844848 189.674054 
L 170.414264 190.447424 
L 170.013473 191.220794 
L 169.64143 191.994164 
L 169.29763 192.767534 
L 168.982112 193.540904 
L 168.694883 194.314274 
L 168.435248 195.087644 
L 168.201401 195.861015 
L 167.990473 196.634385 
L 167.798974 197.407755 
L 167.623439 198.181125 
L 167.461021 198.954495 
L 167.309871 199.727865 
L 167.169211 200.501235 
L 167.039162 201.274605 
L 166.920393 202.047975 
L 166.813729 202.821346 
L 166.719795 203.594716 
L 166.638759 204.368086 
L 166.570202 205.141456 
L 166.51311 205.914826 
L 166.465974 206.688196 
L 166.426963 207.461566 
L 166.394158 208.234936 
L 166.365777 209.008307 
L 166.340379 209.781677 
L 166.317003 210.555047 
z
" clip-path="url(#pa5d65d522c)" style="fill: #348abd; fill-opacity: 0.3"/>
   </g>
   <g id="PolyCollection_5">
    <path d="M 194.321695 203.06616 
L 194.035922 203.06616 
L 194.008078 202.448714 
L 193.97671 201.831268 
L 193.94073 201.213822 
L 193.898689 200.596376 
L 193.848895 199.978931 
L 193.789581 199.361485 
L 193.719108 198.744039 
L 193.636137 198.126593 
L 193.539757 197.509147 
L 193.42952 196.891701 
L 193.305373 196.274255 
L 193.167476 195.656809 
L 193.015943 195.039363 
L 192.850551 194.421917 
L 192.670477 193.804471 
L 192.474155 193.187025 
L 192.259301 192.569579 
L 192.023113 191.952133 
L 191.762621 191.334688 
L 191.47507 190.717242 
L 191.158236 190.099796 
L 190.810583 189.48235 
L 190.431281 188.864904 
L 190.020176 188.247458 
L 189.577952 187.630012 
L 189.10665 187.012566 
L 188.610697 186.39512 
L 188.098288 185.777674 
L 187.582809 185.160228 
L 187.083717 184.542782 
L 186.626313 183.925336 
L 186.239952 183.30789 
L 185.954646 182.690445 
L 185.796466 182.072999 
L 185.782571 181.455553 
L 185.916978 180.838107 
L 186.188149 180.220661 
L 186.569102 179.603215 
L 187.020256 178.985769 
L 187.494539 178.368323 
L 187.94379 177.750877 
L 188.325231 177.133431 
L 188.606803 176.515985 
L 188.770496 175.898539 
L 188.813282 175.281093 
L 188.745765 174.663647 
L 188.589058 174.046202 
L 188.370651 173.428756 
L 188.120051 172.81131 
L 187.864919 172.193864 
L 187.628185 171.576418 
L 187.42641 170.958972 
L 187.269401 170.341526 
L 187.16087 169.72408 
L 187.099745 169.106634 
L 187.081713 168.489188 
L 187.100564 167.871742 
L 187.149089 167.254296 
L 187.219456 166.63685 
L 187.30323 166.019404 
L 187.391352 165.401958 
L 187.474408 164.784513 
L 187.543411 164.167067 
L 187.591105 163.549621 
L 187.613536 162.932175 
L 187.611464 162.314729 
L 187.591136 161.697283 
L 187.564095 161.079837 
L 187.545913 160.462391 
L 187.554068 159.844945 
L 187.605373 159.227499 
L 187.713508 158.610053 
L 187.88714 157.992607 
L 188.128958 157.375161 
L 188.435711 156.757715 
L 188.79911 156.14027 
L 189.207306 155.522824 
L 189.646569 154.905378 
L 190.102832 154.287932 
L 190.562875 153.670486 
L 191.01506 153.05304 
L 191.449652 152.435594 
L 191.858846 151.818148 
L 192.236659 151.200702 
L 192.578785 150.583256 
L 192.882495 149.96581 
L 193.146566 149.348364 
L 193.371203 148.730918 
L 193.557926 148.113472 
L 193.709371 147.496027 
L 193.829033 146.878581 
L 193.920969 146.261135 
L 193.989506 145.643689 
L 194.038981 145.026243 
L 194.073534 144.408797 
L 194.096951 143.791351 
L 194.11254 143.173905 
L 194.123046 142.556459 
L 194.130597 141.939013 
L 194.227021 141.939013 
L 194.227021 141.939013 
L 194.234571 142.556459 
L 194.245077 143.173905 
L 194.260666 143.791351 
L 194.284084 144.408797 
L 194.318637 145.026243 
L 194.368112 145.643689 
L 194.436649 146.261135 
L 194.528585 146.878581 
L 194.648247 147.496027 
L 194.799692 148.113472 
L 194.986415 148.730918 
L 195.211052 149.348364 
L 195.475122 149.96581 
L 195.778833 150.583256 
L 196.120959 151.200702 
L 196.498771 151.818148 
L 196.907966 152.435594 
L 197.342557 153.05304 
L 197.794742 153.670486 
L 198.254785 154.287932 
L 198.711048 154.905378 
L 199.150311 155.522824 
L 199.558508 156.14027 
L 199.921906 156.757715 
L 200.228659 157.375161 
L 200.470478 157.992607 
L 200.64411 158.610053 
L 200.752244 159.227499 
L 200.803549 159.844945 
L 200.811704 160.462391 
L 200.793523 161.079837 
L 200.766481 161.697283 
L 200.746153 162.314729 
L 200.744081 162.932175 
L 200.766513 163.549621 
L 200.814207 164.167067 
L 200.883209 164.784513 
L 200.966265 165.401958 
L 201.054388 166.019404 
L 201.138162 166.63685 
L 201.208528 167.254296 
L 201.257053 167.871742 
L 201.275905 168.489188 
L 201.257872 169.106634 
L 201.196747 169.72408 
L 201.088216 170.341526 
L 200.931208 170.958972 
L 200.729432 171.576418 
L 200.492698 172.193864 
L 200.237567 172.81131 
L 199.986967 173.428756 
L 199.768559 174.046202 
L 199.611853 174.663647 
L 199.544336 175.281093 
L 199.587122 175.898539 
L 199.750815 176.515985 
L 200.032387 177.133431 
L 200.413828 177.750877 
L 200.863079 178.368323 
L 201.337361 178.985769 
L 201.788516 179.603215 
L 202.169469 180.220661 
L 202.440639 180.838107 
L 202.575047 181.455553 
L 202.561151 182.072999 
L 202.402971 182.690445 
L 202.117666 183.30789 
L 201.731304 183.925336 
L 201.2739 184.542782 
L 200.774809 185.160228 
L 200.259329 185.777674 
L 199.74692 186.39512 
L 199.250967 187.012566 
L 198.779666 187.630012 
L 198.337441 188.247458 
L 197.926337 188.864904 
L 197.547034 189.48235 
L 197.199382 190.099796 
L 196.882547 190.717242 
L 196.594996 191.334688 
L 196.334505 191.952133 
L 196.098317 192.569579 
L 195.883463 193.187025 
L 195.687141 193.804471 
L 195.507067 194.421917 
L 195.341674 195.039363 
L 195.190142 195.656809 
L 195.052245 196.274255 
L 194.928098 196.891701 
L 194.817861 197.509147 
L 194.721481 198.126593 
L 194.638509 198.744039 
L 194.568036 199.361485 
L 194.508723 199.978931 
L 194.458928 200.596376 
L 194.416887 201.213822 
L 194.380907 201.831268 
L 194.349539 202.448714 
L 194.321695 203.06616 
z
" clip-path="url(#pa5d65d522c)" style="fill: #348abd; fill-opacity: 0.3"/>
   </g>
   <g id="PolyCollection_6">
    <path d="M 222.338706 197.474905 
L 221.993833 197.474905 
L 221.957954 196.966677 
L 221.916361 196.458449 
L 221.867765 195.950221 
L 221.810629 195.441993 
L 221.743271 194.933765 
L 221.664006 194.425537 
L 221.571281 193.917309 
L 221.463785 193.409081 
L 221.340494 192.900853 
L 221.200638 192.392625 
L 221.043584 191.884396 
L 220.868661 191.376168 
L 220.674967 190.86794 
L 220.461207 190.359712 
L 220.225609 189.851484 
L 219.965954 189.343256 
L 219.679736 188.835028 
L 219.364419 188.3268 
L 219.017764 187.818572 
L 218.638199 187.310344 
L 218.225205 186.802116 
L 217.779755 186.293888 
L 217.304822 185.78566 
L 216.805993 185.277432 
L 216.292134 184.769204 
L 215.775996 184.260975 
L 215.274508 183.752747 
L 214.808521 183.244519 
L 214.401737 182.736291 
L 214.078744 182.228063 
L 213.862271 181.719835 
L 213.770031 181.211607 
L 213.811698 180.703379 
L 213.986629 180.195151 
L 214.282862 179.686923 
L 214.677663 179.178695 
L 215.139607 178.670467 
L 215.631871 178.162239 
L 216.116175 177.654011 
L 216.556749 177.145783 
L 216.923743 176.637554 
L 217.195666 176.129326 
L 217.360654 175.621098 
L 217.416579 175.11287 
L 217.370154 174.604642 
L 217.235306 174.096414 
L 217.031088 173.588186 
L 216.779396 173.079958 
L 216.502745 172.57173 
L 216.222281 172.063502 
L 215.956201 171.555274 
L 215.71869 171.047046 
L 215.519424 170.538818 
L 215.363641 170.03059 
L 215.252664 169.522362 
L 215.184747 169.014133 
L 215.155998 168.505905 
L 215.161231 167.997677 
L 215.194548 167.489449 
L 215.249644 166.981221 
L 215.319855 166.472993 
L 215.398128 165.964765 
L 215.477076 165.456537 
L 215.549299 164.948309 
L 215.608042 164.440081 
L 215.648125 163.931853 
L 215.666976 163.423625 
L 215.665508 162.915397 
L 215.648564 162.407169 
L 215.624763 161.898941 
L 215.605693 161.390713 
L 215.604553 160.882484 
L 215.634506 160.374256 
L 215.707019 159.866028 
L 215.830512 159.3578 
L 216.009527 158.849572 
L 216.244497 158.341344 
L 216.532094 157.833116 
L 216.86598 157.324888 
L 217.237766 156.81666 
L 217.637959 156.308432 
L 218.056731 155.800204 
L 218.484448 155.291976 
L 218.91196 154.783748 
L 219.330736 154.27552 
L 219.732947 153.767292 
L 220.111584 153.259063 
L 220.460651 152.750835 
L 220.775413 152.242607 
L 221.052657 151.734379 
L 221.29087 151.226151 
L 221.49029 150.717923 
L 221.652792 150.209695 
L 221.781616 149.701467 
L 221.880979 149.193239 
L 221.955635 148.685011 
L 222.010436 148.176783 
L 222.049961 147.668555 
L 222.078234 147.160327 
L 222.254305 147.160327 
L 222.254305 147.160327 
L 222.282579 147.668555 
L 222.322103 148.176783 
L 222.376905 148.685011 
L 222.45156 149.193239 
L 222.550923 149.701467 
L 222.679747 150.209695 
L 222.842249 150.717923 
L 223.041669 151.226151 
L 223.279882 151.734379 
L 223.557126 152.242607 
L 223.871889 152.750835 
L 224.220955 153.259063 
L 224.599592 153.767292 
L 225.001803 154.27552 
L 225.420579 154.783748 
L 225.848091 155.291976 
L 226.275808 155.800204 
L 226.69458 156.308432 
L 227.094773 156.81666 
L 227.466559 157.324888 
L 227.800445 157.833116 
L 228.088042 158.341344 
L 228.323012 158.849572 
L 228.502027 159.3578 
L 228.62552 159.866028 
L 228.698033 160.374256 
L 228.727986 160.882484 
L 228.726847 161.390713 
L 228.707776 161.898941 
L 228.683975 162.407169 
L 228.667031 162.915397 
L 228.665563 163.423625 
L 228.684415 163.931853 
L 228.724497 164.440081 
L 228.78324 164.948309 
L 228.855464 165.456537 
L 228.934411 165.964765 
L 229.012684 166.472993 
L 229.082895 166.981221 
L 229.137991 167.489449 
L 229.171308 167.997677 
L 229.176541 168.505905 
L 229.147793 169.014133 
L 229.079875 169.522362 
L 228.968899 170.03059 
L 228.813115 170.538818 
L 228.61385 171.047046 
L 228.376338 171.555274 
L 228.110259 172.063502 
L 227.829794 172.57173 
L 227.553143 173.079958 
L 227.301451 173.588186 
L 227.097233 174.096414 
L 226.962386 174.604642 
L 226.91596 175.11287 
L 226.971885 175.621098 
L 227.136873 176.129326 
L 227.408796 176.637554 
L 227.77579 177.145783 
L 228.216364 177.654011 
L 228.700668 178.162239 
L 229.192932 178.670467 
L 229.654876 179.178695 
L 230.049677 179.686923 
L 230.34591 180.195151 
L 230.520842 180.703379 
L 230.562508 181.211607 
L 230.470268 181.719835 
L 230.253795 182.228063 
L 229.930802 182.736291 
L 229.524018 183.244519 
L 229.058031 183.752747 
L 228.556543 184.260975 
L 228.040405 184.769204 
L 227.526547 185.277432 
L 227.027717 185.78566 
L 226.552784 186.293888 
L 226.107334 186.802116 
L 225.69434 187.310344 
L 225.314775 187.818572 
L 224.96812 188.3268 
L 224.652803 188.835028 
L 224.366586 189.343256 
L 224.106931 189.851484 
L 223.871332 190.359712 
L 223.657572 190.86794 
L 223.463879 191.376168 
L 223.288956 191.884396 
L 223.131901 192.392625 
L 222.992045 192.900853 
L 222.868754 193.409081 
L 222.761258 193.917309 
L 222.668533 194.425537 
L 222.589268 194.933765 
L 222.521911 195.441993 
L 222.464774 195.950221 
L 222.416178 196.458449 
L 222.374585 196.966677 
L 222.338706 197.474905 
z
" clip-path="url(#pa5d65d522c)" style="fill: #348abd; fill-opacity: 0.3"/>
   </g>
   <g id="PolyCollection_7">
    <path d="M 250.380208 193.225691 
L 249.927253 193.225691 
L 249.876613 192.794886 
L 249.816824 192.364081 
L 249.746256 191.933275 
L 249.663105 191.50247 
L 249.565478 191.071665 
L 249.451476 190.64086 
L 249.319271 190.210055 
L 249.167138 189.779249 
L 248.993446 189.348444 
L 248.796607 188.917639 
L 248.574995 188.486834 
L 248.326877 188.056029 
L 248.050389 187.625224 
L 247.743596 187.194418 
L 247.404664 186.763613 
L 247.032159 186.332808 
L 246.625454 185.902003 
L 246.185237 185.471198 
L 245.714064 185.040392 
L 245.21691 184.609587 
L 244.701633 184.178782 
L 244.17929 183.747977 
L 243.664166 183.317172 
L 243.173455 182.886366 
L 242.726481 182.455561 
L 242.343464 182.024756 
L 242.043863 181.593951 
L 241.844473 181.163146 
L 241.757492 180.73234 
L 241.788871 180.301535 
L 241.937215 179.87073 
L 242.193443 179.439925 
L 242.541298 179.00912 
L 242.958645 178.578314 
L 243.419354 178.147509 
L 243.895515 177.716704 
L 244.359655 177.285899 
L 244.78672 176.855094 
L 245.155615 176.424289 
L 245.450235 175.993483 
L 245.65998 175.562678 
L 245.779822 175.131873 
L 245.810022 174.701068 
L 245.755607 174.270263 
L 245.625656 173.839457 
L 245.432476 173.408652 
L 245.190676 172.977847 
L 244.916176 172.547042 
L 244.625183 172.116237 
L 244.33318 171.685431 
L 244.054011 171.254626 
L 243.799139 170.823821 
L 243.577155 170.393016 
L 243.393578 169.962211 
L 243.250968 169.531405 
L 243.149287 169.1006 
L 243.086428 168.669795 
L 243.058802 168.23899 
L 243.061854 167.808185 
L 243.090449 167.377379 
L 243.139076 166.946574 
L 243.201929 166.515769 
L 243.272932 166.084964 
L 243.345821 165.654159 
L 243.414385 165.223353 
L 243.472907 164.792548 
L 243.51679 164.361743 
L 243.543271 163.930938 
L 243.552072 163.500133 
L 243.545827 163.069328 
L 243.530151 162.638522 
L 243.513272 162.207717 
L 243.505265 161.776912 
L 243.516975 161.346107 
L 243.558811 160.915302 
L 243.639612 160.484496 
L 243.765752 160.053691 
L 243.940609 159.622886 
L 244.164447 159.192081 
L 244.434677 158.761276 
L 244.746386 158.33047 
L 245.093011 157.899665 
L 245.467008 157.46886 
L 245.860417 157.038055 
L 246.265261 156.60725 
L 246.673783 156.176444 
L 247.078562 155.745639 
L 247.472583 155.314834 
L 247.849323 154.884029 
L 248.202906 154.453224 
L 248.528317 154.022418 
L 248.821654 153.591613 
L 249.080366 153.160808 
L 249.303394 152.730003 
L 249.491197 152.299198 
L 249.645624 151.868392 
L 249.769652 151.437587 
L 249.867032 151.006782 
L 249.941901 150.575977 
L 250.36556 150.575977 
L 250.36556 150.575977 
L 250.440429 151.006782 
L 250.537809 151.437587 
L 250.661837 151.868392 
L 250.816264 152.299198 
L 251.004067 152.730003 
L 251.227095 153.160808 
L 251.485806 153.591613 
L 251.779144 154.022418 
L 252.104555 154.453224 
L 252.458138 154.884029 
L 252.834878 155.314834 
L 253.228899 155.745639 
L 253.633678 156.176444 
L 254.0422 156.60725 
L 254.447044 157.038055 
L 254.840453 157.46886 
L 255.21445 157.899665 
L 255.561075 158.33047 
L 255.872784 158.761276 
L 256.143014 159.192081 
L 256.366852 159.622886 
L 256.541708 160.053691 
L 256.667849 160.484496 
L 256.74865 160.915302 
L 256.790486 161.346107 
L 256.802195 161.776912 
L 256.794189 162.207717 
L 256.77731 162.638522 
L 256.761634 163.069328 
L 256.755389 163.500133 
L 256.76419 163.930938 
L 256.790671 164.361743 
L 256.834554 164.792548 
L 256.893076 165.223353 
L 256.96164 165.654159 
L 257.034529 166.084964 
L 257.105532 166.515769 
L 257.168385 166.946574 
L 257.217012 167.377379 
L 257.245606 167.808185 
L 257.248659 168.23899 
L 257.221033 168.669795 
L 257.158174 169.1006 
L 257.056493 169.531405 
L 256.913883 169.962211 
L 256.730306 170.393016 
L 256.508322 170.823821 
L 256.25345 171.254626 
L 255.974281 171.685431 
L 255.682278 172.116237 
L 255.391285 172.547042 
L 255.116785 172.977847 
L 254.874985 173.408652 
L 254.681805 173.839457 
L 254.551854 174.270263 
L 254.497438 174.701068 
L 254.527639 175.131873 
L 254.64748 175.562678 
L 254.857226 175.993483 
L 255.151846 176.424289 
L 255.520741 176.855094 
L 255.947806 177.285899 
L 256.411946 177.716704 
L 256.888107 178.147509 
L 257.348816 178.578314 
L 257.766162 179.00912 
L 258.114018 179.439925 
L 258.370246 179.87073 
L 258.518589 180.301535 
L 258.549969 180.73234 
L 258.462988 181.163146 
L 258.263597 181.593951 
L 257.963997 182.024756 
L 257.58098 182.455561 
L 257.134006 182.886366 
L 256.643294 183.317172 
L 256.128171 183.747977 
L 255.605827 184.178782 
L 255.090551 184.609587 
L 254.593396 185.040392 
L 254.122224 185.471198 
L 253.682007 185.902003 
L 253.275302 186.332808 
L 252.902797 186.763613 
L 252.563865 187.194418 
L 252.257072 187.625224 
L 251.980584 188.056029 
L 251.732466 188.486834 
L 251.510854 188.917639 
L 251.314015 189.348444 
L 251.140323 189.779249 
L 250.98819 190.210055 
L 250.855984 190.64086 
L 250.741983 191.071665 
L 250.644356 191.50247 
L 250.561205 191.933275 
L 250.490637 192.364081 
L 250.430848 192.794886 
L 250.380208 193.225691 
z
" clip-path="url(#pa5d65d522c)" style="fill: #348abd; fill-opacity: 0.3"/>
   </g>
   <g id="PolyCollection_8">
    <path d="M 278.470423 189.948165 
L 277.81196 189.948165 
L 277.733352 189.572683 
L 277.639543 189.197202 
L 277.528169 188.821721 
L 277.3967 188.44624 
L 277.242497 188.070759 
L 277.062884 187.695277 
L 276.855218 187.319796 
L 276.616958 186.944315 
L 276.345758 186.568834 
L 276.039582 186.193353 
L 275.696879 185.817871 
L 275.316831 185.44239 
L 274.899685 185.066909 
L 274.447145 184.691428 
L 273.962808 184.315947 
L 273.452571 183.940465 
L 272.924937 183.564984 
L 272.391131 183.189503 
L 271.864954 182.814022 
L 271.362315 182.438541 
L 270.90043 182.063059 
L 270.496715 181.687578 
L 270.167483 181.312097 
L 269.926551 180.936616 
L 269.78396 180.561135 
L 269.744953 180.185653 
L 269.809377 179.810172 
L 269.971589 179.434691 
L 270.220886 179.05921 
L 270.542398 178.683729 
L 270.918309 178.308247 
L 271.329232 177.932766 
L 271.755554 177.557285 
L 272.1786 177.181804 
L 272.581515 176.806323 
L 272.949817 176.430841 
L 273.271656 176.05536 
L 273.537849 175.679879 
L 273.74177 175.304398 
L 273.879205 174.928917 
L 273.948216 174.553435 
L 273.949063 174.177954 
L 273.884169 173.802473 
L 273.758105 173.426992 
L 273.577524 173.051511 
L 273.351015 172.67603 
L 273.088812 172.300548 
L 272.802352 171.925067 
L 272.503701 171.549586 
L 272.204871 171.174105 
L 271.917122 170.798624 
L 271.650307 170.423142 
L 271.412363 170.047661 
L 271.208984 169.67218 
L 271.043518 169.296699 
L 270.917086 168.921218 
L 270.828862 168.545736 
L 270.776458 168.170255 
L 270.756326 167.794774 
L 270.764114 167.419293 
L 270.794933 167.043812 
L 270.843519 166.66833 
L 270.904342 166.292849 
L 270.971697 165.917368 
L 271.039866 165.541887 
L 271.103384 165.166406 
L 271.157441 164.790924 
L 271.198378 164.415443 
L 271.224224 164.039962 
L 271.235144 163.664481 
L 271.233718 163.289 
L 271.224947 162.913518 
L 271.215949 162.538037 
L 271.215361 162.162556 
L 271.232516 161.787075 
L 271.276513 161.411594 
L 271.355316 161.036112 
L 271.475008 160.660631 
L 271.639292 160.28515 
L 271.849294 159.909669 
L 272.10365 159.534188 
L 272.398835 159.158706 
L 272.729631 158.783225 
L 273.089662 158.407744 
L 273.471878 158.032263 
L 273.868966 157.656782 
L 274.273635 157.2813 
L 274.678809 156.905819 
L 275.077746 156.530338 
L 275.464138 156.154857 
L 275.832228 155.779376 
L 276.176955 155.403895 
L 276.494129 155.028413 
L 276.780605 154.652932 
L 277.034426 154.277451 
L 277.254895 153.90197 
L 277.442547 153.526489 
L 277.599026 153.151007 
L 277.72687 152.775526 
L 278.555513 152.775526 
L 278.555513 152.775526 
L 278.683357 153.151007 
L 278.839835 153.526489 
L 279.027487 153.90197 
L 279.247956 154.277451 
L 279.501778 154.652932 
L 279.788253 155.028413 
L 280.105427 155.403895 
L 280.450154 155.779376 
L 280.818245 156.154857 
L 281.204637 156.530338 
L 281.603573 156.905819 
L 282.008747 157.2813 
L 282.413417 157.656782 
L 282.810505 158.032263 
L 283.192721 158.407744 
L 283.552751 158.783225 
L 283.883548 159.158706 
L 284.178732 159.534188 
L 284.433088 159.909669 
L 284.64309 160.28515 
L 284.807375 160.660631 
L 284.927066 161.036112 
L 285.00587 161.411594 
L 285.049866 161.787075 
L 285.067021 162.162556 
L 285.066433 162.538037 
L 285.057436 162.913518 
L 285.048665 163.289 
L 285.047238 163.664481 
L 285.058158 164.039962 
L 285.084004 164.415443 
L 285.124942 164.790924 
L 285.178998 165.166406 
L 285.242516 165.541887 
L 285.310685 165.917368 
L 285.37804 166.292849 
L 285.438863 166.66833 
L 285.48745 167.043812 
L 285.518268 167.419293 
L 285.526056 167.794774 
L 285.505924 168.170255 
L 285.45352 168.545736 
L 285.365296 168.921218 
L 285.238865 169.296699 
L 285.073399 169.67218 
L 284.870019 170.047661 
L 284.632075 170.423142 
L 284.365261 170.798624 
L 284.077511 171.174105 
L 283.778681 171.549586 
L 283.48003 171.925067 
L 283.193571 172.300548 
L 282.931367 172.67603 
L 282.704858 173.051511 
L 282.524278 173.426992 
L 282.398213 173.802473 
L 282.33332 174.177954 
L 282.334166 174.553435 
L 282.403177 174.928917 
L 282.540612 175.304398 
L 282.744533 175.679879 
L 283.010726 176.05536 
L 283.332565 176.430841 
L 283.700867 176.806323 
L 284.103782 177.181804 
L 284.526829 177.557285 
L 284.953151 177.932766 
L 285.364073 178.308247 
L 285.739985 178.683729 
L 286.061497 179.05921 
L 286.310793 179.434691 
L 286.473005 179.810172 
L 286.537429 180.185653 
L 286.498423 180.561135 
L 286.355831 180.936616 
L 286.1149 181.312097 
L 285.785667 181.687578 
L 285.381953 182.063059 
L 284.920067 182.438541 
L 284.417428 182.814022 
L 283.891251 183.189503 
L 283.357445 183.564984 
L 282.829811 183.940465 
L 282.319574 184.315947 
L 281.835237 184.691428 
L 281.382697 185.066909 
L 280.965551 185.44239 
L 280.585504 185.817871 
L 280.242801 186.193353 
L 279.936624 186.568834 
L 279.665424 186.944315 
L 279.427165 187.319796 
L 279.219498 187.695277 
L 279.039885 188.070759 
L 278.885682 188.44624 
L 278.754213 188.821721 
L 278.64284 189.197202 
L 278.549031 189.572683 
L 278.470423 189.948165 
z
" clip-path="url(#pa5d65d522c)" style="fill: #348abd; fill-opacity: 0.3"/>
   </g>
   <g id="PolyCollection_9">
    <path d="M 306.664071 187.390862 
L 305.593233 187.390862 
L 305.458673 187.055093 
L 305.297391 186.719323 
L 305.10582 186.383554 
L 304.880434 186.047785 
L 304.617963 185.712016 
L 304.315639 185.376247 
L 303.971506 185.040477 
L 303.584759 184.704708 
L 303.156121 184.368939 
L 302.688201 184.03317 
L 302.185833 183.697401 
L 301.6563 183.361631 
L 301.109427 183.025862 
L 300.557462 182.690093 
L 300.014713 182.354324 
L 299.496922 182.018555 
L 299.0204 181.682786 
L 298.600975 181.347016 
L 298.252858 181.011247 
L 297.987544 180.675478 
L 297.812879 180.339709 
L 297.732414 180.00394 
L 297.745132 179.66817 
L 297.845589 179.332401 
L 298.024439 178.996632 
L 298.269288 178.660863 
L 298.565756 178.325094 
L 298.898605 177.989324 
L 299.252809 177.653555 
L 299.614439 177.317786 
L 299.97128 176.982017 
L 300.313149 176.646248 
L 300.631928 176.310479 
L 300.921346 175.974709 
L 301.176621 175.63894 
L 301.394026 175.303171 
L 301.5705 174.967402 
L 301.703354 174.631633 
L 301.790153 174.295863 
L 301.828762 173.960094 
L 301.817553 173.624325 
L 301.755735 173.288556 
L 301.643722 172.952787 
L 301.483485 172.617017 
L 301.278802 172.281248 
L 301.035356 171.945479 
L 300.76064 171.60971 
L 300.463662 171.273941 
L 300.154478 170.938171 
L 299.843593 170.602402 
L 299.541298 170.266633 
L 299.257029 169.930864 
L 298.998809 169.595095 
L 298.77285 169.259326 
L 298.583329 168.923556 
L 298.432363 168.587787 
L 298.320141 168.252018 
L 298.245188 167.916249 
L 298.204678 167.58048 
L 298.194753 167.24471 
L 298.210809 166.908941 
L 298.247712 166.573172 
L 298.299981 166.237403 
L 298.361942 165.901634 
L 298.427914 165.565864 
L 298.492456 165.230095 
L 298.550696 164.894326 
L 298.598739 164.558557 
L 298.634101 164.222788 
L 298.65611 163.887018 
L 298.666188 163.551249 
L 298.667945 163.21548 
L 298.667038 162.879711 
L 298.670774 162.543942 
L 298.687505 162.208173 
L 298.72587 161.872403 
L 298.793998 161.536634 
L 298.898767 161.200865 
L 299.045215 160.865096 
L 299.236173 160.529327 
L 299.472136 160.193557 
L 299.751371 159.857788 
L 300.070198 159.522019 
L 300.423401 159.18625 
L 300.804669 158.850481 
L 301.207025 158.514711 
L 301.62319 158.178942 
L 302.045865 157.843173 
L 302.467947 157.507404 
L 302.882688 157.171635 
L 303.28383 156.835865 
L 303.665737 156.500096 
L 304.023539 156.164327 
L 304.353275 155.828558 
L 304.65202 155.492789 
L 304.91798 155.15702 
L 305.150526 154.82125 
L 305.350147 154.485481 
L 305.518336 154.149712 
L 306.738968 154.149712 
L 306.738968 154.149712 
L 306.907157 154.485481 
L 307.106778 154.82125 
L 307.339324 155.15702 
L 307.605285 155.492789 
L 307.904029 155.828558 
L 308.233765 156.164327 
L 308.591567 156.500096 
L 308.973474 156.835865 
L 309.374616 157.171635 
L 309.789357 157.507404 
L 310.21144 157.843173 
L 310.634115 158.178942 
L 311.050279 158.514711 
L 311.452635 158.850481 
L 311.833903 159.18625 
L 312.187106 159.522019 
L 312.505934 159.857788 
L 312.785168 160.193557 
L 313.021131 160.529327 
L 313.212089 160.865096 
L 313.358537 161.200865 
L 313.463306 161.536634 
L 313.531434 161.872403 
L 313.569799 162.208173 
L 313.58653 162.543942 
L 313.590267 162.879711 
L 313.589359 163.21548 
L 313.591116 163.551249 
L 313.601194 163.887018 
L 313.623203 164.222788 
L 313.658565 164.558557 
L 313.706609 164.894326 
L 313.764848 165.230095 
L 313.82939 165.565864 
L 313.895362 165.901634 
L 313.957323 166.237403 
L 314.009592 166.573172 
L 314.046495 166.908941 
L 314.062551 167.24471 
L 314.052627 167.58048 
L 314.012116 167.916249 
L 313.937163 168.252018 
L 313.824942 168.587787 
L 313.673975 168.923556 
L 313.484454 169.259326 
L 313.258495 169.595095 
L 313.000276 169.930864 
L 312.716006 170.266633 
L 312.413711 170.602402 
L 312.102826 170.938171 
L 311.793642 171.273941 
L 311.496664 171.60971 
L 311.221948 171.945479 
L 310.978502 172.281248 
L 310.773819 172.617017 
L 310.613582 172.952787 
L 310.501569 173.288556 
L 310.439751 173.624325 
L 310.428542 173.960094 
L 310.467151 174.295863 
L 310.55395 174.631633 
L 310.686804 174.967402 
L 310.863278 175.303171 
L 311.080683 175.63894 
L 311.335958 175.974709 
L 311.625377 176.310479 
L 311.944155 176.646248 
L 312.286024 176.982017 
L 312.642865 177.317786 
L 313.004495 177.653555 
L 313.358699 177.989324 
L 313.691548 178.325094 
L 313.988016 178.660863 
L 314.232865 178.996632 
L 314.411715 179.332401 
L 314.512172 179.66817 
L 314.52489 180.00394 
L 314.444425 180.339709 
L 314.26976 180.675478 
L 314.004446 181.011247 
L 313.656329 181.347016 
L 313.236904 181.682786 
L 312.760382 182.018555 
L 312.242591 182.354324 
L 311.699842 182.690093 
L 311.147877 183.025862 
L 310.601005 183.361631 
L 310.071471 183.697401 
L 309.569103 184.03317 
L 309.101184 184.368939 
L 308.672545 184.704708 
L 308.285798 185.040477 
L 307.941665 185.376247 
L 307.639341 185.712016 
L 307.37687 186.047785 
L 307.151485 186.383554 
L 306.959913 186.719323 
L 306.798631 187.055093 
L 306.664071 187.390862 
z
" clip-path="url(#pa5d65d522c)" style="fill: #348abd; fill-opacity: 0.3"/>
   </g>
   <g id="PolyCollection_10">
    <path d="M 335.025133 185.380211 
L 333.207093 185.380211 
L 332.977967 185.073253 
L 332.707447 184.766296 
L 332.392833 184.459338 
L 332.032712 184.15238 
L 331.627399 183.845423 
L 331.17933 183.538465 
L 330.693377 183.231508 
L 330.177023 182.92455 
L 329.640334 182.617592 
L 329.095715 182.310635 
L 328.557409 182.003677 
L 328.040773 181.696719 
L 327.561366 181.389762 
L 327.133932 181.082804 
L 326.771375 180.775846 
L 326.483827 180.468889 
L 326.277926 180.161931 
L 326.156367 179.854974 
L 326.117801 179.548016 
L 326.157057 179.241058 
L 326.265696 178.934101 
L 326.432793 178.627143 
L 326.645884 178.320185 
L 326.891947 178.013228 
L 327.15834 177.70627 
L 327.433585 177.399312 
L 327.707946 177.092355 
L 327.973758 176.785397 
L 328.225508 176.47844 
L 328.459674 176.171482 
L 328.674386 175.864524 
L 328.868951 175.557567 
L 329.043312 175.250609 
L 329.197525 174.943651 
L 329.331289 174.636694 
L 329.443611 174.329736 
L 329.532622 174.022778 
L 329.595573 173.715821 
L 329.629016 173.408863 
L 329.629129 173.101906 
L 329.592176 172.794948 
L 329.51502 172.48799 
L 329.395644 172.181033 
L 329.233614 171.874075 
L 329.030411 171.567117 
L 328.789607 171.26016 
L 328.516833 170.953202 
L 328.219552 170.646244 
L 327.906646 170.339287 
L 327.587863 170.032329 
L 327.273181 169.725372 
L 326.972154 169.418414 
L 326.693328 169.111456 
L 326.443753 168.804499 
L 326.228667 168.497541 
L 326.051344 168.190583 
L 325.913108 167.883626 
L 325.813488 167.576668 
L 325.750447 167.269711 
L 325.720677 166.962753 
L 325.719875 166.655795 
L 325.743013 166.348838 
L 325.784578 166.04188 
L 325.838798 165.734922 
L 325.899881 165.427965 
L 325.962289 165.121007 
L 326.021069 164.814049 
L 326.072217 164.507092 
L 326.113068 164.200134 
L 326.142646 163.893177 
L 326.161916 163.586219 
L 326.173888 163.279261 
L 326.183511 162.972304 
L 326.197365 162.665346 
L 326.223144 162.358388 
L 326.269009 162.051431 
L 326.342865 161.744473 
L 326.451663 161.437515 
L 326.600813 161.130558 
L 326.793757 160.8236 
L 327.031762 160.516643 
L 327.313909 160.209685 
L 327.637276 159.902727 
L 327.997247 159.59577 
L 328.387901 159.288812 
L 328.802417 158.981854 
L 329.233453 158.674897 
L 329.673476 158.367939 
L 330.115033 158.060981 
L 330.550973 157.754024 
L 330.974625 157.447066 
L 331.379967 157.140109 
L 331.761769 156.833151 
L 332.115739 156.526193 
L 332.438629 156.219236 
L 332.728324 155.912278 
L 332.983864 155.60532 
L 333.205405 155.298363 
L 333.394123 154.991405 
L 334.838102 154.991405 
L 334.838102 154.991405 
L 335.026821 155.298363 
L 335.248362 155.60532 
L 335.503901 155.912278 
L 335.793597 156.219236 
L 336.116487 156.526193 
L 336.470456 156.833151 
L 336.852259 157.140109 
L 337.2576 157.447066 
L 337.681253 157.754024 
L 338.117192 158.060981 
L 338.55875 158.367939 
L 338.998773 158.674897 
L 339.429808 158.981854 
L 339.844324 159.288812 
L 340.234979 159.59577 
L 340.59495 159.902727 
L 340.918317 160.209685 
L 341.200464 160.516643 
L 341.438468 160.8236 
L 341.631413 161.130558 
L 341.780563 161.437515 
L 341.889361 161.744473 
L 341.963216 162.051431 
L 342.009081 162.358388 
L 342.034861 162.665346 
L 342.048714 162.972304 
L 342.058338 163.279261 
L 342.07031 163.586219 
L 342.08958 163.893177 
L 342.119157 164.200134 
L 342.160008 164.507092 
L 342.211156 164.814049 
L 342.269936 165.121007 
L 342.332345 165.427965 
L 342.393428 165.734922 
L 342.447648 166.04188 
L 342.489213 166.348838 
L 342.512351 166.655795 
L 342.511549 166.962753 
L 342.481778 167.269711 
L 342.418738 167.576668 
L 342.319117 167.883626 
L 342.180882 168.190583 
L 342.003559 168.497541 
L 341.788473 168.804499 
L 341.538898 169.111456 
L 341.260071 169.418414 
L 340.959045 169.725372 
L 340.644362 170.032329 
L 340.32558 170.339287 
L 340.012674 170.646244 
L 339.715393 170.953202 
L 339.442619 171.26016 
L 339.201814 171.567117 
L 338.998612 171.874075 
L 338.836581 172.181033 
L 338.717206 172.48799 
L 338.64005 172.794948 
L 338.603097 173.101906 
L 338.60321 173.408863 
L 338.636652 173.715821 
L 338.699604 174.022778 
L 338.788614 174.329736 
L 338.900936 174.636694 
L 339.034701 174.943651 
L 339.188913 175.250609 
L 339.363275 175.557567 
L 339.557839 175.864524 
L 339.772552 176.171482 
L 340.006718 176.47844 
L 340.258467 176.785397 
L 340.52428 177.092355 
L 340.798641 177.399312 
L 341.073885 177.70627 
L 341.340278 178.013228 
L 341.586342 178.320185 
L 341.799432 178.627143 
L 341.96653 178.934101 
L 342.075169 179.241058 
L 342.114425 179.548016 
L 342.075858 179.854974 
L 341.9543 180.161931 
L 341.748398 180.468889 
L 341.46085 180.775846 
L 341.098293 181.082804 
L 340.67086 181.389762 
L 340.191453 181.696719 
L 339.674817 182.003677 
L 339.136511 182.310635 
L 338.591892 182.617592 
L 338.055203 182.92455 
L 337.538848 183.231508 
L 337.052896 183.538465 
L 336.604827 183.845423 
L 336.199514 184.15238 
L 335.839393 184.459338 
L 335.524778 184.766296 
L 335.254259 185.073253 
L 335.025133 185.380211 
z
" clip-path="url(#pa5d65d522c)" style="fill: #348abd; fill-opacity: 0.3"/>
   </g>
   <g id="PolyCollection_11">
    <path d="M 363.5019 183.794224 
L 360.705248 183.794224 
L 360.384141 183.509478 
L 360.020525 183.224732 
L 359.617313 182.939986 
L 359.179879 182.65524 
L 358.716107 182.370494 
L 358.236219 182.085748 
L 357.75236 181.801002 
L 357.277959 181.516256 
L 356.826913 181.23151 
L 356.412652 180.946764 
L 356.047212 180.662018 
L 355.740378 180.377272 
L 355.499025 180.092526 
L 355.326705 179.80778 
L 355.223523 179.523034 
L 355.186306 179.238288 
L 355.209024 178.953542 
L 355.283403 178.668796 
L 355.399663 178.38405 
L 355.547288 178.099304 
L 355.715774 177.814559 
L 355.89528 177.529813 
L 356.077163 177.245067 
L 356.25435 176.960321 
L 356.421557 176.675575 
L 356.575349 176.390829 
L 356.714053 176.106083 
L 356.837541 175.821337 
L 356.94692 175.536591 
L 357.044136 175.251845 
L 357.131547 174.967099 
L 357.21149 174.682353 
L 357.285866 174.397607 
L 357.355788 174.112861 
L 357.421322 173.828115 
L 357.481319 173.543369 
L 357.533382 173.258623 
L 357.573961 172.973877 
L 357.598573 172.689131 
L 357.602144 172.404385 
L 357.579439 172.119639 
L 357.525562 171.834893 
L 357.436464 171.550147 
L 357.309426 171.265401 
L 357.143463 170.980655 
L 356.939595 170.695909 
L 356.700958 170.411163 
L 356.432739 170.126417 
L 356.141915 169.841671 
L 355.836847 169.556925 
L 355.526733 169.27218 
L 355.221009 168.987434 
L 354.928733 168.702688 
L 354.658025 168.417942 
L 354.41562 168.133196 
L 354.206547 167.84845 
L 354.033978 167.563704 
L 353.899214 167.278958 
L 353.801799 166.994212 
L 353.739723 166.709466 
L 353.709679 166.42472 
L 353.707335 166.139974 
L 353.727625 165.855228 
L 353.765022 165.570482 
L 353.81383 165.285736 
L 353.868481 165.00099 
L 353.923871 164.716244 
L 353.975705 164.431498 
L 354.020856 164.146752 
L 354.057692 163.862006 
L 354.086326 163.57726 
L 354.108749 163.292514 
L 354.128794 163.007768 
L 354.151916 162.723022 
L 354.184802 162.438276 
L 354.234822 162.15353 
L 354.309404 161.868784 
L 354.415384 161.584038 
L 354.558415 161.299292 
L 354.742506 161.014546 
L 354.969719 160.7298 
L 355.240056 160.445055 
L 355.551525 160.160309 
L 355.900349 159.875563 
L 356.281275 159.590817 
L 356.687943 159.306071 
L 357.113263 159.021325 
L 357.549762 158.736579 
L 357.989905 158.451833 
L 358.426365 158.167087 
L 358.852252 157.882341 
L 359.261312 157.597595 
L 359.648094 157.312849 
L 360.008098 157.028103 
L 360.337882 156.743357 
L 360.63513 156.458611 
L 360.898675 156.173865 
L 361.128457 155.889119 
L 361.325427 155.604373 
L 362.881721 155.604373 
L 362.881721 155.604373 
L 363.078691 155.889119 
L 363.308473 156.173865 
L 363.572018 156.458611 
L 363.869266 156.743357 
L 364.199049 157.028103 
L 364.559053 157.312849 
L 364.945836 157.597595 
L 365.354895 157.882341 
L 365.780782 158.167087 
L 366.217242 158.451833 
L 366.657386 158.736579 
L 367.093884 159.021325 
L 367.519204 159.306071 
L 367.925873 159.590817 
L 368.306799 159.875563 
L 368.655622 160.160309 
L 368.967091 160.445055 
L 369.237428 160.7298 
L 369.464641 161.014546 
L 369.648732 161.299292 
L 369.791764 161.584038 
L 369.897743 161.868784 
L 369.972325 162.15353 
L 370.022346 162.438276 
L 370.055231 162.723022 
L 370.078353 163.007768 
L 370.098398 163.292514 
L 370.120821 163.57726 
L 370.149456 163.862006 
L 370.186292 164.146752 
L 370.231443 164.431498 
L 370.283277 164.716244 
L 370.338666 165.00099 
L 370.393318 165.285736 
L 370.442125 165.570482 
L 370.479522 165.855228 
L 370.499812 166.139974 
L 370.497469 166.42472 
L 370.467424 166.709466 
L 370.405348 166.994212 
L 370.307934 167.278958 
L 370.17317 167.563704 
L 370.000601 167.84845 
L 369.791528 168.133196 
L 369.549122 168.417942 
L 369.278415 168.702688 
L 368.986138 168.987434 
L 368.680414 169.27218 
L 368.3703 169.556925 
L 368.065232 169.841671 
L 367.774409 170.126417 
L 367.506189 170.411163 
L 367.267552 170.695909 
L 367.063684 170.980655 
L 366.897721 171.265401 
L 366.770683 171.550147 
L 366.681585 171.834893 
L 366.627708 172.119639 
L 366.605004 172.404385 
L 366.608574 172.689131 
L 366.633187 172.973877 
L 366.673766 173.258623 
L 366.725829 173.543369 
L 366.785825 173.828115 
L 366.851359 174.112861 
L 366.921282 174.397607 
L 366.995657 174.682353 
L 367.0756 174.967099 
L 367.163012 175.251845 
L 367.260227 175.536591 
L 367.369606 175.821337 
L 367.493095 176.106083 
L 367.631798 176.390829 
L 367.78559 176.675575 
L 367.952798 176.960321 
L 368.129984 177.245067 
L 368.311867 177.529813 
L 368.491374 177.814559 
L 368.659859 178.099304 
L 368.807484 178.38405 
L 368.923744 178.668796 
L 368.998124 178.953542 
L 369.020841 179.238288 
L 368.983625 179.523034 
L 368.880443 179.80778 
L 368.708122 180.092526 
L 368.46677 180.377272 
L 368.159935 180.662018 
L 367.794495 180.946764 
L 367.380235 181.23151 
L 366.929188 181.516256 
L 366.454787 181.801002 
L 365.970928 182.085748 
L 365.49104 182.370494 
L 365.027268 182.65524 
L 364.589835 182.939986 
L 364.186623 183.224732 
L 363.823006 183.509478 
L 363.5019 183.794224 
z
" clip-path="url(#pa5d65d522c)" style="fill: #348abd; fill-opacity: 0.3"/>
   </g>
   <g id="PolyCollection_12">
    <path d="M 391.91252 182.545098 
L 388.269549 182.545098 
L 387.9142 182.277835 
L 387.532244 182.010573 
L 387.131957 181.74331 
L 386.723484 181.476047 
L 386.318283 181.208785 
L 385.928393 180.941522 
L 385.565577 180.67426 
L 385.240441 180.406997 
L 384.961631 180.139734 
L 384.735187 179.872472 
L 384.564158 179.605209 
L 384.448494 179.337947 
L 384.385237 179.070684 
L 384.36897 178.803422 
L 384.392446 178.536159 
L 384.447325 178.268896 
L 384.524905 178.001634 
L 384.616777 177.734371 
L 384.715349 177.467109 
L 384.814192 177.199846 
L 384.908226 176.932583 
L 384.993763 176.665321 
L 385.06844 176.398058 
L 385.131091 176.130796 
L 385.181586 175.863533 
L 385.220662 175.59627 
L 385.249757 175.329008 
L 385.270849 175.061745 
L 385.286287 174.794483 
L 385.298612 174.52722 
L 385.31036 174.259957 
L 385.323844 173.992695 
L 385.340933 173.725432 
L 385.362826 173.45817 
L 385.38985 173.190907 
L 385.421306 172.923645 
L 385.455364 172.656382 
L 385.489046 172.389119 
L 385.518306 172.121857 
L 385.538205 171.854594 
L 385.543192 171.587332 
L 385.527477 171.320069 
L 385.485473 171.052806 
L 385.412278 170.785544 
L 385.304143 170.518281 
L 385.158903 170.251019 
L 384.976294 169.983756 
L 384.758145 169.716493 
L 384.508392 169.449231 
L 384.232916 169.181968 
L 383.939213 168.914706 
L 383.635918 168.647443 
L 383.332237 168.380181 
L 383.037336 168.112918 
L 382.759757 167.845655 
L 382.506897 167.578393 
L 382.284626 167.31113 
L 382.097025 167.043868 
L 381.946291 166.776605 
L 381.83277 166.509342 
L 381.755104 166.24208 
L 381.710456 165.974817 
L 381.694796 165.707555 
L 381.703211 165.440292 
L 381.730235 165.173029 
L 381.770202 164.905767 
L 381.817599 164.638504 
L 381.867446 164.371242 
L 381.915665 164.103979 
L 381.959436 163.836716 
L 381.997493 163.569454 
L 382.030329 163.302191 
L 382.060262 163.034929 
L 382.091345 162.767666 
L 382.129094 162.500404 
L 382.180063 162.233141 
L 382.251291 161.965878 
L 382.349687 161.698616 
L 382.481419 161.431353 
L 382.651372 161.164091 
L 382.862735 160.896828 
L 383.116747 160.629565 
L 383.41263 160.362303 
L 383.747673 160.09504 
L 384.117454 159.827778 
L 384.516166 159.560515 
L 384.936977 159.293252 
L 385.372412 159.02599 
L 385.81472 158.758727 
L 386.256203 158.491465 
L 386.689511 158.224202 
L 387.107889 157.956939 
L 387.505392 157.689677 
L 387.877049 157.422414 
L 388.218991 157.155152 
L 388.528525 156.887889 
L 388.804156 156.620627 
L 389.045546 156.353364 
L 389.253416 156.086101 
L 390.928653 156.086101 
L 390.928653 156.086101 
L 391.136523 156.353364 
L 391.377913 156.620627 
L 391.653544 156.887889 
L 391.963078 157.155152 
L 392.30502 157.422414 
L 392.676677 157.689677 
L 393.07418 157.956939 
L 393.492558 158.224202 
L 393.925866 158.491465 
L 394.367349 158.758727 
L 394.809657 159.02599 
L 395.245092 159.293252 
L 395.665902 159.560515 
L 396.064615 159.827778 
L 396.434396 160.09504 
L 396.769438 160.362303 
L 397.065322 160.629565 
L 397.319334 160.896828 
L 397.530697 161.164091 
L 397.70065 161.431353 
L 397.832382 161.698616 
L 397.930778 161.965878 
L 398.002006 162.233141 
L 398.052975 162.500404 
L 398.090724 162.767666 
L 398.121807 163.034929 
L 398.15174 163.302191 
L 398.184576 163.569454 
L 398.222633 163.836716 
L 398.266404 164.103979 
L 398.314623 164.371242 
L 398.36447 164.638504 
L 398.411867 164.905767 
L 398.451834 165.173029 
L 398.478858 165.440292 
L 398.487273 165.707555 
L 398.471613 165.974817 
L 398.426965 166.24208 
L 398.349299 166.509342 
L 398.235778 166.776605 
L 398.085044 167.043868 
L 397.897443 167.31113 
L 397.675172 167.578393 
L 397.422312 167.845655 
L 397.144733 168.112918 
L 396.849832 168.380181 
L 396.546151 168.647443 
L 396.242856 168.914706 
L 395.949153 169.181968 
L 395.673677 169.449231 
L 395.423924 169.716493 
L 395.205775 169.983756 
L 395.023166 170.251019 
L 394.877926 170.518281 
L 394.769791 170.785544 
L 394.696596 171.052806 
L 394.654592 171.320069 
L 394.638877 171.587332 
L 394.643864 171.854594 
L 394.663763 172.121857 
L 394.693023 172.389119 
L 394.726705 172.656382 
L 394.760763 172.923645 
L 394.792219 173.190907 
L 394.819243 173.45817 
L 394.841136 173.725432 
L 394.858224 173.992695 
L 394.871709 174.259957 
L 394.883457 174.52722 
L 394.895782 174.794483 
L 394.91122 175.061745 
L 394.932312 175.329008 
L 394.961407 175.59627 
L 395.000483 175.863533 
L 395.050978 176.130796 
L 395.113629 176.398058 
L 395.188306 176.665321 
L 395.273843 176.932583 
L 395.367877 177.199846 
L 395.466719 177.467109 
L 395.565292 177.734371 
L 395.657164 178.001634 
L 395.734744 178.268896 
L 395.789623 178.536159 
L 395.813099 178.803422 
L 395.796832 179.070684 
L 395.733575 179.337947 
L 395.617911 179.605209 
L 395.446882 179.872472 
L 395.220438 180.139734 
L 394.941628 180.406997 
L 394.616492 180.67426 
L 394.253676 180.941522 
L 393.863786 181.208785 
L 393.458585 181.476047 
L 393.050112 181.74331 
L 392.649825 182.010573 
L 392.267869 182.277835 
L 391.91252 182.545098 
z
" clip-path="url(#pa5d65d522c)" style="fill: #348abd; fill-opacity: 0.3"/>
   </g>
   <g id="matplotlib.axis_1">
    <g id="xtick_1">
     <g id="line2d_1">
      <path d="M 82.228966 307.584 
L 82.228966 41.472 
" clip-path="url(#pa5d65d522c)" style="fill: none; stroke-dasharray: 1.85,0.8; stroke-dashoffset: 0; stroke: #b2b2b2; stroke-width: 0.5"/>
     </g>
     <g id="line2d_2">
      <defs>
       <path id="mdf5bef38aa" d="M 0 0 
L 0 -3.5 
" style="stroke: #000000; stroke-width: 0.8"/>
      </defs>
      <g>
       <use xlink:href="#mdf5bef38aa" x="82.228966" y="307.584" style="stroke: #000000; stroke-width: 0.8"/>
      </g>
     </g>
     <g id="text_1">
      <!-- 0 -->
      <g transform="translate(79.047716 318.682437) scale(0.1 -0.1)">
       <defs>
        <path id="DejaVuSans-30" d="M 2034 4250 
Q 1547 4250 1301 3770 
Q 1056 3291 1056 2328 
Q 1056 1369 1301 889 
Q 1547 409 2034 409 
Q 2525 409 2770 889 
Q 3016 1369 3016 2328 
Q 3016 3291 2770 3770 
Q 2525 4250 2034 4250 
z
M 2034 4750 
Q 2819 4750 3233 4129 
Q 3647 3509 3647 2328 
Q 3647 1150 3233 529 
Q 2819 -91 2034 -91 
Q 1250 -91 836 529 
Q 422 1150 422 2328 
Q 422 3509 836 4129 
Q 1250 4750 2034 4750 
z
" transform="scale(0.015625)"/>
       </defs>
       <use xlink:href="#DejaVuSans-30"/>
      </g>
     </g>
    </g>
    <g id="xtick_2">
     <g id="line2d_3">
      <path d="M 138.203887 307.584 
L 138.203887 41.472 
" clip-path="url(#pa5d65d522c)" style="fill: none; stroke-dasharray: 1.85,0.8; stroke-dashoffset: 0; stroke: #b2b2b2; stroke-width: 0.5"/>
     </g>
     <g id="line2d_4">
      <g>
       <use xlink:href="#mdf5bef38aa" x="138.203887" y="307.584" style="stroke: #000000; stroke-width: 0.8"/>
      </g>
     </g>
     <g id="text_2">
      <!-- 50 -->
      <g transform="translate(131.841387 318.682437) scale(0.1 -0.1)">
       <defs>
        <path id="DejaVuSans-35" d="M 691 4666 
L 3169 4666 
L 3169 4134 
L 1269 4134 
L 1269 2991 
Q 1406 3038 1543 3061 
Q 1681 3084 1819 3084 
Q 2600 3084 3056 2656 
Q 3513 2228 3513 1497 
Q 3513 744 3044 326 
Q 2575 -91 1722 -91 
Q 1428 -91 1123 -41 
Q 819 9 494 109 
L 494 744 
Q 775 591 1075 516 
Q 1375 441 1709 441 
Q 2250 441 2565 725 
Q 2881 1009 2881 1497 
Q 2881 1984 2565 2268 
Q 2250 2553 1709 2553 
Q 1456 2553 1204 2497 
Q 953 2441 691 2322 
L 691 4666 
z
" transform="scale(0.015625)"/>
       </defs>
       <use xlink:href="#DejaVuSans-35"/>
       <use xlink:href="#DejaVuSans-30" x="63.623047"/>
      </g>
     </g>
    </g>
    <g id="xtick_3">
     <g id="line2d_5">
      <path d="M 194.178809 307.584 
L 194.178809 41.472 
" clip-path="url(#pa5d65d522c)" style="fill: none; stroke-dasharray: 1.85,0.8; stroke-dashoffset: 0; stroke: #b2b2b2; stroke-width: 0.5"/>
     </g>
     <g id="line2d_6">
      <g>
       <use xlink:href="#mdf5bef38aa" x="194.178809" y="307.584" style="stroke: #000000; stroke-width: 0.8"/>
      </g>
     </g>
     <g id="text_3">
      <!-- 100 -->
      <g transform="translate(184.635059 318.682437) scale(0.1 -0.1)">
       <defs>
        <path id="DejaVuSans-31" d="M 794 531 
L 1825 531 
L 1825 4091 
L 703 3866 
L 703 4441 
L 1819 4666 
L 2450 4666 
L 2450 531 
L 3481 531 
L 3481 0 
L 794 0 
L 794 531 
z
" transform="scale(0.015625)"/>
       </defs>
       <use xlink:href="#DejaVuSans-31"/>
       <use xlink:href="#DejaVuSans-30" x="63.623047"/>
       <use xlink:href="#DejaVuSans-30" x="127.246094"/>
      </g>
     </g>
    </g>
    <g id="xtick_4">
     <g id="line2d_7">
      <path d="M 250.15373 307.584 
L 250.15373 41.472 
" clip-path="url(#pa5d65d522c)" style="fill: none; stroke-dasharray: 1.85,0.8; stroke-dashoffset: 0; stroke: #b2b2b2; stroke-width: 0.5"/>
     </g>
     <g id="line2d_8">
      <g>
       <use xlink:href="#mdf5bef38aa" x="250.15373" y="307.584" style="stroke: #000000; stroke-width: 0.8"/>
      </g>
     </g>
     <g id="text_4">
      <!-- 150 -->
      <g transform="translate(240.60998 318.682437) scale(0.1 -0.1)">
       <use xlink:href="#DejaVuSans-31"/>
       <use xlink:href="#DejaVuSans-35" x="63.623047"/>
       <use xlink:href="#DejaVuSans-30" x="127.246094"/>
      </g>
     </g>
    </g>
    <g id="xtick_5">
     <g id="line2d_9">
      <path d="M 306.128652 307.584 
L 306.128652 41.472 
" clip-path="url(#pa5d65d522c)" style="fill: none; stroke-dasharray: 1.85,0.8; stroke-dashoffset: 0; stroke: #b2b2b2; stroke-width: 0.5"/>
     </g>
     <g id="line2d_10">
      <g>
       <use xlink:href="#mdf5bef38aa" x="306.128652" y="307.584" style="stroke: #000000; stroke-width: 0.8"/>
      </g>
     </g>
     <g id="text_5">
      <!-- 200 -->
      <g transform="translate(296.584902 318.682437) scale(0.1 -0.1)">
       <defs>
        <path id="DejaVuSans-32" d="M 1228 531 
L 3431 531 
L 3431 0 
L 469 0 
L 469 531 
Q 828 903 1448 1529 
Q 2069 2156 2228 2338 
Q 2531 2678 2651 2914 
Q 2772 3150 2772 3378 
Q 2772 3750 2511 3984 
Q 2250 4219 1831 4219 
Q 1534 4219 1204 4116 
Q 875 4013 500 3803 
L 500 4441 
Q 881 4594 1212 4672 
Q 1544 4750 1819 4750 
Q 2544 4750 2975 4387 
Q 3406 4025 3406 3419 
Q 3406 3131 3298 2873 
Q 3191 2616 2906 2266 
Q 2828 2175 2409 1742 
Q 1991 1309 1228 531 
z
" transform="scale(0.015625)"/>
       </defs>
       <use xlink:href="#DejaVuSans-32"/>
       <use xlink:href="#DejaVuSans-30" x="63.623047"/>
       <use xlink:href="#DejaVuSans-30" x="127.246094"/>
      </g>
     </g>
    </g>
    <g id="xtick_6">
     <g id="line2d_11">
      <path d="M 362.103574 307.584 
L 362.103574 41.472 
" clip-path="url(#pa5d65d522c)" style="fill: none; stroke-dasharray: 1.85,0.8; stroke-dashoffset: 0; stroke: #b2b2b2; stroke-width: 0.5"/>
     </g>
     <g id="line2d_12">
      <g>
       <use xlink:href="#mdf5bef38aa" x="362.103574" y="307.584" style="stroke: #000000; stroke-width: 0.8"/>
      </g>
     </g>
     <g id="text_6">
      <!-- 250 -->
      <g transform="translate(352.559824 318.682437) scale(0.1 -0.1)">
       <use xlink:href="#DejaVuSans-32"/>
       <use xlink:href="#DejaVuSans-35" x="63.623047"/>
       <use xlink:href="#DejaVuSans-30" x="127.246094"/>
      </g>
     </g>
    </g>
    <g id="text_7">
     <!-- $s$ -->
     <g transform="translate(233.34 333.88025) scale(0.12 -0.12)">
      <defs>
       <path id="Cmmi10-73" d="M 556 391 
Q 728 97 1247 97 
Q 1472 97 1675 173 
Q 1878 250 2011 403 
Q 2144 556 2144 775 
Q 2144 941 2025 1047 
Q 1906 1153 1734 1191 
L 1388 1259 
Q 1150 1319 997 1481 
Q 844 1644 844 1875 
Q 844 2159 998 2378 
Q 1153 2597 1406 2712 
Q 1659 2828 1931 2828 
Q 2222 2828 2451 2689 
Q 2681 2550 2681 2278 
Q 2681 2131 2598 2018 
Q 2516 1906 2369 1906 
Q 2284 1906 2223 1961 
Q 2163 2016 2163 2100 
Q 2163 2175 2205 2245 
Q 2247 2316 2317 2358 
Q 2388 2400 2463 2400 
Q 2406 2538 2251 2600 
Q 2097 2663 1919 2663 
Q 1756 2663 1593 2597 
Q 1431 2531 1332 2404 
Q 1234 2278 1234 2106 
Q 1234 1991 1315 1903 
Q 1397 1816 1516 1778 
L 1888 1703 
Q 2066 1666 2214 1570 
Q 2363 1475 2448 1329 
Q 2534 1184 2534 997 
Q 2534 759 2401 528 
Q 2269 297 2075 159 
Q 1734 -72 1241 -72 
Q 900 -72 615 84 
Q 331 241 331 550 
Q 331 725 432 854 
Q 534 984 709 984 
Q 813 984 883 921 
Q 953 859 953 756 
Q 953 609 843 500 
Q 734 391 588 391 
L 556 391 
z
" transform="scale(0.015625)"/>
      </defs>
      <use xlink:href="#Cmmi10-73" transform="translate(0 0.8125)"/>
     </g>
    </g>
   </g>
   <g id="matplotlib.axis_2">
    <g id="ytick_1">
     <g id="line2d_13">
      <path d="M 57.6 271.296 
L 414.72 271.296 
" clip-path="url(#pa5d65d522c)" style="fill: none; stroke-dasharray: 1.85,0.8; stroke-dashoffset: 0; stroke: #b2b2b2; stroke-width: 0.5"/>
     </g>
     <g id="line2d_14">
      <defs>
       <path id="me1f002587a" d="M 0 0 
L 3.5 0 
" style="stroke: #000000; stroke-width: 0.8"/>
      </defs>
      <g>
       <use xlink:href="#me1f002587a" x="57.6" y="271.296" style="stroke: #000000; stroke-width: 0.8"/>
      </g>
     </g>
     <g id="text_8">
      <!-- 4 -->
      <g transform="translate(39.357813 275.095219) scale(0.1 -0.1)">
       <defs>
        <path id="DejaVuSans-2212" d="M 678 2272 
L 4684 2272 
L 4684 1741 
L 678 1741 
L 678 2272 
z
" transform="scale(0.015625)"/>
        <path id="DejaVuSans-34" d="M 2419 4116 
L 825 1625 
L 2419 1625 
L 2419 4116 
z
M 2253 4666 
L 3047 4666 
L 3047 1625 
L 3713 1625 
L 3713 1100 
L 3047 1100 
L 3047 0 
L 2419 0 
L 2419 1100 
L 313 1100 
L 313 1709 
L 2253 4666 
z
" transform="scale(0.015625)"/>
       </defs>
       <use xlink:href="#DejaVuSans-2212"/>
       <use xlink:href="#DejaVuSans-34" x="83.789062"/>
      </g>
     </g>
    </g>
    <g id="ytick_2">
     <g id="line2d_15">
      <path d="M 57.6 222.912 
L 414.72 222.912 
" clip-path="url(#pa5d65d522c)" style="fill: none; stroke-dasharray: 1.85,0.8; stroke-dashoffset: 0; stroke: #b2b2b2; stroke-width: 0.5"/>
     </g>
     <g id="line2d_16">
      <g>
       <use xlink:href="#me1f002587a" x="57.6" y="222.912" style="stroke: #000000; stroke-width: 0.8"/>
      </g>
     </g>
     <g id="text_9">
      <!-- 2 -->
      <g transform="translate(39.357813 226.711219) scale(0.1 -0.1)">
       <use xlink:href="#DejaVuSans-2212"/>
       <use xlink:href="#DejaVuSans-32" x="83.789062"/>
      </g>
     </g>
    </g>
    <g id="ytick_3">
     <g id="line2d_17">
      <path d="M 57.6 174.528 
L 414.72 174.528 
" clip-path="url(#pa5d65d522c)" style="fill: none; stroke-dasharray: 1.85,0.8; stroke-dashoffset: 0; stroke: #b2b2b2; stroke-width: 0.5"/>
     </g>
     <g id="line2d_18">
      <g>
       <use xlink:href="#me1f002587a" x="57.6" y="174.528" style="stroke: #000000; stroke-width: 0.8"/>
      </g>
     </g>
     <g id="text_10">
      <!-- 0 -->
      <g transform="translate(47.7375 178.327219) scale(0.1 -0.1)">
       <use xlink:href="#DejaVuSans-30"/>
      </g>
     </g>
    </g>
    <g id="ytick_4">
     <g id="line2d_19">
      <path d="M 57.6 126.144 
L 414.72 126.144 
" clip-path="url(#pa5d65d522c)" style="fill: none; stroke-dasharray: 1.85,0.8; stroke-dashoffset: 0; stroke: #b2b2b2; stroke-width: 0.5"/>
     </g>
     <g id="line2d_20">
      <g>
       <use xlink:href="#me1f002587a" x="57.6" y="126.144" style="stroke: #000000; stroke-width: 0.8"/>
      </g>
     </g>
     <g id="text_11">
      <!-- 2 -->
      <g transform="translate(47.7375 129.943219) scale(0.1 -0.1)">
       <use xlink:href="#DejaVuSans-32"/>
      </g>
     </g>
    </g>
    <g id="ytick_5">
     <g id="line2d_21">
      <path d="M 57.6 77.76 
L 414.72 77.76 
" clip-path="url(#pa5d65d522c)" style="fill: none; stroke-dasharray: 1.85,0.8; stroke-dashoffset: 0; stroke: #b2b2b2; stroke-width: 0.5"/>
     </g>
     <g id="line2d_22">
      <g>
       <use xlink:href="#me1f002587a" x="57.6" y="77.76" style="stroke: #000000; stroke-width: 0.8"/>
      </g>
     </g>
     <g id="text_12">
      <!-- 4 -->
      <g transform="translate(47.7375 81.559219) scale(0.1 -0.1)">
       <use xlink:href="#DejaVuSans-34"/>
      </g>
     </g>
    </g>
    <g id="text_13">
     <!-- $x_{s}$ -->
     <g transform="translate(32.862188 180.348) rotate(-90) scale(0.12 -0.12)">
      <defs>
       <path id="Cmmi10-78" d="M 500 184 
Q 613 97 819 97 
Q 1019 97 1172 289 
Q 1325 481 1381 709 
L 1672 1844 
Q 1741 2153 1741 2266 
Q 1741 2425 1652 2544 
Q 1563 2663 1403 2663 
Q 1200 2663 1022 2536 
Q 844 2409 722 2214 
Q 600 2019 550 1819 
Q 538 1778 500 1778 
L 422 1778 
Q 372 1778 372 1838 
L 372 1856 
Q 434 2094 584 2320 
Q 734 2547 951 2687 
Q 1169 2828 1416 2828 
Q 1650 2828 1839 2703 
Q 2028 2578 2106 2363 
Q 2216 2559 2386 2693 
Q 2556 2828 2759 2828 
Q 2897 2828 3040 2779 
Q 3184 2731 3275 2631 
Q 3366 2531 3366 2381 
Q 3366 2219 3261 2101 
Q 3156 1984 2994 1984 
Q 2891 1984 2822 2050 
Q 2753 2116 2753 2216 
Q 2753 2350 2845 2451 
Q 2938 2553 3066 2572 
Q 2950 2663 2747 2663 
Q 2541 2663 2389 2472 
Q 2238 2281 2175 2047 
L 1894 916 
Q 1825 659 1825 494 
Q 1825 331 1917 214 
Q 2009 97 2163 97 
Q 2463 97 2698 361 
Q 2934 625 3009 941 
Q 3022 978 3059 978 
L 3138 978 
Q 3163 978 3178 961 
Q 3194 944 3194 922 
Q 3194 916 3188 903 
Q 3097 522 2806 225 
Q 2516 -72 2150 -72 
Q 1916 -72 1727 54 
Q 1538 181 1459 397 
Q 1359 209 1182 68 
Q 1006 -72 806 -72 
Q 669 -72 523 -23 
Q 378 25 287 125 
Q 197 225 197 378 
Q 197 528 301 651 
Q 406 775 563 775 
Q 669 775 741 711 
Q 813 647 813 544 
Q 813 409 723 309 
Q 634 209 500 184 
z
" transform="scale(0.015625)"/>
      </defs>
      <use xlink:href="#Cmmi10-78" transform="translate(0 0.8125)"/>
      <use xlink:href="#Cmmi10-73" transform="translate(57.080078 -16.19375) scale(0.7)"/>
     </g>
    </g>
   </g>
   <g id="LineCollection_1">
    <path d="M 241.197743 295.488 
L 241.197743 53.568 
" clip-path="url(#pa5d65d522c)" style="fill: none; stroke-dasharray: 7.4,3.2; stroke-dashoffset: 0; stroke: #ff0000; stroke-width: 2"/>
   </g>
   <g id="LineCollection_2">
    <path d="M 78.030846 81.855317 
L 86.427085 81.855317 
" clip-path="url(#pa5d65d522c)" style="fill: none; stroke: #348abd; stroke-width: 2"/>
    <path d="M 106.018307 105.782258 
L 114.414545 105.782258 
" clip-path="url(#pa5d65d522c)" style="fill: none; stroke: #348abd; stroke-width: 2"/>
    <path d="M 134.005768 122.185392 
L 142.402006 122.185392 
" clip-path="url(#pa5d65d522c)" style="fill: none; stroke: #348abd; stroke-width: 2"/>
    <path d="M 161.993229 133.991405 
L 170.389467 133.991405 
" clip-path="url(#pa5d65d522c)" style="fill: none; stroke: #348abd; stroke-width: 2"/>
    <path d="M 189.98069 141.939013 
L 198.376928 141.939013 
" clip-path="url(#pa5d65d522c)" style="fill: none; stroke: #348abd; stroke-width: 2"/>
    <path d="M 217.96815 147.160327 
L 226.364389 147.160327 
" clip-path="url(#pa5d65d522c)" style="fill: none; stroke: #348abd; stroke-width: 2"/>
    <path d="M 245.955611 150.575977 
L 254.35185 150.575977 
" clip-path="url(#pa5d65d522c)" style="fill: none; stroke: #348abd; stroke-width: 2"/>
    <path d="M 273.943072 152.775526 
L 282.33931 152.775526 
" clip-path="url(#pa5d65d522c)" style="fill: none; stroke: #348abd; stroke-width: 2"/>
    <path d="M 301.930533 154.149712 
L 310.326771 154.149712 
" clip-path="url(#pa5d65d522c)" style="fill: none; stroke: #348abd; stroke-width: 2"/>
    <path d="M 329.917994 154.991405 
L 338.314232 154.991405 
" clip-path="url(#pa5d65d522c)" style="fill: none; stroke: #348abd; stroke-width: 2"/>
    <path d="M 357.905455 155.604373 
L 366.301693 155.604373 
" clip-path="url(#pa5d65d522c)" style="fill: none; stroke: #348abd; stroke-width: 2"/>
    <path d="M 385.892915 156.086101 
L 394.289154 156.086101 
" clip-path="url(#pa5d65d522c)" style="fill: none; stroke: #348abd; stroke-width: 2"/>
   </g>
   <g id="LineCollection_3">
    <path d="M 78.030846 253.369329 
L 86.427085 253.369329 
" clip-path="url(#pa5d65d522c)" style="fill: none; stroke: #348abd; stroke-width: 2"/>
    <path d="M 106.018307 233.994333 
L 114.414545 233.994333 
" clip-path="url(#pa5d65d522c)" style="fill: none; stroke: #348abd; stroke-width: 2"/>
    <path d="M 134.005768 220.620567 
L 142.402006 220.620567 
" clip-path="url(#pa5d65d522c)" style="fill: none; stroke: #348abd; stroke-width: 2"/>
    <path d="M 161.993229 210.555047 
L 170.389467 210.555047 
" clip-path="url(#pa5d65d522c)" style="fill: none; stroke: #348abd; stroke-width: 2"/>
    <path d="M 189.98069 203.06616 
L 198.376928 203.06616 
" clip-path="url(#pa5d65d522c)" style="fill: none; stroke: #348abd; stroke-width: 2"/>
    <path d="M 217.96815 197.474905 
L 226.364389 197.474905 
" clip-path="url(#pa5d65d522c)" style="fill: none; stroke: #348abd; stroke-width: 2"/>
    <path d="M 245.955611 193.225691 
L 254.35185 193.225691 
" clip-path="url(#pa5d65d522c)" style="fill: none; stroke: #348abd; stroke-width: 2"/>
    <path d="M 273.943072 189.948165 
L 282.33931 189.948165 
" clip-path="url(#pa5d65d522c)" style="fill: none; stroke: #348abd; stroke-width: 2"/>
    <path d="M 301.930533 187.390862 
L 310.326771 187.390862 
" clip-path="url(#pa5d65d522c)" style="fill: none; stroke: #348abd; stroke-width: 2"/>
    <path d="M 329.917994 185.380211 
L 338.314232 185.380211 
" clip-path="url(#pa5d65d522c)" style="fill: none; stroke: #348abd; stroke-width: 2"/>
    <path d="M 357.905455 183.794224 
L 366.301693 183.794224 
" clip-path="url(#pa5d65d522c)" style="fill: none; stroke: #348abd; stroke-width: 2"/>
    <path d="M 385.892915 182.545098 
L 394.289154 182.545098 
" clip-path="url(#pa5d65d522c)" style="fill: none; stroke: #348abd; stroke-width: 2"/>
   </g>
   <g id="LineCollection_4">
    <path d="M 82.228966 253.369329 
L 82.228966 81.855317 
" clip-path="url(#pa5d65d522c)" style="fill: none; stroke: #348abd; stroke-width: 2"/>
    <path d="M 110.216426 233.994333 
L 110.216426 105.782258 
" clip-path="url(#pa5d65d522c)" style="fill: none; stroke: #348abd; stroke-width: 2"/>
    <path d="M 138.203887 220.620567 
L 138.203887 122.185392 
" clip-path="url(#pa5d65d522c)" style="fill: none; stroke: #348abd; stroke-width: 2"/>
    <path d="M 166.191348 210.555047 
L 166.191348 133.991405 
" clip-path="url(#pa5d65d522c)" style="fill: none; stroke: #348abd; stroke-width: 2"/>
    <path d="M 194.178809 203.06616 
L 194.178809 141.939013 
" clip-path="url(#pa5d65d522c)" style="fill: none; stroke: #348abd; stroke-width: 2"/>
    <path d="M 222.16627 197.474905 
L 222.16627 147.160327 
" clip-path="url(#pa5d65d522c)" style="fill: none; stroke: #348abd; stroke-width: 2"/>
    <path d="M 250.15373 193.225691 
L 250.15373 150.575977 
" clip-path="url(#pa5d65d522c)" style="fill: none; stroke: #348abd; stroke-width: 2"/>
    <path d="M 278.141191 189.948165 
L 278.141191 152.775526 
" clip-path="url(#pa5d65d522c)" style="fill: none; stroke: #348abd; stroke-width: 2"/>
    <path d="M 306.128652 187.390862 
L 306.128652 154.149712 
" clip-path="url(#pa5d65d522c)" style="fill: none; stroke: #348abd; stroke-width: 2"/>
    <path d="M 334.116113 185.380211 
L 334.116113 154.991405 
" clip-path="url(#pa5d65d522c)" style="fill: none; stroke: #348abd; stroke-width: 2"/>
    <path d="M 362.103574 183.794224 
L 362.103574 155.604373 
" clip-path="url(#pa5d65d522c)" style="fill: none; stroke: #348abd; stroke-width: 2"/>
    <path d="M 390.091034 182.545098 
L 390.091034 156.086101 
" clip-path="url(#pa5d65d522c)" style="fill: none; stroke: #348abd; stroke-width: 2"/>
   </g>
   <g id="patch_3">
    <path d="M 57.6 307.584 
L 57.6 41.472 
" style="fill: none; stroke: #bcbcbc; stroke-width: 0.8; stroke-linejoin: miter; stroke-linecap: square"/>
   </g>
   <g id="patch_4">
    <path d="M 414.72 307.584 
L 414.72 41.472 
" style="fill: none; stroke: #bcbcbc; stroke-width: 0.8; stroke-linejoin: miter; stroke-linecap: square"/>
   </g>
   <g id="patch_5">
    <path d="M 57.6 307.584 
L 414.72 307.584 
" style="fill: none; stroke: #bcbcbc; stroke-width: 0.8; stroke-linejoin: miter; stroke-linecap: square"/>
   </g>
   <g id="patch_6">
    <path d="M 57.6 41.472 
L 414.72 41.472 
" style="fill: none; stroke: #bcbcbc; stroke-width: 0.8; stroke-linejoin: miter; stroke-linecap: square"/>
   </g>
   <g id="text_14">
    <!-- Violin plot of critical time n = 1000 -->
    <g transform="translate(110.370375 35.472) scale(0.144 -0.144)">
     <defs>
      <path id="DejaVuSans-56" d="M 1831 0 
L 50 4666 
L 709 4666 
L 2188 738 
L 3669 4666 
L 4325 4666 
L 2547 0 
L 1831 0 
z
" transform="scale(0.015625)"/>
      <path id="DejaVuSans-69" d="M 603 3500 
L 1178 3500 
L 1178 0 
L 603 0 
L 603 3500 
z
M 603 4863 
L 1178 4863 
L 1178 4134 
L 603 4134 
L 603 4863 
z
" transform="scale(0.015625)"/>
      <path id="DejaVuSans-6f" d="M 1959 3097 
Q 1497 3097 1228 2736 
Q 959 2375 959 1747 
Q 959 1119 1226 758 
Q 1494 397 1959 397 
Q 2419 397 2687 759 
Q 2956 1122 2956 1747 
Q 2956 2369 2687 2733 
Q 2419 3097 1959 3097 
z
M 1959 3584 
Q 2709 3584 3137 3096 
Q 3566 2609 3566 1747 
Q 3566 888 3137 398 
Q 2709 -91 1959 -91 
Q 1206 -91 779 398 
Q 353 888 353 1747 
Q 353 2609 779 3096 
Q 1206 3584 1959 3584 
z
" transform="scale(0.015625)"/>
      <path id="DejaVuSans-6c" d="M 603 4863 
L 1178 4863 
L 1178 0 
L 603 0 
L 603 4863 
z
" transform="scale(0.015625)"/>
      <path id="DejaVuSans-6e" d="M 3513 2113 
L 3513 0 
L 2938 0 
L 2938 2094 
Q 2938 2591 2744 2837 
Q 2550 3084 2163 3084 
Q 1697 3084 1428 2787 
Q 1159 2491 1159 1978 
L 1159 0 
L 581 0 
L 581 3500 
L 1159 3500 
L 1159 2956 
Q 1366 3272 1645 3428 
Q 1925 3584 2291 3584 
Q 2894 3584 3203 3211 
Q 3513 2838 3513 2113 
z
" transform="scale(0.015625)"/>
      <path id="DejaVuSans-20" transform="scale(0.015625)"/>
      <path id="DejaVuSans-70" d="M 1159 525 
L 1159 -1331 
L 581 -1331 
L 581 3500 
L 1159 3500 
L 1159 2969 
Q 1341 3281 1617 3432 
Q 1894 3584 2278 3584 
Q 2916 3584 3314 3078 
Q 3713 2572 3713 1747 
Q 3713 922 3314 415 
Q 2916 -91 2278 -91 
Q 1894 -91 1617 61 
Q 1341 213 1159 525 
z
M 3116 1747 
Q 3116 2381 2855 2742 
Q 2594 3103 2138 3103 
Q 1681 3103 1420 2742 
Q 1159 2381 1159 1747 
Q 1159 1113 1420 752 
Q 1681 391 2138 391 
Q 2594 391 2855 752 
Q 3116 1113 3116 1747 
z
" transform="scale(0.015625)"/>
      <path id="DejaVuSans-74" d="M 1172 4494 
L 1172 3500 
L 2356 3500 
L 2356 3053 
L 1172 3053 
L 1172 1153 
Q 1172 725 1289 603 
Q 1406 481 1766 481 
L 2356 481 
L 2356 0 
L 1766 0 
Q 1100 0 847 248 
Q 594 497 594 1153 
L 594 3053 
L 172 3053 
L 172 3500 
L 594 3500 
L 594 4494 
L 1172 4494 
z
" transform="scale(0.015625)"/>
      <path id="DejaVuSans-66" d="M 2375 4863 
L 2375 4384 
L 1825 4384 
Q 1516 4384 1395 4259 
Q 1275 4134 1275 3809 
L 1275 3500 
L 2222 3500 
L 2222 3053 
L 1275 3053 
L 1275 0 
L 697 0 
L 697 3053 
L 147 3053 
L 147 3500 
L 697 3500 
L 697 3744 
Q 697 4328 969 4595 
Q 1241 4863 1831 4863 
L 2375 4863 
z
" transform="scale(0.015625)"/>
      <path id="DejaVuSans-63" d="M 3122 3366 
L 3122 2828 
Q 2878 2963 2633 3030 
Q 2388 3097 2138 3097 
Q 1578 3097 1268 2742 
Q 959 2388 959 1747 
Q 959 1106 1268 751 
Q 1578 397 2138 397 
Q 2388 397 2633 464 
Q 2878 531 3122 666 
L 3122 134 
Q 2881 22 2623 -34 
Q 2366 -91 2075 -91 
Q 1284 -91 818 406 
Q 353 903 353 1747 
Q 353 2603 823 3093 
Q 1294 3584 2113 3584 
Q 2378 3584 2631 3529 
Q 2884 3475 3122 3366 
z
" transform="scale(0.015625)"/>
      <path id="DejaVuSans-72" d="M 2631 2963 
Q 2534 3019 2420 3045 
Q 2306 3072 2169 3072 
Q 1681 3072 1420 2755 
Q 1159 2438 1159 1844 
L 1159 0 
L 581 0 
L 581 3500 
L 1159 3500 
L 1159 2956 
Q 1341 3275 1631 3429 
Q 1922 3584 2338 3584 
Q 2397 3584 2469 3576 
Q 2541 3569 2628 3553 
L 2631 2963 
z
" transform="scale(0.015625)"/>
      <path id="DejaVuSans-61" d="M 2194 1759 
Q 1497 1759 1228 1600 
Q 959 1441 959 1056 
Q 959 750 1161 570 
Q 1363 391 1709 391 
Q 2188 391 2477 730 
Q 2766 1069 2766 1631 
L 2766 1759 
L 2194 1759 
z
M 3341 1997 
L 3341 0 
L 2766 0 
L 2766 531 
Q 2569 213 2275 61 
Q 1981 -91 1556 -91 
Q 1019 -91 701 211 
Q 384 513 384 1019 
Q 384 1609 779 1909 
Q 1175 2209 1959 2209 
L 2766 2209 
L 2766 2266 
Q 2766 2663 2505 2880 
Q 2244 3097 1772 3097 
Q 1472 3097 1187 3025 
Q 903 2953 641 2809 
L 641 3341 
Q 956 3463 1253 3523 
Q 1550 3584 1831 3584 
Q 2591 3584 2966 3190 
Q 3341 2797 3341 1997 
z
" transform="scale(0.015625)"/>
      <path id="DejaVuSans-6d" d="M 3328 2828 
Q 3544 3216 3844 3400 
Q 4144 3584 4550 3584 
Q 5097 3584 5394 3201 
Q 5691 2819 5691 2113 
L 5691 0 
L 5113 0 
L 5113 2094 
Q 5113 2597 4934 2840 
Q 4756 3084 4391 3084 
Q 3944 3084 3684 2787 
Q 3425 2491 3425 1978 
L 3425 0 
L 2847 0 
L 2847 2094 
Q 2847 2600 2669 2842 
Q 2491 3084 2119 3084 
Q 1678 3084 1418 2786 
Q 1159 2488 1159 1978 
L 1159 0 
L 581 0 
L 581 3500 
L 1159 3500 
L 1159 2956 
Q 1356 3278 1631 3431 
Q 1906 3584 2284 3584 
Q 2666 3584 2933 3390 
Q 3200 3197 3328 2828 
z
" transform="scale(0.015625)"/>
      <path id="DejaVuSans-65" d="M 3597 1894 
L 3597 1613 
L 953 1613 
Q 991 1019 1311 708 
Q 1631 397 2203 397 
Q 2534 397 2845 478 
Q 3156 559 3463 722 
L 3463 178 
Q 3153 47 2828 -22 
Q 2503 -91 2169 -91 
Q 1331 -91 842 396 
Q 353 884 353 1716 
Q 353 2575 817 3079 
Q 1281 3584 2069 3584 
Q 2775 3584 3186 3129 
Q 3597 2675 3597 1894 
z
M 3022 2063 
Q 3016 2534 2758 2815 
Q 2500 3097 2075 3097 
Q 1594 3097 1305 2825 
Q 1016 2553 972 2059 
L 3022 2063 
z
" transform="scale(0.015625)"/>
      <path id="DejaVuSans-3d" d="M 678 2906 
L 4684 2906 
L 4684 2381 
L 678 2381 
L 678 2906 
z
M 678 1631 
L 4684 1631 
L 4684 1100 
L 678 1100 
L 678 1631 
z
" transform="scale(0.015625)"/>
     </defs>
     <use xlink:href="#DejaVuSans-56"/>
     <use xlink:href="#DejaVuSans-69" x="66.158203"/>
     <use xlink:href="#DejaVuSans-6f" x="93.941406"/>
     <use xlink:href="#DejaVuSans-6c" x="155.123047"/>
     <use xlink:href="#DejaVuSans-69" x="182.90625"/>
     <use xlink:href="#DejaVuSans-6e" x="210.689453"/>
     <use xlink:href="#DejaVuSans-20" x="274.068359"/>
     <use xlink:href="#DejaVuSans-70" x="305.855469"/>
     <use xlink:href="#DejaVuSans-6c" x="369.332031"/>
     <use xlink:href="#DejaVuSans-6f" x="397.115234"/>
     <use xlink:href="#DejaVuSans-74" x="458.296875"/>
     <use xlink:href="#DejaVuSans-20" x="497.505859"/>
     <use xlink:href="#DejaVuSans-6f" x="529.292969"/>
     <use xlink:href="#DejaVuSans-66" x="590.474609"/>
     <use xlink:href="#DejaVuSans-20" x="625.679688"/>
     <use xlink:href="#DejaVuSans-63" x="657.466797"/>
     <use xlink:href="#DejaVuSans-72" x="712.447266"/>
     <use xlink:href="#DejaVuSans-69" x="753.560547"/>
     <use xlink:href="#DejaVuSans-74" x="781.34375"/>
     <use xlink:href="#DejaVuSans-69" x="820.552734"/>
     <use xlink:href="#DejaVuSans-63" x="848.335938"/>
     <use xlink:href="#DejaVuSans-61" x="903.316406"/>
     <use xlink:href="#DejaVuSans-6c" x="964.595703"/>
     <use xlink:href="#DejaVuSans-20" x="992.378906"/>
     <use xlink:href="#DejaVuSans-74" x="1024.166016"/>
     <use xlink:href="#DejaVuSans-69" x="1063.375"/>
     <use xlink:href="#DejaVuSans-6d" x="1091.158203"/>
     <use xlink:href="#DejaVuSans-65" x="1188.570312"/>
     <use xlink:href="#DejaVuSans-20" x="1250.09375"/>
     <use xlink:href="#DejaVuSans-6e" x="1281.880859"/>
     <use xlink:href="#DejaVuSans-20" x="1345.259766"/>
     <use xlink:href="#DejaVuSans-3d" x="1377.046875"/>
     <use xlink:href="#DejaVuSans-20" x="1460.835938"/>
     <use xlink:href="#DejaVuSans-31" x="1492.623047"/>
     <use xlink:href="#DejaVuSans-30" x="1556.246094"/>
     <use xlink:href="#DejaVuSans-30" x="1619.869141"/>
     <use xlink:href="#DejaVuSans-30" x="1683.492188"/>
    </g>
   </g>
   <g id="legend_1">
    <g id="patch_7">
     <path d="M 296.806875 68.68575 
L 406.32 68.68575 
Q 408.72 68.68575 408.72 66.28575 
L 408.72 49.872 
Q 408.72 47.472 406.32 47.472 
L 296.806875 47.472 
Q 294.406875 47.472 294.406875 49.872 
L 294.406875 66.28575 
Q 294.406875 68.68575 296.806875 68.68575 
z
" style="fill: #eeeeee; opacity: 0.8; stroke: #cccccc; stroke-width: 0.5; stroke-linejoin: miter"/>
    </g>
    <g id="line2d_23">
     <path d="M 299.206875 57.190125 
L 323.206875 57.190125 
" style="fill: none; stroke-dasharray: 7.4,3.2; stroke-dashoffset: 0; stroke: #ff0000; stroke-width: 2"/>
    </g>
    <g id="text_15">
     <!-- critical time -->
     <g transform="translate(332.806875 61.390125) scale(0.12 -0.12)">
      <use xlink:href="#DejaVuSans-63"/>
      <use xlink:href="#DejaVuSans-72" x="54.980469"/>
      <use xlink:href="#DejaVuSans-69" x="96.09375"/>
      <use xlink:href="#DejaVuSans-74" x="123.876953"/>
      <use xlink:href="#DejaVuSans-69" x="163.085938"/>
      <use xlink:href="#DejaVuSans-63" x="190.869141"/>
      <use xlink:href="#DejaVuSans-61" x="245.849609"/>
      <use xlink:href="#DejaVuSans-6c" x="307.128906"/>
      <use xlink:href="#DejaVuSans-20" x="334.912109"/>
      <use xlink:href="#DejaVuSans-74" x="366.699219"/>
      <use xlink:href="#DejaVuSans-69" x="405.908203"/>
      <use xlink:href="#DejaVuSans-6d" x="433.691406"/>
      <use xlink:href="#DejaVuSans-65" x="531.103516"/>
     </g>
    </g>
   </g>
  </g>
 </g>
 <defs>
  <clipPath id="pa5d65d522c">
   <rect x="57.6" y="41.472" width="357.12" height="266.112"/>
  </clipPath>
 </defs>
</svg>
