<?xml version="1.0" encoding="utf-8" standalone="no"?>
<!DOCTYPE svg PUBLIC "-//W3C//DTD SVG 1.1//EN"
  "http://www.w3.org/Graphics/SVG/1.1/DTD/svg11.dtd">
<svg xmlns:xlink="http://www.w3.org/1999/xlink" width="460.8pt" height="345.6pt" viewBox="0 0 460.8 345.6" xmlns="http://www.w3.org/2000/svg" version="1.1">
 <metadata>
  <rdf:RDF xmlns:dc="http://purl.org/dc/elements/1.1/" xmlns:cc="http://creativecommons.org/ns#" xmlns:rdf="http://www.w3.org/1999/02/22-rdf-syntax-ns#">
   <cc:Work>
    <dc:type rdf:resource="http://purl.org/dc/dcmitype/StillImage"/>
    <dc:date>2025-08-21T17:03:26.560450</dc:date>
    <dc:format>image/svg+xml</dc:format>
    <dc:creator>
     <cc:Agent>
      <dc:title>Matplotlib v3.9.2, https://matplotlib.org/</dc:title>
     </cc:Agent>
    </dc:creator>
   </cc:Work>
  </rdf:RDF>
 </metadata>
 <defs>
  <style type="text/css">*{stroke-linejoin: round; stroke-linecap: butt}</style>
 </defs>
 <g id="figure_1">
  <g id="patch_1">
   <path d="M 0 345.6 
L 460.8 345.6 
L 460.8 0 
L 0 0 
z
" style="fill: #ffffff"/>
  </g>
  <g id="axes_1">
   <g id="patch_2">
    <path d="M 57.6 307.584 
L 414.72 307.584 
L 414.72 41.472 
L 57.6 41.472 
z
" style="fill: #eeeeee"/>
   </g>
   <g id="PolyCollection_1">
    <path d="M 82.417683 246.23261 
L 82.040248 246.23261 
L 82.002528 244.709989 
L 81.961673 243.187367 
L 81.918101 241.664745 
L 81.872278 240.142123 
L 81.82454 238.619502 
L 81.774811 237.09688 
L 81.722286 235.574258 
L 81.665211 234.051636 
L 81.60091 232.529015 
L 81.526138 231.006393 
L 81.437729 229.483771 
L 81.333383 227.961149 
L 81.212345 226.438528 
L 81.07573 224.915906 
L 80.926337 223.393284 
L 80.767954 221.870662 
L 80.604324 220.348041 
L 80.438061 218.825419 
L 80.269833 217.302797 
L 80.098042 215.780175 
L 79.919088 214.257554 
L 79.728122 212.734932 
L 79.520068 211.21231 
L 79.290623 209.689688 
L 79.037017 208.167067 
L 78.758378 206.644445 
L 78.455702 205.121823 
L 78.131521 203.599201 
L 77.789407 202.07658 
L 77.433483 200.553958 
L 77.068081 199.031336 
L 76.697635 197.508714 
L 76.326829 195.986093 
L 75.96094 194.463471 
L 75.606158 192.940849 
L 75.269673 191.418227 
L 74.959281 189.895606 
L 74.682475 188.372984 
L 74.445191 186.850362 
L 74.250632 185.32774 
L 74.098633 183.805119 
L 73.985938 182.282497 
L 73.907395 180.759875 
L 73.857709 179.237253 
L 73.83317 177.714632 
L 73.832727 176.19201 
L 73.858105 174.669388 
L 73.91294 173.146766 
L 74.001316 171.624145 
L 74.126136 170.101523 
L 74.287765 168.578901 
L 74.483201 167.056279 
L 74.705883 165.533658 
L 74.946198 164.011036 
L 75.192681 162.488414 
L 75.433846 160.965792 
L 75.660385 159.443171 
L 75.867304 157.920549 
L 76.055356 156.397927 
L 76.23127 154.875305 
L 76.4065 153.352684 
L 76.594709 151.830062 
L 76.808613 150.30744 
L 77.057014 148.784818 
L 77.34282 147.262197 
L 77.662464 145.739575 
L 78.006751 144.216953 
L 78.362759 142.694331 
L 78.716224 141.17171 
L 79.053859 139.649088 
L 79.365183 138.126466 
L 79.643643 136.603844 
L 79.886969 135.081223 
L 80.096826 133.558601 
L 80.277907 132.035979 
L 80.436676 130.513357 
L 80.580004 128.990736 
L 80.713974 127.468114 
L 80.843055 125.945492 
L 80.969769 124.42287 
L 81.09484 122.900249 
L 81.217663 121.377627 
L 81.33692 119.855005 
L 81.451115 118.332383 
L 81.55892 116.809762 
L 81.6593 115.28714 
L 81.75146 113.764518 
L 81.834736 112.241896 
L 81.908507 110.719275 
L 81.972204 109.196653 
L 82.025415 107.674031 
L 82.068047 106.151409 
L 82.10048 104.628788 
L 82.123663 103.106166 
L 82.139083 101.583544 
L 82.148634 100.060922 
L 82.15438 98.538301 
L 82.158282 97.015679 
L 82.161945 95.493057 
L 82.295986 95.493057 
L 82.295986 95.493057 
L 82.299649 97.015679 
L 82.303551 98.538301 
L 82.309297 100.060922 
L 82.318848 101.583544 
L 82.334269 103.106166 
L 82.357451 104.628788 
L 82.389884 106.151409 
L 82.432516 107.674031 
L 82.485727 109.196653 
L 82.549424 110.719275 
L 82.623195 112.241896 
L 82.706471 113.764518 
L 82.798631 115.28714 
L 82.899011 116.809762 
L 83.006816 118.332383 
L 83.121011 119.855005 
L 83.240268 121.377627 
L 83.363091 122.900249 
L 83.488162 124.42287 
L 83.614876 125.945492 
L 83.743957 127.468114 
L 83.877927 128.990736 
L 84.021255 130.513357 
L 84.180024 132.035979 
L 84.361105 133.558601 
L 84.570962 135.081223 
L 84.814288 136.603844 
L 85.092748 138.126466 
L 85.404072 139.649088 
L 85.741707 141.17171 
L 86.095172 142.694331 
L 86.45118 144.216953 
L 86.795467 145.739575 
L 87.115111 147.262197 
L 87.400917 148.784818 
L 87.649318 150.30744 
L 87.863222 151.830062 
L 88.051431 153.352684 
L 88.226661 154.875305 
L 88.402575 156.397927 
L 88.590627 157.920549 
L 88.797546 159.443171 
L 89.024085 160.965792 
L 89.26525 162.488414 
L 89.511733 164.011036 
L 89.752048 165.533658 
L 89.97473 167.056279 
L 90.170166 168.578901 
L 90.331795 170.101523 
L 90.456615 171.624145 
L 90.544991 173.146766 
L 90.599826 174.669388 
L 90.625204 176.19201 
L 90.624761 177.714632 
L 90.600222 179.237253 
L 90.550536 180.759875 
L 90.471993 182.282497 
L 90.359298 183.805119 
L 90.207299 185.32774 
L 90.01274 186.850362 
L 89.775456 188.372984 
L 89.49865 189.895606 
L 89.188258 191.418227 
L 88.851773 192.940849 
L 88.496991 194.463471 
L 88.131102 195.986093 
L 87.760296 197.508714 
L 87.38985 199.031336 
L 87.024448 200.553958 
L 86.668524 202.07658 
L 86.32641 203.599201 
L 86.002229 205.121823 
L 85.699553 206.644445 
L 85.420914 208.167067 
L 85.167308 209.689688 
L 84.937863 211.21231 
L 84.729809 212.734932 
L 84.538843 214.257554 
L 84.359889 215.780175 
L 84.188098 217.302797 
L 84.01987 218.825419 
L 83.853607 220.348041 
L 83.689977 221.870662 
L 83.531594 223.393284 
L 83.382201 224.915906 
L 83.245586 226.438528 
L 83.124548 227.961149 
L 83.020202 229.483771 
L 82.931793 231.006393 
L 82.857021 232.529015 
L 82.79272 234.051636 
L 82.735645 235.574258 
L 82.68312 237.09688 
L 82.633391 238.619502 
L 82.585653 240.142123 
L 82.53983 241.664745 
L 82.496258 243.187367 
L 82.455403 244.709989 
L 82.417683 246.23261 
z
" clip-path="url(#p8bbb4c43f7)" style="fill: #348abd; fill-opacity: 0.3"/>
   </g>
   <g id="PolyCollection_2">
    <path d="M 110.442971 228.738035 
L 109.989882 228.738035 
L 109.946538 227.633165 
L 109.899524 226.528294 
L 109.849125 225.423424 
L 109.795556 224.318554 
L 109.738799 223.213684 
L 109.678405 222.108813 
L 109.613296 221.003943 
L 109.541682 219.899073 
L 109.461146 218.794203 
L 109.368944 217.689333 
L 109.262489 216.584462 
L 109.139909 215.479592 
L 109.000514 214.374722 
L 108.84502 213.269852 
L 108.675427 212.164982 
L 108.494534 211.060111 
L 108.305218 209.955241 
L 108.109655 208.850371 
L 107.908709 207.745501 
L 107.701669 206.640631 
L 107.486423 205.53576 
L 107.260039 204.43089 
L 107.019605 203.32602 
L 106.763126 202.22115 
L 106.490252 201.11628 
L 106.202657 200.011409 
L 105.90399 198.906539 
L 105.599373 197.801669 
L 105.294568 196.696799 
L 104.994981 195.591929 
L 104.704723 194.487058 
L 104.425977 193.382188 
L 104.158858 192.277318 
L 103.901838 191.172448 
L 103.65269 190.067578 
L 103.409686 188.962707 
L 103.172712 187.857837 
L 102.943926 186.752967 
L 102.727671 185.648097 
L 102.529624 184.543226 
L 102.355393 183.438356 
L 102.209004 182.333486 
L 102.091797 181.228616 
L 102.002106 180.123746 
L 101.935882 179.018875 
L 101.888037 177.914005 
L 101.854065 176.809135 
L 101.83142 175.704265 
L 101.820188 174.599395 
L 101.822926 173.494524 
L 101.843754 172.389654 
L 101.887064 171.284784 
L 101.956205 170.179914 
L 102.052442 169.075044 
L 102.174289 167.970173 
L 102.317202 166.865303 
L 102.473547 165.760433 
L 102.632877 164.655563 
L 102.782658 163.550693 
L 102.909626 162.445822 
L 103.001894 161.340952 
L 103.051644 160.236082 
L 103.057903 159.131212 
L 103.02865 158.026342 
L 102.981414 156.921471 
L 102.941807 155.816601 
L 102.93994 154.711731 
L 103.005306 153.606861 
L 103.161251 152.50199 
L 103.420381 151.39712 
L 103.782058 150.29225 
L 104.232612 149.18738 
L 104.748121 148.08251 
L 105.298995 146.977639 
L 105.855124 145.872769 
L 106.390405 144.767899 
L 106.885738 143.663029 
L 107.330131 142.558159 
L 107.720104 141.453288 
L 108.057928 140.348418 
L 108.349398 139.243548 
L 108.601742 138.138678 
L 108.822041 137.033808 
L 109.0163 135.928937 
L 109.18908 134.824067 
L 109.343524 133.719197 
L 109.4816 132.614327 
L 109.604402 131.509457 
L 109.712463 130.404586 
L 109.806031 129.299716 
L 109.885321 128.194846 
L 109.950733 127.089976 
L 110.003017 125.985106 
L 110.043369 124.880235 
L 110.073426 123.775365 
L 110.095174 122.670495 
L 110.110764 121.565625 
L 110.122288 120.460754 
L 110.131564 119.355884 
L 110.301289 119.355884 
L 110.301289 119.355884 
L 110.310564 120.460754 
L 110.322089 121.565625 
L 110.337678 122.670495 
L 110.359427 123.775365 
L 110.389484 124.880235 
L 110.429835 125.985106 
L 110.482119 127.089976 
L 110.547532 128.194846 
L 110.626822 129.299716 
L 110.72039 130.404586 
L 110.828451 131.509457 
L 110.951253 132.614327 
L 111.089328 133.719197 
L 111.243773 134.824067 
L 111.416552 135.928937 
L 111.610812 137.033808 
L 111.831111 138.138678 
L 112.083454 139.243548 
L 112.374925 140.348418 
L 112.712749 141.453288 
L 113.102722 142.558159 
L 113.547115 143.663029 
L 114.042447 144.767899 
L 114.577729 145.872769 
L 115.133858 146.977639 
L 115.684732 148.08251 
L 116.200241 149.18738 
L 116.650794 150.29225 
L 117.012472 151.39712 
L 117.271602 152.50199 
L 117.427547 153.606861 
L 117.492913 154.711731 
L 117.491046 155.816601 
L 117.451439 156.921471 
L 117.404202 158.026342 
L 117.374949 159.131212 
L 117.381209 160.236082 
L 117.430959 161.340952 
L 117.523227 162.445822 
L 117.650195 163.550693 
L 117.799976 164.655563 
L 117.959306 165.760433 
L 118.11565 166.865303 
L 118.258564 167.970173 
L 118.380411 169.075044 
L 118.476647 170.179914 
L 118.545789 171.284784 
L 118.589099 172.389654 
L 118.609927 173.494524 
L 118.612665 174.599395 
L 118.601433 175.704265 
L 118.578787 176.809135 
L 118.544816 177.914005 
L 118.49697 179.018875 
L 118.430747 180.123746 
L 118.341056 181.228616 
L 118.223848 182.333486 
L 118.07746 183.438356 
L 117.903228 184.543226 
L 117.705181 185.648097 
L 117.488926 186.752967 
L 117.26014 187.857837 
L 117.023167 188.962707 
L 116.780162 190.067578 
L 116.531014 191.172448 
L 116.273995 192.277318 
L 116.006875 193.382188 
L 115.72813 194.487058 
L 115.437871 195.591929 
L 115.138284 196.696799 
L 114.83348 197.801669 
L 114.528863 198.906539 
L 114.230195 200.011409 
L 113.942601 201.11628 
L 113.669726 202.22115 
L 113.413248 203.32602 
L 113.172814 204.43089 
L 112.94643 205.53576 
L 112.731184 206.640631 
L 112.524143 207.745501 
L 112.323198 208.850371 
L 112.127635 209.955241 
L 111.938319 211.060111 
L 111.757426 212.164982 
L 111.587832 213.269852 
L 111.432339 214.374722 
L 111.292944 215.479592 
L 111.170364 216.584462 
L 111.063909 217.689333 
L 110.971706 218.794203 
L 110.89117 219.899073 
L 110.819557 221.003943 
L 110.754448 222.108813 
L 110.694053 223.213684 
L 110.637297 224.318554 
L 110.583728 225.423424 
L 110.533329 226.528294 
L 110.486315 227.633165 
L 110.442971 228.738035 
z
" clip-path="url(#p8bbb4c43f7)" style="fill: #348abd; fill-opacity: 0.3"/>
   </g>
   <g id="PolyCollection_3">
    <path d="M 138.486847 217.226104 
L 137.920927 217.226104 
L 137.869957 216.38791 
L 137.814455 215.549717 
L 137.754396 214.711524 
L 137.689553 213.87333 
L 137.619392 213.035137 
L 137.542988 212.196944 
L 137.458989 211.35875 
L 137.36567 210.520557 
L 137.261083 209.682364 
L 137.143295 208.84417 
L 137.010682 208.005977 
L 136.862215 207.167784 
L 136.697657 206.32959 
L 136.51763 205.491397 
L 136.323501 204.653204 
L 136.11713 203.81501 
L 135.900522 202.976817 
L 135.675491 202.138624 
L 135.443423 201.30043 
L 135.205211 200.462237 
L 134.96139 199.624044 
L 134.712422 198.78585 
L 134.459073 197.947657 
L 134.202749 197.109464 
L 133.945691 196.27127 
L 133.690959 195.433077 
L 133.442165 194.594884 
L 133.202998 193.75669 
L 132.976611 192.918497 
L 132.765018 192.080304 
L 132.568598 191.24211 
L 132.385866 190.403917 
L 132.213569 189.565724 
L 132.047135 188.72753 
L 131.881445 187.889337 
L 131.711792 187.051144 
L 131.534867 186.21295 
L 131.349563 185.374757 
L 131.157413 184.536564 
L 130.962527 183.69837 
L 130.771008 182.860177 
L 130.589921 182.021984 
L 130.426031 181.18379 
L 130.284575 180.345597 
L 130.168339 179.507404 
L 130.07728 178.66921 
L 130.008761 177.831017 
L 129.958359 176.992824 
L 129.921021 176.15463 
L 129.8923 175.316437 
L 129.869353 174.478244 
L 129.85148 173.64005 
L 129.840116 172.801857 
L 129.838322 171.963664 
L 129.849957 171.12547 
L 129.878764 170.287277 
L 129.92756 169.449084 
L 129.99768 168.61089 
L 130.088665 167.772697 
L 130.198134 166.934504 
L 130.321718 166.09631 
L 130.453006 165.258117 
L 130.583503 164.419924 
L 130.702749 163.58173 
L 130.79878 162.743537 
L 130.859131 161.905344 
L 130.872472 161.06715 
L 130.83076 160.228957 
L 130.731607 159.390764 
L 130.580363 158.55257 
L 130.391354 157.714377 
L 130.187761 156.876184 
L 129.999902 156.03799 
L 129.861965 155.199797 
L 129.807649 154.361604 
L 129.865437 153.52341 
L 130.054396 152.685217 
L 130.381301 151.847024 
L 130.839639 151.00883 
L 131.410648 150.170637 
L 132.066119 149.332444 
L 132.772354 148.49425 
L 133.494501 147.656057 
L 134.200486 146.817864 
L 134.86396 145.97967 
L 135.46596 145.141477 
L 135.995266 144.303284 
L 136.447709 143.46509 
L 136.824781 142.626897 
L 137.131973 141.788704 
L 137.377149 140.95051 
L 137.569203 140.112317 
L 137.717075 139.274124 
L 137.829142 138.43593 
L 137.912891 137.597737 
L 137.974799 136.759544 
L 138.020325 135.92135 
L 138.053948 135.083157 
L 138.079235 134.244964 
L 138.32854 134.244964 
L 138.32854 134.244964 
L 138.353827 135.083157 
L 138.38745 135.92135 
L 138.432975 136.759544 
L 138.494884 137.597737 
L 138.578633 138.43593 
L 138.6907 139.274124 
L 138.838572 140.112317 
L 139.030625 140.95051 
L 139.275801 141.788704 
L 139.582993 142.626897 
L 139.960066 143.46509 
L 140.412508 144.303284 
L 140.941814 145.141477 
L 141.543814 145.97967 
L 142.207289 146.817864 
L 142.913273 147.656057 
L 143.63542 148.49425 
L 144.341655 149.332444 
L 144.997126 150.170637 
L 145.568135 151.00883 
L 146.026473 151.847024 
L 146.353378 152.685217 
L 146.542337 153.52341 
L 146.600125 154.361604 
L 146.545809 155.199797 
L 146.407873 156.03799 
L 146.220014 156.876184 
L 146.016421 157.714377 
L 145.827411 158.55257 
L 145.676168 159.390764 
L 145.577014 160.228957 
L 145.535302 161.06715 
L 145.548643 161.905344 
L 145.608995 162.743537 
L 145.705025 163.58173 
L 145.824271 164.419924 
L 145.954769 165.258117 
L 146.086057 166.09631 
L 146.209641 166.934504 
L 146.319109 167.772697 
L 146.410094 168.61089 
L 146.480214 169.449084 
L 146.52901 170.287277 
L 146.557817 171.12547 
L 146.569453 171.963664 
L 146.567658 172.801857 
L 146.556294 173.64005 
L 146.538421 174.478244 
L 146.515474 175.316437 
L 146.486754 176.15463 
L 146.449416 176.992824 
L 146.399013 177.831017 
L 146.330495 178.66921 
L 146.239435 179.507404 
L 146.123199 180.345597 
L 145.981743 181.18379 
L 145.817854 182.021984 
L 145.636766 182.860177 
L 145.445247 183.69837 
L 145.250362 184.536564 
L 145.058211 185.374757 
L 144.872908 186.21295 
L 144.695983 187.051144 
L 144.52633 187.889337 
L 144.360639 188.72753 
L 144.194205 189.565724 
L 144.021908 190.403917 
L 143.839177 191.24211 
L 143.642757 192.080304 
L 143.431163 192.918497 
L 143.204777 193.75669 
L 142.965609 194.594884 
L 142.716816 195.433077 
L 142.462084 196.27127 
L 142.205025 197.109464 
L 141.948701 197.947657 
L 141.695352 198.78585 
L 141.446385 199.624044 
L 141.202563 200.462237 
L 140.964351 201.30043 
L 140.732283 202.138624 
L 140.507252 202.976817 
L 140.290644 203.81501 
L 140.084273 204.653204 
L 139.890144 205.491397 
L 139.710117 206.32959 
L 139.54556 207.167784 
L 139.397092 208.005977 
L 139.264479 208.84417 
L 139.146691 209.682364 
L 139.042104 210.520557 
L 138.948785 211.35875 
L 138.864786 212.196944 
L 138.788382 213.035137 
L 138.718221 213.87333 
L 138.653378 214.711524 
L 138.593319 215.549717 
L 138.537817 216.38791 
L 138.486847 217.226104 
z
" clip-path="url(#p8bbb4c43f7)" style="fill: #348abd; fill-opacity: 0.3"/>
   </g>
   <g id="PolyCollection_4">
    <path d="M 166.531744 209.101076 
L 165.850952 209.101076 
L 165.793077 208.446681 
L 165.729276 207.792285 
L 165.659112 207.137889 
L 165.58198 206.483493 
L 165.497083 205.829097 
L 165.403454 205.174701 
L 165.299998 204.520305 
L 165.185586 203.865909 
L 165.059172 203.211513 
L 164.91994 202.557117 
L 164.767439 201.902721 
L 164.601698 201.248325 
L 164.4233 200.593929 
L 164.233386 199.939533 
L 164.03361 199.285138 
L 163.826022 198.630742 
L 163.612933 197.976346 
L 163.396753 197.32195 
L 163.179854 196.667554 
L 162.964457 196.013158 
L 162.752566 195.358762 
L 162.545936 194.704366 
L 162.346081 194.04997 
L 162.154276 193.395574 
L 161.971574 192.741178 
L 161.798784 192.086782 
L 161.636433 191.432386 
L 161.484698 190.77799 
L 161.343322 190.123594 
L 161.211533 189.469199 
L 161.087985 188.814803 
L 160.970743 188.160407 
L 160.857334 187.506011 
L 160.744878 186.851615 
L 160.630302 186.197219 
L 160.510633 185.542823 
L 160.383338 184.888427 
L 160.246681 184.234031 
L 160.100039 183.579635 
L 159.944129 182.925239 
L 159.781079 182.270843 
L 159.614327 181.616447 
L 159.448316 180.962051 
L 159.288033 180.307655 
L 159.138423 179.65326 
L 159.003785 178.998864 
L 158.887231 178.344468 
L 158.790315 177.690072 
L 158.712891 177.035676 
L 158.653242 176.38128 
L 158.60845 175.726884 
L 158.574953 175.072488 
L 158.549178 174.418092 
L 158.528147 173.763696 
L 158.509938 173.1093 
L 158.493932 172.454904 
L 158.480813 171.800508 
L 158.47234 171.146112 
L 158.470956 170.491716 
L 158.479319 169.837321 
L 158.499846 169.182925 
L 158.534349 168.528529 
L 158.583781 167.874133 
L 158.648116 167.219737 
L 158.726303 166.565341 
L 158.816254 165.910945 
L 158.914813 165.256549 
L 159.017692 164.602153 
L 159.119389 163.947757 
L 159.213143 163.293361 
L 159.291041 162.638965 
L 159.344347 161.984569 
L 159.364155 161.330173 
L 159.342364 160.675778 
L 159.272939 160.021382 
L 159.153299 159.366986 
L 158.985637 158.71259 
L 158.777902 158.058194 
L 158.544201 157.403798 
L 158.304429 156.749402 
L 158.083029 156.095006 
L 157.906961 155.44061 
L 157.803056 154.786214 
L 157.79511 154.131818 
L 157.901116 153.477422 
L 158.131051 152.823026 
L 158.485562 152.16863 
L 158.955759 151.514234 
L 159.524143 150.859839 
L 160.166517 150.205443 
L 160.854583 149.551047 
L 161.55882 148.896651 
L 162.251246 148.242255 
L 162.907712 147.587859 
L 163.509479 146.933463 
L 164.043984 146.279067 
L 164.504827 145.624671 
L 164.891112 144.970275 
L 165.206369 144.315879 
L 167.176327 144.315879 
L 167.176327 144.315879 
L 167.491584 144.970275 
L 167.877869 145.624671 
L 168.338712 146.279067 
L 168.873217 146.933463 
L 169.474984 147.587859 
L 170.13145 148.242255 
L 170.823876 148.896651 
L 171.528113 149.551047 
L 172.216179 150.205443 
L 172.858553 150.859839 
L 173.426937 151.514234 
L 173.897134 152.16863 
L 174.251645 152.823026 
L 174.48158 153.477422 
L 174.587586 154.131818 
L 174.57964 154.786214 
L 174.475735 155.44061 
L 174.299667 156.095006 
L 174.078267 156.749402 
L 173.838495 157.403798 
L 173.604794 158.058194 
L 173.397059 158.71259 
L 173.229397 159.366986 
L 173.109757 160.021382 
L 173.040332 160.675778 
L 173.018541 161.330173 
L 173.038349 161.984569 
L 173.091655 162.638965 
L 173.169553 163.293361 
L 173.263307 163.947757 
L 173.365004 164.602153 
L 173.467883 165.256549 
L 173.566442 165.910945 
L 173.656393 166.565341 
L 173.73458 167.219737 
L 173.798915 167.874133 
L 173.848347 168.528529 
L 173.88285 169.182925 
L 173.903377 169.837321 
L 173.91174 170.491716 
L 173.910356 171.146112 
L 173.901882 171.800508 
L 173.888763 172.454904 
L 173.872758 173.1093 
L 173.854549 173.763696 
L 173.833518 174.418092 
L 173.807743 175.072488 
L 173.774246 175.726884 
L 173.729454 176.38128 
L 173.669805 177.035676 
L 173.592381 177.690072 
L 173.495465 178.344468 
L 173.378911 178.998864 
L 173.244273 179.65326 
L 173.094663 180.307655 
L 172.93438 180.962051 
L 172.768369 181.616447 
L 172.601617 182.270843 
L 172.438567 182.925239 
L 172.282657 183.579635 
L 172.136015 184.234031 
L 171.999358 184.888427 
L 171.872063 185.542823 
L 171.752394 186.197219 
L 171.637818 186.851615 
L 171.525362 187.506011 
L 171.411953 188.160407 
L 171.294711 188.814803 
L 171.171163 189.469199 
L 171.039374 190.123594 
L 170.897998 190.77799 
L 170.746263 191.432386 
L 170.583912 192.086782 
L 170.411122 192.741178 
L 170.22842 193.395574 
L 170.036615 194.04997 
L 169.83676 194.704366 
L 169.63013 195.358762 
L 169.418239 196.013158 
L 169.202842 196.667554 
L 168.985943 197.32195 
L 168.769763 197.976346 
L 168.556674 198.630742 
L 168.349086 199.285138 
L 168.14931 199.939533 
L 167.959396 200.593929 
L 167.780998 201.248325 
L 167.615257 201.902721 
L 167.462756 202.557117 
L 167.323524 203.211513 
L 167.19711 203.865909 
L 167.082698 204.520305 
L 166.979242 205.174701 
L 166.885613 205.829097 
L 166.800716 206.483493 
L 166.723583 207.137889 
L 166.65342 207.792285 
L 166.589618 208.446681 
L 166.531744 209.101076 
z
" clip-path="url(#p8bbb4c43f7)" style="fill: #348abd; fill-opacity: 0.3"/>
   </g>
   <g id="PolyCollection_5">
    <path d="M 194.631991 203.247039 
L 193.725626 203.247039 
L 193.650499 202.708702 
L 193.567018 202.170365 
L 193.474649 201.632028 
L 193.37286 201.093691 
L 193.261161 200.555354 
L 193.139153 200.017017 
L 193.006601 199.47868 
L 192.863497 198.940343 
L 192.710134 198.402007 
L 192.547156 197.86367 
L 192.375585 197.325333 
L 192.196817 196.786996 
L 192.012582 196.248659 
L 191.824865 195.710322 
L 191.635804 195.171985 
L 191.447557 194.633648 
L 191.262177 194.095311 
L 191.081492 193.556975 
L 190.907004 193.018638 
L 190.739827 192.480301 
L 190.580664 191.941964 
L 190.429816 191.403627 
L 190.28723 190.86529 
L 190.152568 190.326953 
L 190.025281 189.788616 
L 189.904683 189.250279 
L 189.790017 188.711942 
L 189.680489 188.173606 
L 189.575281 187.635269 
L 189.473548 187.096932 
L 189.374381 186.558595 
L 189.276775 186.020258 
L 189.179604 185.481921 
L 189.081603 184.943584 
L 188.981392 184.405247 
L 188.877538 183.86691 
L 188.768654 183.328574 
L 188.653539 182.790237 
L 188.531339 182.2519 
L 188.401706 181.713563 
L 188.264947 181.175226 
L 188.122111 180.636889 
L 187.975012 180.098552 
L 187.826162 179.560215 
L 187.678619 179.021878 
L 187.535743 178.483541 
L 187.400899 177.945205 
L 187.277142 177.406868 
L 187.166903 176.868531 
L 187.071755 176.330194 
L 186.99226 175.791857 
L 186.927946 175.25352 
L 186.877405 174.715183 
L 186.838519 174.176846 
L 186.808759 173.638509 
L 186.785538 173.100173 
L 186.766547 172.561836 
L 186.75005 172.023499 
L 186.735072 171.485162 
L 186.721473 170.946825 
L 186.709911 170.408488 
L 186.701682 169.870151 
L 186.6985 169.331814 
L 186.702234 168.793477 
L 186.714649 168.25514 
L 186.73719 167.716804 
L 186.770818 167.178467 
L 186.815914 166.64013 
L 186.872238 166.101793 
L 186.938912 165.563456 
L 187.014421 165.025119 
L 187.096594 164.486782 
L 187.18256 163.948445 
L 187.2687 163.410108 
L 187.350593 162.871772 
L 187.423028 162.333435 
L 187.480097 161.795098 
L 187.515442 161.256761 
L 187.522667 160.718424 
L 187.495919 160.180087 
L 187.430633 159.64175 
L 187.324338 159.103413 
L 187.177466 158.565076 
L 186.994027 158.02674 
L 186.782019 157.488403 
L 186.553488 156.950066 
L 186.324142 156.411729 
L 186.112504 155.873392 
L 185.93864 155.335055 
L 185.82258 154.796718 
L 185.782571 154.258381 
L 185.833377 153.720044 
L 185.984821 153.181707 
L 186.240756 152.643371 
L 186.598595 152.105034 
L 187.049467 151.566697 
L 187.578974 151.02836 
L 188.168452 150.490023 
L 188.796579 149.951686 
L 199.561038 149.951686 
L 199.561038 149.951686 
L 200.189166 150.490023 
L 200.778644 151.02836 
L 201.30815 151.566697 
L 201.759022 152.105034 
L 202.116861 152.643371 
L 202.372796 153.181707 
L 202.524241 153.720044 
L 202.575047 154.258381 
L 202.535038 154.796718 
L 202.418978 155.335055 
L 202.245114 155.873392 
L 202.033475 156.411729 
L 201.804129 156.950066 
L 201.575599 157.488403 
L 201.363591 158.02674 
L 201.180151 158.565076 
L 201.03328 159.103413 
L 200.926985 159.64175 
L 200.861698 160.180087 
L 200.834951 160.718424 
L 200.842175 161.256761 
L 200.877521 161.795098 
L 200.93459 162.333435 
L 201.007024 162.871772 
L 201.088918 163.410108 
L 201.175057 163.948445 
L 201.261024 164.486782 
L 201.343196 165.025119 
L 201.418706 165.563456 
L 201.48538 166.101793 
L 201.541704 166.64013 
L 201.5868 167.178467 
L 201.620428 167.716804 
L 201.642968 168.25514 
L 201.655384 168.793477 
L 201.659118 169.331814 
L 201.655936 169.870151 
L 201.647707 170.408488 
L 201.636144 170.946825 
L 201.622546 171.485162 
L 201.607567 172.023499 
L 201.591071 172.561836 
L 201.57208 173.100173 
L 201.548858 173.638509 
L 201.519098 174.176846 
L 201.480213 174.715183 
L 201.429672 175.25352 
L 201.365357 175.791857 
L 201.285862 176.330194 
L 201.190715 176.868531 
L 201.080476 177.406868 
L 200.956718 177.945205 
L 200.821875 178.483541 
L 200.678998 179.021878 
L 200.531455 179.560215 
L 200.382606 180.098552 
L 200.235506 180.636889 
L 200.09267 181.175226 
L 199.955911 181.713563 
L 199.826279 182.2519 
L 199.704078 182.790237 
L 199.588963 183.328574 
L 199.48008 183.86691 
L 199.376226 184.405247 
L 199.276015 184.943584 
L 199.178013 185.481921 
L 199.080842 186.020258 
L 198.983237 186.558595 
L 198.884069 187.096932 
L 198.782336 187.635269 
L 198.677129 188.173606 
L 198.5676 188.711942 
L 198.452934 189.250279 
L 198.332337 189.788616 
L 198.205049 190.326953 
L 198.070387 190.86529 
L 197.927802 191.403627 
L 197.776954 191.941964 
L 197.61779 192.480301 
L 197.450613 193.018638 
L 197.276125 193.556975 
L 197.09544 194.095311 
L 196.910061 194.633648 
L 196.721814 195.171985 
L 196.532752 195.710322 
L 196.345036 196.248659 
L 196.160801 196.786996 
L 195.982032 197.325333 
L 195.810461 197.86367 
L 195.647483 198.402007 
L 195.494121 198.940343 
L 195.351017 199.47868 
L 195.218464 200.017017 
L 195.096457 200.555354 
L 194.984757 201.093691 
L 194.882969 201.632028 
L 194.7906 202.170365 
L 194.707118 202.708702 
L 194.631991 203.247039 
z
" clip-path="url(#p8bbb4c43f7)" style="fill: #348abd; fill-opacity: 0.3"/>
   </g>
   <g id="PolyCollection_6">
    <path d="M 222.788282 198.96759 
L 221.544258 198.96759 
L 221.444317 198.489092 
L 221.334698 198.010594 
L 221.215503 197.532096 
L 221.087039 197.053598 
L 220.949836 196.5751 
L 220.804666 196.096602 
L 220.652542 195.618104 
L 220.494708 195.139606 
L 220.332606 194.661108 
L 220.167824 194.18261 
L 220.002028 193.704112 
L 219.836878 193.225614 
L 219.673941 192.747116 
L 219.514606 192.268618 
L 219.360007 191.79012 
L 219.210972 191.311622 
L 219.067991 190.833124 
L 218.931217 190.354626 
L 218.800498 189.876128 
L 218.675426 189.39763 
L 218.555409 188.919132 
L 218.439755 188.440634 
L 218.327747 187.962136 
L 218.218715 187.483638 
L 218.112083 187.00514 
L 218.007402 186.526641 
L 217.904345 186.048143 
L 217.80269 185.569645 
L 217.702276 185.091147 
L 217.602941 184.612649 
L 217.504464 184.134151 
L 217.406505 183.655653 
L 217.30856 183.177155 
L 217.209945 182.698657 
L 217.109805 182.220159 
L 217.00716 181.741661 
L 216.900987 181.263163 
L 216.790329 180.784665 
L 216.674423 180.306167 
L 216.552836 179.827669 
L 216.425585 179.349171 
L 216.29323 178.870673 
L 216.156916 178.392175 
L 216.018366 177.913677 
L 215.879796 177.435179 
L 215.743778 176.956681 
L 215.613045 176.478183 
L 215.490267 175.999685 
L 215.377811 175.521187 
L 215.277531 175.042689 
L 215.190594 174.564191 
L 215.117382 174.085693 
L 215.057479 173.607195 
L 215.009745 173.128697 
L 214.972469 172.650199 
L 214.943586 172.171701 
L 214.920932 171.693202 
L 214.902496 171.214704 
L 214.886646 170.736206 
L 214.872301 170.257708 
L 214.859015 169.77921 
L 214.846992 169.300712 
L 214.837013 168.822214 
L 214.830292 168.343716 
L 214.828305 167.865218 
L 214.832587 167.38672 
L 214.844552 166.908222 
L 214.865333 166.429724 
L 214.895666 165.951226 
L 214.935825 165.472728 
L 214.985581 164.99423 
L 215.044194 164.515732 
L 215.110408 164.037234 
L 215.182439 163.558736 
L 215.257948 163.080238 
L 215.334005 162.60174 
L 215.407059 162.123242 
L 215.472924 161.644744 
L 215.526839 161.166246 
L 215.563598 160.687748 
L 215.577814 160.20925 
L 215.564291 159.730752 
L 215.518527 159.252254 
L 215.437302 158.773756 
L 215.319307 158.295258 
L 215.165731 157.81676 
L 214.980743 157.338262 
L 214.771757 156.859763 
L 214.549433 156.381265 
L 214.32735 155.902767 
L 214.121344 155.424269 
L 213.948535 154.945771 
L 213.826119 154.467273 
L 213.770031 153.988775 
L 213.79362 153.510277 
L 213.906463 153.031779 
L 214.113475 152.553281 
L 214.414396 152.074783 
L 214.803741 151.596285 
L 229.528798 151.596285 
L 229.528798 151.596285 
L 229.918143 152.074783 
L 230.219065 152.553281 
L 230.426076 153.031779 
L 230.538919 153.510277 
L 230.562508 153.988775 
L 230.506421 154.467273 
L 230.384004 154.945771 
L 230.211195 155.424269 
L 230.005189 155.902767 
L 229.783106 156.381265 
L 229.560782 156.859763 
L 229.351796 157.338262 
L 229.166808 157.81676 
L 229.013233 158.295258 
L 228.895237 158.773756 
L 228.814012 159.252254 
L 228.768248 159.730752 
L 228.754725 160.20925 
L 228.768941 160.687748 
L 228.805701 161.166246 
L 228.859615 161.644744 
L 228.925481 162.123242 
L 228.998534 162.60174 
L 229.074591 163.080238 
L 229.1501 163.558736 
L 229.222131 164.037234 
L 229.288345 164.515732 
L 229.346959 164.99423 
L 229.396715 165.472728 
L 229.436873 165.951226 
L 229.467206 166.429724 
L 229.487987 166.908222 
L 229.499952 167.38672 
L 229.504234 167.865218 
L 229.502247 168.343716 
L 229.495526 168.822214 
L 229.485547 169.300712 
L 229.473524 169.77921 
L 229.460239 170.257708 
L 229.445893 170.736206 
L 229.430044 171.214704 
L 229.411608 171.693202 
L 229.388953 172.171701 
L 229.36007 172.650199 
L 229.322794 173.128697 
L 229.27506 173.607195 
L 229.215158 174.085693 
L 229.141946 174.564191 
L 229.055008 175.042689 
L 228.954728 175.521187 
L 228.842272 175.999685 
L 228.719494 176.478183 
L 228.588762 176.956681 
L 228.452743 177.435179 
L 228.314173 177.913677 
L 228.175623 178.392175 
L 228.039309 178.870673 
L 227.906954 179.349171 
L 227.779703 179.827669 
L 227.658116 180.306167 
L 227.54221 180.784665 
L 227.431552 181.263163 
L 227.325379 181.741661 
L 227.222734 182.220159 
L 227.122594 182.698657 
L 227.023979 183.177155 
L 226.926034 183.655653 
L 226.828075 184.134151 
L 226.729598 184.612649 
L 226.630263 185.091147 
L 226.529849 185.569645 
L 226.428194 186.048143 
L 226.325137 186.526641 
L 226.220456 187.00514 
L 226.113824 187.483638 
L 226.004792 187.962136 
L 225.892784 188.440634 
L 225.77713 188.919132 
L 225.657114 189.39763 
L 225.532041 189.876128 
L 225.401322 190.354626 
L 225.264549 190.833124 
L 225.121567 191.311622 
L 224.972532 191.79012 
L 224.817933 192.268618 
L 224.658598 192.747116 
L 224.495661 193.225614 
L 224.330511 193.704112 
L 224.164715 194.18261 
L 223.999933 194.661108 
L 223.837831 195.139606 
L 223.679998 195.618104 
L 223.527874 196.096602 
L 223.382703 196.5751 
L 223.2455 197.053598 
L 223.117036 197.532096 
L 222.997841 198.010594 
L 222.888222 198.489092 
L 222.788282 198.96759 
z
" clip-path="url(#p8bbb4c43f7)" style="fill: #348abd; fill-opacity: 0.3"/>
   </g>
   <g id="PolyCollection_7">
    <path d="M 250.899006 195.806626 
L 249.408455 195.806626 
L 249.299233 195.3629 
L 249.182147 194.919175 
L 249.057895 194.47545 
L 248.927352 194.031724 
L 248.791555 193.587999 
L 248.651674 193.144273 
L 248.508971 192.700548 
L 248.364755 192.256823 
L 248.220325 191.813097 
L 248.076909 191.369372 
L 247.93561 190.925647 
L 247.797345 190.481921 
L 247.662808 190.038196 
L 247.532439 189.59447 
L 247.406416 189.150745 
L 247.284669 188.70702 
L 247.166906 188.263294 
L 247.052666 187.819569 
L 246.941378 187.375843 
L 246.832428 186.932118 
L 246.725222 186.488393 
L 246.619245 186.044667 
L 246.514103 185.600942 
L 246.409551 185.157217 
L 246.305497 184.713491 
L 246.20199 184.269766 
L 246.099184 183.82604 
L 245.997294 183.382315 
L 245.896537 182.93859 
L 245.797068 182.494864 
L 245.698924 182.051139 
L 245.601973 181.607414 
L 245.505878 181.163688 
L 245.410089 180.719963 
L 245.313855 180.276237 
L 245.216267 179.832512 
L 245.116332 179.388787 
L 245.013067 178.945061 
L 244.905612 178.501336 
L 244.79335 178.05761 
L 244.676023 177.613885 
L 244.553822 177.17016 
L 244.427451 176.726434 
L 244.29814 176.282709 
L 244.167606 175.838984 
L 244.037967 175.395258 
L 243.911596 174.951533 
L 243.790943 174.507807 
L 243.678338 174.064082 
L 243.575789 173.620357 
L 243.484809 173.176631 
L 243.406282 172.732906 
L 243.340395 172.289181 
L 243.286636 171.845455 
L 243.243877 171.40173 
L 243.210506 170.958004 
L 243.184623 170.514279 
L 243.164254 170.070554 
L 243.14757 169.626828 
L 243.133077 169.183103 
L 243.119765 168.739377 
L 243.107182 168.295652 
L 243.095454 167.851927 
L 243.085221 167.408201 
L 243.077524 166.964476 
L 243.073655 166.520751 
L 243.074986 166.077025 
L 243.082798 165.6333 
L 243.098136 165.189574 
L 243.121696 164.745849 
L 243.153745 164.302124 
L 243.194075 163.858398 
L 243.241987 163.414673 
L 243.296281 162.970948 
L 243.35525 162.527222 
L 243.416672 162.083497 
L 243.477796 161.639771 
L 243.535326 161.196046 
L 243.585437 160.752321 
L 243.623829 160.308595 
L 243.64585 159.86487 
L 243.646709 159.421144 
L 243.621803 158.977419 
L 243.567127 158.533694 
L 243.479779 158.089968 
L 243.358503 157.646243 
L 243.204206 157.202518 
L 243.020399 156.758792 
L 242.813477 156.315067 
L 242.592769 155.871341 
L 242.370319 155.427616 
L 242.160375 154.983891 
L 241.978591 154.540165 
L 241.841007 154.09644 
L 241.762882 153.652715 
L 241.757492 153.208989 
L 241.835019 152.765264 
L 242.001648 152.321538 
L 242.258972 151.877813 
L 258.048489 151.877813 
L 258.048489 151.877813 
L 258.305813 152.321538 
L 258.472442 152.765264 
L 258.549969 153.208989 
L 258.544579 153.652715 
L 258.466454 154.09644 
L 258.32887 154.540165 
L 258.147086 154.983891 
L 257.937142 155.427616 
L 257.714692 155.871341 
L 257.493984 156.315067 
L 257.287062 156.758792 
L 257.103255 157.202518 
L 256.948958 157.646243 
L 256.827681 158.089968 
L 256.740334 158.533694 
L 256.685658 158.977419 
L 256.660751 159.421144 
L 256.661611 159.86487 
L 256.683631 160.308595 
L 256.722024 160.752321 
L 256.772135 161.196046 
L 256.829665 161.639771 
L 256.890789 162.083497 
L 256.952211 162.527222 
L 257.01118 162.970948 
L 257.065474 163.414673 
L 257.113386 163.858398 
L 257.153716 164.302124 
L 257.185765 164.745849 
L 257.209325 165.189574 
L 257.224663 165.6333 
L 257.232475 166.077025 
L 257.233805 166.520751 
L 257.229937 166.964476 
L 257.22224 167.408201 
L 257.212006 167.851927 
L 257.200278 168.295652 
L 257.187696 168.739377 
L 257.174384 169.183103 
L 257.159891 169.626828 
L 257.143207 170.070554 
L 257.122838 170.514279 
L 257.096955 170.958004 
L 257.063584 171.40173 
L 257.020825 171.845455 
L 256.967066 172.289181 
L 256.901178 172.732906 
L 256.822651 173.176631 
L 256.731672 173.620357 
L 256.629123 174.064082 
L 256.516518 174.507807 
L 256.395865 174.951533 
L 256.269494 175.395258 
L 256.139855 175.838984 
L 256.009321 176.282709 
L 255.88001 176.726434 
L 255.753639 177.17016 
L 255.631438 177.613885 
L 255.51411 178.05761 
L 255.401849 178.501336 
L 255.294393 178.945061 
L 255.191128 179.388787 
L 255.091194 179.832512 
L 254.993606 180.276237 
L 254.897371 180.719963 
L 254.801582 181.163688 
L 254.705488 181.607414 
L 254.608536 182.051139 
L 254.510393 182.494864 
L 254.410924 182.93859 
L 254.310167 183.382315 
L 254.208277 183.82604 
L 254.105471 184.269766 
L 254.001964 184.713491 
L 253.89791 185.157217 
L 253.793358 185.600942 
L 253.688216 186.044667 
L 253.582238 186.488393 
L 253.475032 186.932118 
L 253.366082 187.375843 
L 253.254795 187.819569 
L 253.140555 188.263294 
L 253.022792 188.70702 
L 252.901044 189.150745 
L 252.775022 189.59447 
L 252.644653 190.038196 
L 252.510116 190.481921 
L 252.371851 190.925647 
L 252.230551 191.369372 
L 252.087136 191.813097 
L 251.942705 192.256823 
L 251.79849 192.700548 
L 251.655787 193.144273 
L 251.515906 193.587999 
L 251.380109 194.031724 
L 251.249566 194.47545 
L 251.125314 194.919175 
L 251.008228 195.3629 
L 250.899006 195.806626 
z
" clip-path="url(#p8bbb4c43f7)" style="fill: #348abd; fill-opacity: 0.3"/>
   </g>
   <g id="PolyCollection_8">
    <path d="M 278.848526 193.46181 
L 277.433856 193.46181 
L 277.338063 193.040741 
L 277.236402 192.619672 
L 277.129426 192.198603 
L 277.017779 191.777535 
L 276.902183 191.356466 
L 276.783427 190.935397 
L 276.662348 190.514328 
L 276.53981 190.093259 
L 276.416675 189.672191 
L 276.293767 189.251122 
L 276.171843 188.830053 
L 276.051554 188.408984 
L 275.933414 187.987916 
L 275.817779 187.566847 
L 275.704829 187.145778 
L 275.594574 186.724709 
L 275.486868 186.30364 
L 275.381436 185.882572 
L 275.277914 185.461503 
L 275.175897 185.040434 
L 275.074986 184.619365 
L 274.974834 184.198297 
L 274.875181 183.777228 
L 274.775882 183.356159 
L 274.676919 182.93509 
L 274.578393 182.514021 
L 274.480504 182.092953 
L 274.383522 181.671884 
L 274.287743 181.250815 
L 274.193432 180.829746 
L 274.100778 180.408678 
L 274.009842 179.987609 
L 273.920511 179.56654 
L 273.832475 179.145471 
L 273.745213 178.724403 
L 273.658007 178.303334 
L 273.569978 177.882265 
L 273.480145 177.461196 
L 273.387515 177.040127 
L 273.291178 176.619059 
L 273.19042 176.19799 
L 273.08483 175.776921 
L 272.974398 175.355852 
L 272.859577 174.934784 
L 272.741318 174.513715 
L 272.621051 174.092646 
L 272.500622 173.671577 
L 272.38218 173.250508 
L 272.268026 172.82944 
L 272.160429 172.408371 
L 272.061444 171.987302 
L 271.972731 171.566233 
L 271.895414 171.145165 
L 271.829983 170.724096 
L 271.776261 170.303027 
L 271.733439 169.881958 
L 271.700176 169.460889 
L 271.674753 169.039821 
L 271.655264 168.618752 
L 271.639822 168.197683 
L 271.626758 167.776614 
L 271.614784 167.355546 
L 271.603106 166.934477 
L 271.591477 166.513408 
L 271.580177 166.092339 
L 271.569941 165.67127 
L 271.561824 165.250202 
L 271.557048 164.829133 
L 271.556824 164.408064 
L 271.562188 163.986995 
L 271.573855 163.565927 
L 271.592111 163.144858 
L 271.616729 162.723789 
L 271.646933 162.30272 
L 271.681378 161.881652 
L 271.718153 161.460583 
L 271.754802 161.039514 
L 271.788346 160.618445 
L 271.81533 160.197376 
L 271.831894 159.776308 
L 271.833879 159.355239 
L 271.817006 158.93417 
L 271.777121 158.513101 
L 271.710524 158.092033 
L 271.614378 157.670964 
L 271.487171 157.249895 
L 271.329188 156.828826 
L 271.14295 156.407757 
L 270.933542 155.986689 
L 270.708773 155.56562 
L 270.479103 155.144551 
L 270.25731 154.723482 
L 270.057876 154.302414 
L 269.896136 153.881345 
L 269.787228 153.460276 
L 269.744953 153.039207 
L 269.780657 152.618138 
L 269.902243 152.19707 
L 270.113426 151.776001 
L 286.168956 151.776001 
L 286.168956 151.776001 
L 286.38014 152.19707 
L 286.501725 152.618138 
L 286.537429 153.039207 
L 286.495155 153.460276 
L 286.386246 153.881345 
L 286.224506 154.302414 
L 286.025073 154.723482 
L 285.803279 155.144551 
L 285.573609 155.56562 
L 285.34884 155.986689 
L 285.139433 156.407757 
L 284.953195 156.828826 
L 284.795212 157.249895 
L 284.668004 157.670964 
L 284.571858 158.092033 
L 284.505261 158.513101 
L 284.465376 158.93417 
L 284.448504 159.355239 
L 284.450489 159.776308 
L 284.467052 160.197376 
L 284.494037 160.618445 
L 284.527581 161.039514 
L 284.564229 161.460583 
L 284.601005 161.881652 
L 284.635449 162.30272 
L 284.665653 162.723789 
L 284.690271 163.144858 
L 284.708527 163.565927 
L 284.720195 163.986995 
L 284.725558 164.408064 
L 284.725334 164.829133 
L 284.720558 165.250202 
L 284.712441 165.67127 
L 284.702205 166.092339 
L 284.690906 166.513408 
L 284.679276 166.934477 
L 284.667598 167.355546 
L 284.655624 167.776614 
L 284.64256 168.197683 
L 284.627118 168.618752 
L 284.607629 169.039821 
L 284.582206 169.460889 
L 284.548943 169.881958 
L 284.506122 170.303027 
L 284.4524 170.724096 
L 284.386968 171.145165 
L 284.309651 171.566233 
L 284.220939 171.987302 
L 284.121953 172.408371 
L 284.014357 172.82944 
L 283.900202 173.250508 
L 283.781761 173.671577 
L 283.661332 174.092646 
L 283.541065 174.513715 
L 283.422805 174.934784 
L 283.307984 175.355852 
L 283.197552 175.776921 
L 283.091963 176.19799 
L 282.991205 176.619059 
L 282.894867 177.040127 
L 282.802237 177.461196 
L 282.712405 177.882265 
L 282.624375 178.303334 
L 282.537169 178.724403 
L 282.449908 179.145471 
L 282.361872 179.56654 
L 282.272541 179.987609 
L 282.181604 180.408678 
L 282.088951 180.829746 
L 281.99464 181.250815 
L 281.89886 181.671884 
L 281.801879 182.092953 
L 281.70399 182.514021 
L 281.605463 182.93509 
L 281.5065 183.356159 
L 281.407202 183.777228 
L 281.307549 184.198297 
L 281.207396 184.619365 
L 281.106485 185.040434 
L 281.004468 185.461503 
L 280.900946 185.882572 
L 280.795514 186.30364 
L 280.687808 186.724709 
L 280.577554 187.145778 
L 280.464604 187.566847 
L 280.348968 187.987916 
L 280.230829 188.408984 
L 280.11054 188.830053 
L 279.988616 189.251122 
L 279.865708 189.672191 
L 279.742572 190.093259 
L 279.620034 190.514328 
L 279.498956 190.935397 
L 279.3802 191.356466 
L 279.264604 191.777535 
L 279.152956 192.198603 
L 279.04598 192.619672 
L 278.944319 193.040741 
L 278.848526 193.46181 
z
" clip-path="url(#p8bbb4c43f7)" style="fill: #348abd; fill-opacity: 0.3"/>
   </g>
   <g id="PolyCollection_9">
    <path d="M 306.672538 191.653957 
L 305.584766 191.653957 
L 305.511381 191.249319 
L 305.433143 190.844681 
L 305.35026 190.440043 
L 305.262978 190.035405 
L 305.171592 189.630767 
L 305.076451 189.226129 
L 304.977975 188.821491 
L 304.876655 188.416853 
L 304.773058 188.012215 
L 304.667815 187.607577 
L 304.561602 187.202939 
L 304.45511 186.798301 
L 304.349014 186.393663 
L 304.243922 185.989025 
L 304.140348 185.584387 
L 304.038672 185.179749 
L 303.939123 184.775111 
L 303.841769 184.370473 
L 303.746531 183.965835 
L 303.653204 183.561197 
L 303.561492 183.156559 
L 303.471056 182.751921 
L 303.381557 182.347283 
L 303.292701 181.942645 
L 303.204275 181.538007 
L 303.116168 181.133369 
L 303.02839 180.728731 
L 302.941057 180.324093 
L 302.854383 179.919455 
L 302.768646 179.514817 
L 302.684147 179.110179 
L 302.601168 178.70554 
L 302.519918 178.300902 
L 302.440489 177.896264 
L 302.362816 177.491626 
L 302.286643 177.086988 
L 302.211513 176.68235 
L 302.136765 176.277712 
L 302.061572 175.873074 
L 301.984982 175.468436 
L 301.905996 175.063798 
L 301.823659 174.65916 
L 301.737163 174.254522 
L 301.645956 173.849884 
L 301.549838 173.445246 
L 301.449037 173.040608 
L 301.344261 172.63597 
L 301.236693 172.231332 
L 301.127957 171.826694 
L 301.020023 171.422056 
L 300.915077 171.017418 
L 300.815352 170.61278 
L 300.722951 170.208142 
L 300.639665 169.803504 
L 300.566812 169.398866 
L 300.505125 168.994228 
L 300.454684 168.58959 
L 300.414922 168.184952 
L 300.384691 167.780314 
L 300.362391 167.375676 
L 300.346144 166.971038 
L 300.333991 166.5664 
L 300.324099 166.161762 
L 300.314936 165.757124 
L 300.305415 165.352486 
L 300.29497 164.947847 
L 300.283566 164.543209 
L 300.27165 164.138571 
L 300.260027 163.733933 
L 300.249699 163.329295 
L 300.241677 162.924657 
L 300.236785 162.520019 
L 300.235471 162.115381 
L 300.23766 161.710743 
L 300.242638 161.306105 
L 300.248987 160.901467 
L 300.254573 160.496829 
L 300.256583 160.092191 
L 300.251605 159.687553 
L 300.235761 159.282915 
L 300.20489 158.878277 
L 300.154775 158.473639 
L 300.081429 158.069001 
L 299.981443 157.664363 
L 299.852363 157.259725 
L 299.693117 156.855087 
L 299.504434 156.450449 
L 299.289216 156.045811 
L 299.052831 155.641173 
L 298.803239 155.236535 
L 298.550928 154.831897 
L 298.308598 154.427259 
L 298.090592 154.022621 
L 297.912093 153.617983 
L 297.788117 153.213345 
L 297.732414 152.808707 
L 297.75635 152.404069 
L 297.867918 151.999431 
L 298.07097 151.594793 
L 314.186334 151.594793 
L 314.186334 151.594793 
L 314.389386 151.999431 
L 314.500954 152.404069 
L 314.52489 152.808707 
L 314.469187 153.213345 
L 314.345211 153.617983 
L 314.166712 154.022621 
L 313.948706 154.427259 
L 313.706376 154.831897 
L 313.454065 155.236535 
L 313.204473 155.641173 
L 312.968088 156.045811 
L 312.75287 156.450449 
L 312.564187 156.855087 
L 312.404941 157.259725 
L 312.275861 157.664363 
L 312.175875 158.069001 
L 312.10253 158.473639 
L 312.052414 158.878277 
L 312.021543 159.282915 
L 312.005699 159.687553 
L 312.000721 160.092191 
L 312.002731 160.496829 
L 312.008318 160.901467 
L 312.014666 161.306105 
L 312.019644 161.710743 
L 312.021833 162.115381 
L 312.020519 162.520019 
L 312.015627 162.924657 
L 312.007605 163.329295 
L 311.997277 163.733933 
L 311.985654 164.138571 
L 311.973738 164.543209 
L 311.962335 164.947847 
L 311.951889 165.352486 
L 311.942368 165.757124 
L 311.933205 166.161762 
L 311.923313 166.5664 
L 311.91116 166.971038 
L 311.894913 167.375676 
L 311.872613 167.780314 
L 311.842382 168.184952 
L 311.80262 168.58959 
L 311.752179 168.994228 
L 311.690492 169.398866 
L 311.617639 169.803504 
L 311.534353 170.208142 
L 311.441952 170.61278 
L 311.342227 171.017418 
L 311.237281 171.422056 
L 311.129347 171.826694 
L 311.020611 172.231332 
L 310.913043 172.63597 
L 310.808267 173.040608 
L 310.707466 173.445246 
L 310.611348 173.849884 
L 310.520141 174.254522 
L 310.433645 174.65916 
L 310.351308 175.063798 
L 310.272322 175.468436 
L 310.195732 175.873074 
L 310.120539 176.277712 
L 310.045792 176.68235 
L 309.970661 177.086988 
L 309.894488 177.491626 
L 309.816815 177.896264 
L 309.737386 178.300902 
L 309.656136 178.70554 
L 309.573157 179.110179 
L 309.488658 179.514817 
L 309.402921 179.919455 
L 309.316247 180.324093 
L 309.228915 180.728731 
L 309.141136 181.133369 
L 309.053029 181.538007 
L 308.964603 181.942645 
L 308.875747 182.347283 
L 308.786248 182.751921 
L 308.695812 183.156559 
L 308.604101 183.561197 
L 308.510773 183.965835 
L 308.415535 184.370473 
L 308.318181 184.775111 
L 308.218632 185.179749 
L 308.116956 185.584387 
L 308.013382 185.989025 
L 307.90829 186.393663 
L 307.802194 186.798301 
L 307.695703 187.202939 
L 307.589489 187.607577 
L 307.484246 188.012215 
L 307.380649 188.416853 
L 307.279329 188.821491 
L 307.180853 189.226129 
L 307.085712 189.630767 
L 306.994326 190.035405 
L 306.907044 190.440043 
L 306.824161 190.844681 
L 306.745923 191.249319 
L 306.672538 191.653957 
z
" clip-path="url(#p8bbb4c43f7)" style="fill: #348abd; fill-opacity: 0.3"/>
   </g>
   <g id="PolyCollection_10">
    <path d="M 334.518416 189.763314 
L 333.71381 189.763314 
L 333.658962 189.376055 
L 333.600276 188.988796 
L 333.5378 188.601536 
L 333.471588 188.214277 
L 333.401707 187.827018 
L 333.328253 187.439759 
L 333.251371 187.0525 
L 333.171277 186.665241 
L 333.088275 186.277982 
L 333.002767 185.890723 
L 332.915255 185.503464 
L 332.826325 185.116205 
L 332.736623 184.728946 
L 332.64682 184.341687 
L 332.557567 183.954428 
L 332.469446 183.567169 
L 332.382933 183.17991 
L 332.298362 182.792651 
L 332.215906 182.405392 
L 332.135577 182.018133 
L 332.057235 181.630874 
L 331.980622 181.243615 
L 331.905402 180.856356 
L 331.831203 180.469096 
L 331.757667 180.081837 
L 331.684492 179.694578 
L 331.611463 179.307319 
L 331.538474 178.92006 
L 331.46554 178.532801 
L 331.392784 178.145542 
L 331.32043 177.758283 
L 331.248768 177.371024 
L 331.178125 176.983765 
L 331.108821 176.596506 
L 331.041128 176.209247 
L 330.975228 175.821988 
L 330.911169 175.434729 
L 330.848836 175.04747 
L 330.787927 174.660211 
L 330.727941 174.272952 
L 330.668196 173.885693 
L 330.60785 173.498434 
L 330.545956 173.111175 
L 330.481535 172.723916 
L 330.413664 172.336656 
L 330.341571 171.949397 
L 330.264739 171.562138 
L 330.182993 171.174879 
L 330.096576 170.78762 
L 330.006184 170.400361 
L 329.912969 170.013102 
L 329.818495 169.625843 
L 329.724654 169.238584 
L 329.633535 168.851325 
L 329.547266 168.464066 
L 329.467846 168.076807 
L 329.396967 167.689548 
L 329.335866 167.302289 
L 329.285211 166.91503 
L 329.245037 166.527771 
L 329.214748 166.140512 
L 329.193175 165.753253 
L 329.178698 165.365994 
L 329.169408 164.978735 
L 329.163298 164.591476 
L 329.158455 164.204217 
L 329.153235 163.816957 
L 329.146396 163.429698 
L 329.137171 163.042439 
L 329.125275 162.65518 
L 329.110835 162.267921 
L 329.094259 161.880662 
L 329.076049 161.493403 
L 329.056582 161.106144 
L 329.035885 160.718885 
L 329.013419 160.331626 
L 328.987921 159.944367 
L 328.957297 159.557108 
L 328.918612 159.169849 
L 328.868173 158.78259 
L 328.80172 158.395331 
L 328.71472 158.008072 
L 328.60276 157.620813 
L 328.46201 157.233554 
L 328.289744 156.846295 
L 328.084864 156.459036 
L 327.848396 156.071777 
L 327.583892 155.684517 
L 327.297689 155.297258 
L 326.998977 154.909999 
L 326.699618 154.52274 
L 326.413711 154.135481 
L 326.156894 153.748222 
L 325.945413 153.360963 
L 325.795035 152.973704 
L 325.719875 152.586445 
L 325.731268 152.199186 
L 325.836789 151.811927 
L 326.039537 151.424668 
L 342.192688 151.424668 
L 342.192688 151.424668 
L 342.395436 151.811927 
L 342.500958 152.199186 
L 342.512351 152.586445 
L 342.437191 152.973704 
L 342.286812 153.360963 
L 342.075332 153.748222 
L 341.818514 154.135481 
L 341.532608 154.52274 
L 341.233249 154.909999 
L 340.934537 155.297258 
L 340.648334 155.684517 
L 340.38383 156.071777 
L 340.147362 156.459036 
L 339.942482 156.846295 
L 339.770216 157.233554 
L 339.629466 157.620813 
L 339.517506 158.008072 
L 339.430506 158.395331 
L 339.364053 158.78259 
L 339.313613 159.169849 
L 339.274928 159.557108 
L 339.244304 159.944367 
L 339.218806 160.331626 
L 339.196341 160.718885 
L 339.175643 161.106144 
L 339.156177 161.493403 
L 339.137967 161.880662 
L 339.121391 162.267921 
L 339.106951 162.65518 
L 339.095055 163.042439 
L 339.08583 163.429698 
L 339.078991 163.816957 
L 339.073771 164.204217 
L 339.068928 164.591476 
L 339.062817 164.978735 
L 339.053528 165.365994 
L 339.039051 165.753253 
L 339.017478 166.140512 
L 338.987188 166.527771 
L 338.947014 166.91503 
L 338.896359 167.302289 
L 338.835258 167.689548 
L 338.764379 168.076807 
L 338.684959 168.464066 
L 338.598691 168.851325 
L 338.507572 169.238584 
L 338.413731 169.625843 
L 338.319257 170.013102 
L 338.226041 170.400361 
L 338.135649 170.78762 
L 338.049232 171.174879 
L 337.967487 171.562138 
L 337.890655 171.949397 
L 337.818562 172.336656 
L 337.750691 172.723916 
L 337.68627 173.111175 
L 337.624376 173.498434 
L 337.564029 173.885693 
L 337.504284 174.272952 
L 337.444299 174.660211 
L 337.383389 175.04747 
L 337.321057 175.434729 
L 337.256998 175.821988 
L 337.191097 176.209247 
L 337.123405 176.596506 
L 337.054101 176.983765 
L 336.983458 177.371024 
L 336.911796 177.758283 
L 336.839441 178.145542 
L 336.766686 178.532801 
L 336.693751 178.92006 
L 336.620763 179.307319 
L 336.547734 179.694578 
L 336.474559 180.081837 
L 336.401023 180.469096 
L 336.326824 180.856356 
L 336.251603 181.243615 
L 336.174991 181.630874 
L 336.096649 182.018133 
L 336.016319 182.405392 
L 335.933864 182.792651 
L 335.849293 183.17991 
L 335.76278 183.567169 
L 335.674659 183.954428 
L 335.585406 184.341687 
L 335.495603 184.728946 
L 335.405901 185.116205 
L 335.316971 185.503464 
L 335.229458 185.890723 
L 335.143951 186.277982 
L 335.060949 186.665241 
L 334.980855 187.0525 
L 334.903973 187.439759 
L 334.830518 187.827018 
L 334.760637 188.214277 
L 334.694425 188.601536 
L 334.63195 188.988796 
L 334.573263 189.376055 
L 334.518416 189.763314 
z
" clip-path="url(#p8bbb4c43f7)" style="fill: #348abd; fill-opacity: 0.3"/>
   </g>
   <g id="PolyCollection_11">
    <path d="M 362.408929 187.597495 
L 361.798218 187.597495 
L 361.756689 187.230738 
L 361.712308 186.863982 
L 361.665098 186.497225 
L 361.615062 186.130469 
L 361.562191 185.763713 
L 361.506473 185.396956 
L 361.447915 185.0302 
L 361.386563 184.663444 
L 361.322529 184.296687 
L 361.256008 183.929931 
L 361.187297 183.563174 
L 361.116799 183.196418 
L 361.045011 182.829662 
L 360.972505 182.462905 
L 360.899893 182.096149 
L 360.827786 181.729393 
L 360.756744 181.362636 
L 360.687234 180.99588 
L 360.619597 180.629124 
L 360.554018 180.262367 
L 360.490522 179.895611 
L 360.428983 179.528854 
L 360.369149 179.162098 
L 360.310674 178.795342 
L 360.253165 178.428585 
L 360.196228 178.061829 
L 360.139506 177.695073 
L 360.082716 177.328316 
L 360.025675 176.96156 
L 359.968308 176.594803 
L 359.910655 176.228047 
L 359.852858 175.861291 
L 359.795149 175.494534 
L 359.737822 175.127778 
L 359.68121 174.761022 
L 359.625654 174.394265 
L 359.57147 174.027509 
L 359.518914 173.660752 
L 359.468152 173.293996 
L 359.419227 172.92724 
L 359.372033 172.560483 
L 359.326292 172.193727 
L 359.281553 171.826971 
L 359.237187 171.460214 
L 359.192419 171.093458 
L 359.146363 170.726702 
L 359.098084 170.359945 
L 359.046669 169.993189 
L 358.991321 169.626432 
L 358.93144 169.259676 
L 358.866717 168.89292 
L 358.797201 168.526163 
L 358.723347 168.159407 
L 358.646038 167.792651 
L 358.56656 167.425894 
L 358.486542 167.059138 
L 358.407859 166.692381 
L 358.332503 166.325625 
L 358.262425 165.958869 
L 358.199382 165.592112 
L 358.144782 165.225356 
L 358.099554 164.8586 
L 358.064059 164.491843 
L 358.03805 164.125087 
L 358.020683 163.758331 
L 358.010588 163.391574 
L 358.005982 163.024818 
L 358.004821 162.658061 
L 358.004964 162.291305 
L 358.004335 161.924549 
L 358.001056 161.557792 
L 357.99354 161.191036 
L 357.980513 160.82428 
L 357.960981 160.457523 
L 357.934124 160.090767 
L 357.899135 159.72401 
L 357.855028 159.357254 
L 357.800438 158.990498 
L 357.733453 158.623741 
L 357.651512 158.256985 
L 357.551404 157.890229 
L 357.429395 157.523472 
L 357.281504 157.156716 
L 357.103924 156.789959 
L 356.893563 156.423203 
L 356.648675 156.056447 
L 356.369503 155.68969 
L 356.058876 155.322934 
L 355.722653 154.956178 
L 355.369948 154.589421 
L 355.013063 154.222665 
L 354.66708 153.855909 
L 354.34912 153.489152 
L 354.077295 153.122396 
L 353.869438 152.755639 
L 353.741726 152.388883 
L 353.707335 152.022127 
L 353.775277 151.65537 
L 353.949538 151.288614 
L 370.25761 151.288614 
L 370.25761 151.288614 
L 370.43187 151.65537 
L 370.499812 152.022127 
L 370.465422 152.388883 
L 370.337709 152.755639 
L 370.129852 153.122396 
L 369.858027 153.489152 
L 369.540067 153.855909 
L 369.194085 154.222665 
L 368.837199 154.589421 
L 368.484495 154.956178 
L 368.148272 155.322934 
L 367.837644 155.68969 
L 367.558473 156.056447 
L 367.313584 156.423203 
L 367.103223 156.789959 
L 366.925643 157.156716 
L 366.777753 157.523472 
L 366.655744 157.890229 
L 366.555636 158.256985 
L 366.473695 158.623741 
L 366.40671 158.990498 
L 366.352119 159.357254 
L 366.308012 159.72401 
L 366.273023 160.090767 
L 366.246166 160.457523 
L 366.226635 160.82428 
L 366.213608 161.191036 
L 366.206091 161.557792 
L 366.202812 161.924549 
L 366.202183 162.291305 
L 366.202326 162.658061 
L 366.201165 163.024818 
L 366.196559 163.391574 
L 366.186464 163.758331 
L 366.169097 164.125087 
L 366.143088 164.491843 
L 366.107593 164.8586 
L 366.062365 165.225356 
L 366.007765 165.592112 
L 365.944723 165.958869 
L 365.874645 166.325625 
L 365.799288 166.692381 
L 365.720606 167.059138 
L 365.640588 167.425894 
L 365.561109 167.792651 
L 365.4838 168.159407 
L 365.409947 168.526163 
L 365.34043 168.89292 
L 365.275707 169.259676 
L 365.215826 169.626432 
L 365.160478 169.993189 
L 365.109064 170.359945 
L 365.060784 170.726702 
L 365.014728 171.093458 
L 364.96996 171.460214 
L 364.925595 171.826971 
L 364.880855 172.193727 
L 364.835115 172.560483 
L 364.78792 172.92724 
L 364.738995 173.293996 
L 364.688234 173.660752 
L 364.635678 174.027509 
L 364.581493 174.394265 
L 364.525937 174.761022 
L 364.469326 175.127778 
L 364.411999 175.494534 
L 364.354289 175.861291 
L 364.296492 176.228047 
L 364.238839 176.594803 
L 364.181473 176.96156 
L 364.124431 177.328316 
L 364.067642 177.695073 
L 364.010919 178.061829 
L 363.953982 178.428585 
L 363.896474 178.795342 
L 363.837998 179.162098 
L 363.778164 179.528854 
L 363.716626 179.895611 
L 363.65313 180.262367 
L 363.58755 180.629124 
L 363.519913 180.99588 
L 363.450404 181.362636 
L 363.379361 181.729393 
L 363.307254 182.096149 
L 363.234642 182.462905 
L 363.162137 182.829662 
L 363.090349 183.196418 
L 363.01985 183.563174 
L 362.95114 183.929931 
L 362.884619 184.296687 
L 362.820584 184.663444 
L 362.759232 185.0302 
L 362.700674 185.396956 
L 362.644957 185.763713 
L 362.592085 186.130469 
L 362.542049 186.497225 
L 362.494839 186.863982 
L 362.450458 187.230738 
L 362.408929 187.597495 
z
" clip-path="url(#p8bbb4c43f7)" style="fill: #348abd; fill-opacity: 0.3"/>
   </g>
   <g id="PolyCollection_12">
    <path d="M 390.327064 185.193283 
L 389.855005 185.193283 
L 389.823638 184.849797 
L 389.790362 184.50631 
L 389.755216 184.162824 
L 389.718202 183.819338 
L 389.679286 183.475852 
L 389.638399 183.132366 
L 389.595455 182.78888 
L 389.550371 182.445393 
L 389.503092 182.101907 
L 389.453623 181.758421 
L 389.402052 181.414935 
L 389.348571 181.071449 
L 389.293489 180.727962 
L 389.237221 180.384476 
L 389.180275 180.04099 
L 389.123217 179.697504 
L 389.06663 179.354018 
L 389.011067 179.010531 
L 388.957 178.667045 
L 388.904782 178.323559 
L 388.85462 177.980073 
L 388.806555 177.636587 
L 388.760476 177.2931 
L 388.71613 176.949614 
L 388.673164 176.606128 
L 388.631162 176.262642 
L 388.589695 175.919156 
L 388.548359 175.575669 
L 388.506813 175.232183 
L 388.464807 174.888697 
L 388.42219 174.545211 
L 388.37892 174.201725 
L 388.335052 173.858238 
L 388.290729 173.514752 
L 388.246165 173.171266 
L 388.201625 172.82778 
L 388.157408 172.484294 
L 388.113831 172.140807 
L 388.071208 171.797321 
L 388.029836 171.453835 
L 387.98997 171.110349 
L 387.951803 170.766863 
L 387.915443 170.423376 
L 387.880888 170.07989 
L 387.848002 169.736404 
L 387.816498 169.392918 
L 387.785932 169.049432 
L 387.755701 168.705945 
L 387.725068 168.362459 
L 387.693193 168.018973 
L 387.659181 167.675487 
L 387.622156 167.332001 
L 387.581326 166.988514 
L 387.536072 166.645028 
L 387.486019 166.301542 
L 387.431109 165.958056 
L 387.371646 165.61457 
L 387.30832 165.271083 
L 387.242203 164.927597 
L 387.174705 164.584111 
L 387.107503 164.240625 
L 387.04243 163.897139 
L 386.981349 163.553652 
L 386.926009 163.210166 
L 386.877897 162.86668 
L 386.838104 162.523194 
L 386.807211 162.179708 
L 386.785209 161.836221 
L 386.771461 161.492735 
L 386.764704 161.149249 
L 386.763096 160.805763 
L 386.764285 160.462277 
L 386.765513 160.11879 
L 386.76371 159.775304 
L 386.755594 159.431818 
L 386.737743 159.088332 
L 386.706648 158.744846 
L 386.658735 158.401359 
L 386.590382 158.057873 
L 386.497929 157.714387 
L 386.377727 157.370901 
L 386.226237 157.027415 
L 386.040213 156.683928 
L 385.816983 156.340442 
L 385.554834 155.996956 
L 385.25348 155.65347 
L 384.914579 155.309984 
L 384.542232 154.966497 
L 384.143393 154.623011 
L 383.728101 154.279525 
L 383.309458 153.936039 
L 382.903293 153.592553 
L 382.527483 153.249066 
L 382.200955 152.90558 
L 381.942431 152.562094 
L 381.769016 152.218608 
L 381.694796 151.875122 
L 381.729573 151.531635 
L 381.877911 151.188149 
L 398.304158 151.188149 
L 398.304158 151.188149 
L 398.452496 151.531635 
L 398.487273 151.875122 
L 398.413053 152.218608 
L 398.239638 152.562094 
L 397.981114 152.90558 
L 397.654586 153.249066 
L 397.278776 153.592553 
L 396.872611 153.936039 
L 396.453968 154.279525 
L 396.038676 154.623011 
L 395.639837 154.966497 
L 395.26749 155.309984 
L 394.928589 155.65347 
L 394.627235 155.996956 
L 394.365086 156.340442 
L 394.141856 156.683928 
L 393.955832 157.027415 
L 393.804342 157.370901 
L 393.68414 157.714387 
L 393.591687 158.057873 
L 393.523334 158.401359 
L 393.475421 158.744846 
L 393.444326 159.088332 
L 393.426475 159.431818 
L 393.418359 159.775304 
L 393.416556 160.11879 
L 393.417784 160.462277 
L 393.418973 160.805763 
L 393.417365 161.149249 
L 393.410608 161.492735 
L 393.39686 161.836221 
L 393.374858 162.179708 
L 393.343965 162.523194 
L 393.304172 162.86668 
L 393.25606 163.210166 
L 393.20072 163.553652 
L 393.139639 163.897139 
L 393.074566 164.240625 
L 393.007364 164.584111 
L 392.939866 164.927597 
L 392.873749 165.271083 
L 392.810423 165.61457 
L 392.75096 165.958056 
L 392.69605 166.301542 
L 392.645997 166.645028 
L 392.600743 166.988514 
L 392.559913 167.332001 
L 392.522888 167.675487 
L 392.488876 168.018973 
L 392.457001 168.362459 
L 392.426368 168.705945 
L 392.396137 169.049432 
L 392.365571 169.392918 
L 392.334067 169.736404 
L 392.301181 170.07989 
L 392.266626 170.423376 
L 392.230266 170.766863 
L 392.192099 171.110349 
L 392.152233 171.453835 
L 392.110861 171.797321 
L 392.068238 172.140807 
L 392.024661 172.484294 
L 391.980444 172.82778 
L 391.935904 173.171266 
L 391.89134 173.514752 
L 391.847017 173.858238 
L 391.803149 174.201725 
L 391.759879 174.545211 
L 391.717262 174.888697 
L 391.675256 175.232183 
L 391.63371 175.575669 
L 391.592374 175.919156 
L 391.550907 176.262642 
L 391.508905 176.606128 
L 391.465939 176.949614 
L 391.421593 177.2931 
L 391.375513 177.636587 
L 391.327449 177.980073 
L 391.277286 178.323559 
L 391.225069 178.667045 
L 391.171002 179.010531 
L 391.115439 179.354018 
L 391.058852 179.697504 
L 391.001794 180.04099 
L 390.944848 180.384476 
L 390.88858 180.727962 
L 390.833498 181.071449 
L 390.780017 181.414935 
L 390.728446 181.758421 
L 390.678977 182.101907 
L 390.631698 182.445393 
L 390.586614 182.78888 
L 390.54367 183.132366 
L 390.502783 183.475852 
L 390.463867 183.819338 
L 390.426853 184.162824 
L 390.391707 184.50631 
L 390.358431 184.849797 
L 390.327064 185.193283 
z
" clip-path="url(#p8bbb4c43f7)" style="fill: #348abd; fill-opacity: 0.3"/>
   </g>
   <g id="matplotlib.axis_1">
    <g id="xtick_1">
     <g id="line2d_1">
      <path d="M 82.228966 307.584 
L 82.228966 41.472 
" clip-path="url(#p8bbb4c43f7)" style="fill: none; stroke-dasharray: 1.85,0.8; stroke-dashoffset: 0; stroke: #b2b2b2; stroke-width: 0.5"/>
     </g>
     <g id="line2d_2">
      <defs>
       <path id="m5aba5049a0" d="M 0 0 
L 0 -3.5 
" style="stroke: #000000; stroke-width: 0.8"/>
      </defs>
      <g>
       <use xlink:href="#m5aba5049a0" x="82.228966" y="307.584" style="stroke: #000000; stroke-width: 0.8"/>
      </g>
     </g>
     <g id="text_1">
      <!-- 0 -->
      <g transform="translate(79.047716 318.682437) scale(0.1 -0.1)">
       <defs>
        <path id="DejaVuSans-30" d="M 2034 4250 
Q 1547 4250 1301 3770 
Q 1056 3291 1056 2328 
Q 1056 1369 1301 889 
Q 1547 409 2034 409 
Q 2525 409 2770 889 
Q 3016 1369 3016 2328 
Q 3016 3291 2770 3770 
Q 2525 4250 2034 4250 
z
M 2034 4750 
Q 2819 4750 3233 4129 
Q 3647 3509 3647 2328 
Q 3647 1150 3233 529 
Q 2819 -91 2034 -91 
Q 1250 -91 836 529 
Q 422 1150 422 2328 
Q 422 3509 836 4129 
Q 1250 4750 2034 4750 
z
" transform="scale(0.015625)"/>
       </defs>
       <use xlink:href="#DejaVuSans-30"/>
      </g>
     </g>
    </g>
    <g id="xtick_2">
     <g id="line2d_3">
      <path d="M 138.203887 307.584 
L 138.203887 41.472 
" clip-path="url(#p8bbb4c43f7)" style="fill: none; stroke-dasharray: 1.85,0.8; stroke-dashoffset: 0; stroke: #b2b2b2; stroke-width: 0.5"/>
     </g>
     <g id="line2d_4">
      <g>
       <use xlink:href="#m5aba5049a0" x="138.203887" y="307.584" style="stroke: #000000; stroke-width: 0.8"/>
      </g>
     </g>
     <g id="text_2">
      <!-- 50 -->
      <g transform="translate(131.841387 318.682437) scale(0.1 -0.1)">
       <defs>
        <path id="DejaVuSans-35" d="M 691 4666 
L 3169 4666 
L 3169 4134 
L 1269 4134 
L 1269 2991 
Q 1406 3038 1543 3061 
Q 1681 3084 1819 3084 
Q 2600 3084 3056 2656 
Q 3513 2228 3513 1497 
Q 3513 744 3044 326 
Q 2575 -91 1722 -91 
Q 1428 -91 1123 -41 
Q 819 9 494 109 
L 494 744 
Q 775 591 1075 516 
Q 1375 441 1709 441 
Q 2250 441 2565 725 
Q 2881 1009 2881 1497 
Q 2881 1984 2565 2268 
Q 2250 2553 1709 2553 
Q 1456 2553 1204 2497 
Q 953 2441 691 2322 
L 691 4666 
z
" transform="scale(0.015625)"/>
       </defs>
       <use xlink:href="#DejaVuSans-35"/>
       <use xlink:href="#DejaVuSans-30" x="63.623047"/>
      </g>
     </g>
    </g>
    <g id="xtick_3">
     <g id="line2d_5">
      <path d="M 194.178809 307.584 
L 194.178809 41.472 
" clip-path="url(#p8bbb4c43f7)" style="fill: none; stroke-dasharray: 1.85,0.8; stroke-dashoffset: 0; stroke: #b2b2b2; stroke-width: 0.5"/>
     </g>
     <g id="line2d_6">
      <g>
       <use xlink:href="#m5aba5049a0" x="194.178809" y="307.584" style="stroke: #000000; stroke-width: 0.8"/>
      </g>
     </g>
     <g id="text_3">
      <!-- 100 -->
      <g transform="translate(184.635059 318.682437) scale(0.1 -0.1)">
       <defs>
        <path id="DejaVuSans-31" d="M 794 531 
L 1825 531 
L 1825 4091 
L 703 3866 
L 703 4441 
L 1819 4666 
L 2450 4666 
L 2450 531 
L 3481 531 
L 3481 0 
L 794 0 
L 794 531 
z
" transform="scale(0.015625)"/>
       </defs>
       <use xlink:href="#DejaVuSans-31"/>
       <use xlink:href="#DejaVuSans-30" x="63.623047"/>
       <use xlink:href="#DejaVuSans-30" x="127.246094"/>
      </g>
     </g>
    </g>
    <g id="xtick_4">
     <g id="line2d_7">
      <path d="M 250.15373 307.584 
L 250.15373 41.472 
" clip-path="url(#p8bbb4c43f7)" style="fill: none; stroke-dasharray: 1.85,0.8; stroke-dashoffset: 0; stroke: #b2b2b2; stroke-width: 0.5"/>
     </g>
     <g id="line2d_8">
      <g>
       <use xlink:href="#m5aba5049a0" x="250.15373" y="307.584" style="stroke: #000000; stroke-width: 0.8"/>
      </g>
     </g>
     <g id="text_4">
      <!-- 150 -->
      <g transform="translate(240.60998 318.682437) scale(0.1 -0.1)">
       <use xlink:href="#DejaVuSans-31"/>
       <use xlink:href="#DejaVuSans-35" x="63.623047"/>
       <use xlink:href="#DejaVuSans-30" x="127.246094"/>
      </g>
     </g>
    </g>
    <g id="xtick_5">
     <g id="line2d_9">
      <path d="M 306.128652 307.584 
L 306.128652 41.472 
" clip-path="url(#p8bbb4c43f7)" style="fill: none; stroke-dasharray: 1.85,0.8; stroke-dashoffset: 0; stroke: #b2b2b2; stroke-width: 0.5"/>
     </g>
     <g id="line2d_10">
      <g>
       <use xlink:href="#m5aba5049a0" x="306.128652" y="307.584" style="stroke: #000000; stroke-width: 0.8"/>
      </g>
     </g>
     <g id="text_5">
      <!-- 200 -->
      <g transform="translate(296.584902 318.682437) scale(0.1 -0.1)">
       <defs>
        <path id="DejaVuSans-32" d="M 1228 531 
L 3431 531 
L 3431 0 
L 469 0 
L 469 531 
Q 828 903 1448 1529 
Q 2069 2156 2228 2338 
Q 2531 2678 2651 2914 
Q 2772 3150 2772 3378 
Q 2772 3750 2511 3984 
Q 2250 4219 1831 4219 
Q 1534 4219 1204 4116 
Q 875 4013 500 3803 
L 500 4441 
Q 881 4594 1212 4672 
Q 1544 4750 1819 4750 
Q 2544 4750 2975 4387 
Q 3406 4025 3406 3419 
Q 3406 3131 3298 2873 
Q 3191 2616 2906 2266 
Q 2828 2175 2409 1742 
Q 1991 1309 1228 531 
z
" transform="scale(0.015625)"/>
       </defs>
       <use xlink:href="#DejaVuSans-32"/>
       <use xlink:href="#DejaVuSans-30" x="63.623047"/>
       <use xlink:href="#DejaVuSans-30" x="127.246094"/>
      </g>
     </g>
    </g>
    <g id="xtick_6">
     <g id="line2d_11">
      <path d="M 362.103574 307.584 
L 362.103574 41.472 
" clip-path="url(#p8bbb4c43f7)" style="fill: none; stroke-dasharray: 1.85,0.8; stroke-dashoffset: 0; stroke: #b2b2b2; stroke-width: 0.5"/>
     </g>
     <g id="line2d_12">
      <g>
       <use xlink:href="#m5aba5049a0" x="362.103574" y="307.584" style="stroke: #000000; stroke-width: 0.8"/>
      </g>
     </g>
     <g id="text_6">
      <!-- 250 -->
      <g transform="translate(352.559824 318.682437) scale(0.1 -0.1)">
       <use xlink:href="#DejaVuSans-32"/>
       <use xlink:href="#DejaVuSans-35" x="63.623047"/>
       <use xlink:href="#DejaVuSans-30" x="127.246094"/>
      </g>
     </g>
    </g>
    <g id="text_7">
     <!-- $s$ -->
     <g transform="translate(233.34 333.88025) scale(0.12 -0.12)">
      <defs>
       <path id="Cmmi10-73" d="M 556 391 
Q 728 97 1247 97 
Q 1472 97 1675 173 
Q 1878 250 2011 403 
Q 2144 556 2144 775 
Q 2144 941 2025 1047 
Q 1906 1153 1734 1191 
L 1388 1259 
Q 1150 1319 997 1481 
Q 844 1644 844 1875 
Q 844 2159 998 2378 
Q 1153 2597 1406 2712 
Q 1659 2828 1931 2828 
Q 2222 2828 2451 2689 
Q 2681 2550 2681 2278 
Q 2681 2131 2598 2018 
Q 2516 1906 2369 1906 
Q 2284 1906 2223 1961 
Q 2163 2016 2163 2100 
Q 2163 2175 2205 2245 
Q 2247 2316 2317 2358 
Q 2388 2400 2463 2400 
Q 2406 2538 2251 2600 
Q 2097 2663 1919 2663 
Q 1756 2663 1593 2597 
Q 1431 2531 1332 2404 
Q 1234 2278 1234 2106 
Q 1234 1991 1315 1903 
Q 1397 1816 1516 1778 
L 1888 1703 
Q 2066 1666 2214 1570 
Q 2363 1475 2448 1329 
Q 2534 1184 2534 997 
Q 2534 759 2401 528 
Q 2269 297 2075 159 
Q 1734 -72 1241 -72 
Q 900 -72 615 84 
Q 331 241 331 550 
Q 331 725 432 854 
Q 534 984 709 984 
Q 813 984 883 921 
Q 953 859 953 756 
Q 953 609 843 500 
Q 734 391 588 391 
L 556 391 
z
" transform="scale(0.015625)"/>
      </defs>
      <use xlink:href="#Cmmi10-73" transform="translate(0 0.8125)"/>
     </g>
    </g>
   </g>
   <g id="matplotlib.axis_2">
    <g id="ytick_1">
     <g id="line2d_13">
      <path d="M 57.6 271.296 
L 414.72 271.296 
" clip-path="url(#p8bbb4c43f7)" style="fill: none; stroke-dasharray: 1.85,0.8; stroke-dashoffset: 0; stroke: #b2b2b2; stroke-width: 0.5"/>
     </g>
     <g id="line2d_14">
      <defs>
       <path id="m7fd91e0917" d="M 0 0 
L 3.5 0 
" style="stroke: #000000; stroke-width: 0.8"/>
      </defs>
      <g>
       <use xlink:href="#m7fd91e0917" x="57.6" y="271.296" style="stroke: #000000; stroke-width: 0.8"/>
      </g>
     </g>
     <g id="text_8">
      <!-- 4 -->
      <g transform="translate(39.357813 275.095219) scale(0.1 -0.1)">
       <defs>
        <path id="DejaVuSans-2212" d="M 678 2272 
L 4684 2272 
L 4684 1741 
L 678 1741 
L 678 2272 
z
" transform="scale(0.015625)"/>
        <path id="DejaVuSans-34" d="M 2419 4116 
L 825 1625 
L 2419 1625 
L 2419 4116 
z
M 2253 4666 
L 3047 4666 
L 3047 1625 
L 3713 1625 
L 3713 1100 
L 3047 1100 
L 3047 0 
L 2419 0 
L 2419 1100 
L 313 1100 
L 313 1709 
L 2253 4666 
z
" transform="scale(0.015625)"/>
       </defs>
       <use xlink:href="#DejaVuSans-2212"/>
       <use xlink:href="#DejaVuSans-34" x="83.789062"/>
      </g>
     </g>
    </g>
    <g id="ytick_2">
     <g id="line2d_15">
      <path d="M 57.6 222.912 
L 414.72 222.912 
" clip-path="url(#p8bbb4c43f7)" style="fill: none; stroke-dasharray: 1.85,0.8; stroke-dashoffset: 0; stroke: #b2b2b2; stroke-width: 0.5"/>
     </g>
     <g id="line2d_16">
      <g>
       <use xlink:href="#m7fd91e0917" x="57.6" y="222.912" style="stroke: #000000; stroke-width: 0.8"/>
      </g>
     </g>
     <g id="text_9">
      <!-- 2 -->
      <g transform="translate(39.357813 226.711219) scale(0.1 -0.1)">
       <use xlink:href="#DejaVuSans-2212"/>
       <use xlink:href="#DejaVuSans-32" x="83.789062"/>
      </g>
     </g>
    </g>
    <g id="ytick_3">
     <g id="line2d_17">
      <path d="M 57.6 174.528 
L 414.72 174.528 
" clip-path="url(#p8bbb4c43f7)" style="fill: none; stroke-dasharray: 1.85,0.8; stroke-dashoffset: 0; stroke: #b2b2b2; stroke-width: 0.5"/>
     </g>
     <g id="line2d_18">
      <g>
       <use xlink:href="#m7fd91e0917" x="57.6" y="174.528" style="stroke: #000000; stroke-width: 0.8"/>
      </g>
     </g>
     <g id="text_10">
      <!-- 0 -->
      <g transform="translate(47.7375 178.327219) scale(0.1 -0.1)">
       <use xlink:href="#DejaVuSans-30"/>
      </g>
     </g>
    </g>
    <g id="ytick_4">
     <g id="line2d_19">
      <path d="M 57.6 126.144 
L 414.72 126.144 
" clip-path="url(#p8bbb4c43f7)" style="fill: none; stroke-dasharray: 1.85,0.8; stroke-dashoffset: 0; stroke: #b2b2b2; stroke-width: 0.5"/>
     </g>
     <g id="line2d_20">
      <g>
       <use xlink:href="#m7fd91e0917" x="57.6" y="126.144" style="stroke: #000000; stroke-width: 0.8"/>
      </g>
     </g>
     <g id="text_11">
      <!-- 2 -->
      <g transform="translate(47.7375 129.943219) scale(0.1 -0.1)">
       <use xlink:href="#DejaVuSans-32"/>
      </g>
     </g>
    </g>
    <g id="ytick_5">
     <g id="line2d_21">
      <path d="M 57.6 77.76 
L 414.72 77.76 
" clip-path="url(#p8bbb4c43f7)" style="fill: none; stroke-dasharray: 1.85,0.8; stroke-dashoffset: 0; stroke: #b2b2b2; stroke-width: 0.5"/>
     </g>
     <g id="line2d_22">
      <g>
       <use xlink:href="#m7fd91e0917" x="57.6" y="77.76" style="stroke: #000000; stroke-width: 0.8"/>
      </g>
     </g>
     <g id="text_12">
      <!-- 4 -->
      <g transform="translate(47.7375 81.559219) scale(0.1 -0.1)">
       <use xlink:href="#DejaVuSans-34"/>
      </g>
     </g>
    </g>
    <g id="text_13">
     <!-- $x_{s}$ -->
     <g transform="translate(32.862188 180.348) rotate(-90) scale(0.12 -0.12)">
      <defs>
       <path id="Cmmi10-78" d="M 500 184 
Q 613 97 819 97 
Q 1019 97 1172 289 
Q 1325 481 1381 709 
L 1672 1844 
Q 1741 2153 1741 2266 
Q 1741 2425 1652 2544 
Q 1563 2663 1403 2663 
Q 1200 2663 1022 2536 
Q 844 2409 722 2214 
Q 600 2019 550 1819 
Q 538 1778 500 1778 
L 422 1778 
Q 372 1778 372 1838 
L 372 1856 
Q 434 2094 584 2320 
Q 734 2547 951 2687 
Q 1169 2828 1416 2828 
Q 1650 2828 1839 2703 
Q 2028 2578 2106 2363 
Q 2216 2559 2386 2693 
Q 2556 2828 2759 2828 
Q 2897 2828 3040 2779 
Q 3184 2731 3275 2631 
Q 3366 2531 3366 2381 
Q 3366 2219 3261 2101 
Q 3156 1984 2994 1984 
Q 2891 1984 2822 2050 
Q 2753 2116 2753 2216 
Q 2753 2350 2845 2451 
Q 2938 2553 3066 2572 
Q 2950 2663 2747 2663 
Q 2541 2663 2389 2472 
Q 2238 2281 2175 2047 
L 1894 916 
Q 1825 659 1825 494 
Q 1825 331 1917 214 
Q 2009 97 2163 97 
Q 2463 97 2698 361 
Q 2934 625 3009 941 
Q 3022 978 3059 978 
L 3138 978 
Q 3163 978 3178 961 
Q 3194 944 3194 922 
Q 3194 916 3188 903 
Q 3097 522 2806 225 
Q 2516 -72 2150 -72 
Q 1916 -72 1727 54 
Q 1538 181 1459 397 
Q 1359 209 1182 68 
Q 1006 -72 806 -72 
Q 669 -72 523 -23 
Q 378 25 287 125 
Q 197 225 197 378 
Q 197 528 301 651 
Q 406 775 563 775 
Q 669 775 741 711 
Q 813 647 813 544 
Q 813 409 723 309 
Q 634 209 500 184 
z
" transform="scale(0.015625)"/>
      </defs>
      <use xlink:href="#Cmmi10-78" transform="translate(0 0.8125)"/>
      <use xlink:href="#Cmmi10-73" transform="translate(57.080078 -16.19375) scale(0.7)"/>
     </g>
    </g>
   </g>
   <g id="LineCollection_1">
    <path d="M 241.197743 295.488 
L 241.197743 53.568 
" clip-path="url(#p8bbb4c43f7)" style="fill: none; stroke-dasharray: 7.4,3.2; stroke-dashoffset: 0; stroke: #ff0000; stroke-width: 2"/>
   </g>
   <g id="LineCollection_2">
    <path d="M 78.030846 95.493057 
L 86.427085 95.493057 
" clip-path="url(#p8bbb4c43f7)" style="fill: none; stroke: #348abd; stroke-width: 2"/>
    <path d="M 106.018307 119.355884 
L 114.414545 119.355884 
" clip-path="url(#p8bbb4c43f7)" style="fill: none; stroke: #348abd; stroke-width: 2"/>
    <path d="M 134.005768 134.244964 
L 142.402006 134.244964 
" clip-path="url(#p8bbb4c43f7)" style="fill: none; stroke: #348abd; stroke-width: 2"/>
    <path d="M 161.993229 144.315879 
L 170.389467 144.315879 
" clip-path="url(#p8bbb4c43f7)" style="fill: none; stroke: #348abd; stroke-width: 2"/>
    <path d="M 189.98069 149.951686 
L 198.376928 149.951686 
" clip-path="url(#p8bbb4c43f7)" style="fill: none; stroke: #348abd; stroke-width: 2"/>
    <path d="M 217.96815 151.596285 
L 226.364389 151.596285 
" clip-path="url(#p8bbb4c43f7)" style="fill: none; stroke: #348abd; stroke-width: 2"/>
    <path d="M 245.955611 151.877813 
L 254.35185 151.877813 
" clip-path="url(#p8bbb4c43f7)" style="fill: none; stroke: #348abd; stroke-width: 2"/>
    <path d="M 273.943072 151.776001 
L 282.33931 151.776001 
" clip-path="url(#p8bbb4c43f7)" style="fill: none; stroke: #348abd; stroke-width: 2"/>
    <path d="M 301.930533 151.594793 
L 310.326771 151.594793 
" clip-path="url(#p8bbb4c43f7)" style="fill: none; stroke: #348abd; stroke-width: 2"/>
    <path d="M 329.917994 151.424668 
L 338.314232 151.424668 
" clip-path="url(#p8bbb4c43f7)" style="fill: none; stroke: #348abd; stroke-width: 2"/>
    <path d="M 357.905455 151.288614 
L 366.301693 151.288614 
" clip-path="url(#p8bbb4c43f7)" style="fill: none; stroke: #348abd; stroke-width: 2"/>
    <path d="M 385.892915 151.188149 
L 394.289154 151.188149 
" clip-path="url(#p8bbb4c43f7)" style="fill: none; stroke: #348abd; stroke-width: 2"/>
   </g>
   <g id="LineCollection_3">
    <path d="M 78.030846 246.23261 
L 86.427085 246.23261 
" clip-path="url(#p8bbb4c43f7)" style="fill: none; stroke: #348abd; stroke-width: 2"/>
    <path d="M 106.018307 228.738035 
L 114.414545 228.738035 
" clip-path="url(#p8bbb4c43f7)" style="fill: none; stroke: #348abd; stroke-width: 2"/>
    <path d="M 134.005768 217.226104 
L 142.402006 217.226104 
" clip-path="url(#p8bbb4c43f7)" style="fill: none; stroke: #348abd; stroke-width: 2"/>
    <path d="M 161.993229 209.101076 
L 170.389467 209.101076 
" clip-path="url(#p8bbb4c43f7)" style="fill: none; stroke: #348abd; stroke-width: 2"/>
    <path d="M 189.98069 203.247039 
L 198.376928 203.247039 
" clip-path="url(#p8bbb4c43f7)" style="fill: none; stroke: #348abd; stroke-width: 2"/>
    <path d="M 217.96815 198.96759 
L 226.364389 198.96759 
" clip-path="url(#p8bbb4c43f7)" style="fill: none; stroke: #348abd; stroke-width: 2"/>
    <path d="M 245.955611 195.806626 
L 254.35185 195.806626 
" clip-path="url(#p8bbb4c43f7)" style="fill: none; stroke: #348abd; stroke-width: 2"/>
    <path d="M 273.943072 193.46181 
L 282.33931 193.46181 
" clip-path="url(#p8bbb4c43f7)" style="fill: none; stroke: #348abd; stroke-width: 2"/>
    <path d="M 301.930533 191.653957 
L 310.326771 191.653957 
" clip-path="url(#p8bbb4c43f7)" style="fill: none; stroke: #348abd; stroke-width: 2"/>
    <path d="M 329.917994 189.763314 
L 338.314232 189.763314 
" clip-path="url(#p8bbb4c43f7)" style="fill: none; stroke: #348abd; stroke-width: 2"/>
    <path d="M 357.905455 187.597495 
L 366.301693 187.597495 
" clip-path="url(#p8bbb4c43f7)" style="fill: none; stroke: #348abd; stroke-width: 2"/>
    <path d="M 385.892915 185.193283 
L 394.289154 185.193283 
" clip-path="url(#p8bbb4c43f7)" style="fill: none; stroke: #348abd; stroke-width: 2"/>
   </g>
   <g id="LineCollection_4">
    <path d="M 82.228966 246.23261 
L 82.228966 95.493057 
" clip-path="url(#p8bbb4c43f7)" style="fill: none; stroke: #348abd; stroke-width: 2"/>
    <path d="M 110.216426 228.738035 
L 110.216426 119.355884 
" clip-path="url(#p8bbb4c43f7)" style="fill: none; stroke: #348abd; stroke-width: 2"/>
    <path d="M 138.203887 217.226104 
L 138.203887 134.244964 
" clip-path="url(#p8bbb4c43f7)" style="fill: none; stroke: #348abd; stroke-width: 2"/>
    <path d="M 166.191348 209.101076 
L 166.191348 144.315879 
" clip-path="url(#p8bbb4c43f7)" style="fill: none; stroke: #348abd; stroke-width: 2"/>
    <path d="M 194.178809 203.247039 
L 194.178809 149.951686 
" clip-path="url(#p8bbb4c43f7)" style="fill: none; stroke: #348abd; stroke-width: 2"/>
    <path d="M 222.16627 198.96759 
L 222.16627 151.596285 
" clip-path="url(#p8bbb4c43f7)" style="fill: none; stroke: #348abd; stroke-width: 2"/>
    <path d="M 250.15373 195.806626 
L 250.15373 151.877813 
" clip-path="url(#p8bbb4c43f7)" style="fill: none; stroke: #348abd; stroke-width: 2"/>
    <path d="M 278.141191 193.46181 
L 278.141191 151.776001 
" clip-path="url(#p8bbb4c43f7)" style="fill: none; stroke: #348abd; stroke-width: 2"/>
    <path d="M 306.128652 191.653957 
L 306.128652 151.594793 
" clip-path="url(#p8bbb4c43f7)" style="fill: none; stroke: #348abd; stroke-width: 2"/>
    <path d="M 334.116113 189.763314 
L 334.116113 151.424668 
" clip-path="url(#p8bbb4c43f7)" style="fill: none; stroke: #348abd; stroke-width: 2"/>
    <path d="M 362.103574 187.597495 
L 362.103574 151.288614 
" clip-path="url(#p8bbb4c43f7)" style="fill: none; stroke: #348abd; stroke-width: 2"/>
    <path d="M 390.091034 185.193283 
L 390.091034 151.188149 
" clip-path="url(#p8bbb4c43f7)" style="fill: none; stroke: #348abd; stroke-width: 2"/>
   </g>
   <g id="patch_3">
    <path d="M 57.6 307.584 
L 57.6 41.472 
" style="fill: none; stroke: #bcbcbc; stroke-width: 0.8; stroke-linejoin: miter; stroke-linecap: square"/>
   </g>
   <g id="patch_4">
    <path d="M 414.72 307.584 
L 414.72 41.472 
" style="fill: none; stroke: #bcbcbc; stroke-width: 0.8; stroke-linejoin: miter; stroke-linecap: square"/>
   </g>
   <g id="patch_5">
    <path d="M 57.6 307.584 
L 414.72 307.584 
" style="fill: none; stroke: #bcbcbc; stroke-width: 0.8; stroke-linejoin: miter; stroke-linecap: square"/>
   </g>
   <g id="patch_6">
    <path d="M 57.6 41.472 
L 414.72 41.472 
" style="fill: none; stroke: #bcbcbc; stroke-width: 0.8; stroke-linejoin: miter; stroke-linecap: square"/>
   </g>
   <g id="text_14">
    <!-- Violin plot of critical time n = 500 -->
    <g transform="translate(114.951375 35.472) scale(0.144 -0.144)">
     <defs>
      <path id="DejaVuSans-56" d="M 1831 0 
L 50 4666 
L 709 4666 
L 2188 738 
L 3669 4666 
L 4325 4666 
L 2547 0 
L 1831 0 
z
" transform="scale(0.015625)"/>
      <path id="DejaVuSans-69" d="M 603 3500 
L 1178 3500 
L 1178 0 
L 603 0 
L 603 3500 
z
M 603 4863 
L 1178 4863 
L 1178 4134 
L 603 4134 
L 603 4863 
z
" transform="scale(0.015625)"/>
      <path id="DejaVuSans-6f" d="M 1959 3097 
Q 1497 3097 1228 2736 
Q 959 2375 959 1747 
Q 959 1119 1226 758 
Q 1494 397 1959 397 
Q 2419 397 2687 759 
Q 2956 1122 2956 1747 
Q 2956 2369 2687 2733 
Q 2419 3097 1959 3097 
z
M 1959 3584 
Q 2709 3584 3137 3096 
Q 3566 2609 3566 1747 
Q 3566 888 3137 398 
Q 2709 -91 1959 -91 
Q 1206 -91 779 398 
Q 353 888 353 1747 
Q 353 2609 779 3096 
Q 1206 3584 1959 3584 
z
" transform="scale(0.015625)"/>
      <path id="DejaVuSans-6c" d="M 603 4863 
L 1178 4863 
L 1178 0 
L 603 0 
L 603 4863 
z
" transform="scale(0.015625)"/>
      <path id="DejaVuSans-6e" d="M 3513 2113 
L 3513 0 
L 2938 0 
L 2938 2094 
Q 2938 2591 2744 2837 
Q 2550 3084 2163 3084 
Q 1697 3084 1428 2787 
Q 1159 2491 1159 1978 
L 1159 0 
L 581 0 
L 581 3500 
L 1159 3500 
L 1159 2956 
Q 1366 3272 1645 3428 
Q 1925 3584 2291 3584 
Q 2894 3584 3203 3211 
Q 3513 2838 3513 2113 
z
" transform="scale(0.015625)"/>
      <path id="DejaVuSans-20" transform="scale(0.015625)"/>
      <path id="DejaVuSans-70" d="M 1159 525 
L 1159 -1331 
L 581 -1331 
L 581 3500 
L 1159 3500 
L 1159 2969 
Q 1341 3281 1617 3432 
Q 1894 3584 2278 3584 
Q 2916 3584 3314 3078 
Q 3713 2572 3713 1747 
Q 3713 922 3314 415 
Q 2916 -91 2278 -91 
Q 1894 -91 1617 61 
Q 1341 213 1159 525 
z
M 3116 1747 
Q 3116 2381 2855 2742 
Q 2594 3103 2138 3103 
Q 1681 3103 1420 2742 
Q 1159 2381 1159 1747 
Q 1159 1113 1420 752 
Q 1681 391 2138 391 
Q 2594 391 2855 752 
Q 3116 1113 3116 1747 
z
" transform="scale(0.015625)"/>
      <path id="DejaVuSans-74" d="M 1172 4494 
L 1172 3500 
L 2356 3500 
L 2356 3053 
L 1172 3053 
L 1172 1153 
Q 1172 725 1289 603 
Q 1406 481 1766 481 
L 2356 481 
L 2356 0 
L 1766 0 
Q 1100 0 847 248 
Q 594 497 594 1153 
L 594 3053 
L 172 3053 
L 172 3500 
L 594 3500 
L 594 4494 
L 1172 4494 
z
" transform="scale(0.015625)"/>
      <path id="DejaVuSans-66" d="M 2375 4863 
L 2375 4384 
L 1825 4384 
Q 1516 4384 1395 4259 
Q 1275 4134 1275 3809 
L 1275 3500 
L 2222 3500 
L 2222 3053 
L 1275 3053 
L 1275 0 
L 697 0 
L 697 3053 
L 147 3053 
L 147 3500 
L 697 3500 
L 697 3744 
Q 697 4328 969 4595 
Q 1241 4863 1831 4863 
L 2375 4863 
z
" transform="scale(0.015625)"/>
      <path id="DejaVuSans-63" d="M 3122 3366 
L 3122 2828 
Q 2878 2963 2633 3030 
Q 2388 3097 2138 3097 
Q 1578 3097 1268 2742 
Q 959 2388 959 1747 
Q 959 1106 1268 751 
Q 1578 397 2138 397 
Q 2388 397 2633 464 
Q 2878 531 3122 666 
L 3122 134 
Q 2881 22 2623 -34 
Q 2366 -91 2075 -91 
Q 1284 -91 818 406 
Q 353 903 353 1747 
Q 353 2603 823 3093 
Q 1294 3584 2113 3584 
Q 2378 3584 2631 3529 
Q 2884 3475 3122 3366 
z
" transform="scale(0.015625)"/>
      <path id="DejaVuSans-72" d="M 2631 2963 
Q 2534 3019 2420 3045 
Q 2306 3072 2169 3072 
Q 1681 3072 1420 2755 
Q 1159 2438 1159 1844 
L 1159 0 
L 581 0 
L 581 3500 
L 1159 3500 
L 1159 2956 
Q 1341 3275 1631 3429 
Q 1922 3584 2338 3584 
Q 2397 3584 2469 3576 
Q 2541 3569 2628 3553 
L 2631 2963 
z
" transform="scale(0.015625)"/>
      <path id="DejaVuSans-61" d="M 2194 1759 
Q 1497 1759 1228 1600 
Q 959 1441 959 1056 
Q 959 750 1161 570 
Q 1363 391 1709 391 
Q 2188 391 2477 730 
Q 2766 1069 2766 1631 
L 2766 1759 
L 2194 1759 
z
M 3341 1997 
L 3341 0 
L 2766 0 
L 2766 531 
Q 2569 213 2275 61 
Q 1981 -91 1556 -91 
Q 1019 -91 701 211 
Q 384 513 384 1019 
Q 384 1609 779 1909 
Q 1175 2209 1959 2209 
L 2766 2209 
L 2766 2266 
Q 2766 2663 2505 2880 
Q 2244 3097 1772 3097 
Q 1472 3097 1187 3025 
Q 903 2953 641 2809 
L 641 3341 
Q 956 3463 1253 3523 
Q 1550 3584 1831 3584 
Q 2591 3584 2966 3190 
Q 3341 2797 3341 1997 
z
" transform="scale(0.015625)"/>
      <path id="DejaVuSans-6d" d="M 3328 2828 
Q 3544 3216 3844 3400 
Q 4144 3584 4550 3584 
Q 5097 3584 5394 3201 
Q 5691 2819 5691 2113 
L 5691 0 
L 5113 0 
L 5113 2094 
Q 5113 2597 4934 2840 
Q 4756 3084 4391 3084 
Q 3944 3084 3684 2787 
Q 3425 2491 3425 1978 
L 3425 0 
L 2847 0 
L 2847 2094 
Q 2847 2600 2669 2842 
Q 2491 3084 2119 3084 
Q 1678 3084 1418 2786 
Q 1159 2488 1159 1978 
L 1159 0 
L 581 0 
L 581 3500 
L 1159 3500 
L 1159 2956 
Q 1356 3278 1631 3431 
Q 1906 3584 2284 3584 
Q 2666 3584 2933 3390 
Q 3200 3197 3328 2828 
z
" transform="scale(0.015625)"/>
      <path id="DejaVuSans-65" d="M 3597 1894 
L 3597 1613 
L 953 1613 
Q 991 1019 1311 708 
Q 1631 397 2203 397 
Q 2534 397 2845 478 
Q 3156 559 3463 722 
L 3463 178 
Q 3153 47 2828 -22 
Q 2503 -91 2169 -91 
Q 1331 -91 842 396 
Q 353 884 353 1716 
Q 353 2575 817 3079 
Q 1281 3584 2069 3584 
Q 2775 3584 3186 3129 
Q 3597 2675 3597 1894 
z
M 3022 2063 
Q 3016 2534 2758 2815 
Q 2500 3097 2075 3097 
Q 1594 3097 1305 2825 
Q 1016 2553 972 2059 
L 3022 2063 
z
" transform="scale(0.015625)"/>
      <path id="DejaVuSans-3d" d="M 678 2906 
L 4684 2906 
L 4684 2381 
L 678 2381 
L 678 2906 
z
M 678 1631 
L 4684 1631 
L 4684 1100 
L 678 1100 
L 678 1631 
z
" transform="scale(0.015625)"/>
     </defs>
     <use xlink:href="#DejaVuSans-56"/>
     <use xlink:href="#DejaVuSans-69" x="66.158203"/>
     <use xlink:href="#DejaVuSans-6f" x="93.941406"/>
     <use xlink:href="#DejaVuSans-6c" x="155.123047"/>
     <use xlink:href="#DejaVuSans-69" x="182.90625"/>
     <use xlink:href="#DejaVuSans-6e" x="210.689453"/>
     <use xlink:href="#DejaVuSans-20" x="274.068359"/>
     <use xlink:href="#DejaVuSans-70" x="305.855469"/>
     <use xlink:href="#DejaVuSans-6c" x="369.332031"/>
     <use xlink:href="#DejaVuSans-6f" x="397.115234"/>
     <use xlink:href="#DejaVuSans-74" x="458.296875"/>
     <use xlink:href="#DejaVuSans-20" x="497.505859"/>
     <use xlink:href="#DejaVuSans-6f" x="529.292969"/>
     <use xlink:href="#DejaVuSans-66" x="590.474609"/>
     <use xlink:href="#DejaVuSans-20" x="625.679688"/>
     <use xlink:href="#DejaVuSans-63" x="657.466797"/>
     <use xlink:href="#DejaVuSans-72" x="712.447266"/>
     <use xlink:href="#DejaVuSans-69" x="753.560547"/>
     <use xlink:href="#DejaVuSans-74" x="781.34375"/>
     <use xlink:href="#DejaVuSans-69" x="820.552734"/>
     <use xlink:href="#DejaVuSans-63" x="848.335938"/>
     <use xlink:href="#DejaVuSans-61" x="903.316406"/>
     <use xlink:href="#DejaVuSans-6c" x="964.595703"/>
     <use xlink:href="#DejaVuSans-20" x="992.378906"/>
     <use xlink:href="#DejaVuSans-74" x="1024.166016"/>
     <use xlink:href="#DejaVuSans-69" x="1063.375"/>
     <use xlink:href="#DejaVuSans-6d" x="1091.158203"/>
     <use xlink:href="#DejaVuSans-65" x="1188.570312"/>
     <use xlink:href="#DejaVuSans-20" x="1250.09375"/>
     <use xlink:href="#DejaVuSans-6e" x="1281.880859"/>
     <use xlink:href="#DejaVuSans-20" x="1345.259766"/>
     <use xlink:href="#DejaVuSans-3d" x="1377.046875"/>
     <use xlink:href="#DejaVuSans-20" x="1460.835938"/>
     <use xlink:href="#DejaVuSans-35" x="1492.623047"/>
     <use xlink:href="#DejaVuSans-30" x="1556.246094"/>
     <use xlink:href="#DejaVuSans-30" x="1619.869141"/>
    </g>
   </g>
   <g id="legend_1">
    <g id="patch_7">
     <path d="M 296.806875 68.68575 
L 406.32 68.68575 
Q 408.72 68.68575 408.72 66.28575 
L 408.72 49.872 
Q 408.72 47.472 406.32 47.472 
L 296.806875 47.472 
Q 294.406875 47.472 294.406875 49.872 
L 294.406875 66.28575 
Q 294.406875 68.68575 296.806875 68.68575 
z
" style="fill: #eeeeee; opacity: 0.8; stroke: #cccccc; stroke-width: 0.5; stroke-linejoin: miter"/>
    </g>
    <g id="line2d_23">
     <path d="M 299.206875 57.190125 
L 323.206875 57.190125 
" style="fill: none; stroke-dasharray: 7.4,3.2; stroke-dashoffset: 0; stroke: #ff0000; stroke-width: 2"/>
    </g>
    <g id="text_15">
     <!-- critical time -->
     <g transform="translate(332.806875 61.390125) scale(0.12 -0.12)">
      <use xlink:href="#DejaVuSans-63"/>
      <use xlink:href="#DejaVuSans-72" x="54.980469"/>
      <use xlink:href="#DejaVuSans-69" x="96.09375"/>
      <use xlink:href="#DejaVuSans-74" x="123.876953"/>
      <use xlink:href="#DejaVuSans-69" x="163.085938"/>
      <use xlink:href="#DejaVuSans-63" x="190.869141"/>
      <use xlink:href="#DejaVuSans-61" x="245.849609"/>
      <use xlink:href="#DejaVuSans-6c" x="307.128906"/>
      <use xlink:href="#DejaVuSans-20" x="334.912109"/>
      <use xlink:href="#DejaVuSans-74" x="366.699219"/>
      <use xlink:href="#DejaVuSans-69" x="405.908203"/>
      <use xlink:href="#DejaVuSans-6d" x="433.691406"/>
      <use xlink:href="#DejaVuSans-65" x="531.103516"/>
     </g>
    </g>
   </g>
  </g>
 </g>
 <defs>
  <clipPath id="p8bbb4c43f7">
   <rect x="57.6" y="41.472" width="357.12" height="266.112"/>
  </clipPath>
 </defs>
</svg>
