<?xml version="1.0" encoding="utf-8" standalone="no"?>
<!DOCTYPE svg PUBLIC "-//W3C//DTD SVG 1.1//EN"
  "http://www.w3.org/Graphics/SVG/1.1/DTD/svg11.dtd">
<svg xmlns:xlink="http://www.w3.org/1999/xlink" width="460.8pt" height="345.6pt" viewBox="0 0 460.8 345.6" xmlns="http://www.w3.org/2000/svg" version="1.1">
 <metadata>
  <rdf:RDF xmlns:dc="http://purl.org/dc/elements/1.1/" xmlns:cc="http://creativecommons.org/ns#" xmlns:rdf="http://www.w3.org/1999/02/22-rdf-syntax-ns#">
   <cc:Work>
    <dc:type rdf:resource="http://purl.org/dc/dcmitype/StillImage"/>
    <dc:date>2025-08-21T18:13:44.372416</dc:date>
    <dc:format>image/svg+xml</dc:format>
    <dc:creator>
     <cc:Agent>
      <dc:title>Matplotlib v3.9.2, https://matplotlib.org/</dc:title>
     </cc:Agent>
    </dc:creator>
   </cc:Work>
  </rdf:RDF>
 </metadata>
 <defs>
  <style type="text/css">*{stroke-linejoin: round; stroke-linecap: butt}</style>
 </defs>
 <g id="figure_1">
  <g id="patch_1">
   <path d="M 0 345.6 
L 460.8 345.6 
L 460.8 0 
L 0 0 
z
" style="fill: #ffffff"/>
  </g>
  <g id="axes_1">
   <g id="patch_2">
    <path d="M 57.6 307.584 
L 414.72 307.584 
L 414.72 41.472 
L 57.6 41.472 
z
" style="fill: #eeeeee"/>
   </g>
   <g id="PolyCollection_1">
    <path d="M 82.555896 239.333198 
L 81.902035 239.333198 
L 81.853133 237.965353 
L 81.802339 236.597507 
L 81.74913 235.229661 
L 81.692516 233.861816 
L 81.631157 232.49397 
L 81.56356 231.126124 
L 81.488292 229.758279 
L 81.40417 228.390433 
L 81.310366 227.022587 
L 81.206399 225.654741 
L 81.092029 224.286896 
L 80.967068 222.91905 
L 80.831166 221.551204 
L 80.683658 220.183359 
L 80.523502 218.815513 
L 80.349367 217.447667 
L 80.159847 216.079822 
L 79.953777 214.711976 
L 79.730548 213.34413 
L 79.490358 211.976284 
L 79.23431 210.608439 
L 78.964337 209.240593 
L 78.682965 207.872747 
L 78.393007 206.504902 
L 78.097261 205.137056 
L 77.798329 203.76921 
L 77.498584 202.401365 
L 77.200268 201.033519 
L 76.905662 199.665673 
L 76.617207 198.297827 
L 76.337494 196.929982 
L 76.069065 195.562136 
L 75.814092 194.19429 
L 75.573986 192.826445 
L 75.349132 191.458599 
L 75.138832 190.090753 
L 74.941575 188.722908 
L 74.755596 187.355062 
L 74.579633 185.987216 
L 74.413677 184.61937 
L 74.259517 183.251525 
L 74.120879 181.883679 
L 74.003076 180.515833 
L 73.912196 179.147988 
L 73.853994 177.780142 
L 73.832727 176.412296 
L 73.850225 175.044451 
L 73.905394 173.676605 
L 73.994288 172.308759 
L 74.11071 170.940913 
L 74.247194 169.573068 
L 74.396135 168.205222 
L 74.550817 166.837376 
L 74.706126 165.469531 
L 74.858848 164.101685 
L 75.007542 162.733839 
L 75.152112 161.365994 
L 75.293246 159.998148 
L 75.431936 158.630302 
L 75.569213 157.262456 
L 75.706164 155.894611 
L 75.844176 154.526765 
L 75.985265 153.158919 
L 76.132301 151.791074 
L 76.288961 150.423228 
L 76.459354 149.055382 
L 76.647341 147.687537 
L 76.85571 146.319691 
L 77.085422 144.951845 
L 77.335146 143.583999 
L 77.601215 142.216154 
L 77.878051 140.848308 
L 78.158962 139.480462 
L 78.437138 138.112617 
L 78.706629 136.744771 
L 78.963092 135.376925 
L 79.204189 134.00908 
L 79.429577 132.641234 
L 79.640556 131.273388 
L 79.839474 129.905543 
L 80.029055 128.537697 
L 80.211784 127.169851 
L 80.389465 125.802005 
L 80.562992 124.43416 
L 80.732337 123.066314 
L 80.896703 121.698468 
L 81.054766 120.330623 
L 81.204942 118.962777 
L 81.345622 117.594931 
L 81.475359 116.227086 
L 81.592994 114.85924 
L 81.697745 113.491394 
L 81.789265 112.123548 
L 81.867676 110.755703 
L 81.933572 109.387857 
L 81.98798 108.020011 
L 82.032272 106.652166 
L 82.068032 105.28432 
L 82.096896 103.916474 
L 82.361035 103.916474 
L 82.361035 103.916474 
L 82.3899 105.28432 
L 82.425659 106.652166 
L 82.469951 108.020011 
L 82.524359 109.387857 
L 82.590255 110.755703 
L 82.668666 112.123548 
L 82.760186 113.491394 
L 82.864937 114.85924 
L 82.982572 116.227086 
L 83.112309 117.594931 
L 83.252989 118.962777 
L 83.403165 120.330623 
L 83.561228 121.698468 
L 83.725594 123.066314 
L 83.894939 124.43416 
L 84.068466 125.802005 
L 84.246147 127.169851 
L 84.428876 128.537697 
L 84.618457 129.905543 
L 84.817375 131.273388 
L 85.028354 132.641234 
L 85.253742 134.00908 
L 85.494839 135.376925 
L 85.751302 136.744771 
L 86.020793 138.112617 
L 86.298969 139.480462 
L 86.57988 140.848308 
L 86.856716 142.216154 
L 87.122785 143.583999 
L 87.372509 144.951845 
L 87.602221 146.319691 
L 87.81059 147.687537 
L 87.998577 149.055382 
L 88.16897 150.423228 
L 88.32563 151.791074 
L 88.472666 153.158919 
L 88.613755 154.526765 
L 88.751767 155.894611 
L 88.888718 157.262456 
L 89.025995 158.630302 
L 89.164685 159.998148 
L 89.305819 161.365994 
L 89.450389 162.733839 
L 89.599083 164.101685 
L 89.751805 165.469531 
L 89.907114 166.837376 
L 90.061796 168.205222 
L 90.210737 169.573068 
L 90.347221 170.940913 
L 90.463643 172.308759 
L 90.552537 173.676605 
L 90.607706 175.044451 
L 90.625204 176.412296 
L 90.603937 177.780142 
L 90.545735 179.147988 
L 90.454855 180.515833 
L 90.337052 181.883679 
L 90.198414 183.251525 
L 90.044254 184.61937 
L 89.878298 185.987216 
L 89.702335 187.355062 
L 89.516356 188.722908 
L 89.319099 190.090753 
L 89.108799 191.458599 
L 88.883945 192.826445 
L 88.643839 194.19429 
L 88.388866 195.562136 
L 88.120437 196.929982 
L 87.840724 198.297827 
L 87.55227 199.665673 
L 87.257664 201.033519 
L 86.959347 202.401365 
L 86.659602 203.76921 
L 86.36067 205.137056 
L 86.064924 206.504902 
L 85.774966 207.872747 
L 85.493594 209.240593 
L 85.223621 210.608439 
L 84.967573 211.976284 
L 84.727383 213.34413 
L 84.504154 214.711976 
L 84.298084 216.079822 
L 84.108565 217.447667 
L 83.934429 218.815513 
L 83.774273 220.183359 
L 83.626765 221.551204 
L 83.490863 222.91905 
L 83.365902 224.286896 
L 83.251532 225.654741 
L 83.147566 227.022587 
L 83.053761 228.390433 
L 82.969639 229.758279 
L 82.894371 231.126124 
L 82.826774 232.49397 
L 82.765415 233.861816 
L 82.708801 235.229661 
L 82.655592 236.597507 
L 82.604798 237.965353 
L 82.555896 239.333198 
z
" clip-path="url(#p1c5f679d8e)" style="fill: #348abd; fill-opacity: 0.3"/>
   </g>
   <g id="PolyCollection_2">
    <path d="M 110.480396 230.003771 
L 109.952457 230.003771 
L 109.920303 228.941138 
L 109.889803 227.878506 
L 109.861003 226.815873 
L 109.833394 225.75324 
L 109.805933 224.690607 
L 109.777142 223.627974 
L 109.745284 222.565342 
L 109.708576 221.502709 
L 109.665409 220.440076 
L 109.614531 219.377443 
L 109.555154 218.31481 
L 109.486974 217.252177 
L 109.410097 216.189545 
L 109.324901 215.126912 
L 109.231837 214.064279 
L 109.131226 213.001646 
L 109.023065 211.939013 
L 108.906869 210.876381 
L 108.781591 209.813748 
L 108.645627 208.751115 
L 108.496927 207.688482 
L 108.333203 206.625849 
L 108.152214 205.563216 
L 107.952061 204.500584 
L 107.731435 203.437951 
L 107.489759 202.375318 
L 107.227182 201.312685 
L 106.944449 200.250052 
L 106.642706 199.18742 
L 106.323325 198.124787 
L 105.987852 197.062154 
L 105.638131 195.999521 
L 105.276592 194.936888 
L 104.906617 193.874256 
L 104.532853 192.811623 
L 104.161317 191.74899 
L 103.799195 190.686357 
L 103.454299 189.623724 
L 103.134266 188.561091 
L 102.845672 187.498459 
L 102.593253 186.435826 
L 102.379435 185.373193 
L 102.204302 184.31056 
L 102.065997 183.247927 
L 101.96147 182.185295 
L 101.887374 181.122662 
L 101.840878 180.060029 
L 101.820188 178.997396 
L 101.824659 177.934763 
L 101.854475 176.87213 
L 101.91002 175.809498 
L 101.991111 174.746865 
L 102.096326 173.684232 
L 102.222581 172.621599 
L 102.365072 171.558966 
L 102.517565 170.496334 
L 102.672938 169.433701 
L 102.823845 168.371068 
L 102.963329 167.308435 
L 103.085278 166.245802 
L 103.184665 165.183169 
L 103.257615 164.120537 
L 103.301375 163.057904 
L 103.314372 161.995271 
L 103.296473 160.932638 
L 103.249546 159.870005 
L 103.17824 158.807373 
L 103.090793 157.74474 
L 102.999526 156.682107 
L 102.920653 155.619474 
L 102.873169 154.556841 
L 102.87677 153.494209 
L 102.949114 152.431576 
L 103.102939 151.368943 
L 103.343733 150.30631 
L 103.668539 149.243677 
L 104.066249 148.181044 
L 104.519322 147.118412 
L 105.006544 146.055779 
L 105.506167 144.993146 
L 105.998741 143.930513 
L 106.469114 142.86788 
L 106.907319 141.805248 
L 107.308403 140.742615 
L 107.671482 139.679982 
L 107.998384 138.617349 
L 108.292299 137.554716 
L 108.556674 136.492083 
L 108.794511 135.429451 
L 109.008059 134.366818 
L 109.19883 133.304185 
L 109.367804 132.241552 
L 109.515727 131.178919 
L 109.643393 130.116287 
L 109.75185 129.053654 
L 109.842512 127.991021 
L 109.917156 126.928388 
L 109.977835 125.865755 
L 110.026727 124.803122 
L 110.406126 124.803122 
L 110.406126 124.803122 
L 110.455018 125.865755 
L 110.515697 126.928388 
L 110.590341 127.991021 
L 110.681002 129.053654 
L 110.789459 130.116287 
L 110.917125 131.178919 
L 111.065049 132.241552 
L 111.234023 133.304185 
L 111.424793 134.366818 
L 111.638342 135.429451 
L 111.876179 136.492083 
L 112.140554 137.554716 
L 112.434469 138.617349 
L 112.761371 139.679982 
L 113.124449 140.742615 
L 113.525534 141.805248 
L 113.963738 142.86788 
L 114.434111 143.930513 
L 114.926686 144.993146 
L 115.426308 146.055779 
L 115.91353 147.118412 
L 116.366603 148.181044 
L 116.764313 149.243677 
L 117.08912 150.30631 
L 117.329913 151.368943 
L 117.483739 152.431576 
L 117.556082 153.494209 
L 117.559684 154.556841 
L 117.512199 155.619474 
L 117.433327 156.682107 
L 117.34206 157.74474 
L 117.254613 158.807373 
L 117.183307 159.870005 
L 117.136379 160.932638 
L 117.118481 161.995271 
L 117.131478 163.057904 
L 117.175238 164.120537 
L 117.248187 165.183169 
L 117.347575 166.245802 
L 117.469523 167.308435 
L 117.609007 168.371068 
L 117.759915 169.433701 
L 117.915288 170.496334 
L 118.06778 171.558966 
L 118.210272 172.621599 
L 118.336527 173.684232 
L 118.441741 174.746865 
L 118.522833 175.809498 
L 118.578377 176.87213 
L 118.608194 177.934763 
L 118.612665 178.997396 
L 118.591975 180.060029 
L 118.545479 181.122662 
L 118.471383 182.185295 
L 118.366856 183.247927 
L 118.22855 184.31056 
L 118.053418 185.373193 
L 117.8396 186.435826 
L 117.58718 187.498459 
L 117.298587 188.561091 
L 116.978554 189.623724 
L 116.633657 190.686357 
L 116.271536 191.74899 
L 115.9 192.811623 
L 115.526235 193.874256 
L 115.15626 194.936888 
L 114.794721 195.999521 
L 114.445001 197.062154 
L 114.109528 198.124787 
L 113.790146 199.18742 
L 113.488403 200.250052 
L 113.205671 201.312685 
L 112.943093 202.375318 
L 112.701417 203.437951 
L 112.480792 204.500584 
L 112.280639 205.563216 
L 112.09965 206.625849 
L 111.935926 207.688482 
L 111.787225 208.751115 
L 111.651261 209.813748 
L 111.525984 210.876381 
L 111.409788 211.939013 
L 111.301627 213.001646 
L 111.201016 214.064279 
L 111.107952 215.126912 
L 111.022755 216.189545 
L 110.945879 217.252177 
L 110.877699 218.31481 
L 110.818322 219.377443 
L 110.767444 220.440076 
L 110.724277 221.502709 
L 110.687569 222.565342 
L 110.655711 223.627974 
L 110.62692 224.690607 
L 110.599459 225.75324 
L 110.57185 226.815873 
L 110.543049 227.878506 
L 110.51255 228.941138 
L 110.480396 230.003771 
z
" clip-path="url(#p1c5f679d8e)" style="fill: #348abd; fill-opacity: 0.3"/>
   </g>
   <g id="PolyCollection_3">
    <path d="M 138.424776 222.096418 
L 137.982999 222.096418 
L 137.959248 221.243089 
L 137.937602 220.389759 
L 137.91838 219.536429 
L 137.901574 218.683099 
L 137.886807 217.82977 
L 137.873323 216.97644 
L 137.860005 216.12311 
L 137.845447 215.269781 
L 137.828069 214.416451 
L 137.806274 213.563121 
L 137.778617 212.709792 
L 137.743963 211.856462 
L 137.701596 211.003132 
L 137.651257 210.149802 
L 137.593106 209.296473 
L 137.527624 208.443143 
L 137.455464 207.589813 
L 137.377288 206.736484 
L 137.293605 205.883154 
L 137.204615 205.029824 
L 137.110073 204.176495 
L 137.009166 203.323165 
L 136.900431 202.469835 
L 136.781709 201.616505 
L 136.650189 200.763176 
L 136.502532 199.909846 
L 136.335112 199.056516 
L 136.144321 198.203187 
L 135.926922 197.349857 
L 135.680383 196.496527 
L 135.40314 195.643198 
L 135.094754 194.789868 
L 134.755971 193.936538 
L 134.388712 193.083208 
L 133.996045 192.229879 
L 133.582203 191.376549 
L 133.15265 190.523219 
L 132.714194 189.66989 
L 132.275046 188.81656 
L 131.844744 187.96323 
L 131.433816 187.109901 
L 131.053162 186.256571 
L 130.713144 185.403241 
L 130.422543 184.549911 
L 130.187547 183.696582 
L 130.010997 182.843252 
L 129.892082 181.989922 
L 129.826586 181.136593 
L 129.807649 180.283263 
L 129.82692 179.429933 
L 129.875838 178.576604 
L 129.946799 177.723274 
L 130.033946 176.869944 
L 130.133485 176.016614 
L 130.243482 175.163285 
L 130.363279 174.309955 
L 130.492712 173.456625 
L 130.631349 172.603296 
L 130.777912 171.749966 
L 130.930007 170.896636 
L 131.084142 170.043307 
L 131.235986 169.189977 
L 131.380755 168.336647 
L 131.513606 167.483317 
L 131.629934 166.629988 
L 131.72552 165.776658 
L 131.7965 164.923328 
L 131.839209 164.069999 
L 131.85 163.216669 
L 131.825169 162.363339 
L 131.761184 161.51001 
L 131.655338 160.65668 
L 131.506868 159.80335 
L 131.318443 158.95002 
L 131.097712 158.096691 
L 130.858481 157.243361 
L 130.621044 156.390031 
L 130.41128 155.536702 
L 130.258396 154.683372 
L 130.191508 153.830042 
L 130.235611 152.976713 
L 130.407715 152.123383 
L 130.713942 151.270053 
L 131.148247 150.416723 
L 131.693011 149.563394 
L 132.321408 148.710064 
L 133.001015 147.856734 
L 133.697924 147.003405 
L 134.380606 146.150075 
L 135.022894 145.296745 
L 135.605742 144.443415 
L 136.117723 143.590086 
L 136.554458 142.736756 
L 136.917327 141.883426 
L 137.211846 141.030097 
L 137.446045 140.176767 
L 137.62906 139.323437 
L 137.770064 138.470108 
L 137.877549 137.616778 
L 138.530225 137.616778 
L 138.530225 137.616778 
L 138.63771 138.470108 
L 138.778715 139.323437 
L 138.96173 140.176767 
L 139.195928 141.030097 
L 139.490447 141.883426 
L 139.853316 142.736756 
L 140.290051 143.590086 
L 140.802033 144.443415 
L 141.38488 145.296745 
L 142.027168 146.150075 
L 142.70985 147.003405 
L 143.40676 147.856734 
L 144.086366 148.710064 
L 144.714764 149.563394 
L 145.259527 150.416723 
L 145.693832 151.270053 
L 146.00006 152.123383 
L 146.172163 152.976713 
L 146.216266 153.830042 
L 146.149378 154.683372 
L 145.996494 155.536702 
L 145.78673 156.390031 
L 145.549293 157.243361 
L 145.310062 158.096691 
L 145.089331 158.95002 
L 144.900907 159.80335 
L 144.752437 160.65668 
L 144.64659 161.51001 
L 144.582606 162.363339 
L 144.557775 163.216669 
L 144.568565 164.069999 
L 144.611275 164.923328 
L 144.682254 165.776658 
L 144.77784 166.629988 
L 144.894168 167.483317 
L 145.027019 168.336647 
L 145.171789 169.189977 
L 145.323632 170.043307 
L 145.477767 170.896636 
L 145.629862 171.749966 
L 145.776426 172.603296 
L 145.915062 173.456625 
L 146.044495 174.309955 
L 146.164292 175.163285 
L 146.274289 176.016614 
L 146.373828 176.869944 
L 146.460976 177.723274 
L 146.531936 178.576604 
L 146.580855 179.429933 
L 146.600125 180.283263 
L 146.581189 181.136593 
L 146.515692 181.989922 
L 146.396777 182.843252 
L 146.220227 183.696582 
L 145.985231 184.549911 
L 145.694631 185.403241 
L 145.354613 186.256571 
L 144.973958 187.109901 
L 144.563031 187.96323 
L 144.132728 188.81656 
L 143.69358 189.66989 
L 143.255124 190.523219 
L 142.825571 191.376549 
L 142.411729 192.229879 
L 142.019062 193.083208 
L 141.651803 193.936538 
L 141.31302 194.789868 
L 141.004634 195.643198 
L 140.727391 196.496527 
L 140.480852 197.349857 
L 140.263454 198.203187 
L 140.072662 199.056516 
L 139.905242 199.909846 
L 139.757586 200.763176 
L 139.626065 201.616505 
L 139.507343 202.469835 
L 139.398608 203.323165 
L 139.297701 204.176495 
L 139.203159 205.029824 
L 139.114169 205.883154 
L 139.030486 206.736484 
L 138.952311 207.589813 
L 138.88015 208.443143 
L 138.814668 209.296473 
L 138.756517 210.149802 
L 138.706178 211.003132 
L 138.663811 211.856462 
L 138.629158 212.709792 
L 138.601501 213.563121 
L 138.579705 214.416451 
L 138.562327 215.269781 
L 138.547769 216.12311 
L 138.534451 216.97644 
L 138.520967 217.82977 
L 138.506201 218.683099 
L 138.489394 219.536429 
L 138.470172 220.389759 
L 138.448526 221.243089 
L 138.424776 222.096418 
z
" clip-path="url(#p1c5f679d8e)" style="fill: #348abd; fill-opacity: 0.3"/>
   </g>
   <g id="PolyCollection_4">
    <path d="M 166.382338 214.70269 
L 166.000357 214.70269 
L 165.981913 214.010527 
L 165.964878 213.318365 
L 165.949431 212.626203 
L 165.935628 211.93404 
L 165.9234 211.241878 
L 165.912538 210.549716 
L 165.902675 209.857553 
L 165.893259 209.165391 
L 165.883545 208.473229 
L 165.8726 207.781066 
L 165.859357 207.088904 
L 165.842693 206.396741 
L 165.821533 205.704579 
L 165.794957 205.012417 
L 165.762283 204.320254 
L 165.723102 203.628092 
L 165.677274 202.93593 
L 165.624856 202.243767 
L 165.566007 201.551605 
L 165.500864 200.859443 
L 165.429428 200.16728 
L 165.351455 199.475118 
L 165.266366 198.782956 
L 165.173181 198.090793 
L 165.070464 197.398631 
L 164.95629 196.706468 
L 164.828233 196.014306 
L 164.683401 195.322144 
L 164.518525 194.629981 
L 164.330118 193.937819 
L 164.114694 193.245657 
L 163.869061 192.553494 
L 163.590635 191.861332 
L 163.277761 191.16917 
L 162.930022 190.477007 
L 162.54849 189.784845 
L 162.135936 189.092682 
L 161.696963 188.40052 
L 161.238077 187.708358 
L 160.767665 187.016195 
L 160.295845 186.324033 
L 159.834153 185.631871 
L 159.395025 184.939708 
L 158.991061 184.247546 
L 158.634107 183.555384 
L 158.334224 182.863221 
L 158.098693 182.171059 
L 157.931216 181.478897 
L 157.831464 180.786734 
L 157.79511 180.094572 
L 157.814357 179.402409 
L 157.87892 178.710247 
L 157.977309 178.018085 
L 158.09819 177.325922 
L 158.231603 176.63376 
L 158.369848 175.941598 
L 158.507897 175.249435 
L 158.643329 174.557273 
L 158.775857 173.865111 
L 158.906579 173.172948 
L 159.03716 172.480786 
L 159.169084 171.788623 
L 159.303109 171.096461 
L 159.438983 170.404299 
L 159.57541 169.712136 
L 159.710208 169.019974 
L 159.840576 168.327812 
L 159.963399 167.635649 
L 160.075505 166.943487 
L 160.173852 166.251325 
L 160.255591 165.559162 
L 160.318021 164.867 
L 160.358434 164.174838 
L 160.37391 163.482675 
L 160.361111 162.790513 
L 160.316211 162.09835 
L 160.235059 161.406188 
L 160.113707 160.714026 
L 159.949334 160.021863 
L 159.74153 159.329701 
L 159.493769 158.637539 
L 159.214772 157.945376 
L 158.919387 157.253214 
L 158.628658 156.561052 
L 158.368795 155.868889 
L 158.169022 155.176727 
L 158.058471 154.484565 
L 158.06257 153.792402 
L 158.199516 153.10024 
L 158.477468 152.408077 
L 158.893017 151.715915 
L 159.431225 151.023753 
L 160.067261 150.33159 
L 160.769336 149.639428 
L 161.502409 148.947266 
L 162.23204 148.255103 
L 162.927771 147.562941 
L 163.565597 146.870779 
L 164.129271 146.178616 
L 168.253425 146.178616 
L 168.253425 146.178616 
L 168.817099 146.870779 
L 169.454925 147.562941 
L 170.150656 148.255103 
L 170.880287 148.947266 
L 171.61336 149.639428 
L 172.315435 150.33159 
L 172.951471 151.023753 
L 173.489679 151.715915 
L 173.905228 152.408077 
L 174.18318 153.10024 
L 174.320126 153.792402 
L 174.324225 154.484565 
L 174.213674 155.176727 
L 174.013901 155.868889 
L 173.754038 156.561052 
L 173.463309 157.253214 
L 173.167924 157.945376 
L 172.888927 158.637539 
L 172.641166 159.329701 
L 172.433362 160.021863 
L 172.268988 160.714026 
L 172.147637 161.406188 
L 172.066485 162.09835 
L 172.021585 162.790513 
L 172.008786 163.482675 
L 172.024262 164.174838 
L 172.064675 164.867 
L 172.127105 165.559162 
L 172.208844 166.251325 
L 172.307191 166.943487 
L 172.419297 167.635649 
L 172.54212 168.327812 
L 172.672488 169.019974 
L 172.807286 169.712136 
L 172.943713 170.404299 
L 173.079587 171.096461 
L 173.213612 171.788623 
L 173.345536 172.480786 
L 173.476117 173.172948 
L 173.606839 173.865111 
L 173.739366 174.557273 
L 173.874799 175.249435 
L 174.012848 175.941598 
L 174.151093 176.63376 
L 174.284506 177.325922 
L 174.405386 178.018085 
L 174.503776 178.710247 
L 174.568339 179.402409 
L 174.587586 180.094572 
L 174.551232 180.786734 
L 174.45148 181.478897 
L 174.284002 182.171059 
L 174.048472 182.863221 
L 173.748589 183.555384 
L 173.391635 184.247546 
L 172.987671 184.939708 
L 172.548543 185.631871 
L 172.086851 186.324033 
L 171.615031 187.016195 
L 171.144619 187.708358 
L 170.685733 188.40052 
L 170.24676 189.092682 
L 169.834206 189.784845 
L 169.452674 190.477007 
L 169.104935 191.16917 
L 168.792061 191.861332 
L 168.513634 192.553494 
L 168.268002 193.245657 
L 168.052578 193.937819 
L 167.864171 194.629981 
L 167.699295 195.322144 
L 167.554463 196.014306 
L 167.426406 196.706468 
L 167.312232 197.398631 
L 167.209515 198.090793 
L 167.11633 198.782956 
L 167.031241 199.475118 
L 166.953268 200.16728 
L 166.881832 200.859443 
L 166.816689 201.551605 
L 166.75784 202.243767 
L 166.705422 202.93593 
L 166.659593 203.628092 
L 166.620413 204.320254 
L 166.587738 205.012417 
L 166.561163 205.704579 
L 166.540003 206.396741 
L 166.523339 207.088904 
L 166.510096 207.781066 
L 166.499151 208.473229 
L 166.489437 209.165391 
L 166.480021 209.857553 
L 166.470158 210.549716 
L 166.459296 211.241878 
L 166.447068 211.93404 
L 166.433265 212.626203 
L 166.417818 213.318365 
L 166.400782 214.010527 
L 166.382338 214.70269 
z
" clip-path="url(#p1c5f679d8e)" style="fill: #348abd; fill-opacity: 0.3"/>
   </g>
   <g id="PolyCollection_5">
    <path d="M 194.360088 207.761454 
L 193.99753 207.761454 
L 193.981461 207.180309 
L 193.966553 206.599164 
L 193.952934 206.018019 
L 193.940649 205.436874 
L 193.929673 204.855729 
L 193.9199 204.274584 
L 193.911136 203.693439 
L 193.903067 203.112294 
L 193.895233 202.531149 
L 193.887002 201.950004 
L 193.877572 201.368859 
L 193.865987 200.787714 
L 193.851188 200.206569 
L 193.83208 199.625424 
L 193.80761 199.044279 
L 193.776831 198.463134 
L 193.738952 197.881989 
L 193.693347 197.300844 
L 193.639529 196.7197 
L 193.577085 196.138555 
L 193.505597 195.55741 
L 193.424531 194.976265 
L 193.333138 194.39512 
L 193.230362 193.813975 
L 193.114763 193.23283 
L 192.984473 192.651685 
L 192.837181 192.07054 
L 192.670165 191.489395 
L 192.480379 190.90825 
L 192.264593 190.327105 
L 192.019612 189.74596 
L 191.742556 189.164815 
L 191.431203 188.58367 
L 191.084368 188.002525 
L 190.702291 187.42138 
L 190.286994 186.840235 
L 189.842559 186.25909 
L 189.375286 185.677946 
L 188.893683 185.096801 
L 188.408268 184.515656 
L 187.931145 183.934511 
L 187.475381 183.353366 
L 187.054197 182.772221 
L 186.680035 182.191076 
L 186.363584 181.609931 
L 186.112879 181.028786 
L 185.932571 180.447641 
L 185.823491 179.866496 
L 185.782571 179.285351 
L 185.80317 178.704206 
L 185.875766 178.123061 
L 185.988946 177.541916 
L 186.130561 176.960771 
L 186.288895 176.379626 
L 186.45369 175.798481 
L 186.616905 175.217336 
L 186.773114 174.636191 
L 186.919532 174.055047 
L 187.0557 173.473902 
L 187.182922 172.892757 
L 187.303565 172.311612 
L 187.42035 171.730467 
L 187.535753 171.149322 
L 187.651555 170.568177 
L 187.768617 169.987032 
L 187.886829 169.405887 
L 188.005212 168.824742 
L 188.122123 168.243597 
L 188.235483 167.662452 
L 188.342999 167.081307 
L 188.442349 166.500162 
L 188.531301 165.919017 
L 188.607766 165.337872 
L 188.669782 164.756727 
L 188.715428 164.175582 
L 188.742682 163.594437 
L 188.749243 163.013292 
L 188.732363 162.432148 
L 188.68876 161.851003 
L 188.614681 161.269858 
L 188.506214 160.688713 
L 188.359885 160.107568 
L 188.173547 159.526423 
L 187.947479 158.945278 
L 187.685552 158.364133 
L 187.39622 157.782988 
L 187.093092 157.201843 
L 186.794859 156.620698 
L 186.524407 156.039553 
L 186.307111 155.458408 
L 186.168452 154.877263 
L 186.131229 154.296118 
L 186.212795 153.714973 
L 186.422734 153.133828 
L 186.761388 152.552683 
L 187.219482 151.971538 
L 187.77894 151.390394 
L 188.414753 150.809249 
L 189.097616 150.228104 
L 199.260001 150.228104 
L 199.260001 150.228104 
L 199.942865 150.809249 
L 200.578678 151.390394 
L 201.138136 151.971538 
L 201.59623 152.552683 
L 201.934883 153.133828 
L 202.144822 153.714973 
L 202.226388 154.296118 
L 202.189166 154.877263 
L 202.050506 155.458408 
L 201.833211 156.039553 
L 201.562758 156.620698 
L 201.264525 157.201843 
L 200.961398 157.782988 
L 200.672066 158.364133 
L 200.410139 158.945278 
L 200.184071 159.526423 
L 199.997732 160.107568 
L 199.851404 160.688713 
L 199.742937 161.269858 
L 199.668858 161.851003 
L 199.625254 162.432148 
L 199.608375 163.013292 
L 199.614935 163.594437 
L 199.642189 164.175582 
L 199.687835 164.756727 
L 199.749851 165.337872 
L 199.826316 165.919017 
L 199.915269 166.500162 
L 200.014619 167.081307 
L 200.122135 167.662452 
L 200.235494 168.243597 
L 200.352405 168.824742 
L 200.470789 169.405887 
L 200.589 169.987032 
L 200.706062 170.568177 
L 200.821865 171.149322 
L 200.937267 171.730467 
L 201.054053 172.311612 
L 201.174695 172.892757 
L 201.301917 173.473902 
L 201.438086 174.055047 
L 201.584504 174.636191 
L 201.740713 175.217336 
L 201.903928 175.798481 
L 202.068723 176.379626 
L 202.227056 176.960771 
L 202.368671 177.541916 
L 202.481851 178.123061 
L 202.554448 178.704206 
L 202.575047 179.285351 
L 202.534127 179.866496 
L 202.425046 180.447641 
L 202.244738 181.028786 
L 201.994033 181.609931 
L 201.677583 182.191076 
L 201.30342 182.772221 
L 200.882237 183.353366 
L 200.426473 183.934511 
L 199.94935 184.515656 
L 199.463934 185.096801 
L 198.982332 185.677946 
L 198.515058 186.25909 
L 198.070623 186.840235 
L 197.655326 187.42138 
L 197.27325 188.002525 
L 196.926415 188.58367 
L 196.615062 189.164815 
L 196.338006 189.74596 
L 196.093024 190.327105 
L 195.877238 190.90825 
L 195.687452 191.489395 
L 195.520437 192.07054 
L 195.373145 192.651685 
L 195.242854 193.23283 
L 195.127256 193.813975 
L 195.02448 194.39512 
L 194.933087 194.976265 
L 194.85202 195.55741 
L 194.780532 196.138555 
L 194.718089 196.7197 
L 194.66427 197.300844 
L 194.618665 197.881989 
L 194.580787 198.463134 
L 194.550008 199.044279 
L 194.525538 199.625424 
L 194.50643 200.206569 
L 194.491631 200.787714 
L 194.480046 201.368859 
L 194.470616 201.950004 
L 194.462385 202.531149 
L 194.45455 203.112294 
L 194.446481 203.693439 
L 194.437718 204.274584 
L 194.427945 204.855729 
L 194.416968 205.436874 
L 194.404684 206.018019 
L 194.391064 206.599164 
L 194.376157 207.180309 
L 194.360088 207.761454 
z
" clip-path="url(#p1c5f679d8e)" style="fill: #348abd; fill-opacity: 0.3"/>
   </g>
   <g id="PolyCollection_6">
    <path d="M 222.3429 201.569719 
L 221.989639 201.569719 
L 221.97466 201.059823 
L 221.960529 200.549928 
L 221.947269 200.040033 
L 221.934826 199.530138 
L 221.923068 199.020243 
L 221.911793 198.510347 
L 221.900717 198.000452 
L 221.889452 197.490557 
L 221.877488 196.980662 
L 221.864162 196.470766 
L 221.848646 195.960871 
L 221.829944 195.450976 
L 221.806909 194.941081 
L 221.778279 194.431186 
L 221.742718 193.92129 
L 221.698863 193.411395 
L 221.645356 192.9015 
L 221.580855 192.391605 
L 221.504023 191.881709 
L 221.413479 191.371814 
L 221.30774 190.861919 
L 221.185143 190.352024 
L 221.043785 189.842128 
L 220.881478 189.332233 
L 220.695758 188.822338 
L 220.483962 188.312443 
L 220.243361 187.802548 
L 219.971394 187.292652 
L 219.665956 186.782757 
L 219.325752 186.272862 
L 218.950676 185.762967 
L 218.542171 185.253071 
L 218.103546 184.743176 
L 217.640173 184.233281 
L 217.159545 183.723386 
L 216.671143 183.21349 
L 216.186108 182.703595 
L 215.716711 182.1937 
L 215.275655 181.683805 
L 214.875263 181.17391 
L 214.526616 180.664014 
L 214.238733 180.154119 
L 214.017869 179.644224 
L 213.867024 179.134329 
L 213.785712 178.624433 
L 213.770031 178.114538 
L 213.813035 177.604643 
L 213.905364 177.094748 
L 214.036086 176.584852 
L 214.193634 176.074957 
L 214.366761 175.565062 
L 214.545391 175.055167 
L 214.721283 174.545272 
L 214.888453 174.035376 
L 215.043314 173.525481 
L 215.184547 173.015586 
L 215.312754 172.505691 
L 215.429937 171.995795 
L 215.538924 171.4859 
L 215.64278 170.976005 
L 215.744324 170.46611 
L 215.845755 169.956214 
L 215.948452 169.446319 
L 216.052911 168.936424 
L 216.158812 168.426529 
L 216.265163 167.916634 
L 216.370494 167.406738 
L 216.473041 166.896843 
L 216.570913 166.386948 
L 216.662214 165.877053 
L 216.745125 165.367157 
L 216.817935 164.857262 
L 216.879039 164.347367 
L 216.926882 163.837472 
L 216.959873 163.327577 
L 216.976249 162.817681 
L 216.973936 162.307786 
L 216.950408 161.797891 
L 216.902625 161.287996 
L 216.827084 160.7781 
L 216.720064 160.268205 
L 216.5781 159.75831 
L 216.398683 159.248415 
L 216.181155 158.738519 
L 215.927681 158.228624 
L 215.644145 157.718729 
L 215.340783 157.208834 
L 215.032359 156.698939 
L 214.737747 156.189043 
L 214.478851 155.679148 
L 214.278911 155.169253 
L 214.160349 154.659358 
L 214.142427 154.149462 
L 214.239035 153.639567 
L 214.456939 153.129672 
L 214.794769 152.619777 
L 215.242911 152.109881 
L 215.78433 151.599986 
L 216.396219 151.090091 
L 227.93632 151.090091 
L 227.93632 151.090091 
L 228.548209 151.599986 
L 229.089629 152.109881 
L 229.53777 152.619777 
L 229.8756 153.129672 
L 230.093504 153.639567 
L 230.190112 154.149462 
L 230.17219 154.659358 
L 230.053628 155.169253 
L 229.853688 155.679148 
L 229.594792 156.189043 
L 229.30018 156.698939 
L 228.991756 157.208834 
L 228.688394 157.718729 
L 228.404858 158.228624 
L 228.151384 158.738519 
L 227.933856 159.248415 
L 227.754439 159.75831 
L 227.612475 160.268205 
L 227.505456 160.7781 
L 227.429914 161.287996 
L 227.382131 161.797891 
L 227.358603 162.307786 
L 227.35629 162.817681 
L 227.372666 163.327577 
L 227.405657 163.837472 
L 227.4535 164.347367 
L 227.514604 164.857262 
L 227.587414 165.367157 
L 227.670325 165.877053 
L 227.761626 166.386948 
L 227.859498 166.896843 
L 227.962046 167.406738 
L 228.067376 167.916634 
L 228.173728 168.426529 
L 228.279628 168.936424 
L 228.384087 169.446319 
L 228.486784 169.956214 
L 228.588215 170.46611 
L 228.689759 170.976005 
L 228.793616 171.4859 
L 228.902602 171.995795 
L 229.019786 172.505691 
L 229.147992 173.015586 
L 229.289226 173.525481 
L 229.444086 174.035376 
L 229.611256 174.545272 
L 229.787148 175.055167 
L 229.965778 175.565062 
L 230.138905 176.074957 
L 230.296453 176.584852 
L 230.427175 177.094748 
L 230.519504 177.604643 
L 230.562508 178.114538 
L 230.546827 178.624433 
L 230.465515 179.134329 
L 230.31467 179.644224 
L 230.093806 180.154119 
L 229.805923 180.664014 
L 229.457276 181.17391 
L 229.056884 181.683805 
L 228.615828 182.1937 
L 228.146431 182.703595 
L 227.661396 183.21349 
L 227.172995 183.723386 
L 226.692366 184.233281 
L 226.228993 184.743176 
L 225.790368 185.253071 
L 225.381863 185.762967 
L 225.006787 186.272862 
L 224.666583 186.782757 
L 224.361146 187.292652 
L 224.089178 187.802548 
L 223.848578 188.312443 
L 223.636781 188.822338 
L 223.451062 189.332233 
L 223.288754 189.842128 
L 223.147396 190.352024 
L 223.0248 190.861919 
L 222.91906 191.371814 
L 222.828516 191.881709 
L 222.751684 192.391605 
L 222.687183 192.9015 
L 222.633676 193.411395 
L 222.589821 193.92129 
L 222.55426 194.431186 
L 222.52563 194.941081 
L 222.502595 195.450976 
L 222.483893 195.960871 
L 222.468377 196.470766 
L 222.455051 196.980662 
L 222.443087 197.490557 
L 222.431822 198.000452 
L 222.420746 198.510347 
L 222.409471 199.020243 
L 222.397713 199.530138 
L 222.38527 200.040033 
L 222.372011 200.549928 
L 222.35788 201.059823 
L 222.3429 201.569719 
z
" clip-path="url(#p1c5f679d8e)" style="fill: #348abd; fill-opacity: 0.3"/>
   </g>
   <g id="PolyCollection_7">
    <path d="M 250.346196 195.833106 
L 249.961265 195.833106 
L 249.943529 195.382538 
L 249.925871 194.931971 
L 249.908163 194.481403 
L 249.890156 194.030836 
L 249.871463 193.580268 
L 249.851554 193.1297 
L 249.829741 192.679133 
L 249.805166 192.228565 
L 249.776787 191.777998 
L 249.743368 191.32743 
L 249.703473 190.876863 
L 249.655468 190.426295 
L 249.597526 189.975728 
L 249.527648 189.52516 
L 249.443677 189.074592 
L 249.343327 188.624025 
L 249.224217 188.173457 
L 249.083904 187.72289 
L 248.919939 187.272322 
L 248.729932 186.821755 
L 248.511649 186.371187 
L 248.26314 185.92062 
L 247.982899 185.470052 
L 247.670061 185.019484 
L 247.324613 184.568917 
L 246.94762 184.118349 
L 246.541427 183.667782 
L 246.109816 183.217214 
L 245.658094 182.766647 
L 245.193077 182.316079 
L 244.722962 181.865512 
L 244.25707 181.414944 
L 243.805478 180.964376 
L 243.378539 180.513809 
L 242.98634 180.063241 
L 242.638124 179.612674 
L 242.341731 179.162106 
L 242.103096 178.711539 
L 241.925866 178.260971 
L 241.811159 177.810404 
L 241.757492 177.359836 
L 241.760902 176.909268 
L 241.815236 176.458701 
L 241.912606 176.008133 
L 242.043956 175.557566 
L 242.199702 175.106998 
L 242.370388 174.656431 
L 242.547289 174.205863 
L 242.722926 173.755296 
L 242.891433 173.304728 
L 243.048763 172.85416 
L 243.192712 172.403593 
L 243.322784 171.953025 
L 243.439911 171.502458 
L 243.546077 171.05189 
L 243.643901 170.601323 
L 243.736215 170.150755 
L 243.825692 169.700188 
L 243.914563 169.24962 
L 244.004429 168.799052 
L 244.096181 168.348485 
L 244.190014 167.897917 
L 244.285514 167.44735 
L 244.381786 166.996782 
L 244.477595 166.546215 
L 244.571506 166.095647 
L 244.661992 165.64508 
L 244.747519 165.194512 
L 244.826597 164.743944 
L 244.8978 164.293377 
L 244.959766 163.842809 
L 245.011172 163.392242 
L 245.050688 162.941674 
L 245.076899 162.491107 
L 245.088219 162.040539 
L 245.082783 161.589972 
L 245.058352 161.139404 
L 245.012265 160.688836 
L 244.941466 160.238269 
L 244.842663 159.787701 
L 244.712631 159.337134 
L 244.548701 158.886566 
L 244.349386 158.435999 
L 244.11511 157.985431 
L 243.84895 157.534864 
L 243.557253 157.084296 
L 243.250022 156.633728 
L 242.940928 156.183161 
L 242.64688 155.732593 
L 242.387104 155.282026 
L 242.181795 154.831458 
L 242.050441 154.380891 
L 242.010022 153.930323 
L 242.073278 153.479756 
L 242.24731 153.029188 
L 242.532675 152.57862 
L 242.923136 152.128053 
L 243.406093 151.677485 
L 243.963649 151.226918 
L 256.343812 151.226918 
L 256.343812 151.226918 
L 256.901368 151.677485 
L 257.384325 152.128053 
L 257.774786 152.57862 
L 258.060151 153.029188 
L 258.234183 153.479756 
L 258.297439 153.930323 
L 258.257019 154.380891 
L 258.125666 154.831458 
L 257.920356 155.282026 
L 257.66058 155.732593 
L 257.366532 156.183161 
L 257.057439 156.633728 
L 256.750208 157.084296 
L 256.458511 157.534864 
L 256.192351 157.985431 
L 255.958075 158.435999 
L 255.75876 158.886566 
L 255.59483 159.337134 
L 255.464798 159.787701 
L 255.365995 160.238269 
L 255.295196 160.688836 
L 255.249109 161.139404 
L 255.224678 161.589972 
L 255.219241 162.040539 
L 255.230562 162.491107 
L 255.256773 162.941674 
L 255.296288 163.392242 
L 255.347695 163.842809 
L 255.409661 164.293377 
L 255.480863 164.743944 
L 255.559941 165.194512 
L 255.645469 165.64508 
L 255.735955 166.095647 
L 255.829866 166.546215 
L 255.925675 166.996782 
L 256.021947 167.44735 
L 256.117447 167.897917 
L 256.21128 168.348485 
L 256.303032 168.799052 
L 256.392898 169.24962 
L 256.481769 169.700188 
L 256.571246 170.150755 
L 256.663559 170.601323 
L 256.761384 171.05189 
L 256.86755 171.502458 
L 256.984677 171.953025 
L 257.114749 172.403593 
L 257.258698 172.85416 
L 257.416028 173.304728 
L 257.584535 173.755296 
L 257.760171 174.205863 
L 257.937073 174.656431 
L 258.107759 175.106998 
L 258.263505 175.557566 
L 258.394855 176.008133 
L 258.492225 176.458701 
L 258.546559 176.909268 
L 258.549969 177.359836 
L 258.496302 177.810404 
L 258.381595 178.260971 
L 258.204365 178.711539 
L 257.96573 179.162106 
L 257.669336 179.612674 
L 257.321121 180.063241 
L 256.928922 180.513809 
L 256.501983 180.964376 
L 256.050391 181.414944 
L 255.584499 181.865512 
L 255.114383 182.316079 
L 254.649367 182.766647 
L 254.197645 183.217214 
L 253.766034 183.667782 
L 253.359841 184.118349 
L 252.982848 184.568917 
L 252.6374 185.019484 
L 252.324562 185.470052 
L 252.044321 185.92062 
L 251.795812 186.371187 
L 251.577529 186.821755 
L 251.387522 187.272322 
L 251.223556 187.72289 
L 251.083244 188.173457 
L 250.964134 188.624025 
L 250.863784 189.074592 
L 250.779813 189.52516 
L 250.709934 189.975728 
L 250.651993 190.426295 
L 250.603988 190.876863 
L 250.564093 191.32743 
L 250.530674 191.777998 
L 250.502295 192.228565 
L 250.477719 192.679133 
L 250.455906 193.1297 
L 250.435998 193.580268 
L 250.417305 194.030836 
L 250.399297 194.481403 
L 250.38159 194.931971 
L 250.363932 195.382538 
L 250.346196 195.833106 
z
" clip-path="url(#p1c5f679d8e)" style="fill: #348abd; fill-opacity: 0.3"/>
   </g>
   <g id="PolyCollection_8">
    <path d="M 278.396087 190.905747 
L 277.886296 190.905747 
L 277.856996 190.503195 
L 277.825321 190.100644 
L 277.790604 189.698093 
L 277.751946 189.295541 
L 277.708189 188.89299 
L 277.657916 188.490438 
L 277.599448 188.087887 
L 277.530858 187.685336 
L 277.450006 187.282784 
L 277.354574 186.880233 
L 277.24213 186.477682 
L 277.110201 186.07513 
L 276.956357 185.672579 
L 276.778315 185.270028 
L 276.574051 184.867476 
L 276.341919 184.464925 
L 276.080782 184.062374 
L 275.790135 183.659822 
L 275.47023 183.257271 
L 275.122185 182.85472 
L 274.748071 182.452168 
L 274.350976 182.049617 
L 273.935023 181.647066 
L 273.505343 181.244514 
L 273.068002 180.841963 
L 272.629855 180.439412 
L 272.19836 180.03686 
L 271.781326 179.634309 
L 271.386627 179.231758 
L 271.02187 178.829206 
L 270.694068 178.426655 
L 270.409299 178.024104 
L 270.172408 177.621552 
L 269.986745 177.219001 
L 269.853984 176.81645 
L 269.774017 176.413898 
L 269.744953 176.011347 
L 269.763216 175.608796 
L 269.823747 175.206244 
L 269.92029 174.803693 
L 270.045755 174.401142 
L 270.19263 173.99859 
L 270.353397 173.596039 
L 270.520952 173.193488 
L 270.688967 172.790936 
L 270.852183 172.388385 
L 271.006608 171.985834 
L 271.149614 171.583282 
L 271.279916 171.180731 
L 271.397462 170.77818 
L 271.50323 170.375628 
L 271.598968 169.973077 
L 271.686906 169.570526 
L 271.76946 169.167974 
L 271.848967 168.765423 
L 271.927472 168.362872 
L 272.006566 167.96032 
L 272.087311 167.557769 
L 272.170215 167.155218 
L 272.255273 166.752666 
L 272.342041 166.350115 
L 272.429738 165.947564 
L 272.517346 165.545012 
L 272.603703 165.142461 
L 272.687579 164.73991 
L 272.767729 164.337358 
L 272.842919 163.934807 
L 272.911939 163.532256 
L 272.973599 163.129704 
L 273.026711 162.727153 
L 273.070062 162.324602 
L 273.102372 161.92205 
L 273.122248 161.519499 
L 273.128119 161.116948 
L 273.118181 160.714396 
L 273.090343 160.311845 
L 273.042207 159.909294 
L 272.971104 159.506742 
L 272.874209 159.104191 
L 272.748757 158.70164 
L 272.592368 158.299088 
L 272.40348 157.896537 
L 272.181865 157.493985 
L 271.929164 157.091434 
L 271.649392 156.688883 
L 271.349318 156.286331 
L 271.038645 155.88378 
L 270.729907 155.481229 
L 270.438051 155.078677 
L 270.179687 154.676126 
L 269.972044 154.273575 
L 269.831717 153.871023 
L 269.77332 153.468472 
L 269.808201 153.065921 
L 269.943348 152.663369 
L 270.18065 152.260818 
L 270.516574 151.858267 
L 270.942335 151.455715 
L 271.444516 151.053164 
L 284.837866 151.053164 
L 284.837866 151.053164 
L 285.340047 151.455715 
L 285.765808 151.858267 
L 286.101733 152.260818 
L 286.339035 152.663369 
L 286.474182 153.065921 
L 286.509062 153.468472 
L 286.450665 153.871023 
L 286.310338 154.273575 
L 286.102695 154.676126 
L 285.844331 155.078677 
L 285.552475 155.481229 
L 285.243737 155.88378 
L 284.933064 156.286331 
L 284.632991 156.688883 
L 284.353218 157.091434 
L 284.100517 157.493985 
L 283.878902 157.896537 
L 283.690015 158.299088 
L 283.533626 158.70164 
L 283.408173 159.104191 
L 283.311279 159.506742 
L 283.240176 159.909294 
L 283.192039 160.311845 
L 283.164201 160.714396 
L 283.154263 161.116948 
L 283.160135 161.519499 
L 283.18001 161.92205 
L 283.21232 162.324602 
L 283.255671 162.727153 
L 283.308784 163.129704 
L 283.370444 163.532256 
L 283.439464 163.934807 
L 283.514654 164.337358 
L 283.594803 164.73991 
L 283.67868 165.142461 
L 283.765037 165.545012 
L 283.852644 165.947564 
L 283.940341 166.350115 
L 284.027109 166.752666 
L 284.112167 167.155218 
L 284.195071 167.557769 
L 284.275816 167.96032 
L 284.354911 168.362872 
L 284.433415 168.765423 
L 284.512923 169.167974 
L 284.595476 169.570526 
L 284.683414 169.973077 
L 284.779153 170.375628 
L 284.884921 170.77818 
L 285.002467 171.180731 
L 285.132769 171.583282 
L 285.275774 171.985834 
L 285.430199 172.388385 
L 285.593415 172.790936 
L 285.761431 173.193488 
L 285.928986 173.596039 
L 286.089753 173.99859 
L 286.236627 174.401142 
L 286.362093 174.803693 
L 286.458636 175.206244 
L 286.519166 175.608796 
L 286.537429 176.011347 
L 286.508365 176.413898 
L 286.428398 176.81645 
L 286.295637 177.219001 
L 286.109975 177.621552 
L 285.873083 178.024104 
L 285.588315 178.426655 
L 285.260512 178.829206 
L 284.895756 179.231758 
L 284.501056 179.634309 
L 284.084023 180.03686 
L 283.652528 180.439412 
L 283.214381 180.841963 
L 282.777039 181.244514 
L 282.34736 181.647066 
L 281.931407 182.049617 
L 281.534312 182.452168 
L 281.160198 182.85472 
L 280.812152 183.257271 
L 280.492247 183.659822 
L 280.201601 184.062374 
L 279.940464 184.464925 
L 279.708332 184.867476 
L 279.504067 185.270028 
L 279.326025 185.672579 
L 279.172181 186.07513 
L 279.040252 186.477682 
L 278.927809 186.880233 
L 278.832377 187.282784 
L 278.751524 187.685336 
L 278.682935 188.087887 
L 278.624466 188.490438 
L 278.574193 188.89299 
L 278.530437 189.295541 
L 278.491778 189.698093 
L 278.457062 190.100644 
L 278.425387 190.503195 
L 278.396087 190.905747 
z
" clip-path="url(#p1c5f679d8e)" style="fill: #348abd; fill-opacity: 0.3"/>
   </g>
   <g id="PolyCollection_9">
    <path d="M 306.509329 187.125682 
L 305.747975 187.125682 
L 305.691382 186.758225 
L 305.627048 186.390768 
L 305.553639 186.023311 
L 305.469633 185.655854 
L 305.373344 185.288397 
L 305.262968 184.920941 
L 305.136637 184.553484 
L 304.992488 184.186027 
L 304.828744 183.81857 
L 304.643803 183.451113 
L 304.436335 183.083657 
L 304.205371 182.7162 
L 303.950397 182.348743 
L 303.671436 181.981286 
L 303.36912 181.613829 
L 303.044748 181.246373 
L 302.700322 180.878916 
L 302.338569 180.511459 
L 301.962927 180.144002 
L 301.577513 179.776545 
L 301.187056 179.409088 
L 300.796805 179.041632 
L 300.412401 178.674175 
L 300.039727 178.306718 
L 299.684725 177.939261 
L 299.353198 177.571804 
L 299.050604 177.204348 
L 298.781841 176.836891 
L 298.55104 176.469434 
L 298.361382 176.101977 
L 298.214946 175.73452 
L 298.112595 175.367064 
L 298.053926 174.999607 
L 298.037265 174.63215 
L 298.059739 174.264693 
L 298.117407 173.897236 
L 298.20544 173.529779 
L 298.318367 173.162323 
L 298.450337 172.794866 
L 298.595407 172.427409 
L 298.747834 172.059952 
L 298.902337 171.692495 
L 299.054324 171.325039 
L 299.200071 170.957582 
L 299.336831 170.590125 
L 299.462877 170.222668 
L 299.577471 169.855211 
L 299.680779 169.487755 
L 299.773719 169.120298 
L 299.857783 168.752841 
L 299.934829 168.385384 
L 300.006875 168.017927 
L 300.075908 167.65047 
L 300.143718 167.283014 
L 300.211778 166.915557 
L 300.281163 166.5481 
L 300.352524 166.180643 
L 300.426092 165.813186 
L 300.501724 165.44573 
L 300.578967 165.078273 
L 300.657132 164.710816 
L 300.735365 164.343359 
L 300.812712 163.975902 
L 300.888164 163.608446 
L 300.960689 163.240989 
L 301.029244 162.873532 
L 301.092772 162.506075 
L 301.150194 162.138618 
L 301.200387 161.771161 
L 301.242162 161.403705 
L 301.274237 161.036248 
L 301.295207 160.668791 
L 301.303513 160.301334 
L 301.297418 159.933877 
L 301.274985 159.566421 
L 301.234077 159.198964 
L 301.172383 158.831507 
L 301.087492 158.46405 
L 300.977023 158.096593 
L 300.83882 157.729137 
L 300.671224 157.36168 
L 300.4734 156.994223 
L 300.245711 156.626766 
L 299.9901 156.259309 
L 299.710435 155.891852 
L 299.412766 155.524396 
L 299.105437 155.156939 
L 298.799016 154.789482 
L 298.505998 154.422025 
L 298.240282 154.054568 
L 298.016437 153.687112 
L 297.848801 153.319655 
L 297.750492 152.952198 
L 297.732414 152.584741 
L 297.802363 152.217284 
L 297.964332 151.849828 
L 298.218086 151.482371 
L 298.559058 151.114914 
L 298.978595 150.747457 
L 313.278709 150.747457 
L 313.278709 150.747457 
L 313.698247 151.114914 
L 314.039219 151.482371 
L 314.292972 151.849828 
L 314.454941 152.217284 
L 314.52489 152.584741 
L 314.506812 152.952198 
L 314.408503 153.319655 
L 314.240867 153.687112 
L 314.017022 154.054568 
L 313.751306 154.422025 
L 313.458288 154.789482 
L 313.151867 155.156939 
L 312.844538 155.524396 
L 312.546869 155.891852 
L 312.267204 156.259309 
L 312.011593 156.626766 
L 311.783904 156.994223 
L 311.58608 157.36168 
L 311.418484 157.729137 
L 311.280282 158.096593 
L 311.169812 158.46405 
L 311.084921 158.831507 
L 311.023227 159.198964 
L 310.982319 159.566421 
L 310.959886 159.933877 
L 310.953791 160.301334 
L 310.962097 160.668791 
L 310.983067 161.036248 
L 311.015142 161.403705 
L 311.056917 161.771161 
L 311.10711 162.138618 
L 311.164532 162.506075 
L 311.22806 162.873532 
L 311.296615 163.240989 
L 311.36914 163.608446 
L 311.444592 163.975902 
L 311.521939 164.343359 
L 311.600172 164.710816 
L 311.678337 165.078273 
L 311.75558 165.44573 
L 311.831212 165.813186 
L 311.90478 166.180643 
L 311.976141 166.5481 
L 312.045526 166.915557 
L 312.113586 167.283014 
L 312.181396 167.65047 
L 312.250429 168.017927 
L 312.322475 168.385384 
L 312.399521 168.752841 
L 312.483585 169.120298 
L 312.576525 169.487755 
L 312.679833 169.855211 
L 312.794427 170.222668 
L 312.920473 170.590125 
L 313.057233 170.957582 
L 313.20298 171.325039 
L 313.354967 171.692495 
L 313.50947 172.059952 
L 313.661897 172.427409 
L 313.806967 172.794866 
L 313.938937 173.162323 
L 314.051864 173.529779 
L 314.139898 173.897236 
L 314.197565 174.264693 
L 314.22004 174.63215 
L 314.203378 174.999607 
L 314.144709 175.367064 
L 314.042358 175.73452 
L 313.895922 176.101977 
L 313.706264 176.469434 
L 313.475463 176.836891 
L 313.2067 177.204348 
L 312.904106 177.571804 
L 312.57258 177.939261 
L 312.217577 178.306718 
L 311.844903 178.674175 
L 311.460499 179.041632 
L 311.070249 179.409088 
L 310.679791 179.776545 
L 310.294377 180.144002 
L 309.918735 180.511459 
L 309.556982 180.878916 
L 309.212556 181.246373 
L 308.888184 181.613829 
L 308.585868 181.981286 
L 308.306907 182.348743 
L 308.051933 182.7162 
L 307.820969 183.083657 
L 307.613501 183.451113 
L 307.428561 183.81857 
L 307.264816 184.186027 
L 307.120667 184.553484 
L 306.994336 184.920941 
L 306.88396 185.288397 
L 306.787672 185.655854 
L 306.703665 186.023311 
L 306.630256 186.390768 
L 306.565922 186.758225 
L 306.509329 187.125682 
z
" clip-path="url(#p1c5f679d8e)" style="fill: #348abd; fill-opacity: 0.3"/>
   </g>
   <g id="PolyCollection_10">
    <path d="M 334.688156 184.209399 
L 333.54407 184.209399 
L 333.454704 183.869287 
L 333.354076 183.529174 
L 333.241055 183.189062 
L 333.114482 182.84895 
L 332.973211 182.508838 
L 332.816146 182.168725 
L 332.642299 181.828613 
L 332.450845 181.488501 
L 332.241178 181.148389 
L 332.012977 180.808276 
L 331.766259 180.468164 
L 331.501434 180.128052 
L 331.219352 179.78794 
L 330.921339 179.447827 
L 330.609218 179.107715 
L 330.285322 178.767603 
L 329.95248 178.427491 
L 329.613996 178.087378 
L 329.273594 177.747266 
L 328.935354 177.407154 
L 328.603623 177.067042 
L 328.282904 176.726929 
L 327.977734 176.386817 
L 327.692545 176.046705 
L 327.431517 175.706592 
L 327.198431 175.36648 
L 326.996527 175.026368 
L 326.828368 174.686256 
L 326.695731 174.346143 
L 326.59952 174.006031 
L 326.539715 173.665919 
L 326.515357 173.325807 
L 326.524572 172.985694 
L 326.564644 172.645582 
L 326.632123 172.30547 
L 326.722967 171.965358 
L 326.832721 171.625245 
L 326.956706 171.285133 
L 327.090225 170.945021 
L 327.228761 170.604909 
L 327.368162 170.264796 
L 327.504802 169.924684 
L 327.635705 169.584572 
L 327.758629 169.24446 
L 327.8721 168.904347 
L 327.975406 168.564235 
L 328.068544 168.224123 
L 328.152124 167.884011 
L 328.227251 167.543898 
L 328.295383 167.203786 
L 328.358178 166.863674 
L 328.417352 166.523562 
L 328.474539 166.183449 
L 328.531187 165.843337 
L 328.588474 165.503225 
L 328.647253 165.163113 
L 328.708041 164.823 
L 328.771025 164.482888 
L 328.836095 164.142776 
L 328.902894 163.802663 
L 328.970868 163.462551 
L 329.039326 163.122439 
L 329.107481 162.782327 
L 329.174487 162.442214 
L 329.239458 162.102102 
L 329.301472 161.76199 
L 329.359567 161.421878 
L 329.412717 161.081765 
L 329.459816 160.741653 
L 329.499649 160.401541 
L 329.530867 160.061429 
L 329.551969 159.721316 
L 329.561283 159.381204 
L 329.556967 159.041092 
L 329.537005 158.70098 
L 329.499239 158.360867 
L 329.44141 158.020755 
L 329.36123 157.680643 
L 329.256492 157.340531 
L 329.125223 157.000418 
L 328.965873 156.660306 
L 328.77755 156.320194 
L 328.560282 155.980082 
L 328.315297 155.639969 
L 328.045284 155.299857 
L 327.754615 154.959745 
L 327.449488 154.619633 
L 327.137957 154.27952 
L 326.829817 153.939408 
L 326.536336 153.599296 
L 326.269816 153.259183 
L 326.043005 152.919071 
L 325.868399 152.578959 
L 325.757465 152.238847 
L 325.719875 151.898734 
L 325.762793 151.558622 
L 325.890307 151.21851 
L 326.10305 150.878398 
L 326.398054 150.538285 
L 341.834172 150.538285 
L 341.834172 150.538285 
L 342.129176 150.878398 
L 342.341918 151.21851 
L 342.469433 151.558622 
L 342.512351 151.898734 
L 342.474761 152.238847 
L 342.363827 152.578959 
L 342.18922 152.919071 
L 341.96241 153.259183 
L 341.695889 153.599296 
L 341.402409 153.939408 
L 341.094269 154.27952 
L 340.782737 154.619633 
L 340.477611 154.959745 
L 340.186942 155.299857 
L 339.916929 155.639969 
L 339.671944 155.980082 
L 339.454676 156.320194 
L 339.266353 156.660306 
L 339.107002 157.000418 
L 338.975734 157.340531 
L 338.870996 157.680643 
L 338.790816 158.020755 
L 338.732987 158.360867 
L 338.695221 158.70098 
L 338.675259 159.041092 
L 338.670942 159.381204 
L 338.680257 159.721316 
L 338.701359 160.061429 
L 338.732577 160.401541 
L 338.77241 160.741653 
L 338.819509 161.081765 
L 338.872659 161.421878 
L 338.930753 161.76199 
L 338.992768 162.102102 
L 339.057739 162.442214 
L 339.124745 162.782327 
L 339.1929 163.122439 
L 339.261357 163.462551 
L 339.329332 163.802663 
L 339.39613 164.142776 
L 339.461201 164.482888 
L 339.524185 164.823 
L 339.584973 165.163113 
L 339.643752 165.503225 
L 339.701038 165.843337 
L 339.757687 166.183449 
L 339.814874 166.523562 
L 339.874047 166.863674 
L 339.936843 167.203786 
L 340.004975 167.543898 
L 340.080102 167.884011 
L 340.163682 168.224123 
L 340.256819 168.564235 
L 340.360126 168.904347 
L 340.473597 169.24446 
L 340.59652 169.584572 
L 340.727424 169.924684 
L 340.864064 170.264796 
L 341.003465 170.604909 
L 341.142001 170.945021 
L 341.27552 171.285133 
L 341.399505 171.625245 
L 341.509259 171.965358 
L 341.600103 172.30547 
L 341.667582 172.645582 
L 341.707654 172.985694 
L 341.716869 173.325807 
L 341.69251 173.665919 
L 341.632706 174.006031 
L 341.536495 174.346143 
L 341.403858 174.686256 
L 341.235699 175.026368 
L 341.033794 175.36648 
L 340.800709 175.706592 
L 340.539681 176.046705 
L 340.254492 176.386817 
L 339.949322 176.726929 
L 339.628603 177.067042 
L 339.296872 177.407154 
L 338.958632 177.747266 
L 338.61823 178.087378 
L 338.279745 178.427491 
L 337.946904 178.767603 
L 337.623008 179.107715 
L 337.310887 179.447827 
L 337.012873 179.78794 
L 336.730792 180.128052 
L 336.465967 180.468164 
L 336.219248 180.808276 
L 335.991047 181.148389 
L 335.781381 181.488501 
L 335.589927 181.828613 
L 335.41608 182.168725 
L 335.259015 182.508838 
L 335.117743 182.84895 
L 334.991171 183.189062 
L 334.87815 183.529174 
L 334.777521 183.869287 
L 334.688156 184.209399 
z
" clip-path="url(#p1c5f679d8e)" style="fill: #348abd; fill-opacity: 0.3"/>
   </g>
   <g id="PolyCollection_11">
    <path d="M 362.768426 181.9589 
L 361.438722 181.9589 
L 361.341671 181.640219 
L 361.234125 181.321539 
L 361.115337 181.002858 
L 360.984568 180.684177 
L 360.841119 180.365497 
L 360.684358 180.046816 
L 360.513759 179.728136 
L 360.328942 179.409455 
L 360.129713 179.090775 
L 359.916109 178.772094 
L 359.688436 178.453413 
L 359.447308 178.134733 
L 359.193674 177.816052 
L 358.928842 177.497372 
L 358.65449 177.178691 
L 358.372671 176.860011 
L 358.085793 176.54133 
L 357.796599 176.222649 
L 357.508118 175.903969 
L 357.223617 175.585288 
L 356.946523 175.266608 
L 356.680345 174.947927 
L 356.428578 174.629247 
L 356.194605 174.310566 
L 355.981587 173.991885 
L 355.79236 173.673205 
L 355.629338 173.354524 
L 355.494411 173.035844 
L 355.388876 172.717163 
L 355.313374 172.398483 
L 355.267847 172.079802 
L 355.251536 171.761121 
L 355.262989 171.442441 
L 355.300108 171.12376 
L 355.360224 170.80508 
L 355.440192 170.486399 
L 355.536513 170.167719 
L 355.645469 169.849038 
L 355.763269 169.530357 
L 355.886196 169.211677 
L 356.010748 168.892996 
L 356.133766 168.574316 
L 356.252543 168.255635 
L 356.364905 167.936955 
L 356.469263 167.618274 
L 356.564631 167.299593 
L 356.650617 166.980913 
L 356.727375 166.662232 
L 356.795538 166.343552 
L 356.856124 166.024871 
L 356.910433 165.706191 
L 356.959927 165.38751 
L 357.006123 165.068829 
L 357.050484 164.750149 
L 357.094327 164.431468 
L 357.138758 164.112788 
L 357.184616 163.794107 
L 357.232456 163.475427 
L 357.282544 163.156746 
L 357.334878 162.838065 
L 357.389219 162.519385 
L 357.445132 162.200704 
L 357.502034 161.882024 
L 357.559229 161.563343 
L 357.615938 161.244663 
L 357.671319 160.925982 
L 357.724467 160.607301 
L 357.774402 160.288621 
L 357.820049 159.96994 
L 357.860202 159.65126 
L 357.893491 159.332579 
L 357.91835 159.013898 
L 357.932989 158.695218 
L 357.935387 158.376537 
L 357.923292 158.057857 
L 357.894254 157.739176 
L 357.845682 157.420496 
L 357.774924 157.101815 
L 357.679398 156.783134 
L 357.556734 156.464454 
L 357.404972 156.145773 
L 357.222774 155.827093 
L 357.00966 155.508412 
L 356.766253 155.189732 
L 356.494517 154.871051 
L 356.197947 154.55237 
L 355.881724 154.23369 
L 355.552759 153.915009 
L 355.219654 153.596329 
L 354.892515 153.277648 
L 354.582646 152.958968 
L 354.302102 152.640287 
L 354.063132 152.321606 
L 353.877535 152.002926 
L 353.75598 151.684245 
L 353.707335 151.365565 
L 353.738068 151.046884 
L 353.851767 150.728204 
L 354.048837 150.409523 
L 370.15831 150.409523 
L 370.15831 150.409523 
L 370.355381 150.728204 
L 370.46908 151.046884 
L 370.499812 151.365565 
L 370.451167 151.684245 
L 370.329612 152.002926 
L 370.144016 152.321606 
L 369.905046 152.640287 
L 369.624502 152.958968 
L 369.314633 153.277648 
L 368.987494 153.596329 
L 368.654388 153.915009 
L 368.325424 154.23369 
L 368.0092 154.55237 
L 367.712631 154.871051 
L 367.440894 155.189732 
L 367.197488 155.508412 
L 366.984373 155.827093 
L 366.802175 156.145773 
L 366.650414 156.464454 
L 366.52775 156.783134 
L 366.432223 157.101815 
L 366.361466 157.420496 
L 366.312893 157.739176 
L 366.283856 158.057857 
L 366.271761 158.376537 
L 366.274158 158.695218 
L 366.288798 159.013898 
L 366.313656 159.332579 
L 366.346945 159.65126 
L 366.387098 159.96994 
L 366.432745 160.288621 
L 366.482681 160.607301 
L 366.535829 160.925982 
L 366.591209 161.244663 
L 366.647919 161.563343 
L 366.705113 161.882024 
L 366.762015 162.200704 
L 366.817928 162.519385 
L 366.872269 162.838065 
L 366.924603 163.156746 
L 366.974691 163.475427 
L 367.022532 163.794107 
L 367.06839 164.112788 
L 367.11282 164.431468 
L 367.156664 164.750149 
L 367.201024 165.068829 
L 367.24722 165.38751 
L 367.296715 165.706191 
L 367.351023 166.024871 
L 367.41161 166.343552 
L 367.479773 166.662232 
L 367.556531 166.980913 
L 367.642516 167.299593 
L 367.737885 167.618274 
L 367.842242 167.936955 
L 367.954605 168.255635 
L 368.073382 168.574316 
L 368.1964 168.892996 
L 368.320951 169.211677 
L 368.443878 169.530357 
L 368.561678 169.849038 
L 368.670634 170.167719 
L 368.766955 170.486399 
L 368.846923 170.80508 
L 368.907039 171.12376 
L 368.944158 171.442441 
L 368.955611 171.761121 
L 368.9393 172.079802 
L 368.893774 172.398483 
L 368.818271 172.717163 
L 368.712736 173.035844 
L 368.57781 173.354524 
L 368.414787 173.673205 
L 368.225561 173.991885 
L 368.012542 174.310566 
L 367.778569 174.629247 
L 367.526802 174.947927 
L 367.260625 175.266608 
L 366.983531 175.585288 
L 366.699029 175.903969 
L 366.410549 176.222649 
L 366.121354 176.54133 
L 365.834476 176.860011 
L 365.552657 177.178691 
L 365.278306 177.497372 
L 365.013473 177.816052 
L 364.759839 178.134733 
L 364.518711 178.453413 
L 364.291039 178.772094 
L 364.077435 179.090775 
L 363.878206 179.409455 
L 363.693388 179.728136 
L 363.522789 180.046816 
L 363.366028 180.365497 
L 363.222579 180.684177 
L 363.091811 181.002858 
L 362.973022 181.321539 
L 362.865477 181.640219 
L 362.768426 181.9589 
z
" clip-path="url(#p1c5f679d8e)" style="fill: #348abd; fill-opacity: 0.3"/>
   </g>
   <g id="PolyCollection_12">
    <path d="M 390.65888 180.214262 
L 389.523189 180.214262 
L 389.4445 179.912315 
L 389.35788 179.610368 
L 389.262764 179.308421 
L 389.158581 179.006475 
L 389.044764 178.704528 
L 388.920778 178.402581 
L 388.786144 178.100635 
L 388.640465 177.798688 
L 388.483462 177.496741 
L 388.315002 177.194794 
L 388.135131 176.892848 
L 387.944102 176.590901 
L 387.742405 176.288954 
L 387.530785 175.987008 
L 387.310257 175.685061 
L 387.082117 175.383114 
L 386.847945 175.081167 
L 386.609587 174.779221 
L 386.369147 174.477274 
L 386.128952 174.175327 
L 385.891514 173.873381 
L 385.659484 173.571434 
L 385.435593 173.269487 
L 385.222588 172.96754 
L 385.023161 172.665594 
L 384.839876 172.363647 
L 384.675087 172.0617 
L 384.530871 171.759754 
L 384.40895 171.457807 
L 384.310628 171.15586 
L 384.236739 170.853914 
L 384.187602 170.551967 
L 384.163002 170.25002 
L 384.162177 169.948073 
L 384.183835 169.646127 
L 384.226187 169.34418 
L 384.287004 169.042233 
L 384.363685 168.740287 
L 384.453353 168.43834 
L 384.55295 168.136393 
L 384.659356 167.834446 
L 384.769493 167.5325 
L 384.880442 167.230553 
L 384.989539 166.928606 
L 385.094468 166.62666 
L 385.193328 166.324713 
L 385.284683 166.022766 
L 385.367588 165.720819 
L 385.441592 165.418873 
L 385.506717 165.116926 
L 385.563409 164.814979 
L 385.612482 164.513033 
L 385.655034 164.211086 
L 385.692364 163.909139 
L 385.725873 163.607192 
L 385.756975 163.305246 
L 385.787008 163.003299 
L 385.817157 162.701352 
L 385.848395 162.399406 
L 385.881442 162.097459 
L 385.916737 161.795512 
L 385.954438 161.493565 
L 385.994434 161.191619 
L 386.036367 160.889672 
L 386.079671 160.587725 
L 386.123603 160.285779 
L 386.16727 159.983832 
L 386.209657 159.681885 
L 386.249627 159.379938 
L 386.285917 159.077992 
L 386.317113 158.776045 
L 386.341615 158.474098 
L 386.357601 158.172152 
L 386.362988 157.870205 
L 386.355402 157.568258 
L 386.332183 157.266312 
L 386.290409 156.964365 
L 386.226964 156.662418 
L 386.13866 156.360471 
L 386.022397 156.058525 
L 385.875386 155.756578 
L 385.695402 155.454631 
L 385.481075 155.152685 
L 385.232189 154.850738 
L 384.949973 154.548791 
L 384.637352 154.246844 
L 384.299136 153.944898 
L 383.942102 153.642951 
L 383.574964 153.341004 
L 383.208201 153.039058 
L 382.85373 152.737111 
L 382.524446 152.435164 
L 382.233626 152.133217 
L 381.994247 151.831271 
L 381.818255 151.529324 
L 381.715843 151.227377 
L 381.694796 150.925431 
L 381.759959 150.623484 
L 381.912874 150.321537 
L 398.269195 150.321537 
L 398.269195 150.321537 
L 398.42211 150.623484 
L 398.487273 150.925431 
L 398.466226 151.227377 
L 398.363814 151.529324 
L 398.187822 151.831271 
L 397.948443 152.133217 
L 397.657623 152.435164 
L 397.328339 152.737111 
L 396.973868 153.039058 
L 396.607105 153.341004 
L 396.239967 153.642951 
L 395.882933 153.944898 
L 395.544716 154.246844 
L 395.232096 154.548791 
L 394.94988 154.850738 
L 394.700994 155.152685 
L 394.486667 155.454631 
L 394.306683 155.756578 
L 394.159672 156.058525 
L 394.043409 156.360471 
L 393.955105 156.662418 
L 393.89166 156.964365 
L 393.849886 157.266312 
L 393.826667 157.568258 
L 393.819081 157.870205 
L 393.824467 158.172152 
L 393.840454 158.474098 
L 393.864956 158.776045 
L 393.896152 159.077992 
L 393.932442 159.379938 
L 393.972412 159.681885 
L 394.014799 159.983832 
L 394.058466 160.285779 
L 394.102397 160.587725 
L 394.145702 160.889672 
L 394.187635 161.191619 
L 394.227631 161.493565 
L 394.265332 161.795512 
L 394.300627 162.097459 
L 394.333674 162.399406 
L 394.364912 162.701352 
L 394.395061 163.003299 
L 394.425094 163.305246 
L 394.456196 163.607192 
L 394.489705 163.909139 
L 394.527035 164.211086 
L 394.569587 164.513033 
L 394.61866 164.814979 
L 394.675352 165.116926 
L 394.740477 165.418873 
L 394.814481 165.720819 
L 394.897386 166.022766 
L 394.988741 166.324713 
L 395.087601 166.62666 
L 395.19253 166.928606 
L 395.301627 167.230553 
L 395.412576 167.5325 
L 395.522713 167.834446 
L 395.629119 168.136393 
L 395.728716 168.43834 
L 395.818384 168.740287 
L 395.895065 169.042233 
L 395.955882 169.34418 
L 395.998234 169.646127 
L 396.019892 169.948073 
L 396.019067 170.25002 
L 395.994467 170.551967 
L 395.94533 170.853914 
L 395.871441 171.15586 
L 395.773119 171.457807 
L 395.651197 171.759754 
L 395.506982 172.0617 
L 395.342193 172.363647 
L 395.158908 172.665594 
L 394.959481 172.96754 
L 394.746476 173.269487 
L 394.522585 173.571434 
L 394.290555 173.873381 
L 394.053117 174.175327 
L 393.812921 174.477274 
L 393.572482 174.779221 
L 393.334124 175.081167 
L 393.099951 175.383114 
L 392.871812 175.685061 
L 392.651284 175.987008 
L 392.439664 176.288954 
L 392.237967 176.590901 
L 392.046938 176.892848 
L 391.867067 177.194794 
L 391.698607 177.496741 
L 391.541604 177.798688 
L 391.395925 178.100635 
L 391.261291 178.402581 
L 391.137305 178.704528 
L 391.023488 179.006475 
L 390.919305 179.308421 
L 390.824189 179.610368 
L 390.737569 179.912315 
L 390.65888 180.214262 
z
" clip-path="url(#p1c5f679d8e)" style="fill: #348abd; fill-opacity: 0.3"/>
   </g>
   <g id="matplotlib.axis_1">
    <g id="xtick_1">
     <g id="line2d_1">
      <path d="M 82.228966 307.584 
L 82.228966 41.472 
" clip-path="url(#p1c5f679d8e)" style="fill: none; stroke-dasharray: 1.85,0.8; stroke-dashoffset: 0; stroke: #b2b2b2; stroke-width: 0.5"/>
     </g>
     <g id="line2d_2">
      <defs>
       <path id="m0ed6eceefe" d="M 0 0 
L 0 -3.5 
" style="stroke: #000000; stroke-width: 0.8"/>
      </defs>
      <g>
       <use xlink:href="#m0ed6eceefe" x="82.228966" y="307.584" style="stroke: #000000; stroke-width: 0.8"/>
      </g>
     </g>
     <g id="text_1">
      <!-- 0 -->
      <g transform="translate(79.047716 318.682437) scale(0.1 -0.1)">
       <defs>
        <path id="DejaVuSans-30" d="M 2034 4250 
Q 1547 4250 1301 3770 
Q 1056 3291 1056 2328 
Q 1056 1369 1301 889 
Q 1547 409 2034 409 
Q 2525 409 2770 889 
Q 3016 1369 3016 2328 
Q 3016 3291 2770 3770 
Q 2525 4250 2034 4250 
z
M 2034 4750 
Q 2819 4750 3233 4129 
Q 3647 3509 3647 2328 
Q 3647 1150 3233 529 
Q 2819 -91 2034 -91 
Q 1250 -91 836 529 
Q 422 1150 422 2328 
Q 422 3509 836 4129 
Q 1250 4750 2034 4750 
z
" transform="scale(0.015625)"/>
       </defs>
       <use xlink:href="#DejaVuSans-30"/>
      </g>
     </g>
    </g>
    <g id="xtick_2">
     <g id="line2d_3">
      <path d="M 138.203887 307.584 
L 138.203887 41.472 
" clip-path="url(#p1c5f679d8e)" style="fill: none; stroke-dasharray: 1.85,0.8; stroke-dashoffset: 0; stroke: #b2b2b2; stroke-width: 0.5"/>
     </g>
     <g id="line2d_4">
      <g>
       <use xlink:href="#m0ed6eceefe" x="138.203887" y="307.584" style="stroke: #000000; stroke-width: 0.8"/>
      </g>
     </g>
     <g id="text_2">
      <!-- 50 -->
      <g transform="translate(131.841387 318.682437) scale(0.1 -0.1)">
       <defs>
        <path id="DejaVuSans-35" d="M 691 4666 
L 3169 4666 
L 3169 4134 
L 1269 4134 
L 1269 2991 
Q 1406 3038 1543 3061 
Q 1681 3084 1819 3084 
Q 2600 3084 3056 2656 
Q 3513 2228 3513 1497 
Q 3513 744 3044 326 
Q 2575 -91 1722 -91 
Q 1428 -91 1123 -41 
Q 819 9 494 109 
L 494 744 
Q 775 591 1075 516 
Q 1375 441 1709 441 
Q 2250 441 2565 725 
Q 2881 1009 2881 1497 
Q 2881 1984 2565 2268 
Q 2250 2553 1709 2553 
Q 1456 2553 1204 2497 
Q 953 2441 691 2322 
L 691 4666 
z
" transform="scale(0.015625)"/>
       </defs>
       <use xlink:href="#DejaVuSans-35"/>
       <use xlink:href="#DejaVuSans-30" x="63.623047"/>
      </g>
     </g>
    </g>
    <g id="xtick_3">
     <g id="line2d_5">
      <path d="M 194.178809 307.584 
L 194.178809 41.472 
" clip-path="url(#p1c5f679d8e)" style="fill: none; stroke-dasharray: 1.85,0.8; stroke-dashoffset: 0; stroke: #b2b2b2; stroke-width: 0.5"/>
     </g>
     <g id="line2d_6">
      <g>
       <use xlink:href="#m0ed6eceefe" x="194.178809" y="307.584" style="stroke: #000000; stroke-width: 0.8"/>
      </g>
     </g>
     <g id="text_3">
      <!-- 100 -->
      <g transform="translate(184.635059 318.682437) scale(0.1 -0.1)">
       <defs>
        <path id="DejaVuSans-31" d="M 794 531 
L 1825 531 
L 1825 4091 
L 703 3866 
L 703 4441 
L 1819 4666 
L 2450 4666 
L 2450 531 
L 3481 531 
L 3481 0 
L 794 0 
L 794 531 
z
" transform="scale(0.015625)"/>
       </defs>
       <use xlink:href="#DejaVuSans-31"/>
       <use xlink:href="#DejaVuSans-30" x="63.623047"/>
       <use xlink:href="#DejaVuSans-30" x="127.246094"/>
      </g>
     </g>
    </g>
    <g id="xtick_4">
     <g id="line2d_7">
      <path d="M 250.15373 307.584 
L 250.15373 41.472 
" clip-path="url(#p1c5f679d8e)" style="fill: none; stroke-dasharray: 1.85,0.8; stroke-dashoffset: 0; stroke: #b2b2b2; stroke-width: 0.5"/>
     </g>
     <g id="line2d_8">
      <g>
       <use xlink:href="#m0ed6eceefe" x="250.15373" y="307.584" style="stroke: #000000; stroke-width: 0.8"/>
      </g>
     </g>
     <g id="text_4">
      <!-- 150 -->
      <g transform="translate(240.60998 318.682437) scale(0.1 -0.1)">
       <use xlink:href="#DejaVuSans-31"/>
       <use xlink:href="#DejaVuSans-35" x="63.623047"/>
       <use xlink:href="#DejaVuSans-30" x="127.246094"/>
      </g>
     </g>
    </g>
    <g id="xtick_5">
     <g id="line2d_9">
      <path d="M 306.128652 307.584 
L 306.128652 41.472 
" clip-path="url(#p1c5f679d8e)" style="fill: none; stroke-dasharray: 1.85,0.8; stroke-dashoffset: 0; stroke: #b2b2b2; stroke-width: 0.5"/>
     </g>
     <g id="line2d_10">
      <g>
       <use xlink:href="#m0ed6eceefe" x="306.128652" y="307.584" style="stroke: #000000; stroke-width: 0.8"/>
      </g>
     </g>
     <g id="text_5">
      <!-- 200 -->
      <g transform="translate(296.584902 318.682437) scale(0.1 -0.1)">
       <defs>
        <path id="DejaVuSans-32" d="M 1228 531 
L 3431 531 
L 3431 0 
L 469 0 
L 469 531 
Q 828 903 1448 1529 
Q 2069 2156 2228 2338 
Q 2531 2678 2651 2914 
Q 2772 3150 2772 3378 
Q 2772 3750 2511 3984 
Q 2250 4219 1831 4219 
Q 1534 4219 1204 4116 
Q 875 4013 500 3803 
L 500 4441 
Q 881 4594 1212 4672 
Q 1544 4750 1819 4750 
Q 2544 4750 2975 4387 
Q 3406 4025 3406 3419 
Q 3406 3131 3298 2873 
Q 3191 2616 2906 2266 
Q 2828 2175 2409 1742 
Q 1991 1309 1228 531 
z
" transform="scale(0.015625)"/>
       </defs>
       <use xlink:href="#DejaVuSans-32"/>
       <use xlink:href="#DejaVuSans-30" x="63.623047"/>
       <use xlink:href="#DejaVuSans-30" x="127.246094"/>
      </g>
     </g>
    </g>
    <g id="xtick_6">
     <g id="line2d_11">
      <path d="M 362.103574 307.584 
L 362.103574 41.472 
" clip-path="url(#p1c5f679d8e)" style="fill: none; stroke-dasharray: 1.85,0.8; stroke-dashoffset: 0; stroke: #b2b2b2; stroke-width: 0.5"/>
     </g>
     <g id="line2d_12">
      <g>
       <use xlink:href="#m0ed6eceefe" x="362.103574" y="307.584" style="stroke: #000000; stroke-width: 0.8"/>
      </g>
     </g>
     <g id="text_6">
      <!-- 250 -->
      <g transform="translate(352.559824 318.682437) scale(0.1 -0.1)">
       <use xlink:href="#DejaVuSans-32"/>
       <use xlink:href="#DejaVuSans-35" x="63.623047"/>
       <use xlink:href="#DejaVuSans-30" x="127.246094"/>
      </g>
     </g>
    </g>
    <g id="text_7">
     <!-- $s$ -->
     <g transform="translate(233.34 333.88025) scale(0.12 -0.12)">
      <defs>
       <path id="Cmmi10-73" d="M 556 391 
Q 728 97 1247 97 
Q 1472 97 1675 173 
Q 1878 250 2011 403 
Q 2144 556 2144 775 
Q 2144 941 2025 1047 
Q 1906 1153 1734 1191 
L 1388 1259 
Q 1150 1319 997 1481 
Q 844 1644 844 1875 
Q 844 2159 998 2378 
Q 1153 2597 1406 2712 
Q 1659 2828 1931 2828 
Q 2222 2828 2451 2689 
Q 2681 2550 2681 2278 
Q 2681 2131 2598 2018 
Q 2516 1906 2369 1906 
Q 2284 1906 2223 1961 
Q 2163 2016 2163 2100 
Q 2163 2175 2205 2245 
Q 2247 2316 2317 2358 
Q 2388 2400 2463 2400 
Q 2406 2538 2251 2600 
Q 2097 2663 1919 2663 
Q 1756 2663 1593 2597 
Q 1431 2531 1332 2404 
Q 1234 2278 1234 2106 
Q 1234 1991 1315 1903 
Q 1397 1816 1516 1778 
L 1888 1703 
Q 2066 1666 2214 1570 
Q 2363 1475 2448 1329 
Q 2534 1184 2534 997 
Q 2534 759 2401 528 
Q 2269 297 2075 159 
Q 1734 -72 1241 -72 
Q 900 -72 615 84 
Q 331 241 331 550 
Q 331 725 432 854 
Q 534 984 709 984 
Q 813 984 883 921 
Q 953 859 953 756 
Q 953 609 843 500 
Q 734 391 588 391 
L 556 391 
z
" transform="scale(0.015625)"/>
      </defs>
      <use xlink:href="#Cmmi10-73" transform="translate(0 0.8125)"/>
     </g>
    </g>
   </g>
   <g id="matplotlib.axis_2">
    <g id="ytick_1">
     <g id="line2d_13">
      <path d="M 57.6 271.296 
L 414.72 271.296 
" clip-path="url(#p1c5f679d8e)" style="fill: none; stroke-dasharray: 1.85,0.8; stroke-dashoffset: 0; stroke: #b2b2b2; stroke-width: 0.5"/>
     </g>
     <g id="line2d_14">
      <defs>
       <path id="m20106bb0ae" d="M 0 0 
L 3.5 0 
" style="stroke: #000000; stroke-width: 0.8"/>
      </defs>
      <g>
       <use xlink:href="#m20106bb0ae" x="57.6" y="271.296" style="stroke: #000000; stroke-width: 0.8"/>
      </g>
     </g>
     <g id="text_8">
      <!-- 4 -->
      <g transform="translate(39.357813 275.095219) scale(0.1 -0.1)">
       <defs>
        <path id="DejaVuSans-2212" d="M 678 2272 
L 4684 2272 
L 4684 1741 
L 678 1741 
L 678 2272 
z
" transform="scale(0.015625)"/>
        <path id="DejaVuSans-34" d="M 2419 4116 
L 825 1625 
L 2419 1625 
L 2419 4116 
z
M 2253 4666 
L 3047 4666 
L 3047 1625 
L 3713 1625 
L 3713 1100 
L 3047 1100 
L 3047 0 
L 2419 0 
L 2419 1100 
L 313 1100 
L 313 1709 
L 2253 4666 
z
" transform="scale(0.015625)"/>
       </defs>
       <use xlink:href="#DejaVuSans-2212"/>
       <use xlink:href="#DejaVuSans-34" x="83.789062"/>
      </g>
     </g>
    </g>
    <g id="ytick_2">
     <g id="line2d_15">
      <path d="M 57.6 222.912 
L 414.72 222.912 
" clip-path="url(#p1c5f679d8e)" style="fill: none; stroke-dasharray: 1.85,0.8; stroke-dashoffset: 0; stroke: #b2b2b2; stroke-width: 0.5"/>
     </g>
     <g id="line2d_16">
      <g>
       <use xlink:href="#m20106bb0ae" x="57.6" y="222.912" style="stroke: #000000; stroke-width: 0.8"/>
      </g>
     </g>
     <g id="text_9">
      <!-- 2 -->
      <g transform="translate(39.357813 226.711219) scale(0.1 -0.1)">
       <use xlink:href="#DejaVuSans-2212"/>
       <use xlink:href="#DejaVuSans-32" x="83.789062"/>
      </g>
     </g>
    </g>
    <g id="ytick_3">
     <g id="line2d_17">
      <path d="M 57.6 174.528 
L 414.72 174.528 
" clip-path="url(#p1c5f679d8e)" style="fill: none; stroke-dasharray: 1.85,0.8; stroke-dashoffset: 0; stroke: #b2b2b2; stroke-width: 0.5"/>
     </g>
     <g id="line2d_18">
      <g>
       <use xlink:href="#m20106bb0ae" x="57.6" y="174.528" style="stroke: #000000; stroke-width: 0.8"/>
      </g>
     </g>
     <g id="text_10">
      <!-- 0 -->
      <g transform="translate(47.7375 178.327219) scale(0.1 -0.1)">
       <use xlink:href="#DejaVuSans-30"/>
      </g>
     </g>
    </g>
    <g id="ytick_4">
     <g id="line2d_19">
      <path d="M 57.6 126.144 
L 414.72 126.144 
" clip-path="url(#p1c5f679d8e)" style="fill: none; stroke-dasharray: 1.85,0.8; stroke-dashoffset: 0; stroke: #b2b2b2; stroke-width: 0.5"/>
     </g>
     <g id="line2d_20">
      <g>
       <use xlink:href="#m20106bb0ae" x="57.6" y="126.144" style="stroke: #000000; stroke-width: 0.8"/>
      </g>
     </g>
     <g id="text_11">
      <!-- 2 -->
      <g transform="translate(47.7375 129.943219) scale(0.1 -0.1)">
       <use xlink:href="#DejaVuSans-32"/>
      </g>
     </g>
    </g>
    <g id="ytick_5">
     <g id="line2d_21">
      <path d="M 57.6 77.76 
L 414.72 77.76 
" clip-path="url(#p1c5f679d8e)" style="fill: none; stroke-dasharray: 1.85,0.8; stroke-dashoffset: 0; stroke: #b2b2b2; stroke-width: 0.5"/>
     </g>
     <g id="line2d_22">
      <g>
       <use xlink:href="#m20106bb0ae" x="57.6" y="77.76" style="stroke: #000000; stroke-width: 0.8"/>
      </g>
     </g>
     <g id="text_12">
      <!-- 4 -->
      <g transform="translate(47.7375 81.559219) scale(0.1 -0.1)">
       <use xlink:href="#DejaVuSans-34"/>
      </g>
     </g>
    </g>
    <g id="text_13">
     <!-- $x_{s}$ -->
     <g transform="translate(32.862188 180.348) rotate(-90) scale(0.12 -0.12)">
      <defs>
       <path id="Cmmi10-78" d="M 500 184 
Q 613 97 819 97 
Q 1019 97 1172 289 
Q 1325 481 1381 709 
L 1672 1844 
Q 1741 2153 1741 2266 
Q 1741 2425 1652 2544 
Q 1563 2663 1403 2663 
Q 1200 2663 1022 2536 
Q 844 2409 722 2214 
Q 600 2019 550 1819 
Q 538 1778 500 1778 
L 422 1778 
Q 372 1778 372 1838 
L 372 1856 
Q 434 2094 584 2320 
Q 734 2547 951 2687 
Q 1169 2828 1416 2828 
Q 1650 2828 1839 2703 
Q 2028 2578 2106 2363 
Q 2216 2559 2386 2693 
Q 2556 2828 2759 2828 
Q 2897 2828 3040 2779 
Q 3184 2731 3275 2631 
Q 3366 2531 3366 2381 
Q 3366 2219 3261 2101 
Q 3156 1984 2994 1984 
Q 2891 1984 2822 2050 
Q 2753 2116 2753 2216 
Q 2753 2350 2845 2451 
Q 2938 2553 3066 2572 
Q 2950 2663 2747 2663 
Q 2541 2663 2389 2472 
Q 2238 2281 2175 2047 
L 1894 916 
Q 1825 659 1825 494 
Q 1825 331 1917 214 
Q 2009 97 2163 97 
Q 2463 97 2698 361 
Q 2934 625 3009 941 
Q 3022 978 3059 978 
L 3138 978 
Q 3163 978 3178 961 
Q 3194 944 3194 922 
Q 3194 916 3188 903 
Q 3097 522 2806 225 
Q 2516 -72 2150 -72 
Q 1916 -72 1727 54 
Q 1538 181 1459 397 
Q 1359 209 1182 68 
Q 1006 -72 806 -72 
Q 669 -72 523 -23 
Q 378 25 287 125 
Q 197 225 197 378 
Q 197 528 301 651 
Q 406 775 563 775 
Q 669 775 741 711 
Q 813 647 813 544 
Q 813 409 723 309 
Q 634 209 500 184 
z
" transform="scale(0.015625)"/>
      </defs>
      <use xlink:href="#Cmmi10-78" transform="translate(0 0.8125)"/>
      <use xlink:href="#Cmmi10-73" transform="translate(57.080078 -16.19375) scale(0.7)"/>
     </g>
    </g>
   </g>
   <g id="LineCollection_1">
    <path d="M 78.030846 103.916474 
L 86.427085 103.916474 
" clip-path="url(#p1c5f679d8e)" style="fill: none; stroke: #348abd; stroke-width: 2"/>
    <path d="M 106.018307 124.803122 
L 114.414545 124.803122 
" clip-path="url(#p1c5f679d8e)" style="fill: none; stroke: #348abd; stroke-width: 2"/>
    <path d="M 134.005768 137.616778 
L 142.402006 137.616778 
" clip-path="url(#p1c5f679d8e)" style="fill: none; stroke: #348abd; stroke-width: 2"/>
    <path d="M 161.993229 146.178616 
L 170.389467 146.178616 
" clip-path="url(#p1c5f679d8e)" style="fill: none; stroke: #348abd; stroke-width: 2"/>
    <path d="M 189.98069 150.228104 
L 198.376928 150.228104 
" clip-path="url(#p1c5f679d8e)" style="fill: none; stroke: #348abd; stroke-width: 2"/>
    <path d="M 217.96815 151.090091 
L 226.364389 151.090091 
" clip-path="url(#p1c5f679d8e)" style="fill: none; stroke: #348abd; stroke-width: 2"/>
    <path d="M 245.955611 151.226918 
L 254.35185 151.226918 
" clip-path="url(#p1c5f679d8e)" style="fill: none; stroke: #348abd; stroke-width: 2"/>
    <path d="M 273.943072 151.053164 
L 282.33931 151.053164 
" clip-path="url(#p1c5f679d8e)" style="fill: none; stroke: #348abd; stroke-width: 2"/>
    <path d="M 301.930533 150.747457 
L 310.326771 150.747457 
" clip-path="url(#p1c5f679d8e)" style="fill: none; stroke: #348abd; stroke-width: 2"/>
    <path d="M 329.917994 150.538285 
L 338.314232 150.538285 
" clip-path="url(#p1c5f679d8e)" style="fill: none; stroke: #348abd; stroke-width: 2"/>
    <path d="M 357.905455 150.409523 
L 366.301693 150.409523 
" clip-path="url(#p1c5f679d8e)" style="fill: none; stroke: #348abd; stroke-width: 2"/>
    <path d="M 385.892915 150.321537 
L 394.289154 150.321537 
" clip-path="url(#p1c5f679d8e)" style="fill: none; stroke: #348abd; stroke-width: 2"/>
   </g>
   <g id="LineCollection_2">
    <path d="M 78.030846 239.333198 
L 86.427085 239.333198 
" clip-path="url(#p1c5f679d8e)" style="fill: none; stroke: #348abd; stroke-width: 2"/>
    <path d="M 106.018307 230.003771 
L 114.414545 230.003771 
" clip-path="url(#p1c5f679d8e)" style="fill: none; stroke: #348abd; stroke-width: 2"/>
    <path d="M 134.005768 222.096418 
L 142.402006 222.096418 
" clip-path="url(#p1c5f679d8e)" style="fill: none; stroke: #348abd; stroke-width: 2"/>
    <path d="M 161.993229 214.70269 
L 170.389467 214.70269 
" clip-path="url(#p1c5f679d8e)" style="fill: none; stroke: #348abd; stroke-width: 2"/>
    <path d="M 189.98069 207.761454 
L 198.376928 207.761454 
" clip-path="url(#p1c5f679d8e)" style="fill: none; stroke: #348abd; stroke-width: 2"/>
    <path d="M 217.96815 201.569719 
L 226.364389 201.569719 
" clip-path="url(#p1c5f679d8e)" style="fill: none; stroke: #348abd; stroke-width: 2"/>
    <path d="M 245.955611 195.833106 
L 254.35185 195.833106 
" clip-path="url(#p1c5f679d8e)" style="fill: none; stroke: #348abd; stroke-width: 2"/>
    <path d="M 273.943072 190.905747 
L 282.33931 190.905747 
" clip-path="url(#p1c5f679d8e)" style="fill: none; stroke: #348abd; stroke-width: 2"/>
    <path d="M 301.930533 187.125682 
L 310.326771 187.125682 
" clip-path="url(#p1c5f679d8e)" style="fill: none; stroke: #348abd; stroke-width: 2"/>
    <path d="M 329.917994 184.209399 
L 338.314232 184.209399 
" clip-path="url(#p1c5f679d8e)" style="fill: none; stroke: #348abd; stroke-width: 2"/>
    <path d="M 357.905455 181.9589 
L 366.301693 181.9589 
" clip-path="url(#p1c5f679d8e)" style="fill: none; stroke: #348abd; stroke-width: 2"/>
    <path d="M 385.892915 180.214262 
L 394.289154 180.214262 
" clip-path="url(#p1c5f679d8e)" style="fill: none; stroke: #348abd; stroke-width: 2"/>
   </g>
   <g id="LineCollection_3">
    <path d="M 82.228966 239.333198 
L 82.228966 103.916474 
" clip-path="url(#p1c5f679d8e)" style="fill: none; stroke: #348abd; stroke-width: 2"/>
    <path d="M 110.216426 230.003771 
L 110.216426 124.803122 
" clip-path="url(#p1c5f679d8e)" style="fill: none; stroke: #348abd; stroke-width: 2"/>
    <path d="M 138.203887 222.096418 
L 138.203887 137.616778 
" clip-path="url(#p1c5f679d8e)" style="fill: none; stroke: #348abd; stroke-width: 2"/>
    <path d="M 166.191348 214.70269 
L 166.191348 146.178616 
" clip-path="url(#p1c5f679d8e)" style="fill: none; stroke: #348abd; stroke-width: 2"/>
    <path d="M 194.178809 207.761454 
L 194.178809 150.228104 
" clip-path="url(#p1c5f679d8e)" style="fill: none; stroke: #348abd; stroke-width: 2"/>
    <path d="M 222.16627 201.569719 
L 222.16627 151.090091 
" clip-path="url(#p1c5f679d8e)" style="fill: none; stroke: #348abd; stroke-width: 2"/>
    <path d="M 250.15373 195.833106 
L 250.15373 151.226918 
" clip-path="url(#p1c5f679d8e)" style="fill: none; stroke: #348abd; stroke-width: 2"/>
    <path d="M 278.141191 190.905747 
L 278.141191 151.053164 
" clip-path="url(#p1c5f679d8e)" style="fill: none; stroke: #348abd; stroke-width: 2"/>
    <path d="M 306.128652 187.125682 
L 306.128652 150.747457 
" clip-path="url(#p1c5f679d8e)" style="fill: none; stroke: #348abd; stroke-width: 2"/>
    <path d="M 334.116113 184.209399 
L 334.116113 150.538285 
" clip-path="url(#p1c5f679d8e)" style="fill: none; stroke: #348abd; stroke-width: 2"/>
    <path d="M 362.103574 181.9589 
L 362.103574 150.409523 
" clip-path="url(#p1c5f679d8e)" style="fill: none; stroke: #348abd; stroke-width: 2"/>
    <path d="M 390.091034 180.214262 
L 390.091034 150.321537 
" clip-path="url(#p1c5f679d8e)" style="fill: none; stroke: #348abd; stroke-width: 2"/>
   </g>
   <g id="LineCollection_4">
    <path d="M 241.197743 295.488 
L 241.197743 53.568 
" clip-path="url(#p1c5f679d8e)" style="fill: none; stroke-dasharray: 7.4,3.2; stroke-dashoffset: 0; stroke: #ff0000; stroke-width: 2"/>
   </g>
   <g id="patch_3">
    <path d="M 57.6 307.584 
L 57.6 41.472 
" style="fill: none; stroke: #bcbcbc; stroke-width: 0.8; stroke-linejoin: miter; stroke-linecap: square"/>
   </g>
   <g id="patch_4">
    <path d="M 414.72 307.584 
L 414.72 41.472 
" style="fill: none; stroke: #bcbcbc; stroke-width: 0.8; stroke-linejoin: miter; stroke-linecap: square"/>
   </g>
   <g id="patch_5">
    <path d="M 57.6 307.584 
L 414.72 307.584 
" style="fill: none; stroke: #bcbcbc; stroke-width: 0.8; stroke-linejoin: miter; stroke-linecap: square"/>
   </g>
   <g id="patch_6">
    <path d="M 57.6 41.472 
L 414.72 41.472 
" style="fill: none; stroke: #bcbcbc; stroke-width: 0.8; stroke-linejoin: miter; stroke-linecap: square"/>
   </g>
   <g id="text_14">
    <!-- Violin plot of critical time n = 500 -->
    <g transform="translate(114.951375 35.472) scale(0.144 -0.144)">
     <defs>
      <path id="DejaVuSans-56" d="M 1831 0 
L 50 4666 
L 709 4666 
L 2188 738 
L 3669 4666 
L 4325 4666 
L 2547 0 
L 1831 0 
z
" transform="scale(0.015625)"/>
      <path id="DejaVuSans-69" d="M 603 3500 
L 1178 3500 
L 1178 0 
L 603 0 
L 603 3500 
z
M 603 4863 
L 1178 4863 
L 1178 4134 
L 603 4134 
L 603 4863 
z
" transform="scale(0.015625)"/>
      <path id="DejaVuSans-6f" d="M 1959 3097 
Q 1497 3097 1228 2736 
Q 959 2375 959 1747 
Q 959 1119 1226 758 
Q 1494 397 1959 397 
Q 2419 397 2687 759 
Q 2956 1122 2956 1747 
Q 2956 2369 2687 2733 
Q 2419 3097 1959 3097 
z
M 1959 3584 
Q 2709 3584 3137 3096 
Q 3566 2609 3566 1747 
Q 3566 888 3137 398 
Q 2709 -91 1959 -91 
Q 1206 -91 779 398 
Q 353 888 353 1747 
Q 353 2609 779 3096 
Q 1206 3584 1959 3584 
z
" transform="scale(0.015625)"/>
      <path id="DejaVuSans-6c" d="M 603 4863 
L 1178 4863 
L 1178 0 
L 603 0 
L 603 4863 
z
" transform="scale(0.015625)"/>
      <path id="DejaVuSans-6e" d="M 3513 2113 
L 3513 0 
L 2938 0 
L 2938 2094 
Q 2938 2591 2744 2837 
Q 2550 3084 2163 3084 
Q 1697 3084 1428 2787 
Q 1159 2491 1159 1978 
L 1159 0 
L 581 0 
L 581 3500 
L 1159 3500 
L 1159 2956 
Q 1366 3272 1645 3428 
Q 1925 3584 2291 3584 
Q 2894 3584 3203 3211 
Q 3513 2838 3513 2113 
z
" transform="scale(0.015625)"/>
      <path id="DejaVuSans-20" transform="scale(0.015625)"/>
      <path id="DejaVuSans-70" d="M 1159 525 
L 1159 -1331 
L 581 -1331 
L 581 3500 
L 1159 3500 
L 1159 2969 
Q 1341 3281 1617 3432 
Q 1894 3584 2278 3584 
Q 2916 3584 3314 3078 
Q 3713 2572 3713 1747 
Q 3713 922 3314 415 
Q 2916 -91 2278 -91 
Q 1894 -91 1617 61 
Q 1341 213 1159 525 
z
M 3116 1747 
Q 3116 2381 2855 2742 
Q 2594 3103 2138 3103 
Q 1681 3103 1420 2742 
Q 1159 2381 1159 1747 
Q 1159 1113 1420 752 
Q 1681 391 2138 391 
Q 2594 391 2855 752 
Q 3116 1113 3116 1747 
z
" transform="scale(0.015625)"/>
      <path id="DejaVuSans-74" d="M 1172 4494 
L 1172 3500 
L 2356 3500 
L 2356 3053 
L 1172 3053 
L 1172 1153 
Q 1172 725 1289 603 
Q 1406 481 1766 481 
L 2356 481 
L 2356 0 
L 1766 0 
Q 1100 0 847 248 
Q 594 497 594 1153 
L 594 3053 
L 172 3053 
L 172 3500 
L 594 3500 
L 594 4494 
L 1172 4494 
z
" transform="scale(0.015625)"/>
      <path id="DejaVuSans-66" d="M 2375 4863 
L 2375 4384 
L 1825 4384 
Q 1516 4384 1395 4259 
Q 1275 4134 1275 3809 
L 1275 3500 
L 2222 3500 
L 2222 3053 
L 1275 3053 
L 1275 0 
L 697 0 
L 697 3053 
L 147 3053 
L 147 3500 
L 697 3500 
L 697 3744 
Q 697 4328 969 4595 
Q 1241 4863 1831 4863 
L 2375 4863 
z
" transform="scale(0.015625)"/>
      <path id="DejaVuSans-63" d="M 3122 3366 
L 3122 2828 
Q 2878 2963 2633 3030 
Q 2388 3097 2138 3097 
Q 1578 3097 1268 2742 
Q 959 2388 959 1747 
Q 959 1106 1268 751 
Q 1578 397 2138 397 
Q 2388 397 2633 464 
Q 2878 531 3122 666 
L 3122 134 
Q 2881 22 2623 -34 
Q 2366 -91 2075 -91 
Q 1284 -91 818 406 
Q 353 903 353 1747 
Q 353 2603 823 3093 
Q 1294 3584 2113 3584 
Q 2378 3584 2631 3529 
Q 2884 3475 3122 3366 
z
" transform="scale(0.015625)"/>
      <path id="DejaVuSans-72" d="M 2631 2963 
Q 2534 3019 2420 3045 
Q 2306 3072 2169 3072 
Q 1681 3072 1420 2755 
Q 1159 2438 1159 1844 
L 1159 0 
L 581 0 
L 581 3500 
L 1159 3500 
L 1159 2956 
Q 1341 3275 1631 3429 
Q 1922 3584 2338 3584 
Q 2397 3584 2469 3576 
Q 2541 3569 2628 3553 
L 2631 2963 
z
" transform="scale(0.015625)"/>
      <path id="DejaVuSans-61" d="M 2194 1759 
Q 1497 1759 1228 1600 
Q 959 1441 959 1056 
Q 959 750 1161 570 
Q 1363 391 1709 391 
Q 2188 391 2477 730 
Q 2766 1069 2766 1631 
L 2766 1759 
L 2194 1759 
z
M 3341 1997 
L 3341 0 
L 2766 0 
L 2766 531 
Q 2569 213 2275 61 
Q 1981 -91 1556 -91 
Q 1019 -91 701 211 
Q 384 513 384 1019 
Q 384 1609 779 1909 
Q 1175 2209 1959 2209 
L 2766 2209 
L 2766 2266 
Q 2766 2663 2505 2880 
Q 2244 3097 1772 3097 
Q 1472 3097 1187 3025 
Q 903 2953 641 2809 
L 641 3341 
Q 956 3463 1253 3523 
Q 1550 3584 1831 3584 
Q 2591 3584 2966 3190 
Q 3341 2797 3341 1997 
z
" transform="scale(0.015625)"/>
      <path id="DejaVuSans-6d" d="M 3328 2828 
Q 3544 3216 3844 3400 
Q 4144 3584 4550 3584 
Q 5097 3584 5394 3201 
Q 5691 2819 5691 2113 
L 5691 0 
L 5113 0 
L 5113 2094 
Q 5113 2597 4934 2840 
Q 4756 3084 4391 3084 
Q 3944 3084 3684 2787 
Q 3425 2491 3425 1978 
L 3425 0 
L 2847 0 
L 2847 2094 
Q 2847 2600 2669 2842 
Q 2491 3084 2119 3084 
Q 1678 3084 1418 2786 
Q 1159 2488 1159 1978 
L 1159 0 
L 581 0 
L 581 3500 
L 1159 3500 
L 1159 2956 
Q 1356 3278 1631 3431 
Q 1906 3584 2284 3584 
Q 2666 3584 2933 3390 
Q 3200 3197 3328 2828 
z
" transform="scale(0.015625)"/>
      <path id="DejaVuSans-65" d="M 3597 1894 
L 3597 1613 
L 953 1613 
Q 991 1019 1311 708 
Q 1631 397 2203 397 
Q 2534 397 2845 478 
Q 3156 559 3463 722 
L 3463 178 
Q 3153 47 2828 -22 
Q 2503 -91 2169 -91 
Q 1331 -91 842 396 
Q 353 884 353 1716 
Q 353 2575 817 3079 
Q 1281 3584 2069 3584 
Q 2775 3584 3186 3129 
Q 3597 2675 3597 1894 
z
M 3022 2063 
Q 3016 2534 2758 2815 
Q 2500 3097 2075 3097 
Q 1594 3097 1305 2825 
Q 1016 2553 972 2059 
L 3022 2063 
z
" transform="scale(0.015625)"/>
      <path id="DejaVuSans-3d" d="M 678 2906 
L 4684 2906 
L 4684 2381 
L 678 2381 
L 678 2906 
z
M 678 1631 
L 4684 1631 
L 4684 1100 
L 678 1100 
L 678 1631 
z
" transform="scale(0.015625)"/>
     </defs>
     <use xlink:href="#DejaVuSans-56"/>
     <use xlink:href="#DejaVuSans-69" x="66.158203"/>
     <use xlink:href="#DejaVuSans-6f" x="93.941406"/>
     <use xlink:href="#DejaVuSans-6c" x="155.123047"/>
     <use xlink:href="#DejaVuSans-69" x="182.90625"/>
     <use xlink:href="#DejaVuSans-6e" x="210.689453"/>
     <use xlink:href="#DejaVuSans-20" x="274.068359"/>
     <use xlink:href="#DejaVuSans-70" x="305.855469"/>
     <use xlink:href="#DejaVuSans-6c" x="369.332031"/>
     <use xlink:href="#DejaVuSans-6f" x="397.115234"/>
     <use xlink:href="#DejaVuSans-74" x="458.296875"/>
     <use xlink:href="#DejaVuSans-20" x="497.505859"/>
     <use xlink:href="#DejaVuSans-6f" x="529.292969"/>
     <use xlink:href="#DejaVuSans-66" x="590.474609"/>
     <use xlink:href="#DejaVuSans-20" x="625.679688"/>
     <use xlink:href="#DejaVuSans-63" x="657.466797"/>
     <use xlink:href="#DejaVuSans-72" x="712.447266"/>
     <use xlink:href="#DejaVuSans-69" x="753.560547"/>
     <use xlink:href="#DejaVuSans-74" x="781.34375"/>
     <use xlink:href="#DejaVuSans-69" x="820.552734"/>
     <use xlink:href="#DejaVuSans-63" x="848.335938"/>
     <use xlink:href="#DejaVuSans-61" x="903.316406"/>
     <use xlink:href="#DejaVuSans-6c" x="964.595703"/>
     <use xlink:href="#DejaVuSans-20" x="992.378906"/>
     <use xlink:href="#DejaVuSans-74" x="1024.166016"/>
     <use xlink:href="#DejaVuSans-69" x="1063.375"/>
     <use xlink:href="#DejaVuSans-6d" x="1091.158203"/>
     <use xlink:href="#DejaVuSans-65" x="1188.570312"/>
     <use xlink:href="#DejaVuSans-20" x="1250.09375"/>
     <use xlink:href="#DejaVuSans-6e" x="1281.880859"/>
     <use xlink:href="#DejaVuSans-20" x="1345.259766"/>
     <use xlink:href="#DejaVuSans-3d" x="1377.046875"/>
     <use xlink:href="#DejaVuSans-20" x="1460.835938"/>
     <use xlink:href="#DejaVuSans-35" x="1492.623047"/>
     <use xlink:href="#DejaVuSans-30" x="1556.246094"/>
     <use xlink:href="#DejaVuSans-30" x="1619.869141"/>
    </g>
   </g>
   <g id="legend_1">
    <g id="patch_7">
     <path d="M 401.52 57.072 
L 406.32 57.072 
Q 408.72 57.072 408.72 54.672 
L 408.72 49.872 
Q 408.72 47.472 406.32 47.472 
L 401.52 47.472 
Q 399.12 47.472 399.12 49.872 
L 399.12 54.672 
Q 399.12 57.072 401.52 57.072 
z
" style="fill: #eeeeee; opacity: 0.8; stroke: #cccccc; stroke-width: 0.5; stroke-linejoin: miter"/>
    </g>
   </g>
  </g>
 </g>
 <defs>
  <clipPath id="p1c5f679d8e">
   <rect x="57.6" y="41.472" width="357.12" height="266.112"/>
  </clipPath>
 </defs>
</svg>
