<?xml version="1.0" encoding="utf-8" standalone="no"?>
<!DOCTYPE svg PUBLIC "-//W3C//DTD SVG 1.1//EN"
  "http://www.w3.org/Graphics/SVG/1.1/DTD/svg11.dtd">
<svg xmlns:xlink="http://www.w3.org/1999/xlink" width="460.8pt" height="345.6pt" viewBox="0 0 460.8 345.6" xmlns="http://www.w3.org/2000/svg" version="1.1">
 <metadata>
  <rdf:RDF xmlns:dc="http://purl.org/dc/elements/1.1/" xmlns:cc="http://creativecommons.org/ns#" xmlns:rdf="http://www.w3.org/1999/02/22-rdf-syntax-ns#">
   <cc:Work>
    <dc:type rdf:resource="http://purl.org/dc/dcmitype/StillImage"/>
    <dc:date>2025-08-21T18:14:35.143227</dc:date>
    <dc:format>image/svg+xml</dc:format>
    <dc:creator>
     <cc:Agent>
      <dc:title>Matplotlib v3.9.2, https://matplotlib.org/</dc:title>
     </cc:Agent>
    </dc:creator>
   </cc:Work>
  </rdf:RDF>
 </metadata>
 <defs>
  <style type="text/css">*{stroke-linejoin: round; stroke-linecap: butt}</style>
 </defs>
 <g id="figure_1">
  <g id="patch_1">
   <path d="M 0 345.6 
L 460.8 345.6 
L 460.8 0 
L 0 0 
z
" style="fill: #ffffff"/>
  </g>
  <g id="axes_1">
   <g id="patch_2">
    <path d="M 57.6 307.584 
L 414.72 307.584 
L 414.72 41.472 
L 57.6 41.472 
z
" style="fill: #eeeeee"/>
   </g>
   <g id="PolyCollection_1">
    <path d="M 82.253714 255.800905 
L 82.204217 255.800905 
L 82.202711 253.84133 
L 82.203852 251.881754 
L 82.204708 249.922179 
L 82.201466 247.962603 
L 82.191102 246.003028 
L 82.171295 244.043453 
L 82.13812 242.083877 
L 82.084657 240.124302 
L 82.004918 238.164726 
L 81.901897 236.205151 
L 81.790854 234.245576 
L 81.690674 232.286 
L 81.608763 230.326425 
L 81.533831 228.36685 
L 81.443518 226.407274 
L 81.31876 224.447699 
L 81.15265 222.488123 
L 80.94986 220.528548 
L 80.720132 218.568973 
L 80.471204 216.609397 
L 80.206021 214.649822 
L 79.925255 212.690246 
L 79.629506 210.730671 
L 79.31472 208.771096 
L 78.965298 206.81152 
L 78.560928 204.851945 
L 78.102405 202.89237 
L 77.630953 200.932794 
L 77.207999 198.973219 
L 76.863523 197.013643 
L 76.565282 195.054068 
L 76.247092 193.094493 
L 75.871932 191.134917 
L 75.466946 189.175342 
L 75.096666 187.215766 
L 74.804188 185.256191 
L 74.579087 183.296616 
L 74.379181 181.33704 
L 74.178638 179.377465 
L 73.993948 177.417889 
L 73.867792 175.458314 
L 73.832727 173.498739 
L 73.889642 171.539163 
L 74.015112 169.579588 
L 74.183906 167.620013 
L 74.384111 165.660437 
L 74.614527 163.700862 
L 74.871173 161.741286 
L 75.14024 159.781711 
L 75.411158 157.822136 
L 75.699974 155.86256 
L 76.05032 153.902985 
L 76.497561 151.943409 
L 77.030512 149.983834 
L 77.594597 148.024259 
L 78.13103 146.064683 
L 78.607968 144.105108 
L 79.019997 142.145533 
L 79.372652 140.185957 
L 79.675298 138.226382 
L 79.942407 136.266806 
L 80.189902 134.307231 
L 80.425349 132.347656 
L 80.644874 130.38808 
L 80.842761 128.428505 
L 81.022244 126.468929 
L 81.193451 124.509354 
L 81.361145 122.549779 
L 81.518287 120.590203 
L 81.653374 118.630628 
L 81.761822 116.671052 
L 81.848506 114.711477 
L 81.921077 112.751902 
L 81.983233 110.792326 
L 82.034291 108.832751 
L 82.07317 106.873176 
L 82.101396 104.9136 
L 82.122644 102.954025 
L 82.140383 100.994449 
L 82.156116 99.034874 
L 82.16935 97.075299 
L 82.178961 95.115723 
L 82.184876 93.156148 
L 82.1887 91.196572 
L 82.192674 89.236997 
L 82.197998 87.277422 
L 82.204332 85.317846 
L 82.210717 83.358271 
L 82.216474 81.398695 
L 82.22125 79.43912 
L 82.22479 77.479545 
L 82.226998 75.519969 
L 82.228012 73.560394 
L 82.228038 71.600819 
L 82.227134 69.641243 
L 82.22529 67.681668 
L 82.222811 65.722092 
L 82.220567 63.762517 
L 82.219649 61.802942 
L 82.238282 61.802942 
L 82.238282 61.802942 
L 82.237364 63.762517 
L 82.23512 65.722092 
L 82.232641 67.681668 
L 82.230797 69.641243 
L 82.229893 71.600819 
L 82.229919 73.560394 
L 82.230933 75.519969 
L 82.233141 77.479545 
L 82.236681 79.43912 
L 82.241457 81.398695 
L 82.247214 83.358271 
L 82.253599 85.317846 
L 82.259933 87.277422 
L 82.265257 89.236997 
L 82.269231 91.196572 
L 82.273055 93.156148 
L 82.27897 95.115723 
L 82.288581 97.075299 
L 82.301815 99.034874 
L 82.317549 100.994449 
L 82.335287 102.954025 
L 82.356535 104.9136 
L 82.384761 106.873176 
L 82.42364 108.832751 
L 82.474698 110.792326 
L 82.536854 112.751902 
L 82.609425 114.711477 
L 82.696109 116.671052 
L 82.804558 118.630628 
L 82.939644 120.590203 
L 83.096786 122.549779 
L 83.26448 124.509354 
L 83.435687 126.468929 
L 83.61517 128.428505 
L 83.813057 130.38808 
L 84.032582 132.347656 
L 84.268029 134.307231 
L 84.515524 136.266806 
L 84.782633 138.226382 
L 85.085279 140.185957 
L 85.437935 142.145533 
L 85.849963 144.105108 
L 86.326901 146.064683 
L 86.863334 148.024259 
L 87.427419 149.983834 
L 87.96037 151.943409 
L 88.407611 153.902985 
L 88.757957 155.86256 
L 89.046773 157.822136 
L 89.317691 159.781711 
L 89.586758 161.741286 
L 89.843404 163.700862 
L 90.07382 165.660437 
L 90.274025 167.620013 
L 90.442819 169.579588 
L 90.568289 171.539163 
L 90.625204 173.498739 
L 90.590139 175.458314 
L 90.463983 177.417889 
L 90.279293 179.377465 
L 90.07875 181.33704 
L 89.878844 183.296616 
L 89.653743 185.256191 
L 89.361265 187.215766 
L 88.990985 189.175342 
L 88.585999 191.134917 
L 88.210839 193.094493 
L 87.892649 195.054068 
L 87.594408 197.013643 
L 87.249932 198.973219 
L 86.826978 200.932794 
L 86.355526 202.89237 
L 85.897003 204.851945 
L 85.492633 206.81152 
L 85.143211 208.771096 
L 84.828425 210.730671 
L 84.532676 212.690246 
L 84.25191 214.649822 
L 83.986727 216.609397 
L 83.737799 218.568973 
L 83.508071 220.528548 
L 83.305281 222.488123 
L 83.139171 224.447699 
L 83.014413 226.407274 
L 82.9241 228.36685 
L 82.849168 230.326425 
L 82.767257 232.286 
L 82.667077 234.245576 
L 82.556034 236.205151 
L 82.453013 238.164726 
L 82.373274 240.124302 
L 82.319811 242.083877 
L 82.286636 244.043453 
L 82.26683 246.003028 
L 82.256465 247.962603 
L 82.253223 249.922179 
L 82.254079 251.881754 
L 82.25522 253.84133 
L 82.253714 255.800905 
z
" clip-path="url(#p7a4a07586e)" style="fill: #348abd; fill-opacity: 0.3"/>
   </g>
   <g id="PolyCollection_2">
    <path d="M 110.240568 235.740744 
L 110.192285 235.740744 
L 110.190985 234.159668 
L 110.192847 232.578592 
L 110.194453 230.997515 
L 110.191442 229.416439 
L 110.180742 227.835363 
L 110.16045 226.254287 
L 110.126394 224.673211 
L 110.069972 223.092134 
L 109.984055 221.511058 
L 109.874288 219.929982 
L 109.761444 218.348906 
L 109.666283 216.767829 
L 109.589714 215.186753 
L 109.509654 213.605677 
L 109.397304 212.024601 
L 109.234922 210.443525 
L 109.021152 208.862448 
L 108.765439 207.281372 
L 108.478907 205.700296 
L 108.168786 204.11922 
L 107.839734 202.538144 
L 107.495422 200.957067 
L 107.131172 199.375991 
L 106.726978 197.794915 
L 106.265091 196.213839 
L 105.767016 194.632762 
L 105.298348 193.051686 
L 104.912571 191.47061 
L 104.59028 189.889534 
L 104.254316 188.308458 
L 103.853138 186.727381 
L 103.417667 185.146305 
L 103.027167 183.565229 
L 102.72739 181.984153 
L 102.494539 180.403077 
L 102.278072 178.822 
L 102.065166 177.240924 
L 101.895449 175.659848 
L 101.820188 174.078772 
L 101.858561 172.497695 
L 101.994608 170.916619 
L 102.207186 169.335543 
L 102.492989 167.754467 
L 102.856147 166.173391 
L 103.275147 164.592314 
L 103.686285 163.011238 
L 104.017444 161.430162 
L 104.2538 159.849086 
L 104.463668 158.26801 
L 104.743453 156.686933 
L 105.137598 155.105857 
L 105.61767 153.524781 
L 106.124153 151.943705 
L 106.60916 150.362628 
L 107.04704 148.781552 
L 107.430559 147.200476 
L 107.768361 145.6194 
L 108.076144 144.038324 
L 108.36174 142.457247 
L 108.62226 140.876171 
L 108.857047 139.295095 
L 109.074697 137.714019 
L 109.281979 136.132943 
L 109.472687 134.551866 
L 109.634483 132.97079 
L 109.763242 131.389714 
L 109.865313 129.808638 
L 109.948228 128.227561 
L 110.014303 126.646485 
L 110.063074 125.065409 
L 110.096148 123.484333 
L 110.118091 121.903257 
L 110.134081 120.32218 
L 110.147725 118.741104 
L 110.160368 117.160028 
L 110.171572 115.578952 
L 110.180152 113.997876 
L 110.185076 112.416799 
L 110.186307 110.835723 
L 110.185635 109.254647 
L 110.18605 107.673571 
L 110.189283 106.092494 
L 110.194347 104.511418 
L 110.199152 102.930342 
L 110.202915 101.349266 
L 110.206268 99.76819 
L 110.20966 98.187113 
L 110.212676 96.606037 
L 110.214752 95.024961 
L 110.215833 93.443885 
L 110.216256 91.862809 
L 110.216364 90.281732 
L 110.216298 88.700656 
L 110.215968 87.11958 
L 110.215075 85.538504 
L 110.213289 83.957427 
L 110.2107 82.376351 
L 110.20821 80.795275 
L 110.207159 79.214199 
L 110.225694 79.214199 
L 110.225694 79.214199 
L 110.224643 80.795275 
L 110.222153 82.376351 
L 110.219564 83.957427 
L 110.217778 85.538504 
L 110.216885 87.11958 
L 110.216554 88.700656 
L 110.216488 90.281732 
L 110.216596 91.862809 
L 110.21702 93.443885 
L 110.2181 95.024961 
L 110.220177 96.606037 
L 110.223193 98.187113 
L 110.226585 99.76819 
L 110.229938 101.349266 
L 110.233701 102.930342 
L 110.238505 104.511418 
L 110.24357 106.092494 
L 110.246803 107.673571 
L 110.247217 109.254647 
L 110.246545 110.835723 
L 110.247776 112.416799 
L 110.2527 113.997876 
L 110.261281 115.578952 
L 110.272485 117.160028 
L 110.285128 118.741104 
L 110.298772 120.32218 
L 110.314761 121.903257 
L 110.336705 123.484333 
L 110.369778 125.065409 
L 110.41855 126.646485 
L 110.484625 128.227561 
L 110.56754 129.808638 
L 110.669611 131.389714 
L 110.79837 132.97079 
L 110.960166 134.551866 
L 111.150874 136.132943 
L 111.358155 137.714019 
L 111.575806 139.295095 
L 111.810593 140.876171 
L 112.071113 142.457247 
L 112.356709 144.038324 
L 112.664492 145.6194 
L 113.002294 147.200476 
L 113.385813 148.781552 
L 113.823693 150.362628 
L 114.308699 151.943705 
L 114.815183 153.524781 
L 115.295255 155.105857 
L 115.6894 156.686933 
L 115.969185 158.26801 
L 116.179053 159.849086 
L 116.415409 161.430162 
L 116.746568 163.011238 
L 117.157706 164.592314 
L 117.576706 166.173391 
L 117.939863 167.754467 
L 118.225667 169.335543 
L 118.438245 170.916619 
L 118.574292 172.497695 
L 118.612665 174.078772 
L 118.537404 175.659848 
L 118.367686 177.240924 
L 118.154781 178.822 
L 117.938314 180.403077 
L 117.705462 181.984153 
L 117.405685 183.565229 
L 117.015186 185.146305 
L 116.579714 186.727381 
L 116.178537 188.308458 
L 115.842573 189.889534 
L 115.520282 191.47061 
L 115.134504 193.051686 
L 114.665837 194.632762 
L 114.167762 196.213839 
L 113.705875 197.794915 
L 113.301681 199.375991 
L 112.937431 200.957067 
L 112.593119 202.538144 
L 112.264067 204.11922 
L 111.953946 205.700296 
L 111.667414 207.281372 
L 111.4117 208.862448 
L 111.197931 210.443525 
L 111.035549 212.024601 
L 110.923199 213.605677 
L 110.843139 215.186753 
L 110.76657 216.767829 
L 110.671409 218.348906 
L 110.558565 219.929982 
L 110.448798 221.511058 
L 110.36288 223.092134 
L 110.306458 224.673211 
L 110.272403 226.254287 
L 110.252111 227.835363 
L 110.24141 229.416439 
L 110.2384 230.997515 
L 110.240005 232.578592 
L 110.241868 234.159668 
L 110.240568 235.740744 
z
" clip-path="url(#p7a4a07586e)" style="fill: #348abd; fill-opacity: 0.3"/>
   </g>
   <g id="PolyCollection_3">
    <path d="M 138.227574 221.633805 
L 138.1802 221.633805 
L 138.179032 220.346091 
L 138.18133 219.058377 
L 138.183347 217.770663 
L 138.180346 216.482949 
L 138.169128 215.195234 
L 138.147789 213.90752 
L 138.111381 212.619806 
L 138.049489 211.332092 
L 137.954376 210.044378 
L 137.834627 208.756664 
L 137.714771 207.46895 
L 137.613599 206.181236 
L 137.523005 204.893522 
L 137.412355 203.605808 
L 137.25239 202.318094 
L 137.032889 201.03038 
L 136.762171 199.742666 
L 136.455543 198.454952 
L 136.125074 197.167238 
L 135.778007 195.879524 
L 135.417181 194.59181 
L 135.032666 193.304096 
L 134.598277 192.016382 
L 134.100874 190.728668 
L 133.581563 189.440954 
L 133.118577 188.15324 
L 132.745184 186.865525 
L 132.404239 185.577811 
L 132.012481 184.290097 
L 131.561293 183.002383 
L 131.127104 181.714669 
L 130.782375 180.426955 
L 130.522365 179.139241 
L 130.292105 177.851527 
L 130.067237 176.563813 
L 129.886364 175.276099 
L 129.807649 173.988385 
L 129.853811 172.700671 
L 130.007767 171.412957 
L 130.250688 170.125243 
L 130.58874 168.837529 
L 131.034725 167.549815 
L 131.561933 166.262101 
L 132.08461 164.974387 
L 132.506747 163.686673 
L 132.804029 162.398959 
L 133.043242 161.111245 
L 133.309011 159.823531 
L 133.628754 158.535817 
L 133.979044 157.248102 
L 134.337016 155.960388 
L 134.699551 154.672674 
L 135.066489 153.38496 
L 135.431256 152.097246 
L 135.787231 150.809532 
L 136.12829 149.521818 
L 136.445223 148.234104 
L 136.733011 146.94639 
L 136.99693 145.658676 
L 137.241394 144.370962 
L 137.458728 143.083248 
L 137.637812 141.795534 
L 137.777945 140.50782 
L 137.887058 139.220106 
L 137.971342 137.932392 
L 138.032781 136.644678 
L 138.074093 135.356964 
L 138.10119 134.06925 
L 138.120755 132.781536 
L 138.137195 131.493822 
L 138.151827 130.206108 
L 138.163962 128.918393 
L 138.172287 127.630679 
L 138.175919 126.342965 
L 138.175762 125.055251 
L 138.175067 123.767537 
L 138.177205 122.479823 
L 138.182461 121.192109 
L 138.188033 119.904395 
L 138.191419 118.616681 
L 138.192882 117.328967 
L 138.194363 116.041253 
L 138.196887 114.753539 
L 138.1998 113.465825 
L 138.202035 112.178111 
L 138.20324 110.890397 
L 138.203713 109.602683 
L 138.203851 108.314969 
L 138.203881 107.027255 
L 138.203886 105.739541 
L 138.203885 104.451827 
L 138.203873 103.164113 
L 138.203807 101.876399 
L 138.203545 100.588684 
L 138.202769 99.30097 
L 138.201078 98.013256 
L 138.198464 96.725542 
L 138.19584 95.437828 
L 138.194708 94.150114 
L 138.213066 94.150114 
L 138.213066 94.150114 
L 138.211935 95.437828 
L 138.20931 96.725542 
L 138.206696 98.013256 
L 138.205005 99.30097 
L 138.204229 100.588684 
L 138.203968 101.876399 
L 138.203902 103.164113 
L 138.203889 104.451827 
L 138.203888 105.739541 
L 138.203893 107.027255 
L 138.203923 108.314969 
L 138.204061 109.602683 
L 138.204535 110.890397 
L 138.20574 112.178111 
L 138.207974 113.465825 
L 138.210887 114.753539 
L 138.213412 116.041253 
L 138.214892 117.328967 
L 138.216356 118.616681 
L 138.219741 119.904395 
L 138.225313 121.192109 
L 138.230569 122.479823 
L 138.232707 123.767537 
L 138.232012 125.055251 
L 138.231856 126.342965 
L 138.235487 127.630679 
L 138.243812 128.918393 
L 138.255948 130.206108 
L 138.270579 131.493822 
L 138.287019 132.781536 
L 138.306584 134.06925 
L 138.333681 135.356964 
L 138.374994 136.644678 
L 138.436433 137.932392 
L 138.520716 139.220106 
L 138.629829 140.50782 
L 138.769962 141.795534 
L 138.949046 143.083248 
L 139.16638 144.370962 
L 139.410845 145.658676 
L 139.674763 146.94639 
L 139.962551 148.234104 
L 140.279485 149.521818 
L 140.620543 150.809532 
L 140.976518 152.097246 
L 141.341285 153.38496 
L 141.708224 154.672674 
L 142.070758 155.960388 
L 142.42873 157.248102 
L 142.77902 158.535817 
L 143.098763 159.823531 
L 143.364532 161.111245 
L 143.603746 162.398959 
L 143.901028 163.686673 
L 144.323164 164.974387 
L 144.845841 166.262101 
L 145.373049 167.549815 
L 145.819034 168.837529 
L 146.157086 170.125243 
L 146.400007 171.412957 
L 146.553963 172.700671 
L 146.600125 173.988385 
L 146.52141 175.276099 
L 146.340538 176.563813 
L 146.11567 177.851527 
L 145.885409 179.139241 
L 145.625399 180.426955 
L 145.28067 181.714669 
L 144.846482 183.002383 
L 144.395293 184.290097 
L 144.003535 185.577811 
L 143.66259 186.865525 
L 143.289197 188.15324 
L 142.826211 189.440954 
L 142.3069 190.728668 
L 141.809497 192.016382 
L 141.375108 193.304096 
L 140.990593 194.59181 
L 140.629767 195.879524 
L 140.282701 197.167238 
L 139.952231 198.454952 
L 139.645603 199.742666 
L 139.374885 201.03038 
L 139.155384 202.318094 
L 138.99542 203.605808 
L 138.884769 204.893522 
L 138.794176 206.181236 
L 138.693003 207.46895 
L 138.573148 208.756664 
L 138.453398 210.044378 
L 138.358285 211.332092 
L 138.296393 212.619806 
L 138.259985 213.90752 
L 138.238646 215.195234 
L 138.227428 216.482949 
L 138.224427 217.770663 
L 138.226445 219.058377 
L 138.228742 220.346091 
L 138.227574 221.633805 
z
" clip-path="url(#p7a4a07586e)" style="fill: #348abd; fill-opacity: 0.3"/>
   </g>
   <g id="PolyCollection_4">
    <path d="M 166.214768 210.924837 
L 166.167928 210.924837 
L 166.166687 209.888363 
L 166.168718 208.851889 
L 166.169953 207.815416 
L 166.165321 206.778942 
L 166.151067 205.742468 
L 166.123637 204.705994 
L 166.075375 203.66952 
L 165.995407 202.633046 
L 165.881842 201.596572 
L 165.752343 200.560099 
L 165.632754 199.523625 
L 165.530031 198.487151 
L 165.421407 197.450677 
L 165.273093 196.414203 
L 165.065655 195.377729 
L 164.801698 194.341255 
L 164.495866 193.304782 
L 164.161942 192.268308 
L 163.808604 191.231834 
L 163.439604 190.19536 
L 163.046171 189.158886 
L 162.602787 188.122412 
L 162.095896 187.085938 
L 161.566715 186.049465 
L 161.094189 185.012991 
L 160.709739 183.976517 
L 160.352897 182.940043 
L 159.943006 181.903569 
L 159.481214 180.867095 
L 159.04937 179.830621 
L 158.711965 178.794148 
L 158.452154 177.757674 
L 158.215876 176.7212 
L 157.99369 175.684726 
L 157.835643 174.648252 
L 157.79511 173.611778 
L 157.881699 172.575304 
L 158.07394 171.538831 
L 158.361515 170.502357 
L 158.758034 169.465883 
L 159.266387 168.429409 
L 159.83608 167.392935 
L 160.372826 166.356461 
L 160.810174 165.319987 
L 161.165495 164.283514 
L 161.504778 163.24704 
L 161.860508 162.210566 
L 162.208574 161.174092 
L 162.516318 160.137618 
L 162.78218 159.101144 
L 163.026141 158.064671 
L 163.265698 157.028197 
L 163.512856 155.991723 
L 163.780273 154.955249 
L 164.073523 153.918775 
L 164.382036 152.882301 
L 164.688807 151.845827 
L 164.98239 150.809354 
L 165.252225 149.77288 
L 165.48409 148.736406 
L 165.669435 147.699932 
L 165.811608 146.663458 
L 165.91852 145.626984 
L 165.995534 144.59051 
L 166.04734 143.554037 
L 166.081129 142.517563 
L 166.104894 141.481089 
L 166.123971 140.444615 
L 166.139946 139.408141 
L 166.151991 138.371667 
L 166.158898 137.335193 
L 166.161016 136.29872 
L 166.161258 135.262246 
L 166.16335 134.225772 
L 166.168356 133.189298 
L 166.17398 132.152824 
L 166.177812 131.11635 
L 166.180019 130.079876 
L 166.182267 129.043403 
L 166.185209 128.006929 
L 166.188064 126.970455 
L 166.189991 125.933981 
L 166.190918 124.897507 
L 166.191244 123.861033 
L 166.191329 122.824559 
L 166.191345 121.788086 
L 166.191348 120.751612 
L 166.191348 119.715138 
L 166.191348 118.678664 
L 166.191348 117.64219 
L 166.191346 116.605716 
L 166.191336 115.569242 
L 166.191278 114.532769 
L 166.191037 113.496295 
L 166.190302 112.459821 
L 166.188658 111.423347 
L 166.186067 110.386873 
L 166.183432 109.350399 
L 166.182288 108.313926 
L 166.200408 108.313926 
L 166.200408 108.313926 
L 166.199264 109.350399 
L 166.196629 110.386873 
L 166.194038 111.423347 
L 166.192394 112.459821 
L 166.191659 113.496295 
L 166.191418 114.532769 
L 166.19136 115.569242 
L 166.19135 116.605716 
L 166.191348 117.64219 
L 166.191348 118.678664 
L 166.191348 119.715138 
L 166.191348 120.751612 
L 166.191351 121.788086 
L 166.191367 122.824559 
L 166.191452 123.861033 
L 166.191778 124.897507 
L 166.192705 125.933981 
L 166.194632 126.970455 
L 166.197487 128.006929 
L 166.200429 129.043403 
L 166.202677 130.079876 
L 166.204884 131.11635 
L 166.208716 132.152824 
L 166.21434 133.189298 
L 166.219346 134.225772 
L 166.221438 135.262246 
L 166.22168 136.29872 
L 166.223798 137.335193 
L 166.230705 138.371667 
L 166.24275 139.408141 
L 166.258725 140.444615 
L 166.277802 141.481089 
L 166.301567 142.517563 
L 166.335356 143.554037 
L 166.387162 144.59051 
L 166.464176 145.626984 
L 166.571088 146.663458 
L 166.713261 147.699932 
L 166.898606 148.736406 
L 167.130471 149.77288 
L 167.400306 150.809354 
L 167.693889 151.845827 
L 168.00066 152.882301 
L 168.309173 153.918775 
L 168.602423 154.955249 
L 168.86984 155.991723 
L 169.116998 157.028197 
L 169.356555 158.064671 
L 169.600516 159.101144 
L 169.866378 160.137618 
L 170.174122 161.174092 
L 170.522188 162.210566 
L 170.877918 163.24704 
L 171.217201 164.283514 
L 171.572522 165.319987 
L 172.00987 166.356461 
L 172.546616 167.392935 
L 173.116309 168.429409 
L 173.624662 169.465883 
L 174.021181 170.502357 
L 174.308756 171.538831 
L 174.500997 172.575304 
L 174.587586 173.611778 
L 174.547053 174.648252 
L 174.389006 175.684726 
L 174.166819 176.7212 
L 173.930542 177.757674 
L 173.670731 178.794148 
L 173.333326 179.830621 
L 172.901482 180.867095 
L 172.43969 181.903569 
L 172.029799 182.940043 
L 171.672957 183.976517 
L 171.288506 185.012991 
L 170.815981 186.049465 
L 170.2868 187.085938 
L 169.779909 188.122412 
L 169.336525 189.158886 
L 168.943092 190.19536 
L 168.574092 191.231834 
L 168.220754 192.268308 
L 167.88683 193.304782 
L 167.580998 194.341255 
L 167.31704 195.377729 
L 167.109603 196.414203 
L 166.961289 197.450677 
L 166.852665 198.487151 
L 166.749941 199.523625 
L 166.630353 200.560099 
L 166.500854 201.596572 
L 166.387289 202.633046 
L 166.307321 203.66952 
L 166.259059 204.705994 
L 166.231629 205.742468 
L 166.217375 206.778942 
L 166.212743 207.815416 
L 166.213978 208.851889 
L 166.216009 209.888363 
L 166.214768 210.924837 
z
" clip-path="url(#p7a4a07586e)" style="fill: #348abd; fill-opacity: 0.3"/>
   </g>
   <g id="PolyCollection_5">
    <path d="M 194.202295 202.980605 
L 194.155322 202.980605 
L 194.153883 202.164805 
L 194.155233 201.349006 
L 194.155235 200.533207 
L 194.148822 199.717408 
L 194.131869 198.901609 
L 194.099603 198.08581 
L 194.043533 197.270011 
L 193.955017 196.454211 
L 193.83719 195.638412 
L 193.710246 194.822613 
L 193.595878 194.006814 
L 193.493874 193.191015 
L 193.378605 192.375216 
L 193.219535 191.559417 
L 193.002284 190.743617 
L 192.732113 189.927818 
L 192.423325 189.112019 
L 192.088413 188.29622 
L 191.735144 187.480421 
L 191.365412 186.664622 
L 190.967689 185.848823 
L 190.517985 185.033023 
L 190.010906 184.217224 
L 189.492914 183.401425 
L 189.035282 182.585626 
L 188.656598 181.769827 
L 188.295313 180.954028 
L 187.882601 180.138228 
L 187.428054 179.322429 
L 187.008485 178.50663 
L 186.678609 177.690831 
L 186.420127 176.875032 
L 186.185502 176.059233 
L 185.96943 175.243434 
L 185.818938 174.427634 
L 185.782571 173.611835 
L 185.869369 172.796036 
L 186.060657 171.980237 
L 186.347345 171.164438 
L 186.740796 170.348639 
L 187.241667 169.53284 
L 187.802451 168.71704 
L 188.337328 167.901241 
L 188.787227 167.085442 
L 189.171087 166.269643 
L 189.554273 165.453844 
L 189.968979 164.638045 
L 190.384133 163.822246 
L 190.748784 163.006446 
L 191.042224 162.190647 
L 191.278795 161.374848 
L 191.481636 160.559049 
L 191.664732 159.74325 
L 191.838171 158.927451 
L 192.017025 158.111652 
L 192.214406 157.295852 
L 192.431589 156.480053 
L 192.663559 155.664254 
L 192.907304 154.848455 
L 193.155789 154.032656 
L 193.391237 153.216857 
L 193.594271 152.401058 
L 193.756227 151.585258 
L 193.878531 150.769459 
L 193.965953 149.95366 
L 194.024775 149.137861 
L 194.063444 148.322062 
L 194.090508 147.506263 
L 194.111435 146.690464 
L 194.127778 145.874664 
L 194.138891 145.058865 
L 194.144502 144.243066 
L 194.146542 143.427267 
L 194.148568 142.611468 
L 194.152829 141.795669 
L 194.158422 140.979869 
L 194.163135 140.16407 
L 194.166347 139.348271 
L 194.169124 138.532472 
L 194.172204 137.716673 
L 194.175136 136.900874 
L 194.177198 136.085075 
L 194.178259 135.269275 
L 194.178663 134.453476 
L 194.178779 133.637677 
L 194.178804 132.821878 
L 194.178808 132.006079 
L 194.178809 131.19028 
L 194.178809 130.374481 
L 194.178809 129.558681 
L 194.178806 128.742882 
L 194.178793 127.927083 
L 194.178722 127.111284 
L 194.178452 126.295485 
L 194.177671 125.479686 
L 194.176007 124.663887 
L 194.173473 123.848087 
L 194.170956 123.032288 
L 194.169877 122.216489 
L 194.187741 122.216489 
L 194.187741 122.216489 
L 194.186662 123.032288 
L 194.184145 123.848087 
L 194.181611 124.663887 
L 194.179946 125.479686 
L 194.179166 126.295485 
L 194.178895 127.111284 
L 194.178825 127.927083 
L 194.178811 128.742882 
L 194.178809 129.558681 
L 194.178809 130.374481 
L 194.178809 131.19028 
L 194.178809 132.006079 
L 194.178813 132.821878 
L 194.178839 133.637677 
L 194.178954 134.453476 
L 194.179359 135.269275 
L 194.18042 136.085075 
L 194.182481 136.900874 
L 194.185413 137.716673 
L 194.188493 138.532472 
L 194.19127 139.348271 
L 194.194482 140.16407 
L 194.199196 140.979869 
L 194.204789 141.795669 
L 194.20905 142.611468 
L 194.211076 143.427267 
L 194.213116 144.243066 
L 194.218727 145.058865 
L 194.22984 145.874664 
L 194.246183 146.690464 
L 194.26711 147.506263 
L 194.294174 148.322062 
L 194.332843 149.137861 
L 194.391664 149.95366 
L 194.479087 150.769459 
L 194.60139 151.585258 
L 194.763346 152.401058 
L 194.96638 153.216857 
L 195.201829 154.032656 
L 195.450314 154.848455 
L 195.694059 155.664254 
L 195.926028 156.480053 
L 196.143212 157.295852 
L 196.340593 158.111652 
L 196.519447 158.927451 
L 196.692886 159.74325 
L 196.875982 160.559049 
L 197.078822 161.374848 
L 197.315393 162.190647 
L 197.608833 163.006446 
L 197.973484 163.822246 
L 198.388638 164.638045 
L 198.803345 165.453844 
L 199.186531 166.269643 
L 199.57039 167.085442 
L 200.02029 167.901241 
L 200.555167 168.71704 
L 201.115951 169.53284 
L 201.616821 170.348639 
L 202.010272 171.164438 
L 202.29696 171.980237 
L 202.488249 172.796036 
L 202.575047 173.611835 
L 202.53868 174.427634 
L 202.388187 175.243434 
L 202.172116 176.059233 
L 201.937491 176.875032 
L 201.679008 177.690831 
L 201.349133 178.50663 
L 200.929563 179.322429 
L 200.475017 180.138228 
L 200.062304 180.954028 
L 199.70102 181.769827 
L 199.322336 182.585626 
L 198.864704 183.401425 
L 198.346712 184.217224 
L 197.839633 185.033023 
L 197.389929 185.848823 
L 196.992206 186.664622 
L 196.622473 187.480421 
L 196.269205 188.29622 
L 195.934292 189.112019 
L 195.625505 189.927818 
L 195.355333 190.743617 
L 195.138083 191.559417 
L 194.979012 192.375216 
L 194.863743 193.191015 
L 194.761739 194.006814 
L 194.647372 194.822613 
L 194.520427 195.638412 
L 194.402601 196.454211 
L 194.314084 197.270011 
L 194.258015 198.08581 
L 194.225748 198.901609 
L 194.208795 199.717408 
L 194.202382 200.533207 
L 194.202384 201.349006 
L 194.203735 202.164805 
L 194.202295 202.980605 
z
" clip-path="url(#p7a4a07586e)" style="fill: #348abd; fill-opacity: 0.3"/>
   </g>
   <g id="PolyCollection_6">
    <path d="M 222.189697 197.087541 
L 222.142842 197.087541 
L 222.141321 196.441022 
L 222.142342 195.794502 
L 222.141947 195.147983 
L 222.135261 194.501463 
L 222.118132 193.854943 
L 222.085675 193.208424 
L 222.029792 192.561904 
L 221.94271 191.915384 
L 221.827579 191.268865 
L 221.702942 190.622345 
L 221.588985 189.975826 
L 221.486466 189.329306 
L 221.372485 188.682786 
L 221.218078 188.036267 
L 221.008001 187.389747 
L 220.745531 186.743228 
L 220.443689 186.096708 
L 220.114886 185.450188 
L 219.767165 184.803669 
L 219.402995 184.157149 
L 219.013181 183.51063 
L 218.576373 182.86411 
L 218.083756 182.21759 
L 217.571217 181.571071 
L 217.104878 180.924551 
L 216.71471 180.278031 
L 216.356087 179.631512 
L 215.960209 178.984992 
L 215.517635 178.338473 
L 215.09044 177.691953 
L 214.74079 177.045433 
L 214.468799 176.398914 
L 214.232086 175.752394 
L 214.011917 175.105875 
L 213.841271 174.459355 
L 213.770031 173.812835 
L 213.819303 173.166316 
L 213.977287 172.519796 
L 214.230298 171.873277 
L 214.583545 171.226757 
L 215.043874 170.580237 
L 215.582836 169.933718 
L 216.127696 169.287198 
L 216.606706 168.640679 
L 217.008999 167.994159 
L 217.386621 167.347639 
L 217.791015 166.70112 
L 218.220183 166.0546 
L 218.63242 165.40808 
L 218.993727 164.761561 
L 219.299666 164.115041 
L 219.56128 163.468522 
L 219.784547 162.822002 
L 219.968581 162.175482 
L 220.120014 161.528963 
L 220.259488 160.882443 
L 220.407554 160.235924 
L 220.568663 159.589404 
L 220.735575 158.942884 
L 220.905749 158.296365 
L 221.084175 157.649845 
L 221.270198 157.003326 
L 221.451143 156.356806 
L 221.61244 155.710286 
L 221.74777 155.063767 
L 221.857111 154.417247 
L 221.941283 153.770727 
L 222.00209 153.124208 
L 222.044398 152.477688 
L 222.074637 151.831169 
L 222.097379 151.184649 
L 222.114057 150.538129 
L 222.124597 149.89161 
L 222.129947 149.24509 
L 222.133008 148.598571 
L 222.136837 147.952051 
L 222.14218 147.305531 
L 222.147596 146.659012 
L 222.151896 146.012492 
L 222.15539 145.365973 
L 222.158757 144.719453 
L 222.161881 144.072933 
L 222.164194 143.426414 
L 222.165491 142.779894 
L 222.16604 142.133375 
L 222.166216 141.486855 
L 222.16626 140.840335 
L 222.166268 140.193816 
L 222.166269 139.547296 
L 222.166269 138.900776 
L 222.166266 138.254257 
L 222.166248 137.607737 
L 222.166164 136.961218 
L 222.165862 136.314698 
L 222.165036 135.668178 
L 222.163353 135.021659 
L 222.160876 134.375139 
L 222.15847 133.72862 
L 222.15745 133.0821 
L 222.175089 133.0821 
L 222.175089 133.0821 
L 222.174069 133.72862 
L 222.171663 134.375139 
L 222.169187 135.021659 
L 222.167503 135.668178 
L 222.166678 136.314698 
L 222.166375 136.961218 
L 222.166291 137.607737 
L 222.166273 138.254257 
L 222.16627 138.900776 
L 222.16627 139.547296 
L 222.166271 140.193816 
L 222.166279 140.840335 
L 222.166323 141.486855 
L 222.166499 142.133375 
L 222.167048 142.779894 
L 222.168345 143.426414 
L 222.170659 144.072933 
L 222.173782 144.719453 
L 222.177149 145.365973 
L 222.180643 146.012492 
L 222.184943 146.659012 
L 222.190359 147.305531 
L 222.195702 147.952051 
L 222.199531 148.598571 
L 222.202592 149.24509 
L 222.207943 149.89161 
L 222.218482 150.538129 
L 222.23516 151.184649 
L 222.257902 151.831169 
L 222.288141 152.477688 
L 222.330449 153.124208 
L 222.391256 153.770727 
L 222.475428 154.417247 
L 222.584769 155.063767 
L 222.720099 155.710286 
L 222.881396 156.356806 
L 223.062341 157.003326 
L 223.248365 157.649845 
L 223.42679 158.296365 
L 223.596964 158.942884 
L 223.763876 159.589404 
L 223.924985 160.235924 
L 224.073051 160.882443 
L 224.212525 161.528963 
L 224.363959 162.175482 
L 224.547992 162.822002 
L 224.771259 163.468522 
L 225.032874 164.115041 
L 225.338812 164.761561 
L 225.700119 165.40808 
L 226.112356 166.0546 
L 226.541524 166.70112 
L 226.945918 167.347639 
L 227.32354 167.994159 
L 227.725833 168.640679 
L 228.204843 169.287198 
L 228.749703 169.933718 
L 229.288665 170.580237 
L 229.748994 171.226757 
L 230.102241 171.873277 
L 230.355252 172.519796 
L 230.513236 173.166316 
L 230.562508 173.812835 
L 230.491268 174.459355 
L 230.320623 175.105875 
L 230.100453 175.752394 
L 229.86374 176.398914 
L 229.591749 177.045433 
L 229.242099 177.691953 
L 228.814905 178.338473 
L 228.372331 178.984992 
L 227.976452 179.631512 
L 227.617829 180.278031 
L 227.227661 180.924551 
L 226.761322 181.571071 
L 226.248783 182.21759 
L 225.756166 182.86411 
L 225.319358 183.51063 
L 224.929544 184.157149 
L 224.565374 184.803669 
L 224.217653 185.450188 
L 223.88885 186.096708 
L 223.587008 186.743228 
L 223.324538 187.389747 
L 223.114461 188.036267 
L 222.960054 188.682786 
L 222.846074 189.329306 
L 222.743554 189.975826 
L 222.629597 190.622345 
L 222.50496 191.268865 
L 222.389829 191.915384 
L 222.302748 192.561904 
L 222.246864 193.208424 
L 222.214407 193.854943 
L 222.197278 194.501463 
L 222.190592 195.147983 
L 222.190197 195.794502 
L 222.191218 196.441022 
L 222.189697 197.087541 
z
" clip-path="url(#p7a4a07586e)" style="fill: #348abd; fill-opacity: 0.3"/>
   </g>
   <g id="PolyCollection_7">
    <path d="M 250.177026 192.501829 
L 250.130435 192.501829 
L 250.128874 191.981659 
L 250.129734 191.461488 
L 250.129149 190.941317 
L 250.122322 190.421147 
L 250.105043 189.900976 
L 250.07232 189.380805 
L 250.016202 188.860635 
L 249.929358 188.340464 
L 249.815081 187.820293 
L 249.691279 187.300123 
L 249.577275 186.779952 
L 249.473791 186.259781 
L 249.358809 185.739611 
L 249.204175 185.21944 
L 248.994703 184.699269 
L 248.733165 184.179099 
L 248.432108 183.658928 
L 248.103827 183.138757 
L 247.756382 182.618587 
L 247.39206 182.098416 
L 247.001744 181.578246 
L 246.565144 181.058075 
L 246.074505 180.537904 
L 245.564558 180.017734 
L 245.098525 179.497563 
L 244.705555 178.977392 
L 244.344062 178.457222 
L 243.948586 177.937051 
L 243.508984 177.41688 
L 243.083525 176.89671 
L 242.732317 176.376539 
L 242.457432 175.856368 
L 242.219543 175.336198 
L 242.000246 174.816027 
L 241.830207 174.295856 
L 241.757492 173.775686 
L 241.803795 173.255515 
L 241.959071 172.735344 
L 242.210275 172.215174 
L 242.561557 171.695003 
L 243.018555 171.174832 
L 243.553472 170.654662 
L 244.096182 170.134491 
L 244.576767 169.61432 
L 244.982707 169.09415 
L 245.362378 168.573979 
L 245.765828 168.053808 
L 246.193289 167.533638 
L 246.606035 167.013467 
L 246.971562 166.493296 
L 247.286473 165.973126 
L 247.563906 165.452955 
L 247.81176 164.932784 
L 248.027352 164.412614 
L 248.210024 163.892443 
L 248.371282 163.372272 
L 248.52687 162.852102 
L 248.681476 162.331931 
L 248.827324 161.81176 
L 248.958728 161.29159 
L 249.083591 160.771419 
L 249.216316 160.251248 
L 249.36052 159.731078 
L 249.504152 159.210907 
L 249.632522 158.690736 
L 249.740697 158.170566 
L 249.831436 157.650395 
L 249.906738 157.130224 
L 249.96578 156.610054 
L 250.00895 156.089883 
L 250.040077 155.569712 
L 250.064094 155.049542 
L 250.083782 154.529371 
L 250.09912 154.0092 
L 250.109329 153.48903 
L 250.115256 152.968859 
L 250.119589 152.448688 
L 250.124633 151.928518 
L 250.130493 151.408347 
L 250.135976 150.888176 
L 250.140538 150.368006 
L 250.14452 149.847835 
L 250.148072 149.327664 
L 250.150834 148.807494 
L 250.152533 148.287323 
L 250.153337 147.767153 
L 250.153628 147.246982 
L 250.153709 146.726811 
L 250.153727 146.206641 
L 250.153729 145.68647 
L 250.153726 145.166299 
L 250.153707 144.646129 
L 250.153616 144.125958 
L 250.1533 143.605787 
L 250.152459 143.085617 
L 250.150775 142.565446 
L 250.148332 142.045275 
L 250.145981 141.525105 
L 250.144989 141.004934 
L 250.162472 141.004934 
L 250.162472 141.004934 
L 250.161479 141.525105 
L 250.159129 142.045275 
L 250.156686 142.565446 
L 250.155002 143.085617 
L 250.15416 143.605787 
L 250.153845 144.125958 
L 250.153754 144.646129 
L 250.153734 145.166299 
L 250.153731 145.68647 
L 250.153734 146.206641 
L 250.153751 146.726811 
L 250.153833 147.246982 
L 250.154124 147.767153 
L 250.154928 148.287323 
L 250.156627 148.807494 
L 250.159389 149.327664 
L 250.162941 149.847835 
L 250.166922 150.368006 
L 250.171485 150.888176 
L 250.176968 151.408347 
L 250.182828 151.928518 
L 250.187872 152.448688 
L 250.192205 152.968859 
L 250.198132 153.48903 
L 250.20834 154.0092 
L 250.223679 154.529371 
L 250.243367 155.049542 
L 250.267384 155.569712 
L 250.298511 156.089883 
L 250.341681 156.610054 
L 250.400722 157.130224 
L 250.476025 157.650395 
L 250.566764 158.170566 
L 250.674939 158.690736 
L 250.803309 159.210907 
L 250.946941 159.731078 
L 251.091145 160.251248 
L 251.22387 160.771419 
L 251.348733 161.29159 
L 251.480137 161.81176 
L 251.625985 162.331931 
L 251.780591 162.852102 
L 251.936179 163.372272 
L 252.097437 163.892443 
L 252.280109 164.412614 
L 252.495701 164.932784 
L 252.743555 165.452955 
L 253.020988 165.973126 
L 253.335899 166.493296 
L 253.701426 167.013467 
L 254.114172 167.533638 
L 254.541632 168.053808 
L 254.945083 168.573979 
L 255.324754 169.09415 
L 255.730694 169.61432 
L 256.211279 170.134491 
L 256.753989 170.654662 
L 257.288906 171.174832 
L 257.745904 171.695003 
L 258.097185 172.215174 
L 258.348389 172.735344 
L 258.503666 173.255515 
L 258.549969 173.775686 
L 258.477254 174.295856 
L 258.307215 174.816027 
L 258.087918 175.336198 
L 257.850029 175.856368 
L 257.575144 176.376539 
L 257.223936 176.89671 
L 256.798476 177.41688 
L 256.358875 177.937051 
L 255.963399 178.457222 
L 255.601906 178.977392 
L 255.208935 179.497563 
L 254.742903 180.017734 
L 254.232956 180.537904 
L 253.742317 181.058075 
L 253.305717 181.578246 
L 252.915401 182.098416 
L 252.551079 182.618587 
L 252.203634 183.138757 
L 251.875353 183.658928 
L 251.574296 184.179099 
L 251.312758 184.699269 
L 251.103286 185.21944 
L 250.948652 185.739611 
L 250.833669 186.259781 
L 250.730186 186.779952 
L 250.616182 187.300123 
L 250.49238 187.820293 
L 250.378103 188.340464 
L 250.291258 188.860635 
L 250.235141 189.380805 
L 250.202417 189.900976 
L 250.185139 190.421147 
L 250.178312 190.941317 
L 250.177727 191.461488 
L 250.178587 191.981659 
L 250.177026 192.501829 
z
" clip-path="url(#p7a4a07586e)" style="fill: #348abd; fill-opacity: 0.3"/>
   </g>
   <g id="PolyCollection_8">
    <path d="M 278.164419 188.831687 
L 278.117963 188.831687 
L 278.116379 188.407513 
L 278.117161 187.983339 
L 278.116339 187.559165 
L 278.10901 187.134991 
L 278.090794 186.710816 
L 278.056345 186.286642 
L 277.997405 185.862468 
L 277.907105 185.438294 
L 277.790217 185.01412 
L 277.665775 184.589946 
L 277.552052 184.165772 
L 277.446857 183.741598 
L 277.325991 183.317424 
L 277.161748 182.89325 
L 276.941272 182.469076 
L 276.66947 182.044901 
L 276.359588 181.620727 
L 276.0236 181.196553 
L 275.668886 180.772379 
L 275.295849 180.348205 
L 274.892079 179.924031 
L 274.437304 179.499857 
L 273.932467 179.075683 
L 273.423584 178.651509 
L 272.971906 178.227335 
L 272.588289 177.803161 
L 272.216882 177.378987 
L 271.801401 176.954812 
L 271.354915 176.530638 
L 270.94508 176.106464 
L 270.617432 175.68229 
L 270.355577 175.258116 
L 270.120957 174.833942 
L 269.91255 174.409768 
L 269.773066 173.985594 
L 269.744953 173.56142 
L 269.836533 173.137246 
L 270.033051 172.713072 
L 270.327762 172.288898 
L 270.728734 171.864723 
L 271.230261 171.440549 
L 271.783024 171.016375 
L 272.308387 170.592201 
L 272.756906 170.168027 
L 273.14849 169.743853 
L 273.541236 169.319679 
L 273.96414 168.895505 
L 274.393375 168.471331 
L 274.787932 168.047157 
L 275.129605 167.622983 
L 275.426343 167.198808 
L 275.690597 166.774634 
L 275.924303 166.35046 
L 276.125194 165.926286 
L 276.301144 165.502112 
L 276.469792 165.077938 
L 276.642167 164.653764 
L 276.811909 164.22959 
L 276.964241 163.805416 
L 277.094274 163.381242 
L 277.213576 162.957068 
L 277.336988 162.532894 
L 277.465387 162.108719 
L 277.585666 161.684545 
L 277.686244 161.260371 
L 277.767459 160.836197 
L 277.836833 160.412023 
L 277.898952 159.987849 
L 277.9522 159.563675 
L 277.993319 159.139501 
L 278.022395 158.715327 
L 278.043153 158.291153 
L 278.059919 157.866979 
L 278.074997 157.442804 
L 278.088146 157.01863 
L 278.097862 156.594456 
L 278.103414 156.170282 
L 278.10618 155.746108 
L 278.108892 155.321934 
L 278.113275 154.89776 
L 278.118871 154.473586 
L 278.124377 154.049412 
L 278.129236 153.625238 
L 278.133475 153.201064 
L 278.136914 152.77689 
L 278.13924 152.352715 
L 278.140477 151.928541 
L 278.140984 151.504367 
L 278.141144 151.080193 
L 278.141182 150.656019 
L 278.141186 150.231845 
L 278.141169 149.807671 
L 278.141082 149.383497 
L 278.140776 148.959323 
L 278.13995 148.535149 
L 278.138282 148.110975 
L 278.135845 147.6868 
L 278.133489 147.262626 
L 278.132493 146.838452 
L 278.14989 146.838452 
L 278.14989 146.838452 
L 278.148893 147.262626 
L 278.146538 147.6868 
L 278.144101 148.110975 
L 278.142433 148.535149 
L 278.141606 148.959323 
L 278.1413 149.383497 
L 278.141214 149.807671 
L 278.141196 150.231845 
L 278.1412 150.656019 
L 278.141239 151.080193 
L 278.141398 151.504367 
L 278.141905 151.928541 
L 278.143142 152.352715 
L 278.145469 152.77689 
L 278.148908 153.201064 
L 278.153147 153.625238 
L 278.158006 154.049412 
L 278.163511 154.473586 
L 278.169107 154.89776 
L 278.173491 155.321934 
L 278.176203 155.746108 
L 278.178969 156.170282 
L 278.184521 156.594456 
L 278.194236 157.01863 
L 278.207385 157.442804 
L 278.222464 157.866979 
L 278.23923 158.291153 
L 278.259987 158.715327 
L 278.289064 159.139501 
L 278.330182 159.563675 
L 278.383431 159.987849 
L 278.44555 160.412023 
L 278.514924 160.836197 
L 278.596138 161.260371 
L 278.696717 161.684545 
L 278.816996 162.108719 
L 278.945394 162.532894 
L 279.068806 162.957068 
L 279.188108 163.381242 
L 279.318141 163.805416 
L 279.470473 164.22959 
L 279.640216 164.653764 
L 279.81259 165.077938 
L 279.981239 165.502112 
L 280.157189 165.926286 
L 280.358079 166.35046 
L 280.591786 166.774634 
L 280.856039 167.198808 
L 281.152777 167.622983 
L 281.49445 168.047157 
L 281.889008 168.471331 
L 282.318243 168.895505 
L 282.741146 169.319679 
L 283.133892 169.743853 
L 283.525476 170.168027 
L 283.973995 170.592201 
L 284.499359 171.016375 
L 285.052121 171.440549 
L 285.553648 171.864723 
L 285.95462 172.288898 
L 286.249332 172.713072 
L 286.44585 173.137246 
L 286.537429 173.56142 
L 286.509316 173.985594 
L 286.369833 174.409768 
L 286.161426 174.833942 
L 285.926805 175.258116 
L 285.66495 175.68229 
L 285.337302 176.106464 
L 284.927467 176.530638 
L 284.480982 176.954812 
L 284.0655 177.378987 
L 283.694094 177.803161 
L 283.310477 178.227335 
L 282.858798 178.651509 
L 282.349916 179.075683 
L 281.845079 179.499857 
L 281.390303 179.924031 
L 280.986534 180.348205 
L 280.613496 180.772379 
L 280.258783 181.196553 
L 279.922795 181.620727 
L 279.612912 182.044901 
L 279.34111 182.469076 
L 279.120635 182.89325 
L 278.956391 183.317424 
L 278.835526 183.741598 
L 278.730331 184.165772 
L 278.616607 184.589946 
L 278.492165 185.01412 
L 278.375277 185.438294 
L 278.284978 185.862468 
L 278.226037 186.286642 
L 278.191588 186.710816 
L 278.173372 187.134991 
L 278.166043 187.559165 
L 278.165222 187.983339 
L 278.166004 188.407513 
L 278.164419 188.831687 
z
" clip-path="url(#p7a4a07586e)" style="fill: #348abd; fill-opacity: 0.3"/>
   </g>
   <g id="PolyCollection_9">
    <path d="M 306.151831 185.84562 
L 306.105473 185.84562 
L 306.103878 185.495223 
L 306.104643 185.144825 
L 306.103455 184.794428 
L 306.095082 184.44403 
L 306.074788 184.093633 
L 306.036466 183.743235 
L 305.971048 183.392838 
L 305.872642 183.04244 
L 305.749595 182.692042 
L 305.623746 182.341645 
L 305.510683 181.991247 
L 305.400988 181.64085 
L 305.265466 181.290452 
L 305.078097 180.940055 
L 304.831972 180.589657 
L 304.53685 180.239259 
L 304.207185 179.888862 
L 303.853949 179.538464 
L 303.482326 179.188067 
L 303.086927 178.837669 
L 302.648291 178.487272 
L 302.152089 178.136874 
L 301.625122 177.786477 
L 301.133011 177.436079 
L 300.716071 177.085681 
L 300.338535 176.735284 
L 299.930578 176.384886 
L 299.477744 176.034489 
L 299.04062 175.684091 
L 298.68182 175.333694 
L 298.400673 174.983296 
L 298.156074 174.632899 
L 297.935595 174.282501 
L 297.778222 173.932103 
L 297.732414 173.581706 
L 297.812712 173.231308 
L 298.005013 172.880911 
L 298.300602 172.530513 
L 298.707175 172.180116 
L 299.219223 171.829718 
L 299.784586 171.479321 
L 300.319855 171.128923 
L 300.774999 170.778525 
L 301.174957 170.428128 
L 301.58081 170.07773 
L 302.016963 169.727333 
L 302.453043 169.376935 
L 302.84752 169.026538 
L 303.186905 168.67614 
L 303.48245 168.325742 
L 303.745304 167.975345 
L 303.975153 167.624947 
L 304.171702 167.27455 
L 304.347699 166.924152 
L 304.521613 166.573755 
L 304.698844 166.223357 
L 304.867431 165.87296 
L 305.014477 165.522562 
L 305.143391 165.172164 
L 305.270775 164.821767 
L 305.406133 164.471369 
L 305.540039 164.120972 
L 305.655187 163.770574 
L 305.744169 163.420177 
L 305.813116 163.069779 
L 305.871911 162.719382 
L 305.924742 162.368984 
L 305.969366 162.018586 
L 306.00266 161.668189 
L 306.025016 161.317791 
L 306.040013 160.967394 
L 306.051744 160.616996 
L 306.062906 160.266599 
L 306.074258 159.916201 
L 306.084914 159.565804 
L 306.093208 159.215406 
L 306.097816 158.865008 
L 306.09895 158.514611 
L 306.098915 158.164213 
L 306.100598 157.813816 
L 306.104799 157.463418 
L 306.109863 157.113021 
L 306.114139 156.762623 
L 306.117631 156.412225 
L 306.120995 156.061828 
L 306.124157 155.71143 
L 306.126527 155.361033 
L 306.127861 155.010635 
L 306.128422 154.660238 
L 306.1286 154.30984 
L 306.12864 153.959443 
L 306.128634 153.609045 
L 306.128563 153.258647 
L 306.12829 152.90825 
L 306.127517 152.557852 
L 306.125889 152.207455 
L 306.123436 151.857057 
L 306.121016 151.50666 
L 306.119981 151.156262 
L 306.137323 151.156262 
L 306.137323 151.156262 
L 306.136288 151.50666 
L 306.133868 151.857057 
L 306.131415 152.207455 
L 306.129787 152.557852 
L 306.129014 152.90825 
L 306.128742 153.258647 
L 306.12867 153.609045 
L 306.128664 153.959443 
L 306.128704 154.30984 
L 306.128882 154.660238 
L 306.129443 155.010635 
L 306.130777 155.361033 
L 306.133147 155.71143 
L 306.136309 156.061828 
L 306.139673 156.412225 
L 306.143166 156.762623 
L 306.147441 157.113021 
L 306.152505 157.463418 
L 306.156706 157.813816 
L 306.158389 158.164213 
L 306.158354 158.514611 
L 306.159488 158.865008 
L 306.164096 159.215406 
L 306.17239 159.565804 
L 306.183046 159.916201 
L 306.194398 160.266599 
L 306.20556 160.616996 
L 306.217291 160.967394 
L 306.232288 161.317791 
L 306.254644 161.668189 
L 306.287938 162.018586 
L 306.332562 162.368984 
L 306.385393 162.719382 
L 306.444188 163.069779 
L 306.513135 163.420177 
L 306.602118 163.770574 
L 306.717265 164.120972 
L 306.851171 164.471369 
L 306.986529 164.821767 
L 307.113913 165.172164 
L 307.242827 165.522562 
L 307.389873 165.87296 
L 307.55846 166.223357 
L 307.735691 166.573755 
L 307.909605 166.924152 
L 308.085602 167.27455 
L 308.282151 167.624947 
L 308.512 167.975345 
L 308.774854 168.325742 
L 309.070399 168.67614 
L 309.409784 169.026538 
L 309.804261 169.376935 
L 310.240341 169.727333 
L 310.676494 170.07773 
L 311.082347 170.428128 
L 311.482305 170.778525 
L 311.937449 171.128923 
L 312.472718 171.479321 
L 313.038081 171.829718 
L 313.550129 172.180116 
L 313.956702 172.530513 
L 314.252291 172.880911 
L 314.444592 173.231308 
L 314.52489 173.581706 
L 314.479082 173.932103 
L 314.32171 174.282501 
L 314.10123 174.632899 
L 313.856632 174.983296 
L 313.575485 175.333694 
L 313.216684 175.684091 
L 312.77956 176.034489 
L 312.326726 176.384886 
L 311.918769 176.735284 
L 311.541233 177.085681 
L 311.124293 177.436079 
L 310.632182 177.786477 
L 310.105216 178.136874 
L 309.609013 178.487272 
L 309.170377 178.837669 
L 308.774978 179.188067 
L 308.403355 179.538464 
L 308.050119 179.888862 
L 307.720454 180.239259 
L 307.425332 180.589657 
L 307.179208 180.940055 
L 306.991838 181.290452 
L 306.856316 181.64085 
L 306.746621 181.991247 
L 306.633558 182.341645 
L 306.507709 182.692042 
L 306.384662 183.04244 
L 306.286257 183.392838 
L 306.220838 183.743235 
L 306.182516 184.093633 
L 306.162223 184.44403 
L 306.153849 184.794428 
L 306.152661 185.144825 
L 306.153426 185.495223 
L 306.151831 185.84562 
z
" clip-path="url(#p7a4a07586e)" style="fill: #348abd; fill-opacity: 0.3"/>
   </g>
   <g id="PolyCollection_10">
    <path d="M 334.139301 183.385715 
L 334.092925 183.385715 
L 334.091325 183.092462 
L 334.092104 182.799209 
L 334.090256 182.505956 
L 334.079904 182.212702 
L 334.055601 181.919449 
L 334.0097 181.626196 
L 333.931885 181.332943 
L 333.819113 181.03969 
L 333.686911 180.746437 
L 333.560279 180.453184 
L 333.44645 180.159931 
L 333.322414 179.866678 
L 333.153885 179.573425 
L 332.922178 179.280171 
L 332.631625 178.986918 
L 332.297972 178.693665 
L 331.935421 178.400412 
L 331.551996 178.107159 
L 331.145191 177.813906 
L 330.695807 177.520653 
L 330.184586 177.2274 
L 329.635203 176.934147 
L 329.119424 176.640894 
L 328.684181 176.34764 
L 328.289046 176.054387 
L 327.857622 175.761134 
L 327.382843 175.467881 
L 326.938331 175.174628 
L 326.584125 174.881375 
L 326.304335 174.588122 
L 326.0553 174.294869 
L 325.842361 174.001616 
L 325.719875 173.708363 
L 325.730356 173.415109 
L 325.872623 173.121856 
L 326.129816 172.828603 
L 326.503245 172.53535 
L 326.998201 172.242097 
L 327.577828 171.948844 
L 328.154258 171.655591 
L 328.652197 171.362338 
L 329.077814 171.069085 
L 329.497366 170.775831 
L 329.949301 170.482578 
L 330.406274 170.189325 
L 330.820733 169.896072 
L 331.175529 169.602819 
L 331.482838 169.309566 
L 331.754644 169.016313 
L 331.990147 168.72306 
L 332.190664 168.429807 
L 332.372806 168.136554 
L 332.555643 167.8433 
L 332.739696 167.550047 
L 332.908907 167.256794 
L 333.053833 166.963541 
L 333.185768 166.670288 
L 333.3227 166.377035 
L 333.465375 166.083782 
L 333.596174 165.790529 
L 333.700239 165.497276 
L 333.779115 165.204023 
L 333.843929 164.910769 
L 333.902001 164.617516 
L 333.952255 164.324263 
L 333.990592 164.03101 
L 334.01625 163.737757 
L 334.032551 163.444504 
L 334.043824 163.151251 
L 334.053256 162.857998 
L 334.062623 162.564745 
L 334.072192 162.271492 
L 334.081013 161.978238 
L 334.087984 161.684985 
L 334.092171 161.391732 
L 334.092842 161.098479 
L 334.0909 160.805226 
L 334.089559 160.511973 
L 334.091655 160.21872 
L 334.096598 159.925467 
L 334.101357 159.632214 
L 334.104178 159.338961 
L 334.105996 159.045707 
L 334.108333 158.752454 
L 334.111244 158.459201 
L 334.113745 158.165948 
L 334.115232 157.872695 
L 334.115863 157.579442 
L 334.116059 157.286189 
L 334.116104 156.992936 
L 334.11611 156.699683 
L 334.116103 156.40643 
L 334.116052 156.113176 
L 334.115836 155.819923 
L 334.115157 155.52667 
L 334.113604 155.233417 
L 334.111117 154.940164 
L 334.108559 154.646911 
L 334.107443 154.353658 
L 334.124782 154.353658 
L 334.124782 154.353658 
L 334.123667 154.646911 
L 334.121109 154.940164 
L 334.118622 155.233417 
L 334.117069 155.52667 
L 334.11639 155.819923 
L 334.116174 156.113176 
L 334.116123 156.40643 
L 334.116115 156.699683 
L 334.116122 156.992936 
L 334.116167 157.286189 
L 334.116362 157.579442 
L 334.116994 157.872695 
L 334.118481 158.165948 
L 334.120982 158.459201 
L 334.123893 158.752454 
L 334.12623 159.045707 
L 334.128048 159.338961 
L 334.130869 159.632214 
L 334.135628 159.925467 
L 334.14057 160.21872 
L 334.142667 160.511973 
L 334.141325 160.805226 
L 334.139384 161.098479 
L 334.140054 161.391732 
L 334.144241 161.684985 
L 334.151213 161.978238 
L 334.160033 162.271492 
L 334.169602 162.564745 
L 334.178969 162.857998 
L 334.188402 163.151251 
L 334.199674 163.444504 
L 334.215976 163.737757 
L 334.241633 164.03101 
L 334.27997 164.324263 
L 334.330225 164.617516 
L 334.388297 164.910769 
L 334.453111 165.204023 
L 334.531987 165.497276 
L 334.636051 165.790529 
L 334.76685 166.083782 
L 334.909526 166.377035 
L 335.046457 166.670288 
L 335.178393 166.963541 
L 335.323319 167.256794 
L 335.492529 167.550047 
L 335.676582 167.8433 
L 335.85942 168.136554 
L 336.041562 168.429807 
L 336.242079 168.72306 
L 336.477581 169.016313 
L 336.749387 169.309566 
L 337.056696 169.602819 
L 337.411492 169.896072 
L 337.825951 170.189325 
L 338.282924 170.482578 
L 338.734859 170.775831 
L 339.154412 171.069085 
L 339.580028 171.362338 
L 340.077968 171.655591 
L 340.654398 171.948844 
L 341.234025 172.242097 
L 341.72898 172.53535 
L 342.10241 172.828603 
L 342.359603 173.121856 
L 342.501869 173.415109 
L 342.512351 173.708363 
L 342.389864 174.001616 
L 342.176926 174.294869 
L 341.927891 174.588122 
L 341.648101 174.881375 
L 341.293895 175.174628 
L 340.849383 175.467881 
L 340.374604 175.761134 
L 339.943179 176.054387 
L 339.548045 176.34764 
L 339.112802 176.640894 
L 338.597023 176.934147 
L 338.047639 177.2274 
L 337.536418 177.520653 
L 337.087034 177.813906 
L 336.68023 178.107159 
L 336.296804 178.400412 
L 335.934253 178.693665 
L 335.6006 178.986918 
L 335.310048 179.280171 
L 335.078341 179.573425 
L 334.909812 179.866678 
L 334.785776 180.159931 
L 334.671946 180.453184 
L 334.545315 180.746437 
L 334.413113 181.03969 
L 334.300341 181.332943 
L 334.222526 181.626196 
L 334.176624 181.919449 
L 334.152321 182.212702 
L 334.141969 182.505956 
L 334.140122 182.799209 
L 334.1409 183.092462 
L 334.139301 183.385715 
z
" clip-path="url(#p7a4a07586e)" style="fill: #348abd; fill-opacity: 0.3"/>
   </g>
   <g id="PolyCollection_11">
    <path d="M 362.126727 181.343901 
L 362.080421 181.343901 
L 362.07883 181.098002 
L 362.079608 180.852102 
L 362.076774 180.606203 
L 362.063577 180.360304 
L 362.033439 180.114404 
L 361.976403 179.868505 
L 361.881468 179.622606 
L 361.751935 179.376706 
L 361.612892 179.130807 
L 361.487518 178.884908 
L 361.366033 178.639008 
L 361.210656 178.393109 
L 360.990145 178.14721 
L 360.701008 177.90131 
L 360.359322 177.655411 
L 359.982767 177.409511 
L 359.582148 177.163612 
L 359.156492 176.917713 
L 358.685022 176.671813 
L 358.145726 176.425914 
L 357.568312 176.180015 
L 357.036391 175.934115 
L 356.591797 175.688216 
L 356.1725 175.442317 
L 355.701483 175.196417 
L 355.203361 174.950518 
L 354.770558 174.704619 
L 354.43887 174.458719 
L 354.164345 174.21282 
L 353.918695 173.966921 
L 353.745639 173.721021 
L 353.707335 173.475122 
L 353.819153 173.229223 
L 354.062217 172.983323 
L 354.432121 172.737424 
L 354.936972 172.491525 
L 355.541941 172.245625 
L 356.14869 171.999726 
L 356.669638 171.753827 
L 357.114568 171.507927 
L 357.559989 171.262028 
L 358.039814 171.016129 
L 358.513177 170.770229 
L 358.930624 170.52433 
L 359.284564 170.278431 
L 359.59226 170.032531 
L 359.861364 169.786632 
L 360.089412 169.540732 
L 360.286819 169.294833 
L 360.47749 169.048934 
L 360.671943 168.803034 
L 360.85603 168.557135 
L 361.014157 168.311236 
L 361.153993 168.065336 
L 361.296824 167.819437 
L 361.446788 167.573538 
L 361.584684 167.327638 
L 361.693193 167.081739 
L 361.774526 166.83584 
L 361.841528 166.58994 
L 361.901319 166.344041 
L 361.951434 166.098142 
L 361.98767 165.852242 
L 362.010757 165.606343 
L 362.025371 165.360444 
L 362.036181 165.114544 
L 362.046173 164.868645 
L 362.056475 164.622746 
L 362.066392 164.376846 
L 362.074786 164.130947 
L 362.081095 163.885048 
L 362.084351 163.639148 
L 362.083549 163.393249 
L 362.080279 163.14735 
L 362.07875 162.90145 
L 362.081744 162.655551 
L 362.087661 162.409652 
L 362.092522 162.163752 
L 362.09425 161.917853 
L 362.094259 161.671953 
L 362.095116 161.426054 
L 362.097567 161.180155 
L 362.100383 160.934255 
L 362.102319 160.688356 
L 362.10321 160.442457 
L 362.103496 160.196557 
L 362.103561 159.950658 
L 362.103572 159.704759 
L 362.103574 159.458859 
L 362.103574 159.21296 
L 362.103573 158.967061 
L 362.103569 158.721161 
L 362.103538 158.475262 
L 362.103382 158.229363 
L 362.102818 157.983463 
L 362.101378 157.737564 
L 362.09887 157.491665 
L 362.096143 157.245765 
L 362.09492 156.999866 
L 362.112227 156.999866 
L 362.112227 156.999866 
L 362.111004 157.245765 
L 362.108278 157.491665 
L 362.105769 157.737564 
L 362.104329 157.983463 
L 362.103765 158.229363 
L 362.10361 158.475262 
L 362.103579 158.721161 
L 362.103574 158.967061 
L 362.103574 159.21296 
L 362.103574 159.458859 
L 362.103575 159.704759 
L 362.103586 159.950658 
L 362.103651 160.196557 
L 362.103937 160.442457 
L 362.104828 160.688356 
L 362.106765 160.934255 
L 362.10958 161.180155 
L 362.112031 161.426054 
L 362.112888 161.671953 
L 362.112897 161.917853 
L 362.114625 162.163752 
L 362.119487 162.409652 
L 362.125404 162.655551 
L 362.128397 162.90145 
L 362.126868 163.14735 
L 362.123598 163.393249 
L 362.122796 163.639148 
L 362.126052 163.885048 
L 362.132362 164.130947 
L 362.140755 164.376846 
L 362.150672 164.622746 
L 362.160975 164.868645 
L 362.170966 165.114544 
L 362.181776 165.360444 
L 362.19639 165.606343 
L 362.219477 165.852242 
L 362.255714 166.098142 
L 362.305828 166.344041 
L 362.365619 166.58994 
L 362.432621 166.83584 
L 362.513954 167.081739 
L 362.622463 167.327638 
L 362.76036 167.573538 
L 362.910324 167.819437 
L 363.053154 168.065336 
L 363.192991 168.311236 
L 363.351117 168.557135 
L 363.535204 168.803034 
L 363.729657 169.048934 
L 363.920328 169.294833 
L 364.117735 169.540732 
L 364.345783 169.786632 
L 364.614887 170.032531 
L 364.922583 170.278431 
L 365.276523 170.52433 
L 365.69397 170.770229 
L 366.167333 171.016129 
L 366.647158 171.262028 
L 367.09258 171.507927 
L 367.537509 171.753827 
L 368.058457 171.999726 
L 368.665206 172.245625 
L 369.270175 172.491525 
L 369.775026 172.737424 
L 370.144931 172.983323 
L 370.387995 173.229223 
L 370.499812 173.475122 
L 370.461508 173.721021 
L 370.288452 173.966921 
L 370.042802 174.21282 
L 369.768278 174.458719 
L 369.436589 174.704619 
L 369.003786 174.950518 
L 368.505665 175.196417 
L 368.034647 175.442317 
L 367.615351 175.688216 
L 367.170756 175.934115 
L 366.638835 176.180015 
L 366.061421 176.425914 
L 365.522125 176.671813 
L 365.050656 176.917713 
L 364.624999 177.163612 
L 364.22438 177.409511 
L 363.847825 177.655411 
L 363.50614 177.90131 
L 363.217002 178.14721 
L 362.996491 178.393109 
L 362.841115 178.639008 
L 362.719629 178.884908 
L 362.594255 179.130807 
L 362.455212 179.376706 
L 362.32568 179.622606 
L 362.230744 179.868505 
L 362.173708 180.114404 
L 362.14357 180.360304 
L 362.130373 180.606203 
L 362.127539 180.852102 
L 362.128317 181.098002 
L 362.126727 181.343901 
z
" clip-path="url(#p7a4a07586e)" style="fill: #348abd; fill-opacity: 0.3"/>
   </g>
   <g id="PolyCollection_12">
    <path d="M 390.114215 179.64559 
L 390.067854 179.64559 
L 390.066273 179.443533 
L 390.067022 179.241476 
L 390.063197 179.039419 
L 390.047234 178.837362 
L 390.011319 178.635305 
L 389.943306 178.433248 
L 389.83292 178.231191 
L 389.691204 178.029133 
L 389.549829 177.827076 
L 389.423929 177.625019 
L 389.286482 177.422962 
L 389.093493 177.220905 
L 388.824168 177.018848 
L 388.488599 176.816791 
L 388.107855 176.614734 
L 387.697608 176.412677 
L 387.26233 176.210619 
L 386.785388 176.008562 
L 386.237867 175.806505 
L 385.636979 175.604448 
L 385.071019 175.402391 
L 384.599508 175.200334 
L 384.162308 174.998277 
L 383.671125 174.79622 
L 383.152513 174.594162 
L 382.709188 174.392105 
L 382.373015 174.190048 
L 382.091292 173.987991 
L 381.845063 173.785934 
L 381.694796 173.583877 
L 381.701153 173.38182 
L 381.865562 173.179763 
L 382.167913 172.977706 
L 382.612922 172.775648 
L 383.196709 172.573591 
L 383.843419 172.371534 
L 384.433781 172.169477 
L 384.923375 171.96742 
L 385.379908 171.765363 
L 385.870588 171.563306 
L 386.372823 171.361249 
L 386.825363 171.159191 
L 387.207144 170.957134 
L 387.535117 170.755077 
L 387.820907 170.55302 
L 388.062163 170.350963 
L 388.26908 170.148906 
L 388.468228 169.946849 
L 388.671088 169.744792 
L 388.861059 169.542735 
L 389.022534 169.340677 
L 389.167705 169.13862 
L 389.319135 168.936563 
L 389.474669 168.734506 
L 389.610256 168.532449 
L 389.712503 168.330392 
L 389.790101 168.128335 
L 389.856581 167.926278 
L 389.914852 167.72422 
L 389.959961 167.522163 
L 389.989682 167.320106 
L 390.007837 167.118049 
L 390.020105 166.915992 
L 390.03059 166.713935 
L 390.04126 166.511878 
L 390.051819 166.309821 
L 390.060932 166.107764 
L 390.067869 165.905706 
L 390.071655 165.703649 
L 390.071073 165.501592 
L 390.067703 165.299535 
L 390.066248 165.097478 
L 390.069762 164.895421 
L 390.076214 164.693364 
L 390.081092 164.491307 
L 390.082366 164.289249 
L 390.081951 164.087192 
L 390.08275 163.885135 
L 390.085353 163.683078 
L 390.088208 163.481021 
L 390.090022 163.278964 
L 390.090774 163.076907 
L 390.090986 162.87485 
L 390.091028 162.672793 
L 390.091034 162.470735 
L 390.091034 162.268678 
L 390.091034 162.066621 
L 390.091034 161.864564 
L 390.091034 161.662507 
L 390.091034 161.46045 
L 390.091034 161.258393 
L 390.091032 161.056336 
L 390.091012 160.854278 
L 390.090896 160.652221 
L 390.09042 160.450164 
L 390.089079 160.248107 
L 390.086564 160.04605 
L 390.083693 159.843993 
L 390.082373 159.641936 
L 390.099696 159.641936 
L 390.099696 159.641936 
L 390.098376 159.843993 
L 390.095505 160.04605 
L 390.09299 160.248107 
L 390.091649 160.450164 
L 390.091173 160.652221 
L 390.091057 160.854278 
L 390.091037 161.056336 
L 390.091035 161.258393 
L 390.091034 161.46045 
L 390.091034 161.662507 
L 390.091034 161.864564 
L 390.091034 162.066621 
L 390.091035 162.268678 
L 390.091035 162.470735 
L 390.091041 162.672793 
L 390.091083 162.87485 
L 390.091295 163.076907 
L 390.092047 163.278964 
L 390.093861 163.481021 
L 390.096716 163.683078 
L 390.099318 163.885135 
L 390.100118 164.087192 
L 390.099703 164.289249 
L 390.100977 164.491307 
L 390.105855 164.693364 
L 390.112307 164.895421 
L 390.115821 165.097478 
L 390.114366 165.299535 
L 390.110996 165.501592 
L 390.110414 165.703649 
L 390.1142 165.905706 
L 390.121137 166.107764 
L 390.13025 166.309821 
L 390.140809 166.511878 
L 390.151479 166.713935 
L 390.161964 166.915992 
L 390.174232 167.118049 
L 390.192387 167.320106 
L 390.222108 167.522163 
L 390.267217 167.72422 
L 390.325488 167.926278 
L 390.391968 168.128335 
L 390.469566 168.330392 
L 390.571813 168.532449 
L 390.7074 168.734506 
L 390.862934 168.936563 
L 391.014364 169.13862 
L 391.159535 169.340677 
L 391.32101 169.542735 
L 391.510981 169.744792 
L 391.713841 169.946849 
L 391.912989 170.148906 
L 392.119906 170.350963 
L 392.361162 170.55302 
L 392.646952 170.755077 
L 392.974925 170.957134 
L 393.356706 171.159191 
L 393.809246 171.361249 
L 394.311481 171.563306 
L 394.802161 171.765363 
L 395.258694 171.96742 
L 395.748288 172.169477 
L 396.33865 172.371534 
L 396.98536 172.573591 
L 397.569147 172.775648 
L 398.014156 172.977706 
L 398.316507 173.179763 
L 398.480916 173.38182 
L 398.487273 173.583877 
L 398.337006 173.785934 
L 398.090777 173.987991 
L 397.809054 174.190048 
L 397.472881 174.392105 
L 397.029556 174.594162 
L 396.510944 174.79622 
L 396.019761 174.998277 
L 395.582561 175.200334 
L 395.11105 175.402391 
L 394.54509 175.604448 
L 393.944202 175.806505 
L 393.396681 176.008562 
L 392.919739 176.210619 
L 392.484461 176.412677 
L 392.074214 176.614734 
L 391.69347 176.816791 
L 391.357901 177.018848 
L 391.088576 177.220905 
L 390.895587 177.422962 
L 390.75814 177.625019 
L 390.63224 177.827076 
L 390.490865 178.029133 
L 390.349149 178.231191 
L 390.238763 178.433248 
L 390.17075 178.635305 
L 390.134835 178.837362 
L 390.118872 179.039419 
L 390.115047 179.241476 
L 390.115796 179.443533 
L 390.114215 179.64559 
z
" clip-path="url(#p7a4a07586e)" style="fill: #348abd; fill-opacity: 0.3"/>
   </g>
   <g id="matplotlib.axis_1">
    <g id="xtick_1">
     <g id="line2d_1">
      <path d="M 82.228966 307.584 
L 82.228966 41.472 
" clip-path="url(#p7a4a07586e)" style="fill: none; stroke-dasharray: 1.85,0.8; stroke-dashoffset: 0; stroke: #b2b2b2; stroke-width: 0.5"/>
     </g>
     <g id="line2d_2">
      <defs>
       <path id="m38999b6756" d="M 0 0 
L 0 -3.5 
" style="stroke: #000000; stroke-width: 0.8"/>
      </defs>
      <g>
       <use xlink:href="#m38999b6756" x="82.228966" y="307.584" style="stroke: #000000; stroke-width: 0.8"/>
      </g>
     </g>
     <g id="text_1">
      <!-- 0 -->
      <g transform="translate(79.047716 318.682437) scale(0.1 -0.1)">
       <defs>
        <path id="DejaVuSans-30" d="M 2034 4250 
Q 1547 4250 1301 3770 
Q 1056 3291 1056 2328 
Q 1056 1369 1301 889 
Q 1547 409 2034 409 
Q 2525 409 2770 889 
Q 3016 1369 3016 2328 
Q 3016 3291 2770 3770 
Q 2525 4250 2034 4250 
z
M 2034 4750 
Q 2819 4750 3233 4129 
Q 3647 3509 3647 2328 
Q 3647 1150 3233 529 
Q 2819 -91 2034 -91 
Q 1250 -91 836 529 
Q 422 1150 422 2328 
Q 422 3509 836 4129 
Q 1250 4750 2034 4750 
z
" transform="scale(0.015625)"/>
       </defs>
       <use xlink:href="#DejaVuSans-30"/>
      </g>
     </g>
    </g>
    <g id="xtick_2">
     <g id="line2d_3">
      <path d="M 138.203887 307.584 
L 138.203887 41.472 
" clip-path="url(#p7a4a07586e)" style="fill: none; stroke-dasharray: 1.85,0.8; stroke-dashoffset: 0; stroke: #b2b2b2; stroke-width: 0.5"/>
     </g>
     <g id="line2d_4">
      <g>
       <use xlink:href="#m38999b6756" x="138.203887" y="307.584" style="stroke: #000000; stroke-width: 0.8"/>
      </g>
     </g>
     <g id="text_2">
      <!-- 50 -->
      <g transform="translate(131.841387 318.682437) scale(0.1 -0.1)">
       <defs>
        <path id="DejaVuSans-35" d="M 691 4666 
L 3169 4666 
L 3169 4134 
L 1269 4134 
L 1269 2991 
Q 1406 3038 1543 3061 
Q 1681 3084 1819 3084 
Q 2600 3084 3056 2656 
Q 3513 2228 3513 1497 
Q 3513 744 3044 326 
Q 2575 -91 1722 -91 
Q 1428 -91 1123 -41 
Q 819 9 494 109 
L 494 744 
Q 775 591 1075 516 
Q 1375 441 1709 441 
Q 2250 441 2565 725 
Q 2881 1009 2881 1497 
Q 2881 1984 2565 2268 
Q 2250 2553 1709 2553 
Q 1456 2553 1204 2497 
Q 953 2441 691 2322 
L 691 4666 
z
" transform="scale(0.015625)"/>
       </defs>
       <use xlink:href="#DejaVuSans-35"/>
       <use xlink:href="#DejaVuSans-30" x="63.623047"/>
      </g>
     </g>
    </g>
    <g id="xtick_3">
     <g id="line2d_5">
      <path d="M 194.178809 307.584 
L 194.178809 41.472 
" clip-path="url(#p7a4a07586e)" style="fill: none; stroke-dasharray: 1.85,0.8; stroke-dashoffset: 0; stroke: #b2b2b2; stroke-width: 0.5"/>
     </g>
     <g id="line2d_6">
      <g>
       <use xlink:href="#m38999b6756" x="194.178809" y="307.584" style="stroke: #000000; stroke-width: 0.8"/>
      </g>
     </g>
     <g id="text_3">
      <!-- 100 -->
      <g transform="translate(184.635059 318.682437) scale(0.1 -0.1)">
       <defs>
        <path id="DejaVuSans-31" d="M 794 531 
L 1825 531 
L 1825 4091 
L 703 3866 
L 703 4441 
L 1819 4666 
L 2450 4666 
L 2450 531 
L 3481 531 
L 3481 0 
L 794 0 
L 794 531 
z
" transform="scale(0.015625)"/>
       </defs>
       <use xlink:href="#DejaVuSans-31"/>
       <use xlink:href="#DejaVuSans-30" x="63.623047"/>
       <use xlink:href="#DejaVuSans-30" x="127.246094"/>
      </g>
     </g>
    </g>
    <g id="xtick_4">
     <g id="line2d_7">
      <path d="M 250.15373 307.584 
L 250.15373 41.472 
" clip-path="url(#p7a4a07586e)" style="fill: none; stroke-dasharray: 1.85,0.8; stroke-dashoffset: 0; stroke: #b2b2b2; stroke-width: 0.5"/>
     </g>
     <g id="line2d_8">
      <g>
       <use xlink:href="#m38999b6756" x="250.15373" y="307.584" style="stroke: #000000; stroke-width: 0.8"/>
      </g>
     </g>
     <g id="text_4">
      <!-- 150 -->
      <g transform="translate(240.60998 318.682437) scale(0.1 -0.1)">
       <use xlink:href="#DejaVuSans-31"/>
       <use xlink:href="#DejaVuSans-35" x="63.623047"/>
       <use xlink:href="#DejaVuSans-30" x="127.246094"/>
      </g>
     </g>
    </g>
    <g id="xtick_5">
     <g id="line2d_9">
      <path d="M 306.128652 307.584 
L 306.128652 41.472 
" clip-path="url(#p7a4a07586e)" style="fill: none; stroke-dasharray: 1.85,0.8; stroke-dashoffset: 0; stroke: #b2b2b2; stroke-width: 0.5"/>
     </g>
     <g id="line2d_10">
      <g>
       <use xlink:href="#m38999b6756" x="306.128652" y="307.584" style="stroke: #000000; stroke-width: 0.8"/>
      </g>
     </g>
     <g id="text_5">
      <!-- 200 -->
      <g transform="translate(296.584902 318.682437) scale(0.1 -0.1)">
       <defs>
        <path id="DejaVuSans-32" d="M 1228 531 
L 3431 531 
L 3431 0 
L 469 0 
L 469 531 
Q 828 903 1448 1529 
Q 2069 2156 2228 2338 
Q 2531 2678 2651 2914 
Q 2772 3150 2772 3378 
Q 2772 3750 2511 3984 
Q 2250 4219 1831 4219 
Q 1534 4219 1204 4116 
Q 875 4013 500 3803 
L 500 4441 
Q 881 4594 1212 4672 
Q 1544 4750 1819 4750 
Q 2544 4750 2975 4387 
Q 3406 4025 3406 3419 
Q 3406 3131 3298 2873 
Q 3191 2616 2906 2266 
Q 2828 2175 2409 1742 
Q 1991 1309 1228 531 
z
" transform="scale(0.015625)"/>
       </defs>
       <use xlink:href="#DejaVuSans-32"/>
       <use xlink:href="#DejaVuSans-30" x="63.623047"/>
       <use xlink:href="#DejaVuSans-30" x="127.246094"/>
      </g>
     </g>
    </g>
    <g id="xtick_6">
     <g id="line2d_11">
      <path d="M 362.103574 307.584 
L 362.103574 41.472 
" clip-path="url(#p7a4a07586e)" style="fill: none; stroke-dasharray: 1.85,0.8; stroke-dashoffset: 0; stroke: #b2b2b2; stroke-width: 0.5"/>
     </g>
     <g id="line2d_12">
      <g>
       <use xlink:href="#m38999b6756" x="362.103574" y="307.584" style="stroke: #000000; stroke-width: 0.8"/>
      </g>
     </g>
     <g id="text_6">
      <!-- 250 -->
      <g transform="translate(352.559824 318.682437) scale(0.1 -0.1)">
       <use xlink:href="#DejaVuSans-32"/>
       <use xlink:href="#DejaVuSans-35" x="63.623047"/>
       <use xlink:href="#DejaVuSans-30" x="127.246094"/>
      </g>
     </g>
    </g>
    <g id="text_7">
     <!-- $s$ -->
     <g transform="translate(233.34 333.88025) scale(0.12 -0.12)">
      <defs>
       <path id="Cmmi10-73" d="M 556 391 
Q 728 97 1247 97 
Q 1472 97 1675 173 
Q 1878 250 2011 403 
Q 2144 556 2144 775 
Q 2144 941 2025 1047 
Q 1906 1153 1734 1191 
L 1388 1259 
Q 1150 1319 997 1481 
Q 844 1644 844 1875 
Q 844 2159 998 2378 
Q 1153 2597 1406 2712 
Q 1659 2828 1931 2828 
Q 2222 2828 2451 2689 
Q 2681 2550 2681 2278 
Q 2681 2131 2598 2018 
Q 2516 1906 2369 1906 
Q 2284 1906 2223 1961 
Q 2163 2016 2163 2100 
Q 2163 2175 2205 2245 
Q 2247 2316 2317 2358 
Q 2388 2400 2463 2400 
Q 2406 2538 2251 2600 
Q 2097 2663 1919 2663 
Q 1756 2663 1593 2597 
Q 1431 2531 1332 2404 
Q 1234 2278 1234 2106 
Q 1234 1991 1315 1903 
Q 1397 1816 1516 1778 
L 1888 1703 
Q 2066 1666 2214 1570 
Q 2363 1475 2448 1329 
Q 2534 1184 2534 997 
Q 2534 759 2401 528 
Q 2269 297 2075 159 
Q 1734 -72 1241 -72 
Q 900 -72 615 84 
Q 331 241 331 550 
Q 331 725 432 854 
Q 534 984 709 984 
Q 813 984 883 921 
Q 953 859 953 756 
Q 953 609 843 500 
Q 734 391 588 391 
L 556 391 
z
" transform="scale(0.015625)"/>
      </defs>
      <use xlink:href="#Cmmi10-73" transform="translate(0 0.8125)"/>
     </g>
    </g>
   </g>
   <g id="matplotlib.axis_2">
    <g id="ytick_1">
     <g id="line2d_13">
      <path d="M 57.6 271.296 
L 414.72 271.296 
" clip-path="url(#p7a4a07586e)" style="fill: none; stroke-dasharray: 1.85,0.8; stroke-dashoffset: 0; stroke: #b2b2b2; stroke-width: 0.5"/>
     </g>
     <g id="line2d_14">
      <defs>
       <path id="m4143d0cfe8" d="M 0 0 
L 3.5 0 
" style="stroke: #000000; stroke-width: 0.8"/>
      </defs>
      <g>
       <use xlink:href="#m4143d0cfe8" x="57.6" y="271.296" style="stroke: #000000; stroke-width: 0.8"/>
      </g>
     </g>
     <g id="text_8">
      <!-- 4 -->
      <g transform="translate(39.357813 275.095219) scale(0.1 -0.1)">
       <defs>
        <path id="DejaVuSans-2212" d="M 678 2272 
L 4684 2272 
L 4684 1741 
L 678 1741 
L 678 2272 
z
" transform="scale(0.015625)"/>
        <path id="DejaVuSans-34" d="M 2419 4116 
L 825 1625 
L 2419 1625 
L 2419 4116 
z
M 2253 4666 
L 3047 4666 
L 3047 1625 
L 3713 1625 
L 3713 1100 
L 3047 1100 
L 3047 0 
L 2419 0 
L 2419 1100 
L 313 1100 
L 313 1709 
L 2253 4666 
z
" transform="scale(0.015625)"/>
       </defs>
       <use xlink:href="#DejaVuSans-2212"/>
       <use xlink:href="#DejaVuSans-34" x="83.789062"/>
      </g>
     </g>
    </g>
    <g id="ytick_2">
     <g id="line2d_15">
      <path d="M 57.6 222.912 
L 414.72 222.912 
" clip-path="url(#p7a4a07586e)" style="fill: none; stroke-dasharray: 1.85,0.8; stroke-dashoffset: 0; stroke: #b2b2b2; stroke-width: 0.5"/>
     </g>
     <g id="line2d_16">
      <g>
       <use xlink:href="#m4143d0cfe8" x="57.6" y="222.912" style="stroke: #000000; stroke-width: 0.8"/>
      </g>
     </g>
     <g id="text_9">
      <!-- 2 -->
      <g transform="translate(39.357813 226.711219) scale(0.1 -0.1)">
       <use xlink:href="#DejaVuSans-2212"/>
       <use xlink:href="#DejaVuSans-32" x="83.789062"/>
      </g>
     </g>
    </g>
    <g id="ytick_3">
     <g id="line2d_17">
      <path d="M 57.6 174.528 
L 414.72 174.528 
" clip-path="url(#p7a4a07586e)" style="fill: none; stroke-dasharray: 1.85,0.8; stroke-dashoffset: 0; stroke: #b2b2b2; stroke-width: 0.5"/>
     </g>
     <g id="line2d_18">
      <g>
       <use xlink:href="#m4143d0cfe8" x="57.6" y="174.528" style="stroke: #000000; stroke-width: 0.8"/>
      </g>
     </g>
     <g id="text_10">
      <!-- 0 -->
      <g transform="translate(47.7375 178.327219) scale(0.1 -0.1)">
       <use xlink:href="#DejaVuSans-30"/>
      </g>
     </g>
    </g>
    <g id="ytick_4">
     <g id="line2d_19">
      <path d="M 57.6 126.144 
L 414.72 126.144 
" clip-path="url(#p7a4a07586e)" style="fill: none; stroke-dasharray: 1.85,0.8; stroke-dashoffset: 0; stroke: #b2b2b2; stroke-width: 0.5"/>
     </g>
     <g id="line2d_20">
      <g>
       <use xlink:href="#m4143d0cfe8" x="57.6" y="126.144" style="stroke: #000000; stroke-width: 0.8"/>
      </g>
     </g>
     <g id="text_11">
      <!-- 2 -->
      <g transform="translate(47.7375 129.943219) scale(0.1 -0.1)">
       <use xlink:href="#DejaVuSans-32"/>
      </g>
     </g>
    </g>
    <g id="ytick_5">
     <g id="line2d_21">
      <path d="M 57.6 77.76 
L 414.72 77.76 
" clip-path="url(#p7a4a07586e)" style="fill: none; stroke-dasharray: 1.85,0.8; stroke-dashoffset: 0; stroke: #b2b2b2; stroke-width: 0.5"/>
     </g>
     <g id="line2d_22">
      <g>
       <use xlink:href="#m4143d0cfe8" x="57.6" y="77.76" style="stroke: #000000; stroke-width: 0.8"/>
      </g>
     </g>
     <g id="text_12">
      <!-- 4 -->
      <g transform="translate(47.7375 81.559219) scale(0.1 -0.1)">
       <use xlink:href="#DejaVuSans-34"/>
      </g>
     </g>
    </g>
    <g id="text_13">
     <!-- $x_{s}$ -->
     <g transform="translate(32.862188 180.348) rotate(-90) scale(0.12 -0.12)">
      <defs>
       <path id="Cmmi10-78" d="M 500 184 
Q 613 97 819 97 
Q 1019 97 1172 289 
Q 1325 481 1381 709 
L 1672 1844 
Q 1741 2153 1741 2266 
Q 1741 2425 1652 2544 
Q 1563 2663 1403 2663 
Q 1200 2663 1022 2536 
Q 844 2409 722 2214 
Q 600 2019 550 1819 
Q 538 1778 500 1778 
L 422 1778 
Q 372 1778 372 1838 
L 372 1856 
Q 434 2094 584 2320 
Q 734 2547 951 2687 
Q 1169 2828 1416 2828 
Q 1650 2828 1839 2703 
Q 2028 2578 2106 2363 
Q 2216 2559 2386 2693 
Q 2556 2828 2759 2828 
Q 2897 2828 3040 2779 
Q 3184 2731 3275 2631 
Q 3366 2531 3366 2381 
Q 3366 2219 3261 2101 
Q 3156 1984 2994 1984 
Q 2891 1984 2822 2050 
Q 2753 2116 2753 2216 
Q 2753 2350 2845 2451 
Q 2938 2553 3066 2572 
Q 2950 2663 2747 2663 
Q 2541 2663 2389 2472 
Q 2238 2281 2175 2047 
L 1894 916 
Q 1825 659 1825 494 
Q 1825 331 1917 214 
Q 2009 97 2163 97 
Q 2463 97 2698 361 
Q 2934 625 3009 941 
Q 3022 978 3059 978 
L 3138 978 
Q 3163 978 3178 961 
Q 3194 944 3194 922 
Q 3194 916 3188 903 
Q 3097 522 2806 225 
Q 2516 -72 2150 -72 
Q 1916 -72 1727 54 
Q 1538 181 1459 397 
Q 1359 209 1182 68 
Q 1006 -72 806 -72 
Q 669 -72 523 -23 
Q 378 25 287 125 
Q 197 225 197 378 
Q 197 528 301 651 
Q 406 775 563 775 
Q 669 775 741 711 
Q 813 647 813 544 
Q 813 409 723 309 
Q 634 209 500 184 
z
" transform="scale(0.015625)"/>
      </defs>
      <use xlink:href="#Cmmi10-78" transform="translate(0 0.8125)"/>
      <use xlink:href="#Cmmi10-73" transform="translate(57.080078 -16.19375) scale(0.7)"/>
     </g>
    </g>
   </g>
   <g id="LineCollection_1">
    <path d="M 78.030846 61.802942 
L 86.427085 61.802942 
" clip-path="url(#p7a4a07586e)" style="fill: none; stroke: #348abd; stroke-width: 2"/>
    <path d="M 106.018307 79.214199 
L 114.414545 79.214199 
" clip-path="url(#p7a4a07586e)" style="fill: none; stroke: #348abd; stroke-width: 2"/>
    <path d="M 134.005768 94.150114 
L 142.402006 94.150114 
" clip-path="url(#p7a4a07586e)" style="fill: none; stroke: #348abd; stroke-width: 2"/>
    <path d="M 161.993229 108.313926 
L 170.389467 108.313926 
" clip-path="url(#p7a4a07586e)" style="fill: none; stroke: #348abd; stroke-width: 2"/>
    <path d="M 189.98069 122.216489 
L 198.376928 122.216489 
" clip-path="url(#p7a4a07586e)" style="fill: none; stroke: #348abd; stroke-width: 2"/>
    <path d="M 217.96815 133.0821 
L 226.364389 133.0821 
" clip-path="url(#p7a4a07586e)" style="fill: none; stroke: #348abd; stroke-width: 2"/>
    <path d="M 245.955611 141.004934 
L 254.35185 141.004934 
" clip-path="url(#p7a4a07586e)" style="fill: none; stroke: #348abd; stroke-width: 2"/>
    <path d="M 273.943072 146.838452 
L 282.33931 146.838452 
" clip-path="url(#p7a4a07586e)" style="fill: none; stroke: #348abd; stroke-width: 2"/>
    <path d="M 301.930533 151.156262 
L 310.326771 151.156262 
" clip-path="url(#p7a4a07586e)" style="fill: none; stroke: #348abd; stroke-width: 2"/>
    <path d="M 329.917994 154.353658 
L 338.314232 154.353658 
" clip-path="url(#p7a4a07586e)" style="fill: none; stroke: #348abd; stroke-width: 2"/>
    <path d="M 357.905455 156.999866 
L 366.301693 156.999866 
" clip-path="url(#p7a4a07586e)" style="fill: none; stroke: #348abd; stroke-width: 2"/>
    <path d="M 385.892915 159.641936 
L 394.289154 159.641936 
" clip-path="url(#p7a4a07586e)" style="fill: none; stroke: #348abd; stroke-width: 2"/>
   </g>
   <g id="LineCollection_2">
    <path d="M 78.030846 255.800905 
L 86.427085 255.800905 
" clip-path="url(#p7a4a07586e)" style="fill: none; stroke: #348abd; stroke-width: 2"/>
    <path d="M 106.018307 235.740744 
L 114.414545 235.740744 
" clip-path="url(#p7a4a07586e)" style="fill: none; stroke: #348abd; stroke-width: 2"/>
    <path d="M 134.005768 221.633805 
L 142.402006 221.633805 
" clip-path="url(#p7a4a07586e)" style="fill: none; stroke: #348abd; stroke-width: 2"/>
    <path d="M 161.993229 210.924837 
L 170.389467 210.924837 
" clip-path="url(#p7a4a07586e)" style="fill: none; stroke: #348abd; stroke-width: 2"/>
    <path d="M 189.98069 202.980605 
L 198.376928 202.980605 
" clip-path="url(#p7a4a07586e)" style="fill: none; stroke: #348abd; stroke-width: 2"/>
    <path d="M 217.96815 197.087541 
L 226.364389 197.087541 
" clip-path="url(#p7a4a07586e)" style="fill: none; stroke: #348abd; stroke-width: 2"/>
    <path d="M 245.955611 192.501829 
L 254.35185 192.501829 
" clip-path="url(#p7a4a07586e)" style="fill: none; stroke: #348abd; stroke-width: 2"/>
    <path d="M 273.943072 188.831687 
L 282.33931 188.831687 
" clip-path="url(#p7a4a07586e)" style="fill: none; stroke: #348abd; stroke-width: 2"/>
    <path d="M 301.930533 185.84562 
L 310.326771 185.84562 
" clip-path="url(#p7a4a07586e)" style="fill: none; stroke: #348abd; stroke-width: 2"/>
    <path d="M 329.917994 183.385715 
L 338.314232 183.385715 
" clip-path="url(#p7a4a07586e)" style="fill: none; stroke: #348abd; stroke-width: 2"/>
    <path d="M 357.905455 181.343901 
L 366.301693 181.343901 
" clip-path="url(#p7a4a07586e)" style="fill: none; stroke: #348abd; stroke-width: 2"/>
    <path d="M 385.892915 179.64559 
L 394.289154 179.64559 
" clip-path="url(#p7a4a07586e)" style="fill: none; stroke: #348abd; stroke-width: 2"/>
   </g>
   <g id="LineCollection_3">
    <path d="M 82.228966 255.800905 
L 82.228966 61.802942 
" clip-path="url(#p7a4a07586e)" style="fill: none; stroke: #348abd; stroke-width: 2"/>
    <path d="M 110.216426 235.740744 
L 110.216426 79.214199 
" clip-path="url(#p7a4a07586e)" style="fill: none; stroke: #348abd; stroke-width: 2"/>
    <path d="M 138.203887 221.633805 
L 138.203887 94.150114 
" clip-path="url(#p7a4a07586e)" style="fill: none; stroke: #348abd; stroke-width: 2"/>
    <path d="M 166.191348 210.924837 
L 166.191348 108.313926 
" clip-path="url(#p7a4a07586e)" style="fill: none; stroke: #348abd; stroke-width: 2"/>
    <path d="M 194.178809 202.980605 
L 194.178809 122.216489 
" clip-path="url(#p7a4a07586e)" style="fill: none; stroke: #348abd; stroke-width: 2"/>
    <path d="M 222.16627 197.087541 
L 222.16627 133.0821 
" clip-path="url(#p7a4a07586e)" style="fill: none; stroke: #348abd; stroke-width: 2"/>
    <path d="M 250.15373 192.501829 
L 250.15373 141.004934 
" clip-path="url(#p7a4a07586e)" style="fill: none; stroke: #348abd; stroke-width: 2"/>
    <path d="M 278.141191 188.831687 
L 278.141191 146.838452 
" clip-path="url(#p7a4a07586e)" style="fill: none; stroke: #348abd; stroke-width: 2"/>
    <path d="M 306.128652 185.84562 
L 306.128652 151.156262 
" clip-path="url(#p7a4a07586e)" style="fill: none; stroke: #348abd; stroke-width: 2"/>
    <path d="M 334.116113 183.385715 
L 334.116113 154.353658 
" clip-path="url(#p7a4a07586e)" style="fill: none; stroke: #348abd; stroke-width: 2"/>
    <path d="M 362.103574 181.343901 
L 362.103574 156.999866 
" clip-path="url(#p7a4a07586e)" style="fill: none; stroke: #348abd; stroke-width: 2"/>
    <path d="M 390.091034 179.64559 
L 390.091034 159.641936 
" clip-path="url(#p7a4a07586e)" style="fill: none; stroke: #348abd; stroke-width: 2"/>
   </g>
   <g id="LineCollection_4">
    <path d="M 241.197743 295.488 
L 241.197743 53.568 
" clip-path="url(#p7a4a07586e)" style="fill: none; stroke-dasharray: 7.4,3.2; stroke-dashoffset: 0; stroke: #ff0000; stroke-width: 2"/>
   </g>
   <g id="patch_3">
    <path d="M 57.6 307.584 
L 57.6 41.472 
" style="fill: none; stroke: #bcbcbc; stroke-width: 0.8; stroke-linejoin: miter; stroke-linecap: square"/>
   </g>
   <g id="patch_4">
    <path d="M 414.72 307.584 
L 414.72 41.472 
" style="fill: none; stroke: #bcbcbc; stroke-width: 0.8; stroke-linejoin: miter; stroke-linecap: square"/>
   </g>
   <g id="patch_5">
    <path d="M 57.6 307.584 
L 414.72 307.584 
" style="fill: none; stroke: #bcbcbc; stroke-width: 0.8; stroke-linejoin: miter; stroke-linecap: square"/>
   </g>
   <g id="patch_6">
    <path d="M 57.6 41.472 
L 414.72 41.472 
" style="fill: none; stroke: #bcbcbc; stroke-width: 0.8; stroke-linejoin: miter; stroke-linecap: square"/>
   </g>
   <g id="text_14">
    <!-- Violin plot of critical time n = 5000 -->
    <g transform="translate(110.370375 35.472) scale(0.144 -0.144)">
     <defs>
      <path id="DejaVuSans-56" d="M 1831 0 
L 50 4666 
L 709 4666 
L 2188 738 
L 3669 4666 
L 4325 4666 
L 2547 0 
L 1831 0 
z
" transform="scale(0.015625)"/>
      <path id="DejaVuSans-69" d="M 603 3500 
L 1178 3500 
L 1178 0 
L 603 0 
L 603 3500 
z
M 603 4863 
L 1178 4863 
L 1178 4134 
L 603 4134 
L 603 4863 
z
" transform="scale(0.015625)"/>
      <path id="DejaVuSans-6f" d="M 1959 3097 
Q 1497 3097 1228 2736 
Q 959 2375 959 1747 
Q 959 1119 1226 758 
Q 1494 397 1959 397 
Q 2419 397 2687 759 
Q 2956 1122 2956 1747 
Q 2956 2369 2687 2733 
Q 2419 3097 1959 3097 
z
M 1959 3584 
Q 2709 3584 3137 3096 
Q 3566 2609 3566 1747 
Q 3566 888 3137 398 
Q 2709 -91 1959 -91 
Q 1206 -91 779 398 
Q 353 888 353 1747 
Q 353 2609 779 3096 
Q 1206 3584 1959 3584 
z
" transform="scale(0.015625)"/>
      <path id="DejaVuSans-6c" d="M 603 4863 
L 1178 4863 
L 1178 0 
L 603 0 
L 603 4863 
z
" transform="scale(0.015625)"/>
      <path id="DejaVuSans-6e" d="M 3513 2113 
L 3513 0 
L 2938 0 
L 2938 2094 
Q 2938 2591 2744 2837 
Q 2550 3084 2163 3084 
Q 1697 3084 1428 2787 
Q 1159 2491 1159 1978 
L 1159 0 
L 581 0 
L 581 3500 
L 1159 3500 
L 1159 2956 
Q 1366 3272 1645 3428 
Q 1925 3584 2291 3584 
Q 2894 3584 3203 3211 
Q 3513 2838 3513 2113 
z
" transform="scale(0.015625)"/>
      <path id="DejaVuSans-20" transform="scale(0.015625)"/>
      <path id="DejaVuSans-70" d="M 1159 525 
L 1159 -1331 
L 581 -1331 
L 581 3500 
L 1159 3500 
L 1159 2969 
Q 1341 3281 1617 3432 
Q 1894 3584 2278 3584 
Q 2916 3584 3314 3078 
Q 3713 2572 3713 1747 
Q 3713 922 3314 415 
Q 2916 -91 2278 -91 
Q 1894 -91 1617 61 
Q 1341 213 1159 525 
z
M 3116 1747 
Q 3116 2381 2855 2742 
Q 2594 3103 2138 3103 
Q 1681 3103 1420 2742 
Q 1159 2381 1159 1747 
Q 1159 1113 1420 752 
Q 1681 391 2138 391 
Q 2594 391 2855 752 
Q 3116 1113 3116 1747 
z
" transform="scale(0.015625)"/>
      <path id="DejaVuSans-74" d="M 1172 4494 
L 1172 3500 
L 2356 3500 
L 2356 3053 
L 1172 3053 
L 1172 1153 
Q 1172 725 1289 603 
Q 1406 481 1766 481 
L 2356 481 
L 2356 0 
L 1766 0 
Q 1100 0 847 248 
Q 594 497 594 1153 
L 594 3053 
L 172 3053 
L 172 3500 
L 594 3500 
L 594 4494 
L 1172 4494 
z
" transform="scale(0.015625)"/>
      <path id="DejaVuSans-66" d="M 2375 4863 
L 2375 4384 
L 1825 4384 
Q 1516 4384 1395 4259 
Q 1275 4134 1275 3809 
L 1275 3500 
L 2222 3500 
L 2222 3053 
L 1275 3053 
L 1275 0 
L 697 0 
L 697 3053 
L 147 3053 
L 147 3500 
L 697 3500 
L 697 3744 
Q 697 4328 969 4595 
Q 1241 4863 1831 4863 
L 2375 4863 
z
" transform="scale(0.015625)"/>
      <path id="DejaVuSans-63" d="M 3122 3366 
L 3122 2828 
Q 2878 2963 2633 3030 
Q 2388 3097 2138 3097 
Q 1578 3097 1268 2742 
Q 959 2388 959 1747 
Q 959 1106 1268 751 
Q 1578 397 2138 397 
Q 2388 397 2633 464 
Q 2878 531 3122 666 
L 3122 134 
Q 2881 22 2623 -34 
Q 2366 -91 2075 -91 
Q 1284 -91 818 406 
Q 353 903 353 1747 
Q 353 2603 823 3093 
Q 1294 3584 2113 3584 
Q 2378 3584 2631 3529 
Q 2884 3475 3122 3366 
z
" transform="scale(0.015625)"/>
      <path id="DejaVuSans-72" d="M 2631 2963 
Q 2534 3019 2420 3045 
Q 2306 3072 2169 3072 
Q 1681 3072 1420 2755 
Q 1159 2438 1159 1844 
L 1159 0 
L 581 0 
L 581 3500 
L 1159 3500 
L 1159 2956 
Q 1341 3275 1631 3429 
Q 1922 3584 2338 3584 
Q 2397 3584 2469 3576 
Q 2541 3569 2628 3553 
L 2631 2963 
z
" transform="scale(0.015625)"/>
      <path id="DejaVuSans-61" d="M 2194 1759 
Q 1497 1759 1228 1600 
Q 959 1441 959 1056 
Q 959 750 1161 570 
Q 1363 391 1709 391 
Q 2188 391 2477 730 
Q 2766 1069 2766 1631 
L 2766 1759 
L 2194 1759 
z
M 3341 1997 
L 3341 0 
L 2766 0 
L 2766 531 
Q 2569 213 2275 61 
Q 1981 -91 1556 -91 
Q 1019 -91 701 211 
Q 384 513 384 1019 
Q 384 1609 779 1909 
Q 1175 2209 1959 2209 
L 2766 2209 
L 2766 2266 
Q 2766 2663 2505 2880 
Q 2244 3097 1772 3097 
Q 1472 3097 1187 3025 
Q 903 2953 641 2809 
L 641 3341 
Q 956 3463 1253 3523 
Q 1550 3584 1831 3584 
Q 2591 3584 2966 3190 
Q 3341 2797 3341 1997 
z
" transform="scale(0.015625)"/>
      <path id="DejaVuSans-6d" d="M 3328 2828 
Q 3544 3216 3844 3400 
Q 4144 3584 4550 3584 
Q 5097 3584 5394 3201 
Q 5691 2819 5691 2113 
L 5691 0 
L 5113 0 
L 5113 2094 
Q 5113 2597 4934 2840 
Q 4756 3084 4391 3084 
Q 3944 3084 3684 2787 
Q 3425 2491 3425 1978 
L 3425 0 
L 2847 0 
L 2847 2094 
Q 2847 2600 2669 2842 
Q 2491 3084 2119 3084 
Q 1678 3084 1418 2786 
Q 1159 2488 1159 1978 
L 1159 0 
L 581 0 
L 581 3500 
L 1159 3500 
L 1159 2956 
Q 1356 3278 1631 3431 
Q 1906 3584 2284 3584 
Q 2666 3584 2933 3390 
Q 3200 3197 3328 2828 
z
" transform="scale(0.015625)"/>
      <path id="DejaVuSans-65" d="M 3597 1894 
L 3597 1613 
L 953 1613 
Q 991 1019 1311 708 
Q 1631 397 2203 397 
Q 2534 397 2845 478 
Q 3156 559 3463 722 
L 3463 178 
Q 3153 47 2828 -22 
Q 2503 -91 2169 -91 
Q 1331 -91 842 396 
Q 353 884 353 1716 
Q 353 2575 817 3079 
Q 1281 3584 2069 3584 
Q 2775 3584 3186 3129 
Q 3597 2675 3597 1894 
z
M 3022 2063 
Q 3016 2534 2758 2815 
Q 2500 3097 2075 3097 
Q 1594 3097 1305 2825 
Q 1016 2553 972 2059 
L 3022 2063 
z
" transform="scale(0.015625)"/>
      <path id="DejaVuSans-3d" d="M 678 2906 
L 4684 2906 
L 4684 2381 
L 678 2381 
L 678 2906 
z
M 678 1631 
L 4684 1631 
L 4684 1100 
L 678 1100 
L 678 1631 
z
" transform="scale(0.015625)"/>
     </defs>
     <use xlink:href="#DejaVuSans-56"/>
     <use xlink:href="#DejaVuSans-69" x="66.158203"/>
     <use xlink:href="#DejaVuSans-6f" x="93.941406"/>
     <use xlink:href="#DejaVuSans-6c" x="155.123047"/>
     <use xlink:href="#DejaVuSans-69" x="182.90625"/>
     <use xlink:href="#DejaVuSans-6e" x="210.689453"/>
     <use xlink:href="#DejaVuSans-20" x="274.068359"/>
     <use xlink:href="#DejaVuSans-70" x="305.855469"/>
     <use xlink:href="#DejaVuSans-6c" x="369.332031"/>
     <use xlink:href="#DejaVuSans-6f" x="397.115234"/>
     <use xlink:href="#DejaVuSans-74" x="458.296875"/>
     <use xlink:href="#DejaVuSans-20" x="497.505859"/>
     <use xlink:href="#DejaVuSans-6f" x="529.292969"/>
     <use xlink:href="#DejaVuSans-66" x="590.474609"/>
     <use xlink:href="#DejaVuSans-20" x="625.679688"/>
     <use xlink:href="#DejaVuSans-63" x="657.466797"/>
     <use xlink:href="#DejaVuSans-72" x="712.447266"/>
     <use xlink:href="#DejaVuSans-69" x="753.560547"/>
     <use xlink:href="#DejaVuSans-74" x="781.34375"/>
     <use xlink:href="#DejaVuSans-69" x="820.552734"/>
     <use xlink:href="#DejaVuSans-63" x="848.335938"/>
     <use xlink:href="#DejaVuSans-61" x="903.316406"/>
     <use xlink:href="#DejaVuSans-6c" x="964.595703"/>
     <use xlink:href="#DejaVuSans-20" x="992.378906"/>
     <use xlink:href="#DejaVuSans-74" x="1024.166016"/>
     <use xlink:href="#DejaVuSans-69" x="1063.375"/>
     <use xlink:href="#DejaVuSans-6d" x="1091.158203"/>
     <use xlink:href="#DejaVuSans-65" x="1188.570312"/>
     <use xlink:href="#DejaVuSans-20" x="1250.09375"/>
     <use xlink:href="#DejaVuSans-6e" x="1281.880859"/>
     <use xlink:href="#DejaVuSans-20" x="1345.259766"/>
     <use xlink:href="#DejaVuSans-3d" x="1377.046875"/>
     <use xlink:href="#DejaVuSans-20" x="1460.835938"/>
     <use xlink:href="#DejaVuSans-35" x="1492.623047"/>
     <use xlink:href="#DejaVuSans-30" x="1556.246094"/>
     <use xlink:href="#DejaVuSans-30" x="1619.869141"/>
     <use xlink:href="#DejaVuSans-30" x="1683.492188"/>
    </g>
   </g>
   <g id="legend_1">
    <g id="patch_7">
     <path d="M 401.52 57.072 
L 406.32 57.072 
Q 408.72 57.072 408.72 54.672 
L 408.72 49.872 
Q 408.72 47.472 406.32 47.472 
L 401.52 47.472 
Q 399.12 47.472 399.12 49.872 
L 399.12 54.672 
Q 399.12 57.072 401.52 57.072 
z
" style="fill: #eeeeee; opacity: 0.8; stroke: #cccccc; stroke-width: 0.5; stroke-linejoin: miter"/>
    </g>
   </g>
  </g>
 </g>
 <defs>
  <clipPath id="p7a4a07586e">
   <rect x="57.6" y="41.472" width="357.12" height="266.112"/>
  </clipPath>
 </defs>
</svg>
