<?xml version="1.0" encoding="utf-8" standalone="no"?>
<!DOCTYPE svg PUBLIC "-//W3C//DTD SVG 1.1//EN"
  "http://www.w3.org/Graphics/SVG/1.1/DTD/svg11.dtd">
<svg xmlns:xlink="http://www.w3.org/1999/xlink" width="460.8pt" height="345.6pt" viewBox="0 0 460.8 345.6" xmlns="http://www.w3.org/2000/svg" version="1.1">
 <metadata>
  <rdf:RDF xmlns:dc="http://purl.org/dc/elements/1.1/" xmlns:cc="http://creativecommons.org/ns#" xmlns:rdf="http://www.w3.org/1999/02/22-rdf-syntax-ns#">
   <cc:Work>
    <dc:type rdf:resource="http://purl.org/dc/dcmitype/StillImage"/>
    <dc:date>2025-08-21T17:04:39.859187</dc:date>
    <dc:format>image/svg+xml</dc:format>
    <dc:creator>
     <cc:Agent>
      <dc:title>Matplotlib v3.9.2, https://matplotlib.org/</dc:title>
     </cc:Agent>
    </dc:creator>
   </cc:Work>
  </rdf:RDF>
 </metadata>
 <defs>
  <style type="text/css">*{stroke-linejoin: round; stroke-linecap: butt}</style>
 </defs>
 <g id="figure_1">
  <g id="patch_1">
   <path d="M 0 345.6 
L 460.8 345.6 
L 460.8 0 
L 0 0 
z
" style="fill: #ffffff"/>
  </g>
  <g id="axes_1">
   <g id="patch_2">
    <path d="M 57.6 307.584 
L 414.72 307.584 
L 414.72 41.472 
L 57.6 41.472 
z
" style="fill: #eeeeee"/>
   </g>
   <g id="PolyCollection_1">
    <path d="M 82.303736 252.897783 
L 82.154196 252.897783 
L 82.130685 251.242206 
L 82.106322 249.586629 
L 82.082405 247.931052 
L 82.060128 246.275475 
L 82.040034 244.619898 
L 82.021184 242.964321 
L 82.000706 241.308744 
L 81.974265 239.653167 
L 81.937415 237.99759 
L 81.887156 236.342013 
L 81.82288 234.686436 
L 81.746326 233.030859 
L 81.660719 231.375282 
L 81.569338 229.719705 
L 81.473501 228.064128 
L 81.370558 226.408551 
L 81.253661 224.752974 
L 81.114907 223.097397 
L 80.950788 221.44182 
L 80.76583 219.786243 
L 80.570705 218.130666 
L 80.375329 216.475088 
L 80.181564 214.819511 
L 79.980392 213.163934 
L 79.755031 211.508357 
L 79.488161 209.85278 
L 79.170009 208.197203 
L 78.803988 206.541626 
L 78.406876 204.886049 
L 78.002564 203.230472 
L 77.612485 201.574895 
L 77.24905 199.919318 
L 76.916407 198.263741 
L 76.616093 196.608164 
L 76.350542 194.952587 
L 76.12038 193.29701 
L 75.91908 191.641433 
L 75.732048 189.985856 
L 75.542572 188.330279 
L 75.33972 186.674702 
L 75.121379 185.019125 
L 74.891044 183.363548 
L 74.653475 181.707971 
L 74.415062 180.052394 
L 74.188937 178.396817 
L 73.998475 176.741239 
L 73.872545 175.085662 
L 73.832727 173.430085 
L 73.88076 171.774508 
L 73.996184 170.118931 
L 74.147333 168.463354 
L 74.309035 166.807777 
L 74.475687 165.1522 
L 74.661967 163.496623 
L 74.891911 161.841046 
L 75.183941 160.185469 
L 75.540369 158.529892 
L 75.945598 156.874315 
L 76.37209 155.218738 
L 76.790407 153.563161 
L 77.178995 151.907584 
L 77.529725 150.252007 
L 77.846893 148.59643 
L 78.141103 146.940853 
L 78.422656 145.285276 
L 78.698529 143.629699 
L 78.972882 141.974122 
L 79.247949 140.318545 
L 79.523316 138.662967 
L 79.794788 137.00739 
L 80.054905 135.351813 
L 80.295098 133.696236 
L 80.507881 132.040659 
L 80.688244 130.385082 
L 80.834846 128.729505 
L 80.95132 127.073928 
L 81.04658 125.418351 
L 81.132726 123.762774 
L 81.220804 122.107197 
L 81.316781 120.45162 
L 81.420335 118.796043 
L 81.527032 117.140466 
L 81.631985 115.484889 
L 81.732212 113.829312 
L 81.826403 112.173735 
L 81.913058 110.518158 
L 81.989171 108.862581 
L 82.050767 107.207004 
L 82.094904 105.551427 
L 82.121629 103.89585 
L 82.134556 102.240273 
L 82.139697 100.584696 
L 82.14314 98.929118 
L 82.148834 97.273541 
L 82.157708 95.617964 
L 82.1685 93.962387 
L 82.179457 92.30681 
L 82.189566 90.651233 
L 82.198669 88.995656 
L 82.259262 88.995656 
L 82.259262 88.995656 
L 82.268365 90.651233 
L 82.278474 92.30681 
L 82.289431 93.962387 
L 82.300224 95.617964 
L 82.309097 97.273541 
L 82.314791 98.929118 
L 82.318234 100.584696 
L 82.323375 102.240273 
L 82.336302 103.89585 
L 82.363027 105.551427 
L 82.407164 107.207004 
L 82.46876 108.862581 
L 82.544873 110.518158 
L 82.631528 112.173735 
L 82.725719 113.829312 
L 82.825946 115.484889 
L 82.930899 117.140466 
L 83.037596 118.796043 
L 83.14115 120.45162 
L 83.237127 122.107197 
L 83.325205 123.762774 
L 83.411351 125.418351 
L 83.506611 127.073928 
L 83.623085 128.729505 
L 83.769687 130.385082 
L 83.95005 132.040659 
L 84.162833 133.696236 
L 84.403026 135.351813 
L 84.663143 137.00739 
L 84.934615 138.662967 
L 85.209982 140.318545 
L 85.485049 141.974122 
L 85.759402 143.629699 
L 86.035275 145.285276 
L 86.316828 146.940853 
L 86.611038 148.59643 
L 86.928206 150.252007 
L 87.278936 151.907584 
L 87.667524 153.563161 
L 88.085841 155.218738 
L 88.512333 156.874315 
L 88.917562 158.529892 
L 89.27399 160.185469 
L 89.56602 161.841046 
L 89.795964 163.496623 
L 89.982244 165.1522 
L 90.148896 166.807777 
L 90.310598 168.463354 
L 90.461747 170.118931 
L 90.577171 171.774508 
L 90.625204 173.430085 
L 90.585386 175.085662 
L 90.459456 176.741239 
L 90.268994 178.396817 
L 90.042869 180.052394 
L 89.804456 181.707971 
L 89.566887 183.363548 
L 89.336552 185.019125 
L 89.118211 186.674702 
L 88.915359 188.330279 
L 88.725883 189.985856 
L 88.538851 191.641433 
L 88.337551 193.29701 
L 88.107389 194.952587 
L 87.841838 196.608164 
L 87.541524 198.263741 
L 87.208881 199.919318 
L 86.845446 201.574895 
L 86.455367 203.230472 
L 86.051055 204.886049 
L 85.653943 206.541626 
L 85.287922 208.197203 
L 84.96977 209.85278 
L 84.7029 211.508357 
L 84.477539 213.163934 
L 84.276367 214.819511 
L 84.082603 216.475088 
L 83.887226 218.130666 
L 83.692101 219.786243 
L 83.507143 221.44182 
L 83.343024 223.097397 
L 83.20427 224.752974 
L 83.087373 226.408551 
L 82.98443 228.064128 
L 82.888593 229.719705 
L 82.797212 231.375282 
L 82.711605 233.030859 
L 82.635051 234.686436 
L 82.570775 236.342013 
L 82.520516 237.99759 
L 82.483666 239.653167 
L 82.457225 241.308744 
L 82.436747 242.964321 
L 82.417897 244.619898 
L 82.397803 246.275475 
L 82.375526 247.931052 
L 82.351609 249.586629 
L 82.327247 251.242206 
L 82.303736 252.897783 
z
" clip-path="url(#pcee7ddf635)" style="fill: #348abd; fill-opacity: 0.3"/>
   </g>
   <g id="PolyCollection_2">
    <path d="M 110.291188 232.213338 
L 110.141665 232.213338 
L 110.117013 230.924542 
L 110.091494 229.635746 
L 110.066595 228.346949 
L 110.043639 227.058153 
L 110.023032 225.769356 
L 110.003246 224.48056 
L 109.980462 223.191763 
L 109.949481 221.902967 
L 109.905608 220.61417 
L 109.846425 219.325374 
L 109.772493 218.036577 
L 109.686801 216.747781 
L 109.593322 215.458984 
L 109.494808 214.170188 
L 109.3901 212.881392 
L 109.272719 211.592595 
L 109.133384 210.303799 
L 108.966391 209.015002 
L 108.77517 207.726206 
L 108.571342 206.437409 
L 108.366709 205.148613 
L 108.163933 203.859816 
L 107.952665 202.57102 
L 107.713451 201.282223 
L 107.426902 199.993427 
L 107.083695 198.70463 
L 106.690834 197.415834 
L 106.270321 196.127037 
L 105.849821 194.838241 
L 105.450956 193.549445 
L 105.083874 192.260648 
L 104.751257 190.971852 
L 104.455273 189.683055 
L 104.198392 188.394259 
L 103.977307 187.105462 
L 103.778508 185.816666 
L 103.582614 184.527869 
L 103.374398 183.239073 
L 103.148994 181.950276 
L 102.909547 180.66148 
L 102.661438 179.372683 
L 102.411567 178.083887 
L 102.174302 176.79509 
L 101.97621 175.506294 
L 101.850343 174.217498 
L 101.820188 172.928701 
L 101.884705 171.639905 
L 102.017668 170.351108 
L 102.183972 169.062312 
L 102.362013 167.773515 
L 102.556392 166.484719 
L 102.792384 165.195922 
L 103.096365 163.907126 
L 103.475284 162.618329 
L 103.907836 161.329533 
L 104.351928 160.040736 
L 104.763484 158.75194 
L 105.115852 157.463144 
L 105.409277 156.174347 
L 105.665894 154.885551 
L 105.914665 153.596754 
L 106.176838 152.307958 
L 106.460391 151.019161 
L 106.763352 149.730365 
L 107.079295 148.441568 
L 107.399756 147.152772 
L 107.714153 145.863975 
L 108.010352 144.575179 
L 108.27685 143.286382 
L 108.505397 141.997586 
L 108.69325 140.708789 
L 108.844778 139.419993 
L 108.971229 138.131197 
L 109.087215 136.8424 
L 109.20471 135.553604 
L 109.328103 134.264807 
L 109.453793 132.976011 
L 109.574374 131.687214 
L 109.684008 130.398418 
L 109.781152 129.109621 
L 109.867472 127.820825 
L 109.944781 126.532028 
L 110.012831 125.243232 
L 110.069425 123.954435 
L 110.11218 122.665639 
L 110.140186 121.376842 
L 110.15451 120.088046 
L 110.157867 118.79925 
L 110.154241 117.510453 
L 110.14846 116.221657 
L 110.145158 114.93286 
L 110.147149 113.644064 
L 110.154317 112.355267 
L 110.164111 111.066471 
L 110.173433 109.777674 
L 110.180515 108.488878 
L 110.185504 107.200081 
L 110.189682 105.911285 
L 110.194222 104.622488 
L 110.238631 104.622488 
L 110.238631 104.622488 
L 110.24317 105.911285 
L 110.247349 107.200081 
L 110.252337 108.488878 
L 110.259419 109.777674 
L 110.268742 111.066471 
L 110.278535 112.355267 
L 110.285703 113.644064 
L 110.287694 114.93286 
L 110.284392 116.221657 
L 110.278611 117.510453 
L 110.274985 118.79925 
L 110.278343 120.088046 
L 110.292667 121.376842 
L 110.320673 122.665639 
L 110.363428 123.954435 
L 110.420022 125.243232 
L 110.488072 126.532028 
L 110.565381 127.820825 
L 110.651701 129.109621 
L 110.748844 130.398418 
L 110.858478 131.687214 
L 110.97906 132.976011 
L 111.10475 134.264807 
L 111.228143 135.553604 
L 111.345637 136.8424 
L 111.461624 138.131197 
L 111.588075 139.419993 
L 111.739603 140.708789 
L 111.927456 141.997586 
L 112.156003 143.286382 
L 112.422501 144.575179 
L 112.7187 145.863975 
L 113.033097 147.152772 
L 113.353558 148.441568 
L 113.669501 149.730365 
L 113.972462 151.019161 
L 114.256015 152.307958 
L 114.518188 153.596754 
L 114.766959 154.885551 
L 115.023575 156.174347 
L 115.317001 157.463144 
L 115.669368 158.75194 
L 116.080925 160.040736 
L 116.525017 161.329533 
L 116.957568 162.618329 
L 117.336488 163.907126 
L 117.640469 165.195922 
L 117.876461 166.484719 
L 118.07084 167.773515 
L 118.24888 169.062312 
L 118.415185 170.351108 
L 118.548148 171.639905 
L 118.612665 172.928701 
L 118.58251 174.217498 
L 118.456643 175.506294 
L 118.25855 176.79509 
L 118.021285 178.083887 
L 117.771415 179.372683 
L 117.523306 180.66148 
L 117.283859 181.950276 
L 117.058454 183.239073 
L 116.850239 184.527869 
L 116.654344 185.816666 
L 116.455545 187.105462 
L 116.234461 188.394259 
L 115.97758 189.683055 
L 115.681596 190.971852 
L 115.348979 192.260648 
L 114.981897 193.549445 
L 114.583032 194.838241 
L 114.162531 196.127037 
L 113.742019 197.415834 
L 113.349158 198.70463 
L 113.005951 199.993427 
L 112.719402 201.282223 
L 112.480188 202.57102 
L 112.268919 203.859816 
L 112.066144 205.148613 
L 111.861511 206.437409 
L 111.657683 207.726206 
L 111.466462 209.015002 
L 111.299468 210.303799 
L 111.160133 211.592595 
L 111.042753 212.881392 
L 110.938045 214.170188 
L 110.839531 215.458984 
L 110.746052 216.747781 
L 110.66036 218.036577 
L 110.586428 219.325374 
L 110.527244 220.61417 
L 110.483371 221.902967 
L 110.452391 223.191763 
L 110.429606 224.48056 
L 110.40982 225.769356 
L 110.389213 227.058153 
L 110.366258 228.346949 
L 110.341359 229.635746 
L 110.31584 230.924542 
L 110.291188 232.213338 
z
" clip-path="url(#pcee7ddf635)" style="fill: #348abd; fill-opacity: 0.3"/>
   </g>
   <g id="PolyCollection_3">
    <path d="M 138.278643 218.367542 
L 138.129131 218.367542 
L 138.104043 217.357441 
L 138.078085 216.347341 
L 138.052821 215.33724 
L 138.029618 214.32714 
L 138.008797 213.317039 
L 137.988553 212.306939 
L 137.964665 211.296838 
L 137.931624 210.286738 
L 137.884726 209.276637 
L 137.821885 208.266537 
L 137.744185 207.256436 
L 137.655092 206.246336 
L 137.558724 205.236235 
L 137.457289 204.226134 
L 137.348242 203.216034 
L 137.223583 202.205933 
L 137.073869 201.195833 
L 136.895542 200.185732 
L 136.69536 199.175632 
L 136.4867 198.165531 
L 136.279552 197.155431 
L 136.071789 196.14533 
L 135.848052 195.13523 
L 135.586649 194.125129 
L 135.270465 193.115029 
L 134.896722 192.104928 
L 134.480591 191.094828 
L 134.049521 190.084727 
L 133.630806 189.074627 
L 133.241202 188.064526 
L 132.886397 187.054426 
L 132.568309 186.044325 
L 132.289853 185.034225 
L 132.051011 184.024124 
L 131.841984 183.014024 
L 131.643731 182.003923 
L 131.43746 180.993823 
L 131.213986 179.983722 
L 130.974409 178.973622 
L 130.724086 177.963521 
L 130.469416 176.95342 
L 130.222562 175.94332 
L 130.008069 174.933219 
L 129.860212 173.923119 
L 129.807649 172.913018 
L 129.85554 171.902918 
L 129.980761 170.892817 
L 130.146487 169.882717 
L 130.326593 168.872616 
L 130.522286 167.862516 
L 130.759418 166.852415 
L 131.069015 165.842315 
L 131.464451 164.832214 
L 131.929166 163.822114 
L 132.420624 162.812013 
L 132.886651 161.801913 
L 133.285247 160.791812 
L 133.598892 159.781712 
L 133.837698 158.771611 
L 134.031281 157.761511 
L 134.214951 156.75141 
L 134.41786 155.74131 
L 134.657113 154.731209 
L 134.936625 153.721109 
L 135.248113 152.711008 
L 135.573858 151.700907 
L 135.891764 150.690807 
L 136.181567 149.680706 
L 136.430019 148.670606 
L 136.633931 147.660505 
L 136.800612 146.650405 
L 136.944773 145.640304 
L 137.081936 144.630204 
L 137.221338 143.620103 
L 137.362928 142.610003 
L 137.500321 141.599902 
L 137.626792 140.589802 
L 137.739404 139.579701 
L 137.838778 138.569601 
L 137.926133 137.5595 
L 138.000965 136.5494 
L 138.061236 135.539299 
L 138.105214 134.529199 
L 138.132944 133.519098 
L 138.146387 132.508998 
L 138.148895 131.498897 
L 138.144843 130.488797 
L 138.139257 129.478696 
L 138.136761 128.468596 
L 138.139973 127.458495 
L 138.148476 126.448394 
L 138.159399 125.438294 
L 138.169302 124.428193 
L 138.176025 123.418093 
L 138.179359 122.407992 
L 138.180524 121.397892 
L 138.181187 120.387791 
L 138.182672 119.377691 
L 138.185548 118.36759 
L 138.222226 118.36759 
L 138.222226 118.36759 
L 138.225102 119.377691 
L 138.226587 120.387791 
L 138.22725 121.397892 
L 138.228416 122.407992 
L 138.23175 123.418093 
L 138.238472 124.428193 
L 138.248375 125.438294 
L 138.259298 126.448394 
L 138.267802 127.458495 
L 138.271013 128.468596 
L 138.268518 129.478696 
L 138.262931 130.488797 
L 138.258879 131.498897 
L 138.261387 132.508998 
L 138.27483 133.519098 
L 138.30256 134.529199 
L 138.346539 135.539299 
L 138.406809 136.5494 
L 138.481641 137.5595 
L 138.568997 138.569601 
L 138.668371 139.579701 
L 138.780982 140.589802 
L 138.907454 141.599902 
L 139.044847 142.610003 
L 139.186437 143.620103 
L 139.325838 144.630204 
L 139.463001 145.640304 
L 139.607163 146.650405 
L 139.773843 147.660505 
L 139.977755 148.670606 
L 140.226207 149.680706 
L 140.51601 150.690807 
L 140.833916 151.700907 
L 141.159661 152.711008 
L 141.471149 153.721109 
L 141.750661 154.731209 
L 141.989914 155.74131 
L 142.192823 156.75141 
L 142.376493 157.761511 
L 142.570076 158.771611 
L 142.808882 159.781712 
L 143.122527 160.791812 
L 143.521123 161.801913 
L 143.987151 162.812013 
L 144.478608 163.822114 
L 144.943323 164.832214 
L 145.338759 165.842315 
L 145.648356 166.852415 
L 145.885488 167.862516 
L 146.081181 168.872616 
L 146.261288 169.882717 
L 146.427013 170.892817 
L 146.552234 171.902918 
L 146.600125 172.913018 
L 146.547562 173.923119 
L 146.399705 174.933219 
L 146.185212 175.94332 
L 145.938358 176.95342 
L 145.683688 177.963521 
L 145.433365 178.973622 
L 145.193788 179.983722 
L 144.970314 180.993823 
L 144.764043 182.003923 
L 144.56579 183.014024 
L 144.356763 184.024124 
L 144.117921 185.034225 
L 143.839465 186.044325 
L 143.521378 187.054426 
L 143.166573 188.064526 
L 142.776968 189.074627 
L 142.358254 190.084727 
L 141.927183 191.094828 
L 141.511052 192.104928 
L 141.137309 193.115029 
L 140.821125 194.125129 
L 140.559722 195.13523 
L 140.335985 196.14533 
L 140.128222 197.155431 
L 139.921074 198.165531 
L 139.712415 199.175632 
L 139.512232 200.185732 
L 139.333905 201.195833 
L 139.184191 202.205933 
L 139.059532 203.216034 
L 138.950486 204.226134 
L 138.84905 205.236235 
L 138.752683 206.246336 
L 138.663589 207.256436 
L 138.585889 208.266537 
L 138.523048 209.276637 
L 138.47615 210.286738 
L 138.44311 211.296838 
L 138.419221 212.306939 
L 138.398977 213.317039 
L 138.378156 214.32714 
L 138.354954 215.33724 
L 138.32969 216.347341 
L 138.303731 217.357441 
L 138.278643 218.367542 
z
" clip-path="url(#pcee7ddf635)" style="fill: #348abd; fill-opacity: 0.3"/>
   </g>
   <g id="PolyCollection_4">
    <path d="M 166.266252 208.245021 
L 166.116444 208.245021 
L 166.091656 207.463685 
L 166.065999 206.68235 
L 166.040983 205.901015 
L 166.01793 205.119679 
L 165.997198 204.338344 
L 165.977164 203.557009 
L 165.953901 202.775673 
L 165.92215 201.994338 
L 165.877239 201.213003 
L 165.81686 200.431667 
L 165.741721 199.650332 
L 165.654934 198.868997 
L 165.560484 198.087661 
L 165.460917 197.306326 
L 165.354631 196.524991 
L 165.234716 195.743655 
L 165.091917 194.96232 
L 164.921241 194.180985 
L 164.727118 193.399649 
L 164.521634 192.618314 
L 164.315976 191.836979 
L 164.111333 191.055643 
L 163.895847 190.274308 
L 163.649396 189.492973 
L 163.353277 188.711637 
L 163.000143 187.930302 
L 162.599494 187.148967 
L 162.17505 186.367631 
L 161.754449 185.586296 
L 161.357877 184.804961 
L 160.994089 184.023625 
L 160.665483 183.24229 
L 160.374495 182.460955 
L 160.122961 181.679619 
L 159.905634 180.898284 
L 159.707156 180.116949 
L 159.50807 179.335613 
L 159.29488 178.554278 
L 159.064653 177.772943 
L 158.821359 176.991607 
L 158.570612 176.210272 
L 158.320652 175.428937 
L 158.088873 174.647601 
L 157.904654 173.866266 
L 157.800567 173.084931 
L 157.79511 172.303595 
L 157.880223 171.52226 
L 158.025313 170.740925 
L 158.196807 169.959589 
L 158.379766 169.178254 
L 158.58642 168.396919 
L 158.846237 167.615583 
L 159.184787 166.834248 
L 159.605159 166.052913 
L 160.082356 165.271577 
L 160.57228 164.490242 
L 161.029142 163.708907 
L 161.422161 162.927571 
L 161.74384 162.146236 
L 162.006782 161.364901 
L 162.232414 160.583565 
L 162.439729 159.80223 
L 162.641037 159.020895 
L 162.844726 158.239559 
L 163.058836 157.458224 
L 163.290112 156.676889 
L 163.539585 155.895553 
L 163.799728 155.114218 
L 164.05637 154.332883 
L 164.294435 153.551547 
L 164.50443 152.770212 
L 164.686485 151.988877 
L 164.849448 151.207541 
L 165.005054 150.426206 
L 165.160736 149.644871 
L 165.316163 148.863535 
L 165.465528 148.0822 
L 165.602755 147.300865 
L 165.724952 146.519529 
L 165.83201 145.738194 
L 165.924097 144.956859 
L 166.000121 144.175523 
L 166.058352 143.394188 
L 166.098064 142.612853 
L 166.120551 141.831517 
L 166.129116 141.050182 
L 166.128572 140.268847 
L 166.124537 139.487511 
L 166.122248 138.706176 
L 166.124972 137.924841 
L 166.132922 137.143505 
L 166.143669 136.36217 
L 166.153903 135.580835 
L 166.161319 134.799499 
L 166.165461 134.018164 
L 166.167343 133.236829 
L 166.168522 132.455493 
L 166.170293 131.674158 
L 166.173247 130.892823 
L 166.209449 130.892823 
L 166.209449 130.892823 
L 166.212403 131.674158 
L 166.214174 132.455493 
L 166.215353 133.236829 
L 166.217235 134.018164 
L 166.221377 134.799499 
L 166.228793 135.580835 
L 166.239026 136.36217 
L 166.249774 137.143505 
L 166.257724 137.924841 
L 166.260448 138.706176 
L 166.258159 139.487511 
L 166.254124 140.268847 
L 166.25358 141.050182 
L 166.262145 141.831517 
L 166.284632 142.612853 
L 166.324344 143.394188 
L 166.382575 144.175523 
L 166.458599 144.956859 
L 166.550686 145.738194 
L 166.657743 146.519529 
L 166.779941 147.300865 
L 166.917168 148.0822 
L 167.066533 148.863535 
L 167.22196 149.644871 
L 167.377642 150.426206 
L 167.533248 151.207541 
L 167.696211 151.988877 
L 167.878266 152.770212 
L 168.088261 153.551547 
L 168.326325 154.332883 
L 168.582968 155.114218 
L 168.843111 155.895553 
L 169.092584 156.676889 
L 169.32386 157.458224 
L 169.53797 158.239559 
L 169.741659 159.020895 
L 169.942967 159.80223 
L 170.150282 160.583565 
L 170.375914 161.364901 
L 170.638856 162.146236 
L 170.960535 162.927571 
L 171.353554 163.708907 
L 171.810416 164.490242 
L 172.30034 165.271577 
L 172.777537 166.052913 
L 173.197909 166.834248 
L 173.536459 167.615583 
L 173.796276 168.396919 
L 174.00293 169.178254 
L 174.185888 169.959589 
L 174.357383 170.740925 
L 174.502473 171.52226 
L 174.587586 172.303595 
L 174.582129 173.084931 
L 174.478042 173.866266 
L 174.293823 174.647601 
L 174.062044 175.428937 
L 173.812084 176.210272 
L 173.561336 176.991607 
L 173.318042 177.772943 
L 173.087816 178.554278 
L 172.874626 179.335613 
L 172.67554 180.116949 
L 172.477062 180.898284 
L 172.259735 181.679619 
L 172.0082 182.460955 
L 171.717213 183.24229 
L 171.388606 184.023625 
L 171.024819 184.804961 
L 170.628247 185.586296 
L 170.207646 186.367631 
L 169.783202 187.148967 
L 169.382553 187.930302 
L 169.029419 188.711637 
L 168.7333 189.492973 
L 168.486849 190.274308 
L 168.271362 191.055643 
L 168.06672 191.836979 
L 167.861062 192.618314 
L 167.655577 193.399649 
L 167.461454 194.180985 
L 167.290779 194.96232 
L 167.14798 195.743655 
L 167.028065 196.524991 
L 166.921779 197.306326 
L 166.822212 198.087661 
L 166.727762 198.868997 
L 166.640975 199.650332 
L 166.565836 200.431667 
L 166.505457 201.213003 
L 166.460546 201.994338 
L 166.428795 202.775673 
L 166.405532 203.557009 
L 166.385498 204.338344 
L 166.364766 205.119679 
L 166.341713 205.901015 
L 166.316697 206.68235 
L 166.29104 207.463685 
L 166.266252 208.245021 
z
" clip-path="url(#pcee7ddf635)" style="fill: #348abd; fill-opacity: 0.3"/>
   </g>
   <g id="PolyCollection_5">
    <path d="M 194.253709 200.62594 
L 194.103909 200.62594 
L 194.079443 200.013127 
L 194.054114 199.400313 
L 194.029379 198.7875 
L 194.006512 198.174686 
L 193.985885 197.561873 
L 193.966025 196.94906 
L 193.943262 196.336246 
L 193.912583 195.723433 
L 193.869392 195.11062 
L 193.811225 194.497806 
L 193.738476 193.884993 
L 193.653931 193.272179 
L 193.5614 192.659366 
L 193.463616 192.046553 
L 193.359681 191.433739 
L 193.243658 190.820926 
L 193.106722 190.208113 
L 192.943 189.595299 
L 192.755013 188.982486 
L 192.553356 188.369672 
L 192.349615 187.756859 
L 192.147396 187.144046 
L 191.937954 186.531232 
L 191.703146 185.918419 
L 191.423812 185.305606 
L 191.089464 184.692792 
L 190.704869 184.079979 
L 190.28976 183.467165 
L 189.870774 182.854352 
L 189.470273 182.241539 
L 189.099996 181.628725 
L 188.763572 181.015912 
L 188.463053 180.403099 
L 188.200844 179.790285 
L 187.974816 179.177472 
L 187.773451 178.564658 
L 187.578474 177.951845 
L 187.373837 177.339032 
L 187.152745 176.726218 
L 186.916962 176.113405 
L 186.671549 175.500591 
L 186.422941 174.887778 
L 186.183522 174.274965 
L 185.976867 173.662151 
L 185.834573 173.049338 
L 185.782571 172.436525 
L 185.825717 171.823711 
L 185.943582 171.210898 
L 186.102741 170.598084 
L 186.277951 169.985271 
L 186.467644 169.372458 
L 186.693363 168.759644 
L 186.984082 168.146831 
L 187.355949 167.534018 
L 187.799644 166.921204 
L 188.281534 166.308391 
L 188.756536 165.695577 
L 189.185326 165.082764 
L 189.547615 164.469951 
L 189.845806 163.857137 
L 190.098372 163.244324 
L 190.327891 162.631511 
L 190.551399 162.018697 
L 190.777779 161.405884 
L 191.010452 160.79307 
L 191.250024 160.180257 
L 191.494101 159.567444 
L 191.73624 158.95463 
L 191.967003 158.341817 
L 192.177151 157.729004 
L 192.360969 157.11619 
L 192.518502 156.503377 
L 192.656362 155.890563 
L 192.786271 155.27775 
L 192.92056 154.664937 
L 193.066346 154.052123 
L 193.222263 153.43931 
L 193.380303 152.826497 
L 193.531055 152.213683 
L 193.668032 151.60087 
L 193.788344 150.988056 
L 193.890727 150.375243 
L 193.973817 149.76243 
L 194.036241 149.149616 
L 194.077878 148.536803 
L 194.100819 147.92399 
L 194.109414 147.311176 
L 194.109592 146.698363 
L 194.107617 146.085549 
L 194.108429 145.472736 
L 194.114163 144.859923 
L 194.123821 144.247109 
L 194.134506 143.634296 
L 194.14341 143.021483 
L 194.149255 142.408669 
L 194.152489 141.795856 
L 194.154524 141.183042 
L 194.156771 140.570229 
L 194.159989 139.957416 
L 194.197629 139.957416 
L 194.197629 139.957416 
L 194.200847 140.570229 
L 194.203094 141.183042 
L 194.205128 141.795856 
L 194.208362 142.408669 
L 194.214208 143.021483 
L 194.223112 143.634296 
L 194.233797 144.247109 
L 194.243455 144.859923 
L 194.249188 145.472736 
L 194.250001 146.085549 
L 194.248026 146.698363 
L 194.248204 147.311176 
L 194.256799 147.92399 
L 194.279739 148.536803 
L 194.321377 149.149616 
L 194.383801 149.76243 
L 194.46689 150.375243 
L 194.569274 150.988056 
L 194.689586 151.60087 
L 194.826563 152.213683 
L 194.977315 152.826497 
L 195.135354 153.43931 
L 195.291272 154.052123 
L 195.437058 154.664937 
L 195.571347 155.27775 
L 195.701255 155.890563 
L 195.839116 156.503377 
L 195.996648 157.11619 
L 196.180467 157.729004 
L 196.390615 158.341817 
L 196.621378 158.95463 
L 196.863517 159.567444 
L 197.107594 160.180257 
L 197.347166 160.79307 
L 197.579838 161.405884 
L 197.806218 162.018697 
L 198.029726 162.631511 
L 198.259245 163.244324 
L 198.511812 163.857137 
L 198.810003 164.469951 
L 199.172291 165.082764 
L 199.601082 165.695577 
L 200.076084 166.308391 
L 200.557974 166.921204 
L 201.001669 167.534018 
L 201.373535 168.146831 
L 201.664254 168.759644 
L 201.889974 169.372458 
L 202.079667 169.985271 
L 202.254877 170.598084 
L 202.414035 171.210898 
L 202.531901 171.823711 
L 202.575047 172.436525 
L 202.523045 173.049338 
L 202.380751 173.662151 
L 202.174095 174.274965 
L 201.934677 174.887778 
L 201.686068 175.500591 
L 201.440655 176.113405 
L 201.204872 176.726218 
L 200.983781 177.339032 
L 200.779144 177.951845 
L 200.584167 178.564658 
L 200.382802 179.177472 
L 200.156774 179.790285 
L 199.894564 180.403099 
L 199.594045 181.015912 
L 199.257622 181.628725 
L 198.887345 182.241539 
L 198.486843 182.854352 
L 198.067858 183.467165 
L 197.652748 184.079979 
L 197.268154 184.692792 
L 196.933805 185.305606 
L 196.654472 185.918419 
L 196.419664 186.531232 
L 196.210221 187.144046 
L 196.008003 187.756859 
L 195.804262 188.369672 
L 195.602605 188.982486 
L 195.414617 189.595299 
L 195.250896 190.208113 
L 195.11396 190.820926 
L 194.997937 191.433739 
L 194.894001 192.046553 
L 194.796217 192.659366 
L 194.703687 193.272179 
L 194.619142 193.884993 
L 194.546393 194.497806 
L 194.488226 195.11062 
L 194.445034 195.723433 
L 194.414355 196.336246 
L 194.391593 196.94906 
L 194.371732 197.561873 
L 194.351106 198.174686 
L 194.328239 198.7875 
L 194.303504 199.400313 
L 194.278174 200.013127 
L 194.253709 200.62594 
z
" clip-path="url(#pcee7ddf635)" style="fill: #348abd; fill-opacity: 0.3"/>
   </g>
   <g id="PolyCollection_6">
    <path d="M 222.241267 194.743983 
L 222.091272 194.743983 
L 222.066932 194.256048 
L 222.041731 193.768113 
L 222.017103 193.280177 
L 221.994297 192.792242 
L 221.973677 192.304307 
L 221.953818 191.816371 
L 221.93116 191.328436 
L 221.900805 190.840501 
L 221.858213 190.352565 
L 221.800871 189.86463 
L 221.729048 189.376695 
L 221.645385 188.88876 
L 221.553592 188.400824 
L 221.456427 187.912889 
L 221.353227 187.424954 
L 221.238454 186.937018 
L 221.10356 186.449083 
L 220.94247 185.961148 
L 220.75699 185.473212 
L 220.556994 184.985277 
L 220.353984 184.497342 
L 220.152353 184.009406 
L 219.944603 183.521471 
L 219.713576 183.033536 
L 219.440231 182.5456 
L 219.113103 182.057665 
L 218.735177 181.56973 
L 218.324402 181.081795 
L 217.906616 180.593859 
L 217.504733 180.105924 
L 217.131727 179.617989 
L 216.792008 179.130053 
L 216.487606 178.642118 
L 216.220917 178.154183 
L 215.990724 177.666247 
L 215.787071 177.178312 
L 215.592617 176.690377 
L 215.39076 176.202441 
L 215.173195 175.714506 
L 214.940496 175.226571 
L 214.697354 174.738635 
L 214.449815 174.2507 
L 214.208763 173.762765 
L 213.995398 173.27483 
L 213.839965 172.786894 
L 213.770031 172.298959 
L 213.795006 171.811024 
L 213.899329 171.323088 
L 214.051437 170.835153 
L 214.223538 170.347218 
L 214.408745 169.859282 
L 214.624092 169.371347 
L 214.897879 168.883412 
L 215.249984 168.395476 
L 215.677214 167.907541 
L 216.151293 167.419606 
L 216.62921 166.93167 
L 217.069659 166.443735 
L 217.447454 165.9558 
L 217.759626 165.467865 
L 218.021248 164.979929 
L 218.254541 164.491994 
L 218.478409 164.004059 
L 218.704102 163.516123 
L 218.936935 163.028188 
L 219.179249 162.540253 
L 219.430742 162.052317 
L 219.686951 161.564382 
L 219.939013 161.076447 
L 220.175823 160.588511 
L 220.387069 160.100576 
L 220.565825 159.612641 
L 220.710745 159.124705 
L 220.827612 158.63677 
L 220.928618 158.148835 
L 221.02817 157.6609 
L 221.136909 157.172964 
L 221.257769 156.685029 
L 221.386671 156.197094 
L 221.516608 155.709158 
L 221.641435 155.221223 
L 221.756873 154.733288 
L 221.859346 154.245352 
L 221.945055 153.757417 
L 222.010637 153.269482 
L 222.054774 152.781546 
L 222.079323 152.293611 
L 222.089204 151.805676 
L 222.091166 151.31774 
L 222.091822 150.829805 
L 222.095615 150.34187 
L 222.103653 149.853935 
L 222.114155 149.365999 
L 222.124248 148.878064 
L 222.131895 148.390129 
L 222.13679 147.902193 
L 222.139996 147.414258 
L 222.142947 146.926323 
L 222.146573 146.438387 
L 222.185966 146.438387 
L 222.185966 146.438387 
L 222.189592 146.926323 
L 222.192544 147.414258 
L 222.19575 147.902193 
L 222.200645 148.390129 
L 222.208292 148.878064 
L 222.218384 149.365999 
L 222.228886 149.853935 
L 222.236924 150.34187 
L 222.240717 150.829805 
L 222.241373 151.31774 
L 222.243335 151.805676 
L 222.253216 152.293611 
L 222.277765 152.781546 
L 222.321902 153.269482 
L 222.387484 153.757417 
L 222.473193 154.245352 
L 222.575666 154.733288 
L 222.691104 155.221223 
L 222.815931 155.709158 
L 222.945868 156.197094 
L 223.074771 156.685029 
L 223.19563 157.172964 
L 223.304369 157.6609 
L 223.403921 158.148835 
L 223.504927 158.63677 
L 223.621795 159.124705 
L 223.766714 159.612641 
L 223.94547 160.100576 
L 224.156716 160.588511 
L 224.393526 161.076447 
L 224.645589 161.564382 
L 224.901797 162.052317 
L 225.15329 162.540253 
L 225.395604 163.028188 
L 225.628437 163.516123 
L 225.85413 164.004059 
L 226.077998 164.491994 
L 226.311291 164.979929 
L 226.572913 165.467865 
L 226.885086 165.9558 
L 227.262881 166.443735 
L 227.703329 166.93167 
L 228.181246 167.419606 
L 228.655325 167.907541 
L 229.082555 168.395476 
L 229.434661 168.883412 
L 229.708447 169.371347 
L 229.923794 169.859282 
L 230.109002 170.347218 
L 230.281102 170.835153 
L 230.43321 171.323088 
L 230.537533 171.811024 
L 230.562508 172.298959 
L 230.492574 172.786894 
L 230.337142 173.27483 
L 230.123776 173.762765 
L 229.882724 174.2507 
L 229.635185 174.738635 
L 229.392043 175.226571 
L 229.159344 175.714506 
L 228.941779 176.202441 
L 228.739922 176.690377 
L 228.545468 177.178312 
L 228.341815 177.666247 
L 228.111622 178.154183 
L 227.844933 178.642118 
L 227.540531 179.130053 
L 227.200813 179.617989 
L 226.827806 180.105924 
L 226.425924 180.593859 
L 226.008137 181.081795 
L 225.597362 181.56973 
L 225.219436 182.057665 
L 224.892308 182.5456 
L 224.618963 183.033536 
L 224.387936 183.521471 
L 224.180186 184.009406 
L 223.978555 184.497342 
L 223.775545 184.985277 
L 223.575549 185.473212 
L 223.390069 185.961148 
L 223.228979 186.449083 
L 223.094085 186.937018 
L 222.979312 187.424954 
L 222.876112 187.912889 
L 222.778947 188.400824 
L 222.687154 188.88876 
L 222.603491 189.376695 
L 222.531668 189.86463 
L 222.474326 190.352565 
L 222.431734 190.840501 
L 222.401379 191.328436 
L 222.378722 191.816371 
L 222.358862 192.304307 
L 222.338243 192.792242 
L 222.315436 193.280177 
L 222.290809 193.768113 
L 222.265607 194.256048 
L 222.241267 194.743983 
z
" clip-path="url(#pcee7ddf635)" style="fill: #348abd; fill-opacity: 0.3"/>
   </g>
   <g id="PolyCollection_7">
    <path d="M 250.228747 190.096477 
L 250.078714 190.096477 
L 250.054309 189.702832 
L 250.029042 189.309188 
L 250.00436 188.915543 
L 249.98151 188.521899 
L 249.960832 188.128254 
L 249.940847 187.734609 
L 249.917933 187.340965 
L 249.887154 186.94732 
L 249.843978 186.553676 
L 249.785957 186.160031 
L 249.713445 185.766386 
L 249.629159 185.372742 
L 249.536825 184.979097 
L 249.439099 184.585452 
L 249.335073 184.191808 
L 249.21895 183.798163 
L 249.082146 183.404519 
L 248.918932 183.010874 
L 248.73169 182.617229 
L 248.530655 182.223585 
L 248.327104 181.82994 
L 248.124649 181.436296 
L 247.914866 181.042651 
L 247.680058 180.649006 
L 247.401392 180.255362 
L 247.068406 179.861717 
L 246.685535 179.468073 
L 246.27193 179.074428 
L 245.853728 178.680783 
L 245.453193 178.287139 
L 245.082384 177.893494 
L 244.745297 177.499849 
L 244.444046 177.106205 
L 244.180872 176.71256 
L 243.953648 176.318916 
L 243.751223 175.925271 
L 243.555777 175.531626 
L 243.35138 175.137982 
L 243.130927 174.744337 
L 242.895788 174.350693 
L 242.650891 173.957048 
L 242.402746 173.563403 
L 242.163641 173.169759 
L 241.956632 172.776114 
L 241.812661 172.38247 
L 241.757492 171.988825 
L 241.796691 171.59518 
L 241.911093 171.201536 
L 242.068246 170.807891 
L 242.242893 170.414247 
L 242.432466 170.020602 
L 242.657212 169.626957 
L 242.945392 169.233313 
L 243.313483 168.839668 
L 243.753333 168.446023 
L 244.232662 168.052379 
L 244.707249 167.658734 
L 245.137766 167.26509 
L 245.503115 166.871445 
L 245.804524 166.4778 
L 246.059534 166.084156 
L 246.290484 165.690511 
L 246.514912 165.296867 
L 246.742657 164.903222 
L 246.97828 164.509577 
L 247.223649 164.115933 
L 247.477679 163.722288 
L 247.734917 163.328644 
L 247.985943 162.934999 
L 248.219954 162.541354 
L 248.427727 162.14771 
L 248.603874 161.754065 
L 248.748632 161.36042 
L 248.868763 160.966776 
L 248.976042 160.573131 
L 249.082723 160.179487 
L 249.196138 159.785842 
L 249.316059 159.392197 
L 249.436667 158.998553 
L 249.551329 158.604908 
L 249.656409 158.211264 
L 249.751655 157.817619 
L 249.837793 157.423974 
L 249.914035 157.03033 
L 249.977619 156.636685 
L 250.025428 156.243041 
L 250.056164 155.849396 
L 250.071603 155.455751 
L 250.076425 155.062107 
L 250.076806 154.668462 
L 250.078295 154.274817 
L 250.083862 153.881173 
L 250.093222 153.487528 
L 250.103895 153.093884 
L 250.113242 152.700239 
L 250.120047 152.306594 
L 250.124776 151.91295 
L 250.128727 151.519305 
L 250.132967 151.125661 
L 250.174494 151.125661 
L 250.174494 151.125661 
L 250.178734 151.519305 
L 250.182685 151.91295 
L 250.187413 152.306594 
L 250.194219 152.700239 
L 250.203566 153.093884 
L 250.214239 153.487528 
L 250.223599 153.881173 
L 250.229166 154.274817 
L 250.230655 154.668462 
L 250.231036 155.062107 
L 250.235858 155.455751 
L 250.251297 155.849396 
L 250.282033 156.243041 
L 250.329842 156.636685 
L 250.393426 157.03033 
L 250.469667 157.423974 
L 250.555806 157.817619 
L 250.651052 158.211264 
L 250.756132 158.604908 
L 250.870793 158.998553 
L 250.991401 159.392197 
L 251.111323 159.785842 
L 251.224737 160.179487 
L 251.331419 160.573131 
L 251.438698 160.966776 
L 251.558828 161.36042 
L 251.703587 161.754065 
L 251.879734 162.14771 
L 252.087506 162.541354 
L 252.321518 162.934999 
L 252.572543 163.328644 
L 252.829781 163.722288 
L 253.083812 164.115933 
L 253.329181 164.509577 
L 253.564804 164.903222 
L 253.792549 165.296867 
L 254.016977 165.690511 
L 254.247927 166.084156 
L 254.502937 166.4778 
L 254.804345 166.871445 
L 255.169694 167.26509 
L 255.600212 167.658734 
L 256.074799 168.052379 
L 256.554128 168.446023 
L 256.993978 168.839668 
L 257.362068 169.233313 
L 257.650249 169.626957 
L 257.874995 170.020602 
L 258.064568 170.414247 
L 258.239215 170.807891 
L 258.396368 171.201536 
L 258.51077 171.59518 
L 258.549969 171.988825 
L 258.4948 172.38247 
L 258.350829 172.776114 
L 258.14382 173.169759 
L 257.904715 173.563403 
L 257.65657 173.957048 
L 257.411672 174.350693 
L 257.176534 174.744337 
L 256.956081 175.137982 
L 256.751684 175.531626 
L 256.556238 175.925271 
L 256.353813 176.318916 
L 256.126589 176.71256 
L 255.863415 177.106205 
L 255.562163 177.499849 
L 255.225077 177.893494 
L 254.854268 178.287139 
L 254.453733 178.680783 
L 254.035531 179.074428 
L 253.621925 179.468073 
L 253.239055 179.861717 
L 252.906069 180.255362 
L 252.627403 180.649006 
L 252.392595 181.042651 
L 252.182812 181.436296 
L 251.980356 181.82994 
L 251.776806 182.223585 
L 251.57577 182.617229 
L 251.388529 183.010874 
L 251.225315 183.404519 
L 251.088511 183.798163 
L 250.972388 184.191808 
L 250.868362 184.585452 
L 250.770635 184.979097 
L 250.678302 185.372742 
L 250.594016 185.766386 
L 250.521504 186.160031 
L 250.463482 186.553676 
L 250.420307 186.94732 
L 250.389528 187.340965 
L 250.366614 187.734609 
L 250.346629 188.128254 
L 250.325951 188.521899 
L 250.303101 188.915543 
L 250.278419 189.309188 
L 250.253152 189.702832 
L 250.228747 190.096477 
z
" clip-path="url(#pcee7ddf635)" style="fill: #348abd; fill-opacity: 0.3"/>
   </g>
   <g id="PolyCollection_8">
    <path d="M 278.216325 186.347418 
L 278.066057 186.347418 
L 278.0413 186.026124 
L 278.015675 185.70483 
L 277.990689 185.383535 
L 277.967616 185.062241 
L 277.946733 184.740946 
L 277.926366 184.419652 
L 277.902613 184.098358 
L 277.87031 183.777063 
L 277.824904 183.455769 
L 277.764158 183.134475 
L 277.688787 182.81318 
L 277.601849 182.491886 
L 277.507193 182.170591 
L 277.407127 181.849297 
L 277.299831 181.528003 
L 277.178445 181.206708 
L 277.034151 180.885414 
L 276.862509 180.56412 
L 276.668142 180.242825 
L 276.462721 179.921531 
L 276.25666 179.600236 
L 276.050498 179.278942 
L 275.832219 178.957648 
L 275.582113 178.636353 
L 275.282334 178.315059 
L 274.926512 177.993765 
L 274.524755 177.67247 
L 274.100637 177.351176 
L 273.681046 177.029881 
L 273.285489 176.708587 
L 272.922669 176.387293 
L 272.595329 176.065998 
L 272.305903 175.744704 
L 272.05554 175.42341 
L 271.83818 175.102115 
L 271.638331 174.780821 
L 271.437222 174.459526 
L 271.222188 174.138232 
L 270.990606 173.816938 
L 270.746334 173.495643 
L 270.495184 173.174349 
L 270.246348 172.853055 
L 270.018389 172.53176 
L 269.840888 172.210466 
L 269.744953 171.889171 
L 269.746595 171.567877 
L 269.8359 171.246583 
L 269.982414 170.925288 
L 270.154659 170.603994 
L 270.34032 170.2827 
L 270.553024 169.961405 
L 270.821474 169.640111 
L 271.168761 169.318816 
L 271.595133 168.997522 
L 272.073823 168.676228 
L 272.560814 168.354933 
L 273.012206 168.033639 
L 273.400198 167.712345 
L 273.720392 167.39105 
L 273.987878 167.069756 
L 274.22574 166.748461 
L 274.453772 166.427167 
L 274.683744 166.105873 
L 274.921191 165.784578 
L 275.168481 165.463284 
L 275.425076 165.14199 
L 275.686011 164.820695 
L 275.941937 164.499401 
L 276.181642 164.178106 
L 276.395238 163.856812 
L 276.57667 163.535518 
L 276.725665 163.214223 
L 276.848822 162.892929 
L 276.958227 162.571635 
L 277.066791 162.25034 
L 277.182446 161.929046 
L 277.305132 161.607751 
L 277.428681 161.286457 
L 277.545836 160.965163 
L 277.652441 160.643868 
L 277.748095 160.322574 
L 277.833832 160.00128 
L 277.909503 159.679985 
L 277.973094 159.358691 
L 278.022047 159.037396 
L 278.055045 158.716102 
L 278.072923 158.394808 
L 278.078584 158.073513 
L 278.076512 157.752219 
L 278.07201 157.430925 
L 278.069888 157.10963 
L 278.072838 156.788336 
L 278.08055 156.467041 
L 278.090436 156.145747 
L 278.099566 155.824453 
L 278.106393 155.503158 
L 278.111192 155.181864 
L 278.115241 154.86057 
L 278.119647 154.539275 
L 278.162736 154.539275 
L 278.162736 154.539275 
L 278.167142 154.86057 
L 278.171191 155.181864 
L 278.175989 155.503158 
L 278.182817 155.824453 
L 278.191946 156.145747 
L 278.201833 156.467041 
L 278.209545 156.788336 
L 278.212495 157.10963 
L 278.210373 157.430925 
L 278.205871 157.752219 
L 278.203799 158.073513 
L 278.20946 158.394808 
L 278.227337 158.716102 
L 278.260336 159.037396 
L 278.309288 159.358691 
L 278.37288 159.679985 
L 278.448551 160.00128 
L 278.534287 160.322574 
L 278.629941 160.643868 
L 278.736546 160.965163 
L 278.853701 161.286457 
L 278.97725 161.607751 
L 279.099937 161.929046 
L 279.215591 162.25034 
L 279.324155 162.571635 
L 279.43356 162.892929 
L 279.556717 163.214223 
L 279.705712 163.535518 
L 279.887145 163.856812 
L 280.10074 164.178106 
L 280.340445 164.499401 
L 280.596372 164.820695 
L 280.857306 165.14199 
L 281.113901 165.463284 
L 281.361191 165.784578 
L 281.598638 166.105873 
L 281.82861 166.427167 
L 282.056642 166.748461 
L 282.294505 167.069756 
L 282.561991 167.39105 
L 282.882184 167.712345 
L 283.270177 168.033639 
L 283.721569 168.354933 
L 284.20856 168.676228 
L 284.687249 168.997522 
L 285.113621 169.318816 
L 285.460908 169.640111 
L 285.729359 169.961405 
L 285.942063 170.2827 
L 286.127724 170.603994 
L 286.299968 170.925288 
L 286.446482 171.246583 
L 286.535787 171.567877 
L 286.537429 171.889171 
L 286.441494 172.210466 
L 286.263993 172.53176 
L 286.036034 172.853055 
L 285.787198 173.174349 
L 285.536048 173.495643 
L 285.291776 173.816938 
L 285.060194 174.138232 
L 284.84516 174.459526 
L 284.644051 174.780821 
L 284.444203 175.102115 
L 284.226842 175.42341 
L 283.97648 175.744704 
L 283.687054 176.065998 
L 283.359713 176.387293 
L 282.996893 176.708587 
L 282.601337 177.029881 
L 282.181745 177.351176 
L 281.757627 177.67247 
L 281.35587 177.993765 
L 281.000049 178.315059 
L 280.700269 178.636353 
L 280.450164 178.957648 
L 280.231884 179.278942 
L 280.025722 179.600236 
L 279.819661 179.921531 
L 279.614241 180.242825 
L 279.419873 180.56412 
L 279.248232 180.885414 
L 279.103938 181.206708 
L 278.982552 181.528003 
L 278.875255 181.849297 
L 278.775189 182.170591 
L 278.680533 182.491886 
L 278.593596 182.81318 
L 278.518225 183.134475 
L 278.457478 183.455769 
L 278.412072 183.777063 
L 278.37977 184.098358 
L 278.356016 184.419652 
L 278.335649 184.740946 
L 278.314766 185.062241 
L 278.291693 185.383535 
L 278.266707 185.70483 
L 278.241083 186.026124 
L 278.216325 186.347418 
z
" clip-path="url(#pcee7ddf635)" style="fill: #348abd; fill-opacity: 0.3"/>
   </g>
   <g id="PolyCollection_9">
    <path d="M 306.203729 183.270268 
L 306.053575 183.270268 
L 306.028406 183.007264 
L 306.002367 182.744259 
L 305.97704 182.481254 
L 305.953733 182.218249 
L 305.932634 181.955245 
L 305.911795 181.69224 
L 305.886932 181.429235 
L 305.852597 181.16623 
L 305.804242 180.903225 
L 305.739963 180.640221 
L 305.660982 180.377216 
L 305.570798 180.114211 
L 305.473336 179.851206 
L 305.370287 179.588202 
L 305.258467 179.325197 
L 305.129697 179.062192 
L 304.97528 178.799187 
L 304.793009 178.536183 
L 304.590532 178.273178 
L 304.380755 178.010173 
L 304.171901 177.747168 
L 303.959788 177.484164 
L 303.727898 177.221159 
L 303.455031 176.958154 
L 303.126296 176.695149 
L 302.742087 176.432145 
L 302.320098 176.16914 
L 301.888188 175.906135 
L 301.47199 175.64313 
L 301.086283 175.380125 
L 300.736162 175.117121 
L 300.42397 174.854116 
L 300.152132 174.591111 
L 299.91833 174.328106 
L 299.710222 174.065102 
L 299.508329 173.802097 
L 299.295905 173.539092 
L 299.066325 173.276087 
L 298.821866 173.013083 
L 298.568158 172.750078 
L 298.313156 172.487073 
L 298.0728 172.224068 
L 297.875281 171.961064 
L 297.75437 171.698059 
L 297.732414 171.435054 
L 297.805654 171.172049 
L 297.945538 170.909045 
L 298.117403 170.64604 
L 298.303536 170.383035 
L 298.51395 170.12003 
L 298.777578 169.857025 
L 299.12062 169.594021 
L 299.546638 169.331016 
L 300.03013 169.068011 
L 300.525794 168.805006 
L 300.987004 168.542002 
L 301.383498 168.278997 
L 301.709862 168.015992 
L 301.981666 167.752987 
L 302.223103 167.489983 
L 302.454803 167.226978 
L 302.688851 166.963973 
L 302.930843 166.700968 
L 303.183079 166.437964 
L 303.44463 166.174959 
L 303.709736 165.911954 
L 303.968165 165.648949 
L 304.208153 165.385945 
L 304.419801 165.12294 
L 304.597683 164.859935 
L 304.742866 164.59693 
L 304.86372 164.333925 
L 304.973643 164.070921 
L 305.085413 163.807916 
L 305.205273 163.544911 
L 305.330996 163.281906 
L 305.455206 163.018902 
L 305.57099 162.755897 
L 305.675394 162.492892 
L 305.768868 162.229887 
L 305.852302 161.966883 
L 305.924804 161.703878 
L 305.983905 161.440873 
L 306.02739 161.177868 
L 306.054852 160.914864 
L 306.068026 160.651859 
L 306.070371 160.388854 
L 306.066585 160.125849 
L 306.061911 159.862844 
L 306.060794 159.59984 
L 306.065279 159.336835 
L 306.074338 159.07383 
L 306.084875 158.810825 
L 306.093767 158.547821 
L 306.099493 158.284816 
L 306.102454 158.021811 
L 306.104178 157.758806 
L 306.106228 157.495802 
L 306.109439 157.232797 
L 306.147865 157.232797 
L 306.147865 157.232797 
L 306.151076 157.495802 
L 306.153126 157.758806 
L 306.15485 158.021811 
L 306.157811 158.284816 
L 306.163537 158.547821 
L 306.172429 158.810825 
L 306.182966 159.07383 
L 306.192025 159.336835 
L 306.19651 159.59984 
L 306.195393 159.862844 
L 306.190719 160.125849 
L 306.186934 160.388854 
L 306.189278 160.651859 
L 306.202452 160.914864 
L 306.229914 161.177868 
L 306.273399 161.440873 
L 306.3325 161.703878 
L 306.405002 161.966883 
L 306.488436 162.229887 
L 306.58191 162.492892 
L 306.686314 162.755897 
L 306.802098 163.018902 
L 306.926308 163.281906 
L 307.052031 163.544911 
L 307.171892 163.807916 
L 307.283661 164.070921 
L 307.393584 164.333925 
L 307.514438 164.59693 
L 307.659622 164.859935 
L 307.837503 165.12294 
L 308.049151 165.385945 
L 308.289139 165.648949 
L 308.547568 165.911954 
L 308.812674 166.174959 
L 309.074225 166.437964 
L 309.326461 166.700968 
L 309.568453 166.963973 
L 309.802501 167.226978 
L 310.034201 167.489983 
L 310.275638 167.752987 
L 310.547442 168.015992 
L 310.873806 168.278997 
L 311.2703 168.542002 
L 311.73151 168.805006 
L 312.227174 169.068011 
L 312.710666 169.331016 
L 313.136684 169.594021 
L 313.479726 169.857025 
L 313.743354 170.12003 
L 313.953768 170.383035 
L 314.139901 170.64604 
L 314.311766 170.909045 
L 314.45165 171.172049 
L 314.52489 171.435054 
L 314.502934 171.698059 
L 314.382023 171.961064 
L 314.184504 172.224068 
L 313.944148 172.487073 
L 313.689146 172.750078 
L 313.435438 173.013083 
L 313.19098 173.276087 
L 312.961399 173.539092 
L 312.748975 173.802097 
L 312.547082 174.065102 
L 312.338974 174.328106 
L 312.105172 174.591111 
L 311.833334 174.854116 
L 311.521142 175.117121 
L 311.171021 175.380125 
L 310.785314 175.64313 
L 310.369116 175.906135 
L 309.937206 176.16914 
L 309.515218 176.432145 
L 309.131008 176.695149 
L 308.802273 176.958154 
L 308.529406 177.221159 
L 308.297516 177.484164 
L 308.085403 177.747168 
L 307.876549 178.010173 
L 307.666772 178.273178 
L 307.464296 178.536183 
L 307.282024 178.799187 
L 307.127607 179.062192 
L 306.998837 179.325197 
L 306.887017 179.588202 
L 306.783968 179.851206 
L 306.686506 180.114211 
L 306.596322 180.377216 
L 306.517341 180.640221 
L 306.453062 180.903225 
L 306.404707 181.16623 
L 306.370372 181.429235 
L 306.345509 181.69224 
L 306.32467 181.955245 
L 306.303571 182.218249 
L 306.280264 182.481254 
L 306.254937 182.744259 
L 306.228898 183.007264 
L 306.203729 183.270268 
z
" clip-path="url(#pcee7ddf635)" style="fill: #348abd; fill-opacity: 0.3"/>
   </g>
   <g id="PolyCollection_10">
    <path d="M 334.191238 180.712022 
L 334.040988 180.712022 
L 334.015716 180.500599 
L 333.989575 180.289175 
L 333.96416 180.077751 
L 333.940789 179.866327 
L 333.91963 179.654903 
L 333.898677 179.44348 
L 333.873567 179.232056 
L 333.83879 179.020632 
L 333.789803 178.809208 
L 333.72477 178.597784 
L 333.645019 178.386361 
L 333.554132 178.174937 
L 333.456045 177.963513 
L 333.352303 177.752089 
L 333.239435 177.540665 
L 333.109012 177.329242 
L 332.95242 177.117818 
L 332.767954 176.906394 
L 332.563853 176.69497 
L 332.353166 176.483546 
L 332.143553 176.272123 
L 331.929837 176.060699 
L 331.69467 175.849275 
L 331.416724 175.637851 
L 331.081899 175.426427 
L 330.692063 175.215004 
L 330.266361 175.00358 
L 329.833253 174.792156 
L 329.417864 174.580732 
L 329.034003 174.369308 
L 328.686236 174.157885 
L 328.376952 173.946461 
L 328.10842 173.735037 
L 327.877359 173.523613 
L 327.67017 173.312189 
L 327.466938 173.100765 
L 327.251714 172.889342 
L 327.019122 172.677918 
L 326.772171 172.466494 
L 326.516738 172.25507 
L 326.261519 172.043646 
L 326.024207 171.832223 
L 325.834772 171.620799 
L 325.726857 171.409375 
L 325.719875 171.197951 
L 325.805759 170.986527 
L 325.953223 170.775104 
L 326.128518 170.56368 
L 326.317941 170.352256 
L 326.535765 170.140832 
L 326.812397 169.929408 
L 327.171602 169.717985 
L 327.611945 169.506561 
L 328.103124 169.295137 
L 328.597662 169.083713 
L 329.050304 168.872289 
L 329.434821 168.660866 
L 329.750364 168.449442 
L 330.015408 168.238018 
L 330.254495 168.026594 
L 330.486884 167.81517 
L 330.723173 167.603747 
L 330.968154 167.392323 
L 331.223579 167.180899 
L 331.487594 166.969475 
L 331.75327 166.758051 
L 332.00963 166.546628 
L 332.244931 166.335204 
L 332.449982 166.12378 
L 332.620632 165.912356 
L 332.759675 165.700932 
L 332.877106 165.489509 
L 332.986911 165.278085 
L 333.100864 165.066661 
L 333.223151 164.855237 
L 333.349759 164.643813 
L 333.47284 164.43239 
L 333.586249 164.220966 
L 333.68809 164.009542 
L 333.77924 163.798118 
L 333.860248 163.586694 
L 333.929668 163.375271 
L 333.984873 163.163847 
L 334.024018 162.952423 
L 334.047307 162.740999 
L 334.057035 162.529575 
L 334.057103 162.318152 
L 334.052515 162.106728 
L 334.04851 161.895304 
L 334.049029 161.68388 
L 334.05523 161.472456 
L 334.065286 161.261033 
L 334.075839 161.049609 
L 334.084074 160.838185 
L 334.089004 160.626761 
L 334.091386 160.415337 
L 334.092803 160.203914 
L 334.09469 159.99249 
L 334.097751 159.781066 
L 334.134475 159.781066 
L 334.134475 159.781066 
L 334.137536 159.99249 
L 334.139423 160.203914 
L 334.14084 160.415337 
L 334.143222 160.626761 
L 334.148152 160.838185 
L 334.156387 161.049609 
L 334.166939 161.261033 
L 334.176996 161.472456 
L 334.183197 161.68388 
L 334.183715 161.895304 
L 334.179711 162.106728 
L 334.175123 162.318152 
L 334.17519 162.529575 
L 334.184918 162.740999 
L 334.208208 162.952423 
L 334.247352 163.163847 
L 334.302557 163.375271 
L 334.371978 163.586694 
L 334.452986 163.798118 
L 334.544136 164.009542 
L 334.645977 164.220966 
L 334.759386 164.43239 
L 334.882467 164.643813 
L 335.009075 164.855237 
L 335.131362 165.066661 
L 335.245315 165.278085 
L 335.355119 165.489509 
L 335.47255 165.700932 
L 335.611593 165.912356 
L 335.782244 166.12378 
L 335.987295 166.335204 
L 336.222596 166.546628 
L 336.478956 166.758051 
L 336.744632 166.969475 
L 337.008646 167.180899 
L 337.264072 167.392323 
L 337.509053 167.603747 
L 337.745341 167.81517 
L 337.977731 168.026594 
L 338.216818 168.238018 
L 338.481862 168.449442 
L 338.797404 168.660866 
L 339.181922 168.872289 
L 339.634564 169.083713 
L 340.129102 169.295137 
L 340.620281 169.506561 
L 341.060624 169.717985 
L 341.419828 169.929408 
L 341.696461 170.140832 
L 341.914285 170.352256 
L 342.103708 170.56368 
L 342.279003 170.775104 
L 342.426467 170.986527 
L 342.512351 171.197951 
L 342.505369 171.409375 
L 342.397454 171.620799 
L 342.208018 171.832223 
L 341.970707 172.043646 
L 341.715488 172.25507 
L 341.460055 172.466494 
L 341.213103 172.677918 
L 340.980512 172.889342 
L 340.765288 173.100765 
L 340.562056 173.312189 
L 340.354867 173.523613 
L 340.123805 173.735037 
L 339.855273 173.946461 
L 339.54599 174.157885 
L 339.198223 174.369308 
L 338.814362 174.580732 
L 338.398973 174.792156 
L 337.965865 175.00358 
L 337.540163 175.215004 
L 337.150327 175.426427 
L 336.815502 175.637851 
L 336.537556 175.849275 
L 336.302389 176.060699 
L 336.088673 176.272123 
L 335.879059 176.483546 
L 335.668372 176.69497 
L 335.464272 176.906394 
L 335.279805 177.117818 
L 335.123214 177.329242 
L 334.992791 177.540665 
L 334.879923 177.752089 
L 334.776181 177.963513 
L 334.678093 178.174937 
L 334.587207 178.386361 
L 334.507455 178.597784 
L 334.442423 178.809208 
L 334.393436 179.020632 
L 334.358659 179.232056 
L 334.333548 179.44348 
L 334.312596 179.654903 
L 334.291437 179.866327 
L 334.268066 180.077751 
L 334.242651 180.289175 
L 334.216509 180.500599 
L 334.191238 180.712022 
z
" clip-path="url(#pcee7ddf635)" style="fill: #348abd; fill-opacity: 0.3"/>
   </g>
   <g id="PolyCollection_11">
    <path d="M 362.178699 178.569441 
L 362.028448 178.569441 
L 362.003177 178.401317 
L 361.977036 178.233193 
L 361.951621 178.06507 
L 361.92825 177.896946 
L 361.907091 177.728822 
L 361.886138 177.560698 
L 361.861028 177.392574 
L 361.826251 177.22445 
L 361.777264 177.056326 
L 361.712231 176.888202 
L 361.63248 176.720078 
L 361.541594 176.551955 
L 361.443506 176.383831 
L 361.339764 176.215707 
L 361.226896 176.047583 
L 361.096473 175.879459 
L 360.939882 175.711335 
L 360.755415 175.543211 
L 360.551315 175.375087 
L 360.340628 175.206963 
L 360.131014 175.03884 
L 359.917299 174.870716 
L 359.682132 174.702592 
L 359.404186 174.534468 
L 359.069361 174.366344 
L 358.679525 174.19822 
L 358.253824 174.030096 
L 357.820716 173.861972 
L 357.405327 173.693848 
L 357.021466 173.525724 
L 356.6737 173.357601 
L 356.364416 173.189477 
L 356.095884 173.021353 
L 355.864823 172.853229 
L 355.657634 172.685105 
L 355.454402 172.516981 
L 355.239177 172.348857 
L 355.006585 172.180733 
L 354.759632 172.012609 
L 354.504197 171.844486 
L 354.248976 171.676362 
L 354.011664 171.508238 
L 353.822229 171.340114 
L 353.714316 171.17199 
L 353.707335 171.003866 
L 353.793222 170.835742 
L 353.940687 170.667618 
L 354.115983 170.499494 
L 354.305406 170.331371 
L 354.52323 170.163247 
L 354.799862 169.995123 
L 355.159067 169.826999 
L 355.599411 169.658875 
L 356.090589 169.490751 
L 356.585127 169.322627 
L 357.037769 169.154503 
L 357.422286 168.986379 
L 357.737827 168.818256 
L 358.002871 168.650132 
L 358.241958 168.482008 
L 358.474347 168.313884 
L 358.710636 168.14576 
L 358.955617 167.977636 
L 359.211042 167.809512 
L 359.475057 167.641388 
L 359.740733 167.473264 
L 359.997092 167.30514 
L 360.232393 167.137017 
L 360.437444 166.968893 
L 360.608094 166.800769 
L 360.747137 166.632645 
L 360.864568 166.464521 
L 360.974372 166.296397 
L 361.088326 166.128273 
L 361.210612 165.960149 
L 361.33722 165.792025 
L 361.460301 165.623902 
L 361.57371 165.455778 
L 361.675551 165.287654 
L 361.766701 165.11953 
L 361.847709 164.951406 
L 361.917129 164.783282 
L 361.972334 164.615158 
L 362.011479 164.447034 
L 362.034768 164.27891 
L 362.044496 164.110787 
L 362.044564 163.942663 
L 362.039976 163.774539 
L 362.035971 163.606415 
L 362.03649 163.438291 
L 362.042691 163.270167 
L 362.052747 163.102043 
L 362.063299 162.933919 
L 362.071535 162.765795 
L 362.076464 162.597672 
L 362.078847 162.429548 
L 362.080264 162.261424 
L 362.082151 162.0933 
L 362.085211 161.925176 
L 362.121936 161.925176 
L 362.121936 161.925176 
L 362.124997 162.0933 
L 362.126883 162.261424 
L 362.1283 162.429548 
L 362.130683 162.597672 
L 362.135613 162.765795 
L 362.143848 162.933919 
L 362.1544 163.102043 
L 362.164457 163.270167 
L 362.170657 163.438291 
L 362.171176 163.606415 
L 362.167171 163.774539 
L 362.162583 163.942663 
L 362.162651 164.110787 
L 362.172379 164.27891 
L 362.195668 164.447034 
L 362.234813 164.615158 
L 362.290018 164.783282 
L 362.359438 164.951406 
L 362.440446 165.11953 
L 362.531596 165.287654 
L 362.633437 165.455778 
L 362.746846 165.623902 
L 362.869927 165.792025 
L 362.996535 165.960149 
L 363.118822 166.128273 
L 363.232775 166.296397 
L 363.342579 166.464521 
L 363.46001 166.632645 
L 363.599053 166.800769 
L 363.769704 166.968893 
L 363.974754 167.137017 
L 364.210055 167.30514 
L 364.466414 167.473264 
L 364.732091 167.641388 
L 364.996105 167.809512 
L 365.251531 167.977636 
L 365.496511 168.14576 
L 365.7328 168.313884 
L 365.965189 168.482008 
L 366.204276 168.650132 
L 366.46932 168.818256 
L 366.784862 168.986379 
L 367.169379 169.154503 
L 367.62202 169.322627 
L 368.116558 169.490751 
L 368.607737 169.658875 
L 369.04808 169.826999 
L 369.407285 169.995123 
L 369.683918 170.163247 
L 369.901741 170.331371 
L 370.091165 170.499494 
L 370.26646 170.667618 
L 370.413925 170.835742 
L 370.499812 171.003866 
L 370.492831 171.17199 
L 370.384918 171.340114 
L 370.195483 171.508238 
L 369.958171 171.676362 
L 369.70295 171.844486 
L 369.447515 172.012609 
L 369.200563 172.180733 
L 368.96797 172.348857 
L 368.752745 172.516981 
L 368.549514 172.685105 
L 368.342324 172.853229 
L 368.111263 173.021353 
L 367.842731 173.189477 
L 367.533448 173.357601 
L 367.185681 173.525724 
L 366.80182 173.693848 
L 366.386432 173.861972 
L 365.953324 174.030096 
L 365.527622 174.19822 
L 365.137786 174.366344 
L 364.802961 174.534468 
L 364.525015 174.702592 
L 364.289848 174.870716 
L 364.076133 175.03884 
L 363.866519 175.206963 
L 363.655832 175.375087 
L 363.451732 175.543211 
L 363.267266 175.711335 
L 363.110674 175.879459 
L 362.980251 176.047583 
L 362.867383 176.215707 
L 362.763641 176.383831 
L 362.665554 176.551955 
L 362.574668 176.720078 
L 362.494916 176.888202 
L 362.429884 177.056326 
L 362.380896 177.22445 
L 362.34612 177.392574 
L 362.321009 177.560698 
L 362.300057 177.728822 
L 362.278897 177.896946 
L 362.255526 178.06507 
L 362.230111 178.233193 
L 362.20397 178.401317 
L 362.178699 178.569441 
z
" clip-path="url(#pcee7ddf635)" style="fill: #348abd; fill-opacity: 0.3"/>
   </g>
   <g id="PolyCollection_12">
    <path d="M 390.16616 176.772481 
L 390.015909 176.772481 
L 389.990638 176.640174 
L 389.964497 176.507868 
L 389.939082 176.375561 
L 389.915711 176.243254 
L 389.894552 176.110948 
L 389.873599 175.978641 
L 389.848488 175.846334 
L 389.813712 175.714028 
L 389.764725 175.581721 
L 389.699692 175.449414 
L 389.619941 175.317108 
L 389.529055 175.184801 
L 389.430967 175.052494 
L 389.327225 174.920188 
L 389.214357 174.787881 
L 389.083935 174.655574 
L 388.927343 174.523268 
L 388.742877 174.390961 
L 388.538777 174.258654 
L 388.328089 174.126348 
L 388.118476 173.994041 
L 387.90476 173.861734 
L 387.669594 173.729428 
L 387.391648 173.597121 
L 387.056823 173.464814 
L 386.666988 173.332508 
L 386.241287 173.200201 
L 385.808179 173.067894 
L 385.39279 172.935588 
L 385.008929 172.803281 
L 384.661163 172.670974 
L 384.351879 172.538668 
L 384.083347 172.406361 
L 383.852285 172.274054 
L 383.645095 172.141748 
L 383.441862 172.009441 
L 383.226636 171.877134 
L 382.994041 171.744828 
L 382.747086 171.612521 
L 382.49165 171.480214 
L 382.236429 171.347908 
L 381.999119 171.215601 
L 381.809686 171.083294 
L 381.701775 170.950988 
L 381.694796 170.818681 
L 381.780684 170.686374 
L 381.92815 170.554068 
L 382.103446 170.421761 
L 382.292869 170.289454 
L 382.510693 170.157148 
L 382.787326 170.024841 
L 383.146531 169.892534 
L 383.586874 169.760228 
L 384.078053 169.627921 
L 384.57259 169.495614 
L 385.025232 169.363308 
L 385.409748 169.231001 
L 385.72529 169.098694 
L 385.990334 168.966388 
L 386.229421 168.834081 
L 386.46181 168.701774 
L 386.698098 168.569468 
L 386.943079 168.437161 
L 387.198504 168.304854 
L 387.462519 168.172548 
L 387.728195 168.040241 
L 387.984554 167.907934 
L 388.219855 167.775628 
L 388.424905 167.643321 
L 388.595556 167.511014 
L 388.734599 167.378708 
L 388.852029 167.246401 
L 388.961834 167.114094 
L 389.075787 166.981788 
L 389.198074 166.849481 
L 389.324682 166.717174 
L 389.447762 166.584868 
L 389.561171 166.452561 
L 389.663012 166.320254 
L 389.754162 166.187948 
L 389.83517 166.055641 
L 389.90459 165.923334 
L 389.959795 165.791028 
L 389.99894 165.658721 
L 390.022229 165.526414 
L 390.031957 165.394108 
L 390.032025 165.261801 
L 390.027437 165.129494 
L 390.023432 164.997188 
L 390.023951 164.864881 
L 390.030152 164.732574 
L 390.040208 164.600268 
L 390.05076 164.467961 
L 390.058995 164.335654 
L 390.063925 164.203348 
L 390.066308 164.071041 
L 390.067725 163.938734 
L 390.069612 163.806428 
L 390.072672 163.674121 
L 390.109397 163.674121 
L 390.109397 163.674121 
L 390.112457 163.806428 
L 390.114344 163.938734 
L 390.115761 164.071041 
L 390.118144 164.203348 
L 390.123073 164.335654 
L 390.131309 164.467961 
L 390.141861 164.600268 
L 390.151917 164.732574 
L 390.158118 164.864881 
L 390.158637 164.997188 
L 390.154632 165.129494 
L 390.150044 165.261801 
L 390.150112 165.394108 
L 390.15984 165.526414 
L 390.183129 165.658721 
L 390.222274 165.791028 
L 390.277479 165.923334 
L 390.346899 166.055641 
L 390.427907 166.187948 
L 390.519057 166.320254 
L 390.620898 166.452561 
L 390.734307 166.584868 
L 390.857387 166.717174 
L 390.983995 166.849481 
L 391.106282 166.981788 
L 391.220235 167.114094 
L 391.33004 167.246401 
L 391.44747 167.378708 
L 391.586513 167.511014 
L 391.757164 167.643321 
L 391.962214 167.775628 
L 392.197515 167.907934 
L 392.453874 168.040241 
L 392.71955 168.172548 
L 392.983565 168.304854 
L 393.23899 168.437161 
L 393.483971 168.569468 
L 393.720259 168.701774 
L 393.952648 168.834081 
L 394.191735 168.966388 
L 394.456779 169.098694 
L 394.772321 169.231001 
L 395.156837 169.363308 
L 395.609478 169.495614 
L 396.104016 169.627921 
L 396.595195 169.760228 
L 397.035538 169.892534 
L 397.394743 170.024841 
L 397.671376 170.157148 
L 397.8892 170.289454 
L 398.078623 170.421761 
L 398.253919 170.554068 
L 398.401385 170.686374 
L 398.487273 170.818681 
L 398.480294 170.950988 
L 398.372383 171.083294 
L 398.18295 171.215601 
L 397.94564 171.347908 
L 397.690419 171.480214 
L 397.434983 171.612521 
L 397.188028 171.744828 
L 396.955433 171.877134 
L 396.740206 172.009441 
L 396.536974 172.141748 
L 396.329784 172.274054 
L 396.098722 172.406361 
L 395.83019 172.538668 
L 395.520906 172.670974 
L 395.17314 172.803281 
L 394.789279 172.935588 
L 394.37389 173.067894 
L 393.940782 173.200201 
L 393.515081 173.332508 
L 393.125245 173.464814 
L 392.790421 173.597121 
L 392.512475 173.729428 
L 392.277308 173.861734 
L 392.063593 173.994041 
L 391.85398 174.126348 
L 391.643292 174.258654 
L 391.439192 174.390961 
L 391.254726 174.523268 
L 391.098134 174.655574 
L 390.967712 174.787881 
L 390.854844 174.920188 
L 390.751102 175.052494 
L 390.653014 175.184801 
L 390.562128 175.317108 
L 390.482377 175.449414 
L 390.417344 175.581721 
L 390.368357 175.714028 
L 390.333581 175.846334 
L 390.30847 175.978641 
L 390.287517 176.110948 
L 390.266358 176.243254 
L 390.242987 176.375561 
L 390.217572 176.507868 
L 390.191431 176.640174 
L 390.16616 176.772481 
z
" clip-path="url(#pcee7ddf635)" style="fill: #348abd; fill-opacity: 0.3"/>
   </g>
   <g id="matplotlib.axis_1">
    <g id="xtick_1">
     <g id="line2d_1">
      <path d="M 82.228966 307.584 
L 82.228966 41.472 
" clip-path="url(#pcee7ddf635)" style="fill: none; stroke-dasharray: 1.85,0.8; stroke-dashoffset: 0; stroke: #b2b2b2; stroke-width: 0.5"/>
     </g>
     <g id="line2d_2">
      <defs>
       <path id="m39c2e74110" d="M 0 0 
L 0 -3.5 
" style="stroke: #000000; stroke-width: 0.8"/>
      </defs>
      <g>
       <use xlink:href="#m39c2e74110" x="82.228966" y="307.584" style="stroke: #000000; stroke-width: 0.8"/>
      </g>
     </g>
     <g id="text_1">
      <!-- 0 -->
      <g transform="translate(79.047716 318.682437) scale(0.1 -0.1)">
       <defs>
        <path id="DejaVuSans-30" d="M 2034 4250 
Q 1547 4250 1301 3770 
Q 1056 3291 1056 2328 
Q 1056 1369 1301 889 
Q 1547 409 2034 409 
Q 2525 409 2770 889 
Q 3016 1369 3016 2328 
Q 3016 3291 2770 3770 
Q 2525 4250 2034 4250 
z
M 2034 4750 
Q 2819 4750 3233 4129 
Q 3647 3509 3647 2328 
Q 3647 1150 3233 529 
Q 2819 -91 2034 -91 
Q 1250 -91 836 529 
Q 422 1150 422 2328 
Q 422 3509 836 4129 
Q 1250 4750 2034 4750 
z
" transform="scale(0.015625)"/>
       </defs>
       <use xlink:href="#DejaVuSans-30"/>
      </g>
     </g>
    </g>
    <g id="xtick_2">
     <g id="line2d_3">
      <path d="M 138.203887 307.584 
L 138.203887 41.472 
" clip-path="url(#pcee7ddf635)" style="fill: none; stroke-dasharray: 1.85,0.8; stroke-dashoffset: 0; stroke: #b2b2b2; stroke-width: 0.5"/>
     </g>
     <g id="line2d_4">
      <g>
       <use xlink:href="#m39c2e74110" x="138.203887" y="307.584" style="stroke: #000000; stroke-width: 0.8"/>
      </g>
     </g>
     <g id="text_2">
      <!-- 50 -->
      <g transform="translate(131.841387 318.682437) scale(0.1 -0.1)">
       <defs>
        <path id="DejaVuSans-35" d="M 691 4666 
L 3169 4666 
L 3169 4134 
L 1269 4134 
L 1269 2991 
Q 1406 3038 1543 3061 
Q 1681 3084 1819 3084 
Q 2600 3084 3056 2656 
Q 3513 2228 3513 1497 
Q 3513 744 3044 326 
Q 2575 -91 1722 -91 
Q 1428 -91 1123 -41 
Q 819 9 494 109 
L 494 744 
Q 775 591 1075 516 
Q 1375 441 1709 441 
Q 2250 441 2565 725 
Q 2881 1009 2881 1497 
Q 2881 1984 2565 2268 
Q 2250 2553 1709 2553 
Q 1456 2553 1204 2497 
Q 953 2441 691 2322 
L 691 4666 
z
" transform="scale(0.015625)"/>
       </defs>
       <use xlink:href="#DejaVuSans-35"/>
       <use xlink:href="#DejaVuSans-30" x="63.623047"/>
      </g>
     </g>
    </g>
    <g id="xtick_3">
     <g id="line2d_5">
      <path d="M 194.178809 307.584 
L 194.178809 41.472 
" clip-path="url(#pcee7ddf635)" style="fill: none; stroke-dasharray: 1.85,0.8; stroke-dashoffset: 0; stroke: #b2b2b2; stroke-width: 0.5"/>
     </g>
     <g id="line2d_6">
      <g>
       <use xlink:href="#m39c2e74110" x="194.178809" y="307.584" style="stroke: #000000; stroke-width: 0.8"/>
      </g>
     </g>
     <g id="text_3">
      <!-- 100 -->
      <g transform="translate(184.635059 318.682437) scale(0.1 -0.1)">
       <defs>
        <path id="DejaVuSans-31" d="M 794 531 
L 1825 531 
L 1825 4091 
L 703 3866 
L 703 4441 
L 1819 4666 
L 2450 4666 
L 2450 531 
L 3481 531 
L 3481 0 
L 794 0 
L 794 531 
z
" transform="scale(0.015625)"/>
       </defs>
       <use xlink:href="#DejaVuSans-31"/>
       <use xlink:href="#DejaVuSans-30" x="63.623047"/>
       <use xlink:href="#DejaVuSans-30" x="127.246094"/>
      </g>
     </g>
    </g>
    <g id="xtick_4">
     <g id="line2d_7">
      <path d="M 250.15373 307.584 
L 250.15373 41.472 
" clip-path="url(#pcee7ddf635)" style="fill: none; stroke-dasharray: 1.85,0.8; stroke-dashoffset: 0; stroke: #b2b2b2; stroke-width: 0.5"/>
     </g>
     <g id="line2d_8">
      <g>
       <use xlink:href="#m39c2e74110" x="250.15373" y="307.584" style="stroke: #000000; stroke-width: 0.8"/>
      </g>
     </g>
     <g id="text_4">
      <!-- 150 -->
      <g transform="translate(240.60998 318.682437) scale(0.1 -0.1)">
       <use xlink:href="#DejaVuSans-31"/>
       <use xlink:href="#DejaVuSans-35" x="63.623047"/>
       <use xlink:href="#DejaVuSans-30" x="127.246094"/>
      </g>
     </g>
    </g>
    <g id="xtick_5">
     <g id="line2d_9">
      <path d="M 306.128652 307.584 
L 306.128652 41.472 
" clip-path="url(#pcee7ddf635)" style="fill: none; stroke-dasharray: 1.85,0.8; stroke-dashoffset: 0; stroke: #b2b2b2; stroke-width: 0.5"/>
     </g>
     <g id="line2d_10">
      <g>
       <use xlink:href="#m39c2e74110" x="306.128652" y="307.584" style="stroke: #000000; stroke-width: 0.8"/>
      </g>
     </g>
     <g id="text_5">
      <!-- 200 -->
      <g transform="translate(296.584902 318.682437) scale(0.1 -0.1)">
       <defs>
        <path id="DejaVuSans-32" d="M 1228 531 
L 3431 531 
L 3431 0 
L 469 0 
L 469 531 
Q 828 903 1448 1529 
Q 2069 2156 2228 2338 
Q 2531 2678 2651 2914 
Q 2772 3150 2772 3378 
Q 2772 3750 2511 3984 
Q 2250 4219 1831 4219 
Q 1534 4219 1204 4116 
Q 875 4013 500 3803 
L 500 4441 
Q 881 4594 1212 4672 
Q 1544 4750 1819 4750 
Q 2544 4750 2975 4387 
Q 3406 4025 3406 3419 
Q 3406 3131 3298 2873 
Q 3191 2616 2906 2266 
Q 2828 2175 2409 1742 
Q 1991 1309 1228 531 
z
" transform="scale(0.015625)"/>
       </defs>
       <use xlink:href="#DejaVuSans-32"/>
       <use xlink:href="#DejaVuSans-30" x="63.623047"/>
       <use xlink:href="#DejaVuSans-30" x="127.246094"/>
      </g>
     </g>
    </g>
    <g id="xtick_6">
     <g id="line2d_11">
      <path d="M 362.103574 307.584 
L 362.103574 41.472 
" clip-path="url(#pcee7ddf635)" style="fill: none; stroke-dasharray: 1.85,0.8; stroke-dashoffset: 0; stroke: #b2b2b2; stroke-width: 0.5"/>
     </g>
     <g id="line2d_12">
      <g>
       <use xlink:href="#m39c2e74110" x="362.103574" y="307.584" style="stroke: #000000; stroke-width: 0.8"/>
      </g>
     </g>
     <g id="text_6">
      <!-- 250 -->
      <g transform="translate(352.559824 318.682437) scale(0.1 -0.1)">
       <use xlink:href="#DejaVuSans-32"/>
       <use xlink:href="#DejaVuSans-35" x="63.623047"/>
       <use xlink:href="#DejaVuSans-30" x="127.246094"/>
      </g>
     </g>
    </g>
    <g id="text_7">
     <!-- $s$ -->
     <g transform="translate(233.34 333.88025) scale(0.12 -0.12)">
      <defs>
       <path id="Cmmi10-73" d="M 556 391 
Q 728 97 1247 97 
Q 1472 97 1675 173 
Q 1878 250 2011 403 
Q 2144 556 2144 775 
Q 2144 941 2025 1047 
Q 1906 1153 1734 1191 
L 1388 1259 
Q 1150 1319 997 1481 
Q 844 1644 844 1875 
Q 844 2159 998 2378 
Q 1153 2597 1406 2712 
Q 1659 2828 1931 2828 
Q 2222 2828 2451 2689 
Q 2681 2550 2681 2278 
Q 2681 2131 2598 2018 
Q 2516 1906 2369 1906 
Q 2284 1906 2223 1961 
Q 2163 2016 2163 2100 
Q 2163 2175 2205 2245 
Q 2247 2316 2317 2358 
Q 2388 2400 2463 2400 
Q 2406 2538 2251 2600 
Q 2097 2663 1919 2663 
Q 1756 2663 1593 2597 
Q 1431 2531 1332 2404 
Q 1234 2278 1234 2106 
Q 1234 1991 1315 1903 
Q 1397 1816 1516 1778 
L 1888 1703 
Q 2066 1666 2214 1570 
Q 2363 1475 2448 1329 
Q 2534 1184 2534 997 
Q 2534 759 2401 528 
Q 2269 297 2075 159 
Q 1734 -72 1241 -72 
Q 900 -72 615 84 
Q 331 241 331 550 
Q 331 725 432 854 
Q 534 984 709 984 
Q 813 984 883 921 
Q 953 859 953 756 
Q 953 609 843 500 
Q 734 391 588 391 
L 556 391 
z
" transform="scale(0.015625)"/>
      </defs>
      <use xlink:href="#Cmmi10-73" transform="translate(0 0.8125)"/>
     </g>
    </g>
   </g>
   <g id="matplotlib.axis_2">
    <g id="ytick_1">
     <g id="line2d_13">
      <path d="M 57.6 271.296 
L 414.72 271.296 
" clip-path="url(#pcee7ddf635)" style="fill: none; stroke-dasharray: 1.85,0.8; stroke-dashoffset: 0; stroke: #b2b2b2; stroke-width: 0.5"/>
     </g>
     <g id="line2d_14">
      <defs>
       <path id="m91c43ce323" d="M 0 0 
L 3.5 0 
" style="stroke: #000000; stroke-width: 0.8"/>
      </defs>
      <g>
       <use xlink:href="#m91c43ce323" x="57.6" y="271.296" style="stroke: #000000; stroke-width: 0.8"/>
      </g>
     </g>
     <g id="text_8">
      <!-- 4 -->
      <g transform="translate(39.357813 275.095219) scale(0.1 -0.1)">
       <defs>
        <path id="DejaVuSans-2212" d="M 678 2272 
L 4684 2272 
L 4684 1741 
L 678 1741 
L 678 2272 
z
" transform="scale(0.015625)"/>
        <path id="DejaVuSans-34" d="M 2419 4116 
L 825 1625 
L 2419 1625 
L 2419 4116 
z
M 2253 4666 
L 3047 4666 
L 3047 1625 
L 3713 1625 
L 3713 1100 
L 3047 1100 
L 3047 0 
L 2419 0 
L 2419 1100 
L 313 1100 
L 313 1709 
L 2253 4666 
z
" transform="scale(0.015625)"/>
       </defs>
       <use xlink:href="#DejaVuSans-2212"/>
       <use xlink:href="#DejaVuSans-34" x="83.789062"/>
      </g>
     </g>
    </g>
    <g id="ytick_2">
     <g id="line2d_15">
      <path d="M 57.6 222.912 
L 414.72 222.912 
" clip-path="url(#pcee7ddf635)" style="fill: none; stroke-dasharray: 1.85,0.8; stroke-dashoffset: 0; stroke: #b2b2b2; stroke-width: 0.5"/>
     </g>
     <g id="line2d_16">
      <g>
       <use xlink:href="#m91c43ce323" x="57.6" y="222.912" style="stroke: #000000; stroke-width: 0.8"/>
      </g>
     </g>
     <g id="text_9">
      <!-- 2 -->
      <g transform="translate(39.357813 226.711219) scale(0.1 -0.1)">
       <use xlink:href="#DejaVuSans-2212"/>
       <use xlink:href="#DejaVuSans-32" x="83.789062"/>
      </g>
     </g>
    </g>
    <g id="ytick_3">
     <g id="line2d_17">
      <path d="M 57.6 174.528 
L 414.72 174.528 
" clip-path="url(#pcee7ddf635)" style="fill: none; stroke-dasharray: 1.85,0.8; stroke-dashoffset: 0; stroke: #b2b2b2; stroke-width: 0.5"/>
     </g>
     <g id="line2d_18">
      <g>
       <use xlink:href="#m91c43ce323" x="57.6" y="174.528" style="stroke: #000000; stroke-width: 0.8"/>
      </g>
     </g>
     <g id="text_10">
      <!-- 0 -->
      <g transform="translate(47.7375 178.327219) scale(0.1 -0.1)">
       <use xlink:href="#DejaVuSans-30"/>
      </g>
     </g>
    </g>
    <g id="ytick_4">
     <g id="line2d_19">
      <path d="M 57.6 126.144 
L 414.72 126.144 
" clip-path="url(#pcee7ddf635)" style="fill: none; stroke-dasharray: 1.85,0.8; stroke-dashoffset: 0; stroke: #b2b2b2; stroke-width: 0.5"/>
     </g>
     <g id="line2d_20">
      <g>
       <use xlink:href="#m91c43ce323" x="57.6" y="126.144" style="stroke: #000000; stroke-width: 0.8"/>
      </g>
     </g>
     <g id="text_11">
      <!-- 2 -->
      <g transform="translate(47.7375 129.943219) scale(0.1 -0.1)">
       <use xlink:href="#DejaVuSans-32"/>
      </g>
     </g>
    </g>
    <g id="ytick_5">
     <g id="line2d_21">
      <path d="M 57.6 77.76 
L 414.72 77.76 
" clip-path="url(#pcee7ddf635)" style="fill: none; stroke-dasharray: 1.85,0.8; stroke-dashoffset: 0; stroke: #b2b2b2; stroke-width: 0.5"/>
     </g>
     <g id="line2d_22">
      <g>
       <use xlink:href="#m91c43ce323" x="57.6" y="77.76" style="stroke: #000000; stroke-width: 0.8"/>
      </g>
     </g>
     <g id="text_12">
      <!-- 4 -->
      <g transform="translate(47.7375 81.559219) scale(0.1 -0.1)">
       <use xlink:href="#DejaVuSans-34"/>
      </g>
     </g>
    </g>
    <g id="text_13">
     <!-- $x_{s}$ -->
     <g transform="translate(32.862188 180.348) rotate(-90) scale(0.12 -0.12)">
      <defs>
       <path id="Cmmi10-78" d="M 500 184 
Q 613 97 819 97 
Q 1019 97 1172 289 
Q 1325 481 1381 709 
L 1672 1844 
Q 1741 2153 1741 2266 
Q 1741 2425 1652 2544 
Q 1563 2663 1403 2663 
Q 1200 2663 1022 2536 
Q 844 2409 722 2214 
Q 600 2019 550 1819 
Q 538 1778 500 1778 
L 422 1778 
Q 372 1778 372 1838 
L 372 1856 
Q 434 2094 584 2320 
Q 734 2547 951 2687 
Q 1169 2828 1416 2828 
Q 1650 2828 1839 2703 
Q 2028 2578 2106 2363 
Q 2216 2559 2386 2693 
Q 2556 2828 2759 2828 
Q 2897 2828 3040 2779 
Q 3184 2731 3275 2631 
Q 3366 2531 3366 2381 
Q 3366 2219 3261 2101 
Q 3156 1984 2994 1984 
Q 2891 1984 2822 2050 
Q 2753 2116 2753 2216 
Q 2753 2350 2845 2451 
Q 2938 2553 3066 2572 
Q 2950 2663 2747 2663 
Q 2541 2663 2389 2472 
Q 2238 2281 2175 2047 
L 1894 916 
Q 1825 659 1825 494 
Q 1825 331 1917 214 
Q 2009 97 2163 97 
Q 2463 97 2698 361 
Q 2934 625 3009 941 
Q 3022 978 3059 978 
L 3138 978 
Q 3163 978 3178 961 
Q 3194 944 3194 922 
Q 3194 916 3188 903 
Q 3097 522 2806 225 
Q 2516 -72 2150 -72 
Q 1916 -72 1727 54 
Q 1538 181 1459 397 
Q 1359 209 1182 68 
Q 1006 -72 806 -72 
Q 669 -72 523 -23 
Q 378 25 287 125 
Q 197 225 197 378 
Q 197 528 301 651 
Q 406 775 563 775 
Q 669 775 741 711 
Q 813 647 813 544 
Q 813 409 723 309 
Q 634 209 500 184 
z
" transform="scale(0.015625)"/>
      </defs>
      <use xlink:href="#Cmmi10-78" transform="translate(0 0.8125)"/>
      <use xlink:href="#Cmmi10-73" transform="translate(57.080078 -16.19375) scale(0.7)"/>
     </g>
    </g>
   </g>
   <g id="LineCollection_1">
    <path d="M 241.197743 295.488 
L 241.197743 53.568 
" clip-path="url(#pcee7ddf635)" style="fill: none; stroke-dasharray: 7.4,3.2; stroke-dashoffset: 0; stroke: #ff0000; stroke-width: 2"/>
   </g>
   <g id="LineCollection_2">
    <path d="M 78.030846 88.995656 
L 86.427085 88.995656 
" clip-path="url(#pcee7ddf635)" style="fill: none; stroke: #348abd; stroke-width: 2"/>
    <path d="M 106.018307 104.622488 
L 114.414545 104.622488 
" clip-path="url(#pcee7ddf635)" style="fill: none; stroke: #348abd; stroke-width: 2"/>
    <path d="M 134.005768 118.36759 
L 142.402006 118.36759 
" clip-path="url(#pcee7ddf635)" style="fill: none; stroke: #348abd; stroke-width: 2"/>
    <path d="M 161.993229 130.892823 
L 170.389467 130.892823 
" clip-path="url(#pcee7ddf635)" style="fill: none; stroke: #348abd; stroke-width: 2"/>
    <path d="M 189.98069 139.957416 
L 198.376928 139.957416 
" clip-path="url(#pcee7ddf635)" style="fill: none; stroke: #348abd; stroke-width: 2"/>
    <path d="M 217.96815 146.438387 
L 226.364389 146.438387 
" clip-path="url(#pcee7ddf635)" style="fill: none; stroke: #348abd; stroke-width: 2"/>
    <path d="M 245.955611 151.125661 
L 254.35185 151.125661 
" clip-path="url(#pcee7ddf635)" style="fill: none; stroke: #348abd; stroke-width: 2"/>
    <path d="M 273.943072 154.539275 
L 282.33931 154.539275 
" clip-path="url(#pcee7ddf635)" style="fill: none; stroke: #348abd; stroke-width: 2"/>
    <path d="M 301.930533 157.232797 
L 310.326771 157.232797 
" clip-path="url(#pcee7ddf635)" style="fill: none; stroke: #348abd; stroke-width: 2"/>
    <path d="M 329.917994 159.781066 
L 338.314232 159.781066 
" clip-path="url(#pcee7ddf635)" style="fill: none; stroke: #348abd; stroke-width: 2"/>
    <path d="M 357.905455 161.925176 
L 366.301693 161.925176 
" clip-path="url(#pcee7ddf635)" style="fill: none; stroke: #348abd; stroke-width: 2"/>
    <path d="M 385.892915 163.674121 
L 394.289154 163.674121 
" clip-path="url(#pcee7ddf635)" style="fill: none; stroke: #348abd; stroke-width: 2"/>
   </g>
   <g id="LineCollection_3">
    <path d="M 78.030846 252.897783 
L 86.427085 252.897783 
" clip-path="url(#pcee7ddf635)" style="fill: none; stroke: #348abd; stroke-width: 2"/>
    <path d="M 106.018307 232.213338 
L 114.414545 232.213338 
" clip-path="url(#pcee7ddf635)" style="fill: none; stroke: #348abd; stroke-width: 2"/>
    <path d="M 134.005768 218.367542 
L 142.402006 218.367542 
" clip-path="url(#pcee7ddf635)" style="fill: none; stroke: #348abd; stroke-width: 2"/>
    <path d="M 161.993229 208.245021 
L 170.389467 208.245021 
" clip-path="url(#pcee7ddf635)" style="fill: none; stroke: #348abd; stroke-width: 2"/>
    <path d="M 189.98069 200.62594 
L 198.376928 200.62594 
" clip-path="url(#pcee7ddf635)" style="fill: none; stroke: #348abd; stroke-width: 2"/>
    <path d="M 217.96815 194.743983 
L 226.364389 194.743983 
" clip-path="url(#pcee7ddf635)" style="fill: none; stroke: #348abd; stroke-width: 2"/>
    <path d="M 245.955611 190.096477 
L 254.35185 190.096477 
" clip-path="url(#pcee7ddf635)" style="fill: none; stroke: #348abd; stroke-width: 2"/>
    <path d="M 273.943072 186.347418 
L 282.33931 186.347418 
" clip-path="url(#pcee7ddf635)" style="fill: none; stroke: #348abd; stroke-width: 2"/>
    <path d="M 301.930533 183.270268 
L 310.326771 183.270268 
" clip-path="url(#pcee7ddf635)" style="fill: none; stroke: #348abd; stroke-width: 2"/>
    <path d="M 329.917994 180.712022 
L 338.314232 180.712022 
" clip-path="url(#pcee7ddf635)" style="fill: none; stroke: #348abd; stroke-width: 2"/>
    <path d="M 357.905455 178.569441 
L 366.301693 178.569441 
" clip-path="url(#pcee7ddf635)" style="fill: none; stroke: #348abd; stroke-width: 2"/>
    <path d="M 385.892915 176.772481 
L 394.289154 176.772481 
" clip-path="url(#pcee7ddf635)" style="fill: none; stroke: #348abd; stroke-width: 2"/>
   </g>
   <g id="LineCollection_4">
    <path d="M 82.228966 252.897783 
L 82.228966 88.995656 
" clip-path="url(#pcee7ddf635)" style="fill: none; stroke: #348abd; stroke-width: 2"/>
    <path d="M 110.216426 232.213338 
L 110.216426 104.622488 
" clip-path="url(#pcee7ddf635)" style="fill: none; stroke: #348abd; stroke-width: 2"/>
    <path d="M 138.203887 218.367542 
L 138.203887 118.36759 
" clip-path="url(#pcee7ddf635)" style="fill: none; stroke: #348abd; stroke-width: 2"/>
    <path d="M 166.191348 208.245021 
L 166.191348 130.892823 
" clip-path="url(#pcee7ddf635)" style="fill: none; stroke: #348abd; stroke-width: 2"/>
    <path d="M 194.178809 200.62594 
L 194.178809 139.957416 
" clip-path="url(#pcee7ddf635)" style="fill: none; stroke: #348abd; stroke-width: 2"/>
    <path d="M 222.16627 194.743983 
L 222.16627 146.438387 
" clip-path="url(#pcee7ddf635)" style="fill: none; stroke: #348abd; stroke-width: 2"/>
    <path d="M 250.15373 190.096477 
L 250.15373 151.125661 
" clip-path="url(#pcee7ddf635)" style="fill: none; stroke: #348abd; stroke-width: 2"/>
    <path d="M 278.141191 186.347418 
L 278.141191 154.539275 
" clip-path="url(#pcee7ddf635)" style="fill: none; stroke: #348abd; stroke-width: 2"/>
    <path d="M 306.128652 183.270268 
L 306.128652 157.232797 
" clip-path="url(#pcee7ddf635)" style="fill: none; stroke: #348abd; stroke-width: 2"/>
    <path d="M 334.116113 180.712022 
L 334.116113 159.781066 
" clip-path="url(#pcee7ddf635)" style="fill: none; stroke: #348abd; stroke-width: 2"/>
    <path d="M 362.103574 178.569441 
L 362.103574 161.925176 
" clip-path="url(#pcee7ddf635)" style="fill: none; stroke: #348abd; stroke-width: 2"/>
    <path d="M 390.091034 176.772481 
L 390.091034 163.674121 
" clip-path="url(#pcee7ddf635)" style="fill: none; stroke: #348abd; stroke-width: 2"/>
   </g>
   <g id="patch_3">
    <path d="M 57.6 307.584 
L 57.6 41.472 
" style="fill: none; stroke: #bcbcbc; stroke-width: 0.8; stroke-linejoin: miter; stroke-linecap: square"/>
   </g>
   <g id="patch_4">
    <path d="M 414.72 307.584 
L 414.72 41.472 
" style="fill: none; stroke: #bcbcbc; stroke-width: 0.8; stroke-linejoin: miter; stroke-linecap: square"/>
   </g>
   <g id="patch_5">
    <path d="M 57.6 307.584 
L 414.72 307.584 
" style="fill: none; stroke: #bcbcbc; stroke-width: 0.8; stroke-linejoin: miter; stroke-linecap: square"/>
   </g>
   <g id="patch_6">
    <path d="M 57.6 41.472 
L 414.72 41.472 
" style="fill: none; stroke: #bcbcbc; stroke-width: 0.8; stroke-linejoin: miter; stroke-linecap: square"/>
   </g>
   <g id="text_14">
    <!-- Violin plot of critical time n = 5000 -->
    <g transform="translate(110.370375 35.472) scale(0.144 -0.144)">
     <defs>
      <path id="DejaVuSans-56" d="M 1831 0 
L 50 4666 
L 709 4666 
L 2188 738 
L 3669 4666 
L 4325 4666 
L 2547 0 
L 1831 0 
z
" transform="scale(0.015625)"/>
      <path id="DejaVuSans-69" d="M 603 3500 
L 1178 3500 
L 1178 0 
L 603 0 
L 603 3500 
z
M 603 4863 
L 1178 4863 
L 1178 4134 
L 603 4134 
L 603 4863 
z
" transform="scale(0.015625)"/>
      <path id="DejaVuSans-6f" d="M 1959 3097 
Q 1497 3097 1228 2736 
Q 959 2375 959 1747 
Q 959 1119 1226 758 
Q 1494 397 1959 397 
Q 2419 397 2687 759 
Q 2956 1122 2956 1747 
Q 2956 2369 2687 2733 
Q 2419 3097 1959 3097 
z
M 1959 3584 
Q 2709 3584 3137 3096 
Q 3566 2609 3566 1747 
Q 3566 888 3137 398 
Q 2709 -91 1959 -91 
Q 1206 -91 779 398 
Q 353 888 353 1747 
Q 353 2609 779 3096 
Q 1206 3584 1959 3584 
z
" transform="scale(0.015625)"/>
      <path id="DejaVuSans-6c" d="M 603 4863 
L 1178 4863 
L 1178 0 
L 603 0 
L 603 4863 
z
" transform="scale(0.015625)"/>
      <path id="DejaVuSans-6e" d="M 3513 2113 
L 3513 0 
L 2938 0 
L 2938 2094 
Q 2938 2591 2744 2837 
Q 2550 3084 2163 3084 
Q 1697 3084 1428 2787 
Q 1159 2491 1159 1978 
L 1159 0 
L 581 0 
L 581 3500 
L 1159 3500 
L 1159 2956 
Q 1366 3272 1645 3428 
Q 1925 3584 2291 3584 
Q 2894 3584 3203 3211 
Q 3513 2838 3513 2113 
z
" transform="scale(0.015625)"/>
      <path id="DejaVuSans-20" transform="scale(0.015625)"/>
      <path id="DejaVuSans-70" d="M 1159 525 
L 1159 -1331 
L 581 -1331 
L 581 3500 
L 1159 3500 
L 1159 2969 
Q 1341 3281 1617 3432 
Q 1894 3584 2278 3584 
Q 2916 3584 3314 3078 
Q 3713 2572 3713 1747 
Q 3713 922 3314 415 
Q 2916 -91 2278 -91 
Q 1894 -91 1617 61 
Q 1341 213 1159 525 
z
M 3116 1747 
Q 3116 2381 2855 2742 
Q 2594 3103 2138 3103 
Q 1681 3103 1420 2742 
Q 1159 2381 1159 1747 
Q 1159 1113 1420 752 
Q 1681 391 2138 391 
Q 2594 391 2855 752 
Q 3116 1113 3116 1747 
z
" transform="scale(0.015625)"/>
      <path id="DejaVuSans-74" d="M 1172 4494 
L 1172 3500 
L 2356 3500 
L 2356 3053 
L 1172 3053 
L 1172 1153 
Q 1172 725 1289 603 
Q 1406 481 1766 481 
L 2356 481 
L 2356 0 
L 1766 0 
Q 1100 0 847 248 
Q 594 497 594 1153 
L 594 3053 
L 172 3053 
L 172 3500 
L 594 3500 
L 594 4494 
L 1172 4494 
z
" transform="scale(0.015625)"/>
      <path id="DejaVuSans-66" d="M 2375 4863 
L 2375 4384 
L 1825 4384 
Q 1516 4384 1395 4259 
Q 1275 4134 1275 3809 
L 1275 3500 
L 2222 3500 
L 2222 3053 
L 1275 3053 
L 1275 0 
L 697 0 
L 697 3053 
L 147 3053 
L 147 3500 
L 697 3500 
L 697 3744 
Q 697 4328 969 4595 
Q 1241 4863 1831 4863 
L 2375 4863 
z
" transform="scale(0.015625)"/>
      <path id="DejaVuSans-63" d="M 3122 3366 
L 3122 2828 
Q 2878 2963 2633 3030 
Q 2388 3097 2138 3097 
Q 1578 3097 1268 2742 
Q 959 2388 959 1747 
Q 959 1106 1268 751 
Q 1578 397 2138 397 
Q 2388 397 2633 464 
Q 2878 531 3122 666 
L 3122 134 
Q 2881 22 2623 -34 
Q 2366 -91 2075 -91 
Q 1284 -91 818 406 
Q 353 903 353 1747 
Q 353 2603 823 3093 
Q 1294 3584 2113 3584 
Q 2378 3584 2631 3529 
Q 2884 3475 3122 3366 
z
" transform="scale(0.015625)"/>
      <path id="DejaVuSans-72" d="M 2631 2963 
Q 2534 3019 2420 3045 
Q 2306 3072 2169 3072 
Q 1681 3072 1420 2755 
Q 1159 2438 1159 1844 
L 1159 0 
L 581 0 
L 581 3500 
L 1159 3500 
L 1159 2956 
Q 1341 3275 1631 3429 
Q 1922 3584 2338 3584 
Q 2397 3584 2469 3576 
Q 2541 3569 2628 3553 
L 2631 2963 
z
" transform="scale(0.015625)"/>
      <path id="DejaVuSans-61" d="M 2194 1759 
Q 1497 1759 1228 1600 
Q 959 1441 959 1056 
Q 959 750 1161 570 
Q 1363 391 1709 391 
Q 2188 391 2477 730 
Q 2766 1069 2766 1631 
L 2766 1759 
L 2194 1759 
z
M 3341 1997 
L 3341 0 
L 2766 0 
L 2766 531 
Q 2569 213 2275 61 
Q 1981 -91 1556 -91 
Q 1019 -91 701 211 
Q 384 513 384 1019 
Q 384 1609 779 1909 
Q 1175 2209 1959 2209 
L 2766 2209 
L 2766 2266 
Q 2766 2663 2505 2880 
Q 2244 3097 1772 3097 
Q 1472 3097 1187 3025 
Q 903 2953 641 2809 
L 641 3341 
Q 956 3463 1253 3523 
Q 1550 3584 1831 3584 
Q 2591 3584 2966 3190 
Q 3341 2797 3341 1997 
z
" transform="scale(0.015625)"/>
      <path id="DejaVuSans-6d" d="M 3328 2828 
Q 3544 3216 3844 3400 
Q 4144 3584 4550 3584 
Q 5097 3584 5394 3201 
Q 5691 2819 5691 2113 
L 5691 0 
L 5113 0 
L 5113 2094 
Q 5113 2597 4934 2840 
Q 4756 3084 4391 3084 
Q 3944 3084 3684 2787 
Q 3425 2491 3425 1978 
L 3425 0 
L 2847 0 
L 2847 2094 
Q 2847 2600 2669 2842 
Q 2491 3084 2119 3084 
Q 1678 3084 1418 2786 
Q 1159 2488 1159 1978 
L 1159 0 
L 581 0 
L 581 3500 
L 1159 3500 
L 1159 2956 
Q 1356 3278 1631 3431 
Q 1906 3584 2284 3584 
Q 2666 3584 2933 3390 
Q 3200 3197 3328 2828 
z
" transform="scale(0.015625)"/>
      <path id="DejaVuSans-65" d="M 3597 1894 
L 3597 1613 
L 953 1613 
Q 991 1019 1311 708 
Q 1631 397 2203 397 
Q 2534 397 2845 478 
Q 3156 559 3463 722 
L 3463 178 
Q 3153 47 2828 -22 
Q 2503 -91 2169 -91 
Q 1331 -91 842 396 
Q 353 884 353 1716 
Q 353 2575 817 3079 
Q 1281 3584 2069 3584 
Q 2775 3584 3186 3129 
Q 3597 2675 3597 1894 
z
M 3022 2063 
Q 3016 2534 2758 2815 
Q 2500 3097 2075 3097 
Q 1594 3097 1305 2825 
Q 1016 2553 972 2059 
L 3022 2063 
z
" transform="scale(0.015625)"/>
      <path id="DejaVuSans-3d" d="M 678 2906 
L 4684 2906 
L 4684 2381 
L 678 2381 
L 678 2906 
z
M 678 1631 
L 4684 1631 
L 4684 1100 
L 678 1100 
L 678 1631 
z
" transform="scale(0.015625)"/>
     </defs>
     <use xlink:href="#DejaVuSans-56"/>
     <use xlink:href="#DejaVuSans-69" x="66.158203"/>
     <use xlink:href="#DejaVuSans-6f" x="93.941406"/>
     <use xlink:href="#DejaVuSans-6c" x="155.123047"/>
     <use xlink:href="#DejaVuSans-69" x="182.90625"/>
     <use xlink:href="#DejaVuSans-6e" x="210.689453"/>
     <use xlink:href="#DejaVuSans-20" x="274.068359"/>
     <use xlink:href="#DejaVuSans-70" x="305.855469"/>
     <use xlink:href="#DejaVuSans-6c" x="369.332031"/>
     <use xlink:href="#DejaVuSans-6f" x="397.115234"/>
     <use xlink:href="#DejaVuSans-74" x="458.296875"/>
     <use xlink:href="#DejaVuSans-20" x="497.505859"/>
     <use xlink:href="#DejaVuSans-6f" x="529.292969"/>
     <use xlink:href="#DejaVuSans-66" x="590.474609"/>
     <use xlink:href="#DejaVuSans-20" x="625.679688"/>
     <use xlink:href="#DejaVuSans-63" x="657.466797"/>
     <use xlink:href="#DejaVuSans-72" x="712.447266"/>
     <use xlink:href="#DejaVuSans-69" x="753.560547"/>
     <use xlink:href="#DejaVuSans-74" x="781.34375"/>
     <use xlink:href="#DejaVuSans-69" x="820.552734"/>
     <use xlink:href="#DejaVuSans-63" x="848.335938"/>
     <use xlink:href="#DejaVuSans-61" x="903.316406"/>
     <use xlink:href="#DejaVuSans-6c" x="964.595703"/>
     <use xlink:href="#DejaVuSans-20" x="992.378906"/>
     <use xlink:href="#DejaVuSans-74" x="1024.166016"/>
     <use xlink:href="#DejaVuSans-69" x="1063.375"/>
     <use xlink:href="#DejaVuSans-6d" x="1091.158203"/>
     <use xlink:href="#DejaVuSans-65" x="1188.570312"/>
     <use xlink:href="#DejaVuSans-20" x="1250.09375"/>
     <use xlink:href="#DejaVuSans-6e" x="1281.880859"/>
     <use xlink:href="#DejaVuSans-20" x="1345.259766"/>
     <use xlink:href="#DejaVuSans-3d" x="1377.046875"/>
     <use xlink:href="#DejaVuSans-20" x="1460.835938"/>
     <use xlink:href="#DejaVuSans-35" x="1492.623047"/>
     <use xlink:href="#DejaVuSans-30" x="1556.246094"/>
     <use xlink:href="#DejaVuSans-30" x="1619.869141"/>
     <use xlink:href="#DejaVuSans-30" x="1683.492188"/>
    </g>
   </g>
   <g id="legend_1">
    <g id="patch_7">
     <path d="M 296.806875 68.68575 
L 406.32 68.68575 
Q 408.72 68.68575 408.72 66.28575 
L 408.72 49.872 
Q 408.72 47.472 406.32 47.472 
L 296.806875 47.472 
Q 294.406875 47.472 294.406875 49.872 
L 294.406875 66.28575 
Q 294.406875 68.68575 296.806875 68.68575 
z
" style="fill: #eeeeee; opacity: 0.8; stroke: #cccccc; stroke-width: 0.5; stroke-linejoin: miter"/>
    </g>
    <g id="line2d_23">
     <path d="M 299.206875 57.190125 
L 323.206875 57.190125 
" style="fill: none; stroke-dasharray: 7.4,3.2; stroke-dashoffset: 0; stroke: #ff0000; stroke-width: 2"/>
    </g>
    <g id="text_15">
     <!-- critical time -->
     <g transform="translate(332.806875 61.390125) scale(0.12 -0.12)">
      <use xlink:href="#DejaVuSans-63"/>
      <use xlink:href="#DejaVuSans-72" x="54.980469"/>
      <use xlink:href="#DejaVuSans-69" x="96.09375"/>
      <use xlink:href="#DejaVuSans-74" x="123.876953"/>
      <use xlink:href="#DejaVuSans-69" x="163.085938"/>
      <use xlink:href="#DejaVuSans-63" x="190.869141"/>
      <use xlink:href="#DejaVuSans-61" x="245.849609"/>
      <use xlink:href="#DejaVuSans-6c" x="307.128906"/>
      <use xlink:href="#DejaVuSans-20" x="334.912109"/>
      <use xlink:href="#DejaVuSans-74" x="366.699219"/>
      <use xlink:href="#DejaVuSans-69" x="405.908203"/>
      <use xlink:href="#DejaVuSans-6d" x="433.691406"/>
      <use xlink:href="#DejaVuSans-65" x="531.103516"/>
     </g>
    </g>
   </g>
  </g>
 </g>
 <defs>
  <clipPath id="pcee7ddf635">
   <rect x="57.6" y="41.472" width="357.12" height="266.112"/>
  </clipPath>
 </defs>
</svg>
