<?xml version="1.0" encoding="utf-8" standalone="no"?>
<!DOCTYPE svg PUBLIC "-//W3C//DTD SVG 1.1//EN"
  "http://www.w3.org/Graphics/SVG/1.1/DTD/svg11.dtd">
<svg xmlns:xlink="http://www.w3.org/1999/xlink" width="460.8pt" height="345.6pt" viewBox="0 0 460.8 345.6" xmlns="http://www.w3.org/2000/svg" version="1.1">
 <metadata>
  <rdf:RDF xmlns:dc="http://purl.org/dc/elements/1.1/" xmlns:cc="http://creativecommons.org/ns#" xmlns:rdf="http://www.w3.org/1999/02/22-rdf-syntax-ns#">
   <cc:Work>
    <dc:type rdf:resource="http://purl.org/dc/dcmitype/StillImage"/>
    <dc:date>2025-08-22T10:54:49.763000</dc:date>
    <dc:format>image/svg+xml</dc:format>
    <dc:creator>
     <cc:Agent>
      <dc:title>Matplotlib v3.9.2, https://matplotlib.org/</dc:title>
     </cc:Agent>
    </dc:creator>
   </cc:Work>
  </rdf:RDF>
 </metadata>
 <defs>
  <style type="text/css">*{stroke-linejoin: round; stroke-linecap: butt}</style>
 </defs>
 <g id="figure_1">
  <g id="patch_1">
   <path d="M 0 345.6 
L 460.8 345.6 
L 460.8 0 
L 0 0 
z
" style="fill: #ffffff"/>
  </g>
  <g id="axes_1">
   <g id="patch_2">
    <path d="M 57.6 307.584 
L 414.72 307.584 
L 414.72 41.472 
L 57.6 41.472 
z
" style="fill: #eeeeee"/>
   </g>
   <g id="matplotlib.axis_1">
    <g id="xtick_1">
     <g id="line2d_1">
      <path d="M 73.832727 307.584 
L 73.832727 41.472 
" clip-path="url(#p39dd7c0f7d)" style="fill: none; stroke-dasharray: 1.85,0.8; stroke-dashoffset: 0; stroke: #b2b2b2; stroke-width: 0.5"/>
     </g>
     <g id="line2d_2">
      <defs>
       <path id="mbf6be2e1a2" d="M 0 0 
L 0 -3.5 
" style="stroke: #000000; stroke-width: 0.8"/>
      </defs>
      <g>
       <use xlink:href="#mbf6be2e1a2" x="73.832727" y="307.584" style="stroke: #000000; stroke-width: 0.8"/>
      </g>
     </g>
     <g id="text_1">
      <!-- 0 -->
      <g transform="translate(70.651477 318.682437) scale(0.1 -0.1)">
       <defs>
        <path id="DejaVuSans-30" d="M 2034 4250 
Q 1547 4250 1301 3770 
Q 1056 3291 1056 2328 
Q 1056 1369 1301 889 
Q 1547 409 2034 409 
Q 2525 409 2770 889 
Q 3016 1369 3016 2328 
Q 3016 3291 2770 3770 
Q 2525 4250 2034 4250 
z
M 2034 4750 
Q 2819 4750 3233 4129 
Q 3647 3509 3647 2328 
Q 3647 1150 3233 529 
Q 2819 -91 2034 -91 
Q 1250 -91 836 529 
Q 422 1150 422 2328 
Q 422 3509 836 4129 
Q 1250 4750 2034 4750 
z
" transform="scale(0.015625)"/>
       </defs>
       <use xlink:href="#DejaVuSans-30"/>
      </g>
     </g>
    </g>
    <g id="xtick_2">
     <g id="line2d_3">
      <path d="M 128.122785 307.584 
L 128.122785 41.472 
" clip-path="url(#p39dd7c0f7d)" style="fill: none; stroke-dasharray: 1.85,0.8; stroke-dashoffset: 0; stroke: #b2b2b2; stroke-width: 0.5"/>
     </g>
     <g id="line2d_4">
      <g>
       <use xlink:href="#mbf6be2e1a2" x="128.122785" y="307.584" style="stroke: #000000; stroke-width: 0.8"/>
      </g>
     </g>
     <g id="text_2">
      <!-- 50 -->
      <g transform="translate(121.760285 318.682437) scale(0.1 -0.1)">
       <defs>
        <path id="DejaVuSans-35" d="M 691 4666 
L 3169 4666 
L 3169 4134 
L 1269 4134 
L 1269 2991 
Q 1406 3038 1543 3061 
Q 1681 3084 1819 3084 
Q 2600 3084 3056 2656 
Q 3513 2228 3513 1497 
Q 3513 744 3044 326 
Q 2575 -91 1722 -91 
Q 1428 -91 1123 -41 
Q 819 9 494 109 
L 494 744 
Q 775 591 1075 516 
Q 1375 441 1709 441 
Q 2250 441 2565 725 
Q 2881 1009 2881 1497 
Q 2881 1984 2565 2268 
Q 2250 2553 1709 2553 
Q 1456 2553 1204 2497 
Q 953 2441 691 2322 
L 691 4666 
z
" transform="scale(0.015625)"/>
       </defs>
       <use xlink:href="#DejaVuSans-35"/>
       <use xlink:href="#DejaVuSans-30" x="63.623047"/>
      </g>
     </g>
    </g>
    <g id="xtick_3">
     <g id="line2d_5">
      <path d="M 182.412843 307.584 
L 182.412843 41.472 
" clip-path="url(#p39dd7c0f7d)" style="fill: none; stroke-dasharray: 1.85,0.8; stroke-dashoffset: 0; stroke: #b2b2b2; stroke-width: 0.5"/>
     </g>
     <g id="line2d_6">
      <g>
       <use xlink:href="#mbf6be2e1a2" x="182.412843" y="307.584" style="stroke: #000000; stroke-width: 0.8"/>
      </g>
     </g>
     <g id="text_3">
      <!-- 100 -->
      <g transform="translate(172.869093 318.682437) scale(0.1 -0.1)">
       <defs>
        <path id="DejaVuSans-31" d="M 794 531 
L 1825 531 
L 1825 4091 
L 703 3866 
L 703 4441 
L 1819 4666 
L 2450 4666 
L 2450 531 
L 3481 531 
L 3481 0 
L 794 0 
L 794 531 
z
" transform="scale(0.015625)"/>
       </defs>
       <use xlink:href="#DejaVuSans-31"/>
       <use xlink:href="#DejaVuSans-30" x="63.623047"/>
       <use xlink:href="#DejaVuSans-30" x="127.246094"/>
      </g>
     </g>
    </g>
    <g id="xtick_4">
     <g id="line2d_7">
      <path d="M 236.702901 307.584 
L 236.702901 41.472 
" clip-path="url(#p39dd7c0f7d)" style="fill: none; stroke-dasharray: 1.85,0.8; stroke-dashoffset: 0; stroke: #b2b2b2; stroke-width: 0.5"/>
     </g>
     <g id="line2d_8">
      <g>
       <use xlink:href="#mbf6be2e1a2" x="236.702901" y="307.584" style="stroke: #000000; stroke-width: 0.8"/>
      </g>
     </g>
     <g id="text_4">
      <!-- 150 -->
      <g transform="translate(227.159151 318.682437) scale(0.1 -0.1)">
       <use xlink:href="#DejaVuSans-31"/>
       <use xlink:href="#DejaVuSans-35" x="63.623047"/>
       <use xlink:href="#DejaVuSans-30" x="127.246094"/>
      </g>
     </g>
    </g>
    <g id="xtick_5">
     <g id="line2d_9">
      <path d="M 290.992958 307.584 
L 290.992958 41.472 
" clip-path="url(#p39dd7c0f7d)" style="fill: none; stroke-dasharray: 1.85,0.8; stroke-dashoffset: 0; stroke: #b2b2b2; stroke-width: 0.5"/>
     </g>
     <g id="line2d_10">
      <g>
       <use xlink:href="#mbf6be2e1a2" x="290.992958" y="307.584" style="stroke: #000000; stroke-width: 0.8"/>
      </g>
     </g>
     <g id="text_5">
      <!-- 200 -->
      <g transform="translate(281.449208 318.682437) scale(0.1 -0.1)">
       <defs>
        <path id="DejaVuSans-32" d="M 1228 531 
L 3431 531 
L 3431 0 
L 469 0 
L 469 531 
Q 828 903 1448 1529 
Q 2069 2156 2228 2338 
Q 2531 2678 2651 2914 
Q 2772 3150 2772 3378 
Q 2772 3750 2511 3984 
Q 2250 4219 1831 4219 
Q 1534 4219 1204 4116 
Q 875 4013 500 3803 
L 500 4441 
Q 881 4594 1212 4672 
Q 1544 4750 1819 4750 
Q 2544 4750 2975 4387 
Q 3406 4025 3406 3419 
Q 3406 3131 3298 2873 
Q 3191 2616 2906 2266 
Q 2828 2175 2409 1742 
Q 1991 1309 1228 531 
z
" transform="scale(0.015625)"/>
       </defs>
       <use xlink:href="#DejaVuSans-32"/>
       <use xlink:href="#DejaVuSans-30" x="63.623047"/>
       <use xlink:href="#DejaVuSans-30" x="127.246094"/>
      </g>
     </g>
    </g>
    <g id="xtick_6">
     <g id="line2d_11">
      <path d="M 345.283016 307.584 
L 345.283016 41.472 
" clip-path="url(#p39dd7c0f7d)" style="fill: none; stroke-dasharray: 1.85,0.8; stroke-dashoffset: 0; stroke: #b2b2b2; stroke-width: 0.5"/>
     </g>
     <g id="line2d_12">
      <g>
       <use xlink:href="#mbf6be2e1a2" x="345.283016" y="307.584" style="stroke: #000000; stroke-width: 0.8"/>
      </g>
     </g>
     <g id="text_6">
      <!-- 250 -->
      <g transform="translate(335.739266 318.682437) scale(0.1 -0.1)">
       <use xlink:href="#DejaVuSans-32"/>
       <use xlink:href="#DejaVuSans-35" x="63.623047"/>
       <use xlink:href="#DejaVuSans-30" x="127.246094"/>
      </g>
     </g>
    </g>
    <g id="xtick_7">
     <g id="line2d_13">
      <path d="M 399.573074 307.584 
L 399.573074 41.472 
" clip-path="url(#p39dd7c0f7d)" style="fill: none; stroke-dasharray: 1.85,0.8; stroke-dashoffset: 0; stroke: #b2b2b2; stroke-width: 0.5"/>
     </g>
     <g id="line2d_14">
      <g>
       <use xlink:href="#mbf6be2e1a2" x="399.573074" y="307.584" style="stroke: #000000; stroke-width: 0.8"/>
      </g>
     </g>
     <g id="text_7">
      <!-- 300 -->
      <g transform="translate(390.029324 318.682437) scale(0.1 -0.1)">
       <defs>
        <path id="DejaVuSans-33" d="M 2597 2516 
Q 3050 2419 3304 2112 
Q 3559 1806 3559 1356 
Q 3559 666 3084 287 
Q 2609 -91 1734 -91 
Q 1441 -91 1130 -33 
Q 819 25 488 141 
L 488 750 
Q 750 597 1062 519 
Q 1375 441 1716 441 
Q 2309 441 2620 675 
Q 2931 909 2931 1356 
Q 2931 1769 2642 2001 
Q 2353 2234 1838 2234 
L 1294 2234 
L 1294 2753 
L 1863 2753 
Q 2328 2753 2575 2939 
Q 2822 3125 2822 3475 
Q 2822 3834 2567 4026 
Q 2313 4219 1838 4219 
Q 1578 4219 1281 4162 
Q 984 4106 628 3988 
L 628 4550 
Q 988 4650 1302 4700 
Q 1616 4750 1894 4750 
Q 2613 4750 3031 4423 
Q 3450 4097 3450 3541 
Q 3450 3153 3228 2886 
Q 3006 2619 2597 2516 
z
" transform="scale(0.015625)"/>
       </defs>
       <use xlink:href="#DejaVuSans-33"/>
       <use xlink:href="#DejaVuSans-30" x="63.623047"/>
       <use xlink:href="#DejaVuSans-30" x="127.246094"/>
      </g>
     </g>
    </g>
    <g id="text_8">
     <!-- $s$ -->
     <g transform="translate(233.34 333.88025) scale(0.12 -0.12)">
      <defs>
       <path id="Cmmi10-73" d="M 556 391 
Q 728 97 1247 97 
Q 1472 97 1675 173 
Q 1878 250 2011 403 
Q 2144 556 2144 775 
Q 2144 941 2025 1047 
Q 1906 1153 1734 1191 
L 1388 1259 
Q 1150 1319 997 1481 
Q 844 1644 844 1875 
Q 844 2159 998 2378 
Q 1153 2597 1406 2712 
Q 1659 2828 1931 2828 
Q 2222 2828 2451 2689 
Q 2681 2550 2681 2278 
Q 2681 2131 2598 2018 
Q 2516 1906 2369 1906 
Q 2284 1906 2223 1961 
Q 2163 2016 2163 2100 
Q 2163 2175 2205 2245 
Q 2247 2316 2317 2358 
Q 2388 2400 2463 2400 
Q 2406 2538 2251 2600 
Q 2097 2663 1919 2663 
Q 1756 2663 1593 2597 
Q 1431 2531 1332 2404 
Q 1234 2278 1234 2106 
Q 1234 1991 1315 1903 
Q 1397 1816 1516 1778 
L 1888 1703 
Q 2066 1666 2214 1570 
Q 2363 1475 2448 1329 
Q 2534 1184 2534 997 
Q 2534 759 2401 528 
Q 2269 297 2075 159 
Q 1734 -72 1241 -72 
Q 900 -72 615 84 
Q 331 241 331 550 
Q 331 725 432 854 
Q 534 984 709 984 
Q 813 984 883 921 
Q 953 859 953 756 
Q 953 609 843 500 
Q 734 391 588 391 
L 556 391 
z
" transform="scale(0.015625)"/>
      </defs>
      <use xlink:href="#Cmmi10-73" transform="translate(0 0.8125)"/>
     </g>
    </g>
   </g>
   <g id="matplotlib.axis_2">
    <g id="ytick_1">
     <g id="line2d_15">
      <path d="M 57.6 271.296 
L 414.72 271.296 
" clip-path="url(#p39dd7c0f7d)" style="fill: none; stroke-dasharray: 1.85,0.8; stroke-dashoffset: 0; stroke: #b2b2b2; stroke-width: 0.5"/>
     </g>
     <g id="line2d_16">
      <defs>
       <path id="m227cf49472" d="M 0 0 
L 3.5 0 
" style="stroke: #000000; stroke-width: 0.8"/>
      </defs>
      <g>
       <use xlink:href="#m227cf49472" x="57.6" y="271.296" style="stroke: #000000; stroke-width: 0.8"/>
      </g>
     </g>
     <g id="text_9">
      <!-- −4 -->
      <g transform="translate(39.357813 275.095219) scale(0.1 -0.1)">
       <defs>
        <path id="DejaVuSans-2212" d="M 678 2272 
L 4684 2272 
L 4684 1741 
L 678 1741 
L 678 2272 
z
" transform="scale(0.015625)"/>
        <path id="DejaVuSans-34" d="M 2419 4116 
L 825 1625 
L 2419 1625 
L 2419 4116 
z
M 2253 4666 
L 3047 4666 
L 3047 1625 
L 3713 1625 
L 3713 1100 
L 3047 1100 
L 3047 0 
L 2419 0 
L 2419 1100 
L 313 1100 
L 313 1709 
L 2253 4666 
z
" transform="scale(0.015625)"/>
       </defs>
       <use xlink:href="#DejaVuSans-2212"/>
       <use xlink:href="#DejaVuSans-34" x="83.789062"/>
      </g>
     </g>
    </g>
    <g id="ytick_2">
     <g id="line2d_17">
      <path d="M 57.6 222.912 
L 414.72 222.912 
" clip-path="url(#p39dd7c0f7d)" style="fill: none; stroke-dasharray: 1.85,0.8; stroke-dashoffset: 0; stroke: #b2b2b2; stroke-width: 0.5"/>
     </g>
     <g id="line2d_18">
      <g>
       <use xlink:href="#m227cf49472" x="57.6" y="222.912" style="stroke: #000000; stroke-width: 0.8"/>
      </g>
     </g>
     <g id="text_10">
      <!-- −2 -->
      <g transform="translate(39.357813 226.711219) scale(0.1 -0.1)">
       <use xlink:href="#DejaVuSans-2212"/>
       <use xlink:href="#DejaVuSans-32" x="83.789062"/>
      </g>
     </g>
    </g>
    <g id="ytick_3">
     <g id="line2d_19">
      <path d="M 57.6 174.528 
L 414.72 174.528 
" clip-path="url(#p39dd7c0f7d)" style="fill: none; stroke-dasharray: 1.85,0.8; stroke-dashoffset: 0; stroke: #b2b2b2; stroke-width: 0.5"/>
     </g>
     <g id="line2d_20">
      <g>
       <use xlink:href="#m227cf49472" x="57.6" y="174.528" style="stroke: #000000; stroke-width: 0.8"/>
      </g>
     </g>
     <g id="text_11">
      <!-- 0 -->
      <g transform="translate(47.7375 178.327219) scale(0.1 -0.1)">
       <use xlink:href="#DejaVuSans-30"/>
      </g>
     </g>
    </g>
    <g id="ytick_4">
     <g id="line2d_21">
      <path d="M 57.6 126.144 
L 414.72 126.144 
" clip-path="url(#p39dd7c0f7d)" style="fill: none; stroke-dasharray: 1.85,0.8; stroke-dashoffset: 0; stroke: #b2b2b2; stroke-width: 0.5"/>
     </g>
     <g id="line2d_22">
      <g>
       <use xlink:href="#m227cf49472" x="57.6" y="126.144" style="stroke: #000000; stroke-width: 0.8"/>
      </g>
     </g>
     <g id="text_12">
      <!-- 2 -->
      <g transform="translate(47.7375 129.943219) scale(0.1 -0.1)">
       <use xlink:href="#DejaVuSans-32"/>
      </g>
     </g>
    </g>
    <g id="ytick_5">
     <g id="line2d_23">
      <path d="M 57.6 77.76 
L 414.72 77.76 
" clip-path="url(#p39dd7c0f7d)" style="fill: none; stroke-dasharray: 1.85,0.8; stroke-dashoffset: 0; stroke: #b2b2b2; stroke-width: 0.5"/>
     </g>
     <g id="line2d_24">
      <g>
       <use xlink:href="#m227cf49472" x="57.6" y="77.76" style="stroke: #000000; stroke-width: 0.8"/>
      </g>
     </g>
     <g id="text_13">
      <!-- 4 -->
      <g transform="translate(47.7375 81.559219) scale(0.1 -0.1)">
       <use xlink:href="#DejaVuSans-34"/>
      </g>
     </g>
    </g>
    <g id="text_14">
     <!-- $x_{s}$ -->
     <g transform="translate(32.862188 180.348) rotate(-90) scale(0.12 -0.12)">
      <defs>
       <path id="Cmmi10-78" d="M 500 184 
Q 613 97 819 97 
Q 1019 97 1172 289 
Q 1325 481 1381 709 
L 1672 1844 
Q 1741 2153 1741 2266 
Q 1741 2425 1652 2544 
Q 1563 2663 1403 2663 
Q 1200 2663 1022 2536 
Q 844 2409 722 2214 
Q 600 2019 550 1819 
Q 538 1778 500 1778 
L 422 1778 
Q 372 1778 372 1838 
L 372 1856 
Q 434 2094 584 2320 
Q 734 2547 951 2687 
Q 1169 2828 1416 2828 
Q 1650 2828 1839 2703 
Q 2028 2578 2106 2363 
Q 2216 2559 2386 2693 
Q 2556 2828 2759 2828 
Q 2897 2828 3040 2779 
Q 3184 2731 3275 2631 
Q 3366 2531 3366 2381 
Q 3366 2219 3261 2101 
Q 3156 1984 2994 1984 
Q 2891 1984 2822 2050 
Q 2753 2116 2753 2216 
Q 2753 2350 2845 2451 
Q 2938 2553 3066 2572 
Q 2950 2663 2747 2663 
Q 2541 2663 2389 2472 
Q 2238 2281 2175 2047 
L 1894 916 
Q 1825 659 1825 494 
Q 1825 331 1917 214 
Q 2009 97 2163 97 
Q 2463 97 2698 361 
Q 2934 625 3009 941 
Q 3022 978 3059 978 
L 3138 978 
Q 3163 978 3178 961 
Q 3194 944 3194 922 
Q 3194 916 3188 903 
Q 3097 522 2806 225 
Q 2516 -72 2150 -72 
Q 1916 -72 1727 54 
Q 1538 181 1459 397 
Q 1359 209 1182 68 
Q 1006 -72 806 -72 
Q 669 -72 523 -23 
Q 378 25 287 125 
Q 197 225 197 378 
Q 197 528 301 651 
Q 406 775 563 775 
Q 669 775 741 711 
Q 813 647 813 544 
Q 813 409 723 309 
Q 634 209 500 184 
z
" transform="scale(0.015625)"/>
      </defs>
      <use xlink:href="#Cmmi10-78" transform="translate(0 0.8125)"/>
      <use xlink:href="#Cmmi10-73" transform="translate(57.080078 -16.19375) scale(0.7)"/>
     </g>
    </g>
   </g>
   <g id="line2d_25">
    <path d="M 73.832727 161.222393 
L 74.918528 161.362981 
L 76.00433 160.534074 
L 77.090131 156.617133 
L 78.175932 154.692078 
L 79.261733 157.120963 
L 80.347534 164.087451 
L 81.433335 162.452275 
L 82.519137 165.152812 
L 83.604938 165.639991 
L 84.690739 165.391995 
L 85.77654 169.62954 
L 86.862341 173.062543 
L 87.948142 174.498518 
L 89.033943 171.648533 
L 90.119745 169.860883 
L 92.291347 179.514664 
L 93.377148 175.864443 
L 94.462949 174.02374 
L 95.54875 173.237245 
L 96.634552 173.397273 
L 97.720353 172.602195 
L 98.806154 172.952706 
L 99.891955 169.0851 
L 100.977756 170.444285 
L 102.063557 173.059001 
L 103.149358 175.153983 
L 104.23516 173.168526 
L 105.320961 172.8015 
L 106.406762 169.595571 
L 107.492563 168.632343 
L 108.578364 171.524589 
L 109.664165 166.480005 
L 110.749967 172.867688 
L 111.835768 176.734899 
L 112.921569 175.582001 
L 114.00737 175.651642 
L 115.093171 174.426798 
L 116.178972 173.742471 
L 117.264773 175.533054 
L 118.350575 175.287699 
L 119.436376 178.086748 
L 120.522177 179.498137 
L 121.607978 183.866796 
L 122.693779 186.08009 
L 123.77958 180.740212 
L 124.865382 179.874586 
L 125.951183 177.621623 
L 127.036984 180.815275 
L 128.122785 177.475501 
L 129.208586 179.559842 
L 130.294387 176.494671 
L 131.380189 180.179906 
L 132.46599 177.075564 
L 133.551791 178.655168 
L 134.637592 181.789508 
L 135.723393 176.810507 
L 136.809194 175.702091 
L 137.894995 177.583959 
L 138.980797 176.061458 
L 141.152399 182.181725 
L 142.2382 179.870248 
L 143.324001 182.600316 
L 144.409802 177.878623 
L 145.495604 180.509153 
L 146.581405 180.243971 
L 147.667206 184.713537 
L 148.753007 185.492858 
L 149.838808 187.218232 
L 150.924609 187.563901 
L 152.01041 182.5281 
L 153.096212 184.78415 
L 154.182013 182.880164 
L 155.267814 183.112519 
L 156.353615 181.151944 
L 157.439416 182.959151 
L 158.525217 183.387967 
L 159.611019 184.56651 
L 160.69682 180.998385 
L 161.782621 183.759147 
L 162.868422 184.699461 
L 163.954223 181.078393 
L 165.040024 186.618358 
L 166.125825 181.835326 
L 167.211627 183.682508 
L 168.297428 182.739271 
L 169.383229 182.340881 
L 170.46903 184.579025 
L 171.554831 187.37402 
L 172.640632 186.330378 
L 173.726434 185.552203 
L 174.812235 183.368784 
L 175.898036 181.666198 
L 176.983837 185.4964 
L 178.069638 186.336507 
L 179.155439 182.356625 
L 180.24124 180.002417 
L 181.327042 183.841344 
L 182.412843 179.322253 
L 183.498644 180.947055 
L 184.584445 183.783379 
L 185.670246 180.869495 
L 186.756047 182.877593 
L 187.841849 186.833346 
L 188.92765 182.058174 
L 190.013451 185.618576 
L 191.099252 186.743225 
L 192.185053 185.622755 
L 193.270854 187.293596 
L 194.356656 184.724613 
L 195.442457 180.254652 
L 197.614059 183.950367 
L 198.69986 182.597895 
L 199.785661 185.167837 
L 200.871462 188.294087 
L 201.957264 189.446427 
L 203.043065 189.70871 
L 204.128866 190.865775 
L 205.214667 190.12655 
L 206.300468 191.298457 
L 207.386269 189.685735 
L 208.472071 186.557799 
L 209.557872 190.239942 
L 210.643673 192.790296 
L 211.729474 189.914663 
L 213.901076 196.797217 
L 214.986877 197.325091 
L 216.072679 199.049231 
L 217.15848 195.181674 
L 218.244281 199.266209 
L 219.330082 194.935573 
L 221.501684 194.17442 
L 222.587486 191.979643 
L 223.673287 190.996503 
L 224.759088 187.942963 
L 225.844889 187.013523 
L 226.93069 189.601998 
L 228.016491 188.15502 
L 230.188094 195.436715 
L 231.273895 199.006458 
L 232.359696 200.748111 
L 233.445497 195.676967 
L 234.531298 195.50285 
L 235.617099 197.286667 
L 236.702901 198.368996 
L 237.788702 201.680534 
L 238.874503 201.452863 
L 239.960304 200.377876 
L 241.046105 196.75445 
L 242.131906 202.52945 
L 243.217708 203.15569 
L 244.303509 203.561461 
L 245.38931 200.633938 
L 246.475111 200.475978 
L 247.560912 200.565317 
L 248.646713 204.217547 
L 249.732514 201.507588 
L 250.818316 199.819515 
L 251.904117 197.306889 
L 252.989918 199.466318 
L 254.075719 198.818116 
L 255.16152 200.396118 
L 256.247321 198.035445 
L 257.333123 191.675446 
L 258.418924 191.469623 
L 259.504725 192.155573 
L 261.676327 189.3727 
L 262.762128 185.171261 
L 263.847929 186.031275 
L 264.933731 185.103626 
L 266.019532 183.633244 
L 267.105333 182.926904 
L 268.191134 184.272025 
L 269.276935 183.688849 
L 270.362736 182.294373 
L 271.448538 183.138685 
L 272.534339 183.37134 
L 273.62014 183.081451 
L 274.705941 181.476119 
L 275.791742 186.001415 
L 276.877543 186.131254 
L 277.963344 183.68919 
L 279.049146 187.00185 
L 280.134947 187.998566 
L 281.220748 188.00405 
L 282.306549 187.36846 
L 283.39235 187.365275 
L 284.478151 189.556124 
L 285.563953 193.573777 
L 286.649754 195.720674 
L 287.735555 197.615275 
L 288.821356 197.834338 
L 289.907157 198.94566 
L 290.992958 199.138475 
L 292.07876 195.890171 
L 293.164561 196.811328 
L 294.250362 194.702516 
L 295.336163 192.280536 
L 296.421964 191.360841 
L 297.507765 187.521482 
L 298.593566 191.692225 
L 299.679368 193.066564 
L 300.765169 191.513385 
L 301.85097 188.333995 
L 302.936771 187.731272 
L 304.022572 190.389999 
L 305.108373 190.725792 
L 306.194175 191.985938 
L 307.279976 190.751599 
L 308.365777 190.773954 
L 309.451578 189.614743 
L 310.537379 187.724362 
L 311.62318 188.345452 
L 312.708981 190.210906 
L 313.794783 190.922617 
L 314.880584 189.382134 
L 315.966385 190.311449 
L 317.052186 189.718317 
L 319.223788 190.325534 
L 320.30959 192.532668 
L 321.395391 193.683949 
L 322.481192 191.589254 
L 323.566993 191.561752 
L 324.652794 192.056262 
L 325.738595 191.809821 
L 326.824396 192.409855 
L 327.910198 192.743698 
L 328.995999 194.835477 
L 330.0818 194.452002 
L 331.167601 191.928116 
L 332.253402 190.609667 
L 333.339203 189.876214 
L 334.425005 188.936156 
L 335.510806 190.397625 
L 336.596607 191.582354 
L 337.682408 189.566821 
L 338.768209 189.403045 
L 339.85401 187.744292 
L 340.939811 188.461868 
L 342.025613 187.445254 
L 343.111414 186.6594 
L 345.283016 188.440137 
L 346.368817 189.395074 
L 347.454618 188.418283 
L 348.54042 191.764636 
L 349.626221 191.463413 
L 350.712022 194.404176 
L 351.797823 193.578128 
L 352.883624 193.36853 
L 353.969425 191.689764 
L 355.055227 191.090977 
L 356.141028 191.591317 
L 357.226829 192.347895 
L 358.31263 192.967235 
L 359.398431 192.26066 
L 360.484232 193.14977 
L 361.570033 191.794819 
L 362.655835 192.51751 
L 363.741636 191.729675 
L 364.827437 190.682772 
L 365.913238 191.619796 
L 366.999039 190.95837 
L 368.08484 189.1771 
L 369.170642 187.989743 
L 370.256443 187.354107 
L 371.342244 187.514467 
L 373.513846 186.546824 
L 374.599647 187.552733 
L 375.685448 187.058256 
L 376.77125 188.121443 
L 377.857051 186.965422 
L 378.942852 186.800621 
L 380.028653 185.598365 
L 381.114454 186.416381 
L 382.200255 185.858514 
L 383.286057 187.524249 
L 385.457659 187.132291 
L 386.54346 187.717542 
L 387.629261 186.86905 
L 388.715062 187.315406 
L 389.800863 188.112782 
L 390.886665 188.641023 
L 391.972466 189.040006 
L 393.058267 188.803377 
L 394.144068 189.099336 
L 395.229869 189.192123 
L 396.31567 189.400167 
L 397.401472 188.910649 
L 398.487273 189.13191 
L 398.487273 189.13191 
" clip-path="url(#p39dd7c0f7d)" style="fill: none; stroke: #0000ff; stroke-opacity: 0.5; stroke-width: 2; stroke-linecap: square"/>
   </g>
   <g id="line2d_26">
    <path d="M 73.832727 145.676526 
L 74.918528 146.990002 
L 76.00433 148.04631 
L 77.090131 151.254019 
L 78.175932 153.336855 
L 79.261733 153.445613 
L 80.347534 151.661958 
L 81.433335 145.400904 
L 82.519137 142.039438 
L 83.604938 142.574506 
L 84.690739 141.851261 
L 85.77654 135.696609 
L 86.862341 136.860338 
L 87.948142 135.041193 
L 89.033943 135.229997 
L 90.119745 135.024897 
L 91.205546 132.819673 
L 92.291347 134.814908 
L 93.377148 137.119363 
L 94.462949 136.149445 
L 95.54875 136.188641 
L 97.720353 133.281391 
L 98.806154 134.431632 
L 99.891955 140.265968 
L 100.977756 137.688847 
L 102.063557 141.446975 
L 103.149358 141.520627 
L 104.23516 132.32694 
L 105.320961 133.354835 
L 106.406762 133.032672 
L 107.492563 140.866451 
L 108.578364 139.365235 
L 109.664165 143.113457 
L 110.749967 142.322851 
L 111.835768 142.879408 
L 115.093171 145.939132 
L 116.178972 147.195091 
L 117.264773 146.585201 
L 118.350575 145.247392 
L 119.436376 144.240364 
L 120.522177 143.532169 
L 121.607978 145.21762 
L 122.693779 149.739078 
L 123.77958 153.604146 
L 124.865382 156.250154 
L 125.951183 158.196274 
L 127.036984 156.555422 
L 128.122785 158.426734 
L 129.208586 159.327582 
L 130.294387 159.104802 
L 131.380189 162.709677 
L 132.46599 161.380164 
L 133.551791 164.432024 
L 134.637592 166.488136 
L 135.723393 169.449765 
L 136.809194 167.811868 
L 137.894995 162.923469 
L 138.980797 160.880619 
L 140.066598 162.039773 
L 141.152399 160.01493 
L 142.2382 161.99342 
L 143.324001 165.955386 
L 144.409802 166.089587 
L 145.495604 162.462848 
L 146.581405 159.416539 
L 148.753007 162.781992 
L 149.838808 163.759387 
L 150.924609 165.380838 
L 152.01041 165.021919 
L 153.096212 165.245886 
L 155.267814 173.64518 
L 156.353615 169.948796 
L 157.439416 168.908217 
L 158.525217 166.882618 
L 159.611019 166.743337 
L 160.69682 165.678155 
L 161.782621 165.857084 
L 162.868422 161.533747 
L 163.954223 163.139751 
L 165.040024 160.097779 
L 166.125825 161.707933 
L 167.211627 159.91479 
L 168.297428 163.05032 
L 169.383229 161.101813 
L 170.46903 159.450562 
L 171.554831 162.796547 
L 172.640632 162.69544 
L 173.726434 158.040802 
L 174.812235 162.037601 
L 175.898036 164.939216 
L 176.983837 162.479257 
L 178.069638 165.837467 
L 179.155439 165.298143 
L 180.24124 169.020068 
L 181.327042 167.275097 
L 182.412843 167.988486 
L 183.498644 169.276707 
L 184.584445 166.880354 
L 185.670246 167.526617 
L 186.756047 167.94015 
L 188.92765 169.518803 
L 190.013451 172.098172 
L 191.099252 174.979153 
L 192.185053 169.234081 
L 193.270854 169.969497 
L 194.356656 169.373921 
L 195.442457 171.930429 
L 196.528258 172.096522 
L 197.614059 173.229133 
L 198.69986 168.076363 
L 199.785661 168.061288 
L 200.871462 167.320876 
L 201.957264 167.103155 
L 203.043065 169.668252 
L 204.128866 165.634992 
L 205.214667 164.015125 
L 206.300468 161.258989 
L 207.386269 161.871041 
L 208.472071 163.137171 
L 209.557872 162.308209 
L 210.643673 159.980153 
L 211.729474 157.133158 
L 212.815275 156.166869 
L 213.901076 152.574586 
L 214.986877 152.95732 
L 216.072679 157.377832 
L 217.15848 160.95639 
L 218.244281 154.79343 
L 220.415883 148.868216 
L 221.501684 145.313384 
L 222.587486 144.537513 
L 223.673287 143.966672 
L 224.759088 146.557459 
L 225.844889 147.723746 
L 226.93069 143.118051 
L 228.016491 144.131569 
L 229.102292 144.230154 
L 231.273895 148.302959 
L 232.359696 147.224237 
L 233.445497 151.28194 
L 234.531298 152.098636 
L 235.617099 153.206013 
L 236.702901 153.734816 
L 237.788702 154.048985 
L 238.874503 151.955971 
L 239.960304 153.384648 
L 241.046105 151.90305 
L 242.131906 153.762675 
L 243.217708 154.223776 
L 244.303509 152.026266 
L 245.38931 153.873775 
L 246.475111 156.368491 
L 247.560912 159.686374 
L 248.646713 165.356499 
L 249.732514 168.01884 
L 250.818316 165.809282 
L 251.904117 166.529574 
L 252.989918 169.340539 
L 254.075719 166.80563 
L 255.16152 168.931152 
L 256.247321 170.247445 
L 257.333123 168.351592 
L 258.418924 167.343649 
L 259.504725 166.897876 
L 260.590526 165.983675 
L 261.676327 165.279989 
L 262.762128 165.869417 
L 263.847929 163.118633 
L 264.933731 163.336218 
L 266.019532 161.314508 
L 267.105333 158.850706 
L 268.191134 157.640801 
L 269.276935 155.636036 
L 270.362736 160.023553 
L 271.448538 159.790619 
L 272.534339 158.352172 
L 273.62014 158.316183 
L 274.705941 161.556864 
L 275.791742 162.210575 
L 276.877543 161.89738 
L 277.963344 164.713595 
L 279.049146 164.38577 
L 280.134947 167.076516 
L 281.220748 167.193412 
L 282.306549 167.465503 
L 283.39235 166.22034 
L 284.478151 165.292841 
L 285.563953 167.284585 
L 286.649754 166.663794 
L 287.735555 171.767793 
L 288.821356 172.763338 
L 289.907157 172.541625 
L 290.992958 173.476838 
L 292.07876 175.223352 
L 294.250362 180.062696 
L 295.336163 179.922888 
L 296.421964 178.972772 
L 297.507765 182.183192 
L 298.593566 179.687551 
L 299.679368 176.887921 
L 300.765169 180.778688 
L 301.85097 179.686026 
L 302.936771 179.561875 
L 304.022572 180.662087 
L 305.108373 181.486899 
L 306.194175 182.451717 
L 307.279976 179.604711 
L 308.365777 182.735817 
L 309.451578 180.775229 
L 310.537379 182.103407 
L 311.62318 182.873136 
L 312.708981 184.786612 
L 313.794783 184.648797 
L 314.880584 182.561548 
L 315.966385 182.79241 
L 317.052186 182.088092 
L 318.137987 182.079369 
L 320.30959 185.437677 
L 321.395391 186.947766 
L 322.481192 187.057432 
L 323.566993 185.400296 
L 324.652794 187.16061 
L 325.738595 184.360084 
L 326.824396 180.370673 
L 327.910198 180.271869 
L 328.995999 176.815039 
L 330.0818 180.626309 
L 331.167601 181.312707 
L 332.253402 180.693016 
L 333.339203 180.493201 
L 334.425005 180.872874 
L 335.510806 180.429328 
L 336.596607 180.131954 
L 337.682408 180.012799 
L 338.768209 180.273506 
L 339.85401 181.191086 
L 340.939811 180.902604 
L 342.025613 181.208552 
L 343.111414 180.122211 
L 344.197215 179.721683 
L 345.283016 179.859077 
L 346.368817 181.999105 
L 347.454618 183.456514 
L 348.54042 183.809433 
L 349.626221 184.015134 
L 350.712022 183.557617 
L 351.797823 183.909169 
L 352.883624 184.748887 
L 353.969425 183.023835 
L 355.055227 182.115937 
L 356.141028 181.717446 
L 357.226829 179.455937 
L 358.31263 176.295996 
L 359.398431 176.761221 
L 360.484232 176.705626 
L 361.570033 176.377701 
L 362.655835 176.700848 
L 363.741636 176.271534 
L 364.827437 175.257147 
L 365.913238 175.39591 
L 366.999039 174.31967 
L 368.08484 174.996603 
L 369.170642 174.750865 
L 370.256443 173.818396 
L 371.342244 174.831642 
L 372.428045 173.986631 
L 373.513846 174.118612 
L 374.599647 174.837622 
L 375.685448 174.004482 
L 376.77125 174.047875 
L 378.942852 173.82183 
L 380.028653 174.036531 
L 381.114454 173.714169 
L 382.200255 173.576042 
L 383.286057 173.764359 
L 384.371858 173.127289 
L 385.457659 172.260536 
L 386.54346 171.169399 
L 387.629261 172.116165 
L 388.715062 171.792958 
L 389.800863 172.180271 
L 390.886665 172.174917 
L 393.058267 172.320149 
L 394.144068 171.87397 
L 395.229869 171.703528 
L 396.31567 171.30723 
L 398.487273 171.239729 
L 398.487273 171.239729 
" clip-path="url(#p39dd7c0f7d)" style="fill: none; stroke: #0000ff; stroke-opacity: 0.5; stroke-width: 2; stroke-linecap: square"/>
   </g>
   <g id="line2d_27">
    <path d="M 73.832727 188.926873 
L 74.918528 189.292793 
L 76.00433 192.383658 
L 77.090131 193.545153 
L 78.175932 187.60625 
L 79.261733 190.113051 
L 80.347534 184.732528 
L 81.433335 182.650649 
L 82.519137 182.159753 
L 83.604938 185.063136 
L 84.690739 190.640751 
L 85.77654 194.536321 
L 86.862341 195.516982 
L 87.948142 200.204176 
L 89.033943 204.177648 
L 90.119745 207.647085 
L 91.205546 204.290389 
L 92.291347 208.899567 
L 93.377148 209.070711 
L 94.462949 208.167144 
L 95.54875 208.559514 
L 96.634552 212.927897 
L 97.720353 214.758016 
L 98.806154 210.159754 
L 99.891955 208.821034 
L 100.977756 213.096435 
L 102.063557 216.237119 
L 103.149358 213.129963 
L 104.23516 211.750187 
L 105.320961 208.661061 
L 106.406762 211.155572 
L 107.492563 210.667195 
L 108.578364 206.644827 
L 109.664165 201.375454 
L 110.749967 197.34357 
L 111.835768 195.700687 
L 112.921569 192.186304 
L 114.00737 190.128574 
L 115.093171 193.586977 
L 117.264773 188.715201 
L 118.350575 190.098017 
L 119.436376 191.761664 
L 120.522177 193.95106 
L 121.607978 193.693252 
L 122.693779 192.912454 
L 123.77958 190.491368 
L 124.865382 192.456191 
L 125.951183 194.804807 
L 127.036984 195.188231 
L 128.122785 191.745059 
L 129.208586 193.849593 
L 130.294387 189.451652 
L 131.380189 193.55856 
L 132.46599 191.862104 
L 133.551791 189.13826 
L 134.637592 191.886652 
L 135.723393 195.595132 
L 136.809194 195.949323 
L 137.894995 197.417759 
L 138.980797 191.577754 
L 140.066598 182.465172 
L 141.152399 186.865278 
L 142.2382 184.265078 
L 143.324001 188.446683 
L 144.409802 183.735877 
L 145.495604 184.585132 
L 146.581405 185.990869 
L 147.667206 185.510754 
L 148.753007 182.9573 
L 149.838808 186.509236 
L 150.924609 188.051577 
L 152.01041 186.654577 
L 153.096212 184.819906 
L 154.182013 183.942263 
L 155.267814 180.179843 
L 156.353615 177.135331 
L 157.439416 182.347166 
L 158.525217 184.473783 
L 159.611019 185.314545 
L 160.69682 181.622223 
L 162.868422 181.824244 
L 163.954223 177.621832 
L 165.040024 175.217965 
L 166.125825 175.513901 
L 167.211627 177.587445 
L 168.297428 173.512789 
L 169.383229 173.718243 
L 170.46903 172.515234 
L 171.554831 173.542201 
L 172.640632 174.038772 
L 173.726434 174.275303 
L 174.812235 174.718564 
L 175.898036 176.935326 
L 176.983837 173.857689 
L 178.069638 179.08982 
L 179.155439 177.786605 
L 180.24124 180.257874 
L 182.412843 182.324698 
L 183.498644 186.621156 
L 184.584445 188.945393 
L 185.670246 187.861355 
L 186.756047 185.587985 
L 187.841849 184.374378 
L 190.013451 188.352522 
L 191.099252 190.989463 
L 192.185053 188.801037 
L 193.270854 185.843964 
L 194.356656 188.974836 
L 195.442457 189.387434 
L 196.528258 185.921903 
L 197.614059 185.768341 
L 198.69986 190.330021 
L 199.785661 191.978834 
L 200.871462 196.312804 
L 201.957264 203.267891 
L 203.043065 202.039455 
L 204.128866 205.114965 
L 205.214667 207.328739 
L 206.300468 208.139376 
L 207.386269 202.301118 
L 208.472071 203.224023 
L 209.557872 204.83033 
L 210.643673 211.735376 
L 211.729474 209.993676 
L 212.815275 211.095369 
L 213.901076 211.458213 
L 214.986877 205.881268 
L 216.072679 208.090697 
L 217.15848 209.863857 
L 218.244281 206.767204 
L 219.330082 207.319765 
L 220.415883 211.703135 
L 221.501684 211.814373 
L 222.587486 210.35658 
L 223.673287 211.31853 
L 224.759088 212.719279 
L 225.844889 217.62737 
L 226.93069 219.105432 
L 228.016491 222.84138 
L 229.102292 223.258527 
L 230.188094 222.27052 
L 231.273895 216.429406 
L 232.359696 211.59363 
L 233.445497 209.856127 
L 234.531298 211.319032 
L 235.617099 205.787909 
L 237.788702 199.524718 
L 238.874503 201.8525 
L 239.960304 201.484576 
L 241.046105 199.181268 
L 242.131906 202.038243 
L 243.217708 201.23552 
L 244.303509 202.364721 
L 245.38931 200.129533 
L 246.475111 196.998566 
L 247.560912 195.358091 
L 248.646713 198.491917 
L 249.732514 197.361186 
L 250.818316 196.906827 
L 251.904117 198.346564 
L 252.989918 195.799753 
L 254.075719 198.19914 
L 255.16152 198.836045 
L 256.247321 198.580844 
L 257.333123 197.876233 
L 258.418924 202.292856 
L 259.504725 201.28912 
L 260.590526 199.534483 
L 261.676327 200.176586 
L 262.762128 200.490165 
L 263.847929 203.341941 
L 264.933731 208.57454 
L 266.019532 206.856061 
L 267.105333 210.475595 
L 269.276935 204.309889 
L 270.362736 206.872692 
L 271.448538 205.07456 
L 272.534339 205.80321 
L 275.791742 214.354005 
L 276.877543 214.216175 
L 277.963344 214.533985 
L 279.049146 211.098808 
L 280.134947 207.065119 
L 281.220748 204.605032 
L 282.306549 204.378031 
L 283.39235 201.592186 
L 284.478151 199.732006 
L 285.563953 203.571693 
L 286.649754 205.410041 
L 287.735555 206.412992 
L 288.821356 208.84701 
L 289.907157 207.385009 
L 290.992958 212.462477 
L 292.07876 210.553929 
L 293.164561 207.570091 
L 294.250362 207.165936 
L 295.336163 207.634399 
L 296.421964 204.575263 
L 297.507765 203.069416 
L 298.593566 200.386481 
L 299.679368 197.231196 
L 300.765169 198.908308 
L 301.85097 201.06513 
L 302.936771 199.607218 
L 304.022572 199.610491 
L 305.108373 201.282285 
L 306.194175 200.607725 
L 307.279976 197.361203 
L 308.365777 197.652227 
L 309.451578 196.614954 
L 310.537379 196.126625 
L 311.62318 196.380878 
L 312.708981 197.159433 
L 313.794783 197.019855 
L 314.880584 197.118066 
L 315.966385 194.758366 
L 317.052186 193.254567 
L 318.137987 194.725009 
L 319.223788 194.236297 
L 320.30959 195.109646 
L 321.395391 192.683432 
L 322.481192 190.790512 
L 323.566993 190.585081 
L 324.652794 188.041759 
L 325.738595 187.310386 
L 326.824396 187.823955 
L 327.910198 186.296124 
L 328.995999 183.225822 
L 330.0818 181.325742 
L 331.167601 180.649756 
L 332.253402 180.280469 
L 333.339203 182.122955 
L 334.425005 182.11716 
L 335.510806 180.569577 
L 336.596607 182.311905 
L 337.682408 182.439402 
L 338.768209 182.391536 
L 339.85401 182.796939 
L 340.939811 184.519796 
L 342.025613 183.346178 
L 343.111414 181.555838 
L 344.197215 179.137409 
L 345.283016 180.728204 
L 346.368817 179.84614 
L 347.454618 179.28422 
L 348.54042 179.004355 
L 350.712022 176.054112 
L 351.797823 175.372064 
L 352.883624 175.777425 
L 353.969425 173.255525 
L 355.055227 172.901954 
L 356.141028 171.470448 
L 357.226829 171.389661 
L 358.31263 173.022957 
L 359.398431 171.685385 
L 360.484232 173.654577 
L 362.655835 172.849288 
L 363.741636 170.92019 
L 364.827437 167.60317 
L 366.999039 168.801116 
L 368.08484 167.838087 
L 369.170642 168.526624 
L 370.256443 167.735688 
L 371.342244 165.656818 
L 372.428045 165.559171 
L 373.513846 167.987274 
L 374.599647 168.192606 
L 375.685448 169.811655 
L 376.77125 168.334455 
L 377.857051 168.083587 
L 378.942852 168.752534 
L 380.028653 168.547113 
L 381.114454 167.636898 
L 382.200255 167.515023 
L 383.286057 168.057569 
L 384.371858 168.893966 
L 385.457659 168.757601 
L 386.54346 168.980371 
L 387.629261 167.566315 
L 388.715062 167.725368 
L 389.800863 168.14697 
L 390.886665 167.734942 
L 391.972466 167.479889 
L 393.058267 168.108031 
L 394.144068 167.61053 
L 395.229869 166.941504 
L 397.401472 166.908875 
L 398.487273 166.760779 
L 398.487273 166.760779 
" clip-path="url(#p39dd7c0f7d)" style="fill: none; stroke: #0000ff; stroke-opacity: 0.5; stroke-width: 2; stroke-linecap: square"/>
   </g>
   <g id="line2d_28">
    <path d="M 73.832727 170.107334 
L 74.918528 171.67406 
L 76.00433 174.017703 
L 77.090131 175.8315 
L 78.175932 173.950004 
L 79.261733 175.651909 
L 80.347534 171.396148 
L 81.433335 169.116464 
L 82.519137 166.34657 
L 83.604938 167.394405 
L 84.690739 174.861936 
L 85.77654 173.69106 
L 86.862341 172.193316 
L 87.948142 169.661223 
L 89.033943 171.31284 
L 90.119745 173.636957 
L 91.205546 172.57293 
L 92.291347 175.750192 
L 93.377148 176.516181 
L 95.54875 178.709071 
L 96.634552 175.832558 
L 97.720353 178.691093 
L 98.806154 179.618122 
L 99.891955 180.308328 
L 102.063557 185.20281 
L 103.149358 182.400803 
L 104.23516 181.767504 
L 105.320961 180.078644 
L 106.406762 176.845009 
L 107.492563 175.981114 
L 108.578364 171.637977 
L 109.664165 169.795511 
L 110.749967 170.447174 
L 111.835768 174.139428 
L 112.921569 174.215441 
L 114.00737 170.608679 
L 115.093171 176.711716 
L 116.178972 178.484599 
L 117.264773 172.720281 
L 119.436376 169.574244 
L 120.522177 172.616892 
L 121.607978 176.746087 
L 122.693779 176.477513 
L 123.77958 176.091932 
L 124.865382 170.857396 
L 125.951183 175.405476 
L 127.036984 177.171099 
L 128.122785 177.26414 
L 129.208586 178.019518 
L 130.294387 178.20663 
L 131.380189 179.939783 
L 132.46599 177.920267 
L 133.551791 176.316772 
L 134.637592 170.140895 
L 135.723393 171.333116 
L 136.809194 173.716381 
L 137.894995 170.410117 
L 138.980797 168.485989 
L 140.066598 169.674156 
L 141.152399 169.176498 
L 142.2382 169.316958 
L 143.324001 170.697459 
L 144.409802 172.836248 
L 145.495604 172.0021 
L 146.581405 169.581023 
L 147.667206 172.592544 
L 148.753007 170.947477 
L 149.838808 173.617503 
L 150.924609 179.284233 
L 153.096212 178.018684 
L 154.182013 179.652215 
L 155.267814 177.03215 
L 156.353615 171.727797 
L 157.439416 170.693965 
L 158.525217 176.413631 
L 159.611019 175.201465 
L 160.69682 175.108272 
L 161.782621 173.046178 
L 162.868422 169.29177 
L 163.954223 172.126633 
L 165.040024 168.540578 
L 166.125825 171.274969 
L 167.211627 173.401599 
L 168.297428 177.199275 
L 169.383229 173.713456 
L 170.46903 173.284006 
L 171.554831 168.052748 
L 172.640632 172.556665 
L 173.726434 168.659796 
L 174.812235 166.725124 
L 175.898036 167.723805 
L 176.983837 165.958669 
L 178.069638 165.728611 
L 179.155439 164.135408 
L 180.24124 157.71852 
L 181.327042 158.121803 
L 182.412843 159.446234 
L 183.498644 158.730086 
L 184.584445 158.182642 
L 185.670246 158.943066 
L 186.756047 156.031415 
L 187.841849 159.542352 
L 188.92765 161.903196 
L 190.013451 163.894243 
L 191.099252 161.912932 
L 192.185053 160.757208 
L 193.270854 157.753056 
L 194.356656 158.000677 
L 195.442457 160.279656 
L 196.528258 158.323658 
L 197.614059 161.416365 
L 199.785661 168.307789 
L 200.871462 165.429642 
L 201.957264 165.798926 
L 203.043065 163.046348 
L 204.128866 159.36725 
L 205.214667 161.181273 
L 206.300468 165.154042 
L 209.557872 169.150306 
L 210.643673 168.983914 
L 211.729474 170.42165 
L 212.815275 169.535855 
L 213.901076 169.050626 
L 214.986877 175.20079 
L 216.072679 177.322356 
L 217.15848 177.004429 
L 218.244281 178.167368 
L 219.330082 170.95476 
L 220.415883 171.882457 
L 221.501684 174.719513 
L 222.587486 175.071346 
L 223.673287 172.482797 
L 224.759088 175.671047 
L 225.844889 176.891388 
L 226.93069 173.784218 
L 228.016491 173.138392 
L 229.102292 175.868228 
L 230.188094 175.163055 
L 232.359696 181.913267 
L 233.445497 178.898716 
L 234.531298 176.902812 
L 235.617099 179.624041 
L 236.702901 179.097586 
L 237.788702 180.216202 
L 238.874503 182.660422 
L 239.960304 182.067654 
L 241.046105 180.322194 
L 242.131906 181.326961 
L 243.217708 179.672963 
L 244.303509 181.858093 
L 245.38931 183.365605 
L 246.475111 186.431608 
L 247.560912 182.02751 
L 248.646713 185.791798 
L 249.732514 186.018152 
L 250.818316 185.939751 
L 251.904117 186.272662 
L 252.989918 183.651343 
L 254.075719 184.045076 
L 255.16152 183.081011 
L 256.247321 181.452582 
L 257.333123 181.47683 
L 258.418924 182.360004 
L 260.590526 179.281923 
L 261.676327 174.676992 
L 262.762128 173.306929 
L 263.847929 176.192581 
L 264.933731 173.277274 
L 266.019532 179.012254 
L 267.105333 177.79493 
L 268.191134 175.158703 
L 269.276935 176.401502 
L 270.362736 179.61718 
L 271.448538 179.909351 
L 272.534339 179.14671 
L 273.62014 180.953404 
L 274.705941 180.812046 
L 276.877543 181.946468 
L 277.963344 184.083904 
L 279.049146 184.352659 
L 280.134947 186.890189 
L 281.220748 187.259454 
L 282.306549 188.617112 
L 283.39235 186.463818 
L 284.478151 185.673434 
L 285.563953 184.218351 
L 286.649754 183.329908 
L 287.735555 181.590886 
L 288.821356 183.009527 
L 289.907157 182.72474 
L 290.992958 183.079932 
L 292.07876 185.91733 
L 293.164561 186.145374 
L 294.250362 182.999506 
L 295.336163 183.708231 
L 296.421964 183.771311 
L 297.507765 180.169813 
L 298.593566 177.872396 
L 299.679368 176.925282 
L 300.765169 176.492439 
L 301.85097 178.378073 
L 302.936771 177.55283 
L 304.022572 176.952252 
L 305.108373 176.707116 
L 306.194175 177.297012 
L 307.279976 175.363724 
L 308.365777 175.437003 
L 309.451578 174.264026 
L 310.537379 176.824767 
L 311.62318 178.42312 
L 312.708981 175.692339 
L 313.794783 175.69223 
L 314.880584 177.055672 
L 315.966385 175.684119 
L 317.052186 172.350153 
L 318.137987 173.129166 
L 319.223788 172.435698 
L 320.30959 171.349493 
L 321.395391 171.342236 
L 322.481192 174.659562 
L 323.566993 176.360316 
L 324.652794 176.136336 
L 325.738595 177.267943 
L 326.824396 175.18967 
L 327.910198 172.807556 
L 328.995999 172.811957 
L 330.0818 172.947329 
L 331.167601 171.359455 
L 332.253402 172.07564 
L 333.339203 172.286779 
L 334.425005 177.126049 
L 335.510806 173.416805 
L 336.596607 173.011062 
L 337.682408 174.17103 
L 338.768209 176.430269 
L 339.85401 175.261796 
L 340.939811 173.773838 
L 342.025613 174.327143 
L 343.111414 172.392088 
L 344.197215 171.110985 
L 345.283016 171.439509 
L 346.368817 170.879835 
L 347.454618 170.942898 
L 348.54042 172.243146 
L 349.626221 171.246519 
L 351.797823 171.807605 
L 352.883624 169.01126 
L 353.969425 166.999755 
L 355.055227 166.835776 
L 356.141028 166.810162 
L 358.31263 167.40607 
L 359.398431 168.754743 
L 360.484232 168.91758 
L 361.570033 169.357386 
L 363.741636 168.558204 
L 364.827437 169.65083 
L 365.913238 169.999228 
L 366.999039 171.311961 
L 368.08484 171.040977 
L 369.170642 171.982488 
L 370.256443 172.549309 
L 371.342244 172.919035 
L 372.428045 172.863036 
L 373.513846 173.308024 
L 374.599647 174.192824 
L 375.685448 174.630742 
L 376.77125 173.901841 
L 377.857051 174.367109 
L 378.942852 173.788044 
L 380.028653 172.222812 
L 381.114454 171.308784 
L 385.457659 171.053838 
L 387.629261 170.528474 
L 388.715062 171.825181 
L 389.800863 171.383427 
L 390.886665 171.638283 
L 391.972466 171.626644 
L 393.058267 172.243602 
L 395.229869 171.382111 
L 396.31567 171.697756 
L 397.401472 171.849956 
L 398.487273 171.784808 
L 398.487273 171.784808 
" clip-path="url(#p39dd7c0f7d)" style="fill: none; stroke: #0000ff; stroke-opacity: 0.5; stroke-width: 2; stroke-linecap: square"/>
   </g>
   <g id="line2d_29">
    <path d="M 73.832727 143.569087 
L 74.918528 144.282342 
L 76.00433 146.250416 
L 78.175932 144.827136 
L 79.261733 142.150527 
L 80.347534 135.691601 
L 81.433335 131.113045 
L 82.519137 127.758096 
L 83.604938 123.108364 
L 84.690739 128.651227 
L 85.77654 129.63548 
L 86.862341 131.832413 
L 87.948142 132.719658 
L 90.119745 134.727086 
L 92.291347 143.182825 
L 93.377148 142.668542 
L 94.462949 143.563726 
L 95.54875 147.310681 
L 96.634552 149.208932 
L 97.720353 149.659743 
L 98.806154 150.841036 
L 99.891955 149.997804 
L 100.977756 149.680354 
L 102.063557 146.603222 
L 103.149358 152.101838 
L 104.23516 151.128526 
L 105.320961 153.290951 
L 106.406762 153.472858 
L 107.492563 161.796899 
L 108.578364 165.865949 
L 109.664165 159.056647 
L 111.835768 154.658813 
L 112.921569 155.165994 
L 114.00737 157.215315 
L 115.093171 156.691796 
L 116.178972 154.095749 
L 117.264773 159.662617 
L 118.350575 162.59028 
L 119.436376 164.263329 
L 120.522177 163.885646 
L 121.607978 163.320336 
L 122.693779 163.675691 
L 123.77958 159.426415 
L 124.865382 156.703966 
L 125.951183 150.565171 
L 129.208586 143.67226 
L 130.294387 148.815026 
L 131.380189 146.151556 
L 132.46599 150.273925 
L 133.551791 147.46015 
L 134.637592 142.455528 
L 135.723393 145.946329 
L 136.809194 147.605529 
L 137.894995 148.326497 
L 138.980797 144.130638 
L 140.066598 145.865475 
L 141.152399 144.733912 
L 142.2382 150.611386 
L 143.324001 151.666969 
L 144.409802 160.273759 
L 145.495604 162.747846 
L 146.581405 167.621876 
L 148.753007 169.209822 
L 149.838808 165.984937 
L 150.924609 161.62059 
L 152.01041 158.859017 
L 153.096212 159.259736 
L 154.182013 157.4778 
L 155.267814 161.196419 
L 156.353615 163.646113 
L 157.439416 164.068428 
L 158.525217 159.499003 
L 159.611019 160.188649 
L 160.69682 163.687424 
L 161.782621 161.079379 
L 162.868422 160.207234 
L 163.954223 160.616965 
L 165.040024 160.702228 
L 166.125825 165.802317 
L 167.211627 169.269517 
L 168.297428 170.200576 
L 169.383229 173.056325 
L 170.46903 171.155679 
L 171.554831 173.522643 
L 172.640632 167.433637 
L 173.726434 169.7265 
L 174.812235 169.606507 
L 175.898036 170.264833 
L 176.983837 166.778016 
L 178.069638 167.274018 
L 179.155439 168.994661 
L 180.24124 168.670871 
L 181.327042 169.770006 
L 182.412843 171.364697 
L 183.498644 170.718014 
L 184.584445 169.093301 
L 185.670246 167.821496 
L 187.841849 169.454249 
L 188.92765 168.344958 
L 190.013451 172.511687 
L 191.099252 174.481598 
L 192.185053 173.809164 
L 193.270854 173.935813 
L 194.356656 168.314385 
L 195.442457 161.334577 
L 196.528258 155.861062 
L 197.614059 157.237946 
L 198.69986 153.912155 
L 199.785661 151.905946 
L 200.871462 150.211842 
L 203.043065 154.245012 
L 204.128866 150.616624 
L 205.214667 151.003687 
L 206.300468 150.489254 
L 207.386269 150.319656 
L 208.472071 144.895936 
L 209.557872 145.623999 
L 210.643673 143.628137 
L 211.729474 148.073161 
L 212.815275 150.547286 
L 213.901076 149.248963 
L 214.986877 153.959084 
L 216.072679 152.786259 
L 217.15848 149.910231 
L 218.244281 150.925199 
L 219.330082 147.708872 
L 220.415883 147.172862 
L 221.501684 149.928259 
L 222.587486 149.985135 
L 223.673287 155.927807 
L 224.759088 156.446949 
L 225.844889 157.480196 
L 226.93069 159.209075 
L 228.016491 154.582298 
L 229.102292 154.38902 
L 230.188094 156.372036 
L 231.273895 160.132654 
L 232.359696 157.812339 
L 233.445497 160.145506 
L 234.531298 156.825864 
L 235.617099 158.091163 
L 236.702901 158.548948 
L 237.788702 154.056719 
L 239.960304 158.410157 
L 241.046105 159.548185 
L 242.131906 158.983601 
L 243.217708 161.414997 
L 244.303509 164.216185 
L 245.38931 169.533437 
L 246.475111 170.593781 
L 247.560912 177.139255 
L 248.646713 175.958289 
L 249.732514 173.9701 
L 250.818316 175.201432 
L 251.904117 176.180606 
L 252.989918 177.423044 
L 254.075719 177.305858 
L 255.16152 176.866986 
L 257.333123 180.172663 
L 258.418924 181.51139 
L 259.504725 183.294368 
L 260.590526 183.72804 
L 261.676327 186.107134 
L 262.762128 189.594929 
L 263.847929 190.195935 
L 264.933731 190.317039 
L 266.019532 190.141075 
L 267.105333 191.7609 
L 268.191134 190.713968 
L 269.276935 192.780083 
L 270.362736 188.496998 
L 271.448538 192.57281 
L 272.534339 190.133759 
L 273.62014 191.352711 
L 274.705941 189.925294 
L 275.791742 191.186255 
L 276.877543 192.203786 
L 277.963344 192.514217 
L 279.049146 192.685258 
L 280.134947 191.586587 
L 281.220748 189.543714 
L 282.306549 195.015266 
L 283.39235 194.289933 
L 284.478151 195.231211 
L 285.563953 194.963601 
L 286.649754 194.02434 
L 287.735555 191.096651 
L 288.821356 192.935216 
L 289.907157 193.080289 
L 290.992958 194.062953 
L 292.07876 197.847497 
L 293.164561 195.106214 
L 294.250362 197.586939 
L 295.336163 196.827214 
L 296.421964 197.550634 
L 298.593566 201.013764 
L 299.679368 200.290956 
L 301.85097 196.213683 
L 302.936771 195.506853 
L 304.022572 194.12678 
L 305.108373 191.349853 
L 306.194175 190.003434 
L 307.279976 187.971089 
L 308.365777 189.666043 
L 309.451578 187.207367 
L 310.537379 186.913799 
L 311.62318 189.44309 
L 312.708981 190.624468 
L 313.794783 190.457213 
L 314.880584 189.699402 
L 315.966385 188.587426 
L 317.052186 190.62086 
L 318.137987 189.061262 
L 319.223788 190.282535 
L 320.30959 191.011544 
L 322.481192 195.265046 
L 323.566993 194.283541 
L 324.652794 193.04658 
L 325.738595 193.343438 
L 326.824396 193.282505 
L 327.910198 195.736588 
L 328.995999 196.059574 
L 330.0818 196.631985 
L 331.167601 197.055052 
L 332.253402 196.996675 
L 333.339203 197.771709 
L 334.425005 198.708805 
L 335.510806 198.872992 
L 336.596607 196.370889 
L 337.682408 196.665057 
L 338.768209 197.283453 
L 339.85401 198.992643 
L 340.939811 200.945345 
L 342.025613 202.356208 
L 343.111414 200.894023 
L 344.197215 201.899786 
L 345.283016 199.145922 
L 346.368817 200.496775 
L 347.454618 199.594773 
L 348.54042 200.663332 
L 349.626221 200.879083 
L 350.712022 202.544128 
L 351.797823 203.076792 
L 352.883624 202.211584 
L 353.969425 203.045076 
L 355.055227 200.352317 
L 356.141028 201.618436 
L 357.226829 202.274643 
L 358.31263 201.926229 
L 359.398431 203.441066 
L 360.484232 202.389258 
L 361.570033 204.048946 
L 362.655835 205.014301 
L 363.741636 203.345166 
L 364.827437 202.793279 
L 365.913238 203.16996 
L 366.999039 202.818762 
L 368.08484 204.084563 
L 369.170642 204.608896 
L 370.256443 206.511905 
L 371.342244 205.628178 
L 372.428045 204.303779 
L 373.513846 204.351869 
L 374.599647 204.598128 
L 375.685448 205.519161 
L 376.77125 205.254893 
L 377.857051 207.034405 
L 378.942852 208.132959 
L 380.028653 207.36764 
L 381.114454 207.538845 
L 382.200255 206.726497 
L 383.286057 207.916178 
L 384.371858 208.852454 
L 385.457659 209.062385 
L 386.54346 210.28629 
L 387.629261 210.231691 
L 388.715062 211.660535 
L 389.800863 211.782941 
L 390.886665 213.139027 
L 391.972466 213.869384 
L 393.058267 214.067042 
L 394.144068 214.705187 
L 395.229869 215.492274 
L 397.401472 216.245554 
L 398.487273 216.925703 
L 398.487273 216.925703 
" clip-path="url(#p39dd7c0f7d)" style="fill: none; stroke: #0000ff; stroke-opacity: 0.5; stroke-width: 2; stroke-linecap: square"/>
   </g>
   <g id="line2d_30">
    <path d="M 73.832727 219.10331 
L 74.918528 215.853192 
L 76.00433 214.029965 
L 77.090131 213.722098 
L 78.175932 206.85823 
L 79.261733 197.745566 
L 80.347534 194.802092 
L 81.433335 187.084118 
L 82.519137 194.340184 
L 83.604938 196.784905 
L 84.690739 195.553921 
L 85.77654 196.348427 
L 86.862341 197.764484 
L 87.948142 194.155821 
L 89.033943 191.322053 
L 90.119745 190.920303 
L 91.205546 189.899725 
L 93.377148 190.824345 
L 94.462949 188.429056 
L 95.54875 189.450851 
L 96.634552 190.635237 
L 97.720353 186.543377 
L 98.806154 190.190193 
L 99.891955 187.608594 
L 100.977756 184.537421 
L 102.063557 184.477833 
L 103.149358 191.233877 
L 104.23516 186.903994 
L 105.320961 185.395446 
L 106.406762 188.67323 
L 107.492563 183.623995 
L 108.578364 184.741026 
L 109.664165 186.91979 
L 110.749967 180.374144 
L 111.835768 178.266181 
L 112.921569 182.283491 
L 114.00737 184.635689 
L 115.093171 185.142291 
L 116.178972 186.218291 
L 117.264773 188.386695 
L 118.350575 190.287897 
L 119.436376 193.298618 
L 120.522177 187.374856 
L 121.607978 187.996555 
L 122.693779 185.718996 
L 123.77958 189.909662 
L 124.865382 180.528074 
L 125.951183 181.531292 
L 127.036984 180.923621 
L 128.122785 186.316617 
L 129.208586 189.040752 
L 130.294387 188.306713 
L 131.380189 186.282022 
L 132.46599 188.34423 
L 133.551791 184.992583 
L 134.637592 179.668044 
L 135.723393 180.65649 
L 136.809194 175.470533 
L 137.894995 180.163908 
L 138.980797 185.481712 
L 140.066598 189.031361 
L 141.152399 187.171987 
L 142.2382 183.330601 
L 143.324001 180.901321 
L 144.409802 181.085365 
L 145.495604 183.863492 
L 146.581405 182.24968 
L 147.667206 185.156231 
L 148.753007 185.780611 
L 149.838808 188.181465 
L 150.924609 185.032592 
L 152.01041 193.775741 
L 153.096212 189.155011 
L 154.182013 187.385687 
L 155.267814 186.167412 
L 156.353615 188.921701 
L 157.439416 187.399901 
L 158.525217 188.187956 
L 159.611019 189.720564 
L 160.69682 193.048219 
L 161.782621 195.359677 
L 162.868422 190.386184 
L 163.954223 191.438981 
L 165.040024 197.777424 
L 166.125825 197.125489 
L 167.211627 200.902629 
L 168.297428 199.771895 
L 169.383229 200.267073 
L 170.46903 201.861609 
L 172.640632 203.975674 
L 173.726434 204.675639 
L 174.812235 200.719144 
L 175.898036 199.443364 
L 176.983837 200.431686 
L 178.069638 195.44214 
L 179.155439 195.707645 
L 180.24124 194.495595 
L 181.327042 198.03044 
L 182.412843 197.793413 
L 183.498644 196.626162 
L 184.584445 194.869746 
L 185.670246 191.568569 
L 186.756047 192.897158 
L 187.841849 192.485408 
L 188.92765 190.653249 
L 190.013451 189.827981 
L 191.099252 189.837882 
L 192.185053 193.090237 
L 193.270854 190.828526 
L 194.356656 189.220424 
L 195.442457 192.21007 
L 196.528258 193.723435 
L 197.614059 198.048307 
L 198.69986 195.930985 
L 199.785661 193.057115 
L 200.871462 192.952305 
L 201.957264 196.623894 
L 203.043065 196.53906 
L 204.128866 195.777399 
L 205.214667 197.518769 
L 206.300468 202.128544 
L 208.472071 205.993237 
L 209.557872 204.456474 
L 210.643673 200.877831 
L 211.729474 200.928156 
L 212.815275 202.57713 
L 213.901076 197.00789 
L 214.986877 196.179657 
L 216.072679 191.457117 
L 217.15848 188.241017 
L 218.244281 188.111565 
L 220.415883 188.176048 
L 221.501684 185.697857 
L 222.587486 190.428916 
L 223.673287 190.395337 
L 224.759088 192.327208 
L 225.844889 191.633498 
L 226.93069 191.689581 
L 228.016491 192.70791 
L 229.102292 191.369815 
L 230.188094 194.524975 
L 231.273895 193.963247 
L 232.359696 192.973721 
L 233.445497 193.702312 
L 234.531298 196.351019 
L 235.617099 196.856049 
L 236.702901 197.203283 
L 237.788702 200.362295 
L 238.874503 204.069554 
L 239.960304 199.70123 
L 241.046105 202.789015 
L 242.131906 202.665562 
L 243.217708 204.23645 
L 244.303509 206.306808 
L 245.38931 206.119231 
L 246.475111 207.914354 
L 247.560912 207.018824 
L 248.646713 205.67023 
L 249.732514 208.73082 
L 250.818316 208.414752 
L 251.904117 209.957709 
L 252.989918 208.867631 
L 254.075719 207.437694 
L 255.16152 205.822523 
L 256.247321 208.679718 
L 257.333123 208.657276 
L 258.418924 212.563129 
L 259.504725 212.71759 
L 260.590526 213.891655 
L 261.676327 211.521196 
L 262.762128 211.642973 
L 263.847929 208.189678 
L 264.933731 208.528487 
L 266.019532 208.583575 
L 267.105333 205.698075 
L 268.191134 207.300276 
L 269.276935 211.270433 
L 270.362736 212.159963 
L 271.448538 213.767549 
L 272.534339 209.875916 
L 273.62014 207.433225 
L 274.705941 207.213985 
L 275.791742 208.808352 
L 276.877543 210.077656 
L 277.963344 210.659365 
L 279.049146 210.920276 
L 280.134947 212.431047 
L 281.220748 212.018272 
L 282.306549 213.130241 
L 283.39235 213.426034 
L 284.478151 211.119696 
L 285.563953 208.221657 
L 286.649754 203.697544 
L 287.735555 202.516371 
L 288.821356 202.415208 
L 290.992958 199.932384 
L 292.07876 200.993509 
L 293.164561 203.383417 
L 294.250362 206.270037 
L 295.336163 206.052678 
L 296.421964 203.385889 
L 297.507765 202.700324 
L 298.593566 204.73576 
L 300.765169 207.914149 
L 302.936771 208.210599 
L 304.022572 208.949589 
L 305.108373 208.739335 
L 306.194175 208.008884 
L 307.279976 205.298158 
L 308.365777 204.177902 
L 309.451578 201.438928 
L 310.537379 201.72926 
L 311.62318 203.029689 
L 312.708981 201.813451 
L 313.794783 201.468888 
L 314.880584 204.035845 
L 315.966385 203.130112 
L 317.052186 198.24296 
L 318.137987 199.774637 
L 319.223788 199.777059 
L 320.30959 203.565064 
L 321.395391 204.354808 
L 322.481192 202.453889 
L 323.566993 204.296626 
L 324.652794 203.572641 
L 325.738595 202.653337 
L 326.824396 203.3964 
L 327.910198 199.953258 
L 328.995999 198.619736 
L 330.0818 196.635949 
L 331.167601 196.331349 
L 332.253402 195.073203 
L 333.339203 197.118176 
L 334.425005 196.356463 
L 335.510806 195.304433 
L 336.596607 196.378486 
L 337.682408 196.483614 
L 338.768209 195.531217 
L 339.85401 196.504917 
L 340.939811 198.114028 
L 342.025613 198.084491 
L 343.111414 195.00858 
L 344.197215 195.078422 
L 345.283016 193.979264 
L 346.368817 195.185653 
L 347.454618 195.414474 
L 348.54042 195.958341 
L 349.626221 195.531908 
L 350.712022 195.387616 
L 352.883624 195.846071 
L 353.969425 195.284438 
L 355.055227 196.603693 
L 356.141028 195.8427 
L 357.226829 196.214762 
L 358.31263 195.46629 
L 360.484232 195.54456 
L 361.570033 195.986552 
L 362.655835 198.515615 
L 363.741636 199.518708 
L 364.827437 198.297843 
L 366.999039 199.661298 
L 369.170642 200.633674 
L 371.342244 199.44112 
L 372.428045 200.300582 
L 373.513846 201.911305 
L 374.599647 203.024369 
L 375.685448 202.882461 
L 376.77125 203.245097 
L 377.857051 203.269481 
L 378.942852 201.934958 
L 380.028653 201.525066 
L 381.114454 200.493457 
L 382.200255 200.404199 
L 383.286057 198.972552 
L 384.371858 200.325229 
L 386.54346 199.19716 
L 387.629261 198.933221 
L 388.715062 199.221868 
L 389.800863 199.30089 
L 390.886665 198.905746 
L 391.972466 198.170586 
L 393.058267 198.301799 
L 394.144068 198.303524 
L 395.229869 198.633029 
L 396.31567 198.799545 
L 397.401472 199.460431 
L 398.487273 195.590425 
L 398.487273 195.590425 
" clip-path="url(#p39dd7c0f7d)" style="fill: none; stroke: #000000; stroke-opacity: 0.5; stroke-width: 2; stroke-linecap: square"/>
   </g>
   <g id="line2d_31">
    <path d="M 73.832727 220.959646 
L 74.918528 216.939905 
L 76.00433 215.525952 
L 77.090131 211.470175 
L 78.175932 213.10095 
L 79.261733 204.132394 
L 80.347534 203.770574 
L 81.433335 205.866334 
L 82.519137 209.202319 
L 83.604938 212.064253 
L 84.690739 210.112277 
L 85.77654 211.898541 
L 87.948142 208.859701 
L 89.033943 208.473232 
L 90.119745 202.496223 
L 91.205546 207.155912 
L 92.291347 202.21165 
L 94.462949 198.504581 
L 95.54875 200.369648 
L 96.634552 203.262596 
L 97.720353 197.570441 
L 98.806154 193.545779 
L 99.891955 190.391904 
L 100.977756 188.881861 
L 102.063557 193.738426 
L 103.149358 193.153898 
L 104.23516 195.189261 
L 105.320961 195.240678 
L 106.406762 194.935514 
L 107.492563 191.806626 
L 109.664165 198.901473 
L 110.749967 203.518695 
L 111.835768 207.447376 
L 112.921569 208.441019 
L 114.00737 204.475975 
L 115.093171 205.219367 
L 116.178972 201.91334 
L 117.264773 203.089871 
L 118.350575 198.370631 
L 119.436376 202.974201 
L 120.522177 210.987156 
L 121.607978 209.862755 
L 122.693779 210.849104 
L 123.77958 205.843936 
L 124.865382 203.334941 
L 125.951183 206.586753 
L 127.036984 208.818813 
L 128.122785 203.476891 
L 129.208586 204.241442 
L 130.294387 201.861177 
L 131.380189 200.415698 
L 132.46599 201.449467 
L 133.551791 201.476554 
L 134.637592 196.499032 
L 136.809194 193.391009 
L 137.894995 192.217286 
L 138.980797 196.834626 
L 140.066598 196.574538 
L 141.152399 195.054716 
L 142.2382 199.205434 
L 143.324001 192.139868 
L 145.495604 203.303631 
L 146.581405 203.824816 
L 147.667206 202.518993 
L 148.753007 201.678433 
L 149.838808 196.456358 
L 150.924609 200.605666 
L 152.01041 199.782131 
L 153.096212 205.707848 
L 154.182013 209.149169 
L 155.267814 209.899621 
L 156.353615 212.612185 
L 157.439416 208.916417 
L 158.525217 208.261144 
L 159.611019 208.560755 
L 160.69682 209.126812 
L 161.782621 206.616124 
L 162.868422 207.614334 
L 163.954223 208.766915 
L 165.040024 202.613451 
L 166.125825 201.434791 
L 167.211627 192.702944 
L 168.297428 189.713305 
L 169.383229 187.07132 
L 170.46903 192.810893 
L 171.554831 192.856834 
L 172.640632 192.656909 
L 173.726434 192.342188 
L 175.898036 192.986229 
L 176.983837 198.433758 
L 178.069638 198.953545 
L 180.24124 203.089202 
L 181.327042 198.874578 
L 182.412843 195.619738 
L 183.498644 192.766477 
L 184.584445 191.050452 
L 185.670246 191.65786 
L 186.756047 195.898773 
L 187.841849 197.901532 
L 188.92765 198.631059 
L 190.013451 196.337918 
L 191.099252 193.321455 
L 192.185053 194.390666 
L 194.356656 187.407196 
L 195.442457 187.364973 
L 196.528258 187.048072 
L 197.614059 189.768452 
L 198.69986 191.665748 
L 199.785661 187.724584 
L 200.871462 190.191427 
L 201.957264 190.571004 
L 203.043065 194.708436 
L 204.128866 197.354677 
L 205.214667 193.909591 
L 206.300468 187.748534 
L 207.386269 186.040898 
L 208.472071 185.927449 
L 209.557872 183.307771 
L 210.643673 184.410949 
L 211.729474 187.013566 
L 212.815275 185.716491 
L 213.901076 186.281477 
L 214.986877 184.235206 
L 216.072679 188.261557 
L 217.15848 189.356559 
L 218.244281 186.694817 
L 219.330082 185.998369 
L 220.415883 186.140051 
L 221.501684 191.260714 
L 222.587486 191.294856 
L 223.673287 188.713771 
L 224.759088 182.820045 
L 225.844889 183.733617 
L 226.93069 183.084115 
L 228.016491 178.231542 
L 229.102292 177.78382 
L 230.188094 178.869757 
L 232.359696 185.4909 
L 233.445497 185.831538 
L 234.531298 186.292212 
L 235.617099 189.494415 
L 236.702901 193.660316 
L 237.788702 192.162497 
L 238.874503 193.644582 
L 239.960304 195.481189 
L 241.046105 195.933573 
L 242.131906 196.948286 
L 243.217708 201.62888 
L 244.303509 199.276502 
L 245.38931 202.558939 
L 246.475111 201.026176 
L 247.560912 201.611303 
L 248.646713 202.60909 
L 249.732514 197.14868 
L 250.818316 195.941161 
L 251.904117 196.566737 
L 252.989918 194.399306 
L 254.075719 198.606793 
L 255.16152 197.684609 
L 256.247321 195.958202 
L 257.333123 195.023317 
L 258.418924 196.453471 
L 259.504725 195.85241 
L 260.590526 188.354493 
L 261.676327 183.348742 
L 262.762128 185.246435 
L 263.847929 180.099059 
L 264.933731 184.330573 
L 266.019532 181.611123 
L 267.105333 183.748223 
L 268.191134 181.988479 
L 269.276935 182.895067 
L 270.362736 182.38139 
L 271.448538 187.178078 
L 272.534339 188.854572 
L 273.62014 191.516128 
L 274.705941 189.281452 
L 275.791742 188.012156 
L 276.877543 188.644421 
L 277.963344 190.263222 
L 279.049146 189.76589 
L 280.134947 190.677765 
L 281.220748 190.951794 
L 282.306549 193.21437 
L 283.39235 193.231444 
L 284.478151 193.917326 
L 286.649754 196.862717 
L 287.735555 198.965135 
L 288.821356 197.910984 
L 289.907157 197.41275 
L 290.992958 195.590296 
L 292.07876 197.799389 
L 293.164561 195.6856 
L 294.250362 197.473884 
L 295.336163 198.412902 
L 296.421964 195.118737 
L 297.507765 195.788524 
L 298.593566 198.289737 
L 299.679368 196.45736 
L 300.765169 200.43423 
L 301.85097 201.66554 
L 302.936771 201.874821 
L 304.022572 201.381323 
L 305.108373 202.746546 
L 306.194175 203.139367 
L 307.279976 199.877152 
L 308.365777 199.784084 
L 309.451578 197.171559 
L 310.537379 195.641194 
L 311.62318 193.000315 
L 312.708981 192.199682 
L 313.794783 190.661581 
L 314.880584 192.828736 
L 315.966385 192.164127 
L 317.052186 192.359732 
L 318.137987 191.901247 
L 319.223788 189.609561 
L 320.30959 191.135392 
L 321.395391 195.406668 
L 322.481192 195.125348 
L 323.566993 194.678234 
L 324.652794 196.036888 
L 325.738595 197.869423 
L 327.910198 200.443803 
L 328.995999 199.768181 
L 330.0818 197.509312 
L 331.167601 196.677484 
L 332.253402 198.15138 
L 333.339203 197.855769 
L 334.425005 194.990976 
L 335.510806 196.577616 
L 336.596607 198.917049 
L 337.682408 198.292102 
L 338.768209 198.768076 
L 342.025613 197.452133 
L 343.111414 199.284995 
L 344.197215 200.68038 
L 345.283016 202.78385 
L 346.368817 199.437367 
L 347.454618 199.317135 
L 348.54042 198.611426 
L 349.626221 196.490927 
L 350.712022 197.442353 
L 351.797823 197.667542 
L 352.883624 198.012118 
L 353.969425 197.199557 
L 355.055227 199.586718 
L 356.141028 199.104886 
L 357.226829 201.437407 
L 358.31263 201.742947 
L 359.398431 201.355895 
L 360.484232 201.769891 
L 361.570033 200.627147 
L 362.655835 198.488535 
L 363.741636 198.545975 
L 364.827437 196.947416 
L 365.913238 196.445084 
L 366.999039 197.480263 
L 368.08484 197.159935 
L 369.170642 198.346132 
L 370.256443 198.874051 
L 371.342244 198.681884 
L 373.513846 199.226291 
L 374.599647 199.918737 
L 375.685448 197.403122 
L 376.77125 197.362795 
L 377.857051 198.683122 
L 378.942852 198.078665 
L 381.114454 198.429813 
L 382.200255 197.397091 
L 383.286057 198.220679 
L 384.371858 198.248977 
L 385.457659 197.912461 
L 386.54346 198.127033 
L 388.715062 199.480629 
L 390.886665 199.035739 
L 391.972466 198.610824 
L 393.058267 199.266788 
L 394.144068 198.760792 
L 395.229869 199.662101 
L 396.31567 200.033123 
L 397.401472 204.127389 
L 398.487273 178.50103 
L 398.487273 178.50103 
" clip-path="url(#p39dd7c0f7d)" style="fill: none; stroke: #000000; stroke-opacity: 0.5; stroke-width: 2; stroke-linecap: square"/>
   </g>
   <g id="line2d_32">
    <path d="M 73.832727 194.041341 
L 74.918528 195.696861 
L 76.00433 199.481624 
L 77.090131 199.503529 
L 78.175932 196.345058 
L 79.261733 197.571332 
L 80.347534 198.33837 
L 81.433335 199.444835 
L 82.519137 196.981018 
L 83.604938 195.136854 
L 84.690739 196.150412 
L 85.77654 201.188873 
L 86.862341 202.344266 
L 87.948142 203.774496 
L 90.119745 203.896567 
L 91.205546 208.89185 
L 92.291347 204.109874 
L 93.377148 205.036327 
L 94.462949 205.802887 
L 95.54875 208.057762 
L 96.634552 206.626696 
L 97.720353 200.649268 
L 98.806154 196.641557 
L 99.891955 191.388677 
L 100.977756 194.51508 
L 102.063557 193.677879 
L 103.149358 191.770426 
L 104.23516 192.563951 
L 105.320961 188.912572 
L 106.406762 188.185034 
L 107.492563 193.353645 
L 108.578364 193.603916 
L 109.664165 195.97001 
L 110.749967 199.725493 
L 111.835768 200.786126 
L 112.921569 200.818519 
L 114.00737 196.643339 
L 115.093171 198.207632 
L 116.178972 201.658467 
L 117.264773 198.589443 
L 118.350575 201.899363 
L 119.436376 202.702327 
L 120.522177 200.3524 
L 121.607978 203.244119 
L 122.693779 205.377241 
L 123.77958 209.117449 
L 124.865382 206.921762 
L 125.951183 206.887874 
L 127.036984 207.284905 
L 128.122785 209.580637 
L 129.208586 206.064783 
L 130.294387 203.290205 
L 131.380189 199.78585 
L 132.46599 199.234239 
L 133.551791 199.285776 
L 134.637592 200.815424 
L 135.723393 200.44784 
L 136.809194 198.63285 
L 137.894995 199.460765 
L 138.980797 199.258326 
L 141.152399 200.223165 
L 142.2382 200.897546 
L 143.324001 199.53432 
L 144.409802 201.260642 
L 145.495604 198.285951 
L 146.581405 205.658559 
L 147.667206 203.010335 
L 148.753007 202.378214 
L 149.838808 203.550606 
L 150.924609 201.752064 
L 152.01041 202.364364 
L 153.096212 204.287835 
L 154.182013 204.436869 
L 155.267814 203.977926 
L 156.353615 203.681362 
L 157.439416 199.146139 
L 158.525217 199.094298 
L 159.611019 202.110816 
L 160.69682 197.809142 
L 161.782621 196.186023 
L 162.868422 201.348726 
L 163.954223 198.734685 
L 165.040024 201.670356 
L 166.125825 203.315062 
L 167.211627 201.348277 
L 168.297428 202.687984 
L 169.383229 202.447974 
L 170.46903 205.490493 
L 171.554831 205.063023 
L 172.640632 205.114619 
L 173.726434 205.901972 
L 174.812235 207.104037 
L 175.898036 206.892732 
L 176.983837 210.924961 
L 178.069638 212.640772 
L 179.155439 210.405186 
L 180.24124 210.284731 
L 181.327042 215.34293 
L 182.412843 214.231611 
L 183.498644 220.384145 
L 184.584445 220.857874 
L 185.670246 219.65144 
L 186.756047 216.065123 
L 188.92765 216.050138 
L 190.013451 220.918376 
L 191.099252 221.56998 
L 192.185053 222.956887 
L 193.270854 225.837763 
L 194.356656 224.839516 
L 195.442457 222.567048 
L 196.528258 221.602264 
L 197.614059 225.955779 
L 198.69986 224.134436 
L 199.785661 222.945153 
L 200.871462 221.093393 
L 201.957264 216.173059 
L 203.043065 214.920733 
L 204.128866 215.356411 
L 205.214667 216.7852 
L 206.300468 219.073999 
L 207.386269 215.763741 
L 208.472071 213.94591 
L 209.557872 214.294633 
L 210.643673 215.371577 
L 211.729474 217.430205 
L 212.815275 215.898303 
L 213.901076 214.624233 
L 214.986877 205.936903 
L 216.072679 203.952674 
L 217.15848 201.630191 
L 218.244281 203.913573 
L 219.330082 207.682777 
L 220.415883 206.729504 
L 221.501684 204.921841 
L 222.587486 202.544361 
L 223.673287 199.074825 
L 224.759088 202.756124 
L 225.844889 202.288323 
L 226.93069 200.944336 
L 228.016491 198.674638 
L 229.102292 194.512091 
L 230.188094 196.159512 
L 231.273895 196.552489 
L 232.359696 200.698182 
L 233.445497 200.171369 
L 234.531298 197.068577 
L 235.617099 201.717841 
L 236.702901 201.137981 
L 237.788702 200.379458 
L 238.874503 198.212275 
L 239.960304 195.555055 
L 241.046105 196.16569 
L 242.131906 197.989488 
L 243.217708 198.039179 
L 244.303509 197.019615 
L 245.38931 195.842814 
L 247.560912 200.119731 
L 249.732514 196.365869 
L 250.818316 196.315189 
L 251.904117 198.426021 
L 252.989918 195.318718 
L 254.075719 196.742436 
L 255.16152 199.335902 
L 257.333123 200.754926 
L 258.418924 200.52161 
L 259.504725 199.972574 
L 260.590526 203.019584 
L 261.676327 202.476025 
L 262.762128 203.087734 
L 263.847929 199.625405 
L 264.933731 198.760377 
L 266.019532 197.682303 
L 268.191134 201.171833 
L 269.276935 200.613987 
L 270.362736 200.375485 
L 271.448538 200.301659 
L 272.534339 197.902497 
L 273.62014 200.489877 
L 274.705941 201.666269 
L 275.791742 201.925057 
L 276.877543 202.65827 
L 277.963344 205.105651 
L 279.049146 206.367461 
L 280.134947 203.431314 
L 281.220748 201.536323 
L 283.39235 205.084348 
L 284.478151 204.674191 
L 285.563953 204.427301 
L 286.649754 206.100635 
L 287.735555 204.070116 
L 288.821356 204.576824 
L 289.907157 202.903458 
L 290.992958 204.669842 
L 292.07876 205.89516 
L 293.164561 205.458455 
L 294.250362 202.090204 
L 295.336163 204.469946 
L 296.421964 204.566206 
L 297.507765 205.664783 
L 298.593566 202.735986 
L 299.679368 200.930316 
L 301.85097 202.917824 
L 302.936771 201.408477 
L 304.022572 202.872312 
L 305.108373 204.782041 
L 306.194175 204.171258 
L 307.279976 206.202544 
L 308.365777 202.941279 
L 309.451578 203.093352 
L 310.537379 204.698194 
L 311.62318 201.533269 
L 312.708981 201.519559 
L 314.880584 205.2866 
L 315.966385 205.416538 
L 317.052186 205.00319 
L 318.137987 206.636548 
L 319.223788 205.8497 
L 320.30959 204.675574 
L 321.395391 205.869917 
L 322.481192 205.362319 
L 323.566993 201.9717 
L 324.652794 201.504263 
L 325.738595 200.75566 
L 326.824396 201.819443 
L 327.910198 200.70384 
L 328.995999 199.984414 
L 330.0818 200.767161 
L 331.167601 200.053162 
L 332.253402 199.012715 
L 333.339203 201.120064 
L 334.425005 199.086927 
L 335.510806 196.323617 
L 336.596607 197.830245 
L 337.682408 195.581762 
L 339.85401 196.284296 
L 340.939811 196.359085 
L 342.025613 197.376634 
L 343.111414 196.02472 
L 344.197215 197.489938 
L 345.283016 198.347039 
L 346.368817 197.62492 
L 347.454618 197.158209 
L 348.54042 198.589004 
L 349.626221 198.329456 
L 350.712022 197.616187 
L 351.797823 198.089473 
L 352.883624 200.152291 
L 353.969425 199.432114 
L 355.055227 199.871987 
L 356.141028 199.811142 
L 357.226829 201.455218 
L 358.31263 200.375387 
L 359.398431 201.301881 
L 360.484232 202.647202 
L 361.570033 202.941211 
L 363.741636 201.793792 
L 364.827437 202.102437 
L 365.913238 201.304103 
L 366.999039 199.177628 
L 368.08484 198.837246 
L 369.170642 199.017234 
L 370.256443 198.106256 
L 371.342244 200.167233 
L 372.428045 199.731977 
L 374.599647 201.379241 
L 375.685448 199.634959 
L 376.77125 199.706618 
L 377.857051 199.591268 
L 378.942852 200.096514 
L 380.028653 199.294633 
L 382.200255 199.396152 
L 383.286057 197.832216 
L 384.371858 197.827729 
L 385.457659 198.293453 
L 386.54346 198.428572 
L 387.629261 197.9679 
L 388.715062 198.646851 
L 389.800863 198.080113 
L 391.972466 197.763076 
L 393.058267 198.499229 
L 394.144068 198.313148 
L 395.229869 199.269484 
L 396.31567 199.422751 
L 397.401472 200.709641 
L 398.487273 187.585568 
L 398.487273 187.585568 
" clip-path="url(#p39dd7c0f7d)" style="fill: none; stroke: #000000; stroke-opacity: 0.5; stroke-width: 2; stroke-linecap: square"/>
   </g>
   <g id="line2d_33">
    <path d="M 73.832727 200.167221 
L 76.00433 201.382312 
L 77.090131 195.88668 
L 78.175932 191.400653 
L 79.261733 189.852267 
L 80.347534 198.279016 
L 81.433335 193.187787 
L 82.519137 192.146331 
L 83.604938 191.870285 
L 84.690739 190.870893 
L 85.77654 190.886928 
L 86.862341 197.039779 
L 87.948142 193.238536 
L 90.119745 182.569882 
L 91.205546 184.181906 
L 92.291347 183.498754 
L 93.377148 177.190808 
L 95.54875 170.464825 
L 96.634552 162.638983 
L 97.720353 160.801893 
L 98.806154 161.795499 
L 99.891955 155.266538 
L 100.977756 155.384492 
L 102.063557 153.937909 
L 103.149358 155.177345 
L 104.23516 152.37969 
L 105.320961 151.688805 
L 106.406762 151.638867 
L 107.492563 153.478978 
L 111.835768 136.70739 
L 112.921569 131.186293 
L 114.00737 130.50284 
L 115.093171 130.362486 
L 116.178972 134.245026 
L 117.264773 132.581985 
L 118.350575 137.610328 
L 119.436376 137.404454 
L 120.522177 144.508012 
L 121.607978 143.804698 
L 122.693779 144.349197 
L 123.77958 146.680752 
L 124.865382 148.640569 
L 125.951183 149.401993 
L 127.036984 146.796166 
L 128.122785 152.197034 
L 130.294387 142.317987 
L 131.380189 144.284376 
L 132.46599 144.998644 
L 133.551791 145.141508 
L 135.723393 149.818734 
L 136.809194 148.172618 
L 137.894995 151.830156 
L 138.980797 154.530485 
L 140.066598 155.808117 
L 141.152399 157.421217 
L 142.2382 158.004634 
L 143.324001 151.980486 
L 144.409802 155.838743 
L 145.495604 151.908578 
L 146.581405 156.274914 
L 147.667206 156.859245 
L 149.838808 165.059228 
L 150.924609 162.770515 
L 153.096212 161.257723 
L 154.182013 161.521454 
L 155.267814 165.638005 
L 156.353615 164.062712 
L 158.525217 156.735901 
L 159.611019 155.7096 
L 160.69682 159.868817 
L 161.782621 161.829678 
L 162.868422 158.949604 
L 163.954223 153.705462 
L 165.040024 153.774999 
L 166.125825 154.044775 
L 167.211627 157.045238 
L 168.297428 156.763652 
L 169.383229 161.456059 
L 171.554831 164.769281 
L 172.640632 168.598921 
L 173.726434 168.708638 
L 174.812235 169.860245 
L 175.898036 165.926032 
L 176.983837 167.857642 
L 178.069638 167.038506 
L 179.155439 163.272637 
L 180.24124 161.225097 
L 181.327042 158.256567 
L 182.412843 152.708116 
L 183.498644 153.808684 
L 184.584445 156.333311 
L 185.670246 157.671324 
L 186.756047 160.429866 
L 187.841849 158.065854 
L 188.92765 162.630234 
L 190.013451 159.908204 
L 192.185053 170.947857 
L 193.270854 168.874139 
L 194.356656 169.825725 
L 195.442457 168.926958 
L 196.528258 168.936138 
L 197.614059 169.619271 
L 198.69986 168.530672 
L 199.785661 169.861714 
L 200.871462 171.925245 
L 201.957264 173.375326 
L 203.043065 178.227187 
L 204.128866 177.021771 
L 205.214667 173.958952 
L 206.300468 172.7514 
L 207.386269 169.001639 
L 208.472071 164.641326 
L 209.557872 164.250751 
L 210.643673 164.819609 
L 211.729474 161.334475 
L 212.815275 161.58688 
L 214.986877 155.63864 
L 216.072679 156.864116 
L 217.15848 157.240508 
L 218.244281 163.028921 
L 219.330082 166.877293 
L 220.415883 167.624314 
L 221.501684 168.675064 
L 222.587486 166.693174 
L 223.673287 169.72322 
L 224.759088 164.978001 
L 225.844889 168.123242 
L 226.93069 170.384765 
L 228.016491 171.839665 
L 229.102292 172.442794 
L 230.188094 170.070723 
L 231.273895 168.984405 
L 232.359696 173.024434 
L 233.445497 175.177758 
L 234.531298 175.212716 
L 235.617099 173.073928 
L 236.702901 169.169554 
L 237.788702 164.425702 
L 239.960304 160.422172 
L 241.046105 157.718852 
L 242.131906 156.155595 
L 243.217708 156.686135 
L 244.303509 155.865993 
L 245.38931 158.261146 
L 246.475111 159.117156 
L 247.560912 158.165634 
L 248.646713 156.150863 
L 249.732514 156.650795 
L 250.818316 155.470604 
L 251.904117 155.178793 
L 252.989918 159.460136 
L 254.075719 158.346047 
L 255.16152 159.126539 
L 256.247321 157.815509 
L 258.418924 154.454067 
L 259.504725 157.227842 
L 260.590526 156.123469 
L 261.676327 158.600497 
L 262.762128 160.674647 
L 263.847929 156.518278 
L 264.933731 153.743386 
L 266.019532 155.183041 
L 267.105333 157.096517 
L 268.191134 157.797948 
L 269.276935 161.140653 
L 270.362736 161.166002 
L 271.448538 158.320957 
L 272.534339 156.356424 
L 273.62014 156.76814 
L 274.705941 156.931402 
L 275.791742 154.251248 
L 276.877543 154.659554 
L 277.963344 151.643627 
L 279.049146 149.361106 
L 280.134947 150.788477 
L 281.220748 154.561604 
L 282.306549 154.697708 
L 283.39235 153.522411 
L 284.478151 155.611557 
L 285.563953 155.744629 
L 286.649754 155.628846 
L 287.735555 154.156135 
L 288.821356 151.428011 
L 289.907157 154.188639 
L 290.992958 154.222968 
L 292.07876 154.756255 
L 293.164561 155.776319 
L 294.250362 158.18513 
L 295.336163 158.384388 
L 296.421964 159.304321 
L 297.507765 163.002254 
L 298.593566 164.135674 
L 299.679368 164.715013 
L 300.765169 162.97821 
L 301.85097 161.545927 
L 302.936771 162.425689 
L 304.022572 160.413885 
L 305.108373 157.637709 
L 306.194175 160.536651 
L 307.279976 159.425754 
L 308.365777 160.370967 
L 309.451578 157.724834 
L 310.537379 157.433159 
L 311.62318 156.164574 
L 312.708981 155.068634 
L 313.794783 154.494658 
L 314.880584 153.695534 
L 315.966385 154.579985 
L 317.052186 153.728305 
L 318.137987 153.749997 
L 319.223788 155.316227 
L 320.30959 154.001587 
L 321.395391 153.131182 
L 322.481192 151.222507 
L 323.566993 150.119713 
L 324.652794 151.930241 
L 325.738595 151.857198 
L 326.824396 152.940461 
L 327.910198 151.583191 
L 328.995999 151.216093 
L 330.0818 148.992145 
L 331.167601 148.555452 
L 332.253402 152.053139 
L 334.425005 156.300405 
L 335.510806 154.333547 
L 336.596607 156.994514 
L 337.682408 156.821077 
L 338.768209 155.989397 
L 339.85401 154.101795 
L 340.939811 153.934598 
L 342.025613 152.406555 
L 344.197215 154.657416 
L 345.283016 155.015138 
L 346.368817 154.973339 
L 347.454618 153.052143 
L 348.54042 152.881619 
L 349.626221 150.741053 
L 350.712022 152.919553 
L 351.797823 155.588375 
L 352.883624 155.566299 
L 353.969425 155.144664 
L 355.055227 155.131829 
L 356.141028 154.897098 
L 358.31263 153.767714 
L 359.398431 152.738305 
L 360.484232 152.47172 
L 361.570033 154.328074 
L 362.655835 153.298687 
L 363.741636 154.797034 
L 364.827437 155.329004 
L 365.913238 156.90073 
L 366.999039 154.852301 
L 368.08484 153.425675 
L 369.170642 153.268223 
L 370.256443 151.942753 
L 371.342244 151.361242 
L 372.428045 152.602627 
L 373.513846 152.530929 
L 374.599647 151.533095 
L 375.685448 152.06217 
L 377.857051 150.26632 
L 378.942852 149.767444 
L 380.028653 150.333595 
L 381.114454 148.995365 
L 382.200255 149.771042 
L 383.286057 149.047867 
L 385.457659 148.537916 
L 386.54346 149.098346 
L 387.629261 149.961069 
L 388.715062 149.730088 
L 389.800863 150.902199 
L 390.886665 151.285289 
L 391.972466 151.034139 
L 395.229869 150.931131 
L 396.31567 152.091862 
L 397.401472 156.076555 
L 398.487273 127.054906 
L 398.487273 127.054906 
" clip-path="url(#p39dd7c0f7d)" style="fill: none; stroke: #000000; stroke-opacity: 0.5; stroke-width: 2; stroke-linecap: square"/>
   </g>
   <g id="line2d_34">
    <path d="M 73.832727 182.296457 
L 74.918528 178.585882 
L 77.090131 175.574543 
L 78.175932 180.343094 
L 79.261733 179.294866 
L 80.347534 179.05283 
L 81.433335 179.916538 
L 82.519137 179.871581 
L 83.604938 175.628201 
L 84.690739 173.550505 
L 85.77654 166.035432 
L 86.862341 166.148141 
L 87.948142 164.892943 
L 89.033943 165.308151 
L 90.119745 172.623238 
L 91.205546 169.649248 
L 92.291347 169.3839 
L 93.377148 168.607593 
L 94.462949 172.097668 
L 95.54875 169.835343 
L 96.634552 171.768898 
L 97.720353 171.824367 
L 98.806154 172.448851 
L 99.891955 166.197485 
L 100.977756 166.777547 
L 102.063557 161.956434 
L 103.149358 159.340885 
L 104.23516 158.194845 
L 105.320961 157.973435 
L 106.406762 155.16794 
L 107.492563 156.573242 
L 108.578364 154.394921 
L 109.664165 155.129103 
L 110.749967 160.340027 
L 111.835768 162.298942 
L 112.921569 161.695482 
L 114.00737 164.302881 
L 115.093171 162.146312 
L 116.178972 162.924852 
L 117.264773 162.300771 
L 118.350575 163.199977 
L 119.436376 161.874822 
L 120.522177 155.846674 
L 121.607978 151.525239 
L 122.693779 158.158766 
L 123.77958 159.56776 
L 124.865382 159.619879 
L 125.951183 161.107384 
L 127.036984 167.810759 
L 128.122785 166.700295 
L 129.208586 169.972869 
L 130.294387 171.49373 
L 131.380189 174.086811 
L 132.46599 173.399 
L 133.551791 176.818092 
L 134.637592 181.283789 
L 135.723393 179.538708 
L 136.809194 180.919062 
L 137.894995 181.915055 
L 138.980797 187.976974 
L 140.066598 182.019369 
L 141.152399 182.151763 
L 142.2382 183.756253 
L 143.324001 182.335342 
L 144.409802 185.608874 
L 145.495604 190.88866 
L 146.581405 183.927061 
L 147.667206 182.859658 
L 148.753007 186.093553 
L 149.838808 184.496476 
L 150.924609 180.725186 
L 152.01041 185.756245 
L 153.096212 189.157368 
L 154.182013 186.33233 
L 155.267814 181.64001 
L 156.353615 183.751258 
L 157.439416 180.759164 
L 158.525217 183.833907 
L 159.611019 184.66237 
L 160.69682 186.115624 
L 161.782621 188.250527 
L 162.868422 184.174599 
L 163.954223 184.124028 
L 165.040024 185.26424 
L 166.125825 185.859468 
L 167.211627 189.207925 
L 168.297428 185.774766 
L 169.383229 188.678119 
L 170.46903 189.758755 
L 171.554831 188.636779 
L 172.640632 187.744855 
L 173.726434 191.753005 
L 174.812235 192.138852 
L 175.898036 196.892272 
L 176.983837 194.809177 
L 178.069638 194.594337 
L 179.155439 194.836474 
L 180.24124 191.015977 
L 181.327042 191.515184 
L 182.412843 193.438687 
L 183.498644 192.536267 
L 184.584445 192.816011 
L 185.670246 189.327821 
L 186.756047 182.839001 
L 187.841849 184.2864 
L 188.92765 184.74331 
L 190.013451 183.940349 
L 191.099252 188.702878 
L 192.185053 188.356972 
L 193.270854 185.782057 
L 194.356656 182.250189 
L 195.442457 182.486873 
L 196.528258 180.749339 
L 197.614059 184.576395 
L 198.69986 185.043562 
L 199.785661 186.314268 
L 201.957264 179.277952 
L 203.043065 178.362096 
L 204.128866 180.806916 
L 205.214667 180.387103 
L 206.300468 180.699147 
L 207.386269 179.973863 
L 208.472071 188.084814 
L 209.557872 190.281841 
L 210.643673 184.368234 
L 211.729474 184.161708 
L 212.815275 185.476881 
L 213.901076 187.481523 
L 216.072679 187.560886 
L 217.15848 188.374796 
L 219.330082 183.435731 
L 220.415883 186.782381 
L 221.501684 185.104463 
L 222.587486 186.188995 
L 223.673287 185.59658 
L 224.759088 185.25693 
L 225.844889 185.926778 
L 226.93069 187.06587 
L 228.016491 182.881917 
L 229.102292 179.177993 
L 230.188094 184.133274 
L 231.273895 183.855108 
L 232.359696 182.633642 
L 233.445497 180.927062 
L 234.531298 184.483077 
L 235.617099 184.743747 
L 236.702901 183.835845 
L 237.788702 183.1797 
L 238.874503 181.596751 
L 239.960304 181.468721 
L 241.046105 178.026844 
L 242.131906 175.846011 
L 243.217708 179.986732 
L 244.303509 177.895047 
L 245.38931 174.753498 
L 246.475111 174.413799 
L 247.560912 175.200697 
L 248.646713 174.95338 
L 249.732514 172.682206 
L 250.818316 173.554027 
L 251.904117 174.830784 
L 252.989918 179.019329 
L 254.075719 179.673035 
L 255.16152 182.570103 
L 256.247321 183.979832 
L 257.333123 183.363946 
L 259.504725 183.184031 
L 260.590526 181.275009 
L 261.676327 183.883824 
L 262.762128 182.057977 
L 263.847929 184.338878 
L 264.933731 183.331923 
L 267.105333 184.928337 
L 268.191134 184.587235 
L 269.276935 184.577738 
L 270.362736 184.732844 
L 271.448538 187.489941 
L 272.534339 191.048995 
L 273.62014 192.478779 
L 274.705941 190.457978 
L 275.791742 192.324101 
L 276.877543 192.441122 
L 277.963344 191.059285 
L 279.049146 191.370223 
L 280.134947 189.604462 
L 281.220748 189.698334 
L 282.306549 188.998727 
L 283.39235 189.100238 
L 284.478151 188.730016 
L 285.563953 184.103365 
L 286.649754 186.443654 
L 287.735555 187.46692 
L 288.821356 184.414268 
L 289.907157 185.9087 
L 290.992958 188.471123 
L 292.07876 188.159009 
L 293.164561 188.483927 
L 294.250362 191.735375 
L 295.336163 192.433821 
L 296.421964 194.360806 
L 297.507765 195.739891 
L 298.593566 196.724659 
L 299.679368 195.716215 
L 300.765169 193.932127 
L 301.85097 195.699967 
L 302.936771 194.840785 
L 304.022572 193.582155 
L 305.108373 193.9477 
L 306.194175 194.478222 
L 307.279976 193.251712 
L 308.365777 194.393009 
L 309.451578 193.106638 
L 310.537379 193.856478 
L 311.62318 197.040393 
L 312.708981 198.409488 
L 313.794783 197.819134 
L 314.880584 199.124126 
L 315.966385 195.317538 
L 317.052186 194.889533 
L 319.223788 200.30894 
L 320.30959 201.29154 
L 321.395391 198.793305 
L 322.481192 201.149477 
L 323.566993 199.097757 
L 324.652794 198.818529 
L 325.738595 197.406452 
L 326.824396 199.480354 
L 327.910198 202.126523 
L 328.995999 201.012165 
L 330.0818 200.475749 
L 331.167601 199.414556 
L 332.253402 198.771967 
L 333.339203 199.854496 
L 334.425005 197.325347 
L 335.510806 200.089445 
L 336.596607 198.103388 
L 337.682408 200.648359 
L 339.85401 199.840228 
L 340.939811 198.221525 
L 342.025613 198.366237 
L 343.111414 198.720514 
L 344.197215 199.197214 
L 345.283016 198.928767 
L 346.368817 198.002048 
L 347.454618 195.638052 
L 348.54042 196.774048 
L 349.626221 196.494791 
L 350.712022 195.546703 
L 352.883624 195.497592 
L 353.969425 195.597126 
L 355.055227 197.204681 
L 356.141028 195.79165 
L 357.226829 195.275986 
L 358.31263 196.855942 
L 359.398431 197.011318 
L 360.484232 198.529575 
L 361.570033 197.280486 
L 362.655835 197.94588 
L 363.741636 197.418493 
L 364.827437 197.833309 
L 365.913238 196.781182 
L 366.999039 197.484121 
L 368.08484 199.698172 
L 369.170642 197.985226 
L 370.256443 200.033382 
L 371.342244 199.052436 
L 372.428045 199.321221 
L 373.513846 201.237776 
L 374.599647 200.896344 
L 375.685448 200.248864 
L 376.77125 199.736641 
L 377.857051 202.650117 
L 378.942852 202.09755 
L 380.028653 200.731786 
L 381.114454 201.183988 
L 382.200255 199.375193 
L 383.286057 199.355387 
L 384.371858 198.841473 
L 385.457659 200.07302 
L 386.54346 199.244759 
L 387.629261 198.822964 
L 388.715062 199.017974 
L 389.800863 198.094217 
L 390.886665 199.149112 
L 391.972466 198.77392 
L 393.058267 198.777023 
L 395.229869 199.274723 
L 396.31567 199.84007 
L 397.401472 204.308883 
L 398.487273 176.620473 
L 398.487273 176.620473 
" clip-path="url(#p39dd7c0f7d)" style="fill: none; stroke: #000000; stroke-opacity: 0.5; stroke-width: 2; stroke-linecap: square"/>
   </g>
   <g id="LineCollection_1">
    <path d="M 228.016491 295.488 
L 228.016491 53.568 
" clip-path="url(#p39dd7c0f7d)" style="fill: none; stroke-dasharray: 7.4,3.2; stroke-dashoffset: 0; stroke: #ff0000; stroke-width: 2"/>
   </g>
   <g id="patch_3">
    <path d="M 57.6 307.584 
L 57.6 41.472 
" style="fill: none; stroke: #bcbcbc; stroke-width: 0.8; stroke-linejoin: miter; stroke-linecap: square"/>
   </g>
   <g id="patch_4">
    <path d="M 414.72 307.584 
L 414.72 41.472 
" style="fill: none; stroke: #bcbcbc; stroke-width: 0.8; stroke-linejoin: miter; stroke-linecap: square"/>
   </g>
   <g id="patch_5">
    <path d="M 57.6 307.584 
L 414.72 307.584 
" style="fill: none; stroke: #bcbcbc; stroke-width: 0.8; stroke-linejoin: miter; stroke-linecap: square"/>
   </g>
   <g id="patch_6">
    <path d="M 57.6 41.472 
L 414.72 41.472 
" style="fill: none; stroke: #bcbcbc; stroke-width: 0.8; stroke-linejoin: miter; stroke-linecap: square"/>
   </g>
   <g id="text_15">
    <!-- Trajectorie plot of critical time n = 5000 -->
    <g transform="translate(92.38725 35.472) scale(0.144 -0.144)">
     <defs>
      <path id="DejaVuSans-54" d="M -19 4666 
L 3928 4666 
L 3928 4134 
L 2272 4134 
L 2272 0 
L 1638 0 
L 1638 4134 
L -19 4134 
L -19 4666 
z
" transform="scale(0.015625)"/>
      <path id="DejaVuSans-72" d="M 2631 2963 
Q 2534 3019 2420 3045 
Q 2306 3072 2169 3072 
Q 1681 3072 1420 2755 
Q 1159 2438 1159 1844 
L 1159 0 
L 581 0 
L 581 3500 
L 1159 3500 
L 1159 2956 
Q 1341 3275 1631 3429 
Q 1922 3584 2338 3584 
Q 2397 3584 2469 3576 
Q 2541 3569 2628 3553 
L 2631 2963 
z
" transform="scale(0.015625)"/>
      <path id="DejaVuSans-61" d="M 2194 1759 
Q 1497 1759 1228 1600 
Q 959 1441 959 1056 
Q 959 750 1161 570 
Q 1363 391 1709 391 
Q 2188 391 2477 730 
Q 2766 1069 2766 1631 
L 2766 1759 
L 2194 1759 
z
M 3341 1997 
L 3341 0 
L 2766 0 
L 2766 531 
Q 2569 213 2275 61 
Q 1981 -91 1556 -91 
Q 1019 -91 701 211 
Q 384 513 384 1019 
Q 384 1609 779 1909 
Q 1175 2209 1959 2209 
L 2766 2209 
L 2766 2266 
Q 2766 2663 2505 2880 
Q 2244 3097 1772 3097 
Q 1472 3097 1187 3025 
Q 903 2953 641 2809 
L 641 3341 
Q 956 3463 1253 3523 
Q 1550 3584 1831 3584 
Q 2591 3584 2966 3190 
Q 3341 2797 3341 1997 
z
" transform="scale(0.015625)"/>
      <path id="DejaVuSans-6a" d="M 603 3500 
L 1178 3500 
L 1178 -63 
Q 1178 -731 923 -1031 
Q 669 -1331 103 -1331 
L -116 -1331 
L -116 -844 
L 38 -844 
Q 366 -844 484 -692 
Q 603 -541 603 -63 
L 603 3500 
z
M 603 4863 
L 1178 4863 
L 1178 4134 
L 603 4134 
L 603 4863 
z
" transform="scale(0.015625)"/>
      <path id="DejaVuSans-65" d="M 3597 1894 
L 3597 1613 
L 953 1613 
Q 991 1019 1311 708 
Q 1631 397 2203 397 
Q 2534 397 2845 478 
Q 3156 559 3463 722 
L 3463 178 
Q 3153 47 2828 -22 
Q 2503 -91 2169 -91 
Q 1331 -91 842 396 
Q 353 884 353 1716 
Q 353 2575 817 3079 
Q 1281 3584 2069 3584 
Q 2775 3584 3186 3129 
Q 3597 2675 3597 1894 
z
M 3022 2063 
Q 3016 2534 2758 2815 
Q 2500 3097 2075 3097 
Q 1594 3097 1305 2825 
Q 1016 2553 972 2059 
L 3022 2063 
z
" transform="scale(0.015625)"/>
      <path id="DejaVuSans-63" d="M 3122 3366 
L 3122 2828 
Q 2878 2963 2633 3030 
Q 2388 3097 2138 3097 
Q 1578 3097 1268 2742 
Q 959 2388 959 1747 
Q 959 1106 1268 751 
Q 1578 397 2138 397 
Q 2388 397 2633 464 
Q 2878 531 3122 666 
L 3122 134 
Q 2881 22 2623 -34 
Q 2366 -91 2075 -91 
Q 1284 -91 818 406 
Q 353 903 353 1747 
Q 353 2603 823 3093 
Q 1294 3584 2113 3584 
Q 2378 3584 2631 3529 
Q 2884 3475 3122 3366 
z
" transform="scale(0.015625)"/>
      <path id="DejaVuSans-74" d="M 1172 4494 
L 1172 3500 
L 2356 3500 
L 2356 3053 
L 1172 3053 
L 1172 1153 
Q 1172 725 1289 603 
Q 1406 481 1766 481 
L 2356 481 
L 2356 0 
L 1766 0 
Q 1100 0 847 248 
Q 594 497 594 1153 
L 594 3053 
L 172 3053 
L 172 3500 
L 594 3500 
L 594 4494 
L 1172 4494 
z
" transform="scale(0.015625)"/>
      <path id="DejaVuSans-6f" d="M 1959 3097 
Q 1497 3097 1228 2736 
Q 959 2375 959 1747 
Q 959 1119 1226 758 
Q 1494 397 1959 397 
Q 2419 397 2687 759 
Q 2956 1122 2956 1747 
Q 2956 2369 2687 2733 
Q 2419 3097 1959 3097 
z
M 1959 3584 
Q 2709 3584 3137 3096 
Q 3566 2609 3566 1747 
Q 3566 888 3137 398 
Q 2709 -91 1959 -91 
Q 1206 -91 779 398 
Q 353 888 353 1747 
Q 353 2609 779 3096 
Q 1206 3584 1959 3584 
z
" transform="scale(0.015625)"/>
      <path id="DejaVuSans-69" d="M 603 3500 
L 1178 3500 
L 1178 0 
L 603 0 
L 603 3500 
z
M 603 4863 
L 1178 4863 
L 1178 4134 
L 603 4134 
L 603 4863 
z
" transform="scale(0.015625)"/>
      <path id="DejaVuSans-20" transform="scale(0.015625)"/>
      <path id="DejaVuSans-70" d="M 1159 525 
L 1159 -1331 
L 581 -1331 
L 581 3500 
L 1159 3500 
L 1159 2969 
Q 1341 3281 1617 3432 
Q 1894 3584 2278 3584 
Q 2916 3584 3314 3078 
Q 3713 2572 3713 1747 
Q 3713 922 3314 415 
Q 2916 -91 2278 -91 
Q 1894 -91 1617 61 
Q 1341 213 1159 525 
z
M 3116 1747 
Q 3116 2381 2855 2742 
Q 2594 3103 2138 3103 
Q 1681 3103 1420 2742 
Q 1159 2381 1159 1747 
Q 1159 1113 1420 752 
Q 1681 391 2138 391 
Q 2594 391 2855 752 
Q 3116 1113 3116 1747 
z
" transform="scale(0.015625)"/>
      <path id="DejaVuSans-6c" d="M 603 4863 
L 1178 4863 
L 1178 0 
L 603 0 
L 603 4863 
z
" transform="scale(0.015625)"/>
      <path id="DejaVuSans-66" d="M 2375 4863 
L 2375 4384 
L 1825 4384 
Q 1516 4384 1395 4259 
Q 1275 4134 1275 3809 
L 1275 3500 
L 2222 3500 
L 2222 3053 
L 1275 3053 
L 1275 0 
L 697 0 
L 697 3053 
L 147 3053 
L 147 3500 
L 697 3500 
L 697 3744 
Q 697 4328 969 4595 
Q 1241 4863 1831 4863 
L 2375 4863 
z
" transform="scale(0.015625)"/>
      <path id="DejaVuSans-6d" d="M 3328 2828 
Q 3544 3216 3844 3400 
Q 4144 3584 4550 3584 
Q 5097 3584 5394 3201 
Q 5691 2819 5691 2113 
L 5691 0 
L 5113 0 
L 5113 2094 
Q 5113 2597 4934 2840 
Q 4756 3084 4391 3084 
Q 3944 3084 3684 2787 
Q 3425 2491 3425 1978 
L 3425 0 
L 2847 0 
L 2847 2094 
Q 2847 2600 2669 2842 
Q 2491 3084 2119 3084 
Q 1678 3084 1418 2786 
Q 1159 2488 1159 1978 
L 1159 0 
L 581 0 
L 581 3500 
L 1159 3500 
L 1159 2956 
Q 1356 3278 1631 3431 
Q 1906 3584 2284 3584 
Q 2666 3584 2933 3390 
Q 3200 3197 3328 2828 
z
" transform="scale(0.015625)"/>
      <path id="DejaVuSans-6e" d="M 3513 2113 
L 3513 0 
L 2938 0 
L 2938 2094 
Q 2938 2591 2744 2837 
Q 2550 3084 2163 3084 
Q 1697 3084 1428 2787 
Q 1159 2491 1159 1978 
L 1159 0 
L 581 0 
L 581 3500 
L 1159 3500 
L 1159 2956 
Q 1366 3272 1645 3428 
Q 1925 3584 2291 3584 
Q 2894 3584 3203 3211 
Q 3513 2838 3513 2113 
z
" transform="scale(0.015625)"/>
      <path id="DejaVuSans-3d" d="M 678 2906 
L 4684 2906 
L 4684 2381 
L 678 2381 
L 678 2906 
z
M 678 1631 
L 4684 1631 
L 4684 1100 
L 678 1100 
L 678 1631 
z
" transform="scale(0.015625)"/>
     </defs>
     <use xlink:href="#DejaVuSans-54"/>
     <use xlink:href="#DejaVuSans-72" x="46.333984"/>
     <use xlink:href="#DejaVuSans-61" x="87.447266"/>
     <use xlink:href="#DejaVuSans-6a" x="148.726562"/>
     <use xlink:href="#DejaVuSans-65" x="176.509766"/>
     <use xlink:href="#DejaVuSans-63" x="238.033203"/>
     <use xlink:href="#DejaVuSans-74" x="293.013672"/>
     <use xlink:href="#DejaVuSans-6f" x="332.222656"/>
     <use xlink:href="#DejaVuSans-72" x="393.404297"/>
     <use xlink:href="#DejaVuSans-69" x="434.517578"/>
     <use xlink:href="#DejaVuSans-65" x="462.300781"/>
     <use xlink:href="#DejaVuSans-20" x="523.824219"/>
     <use xlink:href="#DejaVuSans-70" x="555.611328"/>
     <use xlink:href="#DejaVuSans-6c" x="619.087891"/>
     <use xlink:href="#DejaVuSans-6f" x="646.871094"/>
     <use xlink:href="#DejaVuSans-74" x="708.052734"/>
     <use xlink:href="#DejaVuSans-20" x="747.261719"/>
     <use xlink:href="#DejaVuSans-6f" x="779.048828"/>
     <use xlink:href="#DejaVuSans-66" x="840.230469"/>
     <use xlink:href="#DejaVuSans-20" x="875.435547"/>
     <use xlink:href="#DejaVuSans-63" x="907.222656"/>
     <use xlink:href="#DejaVuSans-72" x="962.203125"/>
     <use xlink:href="#DejaVuSans-69" x="1003.316406"/>
     <use xlink:href="#DejaVuSans-74" x="1031.099609"/>
     <use xlink:href="#DejaVuSans-69" x="1070.308594"/>
     <use xlink:href="#DejaVuSans-63" x="1098.091797"/>
     <use xlink:href="#DejaVuSans-61" x="1153.072266"/>
     <use xlink:href="#DejaVuSans-6c" x="1214.351562"/>
     <use xlink:href="#DejaVuSans-20" x="1242.134766"/>
     <use xlink:href="#DejaVuSans-74" x="1273.921875"/>
     <use xlink:href="#DejaVuSans-69" x="1313.130859"/>
     <use xlink:href="#DejaVuSans-6d" x="1340.914062"/>
     <use xlink:href="#DejaVuSans-65" x="1438.326172"/>
     <use xlink:href="#DejaVuSans-20" x="1499.849609"/>
     <use xlink:href="#DejaVuSans-6e" x="1531.636719"/>
     <use xlink:href="#DejaVuSans-20" x="1595.015625"/>
     <use xlink:href="#DejaVuSans-3d" x="1626.802734"/>
     <use xlink:href="#DejaVuSans-20" x="1710.591797"/>
     <use xlink:href="#DejaVuSans-35" x="1742.378906"/>
     <use xlink:href="#DejaVuSans-30" x="1806.001953"/>
     <use xlink:href="#DejaVuSans-30" x="1869.625"/>
     <use xlink:href="#DejaVuSans-30" x="1933.248047"/>
    </g>
   </g>
  </g>
 </g>
 <defs>
  <clipPath id="p39dd7c0f7d">
   <rect x="57.6" y="41.472" width="357.12" height="266.112"/>
  </clipPath>
 </defs>
</svg>
