<?xml version="1.0" encoding="utf-8" standalone="no"?>
<!DOCTYPE svg PUBLIC "-//W3C//DTD SVG 1.1//EN"
  "http://www.w3.org/Graphics/SVG/1.1/DTD/svg11.dtd">
<svg xmlns:xlink="http://www.w3.org/1999/xlink" width="460.8pt" height="345.6pt" viewBox="0 0 460.8 345.6" xmlns="http://www.w3.org/2000/svg" version="1.1">
 <metadata>
  <rdf:RDF xmlns:dc="http://purl.org/dc/elements/1.1/" xmlns:cc="http://creativecommons.org/ns#" xmlns:rdf="http://www.w3.org/1999/02/22-rdf-syntax-ns#">
   <cc:Work>
    <dc:type rdf:resource="http://purl.org/dc/dcmitype/StillImage"/>
    <dc:date>2025-08-22T10:53:25.334379</dc:date>
    <dc:format>image/svg+xml</dc:format>
    <dc:creator>
     <cc:Agent>
      <dc:title>Matplotlib v3.9.2, https://matplotlib.org/</dc:title>
     </cc:Agent>
    </dc:creator>
   </cc:Work>
  </rdf:RDF>
 </metadata>
 <defs>
  <style type="text/css">*{stroke-linejoin: round; stroke-linecap: butt}</style>
 </defs>
 <g id="figure_1">
  <g id="patch_1">
   <path d="M 0 345.6 
L 460.8 345.6 
L 460.8 0 
L 0 0 
z
" style="fill: #ffffff"/>
  </g>
  <g id="axes_1">
   <g id="patch_2">
    <path d="M 57.6 307.584 
L 414.72 307.584 
L 414.72 41.472 
L 57.6 41.472 
z
" style="fill: #eeeeee"/>
   </g>
   <g id="matplotlib.axis_1">
    <g id="xtick_1">
     <g id="line2d_1">
      <path d="M 73.832727 307.584 
L 73.832727 41.472 
" clip-path="url(#pbe67d954ca)" style="fill: none; stroke-dasharray: 1.85,0.8; stroke-dashoffset: 0; stroke: #b2b2b2; stroke-width: 0.5"/>
     </g>
     <g id="line2d_2">
      <defs>
       <path id="m8601780d0d" d="M 0 0 
L 0 -3.5 
" style="stroke: #000000; stroke-width: 0.8"/>
      </defs>
      <g>
       <use xlink:href="#m8601780d0d" x="73.832727" y="307.584" style="stroke: #000000; stroke-width: 0.8"/>
      </g>
     </g>
     <g id="text_1">
      <!-- 0 -->
      <g transform="translate(70.651477 318.682437) scale(0.1 -0.1)">
       <defs>
        <path id="DejaVuSans-30" d="M 2034 4250 
Q 1547 4250 1301 3770 
Q 1056 3291 1056 2328 
Q 1056 1369 1301 889 
Q 1547 409 2034 409 
Q 2525 409 2770 889 
Q 3016 1369 3016 2328 
Q 3016 3291 2770 3770 
Q 2525 4250 2034 4250 
z
M 2034 4750 
Q 2819 4750 3233 4129 
Q 3647 3509 3647 2328 
Q 3647 1150 3233 529 
Q 2819 -91 2034 -91 
Q 1250 -91 836 529 
Q 422 1150 422 2328 
Q 422 3509 836 4129 
Q 1250 4750 2034 4750 
z
" transform="scale(0.015625)"/>
       </defs>
       <use xlink:href="#DejaVuSans-30"/>
      </g>
     </g>
    </g>
    <g id="xtick_2">
     <g id="line2d_3">
      <path d="M 128.122785 307.584 
L 128.122785 41.472 
" clip-path="url(#pbe67d954ca)" style="fill: none; stroke-dasharray: 1.85,0.8; stroke-dashoffset: 0; stroke: #b2b2b2; stroke-width: 0.5"/>
     </g>
     <g id="line2d_4">
      <g>
       <use xlink:href="#m8601780d0d" x="128.122785" y="307.584" style="stroke: #000000; stroke-width: 0.8"/>
      </g>
     </g>
     <g id="text_2">
      <!-- 50 -->
      <g transform="translate(121.760285 318.682437) scale(0.1 -0.1)">
       <defs>
        <path id="DejaVuSans-35" d="M 691 4666 
L 3169 4666 
L 3169 4134 
L 1269 4134 
L 1269 2991 
Q 1406 3038 1543 3061 
Q 1681 3084 1819 3084 
Q 2600 3084 3056 2656 
Q 3513 2228 3513 1497 
Q 3513 744 3044 326 
Q 2575 -91 1722 -91 
Q 1428 -91 1123 -41 
Q 819 9 494 109 
L 494 744 
Q 775 591 1075 516 
Q 1375 441 1709 441 
Q 2250 441 2565 725 
Q 2881 1009 2881 1497 
Q 2881 1984 2565 2268 
Q 2250 2553 1709 2553 
Q 1456 2553 1204 2497 
Q 953 2441 691 2322 
L 691 4666 
z
" transform="scale(0.015625)"/>
       </defs>
       <use xlink:href="#DejaVuSans-35"/>
       <use xlink:href="#DejaVuSans-30" x="63.623047"/>
      </g>
     </g>
    </g>
    <g id="xtick_3">
     <g id="line2d_5">
      <path d="M 182.412843 307.584 
L 182.412843 41.472 
" clip-path="url(#pbe67d954ca)" style="fill: none; stroke-dasharray: 1.85,0.8; stroke-dashoffset: 0; stroke: #b2b2b2; stroke-width: 0.5"/>
     </g>
     <g id="line2d_6">
      <g>
       <use xlink:href="#m8601780d0d" x="182.412843" y="307.584" style="stroke: #000000; stroke-width: 0.8"/>
      </g>
     </g>
     <g id="text_3">
      <!-- 100 -->
      <g transform="translate(172.869093 318.682437) scale(0.1 -0.1)">
       <defs>
        <path id="DejaVuSans-31" d="M 794 531 
L 1825 531 
L 1825 4091 
L 703 3866 
L 703 4441 
L 1819 4666 
L 2450 4666 
L 2450 531 
L 3481 531 
L 3481 0 
L 794 0 
L 794 531 
z
" transform="scale(0.015625)"/>
       </defs>
       <use xlink:href="#DejaVuSans-31"/>
       <use xlink:href="#DejaVuSans-30" x="63.623047"/>
       <use xlink:href="#DejaVuSans-30" x="127.246094"/>
      </g>
     </g>
    </g>
    <g id="xtick_4">
     <g id="line2d_7">
      <path d="M 236.702901 307.584 
L 236.702901 41.472 
" clip-path="url(#pbe67d954ca)" style="fill: none; stroke-dasharray: 1.85,0.8; stroke-dashoffset: 0; stroke: #b2b2b2; stroke-width: 0.5"/>
     </g>
     <g id="line2d_8">
      <g>
       <use xlink:href="#m8601780d0d" x="236.702901" y="307.584" style="stroke: #000000; stroke-width: 0.8"/>
      </g>
     </g>
     <g id="text_4">
      <!-- 150 -->
      <g transform="translate(227.159151 318.682437) scale(0.1 -0.1)">
       <use xlink:href="#DejaVuSans-31"/>
       <use xlink:href="#DejaVuSans-35" x="63.623047"/>
       <use xlink:href="#DejaVuSans-30" x="127.246094"/>
      </g>
     </g>
    </g>
    <g id="xtick_5">
     <g id="line2d_9">
      <path d="M 290.992958 307.584 
L 290.992958 41.472 
" clip-path="url(#pbe67d954ca)" style="fill: none; stroke-dasharray: 1.85,0.8; stroke-dashoffset: 0; stroke: #b2b2b2; stroke-width: 0.5"/>
     </g>
     <g id="line2d_10">
      <g>
       <use xlink:href="#m8601780d0d" x="290.992958" y="307.584" style="stroke: #000000; stroke-width: 0.8"/>
      </g>
     </g>
     <g id="text_5">
      <!-- 200 -->
      <g transform="translate(281.449208 318.682437) scale(0.1 -0.1)">
       <defs>
        <path id="DejaVuSans-32" d="M 1228 531 
L 3431 531 
L 3431 0 
L 469 0 
L 469 531 
Q 828 903 1448 1529 
Q 2069 2156 2228 2338 
Q 2531 2678 2651 2914 
Q 2772 3150 2772 3378 
Q 2772 3750 2511 3984 
Q 2250 4219 1831 4219 
Q 1534 4219 1204 4116 
Q 875 4013 500 3803 
L 500 4441 
Q 881 4594 1212 4672 
Q 1544 4750 1819 4750 
Q 2544 4750 2975 4387 
Q 3406 4025 3406 3419 
Q 3406 3131 3298 2873 
Q 3191 2616 2906 2266 
Q 2828 2175 2409 1742 
Q 1991 1309 1228 531 
z
" transform="scale(0.015625)"/>
       </defs>
       <use xlink:href="#DejaVuSans-32"/>
       <use xlink:href="#DejaVuSans-30" x="63.623047"/>
       <use xlink:href="#DejaVuSans-30" x="127.246094"/>
      </g>
     </g>
    </g>
    <g id="xtick_6">
     <g id="line2d_11">
      <path d="M 345.283016 307.584 
L 345.283016 41.472 
" clip-path="url(#pbe67d954ca)" style="fill: none; stroke-dasharray: 1.85,0.8; stroke-dashoffset: 0; stroke: #b2b2b2; stroke-width: 0.5"/>
     </g>
     <g id="line2d_12">
      <g>
       <use xlink:href="#m8601780d0d" x="345.283016" y="307.584" style="stroke: #000000; stroke-width: 0.8"/>
      </g>
     </g>
     <g id="text_6">
      <!-- 250 -->
      <g transform="translate(335.739266 318.682437) scale(0.1 -0.1)">
       <use xlink:href="#DejaVuSans-32"/>
       <use xlink:href="#DejaVuSans-35" x="63.623047"/>
       <use xlink:href="#DejaVuSans-30" x="127.246094"/>
      </g>
     </g>
    </g>
    <g id="xtick_7">
     <g id="line2d_13">
      <path d="M 399.573074 307.584 
L 399.573074 41.472 
" clip-path="url(#pbe67d954ca)" style="fill: none; stroke-dasharray: 1.85,0.8; stroke-dashoffset: 0; stroke: #b2b2b2; stroke-width: 0.5"/>
     </g>
     <g id="line2d_14">
      <g>
       <use xlink:href="#m8601780d0d" x="399.573074" y="307.584" style="stroke: #000000; stroke-width: 0.8"/>
      </g>
     </g>
     <g id="text_7">
      <!-- 300 -->
      <g transform="translate(390.029324 318.682437) scale(0.1 -0.1)">
       <defs>
        <path id="DejaVuSans-33" d="M 2597 2516 
Q 3050 2419 3304 2112 
Q 3559 1806 3559 1356 
Q 3559 666 3084 287 
Q 2609 -91 1734 -91 
Q 1441 -91 1130 -33 
Q 819 25 488 141 
L 488 750 
Q 750 597 1062 519 
Q 1375 441 1716 441 
Q 2309 441 2620 675 
Q 2931 909 2931 1356 
Q 2931 1769 2642 2001 
Q 2353 2234 1838 2234 
L 1294 2234 
L 1294 2753 
L 1863 2753 
Q 2328 2753 2575 2939 
Q 2822 3125 2822 3475 
Q 2822 3834 2567 4026 
Q 2313 4219 1838 4219 
Q 1578 4219 1281 4162 
Q 984 4106 628 3988 
L 628 4550 
Q 988 4650 1302 4700 
Q 1616 4750 1894 4750 
Q 2613 4750 3031 4423 
Q 3450 4097 3450 3541 
Q 3450 3153 3228 2886 
Q 3006 2619 2597 2516 
z
" transform="scale(0.015625)"/>
       </defs>
       <use xlink:href="#DejaVuSans-33"/>
       <use xlink:href="#DejaVuSans-30" x="63.623047"/>
       <use xlink:href="#DejaVuSans-30" x="127.246094"/>
      </g>
     </g>
    </g>
    <g id="text_8">
     <!-- $s$ -->
     <g transform="translate(233.34 333.88025) scale(0.12 -0.12)">
      <defs>
       <path id="Cmmi10-73" d="M 556 391 
Q 728 97 1247 97 
Q 1472 97 1675 173 
Q 1878 250 2011 403 
Q 2144 556 2144 775 
Q 2144 941 2025 1047 
Q 1906 1153 1734 1191 
L 1388 1259 
Q 1150 1319 997 1481 
Q 844 1644 844 1875 
Q 844 2159 998 2378 
Q 1153 2597 1406 2712 
Q 1659 2828 1931 2828 
Q 2222 2828 2451 2689 
Q 2681 2550 2681 2278 
Q 2681 2131 2598 2018 
Q 2516 1906 2369 1906 
Q 2284 1906 2223 1961 
Q 2163 2016 2163 2100 
Q 2163 2175 2205 2245 
Q 2247 2316 2317 2358 
Q 2388 2400 2463 2400 
Q 2406 2538 2251 2600 
Q 2097 2663 1919 2663 
Q 1756 2663 1593 2597 
Q 1431 2531 1332 2404 
Q 1234 2278 1234 2106 
Q 1234 1991 1315 1903 
Q 1397 1816 1516 1778 
L 1888 1703 
Q 2066 1666 2214 1570 
Q 2363 1475 2448 1329 
Q 2534 1184 2534 997 
Q 2534 759 2401 528 
Q 2269 297 2075 159 
Q 1734 -72 1241 -72 
Q 900 -72 615 84 
Q 331 241 331 550 
Q 331 725 432 854 
Q 534 984 709 984 
Q 813 984 883 921 
Q 953 859 953 756 
Q 953 609 843 500 
Q 734 391 588 391 
L 556 391 
z
" transform="scale(0.015625)"/>
      </defs>
      <use xlink:href="#Cmmi10-73" transform="translate(0 0.8125)"/>
     </g>
    </g>
   </g>
   <g id="matplotlib.axis_2">
    <g id="ytick_1">
     <g id="line2d_15">
      <path d="M 57.6 271.296 
L 414.72 271.296 
" clip-path="url(#pbe67d954ca)" style="fill: none; stroke-dasharray: 1.85,0.8; stroke-dashoffset: 0; stroke: #b2b2b2; stroke-width: 0.5"/>
     </g>
     <g id="line2d_16">
      <defs>
       <path id="mb3efc52bed" d="M 0 0 
L 3.5 0 
" style="stroke: #000000; stroke-width: 0.8"/>
      </defs>
      <g>
       <use xlink:href="#mb3efc52bed" x="57.6" y="271.296" style="stroke: #000000; stroke-width: 0.8"/>
      </g>
     </g>
     <g id="text_9">
      <!-- −4 -->
      <g transform="translate(39.357813 275.095219) scale(0.1 -0.1)">
       <defs>
        <path id="DejaVuSans-2212" d="M 678 2272 
L 4684 2272 
L 4684 1741 
L 678 1741 
L 678 2272 
z
" transform="scale(0.015625)"/>
        <path id="DejaVuSans-34" d="M 2419 4116 
L 825 1625 
L 2419 1625 
L 2419 4116 
z
M 2253 4666 
L 3047 4666 
L 3047 1625 
L 3713 1625 
L 3713 1100 
L 3047 1100 
L 3047 0 
L 2419 0 
L 2419 1100 
L 313 1100 
L 313 1709 
L 2253 4666 
z
" transform="scale(0.015625)"/>
       </defs>
       <use xlink:href="#DejaVuSans-2212"/>
       <use xlink:href="#DejaVuSans-34" x="83.789062"/>
      </g>
     </g>
    </g>
    <g id="ytick_2">
     <g id="line2d_17">
      <path d="M 57.6 222.912 
L 414.72 222.912 
" clip-path="url(#pbe67d954ca)" style="fill: none; stroke-dasharray: 1.85,0.8; stroke-dashoffset: 0; stroke: #b2b2b2; stroke-width: 0.5"/>
     </g>
     <g id="line2d_18">
      <g>
       <use xlink:href="#mb3efc52bed" x="57.6" y="222.912" style="stroke: #000000; stroke-width: 0.8"/>
      </g>
     </g>
     <g id="text_10">
      <!-- −2 -->
      <g transform="translate(39.357813 226.711219) scale(0.1 -0.1)">
       <use xlink:href="#DejaVuSans-2212"/>
       <use xlink:href="#DejaVuSans-32" x="83.789062"/>
      </g>
     </g>
    </g>
    <g id="ytick_3">
     <g id="line2d_19">
      <path d="M 57.6 174.528 
L 414.72 174.528 
" clip-path="url(#pbe67d954ca)" style="fill: none; stroke-dasharray: 1.85,0.8; stroke-dashoffset: 0; stroke: #b2b2b2; stroke-width: 0.5"/>
     </g>
     <g id="line2d_20">
      <g>
       <use xlink:href="#mb3efc52bed" x="57.6" y="174.528" style="stroke: #000000; stroke-width: 0.8"/>
      </g>
     </g>
     <g id="text_11">
      <!-- 0 -->
      <g transform="translate(47.7375 178.327219) scale(0.1 -0.1)">
       <use xlink:href="#DejaVuSans-30"/>
      </g>
     </g>
    </g>
    <g id="ytick_4">
     <g id="line2d_21">
      <path d="M 57.6 126.144 
L 414.72 126.144 
" clip-path="url(#pbe67d954ca)" style="fill: none; stroke-dasharray: 1.85,0.8; stroke-dashoffset: 0; stroke: #b2b2b2; stroke-width: 0.5"/>
     </g>
     <g id="line2d_22">
      <g>
       <use xlink:href="#mb3efc52bed" x="57.6" y="126.144" style="stroke: #000000; stroke-width: 0.8"/>
      </g>
     </g>
     <g id="text_12">
      <!-- 2 -->
      <g transform="translate(47.7375 129.943219) scale(0.1 -0.1)">
       <use xlink:href="#DejaVuSans-32"/>
      </g>
     </g>
    </g>
    <g id="ytick_5">
     <g id="line2d_23">
      <path d="M 57.6 77.76 
L 414.72 77.76 
" clip-path="url(#pbe67d954ca)" style="fill: none; stroke-dasharray: 1.85,0.8; stroke-dashoffset: 0; stroke: #b2b2b2; stroke-width: 0.5"/>
     </g>
     <g id="line2d_24">
      <g>
       <use xlink:href="#mb3efc52bed" x="57.6" y="77.76" style="stroke: #000000; stroke-width: 0.8"/>
      </g>
     </g>
     <g id="text_13">
      <!-- 4 -->
      <g transform="translate(47.7375 81.559219) scale(0.1 -0.1)">
       <use xlink:href="#DejaVuSans-34"/>
      </g>
     </g>
    </g>
    <g id="text_14">
     <!-- $x_{s}$ -->
     <g transform="translate(32.862188 180.348) rotate(-90) scale(0.12 -0.12)">
      <defs>
       <path id="Cmmi10-78" d="M 500 184 
Q 613 97 819 97 
Q 1019 97 1172 289 
Q 1325 481 1381 709 
L 1672 1844 
Q 1741 2153 1741 2266 
Q 1741 2425 1652 2544 
Q 1563 2663 1403 2663 
Q 1200 2663 1022 2536 
Q 844 2409 722 2214 
Q 600 2019 550 1819 
Q 538 1778 500 1778 
L 422 1778 
Q 372 1778 372 1838 
L 372 1856 
Q 434 2094 584 2320 
Q 734 2547 951 2687 
Q 1169 2828 1416 2828 
Q 1650 2828 1839 2703 
Q 2028 2578 2106 2363 
Q 2216 2559 2386 2693 
Q 2556 2828 2759 2828 
Q 2897 2828 3040 2779 
Q 3184 2731 3275 2631 
Q 3366 2531 3366 2381 
Q 3366 2219 3261 2101 
Q 3156 1984 2994 1984 
Q 2891 1984 2822 2050 
Q 2753 2116 2753 2216 
Q 2753 2350 2845 2451 
Q 2938 2553 3066 2572 
Q 2950 2663 2747 2663 
Q 2541 2663 2389 2472 
Q 2238 2281 2175 2047 
L 1894 916 
Q 1825 659 1825 494 
Q 1825 331 1917 214 
Q 2009 97 2163 97 
Q 2463 97 2698 361 
Q 2934 625 3009 941 
Q 3022 978 3059 978 
L 3138 978 
Q 3163 978 3178 961 
Q 3194 944 3194 922 
Q 3194 916 3188 903 
Q 3097 522 2806 225 
Q 2516 -72 2150 -72 
Q 1916 -72 1727 54 
Q 1538 181 1459 397 
Q 1359 209 1182 68 
Q 1006 -72 806 -72 
Q 669 -72 523 -23 
Q 378 25 287 125 
Q 197 225 197 378 
Q 197 528 301 651 
Q 406 775 563 775 
Q 669 775 741 711 
Q 813 647 813 544 
Q 813 409 723 309 
Q 634 209 500 184 
z
" transform="scale(0.015625)"/>
      </defs>
      <use xlink:href="#Cmmi10-78" transform="translate(0 0.8125)"/>
      <use xlink:href="#Cmmi10-73" transform="translate(57.080078 -16.19375) scale(0.7)"/>
     </g>
    </g>
   </g>
   <g id="line2d_25">
    <path d="M 73.832727 216.044855 
L 74.918528 216.582252 
L 76.00433 217.408119 
L 77.090131 213.590484 
L 78.175932 209.271072 
L 79.261733 210.329614 
L 80.347534 207.921861 
L 82.519137 200.443807 
L 83.604938 194.912383 
L 84.690739 193.313037 
L 85.77654 194.859724 
L 86.862341 197.1623 
L 87.948142 194.752128 
L 89.033943 195.2142 
L 90.119745 195.823995 
L 91.205546 193.343701 
L 92.291347 192.711166 
L 93.377148 188.173673 
L 94.462949 188.801308 
L 95.54875 189.061368 
L 96.634552 188.525982 
L 97.720353 190.734532 
L 98.806154 186.702754 
L 99.891955 184.563669 
L 100.977756 181.234383 
L 102.063557 183.52793 
L 103.149358 188.673964 
L 104.23516 195.061711 
L 105.320961 200.340392 
L 106.406762 198.436271 
L 107.492563 193.760394 
L 108.578364 196.497808 
L 109.664165 195.69142 
L 110.749967 194.19177 
L 111.835768 196.747675 
L 112.921569 190.913085 
L 114.00737 187.381578 
L 115.093171 188.900062 
L 116.178972 189.698298 
L 117.264773 192.821555 
L 118.350575 191.552897 
L 119.436376 193.463733 
L 120.522177 195.713603 
L 121.607978 196.519807 
L 122.693779 196.888736 
L 123.77958 193.964049 
L 124.865382 197.082505 
L 125.951183 197.83419 
L 127.036984 197.537952 
L 128.122785 195.58705 
L 129.208586 195.679257 
L 130.294387 194.109929 
L 131.380189 195.81711 
L 132.46599 194.541591 
L 133.551791 196.069007 
L 134.637592 189.93287 
L 135.723393 193.2618 
L 136.809194 188.580187 
L 137.894995 185.402461 
L 138.980797 184.941941 
L 140.066598 175.725895 
L 141.152399 176.626155 
L 142.2382 180.283945 
L 143.324001 175.564863 
L 144.409802 173.581792 
L 145.495604 179.325042 
L 146.581405 183.021468 
L 147.667206 184.402892 
L 148.753007 184.762827 
L 149.838808 186.195424 
L 150.924609 185.067398 
L 152.01041 185.49783 
L 153.096212 183.35043 
L 154.182013 185.24853 
L 156.353615 179.433315 
L 157.439416 177.902708 
L 158.525217 178.38732 
L 159.611019 175.846943 
L 160.69682 182.129064 
L 161.782621 174.356908 
L 162.868422 177.230869 
L 163.954223 181.378514 
L 165.040024 181.586019 
L 166.125825 180.576577 
L 167.211627 181.672646 
L 168.297428 186.017018 
L 169.383229 192.270524 
L 170.46903 189.708584 
L 171.554831 191.01298 
L 172.640632 194.587254 
L 173.726434 191.262759 
L 174.812235 185.658508 
L 175.898036 184.760692 
L 176.983837 187.495989 
L 178.069638 186.175085 
L 179.155439 186.288433 
L 180.24124 181.676039 
L 181.327042 181.534832 
L 183.498644 178.066106 
L 184.584445 178.591842 
L 185.670246 180.689138 
L 186.756047 177.843533 
L 187.841849 178.941636 
L 188.92765 179.79552 
L 190.013451 178.258872 
L 191.099252 179.241436 
L 192.185053 175.285645 
L 193.270854 173.147905 
L 194.356656 176.767041 
L 195.442457 180.995458 
L 196.528258 179.9088 
L 197.614059 177.619329 
L 198.69986 177.620115 
L 199.785661 179.131347 
L 200.871462 179.209725 
L 201.957264 176.444724 
L 203.043065 177.435028 
L 204.128866 180.964717 
L 205.214667 177.747059 
L 206.300468 177.608704 
L 207.386269 180.630825 
L 208.472071 178.048201 
L 209.557872 174.016807 
L 210.643673 175.079328 
L 211.729474 173.644485 
L 212.815275 174.954675 
L 213.901076 172.842425 
L 214.986877 172.006217 
L 216.072679 167.156028 
L 217.15848 163.521678 
L 218.244281 164.759717 
L 219.330082 162.535172 
L 220.415883 164.071037 
L 221.501684 163.56056 
L 222.587486 160.779854 
L 223.673287 158.441415 
L 224.759088 161.090529 
L 225.844889 158.844464 
L 226.93069 161.383133 
L 228.016491 165.771903 
L 229.102292 166.859768 
L 230.188094 171.935893 
L 231.273895 175.715518 
L 232.359696 177.398122 
L 233.445497 178.716624 
L 234.531298 182.743938 
L 235.617099 186.344414 
L 236.702901 190.436499 
L 237.788702 191.162823 
L 238.874503 188.611894 
L 239.960304 187.812268 
L 241.046105 187.788762 
L 242.131906 185.630514 
L 243.217708 185.734025 
L 244.303509 186.676841 
L 245.38931 182.584927 
L 246.475111 183.364995 
L 247.560912 181.185244 
L 248.646713 182.169201 
L 249.732514 181.991024 
L 250.818316 183.33141 
L 251.904117 182.761453 
L 252.989918 181.775933 
L 254.075719 182.632504 
L 255.16152 185.516653 
L 256.247321 186.041923 
L 257.333123 182.559638 
L 258.418924 186.143212 
L 259.504725 187.161876 
L 260.590526 186.406106 
L 261.676327 187.444301 
L 262.762128 186.149309 
L 264.933731 186.400581 
L 266.019532 188.121847 
L 267.105333 190.662811 
L 269.276935 193.76186 
L 270.362736 192.663763 
L 271.448538 194.383557 
L 272.534339 195.122678 
L 273.62014 193.276991 
L 274.705941 192.826382 
L 275.791742 195.227454 
L 276.877543 198.329327 
L 277.963344 198.336031 
L 279.049146 197.574039 
L 280.134947 194.067089 
L 281.220748 191.948943 
L 282.306549 194.035032 
L 283.39235 191.353244 
L 284.478151 188.354861 
L 285.563953 189.850885 
L 286.649754 189.329296 
L 287.735555 190.858851 
L 288.821356 190.760887 
L 289.907157 187.727986 
L 290.992958 190.543834 
L 292.07876 188.879798 
L 293.164561 189.138231 
L 294.250362 191.343987 
L 295.336163 187.750605 
L 296.421964 186.853818 
L 297.507765 186.909394 
L 298.593566 186.149368 
L 299.679368 187.82368 
L 300.765169 186.315094 
L 301.85097 187.630735 
L 302.936771 187.94679 
L 304.022572 187.823732 
L 305.108373 189.033699 
L 306.194175 190.434463 
L 307.279976 189.203687 
L 308.365777 188.64659 
L 309.451578 191.700983 
L 310.537379 192.047606 
L 311.62318 191.327217 
L 312.708981 189.368896 
L 313.794783 187.148849 
L 314.880584 186.549975 
L 315.966385 188.961721 
L 317.052186 190.005969 
L 318.137987 188.159882 
L 319.223788 190.605523 
L 320.30959 191.053868 
L 321.395391 190.243209 
L 322.481192 188.7864 
L 323.566993 187.753192 
L 324.652794 187.735954 
L 325.738595 188.394274 
L 326.824396 187.007904 
L 327.910198 188.794134 
L 328.995999 189.423684 
L 330.0818 187.684097 
L 331.167601 188.616028 
L 332.253402 191.083048 
L 333.339203 188.925595 
L 334.425005 189.778195 
L 335.510806 191.058565 
L 336.596607 191.426702 
L 337.682408 189.547691 
L 338.768209 191.127055 
L 339.85401 187.961007 
L 340.939811 185.274799 
L 342.025613 185.777312 
L 343.111414 187.709775 
L 344.197215 188.213771 
L 345.283016 187.006087 
L 347.454618 187.783165 
L 348.54042 187.534712 
L 349.626221 186.799931 
L 350.712022 187.665039 
L 351.797823 187.443483 
L 352.883624 188.611968 
L 353.969425 188.982067 
L 355.055227 187.744969 
L 356.141028 186.843673 
L 357.226829 186.789529 
L 358.31263 187.037454 
L 359.398431 185.879745 
L 360.484232 183.910328 
L 361.570033 183.442696 
L 362.655835 181.503885 
L 363.741636 180.757426 
L 364.827437 180.244288 
L 365.913238 181.251372 
L 366.999039 182.924805 
L 368.08484 182.646241 
L 369.170642 182.076199 
L 370.256443 180.99211 
L 371.342244 181.476248 
L 372.428045 179.253362 
L 373.513846 178.115496 
L 374.599647 179.012144 
L 375.685448 179.01807 
L 376.77125 179.364215 
L 377.857051 181.993711 
L 378.942852 182.407512 
L 380.028653 183.107734 
L 383.286057 186.517473 
L 384.371858 187.418815 
L 385.457659 188.666912 
L 386.54346 188.427367 
L 387.629261 187.891599 
L 388.715062 188.482929 
L 389.800863 189.238626 
L 391.972466 190.209358 
L 393.058267 191.196579 
L 394.144068 191.503221 
L 395.229869 191.365052 
L 398.487273 192.129744 
L 398.487273 192.129744 
" clip-path="url(#pbe67d954ca)" style="fill: none; stroke: #0000ff; stroke-opacity: 0.5; stroke-width: 2; stroke-linecap: square"/>
   </g>
   <g id="line2d_26">
    <path d="M 73.832727 167.90764 
L 74.918528 167.89884 
L 76.00433 168.03004 
L 77.090131 164.15291 
L 78.175932 165.807583 
L 80.347534 163.043177 
L 81.433335 163.826588 
L 82.519137 165.691131 
L 83.604938 165.400837 
L 84.690739 165.959583 
L 85.77654 166.834067 
L 86.862341 164.43682 
L 87.948142 165.766741 
L 89.033943 161.352898 
L 91.205546 167.140551 
L 92.291347 166.291619 
L 93.377148 163.815184 
L 94.462949 165.279841 
L 95.54875 167.958482 
L 96.634552 166.304149 
L 97.720353 160.523934 
L 98.806154 161.375675 
L 99.891955 160.773784 
L 100.977756 159.245813 
L 102.063557 150.743133 
L 103.149358 150.767849 
L 104.23516 151.25383 
L 105.320961 143.819876 
L 106.406762 149.661961 
L 107.492563 148.725764 
L 108.578364 148.923855 
L 109.664165 151.471003 
L 110.749967 150.861649 
L 111.835768 150.386544 
L 112.921569 151.607809 
L 114.00737 148.995861 
L 115.093171 149.277243 
L 116.178972 152.834844 
L 117.264773 157.300546 
L 118.350575 160.374007 
L 120.522177 154.977559 
L 121.607978 151.217895 
L 122.693779 149.214296 
L 123.77958 145.811505 
L 124.865382 144.998714 
L 125.951183 143.051845 
L 127.036984 144.834773 
L 128.122785 143.091057 
L 129.208586 145.521854 
L 130.294387 146.963321 
L 131.380189 147.434903 
L 132.46599 155.734561 
L 133.551791 152.47803 
L 134.637592 152.181461 
L 135.723393 148.442936 
L 136.809194 155.936594 
L 137.894995 157.670904 
L 138.980797 154.255335 
L 140.066598 152.141582 
L 141.152399 152.812207 
L 142.2382 152.054672 
L 143.324001 152.021584 
L 144.409802 162.825952 
L 145.495604 163.485348 
L 146.581405 160.694011 
L 147.667206 165.348609 
L 148.753007 167.739365 
L 149.838808 161.91388 
L 150.924609 166.628381 
L 152.01041 164.01072 
L 153.096212 171.820504 
L 154.182013 174.316978 
L 155.267814 174.809892 
L 156.353615 171.987217 
L 157.439416 170.602054 
L 158.525217 166.009664 
L 159.611019 169.354184 
L 160.69682 166.323543 
L 161.782621 167.677464 
L 162.868422 166.051041 
L 163.954223 165.865839 
L 165.040024 160.393951 
L 166.125825 160.58614 
L 167.211627 156.684903 
L 168.297428 156.302052 
L 170.46903 151.806721 
L 171.554831 148.866551 
L 172.640632 150.966185 
L 173.726434 149.221781 
L 174.812235 153.261062 
L 175.898036 156.658696 
L 176.983837 156.00256 
L 178.069638 157.588042 
L 180.24124 157.853808 
L 181.327042 158.535629 
L 182.412843 164.841148 
L 183.498644 164.350293 
L 184.584445 160.463846 
L 185.670246 159.427985 
L 186.756047 159.161095 
L 187.841849 161.804554 
L 188.92765 158.317228 
L 190.013451 159.418943 
L 191.099252 162.057576 
L 192.185053 163.641939 
L 193.270854 165.815864 
L 194.356656 169.729306 
L 196.528258 167.679419 
L 197.614059 165.691543 
L 198.69986 165.176542 
L 199.785661 164.343274 
L 200.871462 165.864535 
L 201.957264 168.957888 
L 203.043065 171.354731 
L 204.128866 171.399664 
L 205.214667 175.930089 
L 207.386269 173.537519 
L 208.472071 172.95965 
L 209.557872 175.630871 
L 210.643673 174.749637 
L 211.729474 175.068262 
L 212.815275 174.128899 
L 213.901076 176.812365 
L 214.986877 178.543271 
L 216.072679 175.673014 
L 217.15848 176.278023 
L 218.244281 176.518005 
L 219.330082 174.075283 
L 220.415883 177.171043 
L 221.501684 174.757275 
L 222.587486 171.971001 
L 223.673287 170.424614 
L 224.759088 164.84814 
L 225.844889 163.802802 
L 226.93069 161.622328 
L 229.102292 166.223785 
L 230.188094 166.01811 
L 231.273895 164.456067 
L 232.359696 164.987794 
L 233.445497 165.249919 
L 234.531298 159.528098 
L 235.617099 159.091353 
L 236.702901 159.228587 
L 237.788702 161.523216 
L 238.874503 161.707413 
L 239.960304 162.245093 
L 241.046105 159.358228 
L 242.131906 154.667476 
L 243.217708 155.626612 
L 244.303509 156.985922 
L 245.38931 152.990673 
L 246.475111 155.481503 
L 247.560912 152.163508 
L 248.646713 157.07832 
L 249.732514 161.162833 
L 250.818316 164.00263 
L 251.904117 161.22058 
L 252.989918 163.353819 
L 254.075719 167.440112 
L 255.16152 166.150487 
L 256.247321 165.487357 
L 257.333123 169.224532 
L 258.418924 165.083663 
L 259.504725 167.546635 
L 260.590526 166.491957 
L 261.676327 168.030655 
L 262.762128 166.481704 
L 263.847929 163.170433 
L 264.933731 164.026733 
L 266.019532 167.179937 
L 267.105333 166.723263 
L 268.191134 166.985406 
L 269.276935 166.109867 
L 270.362736 166.305817 
L 271.448538 166.672665 
L 272.534339 168.919775 
L 273.62014 165.506383 
L 274.705941 164.425347 
L 275.791742 167.781714 
L 276.877543 165.685602 
L 277.963344 166.918731 
L 279.049146 166.423334 
L 280.134947 168.108384 
L 281.220748 168.054932 
L 282.306549 172.606086 
L 283.39235 172.579181 
L 284.478151 172.057762 
L 285.563953 171.014933 
L 286.649754 170.350783 
L 287.735555 169.007657 
L 288.821356 169.041755 
L 289.907157 170.130527 
L 290.992958 173.626016 
L 292.07876 172.204743 
L 293.164561 172.026661 
L 294.250362 170.4656 
L 295.336163 171.874045 
L 296.421964 171.76089 
L 297.507765 173.248919 
L 298.593566 175.048274 
L 299.679368 173.766206 
L 300.765169 175.205713 
L 301.85097 175.705998 
L 302.936771 174.216572 
L 304.022572 173.948684 
L 305.108373 174.857421 
L 306.194175 176.622907 
L 307.279976 176.63632 
L 308.365777 173.260209 
L 309.451578 175.170016 
L 310.537379 173.875028 
L 311.62318 173.96431 
L 312.708981 174.50389 
L 313.794783 174.007419 
L 314.880584 176.713035 
L 315.966385 179.875519 
L 317.052186 181.303961 
L 318.137987 178.605207 
L 319.223788 179.352442 
L 320.30959 179.193119 
L 321.395391 179.68023 
L 323.566993 177.585175 
L 324.652794 175.016798 
L 325.738595 175.482099 
L 326.824396 171.944417 
L 327.910198 171.676577 
L 328.995999 170.53771 
L 330.0818 171.568666 
L 331.167601 170.839462 
L 332.253402 173.432226 
L 333.339203 169.912595 
L 334.425005 172.671022 
L 335.510806 171.483277 
L 336.596607 172.713456 
L 337.682408 172.984112 
L 338.768209 174.355946 
L 339.85401 172.166387 
L 340.939811 173.223733 
L 342.025613 176.286729 
L 343.111414 175.852412 
L 344.197215 177.053641 
L 345.283016 177.896752 
L 346.368817 177.564074 
L 347.454618 175.837906 
L 348.54042 175.843201 
L 349.626221 176.452663 
L 350.712022 174.524275 
L 351.797823 173.408323 
L 353.969425 173.739029 
L 355.055227 173.433547 
L 356.141028 172.480948 
L 357.226829 172.030021 
L 358.31263 172.01019 
L 359.398431 170.404581 
L 360.484232 169.907187 
L 362.655835 168.28987 
L 363.741636 166.531408 
L 364.827437 165.039641 
L 365.913238 164.030749 
L 366.999039 165.161881 
L 368.08484 165.650052 
L 369.170642 163.830087 
L 370.256443 164.033627 
L 372.428045 167.514385 
L 373.513846 166.785615 
L 374.599647 166.241494 
L 375.685448 164.72064 
L 376.77125 165.495112 
L 377.857051 164.211058 
L 378.942852 164.588729 
L 380.028653 165.744035 
L 381.114454 167.543015 
L 382.200255 167.571526 
L 383.286057 168.176968 
L 386.54346 167.325636 
L 387.629261 167.841514 
L 388.715062 167.542961 
L 389.800863 168.343958 
L 390.886665 167.689547 
L 391.972466 168.108476 
L 394.144068 166.924755 
L 395.229869 167.350635 
L 397.401472 167.771623 
L 398.487273 167.83053 
L 398.487273 167.83053 
" clip-path="url(#pbe67d954ca)" style="fill: none; stroke: #0000ff; stroke-opacity: 0.5; stroke-width: 2; stroke-linecap: square"/>
   </g>
   <g id="line2d_27">
    <path d="M 73.832727 147.435024 
L 74.918528 147.505444 
L 76.00433 142.028796 
L 77.090131 145.864468 
L 78.175932 150.201875 
L 79.261733 149.829322 
L 80.347534 153.784315 
L 81.433335 156.763521 
L 82.519137 149.916054 
L 83.604938 144.686487 
L 84.690739 145.45832 
L 85.77654 146.081378 
L 86.862341 147.279806 
L 87.948142 140.995589 
L 89.033943 142.834782 
L 90.119745 139.322951 
L 91.205546 137.554586 
L 92.291347 141.86758 
L 93.377148 144.491136 
L 94.462949 144.931448 
L 95.54875 144.716478 
L 96.634552 139.727336 
L 97.720353 140.758702 
L 98.806154 139.188882 
L 99.891955 141.121396 
L 100.977756 139.896303 
L 102.063557 133.721608 
L 103.149358 138.836047 
L 104.23516 136.808723 
L 106.406762 140.940891 
L 107.492563 147.676322 
L 108.578364 143.629365 
L 109.664165 146.858371 
L 110.749967 141.200274 
L 111.835768 140.331363 
L 112.921569 139.267372 
L 114.00737 138.008732 
L 115.093171 143.135607 
L 116.178972 144.581153 
L 117.264773 146.659997 
L 118.350575 142.479945 
L 119.436376 146.884439 
L 120.522177 149.301933 
L 121.607978 145.312559 
L 122.693779 142.595537 
L 123.77958 144.920898 
L 124.865382 142.921934 
L 125.951183 141.639377 
L 127.036984 143.218818 
L 128.122785 139.401675 
L 129.208586 136.53767 
L 130.294387 142.232017 
L 131.380189 142.072023 
L 132.46599 138.619269 
L 133.551791 137.609208 
L 134.637592 134.607652 
L 135.723393 138.038999 
L 136.809194 139.58257 
L 137.894995 140.062393 
L 138.980797 141.741808 
L 140.066598 147.8088 
L 141.152399 151.930687 
L 142.2382 152.805965 
L 143.324001 157.127623 
L 144.409802 155.496253 
L 145.495604 156.288357 
L 146.581405 149.493697 
L 147.667206 151.059817 
L 148.753007 146.636369 
L 149.838808 148.03307 
L 150.924609 146.399334 
L 152.01041 141.442311 
L 153.096212 139.805598 
L 154.182013 135.787068 
L 155.267814 135.848915 
L 156.353615 134.711396 
L 157.439416 134.86597 
L 158.525217 136.00288 
L 159.611019 138.983165 
L 160.69682 137.602035 
L 161.782621 138.348694 
L 162.868422 137.672497 
L 163.954223 143.599928 
L 165.040024 141.340003 
L 166.125825 141.931989 
L 167.211627 144.744808 
L 168.297428 143.26758 
L 169.383229 143.677348 
L 170.46903 146.622126 
L 171.554831 147.720856 
L 172.640632 145.132298 
L 173.726434 145.479418 
L 174.812235 146.187836 
L 175.898036 146.555163 
L 176.983837 144.435714 
L 178.069638 144.582479 
L 179.155439 143.249637 
L 180.24124 141.457252 
L 181.327042 143.354671 
L 182.412843 145.548351 
L 183.498644 148.006502 
L 184.584445 147.003823 
L 185.670246 151.93504 
L 186.756047 157.412284 
L 187.841849 155.483498 
L 188.92765 155.18944 
L 190.013451 158.059061 
L 191.099252 156.026893 
L 192.185053 155.985196 
L 193.270854 158.812363 
L 194.356656 159.446233 
L 195.442457 157.799308 
L 196.528258 159.478281 
L 197.614059 157.131874 
L 198.69986 153.592138 
L 199.785661 159.601439 
L 200.871462 152.506052 
L 201.957264 149.621734 
L 203.043065 149.401775 
L 204.128866 144.220714 
L 205.214667 144.788461 
L 206.300468 146.43096 
L 207.386269 150.965122 
L 208.472071 153.751017 
L 209.557872 152.621541 
L 210.643673 149.969271 
L 211.729474 149.045593 
L 213.901076 154.280785 
L 214.986877 154.53042 
L 216.072679 149.958663 
L 217.15848 147.760319 
L 218.244281 151.227094 
L 219.330082 151.954006 
L 220.415883 149.912281 
L 221.501684 148.162831 
L 222.587486 150.563576 
L 223.673287 147.883995 
L 224.759088 148.67477 
L 225.844889 147.100742 
L 226.93069 143.264755 
L 228.016491 140.819035 
L 229.102292 140.711992 
L 230.188094 143.18474 
L 231.273895 143.420742 
L 232.359696 144.070008 
L 233.445497 146.764756 
L 234.531298 147.056801 
L 235.617099 146.897634 
L 236.702901 146.292083 
L 237.788702 147.965054 
L 238.874503 147.117398 
L 239.960304 147.171108 
L 241.046105 142.587004 
L 242.131906 146.300544 
L 243.217708 149.367083 
L 244.303509 151.335802 
L 245.38931 149.189888 
L 246.475111 153.482392 
L 247.560912 150.167576 
L 248.646713 153.261396 
L 249.732514 155.233683 
L 250.818316 152.634096 
L 251.904117 152.318709 
L 252.989918 152.582613 
L 254.075719 154.855716 
L 255.16152 158.794918 
L 256.247321 159.968346 
L 257.333123 158.354943 
L 258.418924 158.694032 
L 259.504725 163.282795 
L 260.590526 162.913696 
L 261.676327 165.755774 
L 262.762128 166.848026 
L 264.933731 164.761328 
L 266.019532 168.414062 
L 267.105333 164.691102 
L 268.191134 163.675544 
L 269.276935 163.803587 
L 270.362736 162.446876 
L 271.448538 166.623697 
L 272.534339 165.622195 
L 273.62014 166.900298 
L 274.705941 164.152411 
L 275.791742 160.212796 
L 276.877543 159.894192 
L 277.963344 162.72363 
L 279.049146 159.720143 
L 280.134947 159.362903 
L 281.220748 156.524953 
L 282.306549 155.871033 
L 283.39235 156.989972 
L 284.478151 154.084647 
L 285.563953 152.845925 
L 286.649754 151.266504 
L 287.735555 152.904022 
L 288.821356 155.114147 
L 289.907157 160.186806 
L 290.992958 160.42441 
L 292.07876 162.517124 
L 293.164561 162.72652 
L 295.336163 156.414385 
L 296.421964 152.948149 
L 297.507765 151.654973 
L 298.593566 153.711801 
L 299.679368 154.22511 
L 300.765169 154.258753 
L 301.85097 153.065336 
L 302.936771 153.66468 
L 304.022572 154.501747 
L 305.108373 154.448571 
L 306.194175 152.83265 
L 307.279976 152.998833 
L 308.365777 154.029888 
L 309.451578 153.787615 
L 310.537379 153.219768 
L 311.62318 153.646164 
L 312.708981 151.554649 
L 313.794783 150.772481 
L 314.880584 153.504154 
L 317.052186 155.692029 
L 318.137987 155.047578 
L 319.223788 153.599677 
L 320.30959 153.354926 
L 321.395391 156.496904 
L 322.481192 157.464806 
L 323.566993 157.135937 
L 324.652794 157.453002 
L 325.738595 156.034687 
L 326.824396 152.681492 
L 327.910198 155.047494 
L 328.995999 154.113594 
L 330.0818 153.543896 
L 331.167601 151.89738 
L 332.253402 154.471113 
L 334.425005 158.078489 
L 335.510806 158.743696 
L 336.596607 157.903084 
L 337.682408 158.733302 
L 338.768209 159.124627 
L 339.85401 158.275011 
L 340.939811 158.977853 
L 342.025613 158.085386 
L 343.111414 156.375802 
L 344.197215 156.956857 
L 345.283016 156.891754 
L 346.368817 157.734684 
L 347.454618 157.522481 
L 348.54042 157.850398 
L 349.626221 156.212525 
L 350.712022 158.876839 
L 351.797823 158.96386 
L 352.883624 159.787834 
L 353.969425 160.337416 
L 355.055227 159.432968 
L 356.141028 157.504956 
L 357.226829 158.659664 
L 358.31263 157.443086 
L 359.398431 155.743015 
L 360.484232 155.494498 
L 361.570033 156.514799 
L 362.655835 155.033395 
L 364.827437 153.390368 
L 365.913238 151.873332 
L 366.999039 154.160711 
L 368.08484 152.903229 
L 369.170642 153.152244 
L 370.256443 151.934708 
L 371.342244 151.962047 
L 372.428045 151.257796 
L 373.513846 149.960497 
L 374.599647 149.817682 
L 375.685448 149.899244 
L 376.77125 150.394737 
L 377.857051 148.871077 
L 378.942852 149.377077 
L 380.028653 150.119191 
L 381.114454 151.03561 
L 382.200255 149.529147 
L 383.286057 149.451177 
L 384.371858 150.3391 
L 385.457659 150.385667 
L 386.54346 150.299591 
L 387.629261 149.520904 
L 388.715062 150.617983 
L 389.800863 150.820647 
L 390.886665 150.316681 
L 391.972466 149.132391 
L 393.058267 148.695587 
L 394.144068 147.768151 
L 395.229869 147.718099 
L 396.31567 148.022953 
L 397.401472 148.102663 
L 398.487273 147.781817 
L 398.487273 147.781817 
" clip-path="url(#pbe67d954ca)" style="fill: none; stroke: #0000ff; stroke-opacity: 0.5; stroke-width: 2; stroke-linecap: square"/>
   </g>
   <g id="line2d_28">
    <path d="M 73.832727 169.906328 
L 74.918528 176.840413 
L 76.00433 172.206728 
L 78.175932 167.517929 
L 79.261733 167.34993 
L 80.347534 167.894558 
L 81.433335 171.050384 
L 82.519137 168.47754 
L 83.604938 169.732762 
L 84.690739 169.517424 
L 85.77654 171.403784 
L 86.862341 165.429283 
L 87.948142 162.017851 
L 89.033943 160.891214 
L 92.291347 169.008532 
L 93.377148 163.128348 
L 94.462949 161.198361 
L 95.54875 157.346479 
L 96.634552 158.123365 
L 97.720353 159.398586 
L 98.806154 162.49081 
L 99.891955 159.168459 
L 100.977756 160.086788 
L 102.063557 153.25863 
L 103.149358 147.887222 
L 104.23516 148.116307 
L 105.320961 145.999355 
L 106.406762 145.895702 
L 107.492563 146.815268 
L 108.578364 140.083863 
L 109.664165 146.060694 
L 110.749967 142.809655 
L 111.835768 144.031319 
L 112.921569 141.510756 
L 115.093171 135.159915 
L 116.178972 134.880777 
L 117.264773 137.583307 
L 118.350575 138.931721 
L 119.436376 139.468827 
L 120.522177 136.180997 
L 121.607978 140.429711 
L 122.693779 137.089779 
L 123.77958 141.623561 
L 124.865382 149.003699 
L 125.951183 153.858439 
L 127.036984 150.483125 
L 128.122785 147.611758 
L 129.208586 148.898529 
L 130.294387 147.745738 
L 131.380189 151.656451 
L 132.46599 150.33875 
L 133.551791 151.844883 
L 134.637592 152.735689 
L 136.809194 159.201872 
L 137.894995 159.240328 
L 138.980797 157.3791 
L 140.066598 159.314655 
L 141.152399 159.782072 
L 142.2382 161.832257 
L 143.324001 160.453505 
L 144.409802 163.077462 
L 145.495604 161.255719 
L 146.581405 162.11492 
L 147.667206 159.665346 
L 148.753007 160.3597 
L 149.838808 160.706314 
L 150.924609 160.095711 
L 152.01041 157.670018 
L 153.096212 156.431241 
L 154.182013 155.748853 
L 155.267814 153.866753 
L 156.353615 156.158592 
L 157.439416 155.963459 
L 158.525217 155.638643 
L 159.611019 163.577993 
L 160.69682 166.482846 
L 161.782621 167.592479 
L 162.868422 167.953369 
L 163.954223 165.582551 
L 165.040024 167.898072 
L 166.125825 167.01702 
L 167.211627 168.265036 
L 168.297428 167.524762 
L 169.383229 163.193248 
L 170.46903 162.08951 
L 171.554831 159.835323 
L 172.640632 160.777119 
L 174.812235 154.092936 
L 175.898036 154.720125 
L 176.983837 156.429293 
L 178.069638 151.644634 
L 179.155439 155.020338 
L 180.24124 153.283652 
L 181.327042 148.491106 
L 182.412843 145.117772 
L 183.498644 148.919115 
L 185.670246 147.013868 
L 186.756047 148.640607 
L 187.841849 149.056712 
L 188.92765 148.768209 
L 190.013451 150.01959 
L 191.099252 152.867809 
L 192.185053 149.025454 
L 194.356656 148.156384 
L 195.442457 152.656702 
L 196.528258 149.732684 
L 197.614059 144.662417 
L 198.69986 142.856241 
L 199.785661 148.663306 
L 200.871462 145.723029 
L 201.957264 144.850201 
L 203.043065 150.815186 
L 204.128866 153.590313 
L 205.214667 154.750126 
L 206.300468 152.181985 
L 207.386269 156.205583 
L 208.472071 155.607882 
L 209.557872 151.743626 
L 210.643673 150.717263 
L 211.729474 151.095528 
L 212.815275 151.61646 
L 213.901076 149.016189 
L 214.986877 150.861846 
L 216.072679 149.116468 
L 217.15848 149.445777 
L 218.244281 147.595376 
L 219.330082 150.695495 
L 220.415883 150.823773 
L 221.501684 149.318418 
L 222.587486 146.627545 
L 223.673287 150.403227 
L 224.759088 148.649424 
L 225.844889 146.607073 
L 226.93069 148.414221 
L 228.016491 147.947658 
L 229.102292 149.498315 
L 230.188094 149.803808 
L 231.273895 151.683769 
L 232.359696 149.186853 
L 233.445497 147.522013 
L 234.531298 148.732173 
L 235.617099 144.935376 
L 236.702901 148.963122 
L 237.788702 148.106363 
L 238.874503 146.114238 
L 239.960304 145.894017 
L 241.046105 143.365342 
L 242.131906 143.986285 
L 243.217708 142.438167 
L 244.303509 144.704335 
L 245.38931 142.376177 
L 246.475111 146.238291 
L 247.560912 143.068759 
L 248.646713 143.012987 
L 249.732514 144.752219 
L 250.818316 144.456034 
L 251.904117 145.323483 
L 252.989918 145.101738 
L 254.075719 144.073272 
L 255.16152 144.988119 
L 256.247321 149.305378 
L 258.418924 150.274127 
L 259.504725 149.325116 
L 260.590526 146.56162 
L 261.676327 146.412968 
L 262.762128 148.174582 
L 263.847929 147.130746 
L 264.933731 148.256897 
L 266.019532 147.475721 
L 267.105333 146.933113 
L 268.191134 146.995052 
L 269.276935 144.947966 
L 270.362736 147.446947 
L 271.448538 144.109218 
L 272.534339 146.787515 
L 273.62014 146.58211 
L 275.791742 153.93188 
L 276.877543 152.933488 
L 277.963344 151.529459 
L 279.049146 153.556755 
L 280.134947 150.378597 
L 281.220748 150.846729 
L 282.306549 153.169233 
L 283.39235 154.413697 
L 284.478151 153.637172 
L 285.563953 150.023468 
L 286.649754 147.999934 
L 287.735555 147.674966 
L 288.821356 147.587242 
L 289.907157 148.962585 
L 290.992958 150.721291 
L 292.07876 150.460237 
L 293.164561 153.644589 
L 294.250362 155.274098 
L 295.336163 159.406541 
L 296.421964 161.612762 
L 297.507765 159.397892 
L 298.593566 161.574012 
L 299.679368 160.019776 
L 300.765169 161.981524 
L 301.85097 163.486242 
L 302.936771 168.454978 
L 304.022572 172.078483 
L 305.108373 171.821125 
L 306.194175 171.449478 
L 307.279976 172.514348 
L 308.365777 171.730839 
L 309.451578 169.259968 
L 310.537379 168.7845 
L 311.62318 169.455182 
L 312.708981 169.614385 
L 313.794783 168.06191 
L 314.880584 165.987332 
L 315.966385 166.200861 
L 317.052186 163.347996 
L 318.137987 163.532042 
L 319.223788 163.946327 
L 320.30959 163.319231 
L 321.395391 166.182058 
L 322.481192 166.413096 
L 323.566993 164.962498 
L 324.652794 167.961875 
L 325.738595 170.041403 
L 326.824396 170.024715 
L 327.910198 170.605224 
L 328.995999 169.626184 
L 330.0818 167.548436 
L 331.167601 168.143506 
L 332.253402 168.449062 
L 333.339203 169.599703 
L 334.425005 167.468998 
L 335.510806 166.578945 
L 336.596607 167.684158 
L 337.682408 167.22365 
L 338.768209 169.906347 
L 339.85401 169.65448 
L 340.939811 170.606251 
L 342.025613 169.952501 
L 343.111414 168.860969 
L 344.197215 169.553088 
L 345.283016 169.099369 
L 346.368817 168.839364 
L 348.54042 169.394677 
L 349.626221 171.797781 
L 350.712022 171.112983 
L 351.797823 171.875678 
L 353.969425 175.638205 
L 355.055227 173.705035 
L 356.141028 174.570616 
L 357.226829 173.632895 
L 358.31263 173.565591 
L 359.398431 171.15703 
L 360.484232 169.951798 
L 361.570033 171.228767 
L 362.655835 171.342801 
L 363.741636 168.071223 
L 364.827437 166.719808 
L 365.913238 165.646887 
L 366.999039 167.639644 
L 368.08484 168.052666 
L 370.256443 167.595743 
L 371.342244 167.522855 
L 372.428045 167.803003 
L 373.513846 168.693613 
L 374.599647 167.548992 
L 375.685448 167.623766 
L 376.77125 167.921683 
L 377.857051 168.019216 
L 378.942852 167.216421 
L 380.028653 168.52767 
L 381.114454 168.85472 
L 382.200255 169.987263 
L 383.286057 170.362335 
L 384.371858 169.673572 
L 385.457659 169.614692 
L 386.54346 170.739345 
L 387.629261 171.194998 
L 388.715062 171.29977 
L 389.800863 172.083479 
L 390.886665 173.448083 
L 393.058267 173.958262 
L 394.144068 173.978778 
L 395.229869 173.717526 
L 396.31567 174.043046 
L 398.487273 174.197959 
L 398.487273 174.197959 
" clip-path="url(#pbe67d954ca)" style="fill: none; stroke: #0000ff; stroke-opacity: 0.5; stroke-width: 2; stroke-linecap: square"/>
   </g>
   <g id="line2d_29">
    <path d="M 73.832727 170.52885 
L 74.918528 173.728219 
L 76.00433 174.351905 
L 77.090131 172.769589 
L 78.175932 173.133489 
L 79.261733 178.131047 
L 80.347534 181.735913 
L 81.433335 180.428847 
L 82.519137 180.141623 
L 83.604938 181.742481 
L 84.690739 180.917003 
L 85.77654 183.857218 
L 86.862341 185.287112 
L 87.948142 182.118507 
L 89.033943 170.483816 
L 90.119745 168.743409 
L 91.205546 171.601177 
L 92.291347 173.261992 
L 93.377148 171.866035 
L 94.462949 173.833389 
L 95.54875 178.956155 
L 96.634552 182.19735 
L 97.720353 182.243273 
L 99.891955 189.448124 
L 100.977756 189.121934 
L 102.063557 186.131921 
L 103.149358 186.151384 
L 104.23516 182.134035 
L 105.320961 178.82076 
L 106.406762 178.599989 
L 107.492563 178.916041 
L 108.578364 177.63407 
L 109.664165 174.267376 
L 110.749967 176.278591 
L 111.835768 175.035157 
L 112.921569 178.681965 
L 114.00737 176.948164 
L 115.093171 178.887215 
L 116.178972 181.497584 
L 117.264773 183.114325 
L 118.350575 181.987093 
L 119.436376 182.821673 
L 120.522177 180.851033 
L 121.607978 183.109954 
L 123.77958 190.05863 
L 124.865382 191.83342 
L 125.951183 191.779723 
L 127.036984 192.516495 
L 129.208586 189.830964 
L 130.294387 190.232443 
L 131.380189 191.71659 
L 132.46599 200.222272 
L 134.637592 192.996609 
L 135.723393 196.08876 
L 136.809194 193.29702 
L 137.894995 193.339545 
L 138.980797 190.712555 
L 140.066598 192.719492 
L 141.152399 189.231628 
L 142.2382 187.13092 
L 143.324001 187.239546 
L 144.409802 183.263796 
L 146.581405 176.990207 
L 147.667206 178.894144 
L 148.753007 179.165195 
L 149.838808 175.506596 
L 150.924609 176.032578 
L 152.01041 173.260356 
L 153.096212 176.932537 
L 154.182013 178.009722 
L 155.267814 175.65212 
L 156.353615 173.570537 
L 157.439416 173.938884 
L 158.525217 176.518165 
L 159.611019 176.707162 
L 160.69682 177.883267 
L 161.782621 176.540372 
L 162.868422 171.814695 
L 163.954223 168.790911 
L 165.040024 170.697257 
L 166.125825 173.796626 
L 167.211627 168.70176 
L 168.297428 172.356517 
L 169.383229 175.00646 
L 170.46903 178.385126 
L 172.640632 173.638951 
L 173.726434 173.289048 
L 174.812235 174.290429 
L 175.898036 172.674694 
L 176.983837 171.72501 
L 178.069638 168.645333 
L 179.155439 167.200995 
L 180.24124 168.759194 
L 181.327042 163.3242 
L 182.412843 165.398945 
L 183.498644 163.099333 
L 185.670246 169.708438 
L 186.756047 172.259768 
L 188.92765 169.601995 
L 190.013451 169.972549 
L 191.099252 171.930009 
L 192.185053 169.74566 
L 193.270854 172.746593 
L 194.356656 171.77865 
L 195.442457 178.317548 
L 196.528258 176.541815 
L 197.614059 176.615115 
L 198.69986 175.60647 
L 199.785661 172.805127 
L 200.871462 175.663054 
L 201.957264 177.404946 
L 203.043065 179.76729 
L 204.128866 177.320721 
L 205.214667 176.696107 
L 206.300468 175.239003 
L 207.386269 177.508778 
L 208.472071 176.880335 
L 209.557872 176.38593 
L 210.643673 176.741157 
L 211.729474 175.195052 
L 212.815275 172.437128 
L 213.901076 170.991771 
L 214.986877 174.36079 
L 216.072679 174.947573 
L 217.15848 171.631224 
L 218.244281 169.016333 
L 219.330082 170.703412 
L 220.415883 167.378527 
L 221.501684 162.44757 
L 222.587486 165.323072 
L 223.673287 169.840907 
L 224.759088 172.489721 
L 225.844889 174.52439 
L 226.93069 171.1844 
L 228.016491 173.204353 
L 229.102292 171.060405 
L 230.188094 175.070628 
L 231.273895 173.655815 
L 232.359696 170.135557 
L 234.531298 166.622406 
L 235.617099 166.856386 
L 236.702901 164.980737 
L 237.788702 164.399013 
L 238.874503 168.195685 
L 239.960304 165.551046 
L 241.046105 163.625013 
L 242.131906 157.611659 
L 243.217708 158.495649 
L 244.303509 157.955731 
L 245.38931 157.706912 
L 246.475111 161.117506 
L 247.560912 157.541636 
L 248.646713 157.023715 
L 249.732514 152.522821 
L 251.904117 149.460444 
L 252.989918 150.277328 
L 254.075719 149.33306 
L 255.16152 151.34751 
L 256.247321 149.065963 
L 257.333123 149.956558 
L 258.418924 155.69019 
L 259.504725 156.616789 
L 260.590526 157.165357 
L 261.676327 158.396319 
L 262.762128 161.825257 
L 263.847929 162.63377 
L 264.933731 164.515723 
L 266.019532 164.92869 
L 267.105333 166.056846 
L 268.191134 165.486887 
L 269.276935 164.460651 
L 270.362736 164.192399 
L 272.534339 157.732274 
L 273.62014 158.23549 
L 275.791742 161.391616 
L 276.877543 162.218715 
L 277.963344 162.715448 
L 279.049146 161.105119 
L 280.134947 162.767921 
L 281.220748 163.544705 
L 282.306549 162.936427 
L 283.39235 164.008958 
L 284.478151 165.960896 
L 285.563953 169.135035 
L 286.649754 168.860983 
L 287.735555 166.924865 
L 288.821356 167.103546 
L 289.907157 163.586122 
L 290.992958 167.185144 
L 292.07876 164.944278 
L 294.250362 167.810358 
L 295.336163 167.733592 
L 296.421964 168.807317 
L 297.507765 164.703726 
L 298.593566 163.70753 
L 299.679368 164.650924 
L 300.765169 168.870211 
L 302.936771 166.077603 
L 304.022572 169.699564 
L 305.108373 167.448479 
L 306.194175 168.897396 
L 307.279976 169.792878 
L 308.365777 168.108567 
L 309.451578 168.601799 
L 310.537379 170.270977 
L 311.62318 169.148564 
L 312.708981 166.822201 
L 313.794783 166.3535 
L 314.880584 167.129181 
L 315.966385 167.096181 
L 317.052186 168.507782 
L 318.137987 165.977812 
L 319.223788 165.675517 
L 320.30959 165.519454 
L 321.395391 166.01373 
L 322.481192 165.539432 
L 323.566993 164.85224 
L 324.652794 161.580254 
L 325.738595 162.985534 
L 326.824396 163.097221 
L 327.910198 162.771183 
L 328.995999 164.499691 
L 330.0818 165.429484 
L 331.167601 163.376006 
L 332.253402 164.900942 
L 334.425005 167.367828 
L 335.510806 168.015626 
L 336.596607 167.978421 
L 337.682408 168.408633 
L 338.768209 167.56227 
L 339.85401 168.111633 
L 340.939811 166.459165 
L 343.111414 168.976871 
L 344.197215 168.18758 
L 345.283016 168.495871 
L 346.368817 168.386997 
L 347.454618 166.758912 
L 348.54042 166.703215 
L 349.626221 167.549238 
L 350.712022 169.123024 
L 351.797823 170.017758 
L 352.883624 169.093368 
L 355.055227 169.770629 
L 356.141028 167.624155 
L 357.226829 167.960442 
L 358.31263 169.670672 
L 360.484232 169.826991 
L 362.655835 169.461213 
L 363.741636 170.350929 
L 364.827437 170.799029 
L 365.913238 171.59338 
L 366.999039 171.672859 
L 368.08484 172.304637 
L 369.170642 172.321807 
L 370.256443 173.145177 
L 371.342244 173.128031 
L 372.428045 172.814811 
L 373.513846 171.690787 
L 374.599647 172.520158 
L 375.685448 172.63893 
L 376.77125 171.698492 
L 377.857051 171.908584 
L 378.942852 171.219433 
L 380.028653 171.362383 
L 381.114454 172.430685 
L 383.286057 173.044306 
L 384.371858 173.908721 
L 385.457659 174.959996 
L 386.54346 175.094058 
L 387.629261 175.765378 
L 388.715062 175.470347 
L 389.800863 175.965017 
L 390.886665 175.580948 
L 394.144068 175.761573 
L 395.229869 176.557662 
L 396.31567 176.345809 
L 398.487273 176.529555 
L 398.487273 176.529555 
" clip-path="url(#pbe67d954ca)" style="fill: none; stroke: #0000ff; stroke-opacity: 0.5; stroke-width: 2; stroke-linecap: square"/>
   </g>
   <g id="line2d_30">
    <path d="M 73.832727 141.992561 
L 74.918528 138.247863 
L 76.00433 140.044791 
L 77.090131 143.372868 
L 78.175932 142.625935 
L 79.261733 142.249093 
L 80.347534 146.897963 
L 81.433335 142.970006 
L 82.519137 146.104021 
L 83.604938 148.629353 
L 84.690739 147.289202 
L 85.77654 146.990311 
L 86.862341 142.324633 
L 87.948142 144.765037 
L 89.033943 146.446053 
L 90.119745 143.836153 
L 91.205546 147.702481 
L 92.291347 147.221067 
L 93.377148 149.837422 
L 94.462949 148.877077 
L 95.54875 149.026293 
L 96.634552 149.790256 
L 97.720353 149.836225 
L 98.806154 150.380101 
L 99.891955 150.17282 
L 102.063557 146.287578 
L 103.149358 149.706534 
L 104.23516 151.830952 
L 105.320961 147.694234 
L 106.406762 154.161976 
L 107.492563 159.228947 
L 108.578364 165.156704 
L 109.664165 168.195019 
L 110.749967 166.649098 
L 111.835768 166.912581 
L 112.921569 168.6316 
L 114.00737 165.777099 
L 115.093171 165.221167 
L 116.178972 162.964979 
L 117.264773 170.399641 
L 118.350575 168.478791 
L 119.436376 167.263381 
L 120.522177 169.374661 
L 121.607978 163.654736 
L 122.693779 159.43163 
L 124.865382 152.868848 
L 125.951183 152.909868 
L 127.036984 151.12629 
L 128.122785 154.3402 
L 129.208586 156.675148 
L 130.294387 161.535861 
L 131.380189 159.025634 
L 132.46599 160.01705 
L 133.551791 157.77645 
L 134.637592 156.364606 
L 135.723393 156.729077 
L 136.809194 155.885002 
L 137.894995 156.089367 
L 140.066598 165.926514 
L 141.152399 164.12392 
L 142.2382 160.847161 
L 143.324001 158.872907 
L 145.495604 166.431572 
L 147.667206 157.86863 
L 148.753007 155.613316 
L 149.838808 157.709303 
L 150.924609 152.751288 
L 153.096212 147.657938 
L 154.182013 148.538454 
L 155.267814 147.451743 
L 156.353615 151.903418 
L 157.439416 148.897711 
L 158.525217 150.540104 
L 159.611019 148.921846 
L 160.69682 149.334041 
L 161.782621 150.638173 
L 162.868422 150.998043 
L 163.954223 150.639581 
L 165.040024 152.296025 
L 166.125825 152.970828 
L 167.211627 154.228534 
L 168.297428 156.493308 
L 169.383229 154.76388 
L 170.46903 155.343929 
L 171.554831 156.436934 
L 172.640632 161.228971 
L 173.726434 165.436147 
L 174.812235 166.212484 
L 175.898036 166.781726 
L 176.983837 168.772815 
L 178.069638 168.762029 
L 180.24124 175.498721 
L 181.327042 176.80159 
L 182.412843 176.57434 
L 183.498644 180.302414 
L 184.584445 183.514989 
L 185.670246 184.38611 
L 186.756047 186.676269 
L 187.841849 192.149896 
L 188.92765 196.939604 
L 190.013451 192.388765 
L 191.099252 192.908475 
L 192.185053 192.811972 
L 193.270854 191.640077 
L 194.356656 187.327674 
L 195.442457 187.521375 
L 196.528258 186.300344 
L 197.614059 188.346253 
L 198.69986 183.212531 
L 199.785661 184.60116 
L 200.871462 190.882363 
L 203.043065 188.290598 
L 204.128866 188.693344 
L 205.214667 185.973226 
L 206.300468 189.294685 
L 207.386269 185.058974 
L 208.472071 186.339629 
L 209.557872 183.811519 
L 210.643673 188.454284 
L 211.729474 190.323194 
L 212.815275 189.951171 
L 213.901076 191.354371 
L 214.986877 196.702421 
L 216.072679 194.507438 
L 217.15848 195.45961 
L 218.244281 198.55818 
L 219.330082 200.084204 
L 220.415883 198.756339 
L 221.501684 199.465684 
L 222.587486 195.898538 
L 223.673287 198.614697 
L 224.759088 196.713929 
L 225.844889 195.750377 
L 226.93069 198.492973 
L 228.016491 201.558337 
L 229.102292 196.196431 
L 230.188094 193.560404 
L 231.273895 192.322147 
L 232.359696 191.925967 
L 233.445497 197.067471 
L 234.531298 198.01419 
L 235.617099 198.100592 
L 237.788702 197.344127 
L 238.874503 195.800727 
L 239.960304 195.682162 
L 241.046105 190.964792 
L 242.131906 193.101121 
L 243.217708 190.011419 
L 244.303509 194.519831 
L 245.38931 197.710119 
L 246.475111 196.798804 
L 248.646713 196.706789 
L 249.732514 198.332986 
L 250.818316 199.12248 
L 251.904117 198.649953 
L 252.989918 197.762931 
L 254.075719 198.982408 
L 256.247321 191.76134 
L 257.333123 195.597534 
L 258.418924 197.042799 
L 259.504725 201.601366 
L 260.590526 201.118132 
L 261.676327 198.875678 
L 262.762128 200.13302 
L 263.847929 200.189899 
L 264.933731 201.618325 
L 266.019532 201.017498 
L 267.105333 199.288571 
L 268.191134 202.955543 
L 269.276935 201.667251 
L 270.362736 205.032269 
L 271.448538 202.968271 
L 272.534339 206.704565 
L 273.62014 205.829011 
L 274.705941 206.109313 
L 275.791742 205.088059 
L 276.877543 203.865804 
L 277.963344 209.958302 
L 279.049146 209.542544 
L 280.134947 208.310099 
L 281.220748 209.083221 
L 282.306549 208.724482 
L 283.39235 211.186654 
L 284.478151 208.94409 
L 285.563953 210.006057 
L 286.649754 208.871363 
L 287.735555 209.134734 
L 288.821356 206.890784 
L 289.907157 207.524308 
L 290.992958 205.094748 
L 292.07876 207.166223 
L 293.164561 207.882029 
L 294.250362 209.720022 
L 295.336163 209.657943 
L 296.421964 212.086177 
L 297.507765 211.848602 
L 298.593566 214.247097 
L 299.679368 213.368995 
L 300.765169 214.177113 
L 301.85097 211.825438 
L 302.936771 211.768489 
L 304.022572 209.866333 
L 305.108373 206.724855 
L 306.194175 205.749612 
L 307.279976 207.003526 
L 308.365777 204.554462 
L 309.451578 204.339437 
L 310.537379 202.890467 
L 311.62318 202.818283 
L 312.708981 205.746177 
L 313.794783 204.303951 
L 314.880584 204.356375 
L 315.966385 201.290571 
L 317.052186 202.177467 
L 318.137987 201.748976 
L 319.223788 205.384591 
L 320.30959 207.846741 
L 321.395391 206.627046 
L 322.481192 205.189624 
L 323.566993 204.428271 
L 324.652794 205.213935 
L 325.738595 206.959562 
L 326.824396 205.938555 
L 327.910198 205.82428 
L 328.995999 208.43403 
L 330.0818 207.265967 
L 331.167601 209.530519 
L 333.339203 208.010278 
L 334.425005 206.715126 
L 335.510806 204.619873 
L 336.596607 203.164891 
L 337.682408 203.264567 
L 338.768209 203.515767 
L 339.85401 204.746898 
L 340.939811 202.556749 
L 342.025613 204.094413 
L 343.111414 202.603162 
L 344.197215 204.080951 
L 345.283016 203.628594 
L 346.368817 205.450581 
L 347.454618 204.593933 
L 348.54042 204.994739 
L 349.626221 203.880039 
L 350.712022 203.854321 
L 351.797823 203.333799 
L 352.883624 204.397373 
L 353.969425 203.449255 
L 355.055227 204.848506 
L 356.141028 205.274997 
L 357.226829 203.199094 
L 358.31263 204.243549 
L 359.398431 202.617518 
L 360.484232 201.276426 
L 361.570033 200.585485 
L 362.655835 200.664911 
L 363.741636 201.475734 
L 364.827437 201.132351 
L 365.913238 201.437238 
L 366.999039 200.78023 
L 368.08484 200.269229 
L 369.170642 197.087015 
L 370.256443 198.638591 
L 371.342244 199.30858 
L 372.428045 198.561951 
L 373.513846 197.573861 
L 374.599647 198.551487 
L 375.685448 198.645903 
L 376.77125 197.873133 
L 377.857051 198.066729 
L 378.942852 197.139239 
L 380.028653 198.585513 
L 381.114454 199.36863 
L 382.200255 200.872211 
L 383.286057 201.492697 
L 384.371858 200.874121 
L 385.457659 199.963941 
L 386.54346 199.964836 
L 387.629261 199.035693 
L 388.715062 199.25659 
L 389.800863 198.679904 
L 390.886665 199.350573 
L 391.972466 199.137673 
L 393.058267 198.687838 
L 394.144068 198.676077 
L 395.229869 199.168326 
L 396.31567 198.496666 
L 397.401472 200.030324 
L 398.487273 193.287308 
L 398.487273 193.287308 
" clip-path="url(#pbe67d954ca)" style="fill: none; stroke: #000000; stroke-opacity: 0.5; stroke-width: 2; stroke-linecap: square"/>
   </g>
   <g id="line2d_31">
    <path d="M 73.832727 183.201162 
L 74.918528 184.887212 
L 76.00433 189.681556 
L 77.090131 189.016695 
L 78.175932 193.485147 
L 79.261733 189.721565 
L 80.347534 181.428917 
L 81.433335 180.52625 
L 82.519137 175.091015 
L 83.604938 169.04584 
L 84.690739 167.780209 
L 85.77654 163.903695 
L 86.862341 157.566536 
L 87.948142 154.206316 
L 89.033943 153.507388 
L 90.119745 147.393535 
L 91.205546 150.251083 
L 92.291347 144.912019 
L 93.377148 150.515697 
L 94.462949 149.016072 
L 95.54875 149.323835 
L 96.634552 148.536276 
L 97.720353 151.327782 
L 98.806154 152.093672 
L 99.891955 151.308165 
L 100.977756 151.539802 
L 102.063557 151.551311 
L 103.149358 154.366342 
L 104.23516 154.131897 
L 105.320961 160.433278 
L 106.406762 161.086528 
L 107.492563 163.343099 
L 108.578364 165.952411 
L 109.664165 169.285723 
L 111.835768 160.605638 
L 112.921569 159.462617 
L 114.00737 156.9218 
L 115.093171 160.835362 
L 116.178972 162.56289 
L 117.264773 160.08302 
L 118.350575 160.15052 
L 119.436376 155.889314 
L 120.522177 163.084399 
L 122.693779 157.461932 
L 123.77958 150.774395 
L 124.865382 152.097441 
L 125.951183 154.877542 
L 127.036984 160.833451 
L 128.122785 160.769582 
L 129.208586 158.883245 
L 130.294387 161.757944 
L 131.380189 161.821627 
L 132.46599 166.338585 
L 133.551791 165.507827 
L 134.637592 169.168516 
L 135.723393 164.449154 
L 136.809194 163.537314 
L 137.894995 164.024496 
L 138.980797 165.138227 
L 140.066598 159.552865 
L 141.152399 159.888913 
L 142.2382 155.547158 
L 143.324001 155.294052 
L 144.409802 157.190979 
L 145.495604 155.462036 
L 146.581405 153.100121 
L 147.667206 157.755299 
L 148.753007 155.788594 
L 149.838808 159.726935 
L 150.924609 157.970965 
L 152.01041 159.849538 
L 153.096212 157.376399 
L 154.182013 156.397084 
L 155.267814 161.391039 
L 156.353615 160.583879 
L 157.439416 158.522641 
L 158.525217 161.63269 
L 159.611019 162.0762 
L 160.69682 158.184597 
L 161.782621 165.73141 
L 162.868422 164.89434 
L 163.954223 171.638792 
L 165.040024 174.50737 
L 166.125825 174.099562 
L 167.211627 172.622078 
L 168.297428 172.371656 
L 170.46903 181.336994 
L 171.554831 183.118012 
L 172.640632 179.924112 
L 173.726434 182.125987 
L 174.812235 180.249574 
L 175.898036 180.593976 
L 176.983837 179.929606 
L 178.069638 178.779778 
L 179.155439 180.852359 
L 180.24124 182.589351 
L 181.327042 182.381219 
L 182.412843 186.949183 
L 183.498644 190.139233 
L 184.584445 190.389281 
L 185.670246 192.971374 
L 186.756047 191.700485 
L 188.92765 186.391018 
L 190.013451 184.788977 
L 191.099252 186.567188 
L 192.185053 182.703436 
L 193.270854 180.912637 
L 194.356656 183.398145 
L 195.442457 179.148262 
L 196.528258 174.230818 
L 197.614059 173.853202 
L 198.69986 177.488774 
L 199.785661 182.423468 
L 200.871462 183.057241 
L 201.957264 184.848938 
L 203.043065 191.038895 
L 204.128866 193.97274 
L 205.214667 194.090181 
L 206.300468 195.391333 
L 207.386269 198.072941 
L 208.472071 194.362114 
L 209.557872 195.429082 
L 210.643673 194.516351 
L 211.729474 193.229542 
L 212.815275 193.245347 
L 213.901076 192.255328 
L 214.986877 193.958665 
L 216.072679 188.085283 
L 217.15848 185.301714 
L 218.244281 186.184026 
L 219.330082 186.578241 
L 220.415883 188.584477 
L 221.501684 193.688101 
L 222.587486 195.152828 
L 223.673287 193.744941 
L 224.759088 196.710412 
L 225.844889 195.262014 
L 226.93069 190.566566 
L 228.016491 190.170664 
L 229.102292 188.816311 
L 230.188094 191.679167 
L 231.273895 193.362558 
L 232.359696 192.448112 
L 233.445497 191.240385 
L 234.531298 193.129958 
L 235.617099 193.019068 
L 236.702901 190.516493 
L 238.874503 194.987787 
L 239.960304 192.924957 
L 241.046105 194.77263 
L 242.131906 192.954245 
L 243.217708 191.397267 
L 244.303509 192.123491 
L 245.38931 193.248022 
L 246.475111 188.469629 
L 247.560912 185.661915 
L 248.646713 187.293369 
L 249.732514 189.637022 
L 250.818316 190.35287 
L 251.904117 191.610673 
L 252.989918 193.59898 
L 254.075719 192.981937 
L 255.16152 192.836971 
L 257.333123 199.005449 
L 258.418924 195.281446 
L 259.504725 197.30248 
L 260.590526 198.240212 
L 261.676327 199.98628 
L 262.762128 198.117013 
L 263.847929 199.706842 
L 264.933731 200.791118 
L 266.019532 203.445732 
L 267.105333 203.621404 
L 268.191134 205.85533 
L 269.276935 205.201922 
L 270.362736 203.009192 
L 271.448538 199.913354 
L 272.534339 204.870151 
L 273.62014 198.078188 
L 274.705941 196.744257 
L 275.791742 197.137602 
L 276.877543 193.497658 
L 277.963344 193.353056 
L 279.049146 190.654985 
L 281.220748 187.903944 
L 282.306549 187.934937 
L 283.39235 190.049655 
L 284.478151 190.301861 
L 285.563953 187.009569 
L 286.649754 186.612574 
L 288.821356 195.454184 
L 289.907157 195.938559 
L 290.992958 194.864037 
L 293.164561 190.76285 
L 294.250362 190.948286 
L 295.336163 193.390502 
L 296.421964 193.501588 
L 297.507765 192.392317 
L 298.593566 192.611891 
L 299.679368 193.159092 
L 300.765169 191.232054 
L 301.85097 191.753112 
L 302.936771 191.461239 
L 304.022572 193.517655 
L 305.108373 196.776766 
L 306.194175 195.505764 
L 307.279976 195.783138 
L 308.365777 196.69651 
L 309.451578 198.871375 
L 310.537379 200.340839 
L 311.62318 201.028143 
L 312.708981 202.139868 
L 314.880584 201.968703 
L 315.966385 204.186208 
L 317.052186 202.715604 
L 318.137987 200.947063 
L 319.223788 203.363102 
L 320.30959 207.865121 
L 321.395391 205.776207 
L 322.481192 206.327975 
L 323.566993 207.53253 
L 324.652794 207.457348 
L 325.738595 206.568799 
L 326.824396 206.372517 
L 327.910198 204.007343 
L 328.995999 202.187558 
L 330.0818 201.736172 
L 331.167601 200.915597 
L 332.253402 201.67661 
L 333.339203 198.855358 
L 334.425005 196.35208 
L 335.510806 194.81995 
L 336.596607 194.080104 
L 337.682408 193.96878 
L 338.768209 193.585838 
L 339.85401 194.591737 
L 340.939811 194.995946 
L 342.025613 193.58909 
L 343.111414 192.925945 
L 344.197215 194.242989 
L 345.283016 195.889573 
L 346.368817 194.292622 
L 348.54042 194.476445 
L 349.626221 196.940648 
L 350.712022 195.961867 
L 351.797823 199.512721 
L 352.883624 198.392776 
L 353.969425 198.476767 
L 355.055227 199.005345 
L 356.141028 195.859095 
L 357.226829 197.198296 
L 358.31263 198.349095 
L 359.398431 197.643894 
L 360.484232 198.180749 
L 361.570033 199.230399 
L 362.655835 198.505774 
L 363.741636 199.402913 
L 364.827437 199.345687 
L 365.913238 199.987489 
L 366.999039 198.78228 
L 368.08484 197.758959 
L 369.170642 198.364491 
L 370.256443 198.718106 
L 371.342244 198.703077 
L 372.428045 196.167638 
L 373.513846 195.543183 
L 374.599647 197.494023 
L 375.685448 198.023454 
L 376.77125 197.062776 
L 377.857051 197.221531 
L 378.942852 196.86043 
L 380.028653 195.973865 
L 381.114454 197.386607 
L 382.200255 198.392206 
L 383.286057 198.886363 
L 384.371858 198.996758 
L 385.457659 199.393259 
L 386.54346 197.839993 
L 387.629261 198.938795 
L 388.715062 197.72627 
L 389.800863 198.049148 
L 390.886665 198.179452 
L 391.972466 199.017847 
L 393.058267 198.105766 
L 394.144068 198.334215 
L 395.229869 199.569806 
L 396.31567 199.465529 
L 397.401472 202.318945 
L 398.487273 183.958435 
L 398.487273 183.958435 
" clip-path="url(#pbe67d954ca)" style="fill: none; stroke: #000000; stroke-opacity: 0.5; stroke-width: 2; stroke-linecap: square"/>
   </g>
   <g id="line2d_32">
    <path d="M 73.832727 149.063756 
L 74.918528 148.830692 
L 76.00433 148.002727 
L 77.090131 151.24796 
L 78.175932 148.073604 
L 79.261733 152.402045 
L 80.347534 150.530725 
L 82.519137 143.7869 
L 83.604938 143.394661 
L 84.690739 141.391782 
L 85.77654 147.21848 
L 86.862341 144.493135 
L 87.948142 140.088444 
L 89.033943 139.8206 
L 90.119745 140.768191 
L 91.205546 145.212821 
L 92.291347 144.904151 
L 93.377148 148.055703 
L 94.462949 144.943956 
L 95.54875 143.646897 
L 96.634552 137.469624 
L 97.720353 140.942127 
L 98.806154 141.920891 
L 99.891955 138.379428 
L 100.977756 145.496128 
L 102.063557 147.281874 
L 103.149358 146.86716 
L 104.23516 141.68311 
L 105.320961 141.918865 
L 106.406762 138.91604 
L 107.492563 144.343936 
L 108.578364 142.518735 
L 109.664165 141.459986 
L 110.749967 145.920474 
L 111.835768 145.750336 
L 112.921569 148.115437 
L 114.00737 146.144457 
L 115.093171 141.984102 
L 116.178972 136.488897 
L 117.264773 132.858141 
L 118.350575 129.623175 
L 119.436376 125.78542 
L 120.522177 119.468157 
L 121.607978 121.826109 
L 122.693779 118.402414 
L 124.865382 123.506122 
L 125.951183 122.150695 
L 127.036984 119.107154 
L 128.122785 124.007719 
L 129.208586 117.765616 
L 130.294387 114.98869 
L 131.380189 117.923455 
L 132.46599 117.928149 
L 133.551791 119.185009 
L 134.637592 116.960798 
L 135.723393 120.771097 
L 136.809194 120.934205 
L 137.894995 120.289018 
L 138.980797 123.331516 
L 141.152399 124.432983 
L 142.2382 122.436561 
L 143.324001 130.322041 
L 144.409802 137.387921 
L 145.495604 139.93752 
L 146.581405 139.45623 
L 147.667206 138.655338 
L 149.838808 133.324246 
L 152.01041 136.428722 
L 153.096212 140.468698 
L 154.182013 141.723584 
L 155.267814 141.246342 
L 156.353615 144.612781 
L 157.439416 145.750247 
L 158.525217 148.985915 
L 159.611019 153.750227 
L 160.69682 153.434182 
L 161.782621 159.375115 
L 162.868422 159.918603 
L 163.954223 162.871653 
L 165.040024 160.037284 
L 166.125825 161.683838 
L 167.211627 155.969461 
L 168.297428 151.01537 
L 169.383229 152.672372 
L 170.46903 156.3563 
L 171.554831 157.342259 
L 172.640632 157.390779 
L 173.726434 164.6479 
L 174.812235 165.04053 
L 175.898036 168.549545 
L 176.983837 168.57496 
L 178.069638 171.268744 
L 179.155439 171.607416 
L 180.24124 170.461189 
L 181.327042 173.052419 
L 182.412843 172.973393 
L 183.498644 172.579937 
L 184.584445 175.51353 
L 185.670246 176.044988 
L 186.756047 180.169318 
L 187.841849 179.925963 
L 188.92765 180.591433 
L 190.013451 177.863806 
L 192.185053 186.525452 
L 193.270854 187.491471 
L 194.356656 183.842471 
L 195.442457 185.654011 
L 196.528258 185.522017 
L 197.614059 184.893474 
L 198.69986 183.370029 
L 199.785661 185.438295 
L 200.871462 182.919001 
L 201.957264 178.922699 
L 203.043065 177.758241 
L 204.128866 178.084849 
L 205.214667 178.158893 
L 206.300468 176.041969 
L 207.386269 172.290807 
L 208.472071 172.584325 
L 209.557872 172.615944 
L 210.643673 175.532837 
L 211.729474 171.266385 
L 212.815275 172.213285 
L 213.901076 174.158292 
L 214.986877 170.634547 
L 216.072679 171.49666 
L 217.15848 171.019617 
L 218.244281 169.638438 
L 219.330082 169.77265 
L 221.501684 171.002037 
L 222.587486 172.416832 
L 223.673287 172.838163 
L 224.759088 171.851241 
L 225.844889 174.860654 
L 226.93069 174.200655 
L 228.016491 176.766877 
L 229.102292 176.918397 
L 230.188094 182.154201 
L 231.273895 183.823997 
L 232.359696 183.477926 
L 233.445497 185.982202 
L 234.531298 191.229927 
L 235.617099 189.450495 
L 237.788702 195.905809 
L 238.874503 196.340802 
L 239.960304 196.119591 
L 241.046105 200.462166 
L 242.131906 201.329453 
L 243.217708 200.983283 
L 244.303509 201.082784 
L 245.38931 199.689366 
L 246.475111 201.559382 
L 247.560912 202.353364 
L 248.646713 205.930436 
L 249.732514 202.506021 
L 250.818316 198.145748 
L 251.904117 200.387778 
L 252.989918 198.169481 
L 254.075719 197.414885 
L 255.16152 195.931927 
L 256.247321 191.518576 
L 257.333123 194.948011 
L 258.418924 196.077563 
L 259.504725 196.976868 
L 260.590526 197.013858 
L 261.676327 195.038899 
L 262.762128 190.273796 
L 263.847929 188.577064 
L 264.933731 186.5387 
L 266.019532 188.030196 
L 267.105333 190.696768 
L 268.191134 187.220644 
L 269.276935 188.049959 
L 270.362736 186.080981 
L 271.448538 187.49547 
L 272.534339 187.756154 
L 274.705941 192.945647 
L 275.791742 193.34329 
L 276.877543 192.711741 
L 277.963344 191.456154 
L 279.049146 191.174237 
L 280.134947 192.137625 
L 281.220748 193.411761 
L 282.306549 191.918281 
L 283.39235 192.09135 
L 284.478151 192.097876 
L 285.563953 193.274125 
L 286.649754 195.272548 
L 287.735555 195.065405 
L 288.821356 193.760583 
L 289.907157 196.371762 
L 290.992958 195.930477 
L 292.07876 195.887101 
L 293.164561 199.627574 
L 294.250362 197.173161 
L 295.336163 195.055592 
L 297.507765 198.316274 
L 298.593566 202.317811 
L 299.679368 202.498207 
L 300.765169 200.580494 
L 301.85097 201.710213 
L 302.936771 200.19626 
L 304.022572 202.751865 
L 305.108373 202.404945 
L 306.194175 202.746171 
L 308.365777 201.111999 
L 309.451578 197.343625 
L 310.537379 195.707021 
L 312.708981 195.66561 
L 314.880584 197.263367 
L 315.966385 197.611192 
L 317.052186 195.178887 
L 318.137987 192.246299 
L 319.223788 194.121805 
L 320.30959 194.591855 
L 321.395391 194.386028 
L 322.481192 194.564378 
L 323.566993 195.209839 
L 324.652794 196.739048 
L 325.738595 198.82826 
L 326.824396 199.046797 
L 327.910198 199.492526 
L 328.995999 199.421399 
L 330.0818 200.399112 
L 331.167601 200.548866 
L 332.253402 202.678434 
L 333.339203 205.634901 
L 334.425005 205.375563 
L 335.510806 205.904988 
L 336.596607 207.754792 
L 337.682408 208.632934 
L 338.768209 207.0429 
L 339.85401 206.399789 
L 340.939811 204.097857 
L 342.025613 204.114223 
L 343.111414 201.244324 
L 344.197215 203.394318 
L 345.283016 202.625011 
L 346.368817 204.981432 
L 347.454618 203.90616 
L 348.54042 204.283225 
L 349.626221 203.221095 
L 351.797823 203.020919 
L 352.883624 204.485027 
L 353.969425 205.150373 
L 355.055227 205.422885 
L 356.141028 203.467261 
L 357.226829 203.415868 
L 358.31263 202.23326 
L 359.398431 202.166993 
L 360.484232 201.328346 
L 361.570033 199.846072 
L 362.655835 197.972281 
L 363.741636 200.022742 
L 364.827437 198.758358 
L 365.913238 199.562968 
L 366.999039 200.79017 
L 368.08484 199.431515 
L 369.170642 198.986818 
L 370.256443 197.858197 
L 371.342244 194.874479 
L 372.428045 194.952672 
L 373.513846 197.259879 
L 374.599647 197.669133 
L 375.685448 198.613477 
L 376.77125 197.617517 
L 377.857051 197.991245 
L 378.942852 199.056234 
L 380.028653 199.031363 
L 381.114454 199.702004 
L 383.286057 199.805221 
L 384.371858 200.093318 
L 385.457659 199.92208 
L 386.54346 198.762791 
L 387.629261 199.124975 
L 388.715062 198.990099 
L 389.800863 199.082319 
L 391.972466 197.932963 
L 393.058267 198.684556 
L 394.144068 198.398798 
L 396.31567 199.686462 
L 397.401472 201.996491 
L 398.487273 186.314032 
L 398.487273 186.314032 
" clip-path="url(#pbe67d954ca)" style="fill: none; stroke: #000000; stroke-opacity: 0.5; stroke-width: 2; stroke-linecap: square"/>
   </g>
   <g id="line2d_33">
    <path d="M 73.832727 151.270937 
L 76.00433 153.824141 
L 77.090131 159.698886 
L 78.175932 161.137074 
L 79.261733 161.897855 
L 80.347534 161.505413 
L 81.433335 160.918016 
L 82.519137 157.346171 
L 83.604938 156.117025 
L 84.690739 150.151801 
L 85.77654 153.696148 
L 86.862341 156.846805 
L 87.948142 159.381997 
L 89.033943 152.620489 
L 90.119745 150.655168 
L 91.205546 152.02815 
L 93.377148 158.626562 
L 94.462949 154.699494 
L 95.54875 155.191416 
L 96.634552 152.521516 
L 97.720353 150.914532 
L 99.891955 150.644934 
L 100.977756 147.586086 
L 102.063557 142.852426 
L 103.149358 142.106829 
L 104.23516 138.108165 
L 105.320961 140.798822 
L 106.406762 142.607094 
L 107.492563 140.682908 
L 108.578364 136.892888 
L 109.664165 137.902137 
L 110.749967 135.708711 
L 111.835768 132.261006 
L 112.921569 137.762583 
L 114.00737 141.489676 
L 115.093171 140.054268 
L 116.178972 145.350661 
L 117.264773 145.393771 
L 118.350575 146.458178 
L 120.522177 150.265158 
L 121.607978 156.470181 
L 122.693779 154.784298 
L 123.77958 153.919319 
L 125.951183 160.115301 
L 128.122785 152.470616 
L 129.208586 153.559404 
L 130.294387 148.087357 
L 131.380189 149.254228 
L 132.46599 145.379889 
L 133.551791 152.169169 
L 134.637592 149.885125 
L 135.723393 153.656298 
L 136.809194 154.786875 
L 137.894995 150.076672 
L 138.980797 147.724503 
L 140.066598 145.680378 
L 141.152399 145.593025 
L 142.2382 151.543369 
L 144.409802 155.189108 
L 145.495604 158.85473 
L 146.581405 150.370699 
L 147.667206 151.66205 
L 148.753007 147.482453 
L 149.838808 140.87044 
L 150.924609 137.853025 
L 152.01041 139.207326 
L 153.096212 144.676297 
L 154.182013 147.540244 
L 155.267814 146.408643 
L 156.353615 149.230393 
L 157.439416 149.031104 
L 158.525217 146.597904 
L 159.611019 140.127233 
L 160.69682 141.453823 
L 161.782621 143.261282 
L 162.868422 142.80012 
L 163.954223 145.564993 
L 165.040024 147.743937 
L 166.125825 151.353294 
L 167.211627 153.983964 
L 168.297428 154.575097 
L 169.383229 157.284658 
L 170.46903 158.843613 
L 171.554831 159.426007 
L 172.640632 164.921338 
L 173.726434 172.821133 
L 174.812235 176.08578 
L 175.898036 177.346144 
L 176.983837 174.482994 
L 178.069638 170.357362 
L 179.155439 170.002679 
L 180.24124 170.560698 
L 181.327042 171.247422 
L 182.412843 172.460582 
L 183.498644 171.185466 
L 184.584445 168.942743 
L 185.670246 169.202861 
L 186.756047 167.435112 
L 188.92765 170.014429 
L 190.013451 168.113581 
L 191.099252 167.048382 
L 192.185053 168.429481 
L 193.270854 168.59749 
L 195.442457 174.297206 
L 196.528258 171.534255 
L 198.69986 160.350595 
L 199.785661 158.256645 
L 200.871462 159.907875 
L 201.957264 162.532949 
L 203.043065 159.625719 
L 204.128866 158.402937 
L 205.214667 155.68025 
L 206.300468 151.734962 
L 207.386269 152.64657 
L 208.472071 151.985262 
L 209.557872 152.887042 
L 210.643673 152.252199 
L 211.729474 152.753853 
L 213.901076 156.266786 
L 216.072679 163.496954 
L 217.15848 167.13943 
L 218.244281 167.299083 
L 219.330082 167.698371 
L 220.415883 169.247616 
L 221.501684 170.255594 
L 222.587486 170.828718 
L 223.673287 170.138276 
L 224.759088 167.190958 
L 225.844889 165.515928 
L 226.93069 164.182772 
L 228.016491 160.261803 
L 229.102292 158.95129 
L 230.188094 157.305133 
L 231.273895 156.412001 
L 232.359696 154.50096 
L 234.531298 151.929728 
L 235.617099 150.947133 
L 236.702901 152.551441 
L 237.788702 155.744135 
L 238.874503 154.444419 
L 239.960304 153.712843 
L 241.046105 153.833172 
L 242.131906 155.439711 
L 243.217708 156.006992 
L 244.303509 156.286987 
L 245.38931 156.115416 
L 246.475111 152.690307 
L 247.560912 158.784467 
L 248.646713 158.162605 
L 249.732514 156.247487 
L 250.818316 154.839767 
L 251.904117 155.298709 
L 252.989918 153.092256 
L 254.075719 147.587245 
L 255.16152 149.216104 
L 256.247321 153.316754 
L 257.333123 150.375854 
L 258.418924 147.897497 
L 259.504725 150.312406 
L 260.590526 150.945539 
L 261.676327 146.444294 
L 262.762128 144.252427 
L 263.847929 144.318198 
L 264.933731 144.187887 
L 266.019532 146.006577 
L 267.105333 146.080668 
L 268.191134 150.559089 
L 269.276935 147.848909 
L 270.362736 149.454333 
L 271.448538 148.72823 
L 272.534339 147.114255 
L 273.62014 147.973825 
L 274.705941 149.529246 
L 275.791742 148.856473 
L 276.877543 149.631409 
L 277.963344 150.698985 
L 279.049146 153.081705 
L 280.134947 153.42281 
L 282.306549 149.257187 
L 283.39235 148.926444 
L 284.478151 146.869305 
L 285.563953 148.420805 
L 286.649754 145.959703 
L 287.735555 144.03831 
L 288.821356 146.436802 
L 289.907157 145.3986 
L 290.992958 149.937949 
L 292.07876 151.028523 
L 293.164561 147.920226 
L 294.250362 148.704935 
L 295.336163 148.069093 
L 296.421964 149.699117 
L 297.507765 147.404996 
L 298.593566 143.895274 
L 299.679368 145.158396 
L 300.765169 146.151983 
L 301.85097 144.828789 
L 302.936771 144.263375 
L 304.022572 146.502649 
L 305.108373 142.454086 
L 306.194175 142.285005 
L 307.279976 146.521731 
L 308.365777 148.900924 
L 309.451578 149.421112 
L 310.537379 149.41227 
L 311.62318 148.909809 
L 312.708981 150.259865 
L 313.794783 151.044495 
L 314.880584 149.691498 
L 315.966385 152.601803 
L 317.052186 152.566051 
L 318.137987 153.221692 
L 319.223788 151.276367 
L 320.30959 153.291711 
L 321.395391 153.789956 
L 322.481192 151.545688 
L 323.566993 152.870831 
L 324.652794 153.968045 
L 325.738595 153.156472 
L 326.824396 148.266414 
L 327.910198 149.239583 
L 328.995999 151.159993 
L 330.0818 150.136194 
L 331.167601 151.161899 
L 332.253402 149.864885 
L 333.339203 148.759033 
L 335.510806 149.470787 
L 336.596607 148.751059 
L 337.682408 148.283851 
L 338.768209 146.755425 
L 339.85401 145.675367 
L 340.939811 147.177404 
L 342.025613 149.082155 
L 343.111414 146.545878 
L 345.283016 148.587508 
L 346.368817 145.71685 
L 347.454618 145.023927 
L 348.54042 143.837832 
L 349.626221 145.244851 
L 350.712022 147.390882 
L 351.797823 147.327223 
L 352.883624 149.486691 
L 353.969425 150.694555 
L 355.055227 148.805216 
L 356.141028 147.906492 
L 357.226829 146.446367 
L 358.31263 147.597627 
L 359.398431 148.2705 
L 360.484232 147.478943 
L 361.570033 148.583121 
L 362.655835 151.055666 
L 363.741636 150.731435 
L 364.827437 151.59086 
L 365.913238 150.663845 
L 366.999039 149.884934 
L 368.08484 147.967323 
L 369.170642 148.652618 
L 370.256443 149.488806 
L 371.342244 150.083006 
L 372.428045 150.992167 
L 373.513846 151.429281 
L 374.599647 151.053861 
L 375.685448 151.762938 
L 376.77125 151.95993 
L 377.857051 152.514111 
L 378.942852 152.35832 
L 380.028653 152.086307 
L 381.114454 151.69282 
L 382.200255 150.816661 
L 383.286057 150.965421 
L 384.371858 150.769749 
L 385.457659 151.191493 
L 386.54346 151.352545 
L 387.629261 150.104419 
L 388.715062 149.344421 
L 389.800863 150.35363 
L 390.886665 149.893638 
L 391.972466 151.60023 
L 393.058267 150.813632 
L 394.144068 150.217044 
L 395.229869 149.806073 
L 396.31567 149.626906 
L 397.401472 147.124292 
L 398.487273 162.639942 
L 398.487273 162.639942 
" clip-path="url(#pbe67d954ca)" style="fill: none; stroke: #000000; stroke-opacity: 0.5; stroke-width: 2; stroke-linecap: square"/>
   </g>
   <g id="line2d_34">
    <path d="M 73.832727 250.721177 
L 74.918528 256.74869 
L 76.00433 253.948331 
L 77.090131 256.36211 
L 78.175932 257.877548 
L 79.261733 260.470696 
L 80.347534 258.755932 
L 81.433335 256.105471 
L 82.519137 256.734433 
L 83.604938 254.825675 
L 84.690739 251.738186 
L 85.77654 251.189074 
L 86.862341 248.109308 
L 87.948142 243.607112 
L 89.033943 244.980924 
L 90.119745 242.543149 
L 91.205546 237.229689 
L 92.291347 228.398154 
L 93.377148 230.977726 
L 94.462949 227.143668 
L 95.54875 229.192309 
L 96.634552 233.499496 
L 97.720353 230.231725 
L 98.806154 230.557009 
L 99.891955 232.225885 
L 100.977756 230.382566 
L 102.063557 222.963922 
L 103.149358 224.431377 
L 104.23516 225.114144 
L 105.320961 221.502013 
L 106.406762 216.905564 
L 107.492563 217.782976 
L 108.578364 214.306298 
L 109.664165 217.765818 
L 110.749967 219.648761 
L 111.835768 218.543562 
L 112.921569 220.602642 
L 114.00737 216.058201 
L 115.093171 219.720087 
L 116.178972 224.349092 
L 117.264773 215.081858 
L 118.350575 213.483049 
L 119.436376 213.969732 
L 120.522177 211.351978 
L 121.607978 212.452136 
L 122.693779 211.460214 
L 123.77958 205.745479 
L 124.865382 210.991631 
L 125.951183 211.308639 
L 128.122785 203.051655 
L 129.208586 202.650096 
L 130.294387 201.986111 
L 131.380189 210.143037 
L 132.46599 210.741504 
L 133.551791 216.402835 
L 134.637592 216.214154 
L 135.723393 210.983371 
L 136.809194 208.467012 
L 137.894995 211.105315 
L 138.980797 210.305078 
L 140.066598 211.365607 
L 141.152399 210.879016 
L 142.2382 212.486795 
L 143.324001 215.081271 
L 144.409802 219.172331 
L 145.495604 219.734879 
L 146.581405 221.787267 
L 147.667206 217.47597 
L 148.753007 216.179936 
L 149.838808 220.403336 
L 150.924609 220.128045 
L 152.01041 223.710141 
L 153.096212 223.531669 
L 154.182013 221.212373 
L 155.267814 221.210677 
L 156.353615 226.16519 
L 157.439416 228.201863 
L 158.525217 231.280842 
L 159.611019 228.026015 
L 160.69682 224.058559 
L 161.782621 224.96702 
L 162.868422 221.110613 
L 163.954223 218.409886 
L 165.040024 221.682843 
L 166.125825 222.837087 
L 167.211627 218.820067 
L 168.297428 215.814741 
L 169.383229 218.831351 
L 170.46903 219.851065 
L 171.554831 219.171238 
L 173.726434 214.236304 
L 174.812235 218.312914 
L 175.898036 216.990203 
L 176.983837 213.29704 
L 178.069638 211.929059 
L 179.155439 208.502991 
L 180.24124 209.046436 
L 181.327042 206.759217 
L 182.412843 206.593449 
L 183.498644 202.694805 
L 184.584445 197.819074 
L 185.670246 195.783038 
L 186.756047 194.847094 
L 187.841849 195.832148 
L 188.92765 196.219658 
L 190.013451 194.626544 
L 191.099252 196.95834 
L 192.185053 196.331847 
L 193.270854 191.811184 
L 194.356656 188.930597 
L 195.442457 188.563238 
L 196.528258 191.780965 
L 197.614059 197.788518 
L 198.69986 195.763077 
L 199.785661 195.223112 
L 200.871462 196.288325 
L 201.957264 199.397659 
L 203.043065 199.861089 
L 204.128866 192.56157 
L 205.214667 188.537168 
L 206.300468 188.833812 
L 207.386269 186.725388 
L 208.472071 191.83982 
L 209.557872 190.163572 
L 211.729474 193.505367 
L 212.815275 195.658228 
L 213.901076 194.68521 
L 214.986877 192.337454 
L 217.15848 198.714324 
L 218.244281 199.023645 
L 219.330082 197.171202 
L 220.415883 189.803315 
L 221.501684 188.778469 
L 222.587486 192.816873 
L 223.673287 192.156672 
L 224.759088 189.72715 
L 225.844889 188.766939 
L 226.93069 192.147022 
L 228.016491 192.425435 
L 229.102292 193.259217 
L 230.188094 191.77986 
L 231.273895 188.680781 
L 232.359696 184.33903 
L 233.445497 180.652185 
L 234.531298 178.845247 
L 235.617099 180.793947 
L 236.702901 178.176159 
L 237.788702 177.944922 
L 238.874503 176.0332 
L 239.960304 177.612962 
L 241.046105 173.332677 
L 242.131906 171.78969 
L 243.217708 169.579594 
L 245.38931 164.624393 
L 246.475111 165.019279 
L 247.560912 161.860117 
L 248.646713 165.367784 
L 249.732514 163.00368 
L 250.818316 162.904332 
L 251.904117 162.63378 
L 252.989918 158.595805 
L 254.075719 158.752064 
L 255.16152 157.897403 
L 256.247321 158.62164 
L 257.333123 154.612616 
L 258.418924 153.566309 
L 259.504725 155.373948 
L 260.590526 153.870872 
L 261.676327 150.117167 
L 262.762128 151.510447 
L 263.847929 151.434707 
L 264.933731 152.536222 
L 266.019532 151.596113 
L 267.105333 149.458076 
L 268.191134 148.306627 
L 269.276935 150.300493 
L 270.362736 148.353029 
L 271.448538 147.576631 
L 272.534339 148.41747 
L 273.62014 147.067964 
L 274.705941 141.351955 
L 275.791742 143.654198 
L 276.877543 143.739342 
L 277.963344 142.764169 
L 279.049146 142.745396 
L 280.134947 141.710595 
L 281.220748 143.339364 
L 282.306549 143.677895 
L 283.39235 144.291743 
L 284.478151 147.56185 
L 285.563953 144.154991 
L 287.735555 145.527876 
L 288.821356 144.503112 
L 289.907157 148.448557 
L 290.992958 149.484399 
L 292.07876 147.561585 
L 293.164561 143.355296 
L 294.250362 147.343592 
L 295.336163 143.955151 
L 296.421964 149.380842 
L 297.507765 147.548425 
L 298.593566 149.585164 
L 299.679368 149.30568 
L 300.765169 147.943963 
L 302.936771 151.011575 
L 304.022572 150.292509 
L 306.194175 156.592184 
L 307.279976 153.230557 
L 308.365777 154.408969 
L 309.451578 155.335531 
L 311.62318 153.0249 
L 312.708981 155.844221 
L 313.794783 157.886744 
L 314.880584 155.282742 
L 315.966385 158.267925 
L 317.052186 158.201815 
L 318.137987 156.517148 
L 319.223788 156.205936 
L 320.30959 154.957918 
L 321.395391 156.407491 
L 322.481192 156.299434 
L 323.566993 152.781074 
L 324.652794 152.596502 
L 325.738595 152.011374 
L 326.824396 152.523671 
L 327.910198 152.627509 
L 328.995999 153.18566 
L 330.0818 151.687388 
L 331.167601 149.941299 
L 332.253402 150.437172 
L 333.339203 148.172726 
L 334.425005 149.537429 
L 335.510806 150.343414 
L 337.682408 152.337054 
L 339.85401 149.943067 
L 343.111414 149.830004 
L 344.197215 148.993446 
L 345.283016 148.543531 
L 347.454618 151.129023 
L 348.54042 151.960481 
L 349.626221 151.377187 
L 350.712022 151.988382 
L 351.797823 152.283713 
L 352.883624 153.499056 
L 353.969425 152.659754 
L 355.055227 155.598174 
L 356.141028 155.895766 
L 357.226829 155.673396 
L 358.31263 153.938859 
L 359.398431 154.208638 
L 360.484232 155.786298 
L 361.570033 153.631596 
L 363.741636 150.689952 
L 364.827437 150.672547 
L 365.913238 151.473812 
L 366.999039 153.267173 
L 368.08484 151.656264 
L 369.170642 149.175507 
L 370.256443 147.962912 
L 371.342244 148.305351 
L 372.428045 149.366486 
L 373.513846 149.909149 
L 374.599647 149.29587 
L 375.685448 150.674833 
L 376.77125 151.00953 
L 377.857051 150.158034 
L 380.028653 150.13045 
L 381.114454 149.407379 
L 382.200255 150.304391 
L 384.371858 150.101981 
L 386.54346 149.470539 
L 387.629261 148.637735 
L 388.715062 148.971183 
L 393.058267 151.347629 
L 394.144068 150.226772 
L 395.229869 149.808433 
L 396.31567 149.213743 
L 397.401472 146.576982 
L 398.487273 165.047379 
L 398.487273 165.047379 
" clip-path="url(#pbe67d954ca)" style="fill: none; stroke: #000000; stroke-opacity: 0.5; stroke-width: 2; stroke-linecap: square"/>
   </g>
   <g id="LineCollection_1">
    <path d="M 228.016491 295.488 
L 228.016491 53.568 
" clip-path="url(#pbe67d954ca)" style="fill: none; stroke-dasharray: 7.4,3.2; stroke-dashoffset: 0; stroke: #ff0000; stroke-width: 2"/>
   </g>
   <g id="patch_3">
    <path d="M 57.6 307.584 
L 57.6 41.472 
" style="fill: none; stroke: #bcbcbc; stroke-width: 0.8; stroke-linejoin: miter; stroke-linecap: square"/>
   </g>
   <g id="patch_4">
    <path d="M 414.72 307.584 
L 414.72 41.472 
" style="fill: none; stroke: #bcbcbc; stroke-width: 0.8; stroke-linejoin: miter; stroke-linecap: square"/>
   </g>
   <g id="patch_5">
    <path d="M 57.6 307.584 
L 414.72 307.584 
" style="fill: none; stroke: #bcbcbc; stroke-width: 0.8; stroke-linejoin: miter; stroke-linecap: square"/>
   </g>
   <g id="patch_6">
    <path d="M 57.6 41.472 
L 414.72 41.472 
" style="fill: none; stroke: #bcbcbc; stroke-width: 0.8; stroke-linejoin: miter; stroke-linecap: square"/>
   </g>
   <g id="text_15">
    <!-- Trajectorie plot of critical time n = 500 -->
    <g transform="translate(96.96825 35.472) scale(0.144 -0.144)">
     <defs>
      <path id="DejaVuSans-54" d="M -19 4666 
L 3928 4666 
L 3928 4134 
L 2272 4134 
L 2272 0 
L 1638 0 
L 1638 4134 
L -19 4134 
L -19 4666 
z
" transform="scale(0.015625)"/>
      <path id="DejaVuSans-72" d="M 2631 2963 
Q 2534 3019 2420 3045 
Q 2306 3072 2169 3072 
Q 1681 3072 1420 2755 
Q 1159 2438 1159 1844 
L 1159 0 
L 581 0 
L 581 3500 
L 1159 3500 
L 1159 2956 
Q 1341 3275 1631 3429 
Q 1922 3584 2338 3584 
Q 2397 3584 2469 3576 
Q 2541 3569 2628 3553 
L 2631 2963 
z
" transform="scale(0.015625)"/>
      <path id="DejaVuSans-61" d="M 2194 1759 
Q 1497 1759 1228 1600 
Q 959 1441 959 1056 
Q 959 750 1161 570 
Q 1363 391 1709 391 
Q 2188 391 2477 730 
Q 2766 1069 2766 1631 
L 2766 1759 
L 2194 1759 
z
M 3341 1997 
L 3341 0 
L 2766 0 
L 2766 531 
Q 2569 213 2275 61 
Q 1981 -91 1556 -91 
Q 1019 -91 701 211 
Q 384 513 384 1019 
Q 384 1609 779 1909 
Q 1175 2209 1959 2209 
L 2766 2209 
L 2766 2266 
Q 2766 2663 2505 2880 
Q 2244 3097 1772 3097 
Q 1472 3097 1187 3025 
Q 903 2953 641 2809 
L 641 3341 
Q 956 3463 1253 3523 
Q 1550 3584 1831 3584 
Q 2591 3584 2966 3190 
Q 3341 2797 3341 1997 
z
" transform="scale(0.015625)"/>
      <path id="DejaVuSans-6a" d="M 603 3500 
L 1178 3500 
L 1178 -63 
Q 1178 -731 923 -1031 
Q 669 -1331 103 -1331 
L -116 -1331 
L -116 -844 
L 38 -844 
Q 366 -844 484 -692 
Q 603 -541 603 -63 
L 603 3500 
z
M 603 4863 
L 1178 4863 
L 1178 4134 
L 603 4134 
L 603 4863 
z
" transform="scale(0.015625)"/>
      <path id="DejaVuSans-65" d="M 3597 1894 
L 3597 1613 
L 953 1613 
Q 991 1019 1311 708 
Q 1631 397 2203 397 
Q 2534 397 2845 478 
Q 3156 559 3463 722 
L 3463 178 
Q 3153 47 2828 -22 
Q 2503 -91 2169 -91 
Q 1331 -91 842 396 
Q 353 884 353 1716 
Q 353 2575 817 3079 
Q 1281 3584 2069 3584 
Q 2775 3584 3186 3129 
Q 3597 2675 3597 1894 
z
M 3022 2063 
Q 3016 2534 2758 2815 
Q 2500 3097 2075 3097 
Q 1594 3097 1305 2825 
Q 1016 2553 972 2059 
L 3022 2063 
z
" transform="scale(0.015625)"/>
      <path id="DejaVuSans-63" d="M 3122 3366 
L 3122 2828 
Q 2878 2963 2633 3030 
Q 2388 3097 2138 3097 
Q 1578 3097 1268 2742 
Q 959 2388 959 1747 
Q 959 1106 1268 751 
Q 1578 397 2138 397 
Q 2388 397 2633 464 
Q 2878 531 3122 666 
L 3122 134 
Q 2881 22 2623 -34 
Q 2366 -91 2075 -91 
Q 1284 -91 818 406 
Q 353 903 353 1747 
Q 353 2603 823 3093 
Q 1294 3584 2113 3584 
Q 2378 3584 2631 3529 
Q 2884 3475 3122 3366 
z
" transform="scale(0.015625)"/>
      <path id="DejaVuSans-74" d="M 1172 4494 
L 1172 3500 
L 2356 3500 
L 2356 3053 
L 1172 3053 
L 1172 1153 
Q 1172 725 1289 603 
Q 1406 481 1766 481 
L 2356 481 
L 2356 0 
L 1766 0 
Q 1100 0 847 248 
Q 594 497 594 1153 
L 594 3053 
L 172 3053 
L 172 3500 
L 594 3500 
L 594 4494 
L 1172 4494 
z
" transform="scale(0.015625)"/>
      <path id="DejaVuSans-6f" d="M 1959 3097 
Q 1497 3097 1228 2736 
Q 959 2375 959 1747 
Q 959 1119 1226 758 
Q 1494 397 1959 397 
Q 2419 397 2687 759 
Q 2956 1122 2956 1747 
Q 2956 2369 2687 2733 
Q 2419 3097 1959 3097 
z
M 1959 3584 
Q 2709 3584 3137 3096 
Q 3566 2609 3566 1747 
Q 3566 888 3137 398 
Q 2709 -91 1959 -91 
Q 1206 -91 779 398 
Q 353 888 353 1747 
Q 353 2609 779 3096 
Q 1206 3584 1959 3584 
z
" transform="scale(0.015625)"/>
      <path id="DejaVuSans-69" d="M 603 3500 
L 1178 3500 
L 1178 0 
L 603 0 
L 603 3500 
z
M 603 4863 
L 1178 4863 
L 1178 4134 
L 603 4134 
L 603 4863 
z
" transform="scale(0.015625)"/>
      <path id="DejaVuSans-20" transform="scale(0.015625)"/>
      <path id="DejaVuSans-70" d="M 1159 525 
L 1159 -1331 
L 581 -1331 
L 581 3500 
L 1159 3500 
L 1159 2969 
Q 1341 3281 1617 3432 
Q 1894 3584 2278 3584 
Q 2916 3584 3314 3078 
Q 3713 2572 3713 1747 
Q 3713 922 3314 415 
Q 2916 -91 2278 -91 
Q 1894 -91 1617 61 
Q 1341 213 1159 525 
z
M 3116 1747 
Q 3116 2381 2855 2742 
Q 2594 3103 2138 3103 
Q 1681 3103 1420 2742 
Q 1159 2381 1159 1747 
Q 1159 1113 1420 752 
Q 1681 391 2138 391 
Q 2594 391 2855 752 
Q 3116 1113 3116 1747 
z
" transform="scale(0.015625)"/>
      <path id="DejaVuSans-6c" d="M 603 4863 
L 1178 4863 
L 1178 0 
L 603 0 
L 603 4863 
z
" transform="scale(0.015625)"/>
      <path id="DejaVuSans-66" d="M 2375 4863 
L 2375 4384 
L 1825 4384 
Q 1516 4384 1395 4259 
Q 1275 4134 1275 3809 
L 1275 3500 
L 2222 3500 
L 2222 3053 
L 1275 3053 
L 1275 0 
L 697 0 
L 697 3053 
L 147 3053 
L 147 3500 
L 697 3500 
L 697 3744 
Q 697 4328 969 4595 
Q 1241 4863 1831 4863 
L 2375 4863 
z
" transform="scale(0.015625)"/>
      <path id="DejaVuSans-6d" d="M 3328 2828 
Q 3544 3216 3844 3400 
Q 4144 3584 4550 3584 
Q 5097 3584 5394 3201 
Q 5691 2819 5691 2113 
L 5691 0 
L 5113 0 
L 5113 2094 
Q 5113 2597 4934 2840 
Q 4756 3084 4391 3084 
Q 3944 3084 3684 2787 
Q 3425 2491 3425 1978 
L 3425 0 
L 2847 0 
L 2847 2094 
Q 2847 2600 2669 2842 
Q 2491 3084 2119 3084 
Q 1678 3084 1418 2786 
Q 1159 2488 1159 1978 
L 1159 0 
L 581 0 
L 581 3500 
L 1159 3500 
L 1159 2956 
Q 1356 3278 1631 3431 
Q 1906 3584 2284 3584 
Q 2666 3584 2933 3390 
Q 3200 3197 3328 2828 
z
" transform="scale(0.015625)"/>
      <path id="DejaVuSans-6e" d="M 3513 2113 
L 3513 0 
L 2938 0 
L 2938 2094 
Q 2938 2591 2744 2837 
Q 2550 3084 2163 3084 
Q 1697 3084 1428 2787 
Q 1159 2491 1159 1978 
L 1159 0 
L 581 0 
L 581 3500 
L 1159 3500 
L 1159 2956 
Q 1366 3272 1645 3428 
Q 1925 3584 2291 3584 
Q 2894 3584 3203 3211 
Q 3513 2838 3513 2113 
z
" transform="scale(0.015625)"/>
      <path id="DejaVuSans-3d" d="M 678 2906 
L 4684 2906 
L 4684 2381 
L 678 2381 
L 678 2906 
z
M 678 1631 
L 4684 1631 
L 4684 1100 
L 678 1100 
L 678 1631 
z
" transform="scale(0.015625)"/>
     </defs>
     <use xlink:href="#DejaVuSans-54"/>
     <use xlink:href="#DejaVuSans-72" x="46.333984"/>
     <use xlink:href="#DejaVuSans-61" x="87.447266"/>
     <use xlink:href="#DejaVuSans-6a" x="148.726562"/>
     <use xlink:href="#DejaVuSans-65" x="176.509766"/>
     <use xlink:href="#DejaVuSans-63" x="238.033203"/>
     <use xlink:href="#DejaVuSans-74" x="293.013672"/>
     <use xlink:href="#DejaVuSans-6f" x="332.222656"/>
     <use xlink:href="#DejaVuSans-72" x="393.404297"/>
     <use xlink:href="#DejaVuSans-69" x="434.517578"/>
     <use xlink:href="#DejaVuSans-65" x="462.300781"/>
     <use xlink:href="#DejaVuSans-20" x="523.824219"/>
     <use xlink:href="#DejaVuSans-70" x="555.611328"/>
     <use xlink:href="#DejaVuSans-6c" x="619.087891"/>
     <use xlink:href="#DejaVuSans-6f" x="646.871094"/>
     <use xlink:href="#DejaVuSans-74" x="708.052734"/>
     <use xlink:href="#DejaVuSans-20" x="747.261719"/>
     <use xlink:href="#DejaVuSans-6f" x="779.048828"/>
     <use xlink:href="#DejaVuSans-66" x="840.230469"/>
     <use xlink:href="#DejaVuSans-20" x="875.435547"/>
     <use xlink:href="#DejaVuSans-63" x="907.222656"/>
     <use xlink:href="#DejaVuSans-72" x="962.203125"/>
     <use xlink:href="#DejaVuSans-69" x="1003.316406"/>
     <use xlink:href="#DejaVuSans-74" x="1031.099609"/>
     <use xlink:href="#DejaVuSans-69" x="1070.308594"/>
     <use xlink:href="#DejaVuSans-63" x="1098.091797"/>
     <use xlink:href="#DejaVuSans-61" x="1153.072266"/>
     <use xlink:href="#DejaVuSans-6c" x="1214.351562"/>
     <use xlink:href="#DejaVuSans-20" x="1242.134766"/>
     <use xlink:href="#DejaVuSans-74" x="1273.921875"/>
     <use xlink:href="#DejaVuSans-69" x="1313.130859"/>
     <use xlink:href="#DejaVuSans-6d" x="1340.914062"/>
     <use xlink:href="#DejaVuSans-65" x="1438.326172"/>
     <use xlink:href="#DejaVuSans-20" x="1499.849609"/>
     <use xlink:href="#DejaVuSans-6e" x="1531.636719"/>
     <use xlink:href="#DejaVuSans-20" x="1595.015625"/>
     <use xlink:href="#DejaVuSans-3d" x="1626.802734"/>
     <use xlink:href="#DejaVuSans-20" x="1710.591797"/>
     <use xlink:href="#DejaVuSans-35" x="1742.378906"/>
     <use xlink:href="#DejaVuSans-30" x="1806.001953"/>
     <use xlink:href="#DejaVuSans-30" x="1869.625"/>
    </g>
   </g>
  </g>
 </g>
 <defs>
  <clipPath id="pbe67d954ca">
   <rect x="57.6" y="41.472" width="357.12" height="266.112"/>
  </clipPath>
 </defs>
</svg>
