<?xml version="1.0" encoding="utf-8" standalone="no"?>
<!DOCTYPE svg PUBLIC "-//W3C//DTD SVG 1.1//EN"
  "http://www.w3.org/Graphics/SVG/1.1/DTD/svg11.dtd">
<svg xmlns:xlink="http://www.w3.org/1999/xlink" width="460.8pt" height="345.6pt" viewBox="0 0 460.8 345.6" xmlns="http://www.w3.org/2000/svg" version="1.1">
 <metadata>
  <rdf:RDF xmlns:dc="http://purl.org/dc/elements/1.1/" xmlns:cc="http://creativecommons.org/ns#" xmlns:rdf="http://www.w3.org/1999/02/22-rdf-syntax-ns#">
   <cc:Work>
    <dc:type rdf:resource="http://purl.org/dc/dcmitype/StillImage"/>
    <dc:date>2025-08-11T12:03:41.490847</dc:date>
    <dc:format>image/svg+xml</dc:format>
    <dc:creator>
     <cc:Agent>
      <dc:title>Matplotlib v3.9.2, https://matplotlib.org/</dc:title>
     </cc:Agent>
    </dc:creator>
   </cc:Work>
  </rdf:RDF>
 </metadata>
 <defs>
  <style type="text/css">*{stroke-linejoin: round; stroke-linecap: butt}</style>
 </defs>
 <g id="figure_1">
  <g id="patch_1">
   <path d="M 0 345.6 
L 460.8 345.6 
L 460.8 0 
L 0 0 
z
" style="fill: #ffffff"/>
  </g>
  <g id="axes_1">
   <g id="patch_2">
    <path d="M 57.6 307.584 
L 414.72 307.584 
L 414.72 41.472 
L 57.6 41.472 
z
" style="fill: #eeeeee"/>
   </g>
   <g id="PolyCollection_1">
    <path d="M 82.280753 203.099861 
L 82.177178 203.099861 
L 82.172356 202.577785 
L 82.170904 202.055709 
L 82.17304 201.533633 
L 82.178434 201.011558 
L 82.186249 200.489482 
L 82.195267 199.967406 
L 82.204121 199.44533 
L 82.211562 198.923255 
L 82.216655 198.401179 
L 82.218822 197.879103 
L 82.21776 197.357027 
L 82.21333 196.834951 
L 82.205486 196.312876 
L 82.194209 195.7908 
L 82.179366 195.268724 
L 82.160449 194.746648 
L 82.136296 194.224573 
L 82.104962 193.702497 
L 82.063838 193.180421 
L 82.00999 192.658345 
L 81.940604 192.13627 
L 81.853517 191.614194 
L 81.74782 191.092118 
L 81.624439 190.570042 
L 81.486274 190.047967 
L 81.337411 189.525891 
L 81.18127 189.003815 
L 81.018259 188.481739 
L 80.844081 187.959664 
L 80.649837 187.437588 
L 80.424429 186.915512 
L 80.158752 186.393436 
L 79.850198 185.87136 
L 79.505428 185.349285 
L 79.139819 184.827209 
L 78.773404 184.305133 
L 78.424929 183.783057 
L 78.106463 183.260982 
L 77.820248 182.738906 
L 77.558132 182.21683 
L 77.303292 181.694754 
L 77.034271 181.172679 
L 76.731191 180.650603 
L 76.382689 180.128527 
L 75.990701 179.606451 
L 75.570756 179.084376 
L 75.147951 178.5623 
L 74.751029 178.040224 
L 74.406986 177.518148 
L 74.13688 176.996072 
L 73.952525 176.473997 
L 73.854467 175.951921 
L 73.832727 175.429845 
L 73.871051 174.907769 
L 73.952942 174.385694 
L 74.065999 173.863618 
L 74.202284 173.341542 
L 74.355832 172.819466 
L 74.520822 172.297391 
L 74.69296 171.775315 
L 74.873124 171.253239 
L 75.069602 170.731163 
L 75.295863 170.209088 
L 75.564221 169.687012 
L 75.879122 169.164936 
L 76.234321 168.64286 
L 76.615648 168.120784 
L 77.007283 167.598709 
L 77.397473 167.076633 
L 77.780573 166.554557 
L 78.155319 166.032481 
L 78.521781 165.510406 
L 78.87958 164.98833 
L 79.228039 164.466254 
L 79.566979 163.944178 
L 79.89659 163.422103 
L 80.216085 162.900027 
L 80.522246 162.377951 
L 80.80915 161.855875 
L 81.069469 161.3338 
L 81.296692 160.811724 
L 81.487192 160.289648 
L 81.641255 159.767572 
L 81.762725 159.245497 
L 81.857478 158.723421 
L 81.931411 158.201345 
L 81.98892 157.679269 
L 82.032534 157.157193 
L 82.063762 156.635118 
L 82.084382 156.113042 
L 82.097241 155.590966 
L 82.106003 155.06889 
L 82.114075 154.546815 
L 82.123508 154.024739 
L 82.134606 153.502663 
L 82.146445 152.980587 
L 82.157871 152.458512 
L 82.168294 151.936436 
L 82.177849 151.41436 
L 82.280082 151.41436 
L 82.280082 151.41436 
L 82.289637 151.936436 
L 82.30006 152.458512 
L 82.311486 152.980587 
L 82.323325 153.502663 
L 82.334423 154.024739 
L 82.343856 154.546815 
L 82.351928 155.06889 
L 82.36069 155.590966 
L 82.373549 156.113042 
L 82.394169 156.635118 
L 82.425397 157.157193 
L 82.469011 157.679269 
L 82.52652 158.201345 
L 82.600454 158.723421 
L 82.695206 159.245497 
L 82.816676 159.767572 
L 82.970739 160.289648 
L 83.161239 160.811724 
L 83.388462 161.3338 
L 83.648781 161.855875 
L 83.935685 162.377951 
L 84.241846 162.900027 
L 84.561341 163.422103 
L 84.890952 163.944178 
L 85.229892 164.466254 
L 85.578351 164.98833 
L 85.93615 165.510406 
L 86.302612 166.032481 
L 86.677358 166.554557 
L 87.060458 167.076633 
L 87.450648 167.598709 
L 87.842283 168.120784 
L 88.22361 168.64286 
L 88.57881 169.164936 
L 88.89371 169.687012 
L 89.162068 170.209088 
L 89.388329 170.731163 
L 89.584807 171.253239 
L 89.764971 171.775315 
L 89.937109 172.297391 
L 90.102099 172.819466 
L 90.255647 173.341542 
L 90.391932 173.863618 
L 90.504989 174.385694 
L 90.58688 174.907769 
L 90.625204 175.429845 
L 90.603464 175.951921 
L 90.505407 176.473997 
L 90.321051 176.996072 
L 90.050945 177.518148 
L 89.706902 178.040224 
L 89.30998 178.5623 
L 88.887175 179.084376 
L 88.46723 179.606451 
L 88.075242 180.128527 
L 87.72674 180.650603 
L 87.42366 181.172679 
L 87.154639 181.694754 
L 86.899799 182.21683 
L 86.637683 182.738906 
L 86.351468 183.260982 
L 86.033002 183.783057 
L 85.684527 184.305133 
L 85.318112 184.827209 
L 84.952503 185.349285 
L 84.607733 185.87136 
L 84.299179 186.393436 
L 84.033502 186.915512 
L 83.808094 187.437588 
L 83.61385 187.959664 
L 83.439672 188.481739 
L 83.276661 189.003815 
L 83.12052 189.525891 
L 82.971657 190.047967 
L 82.833492 190.570042 
L 82.710111 191.092118 
L 82.604415 191.614194 
L 82.517327 192.13627 
L 82.447941 192.658345 
L 82.394093 193.180421 
L 82.352969 193.702497 
L 82.321635 194.224573 
L 82.297482 194.746648 
L 82.278565 195.268724 
L 82.263722 195.7908 
L 82.252445 196.312876 
L 82.244601 196.834951 
L 82.240171 197.357027 
L 82.239109 197.879103 
L 82.241276 198.401179 
L 82.246369 198.923255 
L 82.25381 199.44533 
L 82.262664 199.967406 
L 82.271682 200.489482 
L 82.279497 201.011558 
L 82.284891 201.533633 
L 82.287027 202.055709 
L 82.285575 202.577785 
L 82.280753 203.099861 
z
" clip-path="url(#p855f38ee5d)" style="fill: #348abd; fill-opacity: 0.3"/>
   </g>
   <g id="PolyCollection_2">
    <path d="M 110.285754 205.871084 
L 110.147098 205.871084 
L 110.145152 205.302299 
L 110.148654 204.733514 
L 110.156793 204.164729 
L 110.16779 203.595944 
L 110.17946 203.027159 
L 110.189803 202.458374 
L 110.197372 201.889589 
L 110.201355 201.320804 
L 110.201432 200.752019 
L 110.19755 200.183234 
L 110.189738 199.614449 
L 110.177959 199.045664 
L 110.161974 198.476879 
L 110.141207 197.908094 
L 110.114656 197.339309 
L 110.080954 196.770524 
L 110.038581 196.201739 
L 109.986151 195.632954 
L 109.922587 195.064169 
L 109.847096 194.495384 
L 109.758926 193.926599 
L 109.657121 193.357813 
L 109.540403 192.789028 
L 109.407274 192.220243 
L 109.256175 191.651458 
L 109.085544 191.082673 
L 108.893653 190.513888 
L 108.678426 189.945103 
L 108.437546 189.376318 
L 108.169107 188.807533 
L 107.872661 188.238748 
L 107.550122 187.669963 
L 107.205979 187.101178 
L 106.846616 186.532393 
L 106.478987 185.963608 
L 106.109137 185.394823 
L 105.740961 184.826038 
L 105.375614 184.257253 
L 105.012026 183.688468 
L 104.648845 183.119683 
L 104.287387 182.550898 
L 103.934103 181.982113 
L 103.600623 181.413328 
L 103.300423 180.844543 
L 103.043247 180.275757 
L 102.830248 179.706972 
L 102.652868 179.138187 
L 102.496578 178.569402 
L 102.347839 178.000617 
L 102.20081 177.431832 
L 102.060428 176.863047 
L 101.940307 176.294262 
L 101.856508 175.725477 
L 101.820188 175.156692 
L 101.832589 174.587907 
L 101.884553 174.019122 
L 101.960518 173.450337 
L 102.04487 172.881552 
L 102.127817 172.312767 
L 102.208563 171.743982 
L 102.295128 171.175197 
L 102.40141 170.606412 
L 102.542785 170.037627 
L 102.731603 169.468842 
L 102.973815 168.900057 
L 103.267653 168.331272 
L 103.604663 167.762487 
L 103.972542 167.193701 
L 104.358517 166.624916 
L 104.751992 166.056131 
L 105.145766 165.487346 
L 105.535926 164.918561 
L 105.921 164.349776 
L 106.300866 163.780991 
L 106.675598 163.212206 
L 107.044293 162.643421 
L 107.404083 162.074636 
L 107.749826 161.505851 
L 108.074912 160.937066 
L 108.37308 160.368281 
L 108.640465 159.799496 
L 108.876765 159.230711 
L 109.084825 158.661926 
L 109.268869 158.093141 
L 109.432354 157.524356 
L 109.576646 156.955571 
L 109.701127 156.386786 
L 109.804507 155.818001 
L 109.886471 155.249216 
L 109.948699 154.680431 
L 109.99481 154.111646 
L 110.029376 153.54286 
L 110.056634 152.974075 
L 110.079561 152.40529 
L 110.099654 151.836505 
L 110.117354 151.26772 
L 110.132738 150.698935 
L 110.146032 150.13015 
L 110.157742 149.561365 
L 110.27511 149.561365 
L 110.27511 149.561365 
L 110.28682 150.13015 
L 110.300114 150.698935 
L 110.315498 151.26772 
L 110.333199 151.836505 
L 110.353292 152.40529 
L 110.376219 152.974075 
L 110.403477 153.54286 
L 110.438042 154.111646 
L 110.484154 154.680431 
L 110.546382 155.249216 
L 110.628345 155.818001 
L 110.731726 156.386786 
L 110.856207 156.955571 
L 111.000499 157.524356 
L 111.163984 158.093141 
L 111.348028 158.661926 
L 111.556088 159.230711 
L 111.792387 159.799496 
L 112.059773 160.368281 
L 112.357941 160.937066 
L 112.683027 161.505851 
L 113.02877 162.074636 
L 113.38856 162.643421 
L 113.757255 163.212206 
L 114.131987 163.780991 
L 114.511852 164.349776 
L 114.896927 164.918561 
L 115.287087 165.487346 
L 115.680861 166.056131 
L 116.074336 166.624916 
L 116.46031 167.193701 
L 116.828189 167.762487 
L 117.1652 168.331272 
L 117.459037 168.900057 
L 117.701249 169.468842 
L 117.890068 170.037627 
L 118.031443 170.606412 
L 118.137725 171.175197 
L 118.224289 171.743982 
L 118.305036 172.312767 
L 118.387983 172.881552 
L 118.472335 173.450337 
L 118.548299 174.019122 
L 118.600264 174.587907 
L 118.612665 175.156692 
L 118.576345 175.725477 
L 118.492545 176.294262 
L 118.372425 176.863047 
L 118.232043 177.431832 
L 118.085014 178.000617 
L 117.936274 178.569402 
L 117.779985 179.138187 
L 117.602605 179.706972 
L 117.389605 180.275757 
L 117.132429 180.844543 
L 116.83223 181.413328 
L 116.49875 181.982113 
L 116.145466 182.550898 
L 115.784008 183.119683 
L 115.420827 183.688468 
L 115.057239 184.257253 
L 114.691891 184.826038 
L 114.323716 185.394823 
L 113.953866 185.963608 
L 113.586237 186.532393 
L 113.226873 187.101178 
L 112.882731 187.669963 
L 112.560192 188.238748 
L 112.263746 188.807533 
L 111.995307 189.376318 
L 111.754426 189.945103 
L 111.539199 190.513888 
L 111.347309 191.082673 
L 111.176677 191.651458 
L 111.025579 192.220243 
L 110.892449 192.789028 
L 110.775732 193.357813 
L 110.673926 193.926599 
L 110.585757 194.495384 
L 110.510265 195.064169 
L 110.446702 195.632954 
L 110.394271 196.201739 
L 110.351899 196.770524 
L 110.318197 197.339309 
L 110.291646 197.908094 
L 110.270878 198.476879 
L 110.254894 199.045664 
L 110.243115 199.614449 
L 110.235303 200.183234 
L 110.231421 200.752019 
L 110.231497 201.320804 
L 110.235481 201.889589 
L 110.24305 202.458374 
L 110.253392 203.027159 
L 110.265063 203.595944 
L 110.27606 204.164729 
L 110.284199 204.733514 
L 110.287701 205.302299 
L 110.285754 205.871084 
z
" clip-path="url(#p855f38ee5d)" style="fill: #348abd; fill-opacity: 0.3"/>
   </g>
   <g id="PolyCollection_3">
    <path d="M 138.275306 210.956301 
L 138.132468 210.956301 
L 138.129561 210.289488 
L 138.131352 209.622674 
L 138.137453 208.95586 
L 138.146645 208.289046 
L 138.157168 207.622233 
L 138.167072 206.955419 
L 138.174513 206.288605 
L 138.177883 205.621791 
L 138.175808 204.954977 
L 138.167084 204.288164 
L 138.150649 203.62135 
L 138.125638 202.954536 
L 138.09149 202.287722 
L 138.048 201.620909 
L 137.995257 200.954095 
L 137.933467 200.287281 
L 137.862711 199.620467 
L 137.78273 198.953653 
L 137.692761 198.28684 
L 137.591367 197.620026 
L 137.476267 196.953212 
L 137.344235 196.286398 
L 137.191274 195.619585 
L 137.013181 194.952771 
L 136.806412 194.285957 
L 136.568821 193.619143 
L 136.299823 192.952329 
L 135.999791 192.285516 
L 135.669023 191.618702 
L 135.306975 190.951888 
L 134.912392 190.285074 
L 134.484424 189.618261 
L 134.024202 188.951447 
L 133.536084 188.284633 
L 133.028008 187.617819 
L 132.511005 186.951005 
L 131.998345 186.284192 
L 131.504843 185.617378 
L 131.046417 184.950564 
L 130.639626 184.28375 
L 130.300687 183.616937 
L 130.043753 182.950123 
L 129.878523 182.283309 
L 129.807649 181.616495 
L 129.824624 180.949681 
L 129.912985 180.282868 
L 130.047635 179.616054 
L 130.198665 178.94924 
L 130.337191 178.282426 
L 130.441618 177.615613 
L 130.502059 176.948799 
L 130.52101 176.281985 
L 130.50985 175.615171 
L 130.482614 174.948357 
L 130.449885 174.281544 
L 130.415593 173.61473 
L 130.378071 172.947916 
L 130.334541 172.281102 
L 130.286397 171.614289 
L 130.242289 170.947475 
L 130.217181 170.280661 
L 130.227833 169.613847 
L 130.287093 168.947033 
L 130.399963 168.28022 
L 130.563198 167.613406 
L 130.768142 166.946592 
L 131.004814 166.279778 
L 131.265085 165.612965 
L 131.543805 164.946151 
L 131.838216 164.279337 
L 132.146821 163.612523 
L 132.46871 162.94571 
L 132.803577 162.278896 
L 133.151978 161.612082 
L 133.515192 160.945268 
L 133.894369 160.278454 
L 134.289161 159.611641 
L 134.696382 158.944827 
L 135.109248 158.278013 
L 135.517571 157.611199 
L 135.908972 156.944386 
L 136.270905 156.277572 
L 136.593016 155.610758 
L 136.869193 154.943944 
L 137.098614 154.27713 
L 137.285397 153.610317 
L 137.436945 152.943503 
L 137.561607 152.276689 
L 137.666563 151.609875 
L 137.756633 150.943062 
L 137.834254 150.276248 
L 137.900291 149.609434 
L 137.955119 148.94262 
L 137.999435 148.275806 
L 138.034584 147.608993 
L 138.06243 146.942179 
L 138.085006 146.275365 
L 138.104126 145.608551 
L 138.121114 144.941738 
L 138.286661 144.941738 
L 138.286661 144.941738 
L 138.303649 145.608551 
L 138.322768 146.275365 
L 138.345344 146.942179 
L 138.373191 147.608993 
L 138.408339 148.275806 
L 138.452655 148.94262 
L 138.507483 149.609434 
L 138.57352 150.276248 
L 138.651141 150.943062 
L 138.741211 151.609875 
L 138.846167 152.276689 
L 138.970829 152.943503 
L 139.122377 153.610317 
L 139.30916 154.27713 
L 139.538581 154.943944 
L 139.814758 155.610758 
L 140.13687 156.277572 
L 140.498802 156.944386 
L 140.890203 157.611199 
L 141.298526 158.278013 
L 141.711392 158.944827 
L 142.118613 159.611641 
L 142.513406 160.278454 
L 142.892582 160.945268 
L 143.255796 161.612082 
L 143.604197 162.278896 
L 143.939064 162.94571 
L 144.260953 163.612523 
L 144.569558 164.279337 
L 144.863969 164.946151 
L 145.142689 165.612965 
L 145.402961 166.279778 
L 145.639633 166.946592 
L 145.844576 167.613406 
L 146.007812 168.28022 
L 146.120681 168.947033 
L 146.179941 169.613847 
L 146.190593 170.280661 
L 146.165486 170.947475 
L 146.121378 171.614289 
L 146.073234 172.281102 
L 146.029703 172.947916 
L 145.992181 173.61473 
L 145.957889 174.281544 
L 145.92516 174.948357 
L 145.897925 175.615171 
L 145.886764 176.281985 
L 145.905716 176.948799 
L 145.966156 177.615613 
L 146.070583 178.282426 
L 146.20911 178.94924 
L 146.360139 179.616054 
L 146.494789 180.282868 
L 146.583151 180.949681 
L 146.600125 181.616495 
L 146.529251 182.283309 
L 146.364021 182.950123 
L 146.107088 183.616937 
L 145.768149 184.28375 
L 145.361357 184.950564 
L 144.902932 185.617378 
L 144.409429 186.284192 
L 143.89677 186.951005 
L 143.379766 187.617819 
L 142.87169 188.284633 
L 142.383572 188.951447 
L 141.92335 189.618261 
L 141.495382 190.285074 
L 141.100799 190.951888 
L 140.738752 191.618702 
L 140.407983 192.285516 
L 140.107951 192.952329 
L 139.838953 193.619143 
L 139.601362 194.285957 
L 139.394593 194.952771 
L 139.2165 195.619585 
L 139.063539 196.286398 
L 138.931508 196.953212 
L 138.816408 197.620026 
L 138.715013 198.28684 
L 138.625044 198.953653 
L 138.545064 199.620467 
L 138.474307 200.287281 
L 138.412517 200.954095 
L 138.359775 201.620909 
L 138.316284 202.287722 
L 138.282136 202.954536 
L 138.257125 203.62135 
L 138.24069 204.288164 
L 138.231966 204.954977 
L 138.229892 205.621791 
L 138.233262 206.288605 
L 138.240702 206.955419 
L 138.250607 207.622233 
L 138.261129 208.289046 
L 138.270322 208.95586 
L 138.276422 209.622674 
L 138.278213 210.289488 
L 138.275306 210.956301 
z
" clip-path="url(#p855f38ee5d)" style="fill: #348abd; fill-opacity: 0.3"/>
   </g>
   <g id="PolyCollection_4">
    <path d="M 166.241981 215.906049 
L 166.140715 215.906049 
L 166.135881 215.117033 
L 166.131842 214.328017 
L 166.128185 213.539001 
L 166.124194 212.749985 
L 166.118877 211.96097 
L 166.111017 211.171954 
L 166.099267 210.382938 
L 166.082273 209.593922 
L 166.058788 208.804906 
L 166.027706 208.01589 
L 165.987979 207.226874 
L 165.938419 206.437858 
L 165.877483 205.648842 
L 165.803188 204.859826 
L 165.713249 204.07081 
L 165.605442 203.281794 
L 165.478059 202.492779 
L 165.330211 201.703763 
L 165.161816 200.914747 
L 164.973208 200.125731 
L 164.764519 199.336715 
L 164.535075 198.547699 
L 164.283064 197.758683 
L 164.005571 196.969667 
L 163.698937 196.180651 
L 163.359295 195.391635 
L 162.983192 194.602619 
L 162.568285 193.813604 
L 162.114211 193.024588 
L 161.623639 192.235572 
L 161.103354 191.446556 
L 160.564974 190.65754 
L 160.024901 189.868524 
L 159.503205 189.079508 
L 159.02156 188.290492 
L 158.600685 187.501476 
L 158.257967 186.71246 
L 158.00584 185.923444 
L 157.851123 185.134428 
L 157.79511 184.345413 
L 157.833951 183.556397 
L 157.958914 182.767381 
L 158.156454 181.978365 
L 158.408434 181.189349 
L 158.693001 180.400333 
L 158.986481 179.611317 
L 159.266186 178.822301 
L 159.513527 178.033285 
L 159.716521 177.244269 
L 159.870854 176.455253 
L 159.979115 175.666237 
L 160.048447 174.877222 
L 160.087403 174.088206 
L 160.103086 173.29919 
L 160.099455 172.510174 
L 160.077182 171.721158 
L 160.034845 170.932142 
L 159.970815 170.143126 
L 159.885134 169.35411 
L 159.780875 168.565094 
L 159.664777 167.776078 
L 159.547119 166.987062 
L 159.440805 166.198047 
L 159.359704 165.409031 
L 159.316411 164.620015 
L 159.319939 163.830999 
L 159.374124 163.041983 
L 159.477458 162.252967 
L 159.624612 161.463951 
L 159.809149 160.674935 
L 160.026331 159.885919 
L 160.274787 159.096903 
L 160.556315 158.307887 
L 160.87394 157.518871 
L 161.229152 156.729856 
L 161.619535 155.94084 
L 162.03776 155.151824 
L 162.472236 154.362808 
L 162.909018 153.573792 
L 163.334162 152.784776 
L 163.735737 151.99576 
L 164.104987 151.206744 
L 164.436593 150.417728 
L 164.728283 149.628712 
L 164.980159 148.839696 
L 165.194032 148.05068 
L 165.372905 147.261665 
L 165.520576 146.472649 
L 165.641287 145.683633 
L 165.739383 144.894617 
L 165.81898 144.105601 
L 165.883701 143.316585 
L 165.936547 142.527569 
L 165.979896 141.738553 
L 166.015622 140.949537 
L 166.045233 140.160521 
L 166.069993 139.371505 
L 166.090968 138.58249 
L 166.109021 137.793474 
L 166.273675 137.793474 
L 166.273675 137.793474 
L 166.291728 138.58249 
L 166.312703 139.371505 
L 166.337463 140.160521 
L 166.367074 140.949537 
L 166.4028 141.738553 
L 166.446149 142.527569 
L 166.498995 143.316585 
L 166.563716 144.105601 
L 166.643313 144.894617 
L 166.741409 145.683633 
L 166.86212 146.472649 
L 167.00979 147.261665 
L 167.188664 148.05068 
L 167.402537 148.839696 
L 167.654412 149.628712 
L 167.946103 150.417728 
L 168.277709 151.206744 
L 168.646959 151.99576 
L 169.048534 152.784776 
L 169.473678 153.573792 
L 169.91046 154.362808 
L 170.344936 155.151824 
L 170.763161 155.94084 
L 171.153544 156.729856 
L 171.508756 157.518871 
L 171.826381 158.307887 
L 172.107908 159.096903 
L 172.356364 159.885919 
L 172.573547 160.674935 
L 172.758084 161.463951 
L 172.905238 162.252967 
L 173.008572 163.041983 
L 173.062757 163.830999 
L 173.066285 164.620015 
L 173.022992 165.409031 
L 172.941891 166.198047 
L 172.835577 166.987062 
L 172.717918 167.776078 
L 172.601821 168.565094 
L 172.497562 169.35411 
L 172.411881 170.143126 
L 172.347851 170.932142 
L 172.305514 171.721158 
L 172.283241 172.510174 
L 172.27961 173.29919 
L 172.295293 174.088206 
L 172.334249 174.877222 
L 172.40358 175.666237 
L 172.511842 176.455253 
L 172.666174 177.244269 
L 172.869169 178.033285 
L 173.11651 178.822301 
L 173.396215 179.611317 
L 173.689695 180.400333 
L 173.974262 181.189349 
L 174.226242 181.978365 
L 174.423782 182.767381 
L 174.548745 183.556397 
L 174.587586 184.345413 
L 174.531573 185.134428 
L 174.376856 185.923444 
L 174.124729 186.71246 
L 173.782011 187.501476 
L 173.361136 188.290492 
L 172.879491 189.079508 
L 172.357795 189.868524 
L 171.817722 190.65754 
L 171.279342 191.446556 
L 170.759057 192.235572 
L 170.268485 193.024588 
L 169.814411 193.813604 
L 169.399504 194.602619 
L 169.023401 195.391635 
L 168.683759 196.180651 
L 168.377125 196.969667 
L 168.099632 197.758683 
L 167.847621 198.547699 
L 167.618177 199.336715 
L 167.409488 200.125731 
L 167.22088 200.914747 
L 167.052485 201.703763 
L 166.904637 202.492779 
L 166.777254 203.281794 
L 166.669447 204.07081 
L 166.579508 204.859826 
L 166.505213 205.648842 
L 166.444277 206.437858 
L 166.394717 207.226874 
L 166.35499 208.01589 
L 166.323908 208.804906 
L 166.300423 209.593922 
L 166.283429 210.382938 
L 166.271679 211.171954 
L 166.263819 211.96097 
L 166.258502 212.749985 
L 166.254511 213.539001 
L 166.250854 214.328017 
L 166.246815 215.117033 
L 166.241981 215.906049 
z
" clip-path="url(#p855f38ee5d)" style="fill: #348abd; fill-opacity: 0.3"/>
   </g>
   <g id="PolyCollection_5">
    <path d="M 194.239169 220.723414 
L 194.118449 220.723414 
L 194.107404 219.82134 
L 194.093867 218.919267 
L 194.076723 218.017194 
L 194.054675 217.11512 
L 194.026325 216.213047 
L 193.990243 215.310974 
L 193.944995 214.4089 
L 193.889137 213.506827 
L 193.821195 212.604753 
L 193.739652 211.70268 
L 193.642997 210.800607 
L 193.529842 209.898533 
L 193.399087 208.99646 
L 193.250067 208.094387 
L 193.082592 207.192313 
L 192.896784 206.29024 
L 192.692689 205.388166 
L 192.469719 204.486093 
L 192.226083 203.58402 
L 191.958421 202.681946 
L 191.661866 201.779873 
L 191.330648 200.8778 
L 190.959246 199.975726 
L 190.543922 199.073653 
L 190.084318 198.171579 
L 189.584777 197.269506 
L 189.055016 196.367433 
L 188.509943 195.465359 
L 187.968546 194.563286 
L 187.451998 193.661213 
L 186.981296 192.759139 
L 186.574867 191.857066 
L 186.246588 190.954993 
L 186.004583 190.052919 
L 185.850974 189.150846 
L 185.782571 188.248772 
L 185.792273 187.346699 
L 185.870798 186.444626 
L 186.008306 185.542552 
L 186.195553 184.640479 
L 186.424348 183.738406 
L 186.687297 182.836332 
L 186.977067 181.934259 
L 187.285504 181.032185 
L 187.602995 180.130112 
L 187.918342 179.228039 
L 188.219245 178.325965 
L 188.49328 177.423892 
L 188.729135 176.521819 
L 188.9178 175.619745 
L 189.053485 174.717672 
L 189.134111 173.815598 
L 189.161319 172.913525 
L 189.140035 172.011452 
L 189.077633 171.109378 
L 188.982819 170.207305 
L 188.864386 169.305232 
L 188.730053 168.403158 
L 188.585659 167.501085 
L 188.434913 166.599011 
L 188.279804 165.696938 
L 188.121579 164.794865 
L 187.961994 163.892791 
L 187.804429 162.990718 
L 187.654514 162.088645 
L 187.520028 161.186571 
L 187.410157 160.284498 
L 187.334331 159.382424 
L 187.301052 158.480351 
L 187.317002 157.578278 
L 187.386625 156.676204 
L 187.512134 155.774131 
L 187.693776 154.872058 
L 187.930122 153.969984 
L 188.218225 153.067911 
L 188.553572 152.165837 
L 188.929929 151.263764 
L 189.339214 150.361691 
L 189.771587 149.459617 
L 190.215879 148.557544 
L 190.660346 147.655471 
L 191.09366 146.753397 
L 191.505893 145.851324 
L 191.88929 144.94925 
L 192.238641 144.047177 
L 192.551217 143.145104 
L 192.826368 142.24303 
L 193.064946 141.340957 
L 193.268772 140.438884 
L 193.440239 139.53681 
L 193.582123 138.634737 
L 193.697512 137.732664 
L 193.789784 136.83059 
L 193.862545 135.928517 
L 193.919482 135.026443 
L 193.964157 134.12437 
L 193.999773 133.222297 
L 194.028986 132.320223 
L 194.053783 131.41815 
L 194.303834 131.41815 
L 194.303834 131.41815 
L 194.328632 132.320223 
L 194.357844 133.222297 
L 194.393461 134.12437 
L 194.438136 135.026443 
L 194.495073 135.928517 
L 194.567833 136.83059 
L 194.660105 137.732664 
L 194.775494 138.634737 
L 194.917378 139.53681 
L 195.088846 140.438884 
L 195.292671 141.340957 
L 195.53125 142.24303 
L 195.8064 143.145104 
L 196.118977 144.047177 
L 196.468328 144.94925 
L 196.851725 145.851324 
L 197.263958 146.753397 
L 197.697271 147.655471 
L 198.141739 148.557544 
L 198.58603 149.459617 
L 199.018404 150.361691 
L 199.427688 151.263764 
L 199.804045 152.165837 
L 200.139393 153.067911 
L 200.427495 153.969984 
L 200.663842 154.872058 
L 200.845483 155.774131 
L 200.970992 156.676204 
L 201.040615 157.578278 
L 201.056566 158.480351 
L 201.023286 159.382424 
L 200.947461 160.284498 
L 200.837589 161.186571 
L 200.703104 162.088645 
L 200.553188 162.990718 
L 200.395624 163.892791 
L 200.236038 164.794865 
L 200.077814 165.696938 
L 199.922705 166.599011 
L 199.771959 167.501085 
L 199.627565 168.403158 
L 199.493232 169.305232 
L 199.374798 170.207305 
L 199.279985 171.109378 
L 199.217583 172.011452 
L 199.196299 172.913525 
L 199.223507 173.815598 
L 199.304132 174.717672 
L 199.439818 175.619745 
L 199.628483 176.521819 
L 199.864337 177.423892 
L 200.138373 178.325965 
L 200.439275 179.228039 
L 200.754623 180.130112 
L 201.072114 181.032185 
L 201.380551 181.934259 
L 201.670321 182.836332 
L 201.933269 183.738406 
L 202.162064 184.640479 
L 202.349312 185.542552 
L 202.48682 186.444626 
L 202.565344 187.346699 
L 202.575047 188.248772 
L 202.506644 189.150846 
L 202.353034 190.052919 
L 202.111029 190.954993 
L 201.782751 191.857066 
L 201.376321 192.759139 
L 200.905619 193.661213 
L 200.389072 194.563286 
L 199.847675 195.465359 
L 199.302602 196.367433 
L 198.77284 197.269506 
L 198.273299 198.171579 
L 197.813696 199.073653 
L 197.398372 199.975726 
L 197.02697 200.8778 
L 196.695751 201.779873 
L 196.399196 202.681946 
L 196.131535 203.58402 
L 195.887899 204.486093 
L 195.664929 205.388166 
L 195.460834 206.29024 
L 195.275026 207.192313 
L 195.107551 208.094387 
L 194.958531 208.99646 
L 194.827775 209.898533 
L 194.71462 210.800607 
L 194.617966 211.70268 
L 194.536423 212.604753 
L 194.46848 213.506827 
L 194.412623 214.4089 
L 194.367374 215.310974 
L 194.331292 216.213047 
L 194.302943 217.11512 
L 194.280895 218.017194 
L 194.26375 218.919267 
L 194.250213 219.82134 
L 194.239169 220.723414 
z
" clip-path="url(#p855f38ee5d)" style="fill: #348abd; fill-opacity: 0.3"/>
   </g>
   <g id="PolyCollection_6">
    <path d="M 222.2427 228.651577 
L 222.089839 228.651577 
L 222.071255 227.606748 
L 222.047766 226.56192 
L 222.01815 225.517091 
L 221.981159 224.472263 
L 221.935615 223.427434 
L 221.880472 222.382606 
L 221.814826 221.337777 
L 221.737865 220.292949 
L 221.648757 219.24812 
L 221.546482 218.203292 
L 221.429662 217.158463 
L 221.296406 216.113635 
L 221.144238 215.068806 
L 220.970138 214.023977 
L 220.770708 212.979149 
L 220.54248 211.93432 
L 220.282324 210.889492 
L 219.987911 209.844663 
L 219.658157 208.799835 
L 219.293578 207.755006 
L 218.896507 206.710178 
L 218.471109 205.665349 
L 218.023218 204.620521 
L 217.560015 203.575692 
L 217.089603 202.530864 
L 216.620557 201.486035 
L 216.161533 200.441206 
L 215.72098 199.396378 
L 215.306992 198.351549 
L 214.927296 197.306721 
L 214.589329 196.261892 
L 214.30034 195.217064 
L 214.067425 194.172235 
L 213.897423 193.127407 
L 213.796586 192.082578 
L 213.770031 191.03775 
L 213.821011 189.992921 
L 213.950116 188.948093 
L 214.154586 187.903264 
L 214.427895 186.858436 
L 214.759758 185.813607 
L 215.136608 184.768778 
L 215.542512 183.72395 
L 215.96039 182.679121 
L 216.373345 181.634293 
L 216.76592 180.589464 
L 217.125125 179.544636 
L 217.441139 178.499807 
L 217.70765 177.454979 
L 217.921843 176.41015 
L 218.08405 175.365322 
L 218.197109 174.320493 
L 218.265488 173.275665 
L 218.29426 172.230836 
L 218.288077 171.186008 
L 218.250296 170.141179 
L 218.182437 169.09635 
L 218.084112 168.051522 
L 217.953448 167.006693 
L 217.787974 165.961865 
L 217.585781 164.917036 
L 217.346742 163.872208 
L 217.073525 162.827379 
L 216.772203 161.782551 
L 216.452308 160.737722 
L 216.126335 159.692894 
L 215.808748 158.648065 
L 215.514689 157.603237 
L 215.258597 156.558408 
L 215.053 155.513579 
L 214.907649 154.468751 
L 214.829125 153.423922 
L 214.820915 152.379094 
L 214.883833 151.334265 
L 215.016613 150.289437 
L 215.216447 149.244608 
L 215.479314 148.19978 
L 215.800026 147.154951 
L 216.172039 146.110123 
L 216.587194 145.065294 
L 217.035571 144.020466 
L 217.505637 142.975637 
L 217.984751 141.930809 
L 218.460011 140.88598 
L 218.919275 139.841151 
L 219.352158 138.796323 
L 219.750806 137.751494 
L 220.11029 136.706666 
L 220.428593 135.661837 
L 220.706227 134.617009 
L 220.94561 133.57218 
L 221.150354 132.527352 
L 221.324596 131.482523 
L 221.472472 130.437695 
L 221.597778 129.392866 
L 221.7038 128.348038 
L 221.793285 127.303209 
L 221.868499 126.258381 
L 221.931319 125.213552 
L 222.40122 125.213552 
L 222.40122 125.213552 
L 222.46404 126.258381 
L 222.539254 127.303209 
L 222.628739 128.348038 
L 222.734761 129.392866 
L 222.860067 130.437695 
L 223.007943 131.482523 
L 223.182185 132.527352 
L 223.386929 133.57218 
L 223.626312 134.617009 
L 223.903946 135.661837 
L 224.222249 136.706666 
L 224.581733 137.751494 
L 224.980381 138.796323 
L 225.413265 139.841151 
L 225.872528 140.88598 
L 226.347788 141.930809 
L 226.826902 142.975637 
L 227.296968 144.020466 
L 227.745346 145.065294 
L 228.160501 146.110123 
L 228.532513 147.154951 
L 228.853225 148.19978 
L 229.116092 149.244608 
L 229.315926 150.289437 
L 229.448706 151.334265 
L 229.511624 152.379094 
L 229.503414 153.423922 
L 229.424891 154.468751 
L 229.279539 155.513579 
L 229.073942 156.558408 
L 228.81785 157.603237 
L 228.523791 158.648065 
L 228.206204 159.692894 
L 227.880231 160.737722 
L 227.560337 161.782551 
L 227.259014 162.827379 
L 226.985797 163.872208 
L 226.746758 164.917036 
L 226.544565 165.961865 
L 226.379091 167.006693 
L 226.248427 168.051522 
L 226.150102 169.09635 
L 226.082244 170.141179 
L 226.044462 171.186008 
L 226.038279 172.230836 
L 226.067051 173.275665 
L 226.13543 174.320493 
L 226.248489 175.365322 
L 226.410696 176.41015 
L 226.624889 177.454979 
L 226.891401 178.499807 
L 227.207414 179.544636 
L 227.56662 180.589464 
L 227.959195 181.634293 
L 228.372149 182.679121 
L 228.790027 183.72395 
L 229.195931 184.768778 
L 229.572781 185.813607 
L 229.904644 186.858436 
L 230.177954 187.903264 
L 230.382424 188.948093 
L 230.511528 189.992921 
L 230.562508 191.03775 
L 230.535953 192.082578 
L 230.435116 193.127407 
L 230.265114 194.172235 
L 230.0322 195.217064 
L 229.74321 196.261892 
L 229.405243 197.306721 
L 229.025547 198.351549 
L 228.61156 199.396378 
L 228.171006 200.441206 
L 227.711982 201.486035 
L 227.242936 202.530864 
L 226.772524 203.575692 
L 226.309321 204.620521 
L 225.861431 205.665349 
L 225.436032 206.710178 
L 225.038961 207.755006 
L 224.674383 208.799835 
L 224.344628 209.844663 
L 224.050215 210.889492 
L 223.790059 211.93432 
L 223.561831 212.979149 
L 223.362401 214.023977 
L 223.188301 215.068806 
L 223.036134 216.113635 
L 222.902877 217.158463 
L 222.786057 218.203292 
L 222.683783 219.24812 
L 222.594674 220.292949 
L 222.517714 221.337777 
L 222.452067 222.382606 
L 222.396924 223.427434 
L 222.351381 224.472263 
L 222.314389 225.517091 
L 222.284773 226.56192 
L 222.261285 227.606748 
L 222.2427 228.651577 
z
" clip-path="url(#p855f38ee5d)" style="fill: #348abd; fill-opacity: 0.3"/>
   </g>
   <g id="PolyCollection_7">
    <path d="M 250.256098 237.511661 
L 250.051363 237.511661 
L 250.026729 236.295672 
L 249.99527 235.079683 
L 249.954925 233.863694 
L 249.90339 232.647704 
L 249.838263 231.431715 
L 249.757233 230.215726 
L 249.658274 228.999737 
L 249.539815 227.783748 
L 249.400848 226.567759 
L 249.240962 225.35177 
L 249.060274 224.135781 
L 248.859288 222.919792 
L 248.638692 221.703803 
L 248.399143 220.487814 
L 248.141069 219.271825 
L 247.864543 218.055836 
L 247.56924 216.839847 
L 247.254494 215.623858 
L 246.919466 214.407869 
L 246.563402 213.19188 
L 246.185981 211.97589 
L 245.787716 210.759901 
L 245.370383 209.543912 
L 244.937433 208.327923 
L 244.494311 207.111934 
L 244.048626 205.895945 
L 243.610103 204.679956 
L 243.190276 203.463967 
L 242.801916 202.247978 
L 242.458237 201.031989 
L 242.171957 199.816 
L 241.954325 198.600011 
L 241.81423 197.384022 
L 241.757492 196.168033 
L 241.78641 194.952044 
L 241.899595 193.736055 
L 242.092102 192.520066 
L 242.355804 191.304076 
L 242.679979 190.088087 
L 243.052027 188.872098 
L 243.458248 187.656109 
L 243.88462 186.44012 
L 244.317515 185.224131 
L 244.7443 184.008142 
L 245.15381 182.792153 
L 245.536667 181.576164 
L 245.885464 180.360175 
L 246.194802 179.144186 
L 246.461208 177.928197 
L 246.682938 176.712208 
L 246.859683 175.496219 
L 246.992188 174.28023 
L 247.081821 173.064241 
L 247.13013 171.848252 
L 247.138432 170.632262 
L 247.107501 169.416273 
L 247.037412 168.200284 
L 246.92757 166.984295 
L 246.776953 165.768306 
L 246.584564 164.552317 
L 246.350028 163.336328 
L 246.074276 162.120339 
L 245.760187 160.90435 
L 245.413091 159.688361 
L 245.041011 158.472372 
L 244.654564 157.256383 
L 244.266513 156.040394 
L 243.890988 154.824405 
L 243.542494 153.608416 
L 243.234848 152.392427 
L 242.980203 151.176438 
L 242.788308 149.960449 
L 242.666074 148.744459 
L 242.617478 147.52847 
L 242.643733 146.312481 
L 242.743637 145.096492 
L 242.913983 143.880503 
L 243.149923 142.664514 
L 243.445247 141.448525 
L 243.792563 140.232536 
L 244.183416 139.016547 
L 244.608422 137.800558 
L 245.057455 136.584569 
L 245.519956 135.36858 
L 245.985342 134.152591 
L 246.443496 132.936602 
L 246.885281 131.720613 
L 247.302995 130.504624 
L 247.690705 129.288635 
L 248.044416 128.072645 
L 248.36206 126.856656 
L 248.643313 125.640667 
L 248.889292 124.424678 
L 249.102179 123.208689 
L 249.284839 121.9927 
L 249.440466 120.776711 
L 249.5723 119.560722 
L 249.683423 118.344733 
L 249.776639 117.128744 
L 250.530821 117.128744 
L 250.530821 117.128744 
L 250.624037 118.344733 
L 250.735161 119.560722 
L 250.866995 120.776711 
L 251.022621 121.9927 
L 251.205282 123.208689 
L 251.418169 124.424678 
L 251.664148 125.640667 
L 251.945401 126.856656 
L 252.263045 128.072645 
L 252.616756 129.288635 
L 253.004466 130.504624 
L 253.422179 131.720613 
L 253.863965 132.936602 
L 254.322119 134.152591 
L 254.787505 135.36858 
L 255.250006 136.584569 
L 255.699039 137.800558 
L 256.124044 139.016547 
L 256.514898 140.232536 
L 256.862214 141.448525 
L 257.157538 142.664514 
L 257.393478 143.880503 
L 257.563824 145.096492 
L 257.663728 146.312481 
L 257.689983 147.52847 
L 257.641387 148.744459 
L 257.519153 149.960449 
L 257.327258 151.176438 
L 257.072613 152.392427 
L 256.764966 153.608416 
L 256.416473 154.824405 
L 256.040948 156.040394 
L 255.652897 157.256383 
L 255.26645 158.472372 
L 254.89437 159.688361 
L 254.547274 160.90435 
L 254.233185 162.120339 
L 253.957433 163.336328 
L 253.722897 164.552317 
L 253.530508 165.768306 
L 253.379891 166.984295 
L 253.270048 168.200284 
L 253.19996 169.416273 
L 253.169029 170.632262 
L 253.177331 171.848252 
L 253.225639 173.064241 
L 253.315273 174.28023 
L 253.447778 175.496219 
L 253.624522 176.712208 
L 253.846253 177.928197 
L 254.112658 179.144186 
L 254.421997 180.360175 
L 254.770794 181.576164 
L 255.153651 182.792153 
L 255.56316 184.008142 
L 255.989945 185.224131 
L 256.42284 186.44012 
L 256.849213 187.656109 
L 257.255434 188.872098 
L 257.627481 190.088087 
L 257.951657 191.304076 
L 258.215359 192.520066 
L 258.407866 193.736055 
L 258.521051 194.952044 
L 258.549969 196.168033 
L 258.493231 197.384022 
L 258.353136 198.600011 
L 258.135504 199.816 
L 257.849224 201.031989 
L 257.505545 202.247978 
L 257.117185 203.463967 
L 256.697358 204.679956 
L 256.258835 205.895945 
L 255.81315 207.111934 
L 255.370028 208.327923 
L 254.937078 209.543912 
L 254.519745 210.759901 
L 254.12148 211.97589 
L 253.744058 213.19188 
L 253.387995 214.407869 
L 253.052966 215.623858 
L 252.738221 216.839847 
L 252.442918 218.055836 
L 252.166392 219.271825 
L 251.908318 220.487814 
L 251.668768 221.703803 
L 251.448173 222.919792 
L 251.247187 224.135781 
L 251.066499 225.35177 
L 250.906612 226.567759 
L 250.767646 227.783748 
L 250.649186 228.999737 
L 250.550228 230.215726 
L 250.469198 231.431715 
L 250.404071 232.647704 
L 250.352535 233.863694 
L 250.312191 235.079683 
L 250.280732 236.295672 
L 250.256098 237.511661 
z
" clip-path="url(#p855f38ee5d)" style="fill: #348abd; fill-opacity: 0.3"/>
   </g>
   <g id="PolyCollection_8">
    <path d="M 278.234217 249.799215 
L 278.048165 249.799215 
L 278.021175 248.327752 
L 277.986125 246.856288 
L 277.941138 245.384825 
L 277.884305 243.913362 
L 277.813809 242.441899 
L 277.728038 240.970435 
L 277.625648 239.498972 
L 277.505568 238.027509 
L 277.366931 236.556045 
L 277.208944 235.084582 
L 277.03072 233.613119 
L 276.831135 232.141656 
L 276.608729 230.670192 
L 276.361733 229.198729 
L 276.088203 227.727266 
L 275.786296 226.255802 
L 275.454625 224.784339 
L 275.092655 223.312876 
L 274.701065 221.841413 
L 274.282033 220.369949 
L 273.839393 218.898486 
L 273.378652 217.427023 
L 272.906897 215.955559 
L 272.432601 214.484096 
L 271.965363 213.012633 
L 271.51562 211.54117 
L 271.094327 210.069706 
L 270.712606 208.598243 
L 270.381356 207.12678 
L 270.110806 205.655316 
L 269.91002 204.183853 
L 269.78636 202.71239 
L 269.744953 201.240927 
L 269.78823 199.769463 
L 269.915579 198.298 
L 270.1232 196.826537 
L 270.404193 195.355074 
L 270.748893 193.88361 
L 271.145429 192.412147 
L 271.580449 190.940684 
L 272.039921 189.46922 
L 272.509914 187.997757 
L 272.977284 186.526294 
L 273.430197 185.054831 
L 273.858462 183.583367 
L 274.253693 182.111904 
L 274.609318 180.640441 
L 274.920487 179.168977 
L 275.183912 177.697514 
L 275.397667 176.226051 
L 275.560968 174.754588 
L 275.67391 173.283124 
L 275.737193 171.811661 
L 275.75182 170.340198 
L 275.718814 168.868734 
L 275.639005 167.397271 
L 275.512917 165.925808 
L 275.340837 164.454345 
L 275.123063 162.982881 
L 274.860323 161.511418 
L 274.554318 160.039955 
L 274.208285 158.568491 
L 273.827481 157.097028 
L 273.419481 155.625565 
L 272.994218 154.154102 
L 272.563733 152.682638 
L 272.141644 151.211175 
L 271.742407 149.739712 
L 271.380449 148.268248 
L 271.069282 146.796785 
L 270.820691 145.325322 
L 270.644081 143.853859 
L 270.546012 142.382395 
L 270.52996 140.910932 
L 270.596281 139.439469 
L 270.742354 137.968006 
L 270.962878 136.496542 
L 271.250275 135.025079 
L 271.595169 133.553616 
L 271.986919 132.082152 
L 272.41417 130.610689 
L 272.865388 129.139226 
L 273.329364 127.667763 
L 273.795641 126.196299 
L 274.254846 124.724836 
L 274.698921 123.253373 
L 275.121233 121.781909 
L 275.516604 120.310446 
L 275.881261 118.838983 
L 276.212753 117.36752 
L 276.509845 115.896056 
L 276.772409 114.424593 
L 277.001305 112.95313 
L 277.198252 111.481666 
L 277.365667 110.010203 
L 277.506474 108.53874 
L 277.623898 107.067277 
L 277.721235 105.595813 
L 277.801656 104.12435 
L 278.480727 104.12435 
L 278.480727 104.12435 
L 278.561147 105.595813 
L 278.658485 107.067277 
L 278.775908 108.53874 
L 278.916716 110.010203 
L 279.08413 111.481666 
L 279.281077 112.95313 
L 279.509974 114.424593 
L 279.772537 115.896056 
L 280.069629 117.36752 
L 280.401121 118.838983 
L 280.765778 120.310446 
L 281.161149 121.781909 
L 281.583462 123.253373 
L 282.027536 124.724836 
L 282.486741 126.196299 
L 282.953018 127.667763 
L 283.416994 129.139226 
L 283.868213 130.610689 
L 284.295463 132.082152 
L 284.687214 133.553616 
L 285.032108 135.025079 
L 285.319504 136.496542 
L 285.540029 137.968006 
L 285.686102 139.439469 
L 285.752422 140.910932 
L 285.73637 142.382395 
L 285.638301 143.853859 
L 285.461691 145.325322 
L 285.213101 146.796785 
L 284.901933 148.268248 
L 284.539975 149.739712 
L 284.140738 151.211175 
L 283.718649 152.682638 
L 283.288164 154.154102 
L 282.862902 155.625565 
L 282.454901 157.097028 
L 282.074097 158.568491 
L 281.728065 160.039955 
L 281.42206 161.511418 
L 281.15932 162.982881 
L 280.941545 164.454345 
L 280.769465 165.925808 
L 280.643377 167.397271 
L 280.563568 168.868734 
L 280.530563 170.340198 
L 280.545189 171.811661 
L 280.608472 173.283124 
L 280.721415 174.754588 
L 280.884715 176.226051 
L 281.098471 177.697514 
L 281.361895 179.168977 
L 281.673064 180.640441 
L 282.02869 182.111904 
L 282.423921 183.583367 
L 282.852186 185.054831 
L 283.305098 186.526294 
L 283.772468 187.997757 
L 284.242461 189.46922 
L 284.701933 190.940684 
L 285.136954 192.412147 
L 285.53349 193.88361 
L 285.87819 195.355074 
L 286.159183 196.826537 
L 286.366804 198.298 
L 286.494153 199.769463 
L 286.537429 201.240927 
L 286.496023 202.71239 
L 286.372362 204.183853 
L 286.171576 205.655316 
L 285.901027 207.12678 
L 285.569777 208.598243 
L 285.188056 210.069706 
L 284.766763 211.54117 
L 284.31702 213.012633 
L 283.849782 214.484096 
L 283.375485 215.955559 
L 282.903731 217.427023 
L 282.44299 218.898486 
L 282.000349 220.369949 
L 281.581318 221.841413 
L 281.189728 223.312876 
L 280.827757 224.784339 
L 280.496086 226.255802 
L 280.194179 227.727266 
L 279.92065 229.198729 
L 279.673653 230.670192 
L 279.451248 232.141656 
L 279.251662 233.613119 
L 279.073439 235.084582 
L 278.915451 236.556045 
L 278.776815 238.027509 
L 278.656735 239.498972 
L 278.554345 240.970435 
L 278.468574 242.441899 
L 278.398078 243.913362 
L 278.341244 245.384825 
L 278.296257 246.856288 
L 278.261208 248.327752 
L 278.234217 249.799215 
z
" clip-path="url(#p855f38ee5d)" style="fill: #348abd; fill-opacity: 0.3"/>
   </g>
   <g id="PolyCollection_9">
    <path d="M 306.223401 262.911893 
L 306.033903 262.911893 
L 306.00601 261.18499 
L 305.969844 259.458087 
L 305.92352 257.731184 
L 305.865088 256.004282 
L 305.792633 254.277379 
L 305.704362 252.550476 
L 305.598666 250.823573 
L 305.47414 249.09667 
L 305.329551 247.369767 
L 305.163764 245.642865 
L 304.975637 243.915962 
L 304.763914 242.189059 
L 304.52715 240.462156 
L 304.263708 238.735253 
L 303.971848 237.008351 
L 303.649936 235.281448 
L 303.296762 233.554545 
L 302.911935 231.827642 
L 302.496322 230.100739 
L 302.052453 228.373837 
L 301.584834 226.646934 
L 301.100109 224.920031 
L 300.607037 223.193128 
L 300.116254 221.466225 
L 299.639852 219.739322 
L 299.190799 218.01242 
L 298.782251 216.285517 
L 298.426825 214.558614 
L 298.13589 212.831711 
L 297.918928 211.104808 
L 297.783007 209.377906 
L 297.732414 207.651003 
L 297.768439 205.9241 
L 297.889347 204.197197 
L 298.090513 202.470294 
L 298.364716 200.743392 
L 298.702564 199.016489 
L 299.093017 197.289586 
L 299.523965 195.562683 
L 299.982819 193.83578 
L 300.457061 192.108877 
L 300.934728 190.381975 
L 301.404785 188.655072 
L 301.857383 186.928169 
L 302.284011 185.201266 
L 302.677533 183.474363 
L 303.032166 181.747461 
L 303.343388 180.020558 
L 303.607832 178.293655 
L 303.823157 176.566752 
L 303.987917 174.839849 
L 304.10143 173.112947 
L 304.163644 171.386044 
L 304.175003 169.659141 
L 304.136324 167.932238 
L 304.048698 166.205335 
L 303.91343 164.478432 
L 303.732041 162.75153 
L 303.506344 161.024627 
L 303.238592 159.297724 
L 302.931685 157.570821 
L 302.589417 155.843918 
L 302.216702 154.117016 
L 301.819755 152.390113 
L 301.406184 150.66321 
L 300.984956 148.936307 
L 300.566248 147.209404 
L 300.16116 145.482502 
L 299.781338 143.755599 
L 299.438507 142.028696 
L 299.143961 140.301793 
L 298.908034 138.57489 
L 298.739569 136.847987 
L 298.645439 135.121085 
L 298.630117 133.394182 
L 298.695355 131.667279 
L 298.839987 129.940376 
L 299.059899 128.213473 
L 299.348179 126.486571 
L 299.695464 124.759668 
L 300.090482 123.032765 
L 300.520736 121.305862 
L 300.973286 119.578959 
L 301.435542 117.852057 
L 301.895995 116.125154 
L 302.344777 114.398251 
L 302.774029 112.671348 
L 303.178022 110.944445 
L 303.553056 109.217542 
L 303.897198 107.49064 
L 304.209901 105.763737 
L 304.49161 104.036834 
L 304.743405 102.309931 
L 304.966719 100.583028 
L 305.163165 98.856126 
L 305.334445 97.129223 
L 305.482316 95.40232 
L 305.608599 93.675417 
L 305.715182 91.948514 
L 306.542122 91.948514 
L 306.542122 91.948514 
L 306.648705 93.675417 
L 306.774988 95.40232 
L 306.922859 97.129223 
L 307.094139 98.856126 
L 307.290585 100.583028 
L 307.513899 102.309931 
L 307.765694 104.036834 
L 308.047403 105.763737 
L 308.360106 107.49064 
L 308.704248 109.217542 
L 309.079282 110.944445 
L 309.483275 112.671348 
L 309.912527 114.398251 
L 310.361309 116.125154 
L 310.821762 117.852057 
L 311.284018 119.578959 
L 311.736568 121.305862 
L 312.166822 123.032765 
L 312.56184 124.759668 
L 312.909126 126.486571 
L 313.197405 128.213473 
L 313.417317 129.940376 
L 313.561949 131.667279 
L 313.627187 133.394182 
L 313.611865 135.121085 
L 313.517735 136.847987 
L 313.349271 138.57489 
L 313.113343 140.301793 
L 312.818797 142.028696 
L 312.475966 143.755599 
L 312.096144 145.482502 
L 311.691056 147.209404 
L 311.272348 148.936307 
L 310.85112 150.66321 
L 310.437549 152.390113 
L 310.040602 154.117016 
L 309.667887 155.843918 
L 309.325619 157.570821 
L 309.018712 159.297724 
L 308.75096 161.024627 
L 308.525263 162.75153 
L 308.343874 164.478432 
L 308.208606 166.205335 
L 308.12098 167.932238 
L 308.082301 169.659141 
L 308.09366 171.386044 
L 308.155874 173.112947 
L 308.269387 174.839849 
L 308.434147 176.566752 
L 308.649472 178.293655 
L 308.913916 180.020558 
L 309.225138 181.747461 
L 309.579771 183.474363 
L 309.973293 185.201266 
L 310.399921 186.928169 
L 310.852519 188.655072 
L 311.322576 190.381975 
L 311.800243 192.108877 
L 312.274485 193.83578 
L 312.733339 195.562683 
L 313.164287 197.289586 
L 313.55474 199.016489 
L 313.892588 200.743392 
L 314.166791 202.470294 
L 314.367957 204.197197 
L 314.488865 205.9241 
L 314.52489 207.651003 
L 314.474297 209.377906 
L 314.338377 211.104808 
L 314.121414 212.831711 
L 313.830479 214.558614 
L 313.475054 216.285517 
L 313.066505 218.01242 
L 312.617452 219.739322 
L 312.14105 221.466225 
L 311.650267 223.193128 
L 311.157195 224.920031 
L 310.67247 226.646934 
L 310.204851 228.373837 
L 309.760982 230.100739 
L 309.345369 231.827642 
L 308.960542 233.554545 
L 308.607368 235.281448 
L 308.285456 237.008351 
L 307.993596 238.735253 
L 307.730154 240.462156 
L 307.49339 242.189059 
L 307.281667 243.915962 
L 307.09354 245.642865 
L 306.927753 247.369767 
L 306.783164 249.09667 
L 306.658638 250.823573 
L 306.552942 252.550476 
L 306.464671 254.277379 
L 306.392216 256.004282 
L 306.333784 257.731184 
L 306.28746 259.458087 
L 306.251294 261.18499 
L 306.223401 262.911893 
z
" clip-path="url(#p855f38ee5d)" style="fill: #348abd; fill-opacity: 0.3"/>
   </g>
   <g id="PolyCollection_10">
    <path d="M 334.273116 275.213423 
L 333.95911 275.213423 
L 333.914967 273.221141 
L 333.860355 271.228859 
L 333.793556 269.236577 
L 333.712807 267.244295 
L 333.616341 265.252013 
L 333.502416 263.259731 
L 333.369337 261.267448 
L 333.215465 259.275166 
L 333.039208 257.282884 
L 332.839017 255.290602 
L 332.613382 253.29832 
L 332.360843 251.306038 
L 332.080041 249.313756 
L 331.769813 247.321474 
L 331.42935 245.329192 
L 331.058421 243.33691 
L 330.657661 241.344628 
L 330.228895 239.352346 
L 329.775466 237.360063 
L 329.302514 235.367781 
L 328.817143 233.375499 
L 328.328443 231.383217 
L 327.847297 229.390935 
L 327.385986 227.398653 
L 326.957599 225.406371 
L 326.575285 223.414089 
L 326.251436 221.421807 
L 325.996873 219.429525 
L 325.820138 217.437243 
L 325.726947 215.444961 
L 325.719875 213.452678 
L 325.798283 211.460396 
L 325.958481 209.468114 
L 326.194092 207.475832 
L 326.496564 205.48355 
L 326.855759 203.491268 
L 327.260571 201.498986 
L 327.699501 199.506704 
L 328.161154 197.514422 
L 328.634636 195.52214 
L 329.109825 193.529858 
L 329.577537 191.537576 
L 330.029583 189.545293 
L 330.458754 187.553011 
L 330.858754 185.560729 
L 331.224106 183.568447 
L 331.550066 181.576165 
L 331.832546 179.583883 
L 332.068081 177.591601 
L 332.253824 175.599319 
L 332.387584 173.607037 
L 332.467878 171.614755 
L 332.494004 169.622473 
L 332.466107 167.63019 
L 332.385229 165.637908 
L 332.253317 163.645626 
L 332.073191 161.653344 
L 331.848458 159.661062 
L 331.583383 157.66878 
L 331.282727 155.676498 
L 330.951584 153.684216 
L 330.595228 151.691934 
L 330.21903 149.699652 
L 329.828439 147.70737 
L 329.429055 145.715088 
L 329.026781 143.722805 
L 328.628025 141.730523 
L 328.239907 139.738241 
L 327.870411 137.745959 
L 327.528422 135.753677 
L 327.223593 133.761395 
L 326.966013 131.769113 
L 326.765675 129.776831 
L 326.631779 127.784549 
L 326.571949 125.792267 
L 326.591444 123.799985 
L 326.69251 121.807703 
L 326.873939 119.81542 
L 327.130951 117.823138 
L 327.455415 115.830856 
L 327.836402 113.838574 
L 328.261008 111.846292 
L 328.715336 109.85401 
L 329.185505 107.861728 
L 329.658576 105.869446 
L 330.123265 103.877164 
L 330.570408 101.884882 
L 330.99314 99.8926 
L 331.386823 97.900318 
L 331.748792 95.908035 
L 332.07798 93.915753 
L 332.374517 91.923471 
L 332.639355 89.931189 
L 332.873962 87.938907 
L 333.080106 85.946625 
L 333.25972 83.954343 
L 333.414822 81.962061 
L 333.547482 79.969779 
L 333.659798 77.977497 
L 334.572428 77.977497 
L 334.572428 77.977497 
L 334.684743 79.969779 
L 334.817404 81.962061 
L 334.972506 83.954343 
L 335.15212 85.946625 
L 335.358264 87.938907 
L 335.592871 89.931189 
L 335.857708 91.923471 
L 336.154246 93.915753 
L 336.483434 95.908035 
L 336.845403 97.900318 
L 337.239086 99.8926 
L 337.661818 101.884882 
L 338.108961 103.877164 
L 338.57365 105.869446 
L 339.046721 107.861728 
L 339.51689 109.85401 
L 339.971217 111.846292 
L 340.395824 113.838574 
L 340.776811 115.830856 
L 341.101274 117.823138 
L 341.358287 119.81542 
L 341.539716 121.807703 
L 341.640781 123.799985 
L 341.660277 125.792267 
L 341.600446 127.784549 
L 341.466551 129.776831 
L 341.266213 131.769113 
L 341.008633 133.761395 
L 340.703804 135.753677 
L 340.361815 137.745959 
L 339.992319 139.738241 
L 339.6042 141.730523 
L 339.205445 143.722805 
L 338.803171 145.715088 
L 338.403787 147.70737 
L 338.013196 149.699652 
L 337.636998 151.691934 
L 337.280642 153.684216 
L 336.949498 155.676498 
L 336.648843 157.66878 
L 336.383768 159.661062 
L 336.159035 161.653344 
L 335.978908 163.645626 
L 335.846997 165.637908 
L 335.766119 167.63019 
L 335.738222 169.622473 
L 335.764348 171.614755 
L 335.844641 173.607037 
L 335.978401 175.599319 
L 336.164145 177.591601 
L 336.39968 179.583883 
L 336.68216 181.576165 
L 337.008119 183.568447 
L 337.373472 185.560729 
L 337.773472 187.553011 
L 338.202643 189.545293 
L 338.654689 191.537576 
L 339.1224 193.529858 
L 339.59759 195.52214 
L 340.071071 197.514422 
L 340.532725 199.506704 
L 340.971655 201.498986 
L 341.376467 203.491268 
L 341.735662 205.48355 
L 342.038134 207.475832 
L 342.273745 209.468114 
L 342.433943 211.460396 
L 342.512351 213.452678 
L 342.505279 215.444961 
L 342.412088 217.437243 
L 342.235353 219.429525 
L 341.98079 221.421807 
L 341.65694 223.414089 
L 341.274626 225.406371 
L 340.846239 227.398653 
L 340.384929 229.390935 
L 339.903782 231.383217 
L 339.415082 233.375499 
L 338.929712 235.367781 
L 338.456759 237.360063 
L 338.003331 239.352346 
L 337.574565 241.344628 
L 337.173805 243.33691 
L 336.802876 245.329192 
L 336.462412 247.321474 
L 336.152185 249.313756 
L 335.871383 251.306038 
L 335.618844 253.29832 
L 335.393208 255.290602 
L 335.193018 257.282884 
L 335.016761 259.275166 
L 334.862888 261.267448 
L 334.72981 263.259731 
L 334.615885 265.252013 
L 334.519418 267.244295 
L 334.43867 269.236577 
L 334.371871 271.228859 
L 334.317259 273.221141 
L 334.273116 275.213423 
z
" clip-path="url(#p855f38ee5d)" style="fill: #348abd; fill-opacity: 0.3"/>
   </g>
   <g id="PolyCollection_11">
    <path d="M 362.60032 280.115481 
L 361.606828 280.115481 
L 361.502032 277.978896 
L 361.381534 275.842312 
L 361.243995 273.705728 
L 361.088067 271.569143 
L 360.912398 269.432559 
L 360.715661 267.295974 
L 360.496578 265.15939 
L 360.253967 263.022805 
L 359.986809 260.886221 
L 359.69433 258.749636 
L 359.376119 256.613052 
L 359.032262 254.476467 
L 358.663503 252.339883 
L 358.271417 250.203298 
L 357.858581 248.066714 
L 357.428722 245.930129 
L 356.98683 243.793545 
L 356.539205 241.656961 
L 356.09342 239.520376 
L 355.658188 237.383792 
L 355.243119 235.247207 
L 354.858377 233.110623 
L 354.514246 230.974038 
L 354.220632 228.837454 
L 353.986535 226.700869 
L 353.81953 224.564285 
L 353.725312 222.4277 
L 353.707335 220.291116 
L 353.766582 218.154531 
L 353.901492 216.017947 
L 354.108048 213.881362 
L 354.380016 211.744778 
L 354.709317 209.608193 
L 355.086483 207.471609 
L 355.50117 205.335025 
L 355.942675 203.19844 
L 356.400411 201.061856 
L 356.864318 198.925271 
L 357.325171 196.788687 
L 357.774792 194.652102 
L 358.206153 192.515518 
L 358.613385 190.378933 
L 358.991718 188.242349 
L 359.337371 186.105764 
L 359.647405 183.96918 
L 359.919576 181.832595 
L 360.152194 179.696011 
L 360.343996 177.559426 
L 360.494055 175.422842 
L 360.601711 173.286258 
L 360.666541 171.149673 
L 360.688353 169.013089 
L 360.667217 166.876504 
L 360.603514 164.73992 
L 360.497999 162.603335 
L 360.351876 160.466751 
L 360.166855 158.330166 
L 359.945193 156.193582 
L 359.689705 154.056997 
L 359.403738 151.920413 
L 359.091119 149.783828 
L 358.756072 147.647244 
L 358.403144 145.510659 
L 358.037133 143.374075 
L 357.663049 141.23749 
L 357.286115 139.100906 
L 356.911799 136.964322 
L 356.545879 134.827737 
L 356.194493 132.691153 
L 355.864172 130.554568 
L 355.561798 128.417984 
L 355.294483 126.281399 
L 355.069344 124.144815 
L 354.893185 122.00823 
L 354.772105 119.871646 
L 354.711083 117.735061 
L 354.713571 115.598477 
L 354.781168 113.461892 
L 354.913398 111.325308 
L 355.107639 109.188723 
L 355.35921 107.052139 
L 355.661608 104.915555 
L 356.006861 102.77897 
L 356.385982 100.642386 
L 356.789445 98.505801 
L 357.207679 96.369217 
L 357.631498 94.232632 
L 358.052484 92.096048 
L 358.463265 89.959463 
L 358.857706 87.822879 
L 359.231 85.686294 
L 359.579675 83.54971 
L 359.901516 81.413125 
L 360.195442 79.276541 
L 360.46132 77.139956 
L 360.699779 75.003372 
L 360.912001 72.866788 
L 361.099536 70.730203 
L 361.264142 68.593619 
L 362.943005 68.593619 
L 362.943005 68.593619 
L 363.107611 70.730203 
L 363.295146 72.866788 
L 363.507368 75.003372 
L 363.745827 77.139956 
L 364.011706 79.276541 
L 364.305631 81.413125 
L 364.627473 83.54971 
L 364.976147 85.686294 
L 365.349442 87.822879 
L 365.743883 89.959463 
L 366.154664 92.096048 
L 366.57565 94.232632 
L 366.999469 96.369217 
L 367.417702 98.505801 
L 367.821166 100.642386 
L 368.200286 102.77897 
L 368.54554 104.915555 
L 368.847937 107.052139 
L 369.099508 109.188723 
L 369.293749 111.325308 
L 369.425979 113.461892 
L 369.493576 115.598477 
L 369.496065 117.735061 
L 369.435042 119.871646 
L 369.313962 122.00823 
L 369.137803 124.144815 
L 368.912664 126.281399 
L 368.64535 128.417984 
L 368.342976 130.554568 
L 368.012654 132.691153 
L 367.661268 134.827737 
L 367.295348 136.964322 
L 366.921033 139.100906 
L 366.544099 141.23749 
L 366.170015 143.374075 
L 365.804004 145.510659 
L 365.451076 147.647244 
L 365.116029 149.783828 
L 364.803409 151.920413 
L 364.517442 154.056997 
L 364.261954 156.193582 
L 364.040292 158.330166 
L 363.855271 160.466751 
L 363.709148 162.603335 
L 363.603634 164.73992 
L 363.53993 166.876504 
L 363.518794 169.013089 
L 363.540606 171.149673 
L 363.605436 173.286258 
L 363.713093 175.422842 
L 363.863152 177.559426 
L 364.054954 179.696011 
L 364.287571 181.832595 
L 364.559742 183.96918 
L 364.869776 186.105764 
L 365.215429 188.242349 
L 365.593763 190.378933 
L 366.000994 192.515518 
L 366.432355 194.652102 
L 366.881976 196.788687 
L 367.342829 198.925271 
L 367.806736 201.061856 
L 368.264473 203.19844 
L 368.705977 205.335025 
L 369.120664 207.471609 
L 369.49783 209.608193 
L 369.827131 211.744778 
L 370.0991 213.881362 
L 370.305655 216.017947 
L 370.440565 218.154531 
L 370.499812 220.291116 
L 370.481835 222.4277 
L 370.387618 224.564285 
L 370.220613 226.700869 
L 369.986515 228.837454 
L 369.692901 230.974038 
L 369.348771 233.110623 
L 368.964029 235.247207 
L 368.54896 237.383792 
L 368.113727 239.520376 
L 367.667943 241.656961 
L 367.220318 243.793545 
L 366.778426 245.930129 
L 366.348566 248.066714 
L 365.93573 250.203298 
L 365.543645 252.339883 
L 365.174886 254.476467 
L 364.831029 256.613052 
L 364.512817 258.749636 
L 364.220339 260.886221 
L 363.95318 263.022805 
L 363.71057 265.15939 
L 363.491486 267.295974 
L 363.294749 269.432559 
L 363.119081 271.569143 
L 362.963152 273.705728 
L 362.825614 275.842312 
L 362.705116 277.978896 
L 362.60032 280.115481 
z
" clip-path="url(#p855f38ee5d)" style="fill: #348abd; fill-opacity: 0.3"/>
   </g>
   <g id="PolyCollection_12">
    <path d="M 390.79058 292.233151 
L 389.391489 292.233151 
L 389.255676 289.775345 
L 389.102279 287.31754 
L 388.92999 284.859734 
L 388.737394 282.401929 
L 388.522996 279.944123 
L 388.285286 277.486317 
L 388.022845 275.028512 
L 387.734481 272.570706 
L 387.419405 270.112901 
L 387.077425 267.655095 
L 386.709145 265.19729 
L 386.316157 262.739484 
L 385.901207 260.281679 
L 385.468319 257.823873 
L 385.022851 255.366068 
L 384.571485 252.908262 
L 384.122121 250.450457 
L 383.683685 247.992651 
L 383.265839 245.534846 
L 382.878618 243.07704 
L 382.531995 240.619234 
L 382.235415 238.161429 
L 381.997326 235.703623 
L 381.824738 233.245818 
L 381.722854 230.788012 
L 381.694796 228.330207 
L 381.741458 225.872401 
L 381.86148 223.414596 
L 382.05136 220.95679 
L 382.305678 218.498985 
L 382.617414 216.041179 
L 382.978316 213.583374 
L 383.379309 211.125568 
L 383.810884 208.667763 
L 384.263458 206.209957 
L 384.727688 203.752151 
L 385.194712 201.294346 
L 385.656333 198.83654 
L 386.105137 196.378735 
L 386.534565 193.920929 
L 386.938937 191.463124 
L 387.313438 189.005318 
L 387.654087 186.547513 
L 387.957678 184.089707 
L 388.22171 181.631902 
L 388.444296 179.174096 
L 388.624086 176.716291 
L 388.76017 174.258485 
L 388.852012 171.80068 
L 388.89939 169.342874 
L 388.902372 166.885069 
L 388.861316 164.427263 
L 388.776906 161.969457 
L 388.650201 159.511652 
L 388.482714 157.053846 
L 388.276467 154.596041 
L 388.034048 152.138235 
L 387.758621 149.68043 
L 387.453906 147.222624 
L 387.124117 144.764819 
L 386.773864 142.307013 
L 386.408041 139.849208 
L 386.03172 137.391402 
L 385.650063 134.933597 
L 385.268281 132.475791 
L 384.891629 130.017986 
L 384.525459 127.56018 
L 384.175281 125.102374 
L 383.846838 122.644569 
L 383.546132 120.186763 
L 383.279397 117.728958 
L 383.052973 115.271152 
L 382.873084 112.813347 
L 382.745532 110.355541 
L 382.675315 107.897736 
L 382.666234 105.43993 
L 382.720522 102.982125 
L 382.83855 100.524319 
L 383.018658 98.066514 
L 383.25713 95.608708 
L 383.548339 93.150903 
L 383.885025 90.693097 
L 384.258701 88.235291 
L 384.660126 85.777486 
L 385.079801 83.31968 
L 385.508443 80.861875 
L 385.937388 78.404069 
L 386.358904 75.946264 
L 386.7664 73.488458 
L 387.154529 71.030653 
L 387.519199 68.572847 
L 387.857521 66.115042 
L 388.167696 63.657236 
L 388.448881 61.199431 
L 388.701044 58.741625 
L 388.924815 56.28382 
L 389.121347 53.826014 
L 389.292191 51.368208 
L 389.439184 48.910403 
L 390.742885 48.910403 
L 390.742885 48.910403 
L 390.889878 51.368208 
L 391.060722 53.826014 
L 391.257254 56.28382 
L 391.481025 58.741625 
L 391.733188 61.199431 
L 392.014373 63.657236 
L 392.324548 66.115042 
L 392.66287 68.572847 
L 393.02754 71.030653 
L 393.415669 73.488458 
L 393.823164 75.946264 
L 394.244681 78.404069 
L 394.673626 80.861875 
L 395.102268 83.31968 
L 395.521943 85.777486 
L 395.923368 88.235291 
L 396.297044 90.693097 
L 396.63373 93.150903 
L 396.924939 95.608708 
L 397.163411 98.066514 
L 397.343519 100.524319 
L 397.461547 102.982125 
L 397.515835 105.43993 
L 397.506754 107.897736 
L 397.436537 110.355541 
L 397.308985 112.813347 
L 397.129096 115.271152 
L 396.902672 117.728958 
L 396.635937 120.186763 
L 396.335231 122.644569 
L 396.006788 125.102374 
L 395.65661 127.56018 
L 395.29044 130.017986 
L 394.913788 132.475791 
L 394.532006 134.933597 
L 394.150349 137.391402 
L 393.774028 139.849208 
L 393.408205 142.307013 
L 393.057952 144.764819 
L 392.728163 147.222624 
L 392.423448 149.68043 
L 392.148021 152.138235 
L 391.905602 154.596041 
L 391.699355 157.053846 
L 391.531868 159.511652 
L 391.405163 161.969457 
L 391.320752 164.427263 
L 391.279697 166.885069 
L 391.282679 169.342874 
L 391.330057 171.80068 
L 391.421899 174.258485 
L 391.557983 176.716291 
L 391.737773 179.174096 
L 391.960359 181.631902 
L 392.224391 184.089707 
L 392.527982 186.547513 
L 392.868631 189.005318 
L 393.243132 191.463124 
L 393.647503 193.920929 
L 394.076932 196.378735 
L 394.525736 198.83654 
L 394.987357 201.294346 
L 395.454381 203.752151 
L 395.918611 206.209957 
L 396.371185 208.667763 
L 396.80276 211.125568 
L 397.203753 213.583374 
L 397.564655 216.041179 
L 397.876391 218.498985 
L 398.130709 220.95679 
L 398.320589 223.414596 
L 398.440611 225.872401 
L 398.487273 228.330207 
L 398.459215 230.788012 
L 398.357331 233.245818 
L 398.184743 235.703623 
L 397.946654 238.161429 
L 397.650074 240.619234 
L 397.303451 243.07704 
L 396.91623 245.534846 
L 396.498384 247.992651 
L 396.059948 250.450457 
L 395.610584 252.908262 
L 395.159218 255.366068 
L 394.71375 257.823873 
L 394.280862 260.281679 
L 393.865912 262.739484 
L 393.472924 265.19729 
L 393.104644 267.655095 
L 392.762664 270.112901 
L 392.447588 272.570706 
L 392.159224 275.028512 
L 391.896782 277.486317 
L 391.659073 279.944123 
L 391.444675 282.401929 
L 391.252079 284.859734 
L 391.07979 287.31754 
L 390.926393 289.775345 
L 390.79058 292.233151 
z
" clip-path="url(#p855f38ee5d)" style="fill: #348abd; fill-opacity: 0.3"/>
   </g>
   <g id="matplotlib.axis_1">
    <g id="xtick_1">
     <g id="line2d_1">
      <path d="M 82.228966 307.584 
L 82.228966 41.472 
" clip-path="url(#p855f38ee5d)" style="fill: none; stroke-dasharray: 1.85,0.8; stroke-dashoffset: 0; stroke: #b2b2b2; stroke-width: 0.5"/>
     </g>
     <g id="line2d_2">
      <defs>
       <path id="ma73617727e" d="M 0 0 
L 0 -3.5 
" style="stroke: #000000; stroke-width: 0.8"/>
      </defs>
      <g>
       <use xlink:href="#ma73617727e" x="82.228966" y="307.584" style="stroke: #000000; stroke-width: 0.8"/>
      </g>
     </g>
     <g id="text_1">
      <!-- 0 -->
      <g transform="translate(79.047716 318.682437) scale(0.1 -0.1)">
       <defs>
        <path id="DejaVuSans-30" d="M 2034 4250 
Q 1547 4250 1301 3770 
Q 1056 3291 1056 2328 
Q 1056 1369 1301 889 
Q 1547 409 2034 409 
Q 2525 409 2770 889 
Q 3016 1369 3016 2328 
Q 3016 3291 2770 3770 
Q 2525 4250 2034 4250 
z
M 2034 4750 
Q 2819 4750 3233 4129 
Q 3647 3509 3647 2328 
Q 3647 1150 3233 529 
Q 2819 -91 2034 -91 
Q 1250 -91 836 529 
Q 422 1150 422 2328 
Q 422 3509 836 4129 
Q 1250 4750 2034 4750 
z
" transform="scale(0.015625)"/>
       </defs>
       <use xlink:href="#DejaVuSans-30"/>
      </g>
     </g>
    </g>
    <g id="xtick_2">
     <g id="line2d_3">
      <path d="M 138.203887 307.584 
L 138.203887 41.472 
" clip-path="url(#p855f38ee5d)" style="fill: none; stroke-dasharray: 1.85,0.8; stroke-dashoffset: 0; stroke: #b2b2b2; stroke-width: 0.5"/>
     </g>
     <g id="line2d_4">
      <g>
       <use xlink:href="#ma73617727e" x="138.203887" y="307.584" style="stroke: #000000; stroke-width: 0.8"/>
      </g>
     </g>
     <g id="text_2">
      <!-- 50 -->
      <g transform="translate(131.841387 318.682437) scale(0.1 -0.1)">
       <defs>
        <path id="DejaVuSans-35" d="M 691 4666 
L 3169 4666 
L 3169 4134 
L 1269 4134 
L 1269 2991 
Q 1406 3038 1543 3061 
Q 1681 3084 1819 3084 
Q 2600 3084 3056 2656 
Q 3513 2228 3513 1497 
Q 3513 744 3044 326 
Q 2575 -91 1722 -91 
Q 1428 -91 1123 -41 
Q 819 9 494 109 
L 494 744 
Q 775 591 1075 516 
Q 1375 441 1709 441 
Q 2250 441 2565 725 
Q 2881 1009 2881 1497 
Q 2881 1984 2565 2268 
Q 2250 2553 1709 2553 
Q 1456 2553 1204 2497 
Q 953 2441 691 2322 
L 691 4666 
z
" transform="scale(0.015625)"/>
       </defs>
       <use xlink:href="#DejaVuSans-35"/>
       <use xlink:href="#DejaVuSans-30" x="63.623047"/>
      </g>
     </g>
    </g>
    <g id="xtick_3">
     <g id="line2d_5">
      <path d="M 194.178809 307.584 
L 194.178809 41.472 
" clip-path="url(#p855f38ee5d)" style="fill: none; stroke-dasharray: 1.85,0.8; stroke-dashoffset: 0; stroke: #b2b2b2; stroke-width: 0.5"/>
     </g>
     <g id="line2d_6">
      <g>
       <use xlink:href="#ma73617727e" x="194.178809" y="307.584" style="stroke: #000000; stroke-width: 0.8"/>
      </g>
     </g>
     <g id="text_3">
      <!-- 100 -->
      <g transform="translate(184.635059 318.682437) scale(0.1 -0.1)">
       <defs>
        <path id="DejaVuSans-31" d="M 794 531 
L 1825 531 
L 1825 4091 
L 703 3866 
L 703 4441 
L 1819 4666 
L 2450 4666 
L 2450 531 
L 3481 531 
L 3481 0 
L 794 0 
L 794 531 
z
" transform="scale(0.015625)"/>
       </defs>
       <use xlink:href="#DejaVuSans-31"/>
       <use xlink:href="#DejaVuSans-30" x="63.623047"/>
       <use xlink:href="#DejaVuSans-30" x="127.246094"/>
      </g>
     </g>
    </g>
    <g id="xtick_4">
     <g id="line2d_7">
      <path d="M 250.15373 307.584 
L 250.15373 41.472 
" clip-path="url(#p855f38ee5d)" style="fill: none; stroke-dasharray: 1.85,0.8; stroke-dashoffset: 0; stroke: #b2b2b2; stroke-width: 0.5"/>
     </g>
     <g id="line2d_8">
      <g>
       <use xlink:href="#ma73617727e" x="250.15373" y="307.584" style="stroke: #000000; stroke-width: 0.8"/>
      </g>
     </g>
     <g id="text_4">
      <!-- 150 -->
      <g transform="translate(240.60998 318.682437) scale(0.1 -0.1)">
       <use xlink:href="#DejaVuSans-31"/>
       <use xlink:href="#DejaVuSans-35" x="63.623047"/>
       <use xlink:href="#DejaVuSans-30" x="127.246094"/>
      </g>
     </g>
    </g>
    <g id="xtick_5">
     <g id="line2d_9">
      <path d="M 306.128652 307.584 
L 306.128652 41.472 
" clip-path="url(#p855f38ee5d)" style="fill: none; stroke-dasharray: 1.85,0.8; stroke-dashoffset: 0; stroke: #b2b2b2; stroke-width: 0.5"/>
     </g>
     <g id="line2d_10">
      <g>
       <use xlink:href="#ma73617727e" x="306.128652" y="307.584" style="stroke: #000000; stroke-width: 0.8"/>
      </g>
     </g>
     <g id="text_5">
      <!-- 200 -->
      <g transform="translate(296.584902 318.682437) scale(0.1 -0.1)">
       <defs>
        <path id="DejaVuSans-32" d="M 1228 531 
L 3431 531 
L 3431 0 
L 469 0 
L 469 531 
Q 828 903 1448 1529 
Q 2069 2156 2228 2338 
Q 2531 2678 2651 2914 
Q 2772 3150 2772 3378 
Q 2772 3750 2511 3984 
Q 2250 4219 1831 4219 
Q 1534 4219 1204 4116 
Q 875 4013 500 3803 
L 500 4441 
Q 881 4594 1212 4672 
Q 1544 4750 1819 4750 
Q 2544 4750 2975 4387 
Q 3406 4025 3406 3419 
Q 3406 3131 3298 2873 
Q 3191 2616 2906 2266 
Q 2828 2175 2409 1742 
Q 1991 1309 1228 531 
z
" transform="scale(0.015625)"/>
       </defs>
       <use xlink:href="#DejaVuSans-32"/>
       <use xlink:href="#DejaVuSans-30" x="63.623047"/>
       <use xlink:href="#DejaVuSans-30" x="127.246094"/>
      </g>
     </g>
    </g>
    <g id="xtick_6">
     <g id="line2d_11">
      <path d="M 362.103574 307.584 
L 362.103574 41.472 
" clip-path="url(#p855f38ee5d)" style="fill: none; stroke-dasharray: 1.85,0.8; stroke-dashoffset: 0; stroke: #b2b2b2; stroke-width: 0.5"/>
     </g>
     <g id="line2d_12">
      <g>
       <use xlink:href="#ma73617727e" x="362.103574" y="307.584" style="stroke: #000000; stroke-width: 0.8"/>
      </g>
     </g>
     <g id="text_6">
      <!-- 250 -->
      <g transform="translate(352.559824 318.682437) scale(0.1 -0.1)">
       <use xlink:href="#DejaVuSans-32"/>
       <use xlink:href="#DejaVuSans-35" x="63.623047"/>
       <use xlink:href="#DejaVuSans-30" x="127.246094"/>
      </g>
     </g>
    </g>
    <g id="text_7">
     <!-- $s$ -->
     <g transform="translate(233.34 333.88025) scale(0.12 -0.12)">
      <defs>
       <path id="Cmmi10-73" d="M 556 391 
Q 728 97 1247 97 
Q 1472 97 1675 173 
Q 1878 250 2011 403 
Q 2144 556 2144 775 
Q 2144 941 2025 1047 
Q 1906 1153 1734 1191 
L 1388 1259 
Q 1150 1319 997 1481 
Q 844 1644 844 1875 
Q 844 2159 998 2378 
Q 1153 2597 1406 2712 
Q 1659 2828 1931 2828 
Q 2222 2828 2451 2689 
Q 2681 2550 2681 2278 
Q 2681 2131 2598 2018 
Q 2516 1906 2369 1906 
Q 2284 1906 2223 1961 
Q 2163 2016 2163 2100 
Q 2163 2175 2205 2245 
Q 2247 2316 2317 2358 
Q 2388 2400 2463 2400 
Q 2406 2538 2251 2600 
Q 2097 2663 1919 2663 
Q 1756 2663 1593 2597 
Q 1431 2531 1332 2404 
Q 1234 2278 1234 2106 
Q 1234 1991 1315 1903 
Q 1397 1816 1516 1778 
L 1888 1703 
Q 2066 1666 2214 1570 
Q 2363 1475 2448 1329 
Q 2534 1184 2534 997 
Q 2534 759 2401 528 
Q 2269 297 2075 159 
Q 1734 -72 1241 -72 
Q 900 -72 615 84 
Q 331 241 331 550 
Q 331 725 432 854 
Q 534 984 709 984 
Q 813 984 883 921 
Q 953 859 953 756 
Q 953 609 843 500 
Q 734 391 588 391 
L 556 391 
z
" transform="scale(0.015625)"/>
      </defs>
      <use xlink:href="#Cmmi10-73" transform="translate(0 0.8125)"/>
     </g>
    </g>
   </g>
   <g id="matplotlib.axis_2">
    <g id="ytick_1">
     <g id="line2d_13">
      <path d="M 57.6 307.584 
L 414.72 307.584 
" clip-path="url(#p855f38ee5d)" style="fill: none; stroke-dasharray: 1.85,0.8; stroke-dashoffset: 0; stroke: #b2b2b2; stroke-width: 0.5"/>
     </g>
     <g id="line2d_14">
      <defs>
       <path id="mcc0d7bae76" d="M 0 0 
L 3.5 0 
" style="stroke: #000000; stroke-width: 0.8"/>
      </defs>
      <g>
       <use xlink:href="#mcc0d7bae76" x="57.6" y="307.584" style="stroke: #000000; stroke-width: 0.8"/>
      </g>
     </g>
     <g id="text_8">
      <!-- 20 -->
      <g transform="translate(32.995312 311.383219) scale(0.1 -0.1)">
       <defs>
        <path id="DejaVuSans-2212" d="M 678 2272 
L 4684 2272 
L 4684 1741 
L 678 1741 
L 678 2272 
z
" transform="scale(0.015625)"/>
       </defs>
       <use xlink:href="#DejaVuSans-2212"/>
       <use xlink:href="#DejaVuSans-32" x="83.789062"/>
       <use xlink:href="#DejaVuSans-30" x="147.412109"/>
      </g>
     </g>
    </g>
    <g id="ytick_2">
     <g id="line2d_15">
      <path d="M 57.6 274.32 
L 414.72 274.32 
" clip-path="url(#p855f38ee5d)" style="fill: none; stroke-dasharray: 1.85,0.8; stroke-dashoffset: 0; stroke: #b2b2b2; stroke-width: 0.5"/>
     </g>
     <g id="line2d_16">
      <g>
       <use xlink:href="#mcc0d7bae76" x="57.6" y="274.32" style="stroke: #000000; stroke-width: 0.8"/>
      </g>
     </g>
     <g id="text_9">
      <!-- 15 -->
      <g transform="translate(32.995312 278.119219) scale(0.1 -0.1)">
       <use xlink:href="#DejaVuSans-2212"/>
       <use xlink:href="#DejaVuSans-31" x="83.789062"/>
       <use xlink:href="#DejaVuSans-35" x="147.412109"/>
      </g>
     </g>
    </g>
    <g id="ytick_3">
     <g id="line2d_17">
      <path d="M 57.6 241.056 
L 414.72 241.056 
" clip-path="url(#p855f38ee5d)" style="fill: none; stroke-dasharray: 1.85,0.8; stroke-dashoffset: 0; stroke: #b2b2b2; stroke-width: 0.5"/>
     </g>
     <g id="line2d_18">
      <g>
       <use xlink:href="#mcc0d7bae76" x="57.6" y="241.056" style="stroke: #000000; stroke-width: 0.8"/>
      </g>
     </g>
     <g id="text_10">
      <!-- 10 -->
      <g transform="translate(32.995312 244.855219) scale(0.1 -0.1)">
       <use xlink:href="#DejaVuSans-2212"/>
       <use xlink:href="#DejaVuSans-31" x="83.789062"/>
       <use xlink:href="#DejaVuSans-30" x="147.412109"/>
      </g>
     </g>
    </g>
    <g id="ytick_4">
     <g id="line2d_19">
      <path d="M 57.6 207.792 
L 414.72 207.792 
" clip-path="url(#p855f38ee5d)" style="fill: none; stroke-dasharray: 1.85,0.8; stroke-dashoffset: 0; stroke: #b2b2b2; stroke-width: 0.5"/>
     </g>
     <g id="line2d_20">
      <g>
       <use xlink:href="#mcc0d7bae76" x="57.6" y="207.792" style="stroke: #000000; stroke-width: 0.8"/>
      </g>
     </g>
     <g id="text_11">
      <!-- 5 -->
      <g transform="translate(39.357813 211.591219) scale(0.1 -0.1)">
       <use xlink:href="#DejaVuSans-2212"/>
       <use xlink:href="#DejaVuSans-35" x="83.789062"/>
      </g>
     </g>
    </g>
    <g id="ytick_5">
     <g id="line2d_21">
      <path d="M 57.6 174.528 
L 414.72 174.528 
" clip-path="url(#p855f38ee5d)" style="fill: none; stroke-dasharray: 1.85,0.8; stroke-dashoffset: 0; stroke: #b2b2b2; stroke-width: 0.5"/>
     </g>
     <g id="line2d_22">
      <g>
       <use xlink:href="#mcc0d7bae76" x="57.6" y="174.528" style="stroke: #000000; stroke-width: 0.8"/>
      </g>
     </g>
     <g id="text_12">
      <!-- 0 -->
      <g transform="translate(47.7375 178.327219) scale(0.1 -0.1)">
       <use xlink:href="#DejaVuSans-30"/>
      </g>
     </g>
    </g>
    <g id="ytick_6">
     <g id="line2d_23">
      <path d="M 57.6 141.264 
L 414.72 141.264 
" clip-path="url(#p855f38ee5d)" style="fill: none; stroke-dasharray: 1.85,0.8; stroke-dashoffset: 0; stroke: #b2b2b2; stroke-width: 0.5"/>
     </g>
     <g id="line2d_24">
      <g>
       <use xlink:href="#mcc0d7bae76" x="57.6" y="141.264" style="stroke: #000000; stroke-width: 0.8"/>
      </g>
     </g>
     <g id="text_13">
      <!-- 5 -->
      <g transform="translate(47.7375 145.063219) scale(0.1 -0.1)">
       <use xlink:href="#DejaVuSans-35"/>
      </g>
     </g>
    </g>
    <g id="ytick_7">
     <g id="line2d_25">
      <path d="M 57.6 108 
L 414.72 108 
" clip-path="url(#p855f38ee5d)" style="fill: none; stroke-dasharray: 1.85,0.8; stroke-dashoffset: 0; stroke: #b2b2b2; stroke-width: 0.5"/>
     </g>
     <g id="line2d_26">
      <g>
       <use xlink:href="#mcc0d7bae76" x="57.6" y="108" style="stroke: #000000; stroke-width: 0.8"/>
      </g>
     </g>
     <g id="text_14">
      <!-- 10 -->
      <g transform="translate(41.375 111.799219) scale(0.1 -0.1)">
       <use xlink:href="#DejaVuSans-31"/>
       <use xlink:href="#DejaVuSans-30" x="63.623047"/>
      </g>
     </g>
    </g>
    <g id="ytick_8">
     <g id="line2d_27">
      <path d="M 57.6 74.736 
L 414.72 74.736 
" clip-path="url(#p855f38ee5d)" style="fill: none; stroke-dasharray: 1.85,0.8; stroke-dashoffset: 0; stroke: #b2b2b2; stroke-width: 0.5"/>
     </g>
     <g id="line2d_28">
      <g>
       <use xlink:href="#mcc0d7bae76" x="57.6" y="74.736" style="stroke: #000000; stroke-width: 0.8"/>
      </g>
     </g>
     <g id="text_15">
      <!-- 15 -->
      <g transform="translate(41.375 78.535219) scale(0.1 -0.1)">
       <use xlink:href="#DejaVuSans-31"/>
       <use xlink:href="#DejaVuSans-35" x="63.623047"/>
      </g>
     </g>
    </g>
    <g id="ytick_9">
     <g id="line2d_29">
      <path d="M 57.6 41.472 
L 414.72 41.472 
" clip-path="url(#p855f38ee5d)" style="fill: none; stroke-dasharray: 1.85,0.8; stroke-dashoffset: 0; stroke: #b2b2b2; stroke-width: 0.5"/>
     </g>
     <g id="line2d_30">
      <g>
       <use xlink:href="#mcc0d7bae76" x="57.6" y="41.472" style="stroke: #000000; stroke-width: 0.8"/>
      </g>
     </g>
     <g id="text_16">
      <!-- 20 -->
      <g transform="translate(41.375 45.271219) scale(0.1 -0.1)">
       <use xlink:href="#DejaVuSans-32"/>
       <use xlink:href="#DejaVuSans-30" x="63.623047"/>
      </g>
     </g>
    </g>
    <g id="text_17">
     <!-- $x_{s}$ -->
     <g transform="translate(26.499687 180.348) rotate(-90) scale(0.12 -0.12)">
      <defs>
       <path id="Cmmi10-78" d="M 500 184 
Q 613 97 819 97 
Q 1019 97 1172 289 
Q 1325 481 1381 709 
L 1672 1844 
Q 1741 2153 1741 2266 
Q 1741 2425 1652 2544 
Q 1563 2663 1403 2663 
Q 1200 2663 1022 2536 
Q 844 2409 722 2214 
Q 600 2019 550 1819 
Q 538 1778 500 1778 
L 422 1778 
Q 372 1778 372 1838 
L 372 1856 
Q 434 2094 584 2320 
Q 734 2547 951 2687 
Q 1169 2828 1416 2828 
Q 1650 2828 1839 2703 
Q 2028 2578 2106 2363 
Q 2216 2559 2386 2693 
Q 2556 2828 2759 2828 
Q 2897 2828 3040 2779 
Q 3184 2731 3275 2631 
Q 3366 2531 3366 2381 
Q 3366 2219 3261 2101 
Q 3156 1984 2994 1984 
Q 2891 1984 2822 2050 
Q 2753 2116 2753 2216 
Q 2753 2350 2845 2451 
Q 2938 2553 3066 2572 
Q 2950 2663 2747 2663 
Q 2541 2663 2389 2472 
Q 2238 2281 2175 2047 
L 1894 916 
Q 1825 659 1825 494 
Q 1825 331 1917 214 
Q 2009 97 2163 97 
Q 2463 97 2698 361 
Q 2934 625 3009 941 
Q 3022 978 3059 978 
L 3138 978 
Q 3163 978 3178 961 
Q 3194 944 3194 922 
Q 3194 916 3188 903 
Q 3097 522 2806 225 
Q 2516 -72 2150 -72 
Q 1916 -72 1727 54 
Q 1538 181 1459 397 
Q 1359 209 1182 68 
Q 1006 -72 806 -72 
Q 669 -72 523 -23 
Q 378 25 287 125 
Q 197 225 197 378 
Q 197 528 301 651 
Q 406 775 563 775 
Q 669 775 741 711 
Q 813 647 813 544 
Q 813 409 723 309 
Q 634 209 500 184 
z
" transform="scale(0.015625)"/>
      </defs>
      <use xlink:href="#Cmmi10-78" transform="translate(0 0.8125)"/>
      <use xlink:href="#Cmmi10-73" transform="translate(57.080078 -16.19375) scale(0.7)"/>
     </g>
    </g>
   </g>
   <g id="LineCollection_1">
    <path d="M 282.619185 307.584 
L 282.619185 41.472 
" clip-path="url(#p855f38ee5d)" style="fill: none; stroke-dasharray: 7.4,3.2; stroke-dashoffset: 0; stroke: #ff0000; stroke-width: 2"/>
   </g>
   <g id="LineCollection_2">
    <path d="M 78.030846 151.41436 
L 86.427085 151.41436 
" clip-path="url(#p855f38ee5d)" style="fill: none; stroke: #348abd; stroke-width: 2"/>
    <path d="M 106.018307 149.561365 
L 114.414545 149.561365 
" clip-path="url(#p855f38ee5d)" style="fill: none; stroke: #348abd; stroke-width: 2"/>
    <path d="M 134.005768 144.941738 
L 142.402006 144.941738 
" clip-path="url(#p855f38ee5d)" style="fill: none; stroke: #348abd; stroke-width: 2"/>
    <path d="M 161.993229 137.793474 
L 170.389467 137.793474 
" clip-path="url(#p855f38ee5d)" style="fill: none; stroke: #348abd; stroke-width: 2"/>
    <path d="M 189.98069 131.41815 
L 198.376928 131.41815 
" clip-path="url(#p855f38ee5d)" style="fill: none; stroke: #348abd; stroke-width: 2"/>
    <path d="M 217.96815 125.213552 
L 226.364389 125.213552 
" clip-path="url(#p855f38ee5d)" style="fill: none; stroke: #348abd; stroke-width: 2"/>
    <path d="M 245.955611 117.128744 
L 254.35185 117.128744 
" clip-path="url(#p855f38ee5d)" style="fill: none; stroke: #348abd; stroke-width: 2"/>
    <path d="M 273.943072 104.12435 
L 282.33931 104.12435 
" clip-path="url(#p855f38ee5d)" style="fill: none; stroke: #348abd; stroke-width: 2"/>
    <path d="M 301.930533 91.948514 
L 310.326771 91.948514 
" clip-path="url(#p855f38ee5d)" style="fill: none; stroke: #348abd; stroke-width: 2"/>
    <path d="M 329.917994 77.977497 
L 338.314232 77.977497 
" clip-path="url(#p855f38ee5d)" style="fill: none; stroke: #348abd; stroke-width: 2"/>
    <path d="M 357.905455 68.593619 
L 366.301693 68.593619 
" clip-path="url(#p855f38ee5d)" style="fill: none; stroke: #348abd; stroke-width: 2"/>
    <path d="M 385.892915 48.910403 
L 394.289154 48.910403 
" clip-path="url(#p855f38ee5d)" style="fill: none; stroke: #348abd; stroke-width: 2"/>
   </g>
   <g id="LineCollection_3">
    <path d="M 78.030846 203.099861 
L 86.427085 203.099861 
" clip-path="url(#p855f38ee5d)" style="fill: none; stroke: #348abd; stroke-width: 2"/>
    <path d="M 106.018307 205.871084 
L 114.414545 205.871084 
" clip-path="url(#p855f38ee5d)" style="fill: none; stroke: #348abd; stroke-width: 2"/>
    <path d="M 134.005768 210.956301 
L 142.402006 210.956301 
" clip-path="url(#p855f38ee5d)" style="fill: none; stroke: #348abd; stroke-width: 2"/>
    <path d="M 161.993229 215.906049 
L 170.389467 215.906049 
" clip-path="url(#p855f38ee5d)" style="fill: none; stroke: #348abd; stroke-width: 2"/>
    <path d="M 189.98069 220.723414 
L 198.376928 220.723414 
" clip-path="url(#p855f38ee5d)" style="fill: none; stroke: #348abd; stroke-width: 2"/>
    <path d="M 217.96815 228.651577 
L 226.364389 228.651577 
" clip-path="url(#p855f38ee5d)" style="fill: none; stroke: #348abd; stroke-width: 2"/>
    <path d="M 245.955611 237.511661 
L 254.35185 237.511661 
" clip-path="url(#p855f38ee5d)" style="fill: none; stroke: #348abd; stroke-width: 2"/>
    <path d="M 273.943072 249.799215 
L 282.33931 249.799215 
" clip-path="url(#p855f38ee5d)" style="fill: none; stroke: #348abd; stroke-width: 2"/>
    <path d="M 301.930533 262.911893 
L 310.326771 262.911893 
" clip-path="url(#p855f38ee5d)" style="fill: none; stroke: #348abd; stroke-width: 2"/>
    <path d="M 329.917994 275.213423 
L 338.314232 275.213423 
" clip-path="url(#p855f38ee5d)" style="fill: none; stroke: #348abd; stroke-width: 2"/>
    <path d="M 357.905455 280.115481 
L 366.301693 280.115481 
" clip-path="url(#p855f38ee5d)" style="fill: none; stroke: #348abd; stroke-width: 2"/>
    <path d="M 385.892915 292.233151 
L 394.289154 292.233151 
" clip-path="url(#p855f38ee5d)" style="fill: none; stroke: #348abd; stroke-width: 2"/>
   </g>
   <g id="LineCollection_4">
    <path d="M 82.228966 203.099861 
L 82.228966 151.41436 
" clip-path="url(#p855f38ee5d)" style="fill: none; stroke: #348abd; stroke-width: 2"/>
    <path d="M 110.216426 205.871084 
L 110.216426 149.561365 
" clip-path="url(#p855f38ee5d)" style="fill: none; stroke: #348abd; stroke-width: 2"/>
    <path d="M 138.203887 210.956301 
L 138.203887 144.941738 
" clip-path="url(#p855f38ee5d)" style="fill: none; stroke: #348abd; stroke-width: 2"/>
    <path d="M 166.191348 215.906049 
L 166.191348 137.793474 
" clip-path="url(#p855f38ee5d)" style="fill: none; stroke: #348abd; stroke-width: 2"/>
    <path d="M 194.178809 220.723414 
L 194.178809 131.41815 
" clip-path="url(#p855f38ee5d)" style="fill: none; stroke: #348abd; stroke-width: 2"/>
    <path d="M 222.16627 228.651577 
L 222.16627 125.213552 
" clip-path="url(#p855f38ee5d)" style="fill: none; stroke: #348abd; stroke-width: 2"/>
    <path d="M 250.15373 237.511661 
L 250.15373 117.128744 
" clip-path="url(#p855f38ee5d)" style="fill: none; stroke: #348abd; stroke-width: 2"/>
    <path d="M 278.141191 249.799215 
L 278.141191 104.12435 
" clip-path="url(#p855f38ee5d)" style="fill: none; stroke: #348abd; stroke-width: 2"/>
    <path d="M 306.128652 262.911893 
L 306.128652 91.948514 
" clip-path="url(#p855f38ee5d)" style="fill: none; stroke: #348abd; stroke-width: 2"/>
    <path d="M 334.116113 275.213423 
L 334.116113 77.977497 
" clip-path="url(#p855f38ee5d)" style="fill: none; stroke: #348abd; stroke-width: 2"/>
    <path d="M 362.103574 280.115481 
L 362.103574 68.593619 
" clip-path="url(#p855f38ee5d)" style="fill: none; stroke: #348abd; stroke-width: 2"/>
    <path d="M 390.091034 292.233151 
L 390.091034 48.910403 
" clip-path="url(#p855f38ee5d)" style="fill: none; stroke: #348abd; stroke-width: 2"/>
   </g>
   <g id="patch_3">
    <path d="M 57.6 307.584 
L 57.6 41.472 
" style="fill: none; stroke: #bcbcbc; stroke-width: 0.8; stroke-linejoin: miter; stroke-linecap: square"/>
   </g>
   <g id="patch_4">
    <path d="M 414.72 307.584 
L 414.72 41.472 
" style="fill: none; stroke: #bcbcbc; stroke-width: 0.8; stroke-linejoin: miter; stroke-linecap: square"/>
   </g>
   <g id="patch_5">
    <path d="M 57.6 307.584 
L 414.72 307.584 
" style="fill: none; stroke: #bcbcbc; stroke-width: 0.8; stroke-linejoin: miter; stroke-linecap: square"/>
   </g>
   <g id="patch_6">
    <path d="M 57.6 41.472 
L 414.72 41.472 
" style="fill: none; stroke: #bcbcbc; stroke-width: 0.8; stroke-linejoin: miter; stroke-linecap: square"/>
   </g>
   <g id="text_18">
    <!-- Violin plot of critical time n = 1000 -->
    <g transform="translate(110.370375 35.472) scale(0.144 -0.144)">
     <defs>
      <path id="DejaVuSans-56" d="M 1831 0 
L 50 4666 
L 709 4666 
L 2188 738 
L 3669 4666 
L 4325 4666 
L 2547 0 
L 1831 0 
z
" transform="scale(0.015625)"/>
      <path id="DejaVuSans-69" d="M 603 3500 
L 1178 3500 
L 1178 0 
L 603 0 
L 603 3500 
z
M 603 4863 
L 1178 4863 
L 1178 4134 
L 603 4134 
L 603 4863 
z
" transform="scale(0.015625)"/>
      <path id="DejaVuSans-6f" d="M 1959 3097 
Q 1497 3097 1228 2736 
Q 959 2375 959 1747 
Q 959 1119 1226 758 
Q 1494 397 1959 397 
Q 2419 397 2687 759 
Q 2956 1122 2956 1747 
Q 2956 2369 2687 2733 
Q 2419 3097 1959 3097 
z
M 1959 3584 
Q 2709 3584 3137 3096 
Q 3566 2609 3566 1747 
Q 3566 888 3137 398 
Q 2709 -91 1959 -91 
Q 1206 -91 779 398 
Q 353 888 353 1747 
Q 353 2609 779 3096 
Q 1206 3584 1959 3584 
z
" transform="scale(0.015625)"/>
      <path id="DejaVuSans-6c" d="M 603 4863 
L 1178 4863 
L 1178 0 
L 603 0 
L 603 4863 
z
" transform="scale(0.015625)"/>
      <path id="DejaVuSans-6e" d="M 3513 2113 
L 3513 0 
L 2938 0 
L 2938 2094 
Q 2938 2591 2744 2837 
Q 2550 3084 2163 3084 
Q 1697 3084 1428 2787 
Q 1159 2491 1159 1978 
L 1159 0 
L 581 0 
L 581 3500 
L 1159 3500 
L 1159 2956 
Q 1366 3272 1645 3428 
Q 1925 3584 2291 3584 
Q 2894 3584 3203 3211 
Q 3513 2838 3513 2113 
z
" transform="scale(0.015625)"/>
      <path id="DejaVuSans-20" transform="scale(0.015625)"/>
      <path id="DejaVuSans-70" d="M 1159 525 
L 1159 -1331 
L 581 -1331 
L 581 3500 
L 1159 3500 
L 1159 2969 
Q 1341 3281 1617 3432 
Q 1894 3584 2278 3584 
Q 2916 3584 3314 3078 
Q 3713 2572 3713 1747 
Q 3713 922 3314 415 
Q 2916 -91 2278 -91 
Q 1894 -91 1617 61 
Q 1341 213 1159 525 
z
M 3116 1747 
Q 3116 2381 2855 2742 
Q 2594 3103 2138 3103 
Q 1681 3103 1420 2742 
Q 1159 2381 1159 1747 
Q 1159 1113 1420 752 
Q 1681 391 2138 391 
Q 2594 391 2855 752 
Q 3116 1113 3116 1747 
z
" transform="scale(0.015625)"/>
      <path id="DejaVuSans-74" d="M 1172 4494 
L 1172 3500 
L 2356 3500 
L 2356 3053 
L 1172 3053 
L 1172 1153 
Q 1172 725 1289 603 
Q 1406 481 1766 481 
L 2356 481 
L 2356 0 
L 1766 0 
Q 1100 0 847 248 
Q 594 497 594 1153 
L 594 3053 
L 172 3053 
L 172 3500 
L 594 3500 
L 594 4494 
L 1172 4494 
z
" transform="scale(0.015625)"/>
      <path id="DejaVuSans-66" d="M 2375 4863 
L 2375 4384 
L 1825 4384 
Q 1516 4384 1395 4259 
Q 1275 4134 1275 3809 
L 1275 3500 
L 2222 3500 
L 2222 3053 
L 1275 3053 
L 1275 0 
L 697 0 
L 697 3053 
L 147 3053 
L 147 3500 
L 697 3500 
L 697 3744 
Q 697 4328 969 4595 
Q 1241 4863 1831 4863 
L 2375 4863 
z
" transform="scale(0.015625)"/>
      <path id="DejaVuSans-63" d="M 3122 3366 
L 3122 2828 
Q 2878 2963 2633 3030 
Q 2388 3097 2138 3097 
Q 1578 3097 1268 2742 
Q 959 2388 959 1747 
Q 959 1106 1268 751 
Q 1578 397 2138 397 
Q 2388 397 2633 464 
Q 2878 531 3122 666 
L 3122 134 
Q 2881 22 2623 -34 
Q 2366 -91 2075 -91 
Q 1284 -91 818 406 
Q 353 903 353 1747 
Q 353 2603 823 3093 
Q 1294 3584 2113 3584 
Q 2378 3584 2631 3529 
Q 2884 3475 3122 3366 
z
" transform="scale(0.015625)"/>
      <path id="DejaVuSans-72" d="M 2631 2963 
Q 2534 3019 2420 3045 
Q 2306 3072 2169 3072 
Q 1681 3072 1420 2755 
Q 1159 2438 1159 1844 
L 1159 0 
L 581 0 
L 581 3500 
L 1159 3500 
L 1159 2956 
Q 1341 3275 1631 3429 
Q 1922 3584 2338 3584 
Q 2397 3584 2469 3576 
Q 2541 3569 2628 3553 
L 2631 2963 
z
" transform="scale(0.015625)"/>
      <path id="DejaVuSans-61" d="M 2194 1759 
Q 1497 1759 1228 1600 
Q 959 1441 959 1056 
Q 959 750 1161 570 
Q 1363 391 1709 391 
Q 2188 391 2477 730 
Q 2766 1069 2766 1631 
L 2766 1759 
L 2194 1759 
z
M 3341 1997 
L 3341 0 
L 2766 0 
L 2766 531 
Q 2569 213 2275 61 
Q 1981 -91 1556 -91 
Q 1019 -91 701 211 
Q 384 513 384 1019 
Q 384 1609 779 1909 
Q 1175 2209 1959 2209 
L 2766 2209 
L 2766 2266 
Q 2766 2663 2505 2880 
Q 2244 3097 1772 3097 
Q 1472 3097 1187 3025 
Q 903 2953 641 2809 
L 641 3341 
Q 956 3463 1253 3523 
Q 1550 3584 1831 3584 
Q 2591 3584 2966 3190 
Q 3341 2797 3341 1997 
z
" transform="scale(0.015625)"/>
      <path id="DejaVuSans-6d" d="M 3328 2828 
Q 3544 3216 3844 3400 
Q 4144 3584 4550 3584 
Q 5097 3584 5394 3201 
Q 5691 2819 5691 2113 
L 5691 0 
L 5113 0 
L 5113 2094 
Q 5113 2597 4934 2840 
Q 4756 3084 4391 3084 
Q 3944 3084 3684 2787 
Q 3425 2491 3425 1978 
L 3425 0 
L 2847 0 
L 2847 2094 
Q 2847 2600 2669 2842 
Q 2491 3084 2119 3084 
Q 1678 3084 1418 2786 
Q 1159 2488 1159 1978 
L 1159 0 
L 581 0 
L 581 3500 
L 1159 3500 
L 1159 2956 
Q 1356 3278 1631 3431 
Q 1906 3584 2284 3584 
Q 2666 3584 2933 3390 
Q 3200 3197 3328 2828 
z
" transform="scale(0.015625)"/>
      <path id="DejaVuSans-65" d="M 3597 1894 
L 3597 1613 
L 953 1613 
Q 991 1019 1311 708 
Q 1631 397 2203 397 
Q 2534 397 2845 478 
Q 3156 559 3463 722 
L 3463 178 
Q 3153 47 2828 -22 
Q 2503 -91 2169 -91 
Q 1331 -91 842 396 
Q 353 884 353 1716 
Q 353 2575 817 3079 
Q 1281 3584 2069 3584 
Q 2775 3584 3186 3129 
Q 3597 2675 3597 1894 
z
M 3022 2063 
Q 3016 2534 2758 2815 
Q 2500 3097 2075 3097 
Q 1594 3097 1305 2825 
Q 1016 2553 972 2059 
L 3022 2063 
z
" transform="scale(0.015625)"/>
      <path id="DejaVuSans-3d" d="M 678 2906 
L 4684 2906 
L 4684 2381 
L 678 2381 
L 678 2906 
z
M 678 1631 
L 4684 1631 
L 4684 1100 
L 678 1100 
L 678 1631 
z
" transform="scale(0.015625)"/>
     </defs>
     <use xlink:href="#DejaVuSans-56"/>
     <use xlink:href="#DejaVuSans-69" x="66.158203"/>
     <use xlink:href="#DejaVuSans-6f" x="93.941406"/>
     <use xlink:href="#DejaVuSans-6c" x="155.123047"/>
     <use xlink:href="#DejaVuSans-69" x="182.90625"/>
     <use xlink:href="#DejaVuSans-6e" x="210.689453"/>
     <use xlink:href="#DejaVuSans-20" x="274.068359"/>
     <use xlink:href="#DejaVuSans-70" x="305.855469"/>
     <use xlink:href="#DejaVuSans-6c" x="369.332031"/>
     <use xlink:href="#DejaVuSans-6f" x="397.115234"/>
     <use xlink:href="#DejaVuSans-74" x="458.296875"/>
     <use xlink:href="#DejaVuSans-20" x="497.505859"/>
     <use xlink:href="#DejaVuSans-6f" x="529.292969"/>
     <use xlink:href="#DejaVuSans-66" x="590.474609"/>
     <use xlink:href="#DejaVuSans-20" x="625.679688"/>
     <use xlink:href="#DejaVuSans-63" x="657.466797"/>
     <use xlink:href="#DejaVuSans-72" x="712.447266"/>
     <use xlink:href="#DejaVuSans-69" x="753.560547"/>
     <use xlink:href="#DejaVuSans-74" x="781.34375"/>
     <use xlink:href="#DejaVuSans-69" x="820.552734"/>
     <use xlink:href="#DejaVuSans-63" x="848.335938"/>
     <use xlink:href="#DejaVuSans-61" x="903.316406"/>
     <use xlink:href="#DejaVuSans-6c" x="964.595703"/>
     <use xlink:href="#DejaVuSans-20" x="992.378906"/>
     <use xlink:href="#DejaVuSans-74" x="1024.166016"/>
     <use xlink:href="#DejaVuSans-69" x="1063.375"/>
     <use xlink:href="#DejaVuSans-6d" x="1091.158203"/>
     <use xlink:href="#DejaVuSans-65" x="1188.570312"/>
     <use xlink:href="#DejaVuSans-20" x="1250.09375"/>
     <use xlink:href="#DejaVuSans-6e" x="1281.880859"/>
     <use xlink:href="#DejaVuSans-20" x="1345.259766"/>
     <use xlink:href="#DejaVuSans-3d" x="1377.046875"/>
     <use xlink:href="#DejaVuSans-20" x="1460.835938"/>
     <use xlink:href="#DejaVuSans-31" x="1492.623047"/>
     <use xlink:href="#DejaVuSans-30" x="1556.246094"/>
     <use xlink:href="#DejaVuSans-30" x="1619.869141"/>
     <use xlink:href="#DejaVuSans-30" x="1683.492188"/>
    </g>
   </g>
   <g id="legend_1">
    <g id="patch_7">
     <path d="M 66 68.68575 
L 175.513125 68.68575 
Q 177.913125 68.68575 177.913125 66.28575 
L 177.913125 49.872 
Q 177.913125 47.472 175.513125 47.472 
L 66 47.472 
Q 63.6 47.472 63.6 49.872 
L 63.6 66.28575 
Q 63.6 68.68575 66 68.68575 
z
" style="fill: #eeeeee; opacity: 0.8; stroke: #cccccc; stroke-width: 0.5; stroke-linejoin: miter"/>
    </g>
    <g id="line2d_31">
     <path d="M 68.4 57.190125 
L 92.4 57.190125 
" style="fill: none; stroke-dasharray: 7.4,3.2; stroke-dashoffset: 0; stroke: #ff0000; stroke-width: 2"/>
    </g>
    <g id="text_19">
     <!-- critical time -->
     <g transform="translate(102 61.390125) scale(0.12 -0.12)">
      <use xlink:href="#DejaVuSans-63"/>
      <use xlink:href="#DejaVuSans-72" x="54.980469"/>
      <use xlink:href="#DejaVuSans-69" x="96.09375"/>
      <use xlink:href="#DejaVuSans-74" x="123.876953"/>
      <use xlink:href="#DejaVuSans-69" x="163.085938"/>
      <use xlink:href="#DejaVuSans-63" x="190.869141"/>
      <use xlink:href="#DejaVuSans-61" x="245.849609"/>
      <use xlink:href="#DejaVuSans-6c" x="307.128906"/>
      <use xlink:href="#DejaVuSans-20" x="334.912109"/>
      <use xlink:href="#DejaVuSans-74" x="366.699219"/>
      <use xlink:href="#DejaVuSans-69" x="405.908203"/>
      <use xlink:href="#DejaVuSans-6d" x="433.691406"/>
      <use xlink:href="#DejaVuSans-65" x="531.103516"/>
     </g>
    </g>
   </g>
  </g>
 </g>
 <defs>
  <clipPath id="p855f38ee5d">
   <rect x="57.6" y="41.472" width="357.12" height="266.112"/>
  </clipPath>
 </defs>
</svg>
