<?xml version="1.0" encoding="utf-8" standalone="no"?>
<!DOCTYPE svg PUBLIC "-//W3C//DTD SVG 1.1//EN"
  "http://www.w3.org/Graphics/SVG/1.1/DTD/svg11.dtd">
<svg xmlns:xlink="http://www.w3.org/1999/xlink" width="460.8pt" height="345.6pt" viewBox="0 0 460.8 345.6" xmlns="http://www.w3.org/2000/svg" version="1.1">
 <metadata>
  <rdf:RDF xmlns:dc="http://purl.org/dc/elements/1.1/" xmlns:cc="http://creativecommons.org/ns#" xmlns:rdf="http://www.w3.org/1999/02/22-rdf-syntax-ns#">
   <cc:Work>
    <dc:type rdf:resource="http://purl.org/dc/dcmitype/StillImage"/>
    <dc:date>2025-08-11T12:07:01.499226</dc:date>
    <dc:format>image/svg+xml</dc:format>
    <dc:creator>
     <cc:Agent>
      <dc:title>Matplotlib v3.9.2, https://matplotlib.org/</dc:title>
     </cc:Agent>
    </dc:creator>
   </cc:Work>
  </rdf:RDF>
 </metadata>
 <defs>
  <style type="text/css">*{stroke-linejoin: round; stroke-linecap: butt}</style>
 </defs>
 <g id="figure_1">
  <g id="patch_1">
   <path d="M 0 345.6 
L 460.8 345.6 
L 460.8 0 
L 0 0 
z
" style="fill: #ffffff"/>
  </g>
  <g id="axes_1">
   <g id="patch_2">
    <path d="M 57.6 307.584 
L 414.72 307.584 
L 414.72 41.472 
L 57.6 41.472 
z
" style="fill: #eeeeee"/>
   </g>
   <g id="PolyCollection_1">
    <path d="M 82.236335 202.005943 
L 82.221596 202.005943 
L 82.220507 201.476857 
L 82.220096 200.947771 
L 82.219818 200.418685 
L 82.218682 199.889599 
L 82.215682 199.360514 
L 82.210641 198.831428 
L 82.204541 198.302342 
L 82.198565 197.773256 
L 82.19282 197.24417 
L 82.1863 196.715084 
L 82.178062 196.185999 
L 82.168123 195.656913 
L 82.157231 195.127827 
L 82.145982 194.598741 
L 82.133913 194.069655 
L 82.118832 193.540569 
L 82.096536 193.011484 
L 82.061365 192.482398 
L 82.00767 191.953312 
L 81.931676 191.424226 
L 81.832803 190.89514 
L 81.713679 190.366054 
L 81.578548 189.836968 
L 81.430502 189.307883 
L 81.269811 188.778797 
L 81.096053 188.249711 
L 80.911613 187.720625 
L 80.72005 187.191539 
L 80.519317 186.662453 
L 80.298341 186.133368 
L 80.042737 185.604282 
L 79.745163 185.075196 
L 79.411271 184.54611 
L 79.057576 184.017024 
L 78.703446 183.487938 
L 78.359406 182.958852 
L 78.015019 182.429767 
L 77.637989 181.900681 
L 77.199227 181.371595 
L 76.713531 180.842509 
L 76.249758 180.313423 
L 75.883126 179.784337 
L 75.633231 179.255252 
L 75.453243 178.726166 
L 75.274236 178.19708 
L 75.054266 177.667994 
L 74.793216 177.138908 
L 74.515381 176.609822 
L 74.248518 176.080737 
L 74.021732 175.551651 
L 73.871812 175.022565 
L 73.832727 174.493479 
L 73.910539 173.964393 
L 74.074307 173.435307 
L 74.278994 172.906221 
L 74.497992 172.377136 
L 74.733335 171.84805 
L 75.000486 171.318964 
L 75.307804 170.789878 
L 75.646785 170.260792 
L 75.998607 169.731706 
L 76.350049 169.202621 
L 76.699831 168.673535 
L 77.049421 168.144449 
L 77.395056 167.615363 
L 77.731501 167.086277 
L 78.059552 166.557191 
L 78.38765 166.028105 
L 78.725134 165.49902 
L 79.073058 164.969934 
L 79.423125 164.440848 
L 79.763899 163.911762 
L 80.081655 163.382676 
L 80.357681 162.85359 
L 80.577579 162.324505 
L 80.747732 161.795419 
L 80.895032 161.266333 
L 81.046103 160.737247 
L 81.209308 160.208161 
L 81.376478 159.679075 
L 81.53609 159.14999 
L 81.681354 158.620904 
L 81.809136 158.091818 
L 81.916399 157.562732 
L 81.999813 157.033646 
L 82.05836 156.50456 
L 82.09525 155.975474 
L 82.116827 155.446389 
L 82.129817 154.917303 
L 82.13948 154.388217 
L 82.149252 153.859131 
L 82.160751 153.330045 
L 82.173561 152.800959 
L 82.185575 152.271874 
L 82.194644 151.742788 
L 82.200433 151.213702 
L 82.204572 150.684616 
L 82.208959 150.15553 
L 82.214174 149.626444 
L 82.243757 149.626444 
L 82.243757 149.626444 
L 82.248972 150.15553 
L 82.253359 150.684616 
L 82.257498 151.213702 
L 82.263287 151.742788 
L 82.272356 152.271874 
L 82.28437 152.800959 
L 82.29718 153.330045 
L 82.308679 153.859131 
L 82.318452 154.388217 
L 82.328114 154.917303 
L 82.341104 155.446389 
L 82.362681 155.975474 
L 82.399571 156.50456 
L 82.458118 157.033646 
L 82.541533 157.562732 
L 82.648795 158.091818 
L 82.776577 158.620904 
L 82.921841 159.14999 
L 83.081453 159.679075 
L 83.248623 160.208161 
L 83.411828 160.737247 
L 83.562899 161.266333 
L 83.710199 161.795419 
L 83.880352 162.324505 
L 84.100251 162.85359 
L 84.376276 163.382676 
L 84.694032 163.911762 
L 85.034806 164.440848 
L 85.384873 164.969934 
L 85.732797 165.49902 
L 86.070281 166.028105 
L 86.398379 166.557191 
L 86.72643 167.086277 
L 87.062875 167.615363 
L 87.40851 168.144449 
L 87.7581 168.673535 
L 88.107882 169.202621 
L 88.459324 169.731706 
L 88.811146 170.260792 
L 89.150127 170.789878 
L 89.457445 171.318964 
L 89.724596 171.84805 
L 89.959939 172.377136 
L 90.178937 172.906221 
L 90.383624 173.435307 
L 90.547392 173.964393 
L 90.625204 174.493479 
L 90.586119 175.022565 
L 90.436199 175.551651 
L 90.209414 176.080737 
L 89.94255 176.609822 
L 89.664715 177.138908 
L 89.403665 177.667994 
L 89.183695 178.19708 
L 89.004688 178.726166 
L 88.8247 179.255252 
L 88.574805 179.784337 
L 88.208173 180.313423 
L 87.7444 180.842509 
L 87.258704 181.371595 
L 86.819942 181.900681 
L 86.442912 182.429767 
L 86.098525 182.958852 
L 85.754485 183.487938 
L 85.400355 184.017024 
L 85.04666 184.54611 
L 84.712769 185.075196 
L 84.415194 185.604282 
L 84.15959 186.133368 
L 83.938614 186.662453 
L 83.737881 187.191539 
L 83.546318 187.720625 
L 83.361878 188.249711 
L 83.188121 188.778797 
L 83.027429 189.307883 
L 82.879383 189.836968 
L 82.744252 190.366054 
L 82.625128 190.89514 
L 82.526255 191.424226 
L 82.450261 191.953312 
L 82.396566 192.482398 
L 82.361395 193.011484 
L 82.339099 193.540569 
L 82.324018 194.069655 
L 82.311949 194.598741 
L 82.3007 195.127827 
L 82.289808 195.656913 
L 82.279869 196.185999 
L 82.271631 196.715084 
L 82.265111 197.24417 
L 82.259366 197.773256 
L 82.25339 198.302342 
L 82.24729 198.831428 
L 82.242249 199.360514 
L 82.239249 199.889599 
L 82.238113 200.418685 
L 82.237835 200.947771 
L 82.237424 201.476857 
L 82.236335 202.005943 
z
" clip-path="url(#p0c27a81415)" style="fill: #348abd; fill-opacity: 0.3"/>
   </g>
   <g id="PolyCollection_2">
    <path d="M 110.22294 205.701597 
L 110.209913 205.701597 
L 110.20867 205.10874 
L 110.206902 204.515882 
L 110.204204 203.923025 
L 110.201021 203.330167 
L 110.19819 202.737309 
L 110.195857 202.144452 
L 110.193152 201.551594 
L 110.18899 200.958737 
L 110.182903 200.365879 
L 110.175015 199.773021 
L 110.165643 199.180164 
L 110.155133 198.587306 
L 110.143669 197.994449 
L 110.130874 197.401591 
L 110.115613 196.808734 
L 110.096096 196.215876 
L 110.069701 195.623018 
L 110.03257 195.030161 
L 109.979818 194.437303 
L 109.906511 193.844446 
L 109.808965 193.251588 
L 109.68615 192.65873 
L 109.540457 192.065873 
L 109.376472 191.473015 
L 109.197884 190.880158 
L 109.004401 190.2873 
L 108.790976 189.694442 
L 108.551041 189.101585 
L 108.282447 188.508727 
L 107.990331 187.91587 
L 107.681962 187.323012 
L 107.357232 186.730155 
L 107.005759 186.137297 
L 106.616057 185.544439 
L 106.187336 184.951582 
L 105.729656 184.358724 
L 105.253357 183.765867 
L 104.764421 183.173009 
L 104.274436 182.580151 
L 103.811336 181.987294 
L 103.411449 181.394436 
L 103.095819 180.801579 
L 102.857953 180.208721 
L 102.681798 179.615864 
L 102.574187 179.023006 
L 102.579117 178.430148 
L 102.759419 177.837291 
L 103.155724 177.244433 
L 103.743458 176.651576 
L 104.413301 176.058718 
L 104.995413 175.46586 
L 105.321349 174.873003 
L 105.289538 174.280145 
L 104.901123 173.687288 
L 104.25514 173.09443 
L 103.50865 172.501573 
L 102.817615 171.908715 
L 102.286732 171.315857 
L 101.955457 170.723 
L 101.820188 170.130142 
L 101.863771 169.537285 
L 102.06694 168.944427 
L 102.403961 168.351569 
L 102.839642 167.758712 
L 103.334785 167.165854 
L 103.854465 166.572997 
L 104.373648 165.980139 
L 104.87883 165.387281 
L 105.365688 164.794424 
L 105.835231 164.201566 
L 106.291072 163.608709 
L 106.735194 163.015851 
L 107.161222 162.422994 
L 107.553975 161.830136 
L 107.900962 161.237278 
L 108.204057 160.644421 
L 108.476538 160.051563 
L 108.72986 159.458706 
L 108.966147 158.865848 
L 109.181164 158.27299 
L 109.370109 157.680133 
L 109.530633 157.087275 
L 109.663246 156.494418 
L 109.770529 155.90156 
L 109.856765 155.308703 
L 109.928168 154.715845 
L 109.990961 154.122987 
L 110.047235 153.53013 
L 110.093773 152.937272 
L 110.126369 152.344415 
L 110.144629 151.751557 
L 110.152325 151.158699 
L 110.154676 150.565842 
L 110.156116 149.972984 
L 110.159365 149.380127 
L 110.165163 148.787269 
L 110.172829 148.194412 
L 110.181406 147.601554 
L 110.190252 147.008696 
L 110.2426 147.008696 
L 110.2426 147.008696 
L 110.251447 147.601554 
L 110.260023 148.194412 
L 110.26769 148.787269 
L 110.273487 149.380127 
L 110.276736 149.972984 
L 110.278177 150.565842 
L 110.280527 151.158699 
L 110.288224 151.751557 
L 110.306484 152.344415 
L 110.339079 152.937272 
L 110.385618 153.53013 
L 110.441892 154.122987 
L 110.504685 154.715845 
L 110.576087 155.308703 
L 110.662324 155.90156 
L 110.769606 156.494418 
L 110.90222 157.087275 
L 111.062744 157.680133 
L 111.251689 158.27299 
L 111.466705 158.865848 
L 111.702993 159.458706 
L 111.956315 160.051563 
L 112.228796 160.644421 
L 112.531891 161.237278 
L 112.878878 161.830136 
L 113.271631 162.422994 
L 113.697659 163.015851 
L 114.141781 163.608709 
L 114.597622 164.201566 
L 115.067165 164.794424 
L 115.554022 165.387281 
L 116.059204 165.980139 
L 116.578388 166.572997 
L 117.098067 167.165854 
L 117.59321 167.758712 
L 118.028892 168.351569 
L 118.365913 168.944427 
L 118.569081 169.537285 
L 118.612665 170.130142 
L 118.477396 170.723 
L 118.146121 171.315857 
L 117.615238 171.908715 
L 116.924203 172.501573 
L 116.177712 173.09443 
L 115.53173 173.687288 
L 115.143314 174.280145 
L 115.111503 174.873003 
L 115.437439 175.46586 
L 116.019552 176.058718 
L 116.689394 176.651576 
L 117.277129 177.244433 
L 117.673434 177.837291 
L 117.853735 178.430148 
L 117.858666 179.023006 
L 117.751055 179.615864 
L 117.5749 180.208721 
L 117.337033 180.801579 
L 117.021403 181.394436 
L 116.621517 181.987294 
L 116.158417 182.580151 
L 115.668431 183.173009 
L 115.179495 183.765867 
L 114.703197 184.358724 
L 114.245516 184.951582 
L 113.816796 185.544439 
L 113.427093 186.137297 
L 113.07562 186.730155 
L 112.750891 187.323012 
L 112.442522 187.91587 
L 112.150406 188.508727 
L 111.881812 189.101585 
L 111.641877 189.694442 
L 111.428452 190.2873 
L 111.234969 190.880158 
L 111.056381 191.473015 
L 110.892396 192.065873 
L 110.746703 192.65873 
L 110.623888 193.251588 
L 110.526342 193.844446 
L 110.453035 194.437303 
L 110.400283 195.030161 
L 110.363152 195.623018 
L 110.336756 196.215876 
L 110.31724 196.808734 
L 110.301978 197.401591 
L 110.289183 197.994449 
L 110.27772 198.587306 
L 110.267209 199.180164 
L 110.257838 199.773021 
L 110.24995 200.365879 
L 110.243862 200.958737 
L 110.239701 201.551594 
L 110.236995 202.144452 
L 110.234663 202.737309 
L 110.231831 203.330167 
L 110.228648 203.923025 
L 110.225951 204.515882 
L 110.224183 205.10874 
L 110.22294 205.701597 
z
" clip-path="url(#p0c27a81415)" style="fill: #348abd; fill-opacity: 0.3"/>
   </g>
   <g id="PolyCollection_3">
    <path d="M 138.210536 210.595237 
L 138.197238 210.595237 
L 138.196131 209.901286 
L 138.195189 209.207335 
L 138.193885 208.513384 
L 138.191469 207.819434 
L 138.187356 207.125483 
L 138.181571 206.431532 
L 138.174847 205.737582 
L 138.168075 205.043631 
L 138.161424 204.34968 
L 138.15388 203.655729 
L 138.143626 202.961779 
L 138.128948 202.267828 
L 138.108939 201.573877 
L 138.083431 200.879927 
L 138.052274 200.185976 
L 138.014599 199.492025 
L 137.968596 198.798074 
L 137.911574 198.104124 
L 137.839658 197.410173 
L 137.747341 196.716222 
L 137.628044 196.022272 
L 137.476287 195.328321 
L 137.290241 194.63437 
L 137.072578 193.94042 
L 136.828867 193.246469 
L 136.564695 192.552518 
L 136.283149 191.858567 
L 135.983682 191.164617 
L 135.662909 190.470666 
L 135.317007 189.776715 
L 134.944237 189.082765 
L 134.546278 188.388814 
L 134.128104 187.694863 
L 133.697124 187.000912 
L 133.262819 186.306962 
L 132.837702 185.613011 
L 132.438123 184.91906 
L 132.082106 184.22511 
L 131.784305 183.531159 
L 131.553007 182.837208 
L 131.394391 182.143257 
L 131.322997 181.449307 
L 131.369369 180.755356 
L 131.574474 180.061405 
L 131.969581 179.367455 
L 132.553432 178.673504 
L 133.282061 177.979553 
L 134.076476 177.285602 
L 134.841099 176.591652 
L 135.482728 175.897701 
L 135.924287 175.20375 
L 136.112658 174.5098 
L 136.022256 173.815849 
L 135.65614 173.121898 
L 135.045471 172.427948 
L 134.247154 171.733997 
L 133.33853 171.040046 
L 132.407601 170.346095 
L 131.539719 169.652145 
L 130.805639 168.958194 
L 130.255726 168.264243 
L 129.919728 167.570293 
L 129.807649 166.876342 
L 129.909792 166.182391 
L 130.198703 165.48844 
L 130.635529 164.79449 
L 131.178573 164.100539 
L 131.789339 163.406588 
L 132.434498 162.712638 
L 133.085992 162.018687 
L 133.721116 161.324736 
L 134.322075 160.630785 
L 134.874745 159.936835 
L 135.368156 159.242884 
L 135.795919 158.548933 
L 136.158104 157.854983 
L 136.461246 157.161032 
L 136.716328 156.467081 
L 136.935978 155.773131 
L 137.131222 155.07918 
L 137.308124 154.385229 
L 137.466564 153.691278 
L 137.603139 152.997328 
L 137.716237 152.303377 
L 137.808742 151.609426 
L 137.886266 150.915476 
L 137.953304 150.221525 
L 138.011028 149.527574 
L 138.058041 148.833623 
L 138.092755 148.139673 
L 138.115434 147.445722 
L 138.128682 146.751771 
L 138.136381 146.057821 
L 138.142082 145.36387 
L 138.14809 144.669919 
L 138.155452 143.975968 
L 138.164247 143.282018 
L 138.173799 142.588067 
L 138.182977 141.894116 
L 138.224798 141.894116 
L 138.224798 141.894116 
L 138.233975 142.588067 
L 138.243527 143.282018 
L 138.252323 143.975968 
L 138.259684 144.669919 
L 138.265692 145.36387 
L 138.271393 146.057821 
L 138.279092 146.751771 
L 138.292341 147.445722 
L 138.315019 148.139673 
L 138.349734 148.833623 
L 138.396746 149.527574 
L 138.45447 150.221525 
L 138.521508 150.915476 
L 138.599032 151.609426 
L 138.691537 152.303377 
L 138.804635 152.997328 
L 138.94121 153.691278 
L 139.09965 154.385229 
L 139.276552 155.07918 
L 139.471796 155.773131 
L 139.691447 156.467081 
L 139.946529 157.161032 
L 140.249671 157.854983 
L 140.611855 158.548933 
L 141.039618 159.242884 
L 141.533029 159.936835 
L 142.085699 160.630785 
L 142.686659 161.324736 
L 143.321782 162.018687 
L 143.973277 162.712638 
L 144.618435 163.406588 
L 145.229201 164.100539 
L 145.772245 164.79449 
L 146.209071 165.48844 
L 146.497982 166.182391 
L 146.600125 166.876342 
L 146.488046 167.570293 
L 146.152048 168.264243 
L 145.602136 168.958194 
L 144.868055 169.652145 
L 144.000173 170.346095 
L 143.069244 171.040046 
L 142.160621 171.733997 
L 141.362304 172.427948 
L 140.751634 173.121898 
L 140.385518 173.815849 
L 140.295116 174.5098 
L 140.483487 175.20375 
L 140.925047 175.897701 
L 141.566675 176.591652 
L 142.331298 177.285602 
L 143.125713 177.979553 
L 143.854342 178.673504 
L 144.438193 179.367455 
L 144.8333 180.061405 
L 145.038405 180.755356 
L 145.084778 181.449307 
L 145.013383 182.143257 
L 144.854768 182.837208 
L 144.623469 183.531159 
L 144.325668 184.22511 
L 143.969651 184.91906 
L 143.570072 185.613011 
L 143.144955 186.306962 
L 142.710651 187.000912 
L 142.27967 187.694863 
L 141.861496 188.388814 
L 141.463537 189.082765 
L 141.090768 189.776715 
L 140.744865 190.470666 
L 140.424093 191.164617 
L 140.124625 191.858567 
L 139.843079 192.552518 
L 139.578908 193.246469 
L 139.335196 193.94042 
L 139.117533 194.63437 
L 138.931487 195.328321 
L 138.77973 196.022272 
L 138.660433 196.716222 
L 138.568117 197.410173 
L 138.4962 198.104124 
L 138.439178 198.798074 
L 138.393176 199.492025 
L 138.3555 200.185976 
L 138.324343 200.879927 
L 138.298836 201.573877 
L 138.278826 202.267828 
L 138.264148 202.961779 
L 138.253894 203.655729 
L 138.246351 204.34968 
L 138.239699 205.043631 
L 138.232927 205.737582 
L 138.226203 206.431532 
L 138.220418 207.125483 
L 138.216305 207.819434 
L 138.213889 208.513384 
L 138.212585 209.207335 
L 138.211643 209.901286 
L 138.210536 210.595237 
z
" clip-path="url(#p0c27a81415)" style="fill: #348abd; fill-opacity: 0.3"/>
   </g>
   <g id="PolyCollection_4">
    <path d="M 166.200412 216.274205 
L 166.182284 216.274205 
L 166.18062 215.458408 
L 166.178983 214.642611 
L 166.176786 213.826814 
L 166.173157 213.011017 
L 166.16708 212.19522 
L 166.157636 211.379423 
L 166.144376 210.563626 
L 166.127631 209.747829 
L 166.108416 208.932033 
L 166.087754 208.116236 
L 166.065745 207.300439 
L 166.040973 206.484642 
L 166.010652 205.668845 
L 165.971379 204.853048 
L 165.920033 204.037251 
L 165.854294 203.221454 
L 165.772524 202.405657 
L 165.673077 201.58986 
L 165.553442 200.774063 
L 165.409852 199.958266 
L 165.237792 199.142469 
L 165.033159 198.326672 
L 164.793206 197.510875 
L 164.516751 196.695078 
L 164.204297 195.879281 
L 163.858898 195.063484 
L 163.486946 194.247687 
L 163.096892 193.43189 
L 162.695854 192.616093 
L 162.287388 191.800296 
L 161.87355 190.984499 
L 161.459881 190.168702 
L 161.05829 189.352905 
L 160.684872 188.537108 
L 160.355255 187.721311 
L 160.082543 186.905514 
L 159.879911 186.089717 
L 159.764864 185.27392 
L 159.760236 184.458123 
L 159.88934 183.642326 
L 160.166989 182.826529 
L 160.591139 182.010732 
L 161.139704 181.194935 
L 161.773976 180.379138 
L 162.446473 179.563341 
L 163.109358 178.747544 
L 163.720483 177.931747 
L 164.24624 177.11595 
L 164.661963 176.300153 
L 164.95101 175.484356 
L 165.103078 174.668559 
L 165.111952 173.852762 
L 164.973113 173.036965 
L 164.68228 172.221168 
L 164.23631 171.405371 
L 163.637014 170.589574 
L 162.896683 169.773777 
L 162.042771 168.95798 
L 161.119746 168.142183 
L 160.187797 167.326386 
L 159.318679 166.510589 
L 158.588136 165.694792 
L 158.06443 164.878995 
L 157.79511 164.063198 
L 157.796683 163.247401 
L 158.051401 162.431604 
L 158.512272 161.615807 
L 159.114563 160.80001 
L 159.790447 159.984213 
L 160.482568 159.168416 
L 161.152293 158.352619 
L 161.780289 157.536822 
L 162.360583 156.721025 
L 162.892285 155.905228 
L 163.373815 155.089431 
L 163.802011 154.273634 
L 164.174796 153.457837 
L 164.493896 152.64204 
L 164.765006 151.826243 
L 164.995473 151.010446 
L 165.19158 150.194649 
L 165.357446 149.378852 
L 165.495967 148.563055 
L 165.610516 147.747258 
L 165.705741 146.931461 
L 165.78686 146.115664 
L 165.858203 145.299867 
L 165.922183 144.48407 
L 165.979265 143.668273 
L 166.028702 142.852476 
L 166.069533 142.036679 
L 166.101395 141.220882 
L 166.124878 140.405085 
L 166.14138 139.589288 
L 166.152662 138.773491 
L 166.160428 137.957694 
L 166.16611 137.141897 
L 166.170783 136.3261 
L 166.175109 135.510303 
L 166.207587 135.510303 
L 166.207587 135.510303 
L 166.211912 136.3261 
L 166.216586 137.141897 
L 166.222267 137.957694 
L 166.230034 138.773491 
L 166.241316 139.589288 
L 166.257818 140.405085 
L 166.281301 141.220882 
L 166.313163 142.036679 
L 166.353994 142.852476 
L 166.403431 143.668273 
L 166.460513 144.48407 
L 166.524493 145.299867 
L 166.595835 146.115664 
L 166.676955 146.931461 
L 166.77218 147.747258 
L 166.886729 148.563055 
L 167.02525 149.378852 
L 167.191116 150.194649 
L 167.387223 151.010446 
L 167.61769 151.826243 
L 167.8888 152.64204 
L 168.2079 153.457837 
L 168.580684 154.273634 
L 169.008881 155.089431 
L 169.490411 155.905228 
L 170.022113 156.721025 
L 170.602407 157.536822 
L 171.230403 158.352619 
L 171.900128 159.168416 
L 172.592249 159.984213 
L 173.268133 160.80001 
L 173.870424 161.615807 
L 174.331295 162.431604 
L 174.586013 163.247401 
L 174.587586 164.063198 
L 174.318266 164.878995 
L 173.79456 165.694792 
L 173.064017 166.510589 
L 172.194899 167.326386 
L 171.26295 168.142183 
L 170.339925 168.95798 
L 169.486013 169.773777 
L 168.745682 170.589574 
L 168.146386 171.405371 
L 167.700416 172.221168 
L 167.409583 173.036965 
L 167.270743 173.852762 
L 167.279618 174.668559 
L 167.431686 175.484356 
L 167.720733 176.300153 
L 168.136456 177.11595 
L 168.662212 177.931747 
L 169.273338 178.747544 
L 169.936223 179.563341 
L 170.60872 180.379138 
L 171.242992 181.194935 
L 171.791557 182.010732 
L 172.215707 182.826529 
L 172.493356 183.642326 
L 172.62246 184.458123 
L 172.617832 185.27392 
L 172.502785 186.089717 
L 172.300153 186.905514 
L 172.027441 187.721311 
L 171.697824 188.537108 
L 171.324406 189.352905 
L 170.922815 190.168702 
L 170.509146 190.984499 
L 170.095308 191.800296 
L 169.686842 192.616093 
L 169.285804 193.43189 
L 168.89575 194.247687 
L 168.523798 195.063484 
L 168.178399 195.879281 
L 167.865945 196.695078 
L 167.58949 197.510875 
L 167.349537 198.326672 
L 167.144904 199.142469 
L 166.972844 199.958266 
L 166.829254 200.774063 
L 166.709619 201.58986 
L 166.610172 202.405657 
L 166.528402 203.221454 
L 166.462663 204.037251 
L 166.411317 204.853048 
L 166.372044 205.668845 
L 166.341723 206.484642 
L 166.316951 207.300439 
L 166.294942 208.116236 
L 166.27428 208.932033 
L 166.255065 209.747829 
L 166.23832 210.563626 
L 166.22506 211.379423 
L 166.215616 212.19522 
L 166.209539 213.011017 
L 166.205909 213.826814 
L 166.203713 214.642611 
L 166.202076 215.458408 
L 166.200412 216.274205 
z
" clip-path="url(#p0c27a81415)" style="fill: #348abd; fill-opacity: 0.3"/>
   </g>
   <g id="PolyCollection_5">
    <path d="M 194.191948 224.030854 
L 194.16567 224.030854 
L 194.163016 223.083948 
L 194.159916 222.137041 
L 194.1556 221.190135 
L 194.14918 220.243228 
L 194.139912 219.296321 
L 194.127396 218.349415 
L 194.111622 217.402508 
L 194.092849 216.455602 
L 194.071277 215.508695 
L 194.046543 214.561789 
L 194.017246 213.614882 
L 193.980841 212.667975 
L 193.934102 211.721069 
L 193.873947 210.774162 
L 193.798083 209.827256 
L 193.70498 208.880349 
L 193.593058 207.933443 
L 193.459596 206.986536 
L 193.300144 206.03963 
L 193.109114 205.092723 
L 192.881506 204.145816 
L 192.614915 203.19891 
L 192.310535 202.252003 
L 191.972458 201.305097 
L 191.605686 200.35819 
L 191.214244 199.411284 
L 190.800658 198.464377 
L 190.367141 197.517471 
L 189.917747 196.570564 
L 189.460307 195.623657 
L 189.007258 194.676751 
L 188.575236 193.729844 
L 188.183903 192.782938 
L 187.854511 191.836031 
L 187.608317 190.889125 
L 187.464758 189.942218 
L 187.439434 188.995311 
L 187.541947 188.048405 
L 187.773584 187.101498 
L 188.125162 186.154592 
L 188.576413 185.207685 
L 189.098626 184.260779 
L 189.660625 183.313872 
L 190.23536 182.366966 
L 190.803353 181.420059 
L 191.351328 180.473152 
L 191.867903 179.526246 
L 192.339911 178.579339 
L 192.751694 177.632433 
L 193.087107 176.685526 
L 193.332289 175.73862 
L 193.477299 174.791713 
L 193.515796 173.844806 
L 193.443121 172.8979 
L 193.253904 171.950993 
L 192.940743 171.004087 
L 192.495345 170.05718 
L 191.912709 169.110274 
L 191.19743 168.163367 
L 190.369814 167.216461 
L 189.46898 166.269554 
L 188.551007 165.322647 
L 187.681905 164.375741 
L 186.927082 163.428834 
L 186.340273 162.481928 
L 185.955241 161.535021 
L 185.782571 160.588115 
L 185.811892 159.641208 
L 186.017793 158.694301 
L 186.366649 157.747395 
L 186.82224 156.800488 
L 187.349487 155.853582 
L 187.916949 154.906675 
L 188.498874 153.959769 
L 189.076745 153.012862 
L 189.639416 152.065956 
L 190.181176 151.119049 
L 190.698276 150.172142 
L 191.185756 149.225236 
L 191.636425 148.278329 
L 192.04246 147.331423 
L 192.398368 146.384516 
L 192.703209 145.43761 
L 192.960628 144.490703 
L 193.176883 143.543797 
L 193.358352 142.59689 
L 193.510043 141.649983 
L 193.63559 140.703077 
L 193.738087 139.75617 
L 193.820807 138.809264 
L 193.887338 137.862357 
L 193.94127 136.915451 
L 193.985753 135.968544 
L 194.02318 135.021637 
L 194.055104 134.074731 
L 194.08238 133.127824 
L 194.105462 132.180918 
L 194.124662 131.234011 
L 194.140286 130.287105 
L 194.217332 130.287105 
L 194.217332 130.287105 
L 194.232955 131.234011 
L 194.252156 132.180918 
L 194.275237 133.127824 
L 194.302514 134.074731 
L 194.334437 135.021637 
L 194.371865 135.968544 
L 194.416348 136.915451 
L 194.47028 137.862357 
L 194.536811 138.809264 
L 194.619531 139.75617 
L 194.722028 140.703077 
L 194.847575 141.649983 
L 194.999265 142.59689 
L 195.180735 143.543797 
L 195.39699 144.490703 
L 195.654408 145.43761 
L 195.959249 146.384516 
L 196.315158 147.331423 
L 196.721193 148.278329 
L 197.171862 149.225236 
L 197.659342 150.172142 
L 198.176441 151.119049 
L 198.718201 152.065956 
L 199.280873 153.012862 
L 199.858743 153.959769 
L 200.440669 154.906675 
L 201.008131 155.853582 
L 201.535377 156.800488 
L 201.990969 157.747395 
L 202.339825 158.694301 
L 202.545725 159.641208 
L 202.575047 160.588115 
L 202.402376 161.535021 
L 202.017345 162.481928 
L 201.430536 163.428834 
L 200.675712 164.375741 
L 199.80661 165.322647 
L 198.888637 166.269554 
L 197.987803 167.216461 
L 197.160187 168.163367 
L 196.444909 169.110274 
L 195.862273 170.05718 
L 195.416875 171.004087 
L 195.103714 171.950993 
L 194.914497 172.8979 
L 194.841821 173.844806 
L 194.880318 174.791713 
L 195.025328 175.73862 
L 195.270511 176.685526 
L 195.605924 177.632433 
L 196.017706 178.579339 
L 196.489714 179.526246 
L 197.00629 180.473152 
L 197.554265 181.420059 
L 198.122258 182.366966 
L 198.696993 183.313872 
L 199.258991 184.260779 
L 199.781204 185.207685 
L 200.232455 186.154592 
L 200.584034 187.101498 
L 200.815671 188.048405 
L 200.918184 188.995311 
L 200.892859 189.942218 
L 200.749301 190.889125 
L 200.503106 191.836031 
L 200.173715 192.782938 
L 199.782382 193.729844 
L 199.350359 194.676751 
L 198.89731 195.623657 
L 198.43987 196.570564 
L 197.990476 197.517471 
L 197.55696 198.464377 
L 197.143374 199.411284 
L 196.751931 200.35819 
L 196.38516 201.305097 
L 196.047082 202.252003 
L 195.742703 203.19891 
L 195.476111 204.145816 
L 195.248504 205.092723 
L 195.057473 206.03963 
L 194.898022 206.986536 
L 194.764559 207.933443 
L 194.652638 208.880349 
L 194.559534 209.827256 
L 194.483671 210.774162 
L 194.423515 211.721069 
L 194.376777 212.667975 
L 194.340372 213.614882 
L 194.311074 214.561789 
L 194.28634 215.508695 
L 194.264769 216.455602 
L 194.245996 217.402508 
L 194.230222 218.349415 
L 194.217706 219.296321 
L 194.208438 220.243228 
L 194.202017 221.190135 
L 194.197702 222.137041 
L 194.194602 223.083948 
L 194.191948 224.030854 
z
" clip-path="url(#p0c27a81415)" style="fill: #348abd; fill-opacity: 0.3"/>
   </g>
   <g id="PolyCollection_6">
    <path d="M 222.202507 230.45781 
L 222.130032 230.45781 
L 222.116514 229.315152 
L 222.100621 228.172494 
L 222.082549 227.029836 
L 222.062467 225.887179 
L 222.040274 224.744521 
L 222.015297 223.601863 
L 221.986025 222.459205 
L 221.950031 221.316547 
L 221.904111 220.173889 
L 221.844638 219.031231 
L 221.768028 217.888573 
L 221.671119 216.745915 
L 221.551163 215.603257 
L 221.405248 214.460599 
L 221.22933 213.317941 
L 221.017587 212.175283 
L 220.762857 211.032625 
L 220.458461 209.889967 
L 220.100752 208.747309 
L 219.691247 207.604651 
L 219.237315 206.461993 
L 218.751206 205.319335 
L 218.247956 204.176677 
L 217.743074 203.034019 
L 217.250848 201.891361 
L 216.783801 200.748703 
L 216.353435 199.606045 
L 215.971868 198.463387 
L 215.653425 197.320729 
L 215.415056 196.178071 
L 215.274936 195.035413 
L 215.249418 193.892755 
L 215.34915 192.750097 
L 215.575496 191.607439 
L 215.918496 190.464781 
L 216.35757 189.322123 
L 216.86538 188.179465 
L 217.413647 187.036807 
L 217.978316 185.894149 
L 218.541623 184.751491 
L 219.090666 183.608833 
L 219.614326 182.466175 
L 220.101145 181.323517 
L 220.539377 180.180859 
L 220.91852 179.038201 
L 221.230676 177.895543 
L 221.470666 176.752885 
L 221.634948 175.610227 
L 221.719976 174.467569 
L 221.720596 173.324911 
L 221.628901 172.182253 
L 221.434099 171.039595 
L 221.124166 169.896937 
L 220.689623 168.754279 
L 220.12869 167.611621 
L 219.451834 166.468963 
L 218.683501 165.326305 
L 217.859946 164.183647 
L 217.02402 163.040989 
L 216.219131 161.898331 
L 215.48458 160.755673 
L 214.853212 159.613015 
L 214.350875 158.470357 
L 213.996482 157.327699 
L 213.801706 156.185041 
L 213.770031 155.042383 
L 213.895711 153.899725 
L 214.163619 152.757067 
L 214.550877 151.614409 
L 215.030368 150.471751 
L 215.575068 149.329093 
L 216.161416 148.186435 
L 216.770346 147.043777 
L 217.385998 145.901119 
L 217.993552 144.758461 
L 218.577934 143.615803 
L 219.124305 142.473145 
L 219.61996 141.330487 
L 220.05647 140.187829 
L 220.430939 139.045171 
L 220.745806 137.902514 
L 221.007326 136.759856 
L 221.223418 135.617198 
L 221.401728 134.47454 
L 221.548563 133.331882 
L 221.668823 132.189224 
L 221.766549 131.046566 
L 221.845466 129.903908 
L 221.909128 128.76125 
L 221.960703 127.618592 
L 222.00268 126.475934 
L 222.036831 125.333276 
L 222.064426 124.190618 
L 222.086547 123.04796 
L 222.104252 121.905302 
L 222.11854 120.762644 
L 222.130209 119.619986 
L 222.139772 118.477328 
L 222.147498 117.33467 
L 222.185041 117.33467 
L 222.185041 117.33467 
L 222.192767 118.477328 
L 222.20233 119.619986 
L 222.213999 120.762644 
L 222.228287 121.905302 
L 222.245992 123.04796 
L 222.268113 124.190618 
L 222.295709 125.333276 
L 222.329859 126.475934 
L 222.371836 127.618592 
L 222.423411 128.76125 
L 222.487074 129.903908 
L 222.56599 131.046566 
L 222.663716 132.189224 
L 222.783976 133.331882 
L 222.930811 134.47454 
L 223.109121 135.617198 
L 223.325214 136.759856 
L 223.586733 137.902514 
L 223.9016 139.045171 
L 224.276069 140.187829 
L 224.712579 141.330487 
L 225.208234 142.473145 
L 225.754605 143.615803 
L 226.338987 144.758461 
L 226.946541 145.901119 
L 227.562194 147.043777 
L 228.171124 148.186435 
L 228.757472 149.329093 
L 229.302171 150.471751 
L 229.781662 151.614409 
L 230.16892 152.757067 
L 230.436828 153.899725 
L 230.562508 155.042383 
L 230.530833 156.185041 
L 230.336057 157.327699 
L 229.981665 158.470357 
L 229.479327 159.613015 
L 228.84796 160.755673 
L 228.113409 161.898331 
L 227.308519 163.040989 
L 226.472593 164.183647 
L 225.649038 165.326305 
L 224.880705 166.468963 
L 224.203849 167.611621 
L 223.642916 168.754279 
L 223.208373 169.896937 
L 222.89844 171.039595 
L 222.703638 172.182253 
L 222.611943 173.324911 
L 222.612564 174.467569 
L 222.697591 175.610227 
L 222.861873 176.752885 
L 223.101864 177.895543 
L 223.41402 179.038201 
L 223.793162 180.180859 
L 224.231394 181.323517 
L 224.718213 182.466175 
L 225.241874 183.608833 
L 225.790916 184.751491 
L 226.354224 185.894149 
L 226.918892 187.036807 
L 227.467159 188.179465 
L 227.974969 189.322123 
L 228.414043 190.464781 
L 228.757043 191.607439 
L 228.983389 192.750097 
L 229.083121 193.892755 
L 229.057603 195.035413 
L 228.917483 196.178071 
L 228.679114 197.320729 
L 228.360671 198.463387 
L 227.979104 199.606045 
L 227.548738 200.748703 
L 227.081691 201.891361 
L 226.589466 203.034019 
L 226.084584 204.176677 
L 225.581333 205.319335 
L 225.095224 206.461993 
L 224.641292 207.604651 
L 224.231787 208.747309 
L 223.874078 209.889967 
L 223.569682 211.032625 
L 223.314953 212.175283 
L 223.103209 213.317941 
L 222.927292 214.460599 
L 222.781376 215.603257 
L 222.66142 216.745915 
L 222.564511 217.888573 
L 222.487902 219.031231 
L 222.428428 220.173889 
L 222.382508 221.316547 
L 222.346514 222.459205 
L 222.317243 223.601863 
L 222.292265 224.744521 
L 222.270072 225.887179 
L 222.24999 227.029836 
L 222.231918 228.172494 
L 222.216025 229.315152 
L 222.202507 230.45781 
z
" clip-path="url(#p0c27a81415)" style="fill: #348abd; fill-opacity: 0.3"/>
   </g>
   <g id="PolyCollection_7">
    <path d="M 250.19331 240.721197 
L 250.114151 240.721197 
L 250.099112 239.368211 
L 250.081718 238.015224 
L 250.062135 236.662238 
L 250.039916 235.309251 
L 250.013674 233.956265 
L 249.981099 232.603278 
L 249.939379 231.250292 
L 249.885777 229.897306 
L 249.817963 228.544319 
L 249.733789 227.191333 
L 249.63053 225.838346 
L 249.50401 224.48536 
L 249.348156 223.132373 
L 249.155306 221.779387 
L 248.917261 220.4264 
L 248.62681 219.073414 
L 248.279462 217.720427 
L 247.875173 216.367441 
L 247.419674 215.014454 
L 246.924759 213.661468 
L 246.406951 212.308481 
L 245.884645 210.955495 
L 245.374819 209.602508 
L 244.890913 208.249522 
L 244.44297 206.896535 
L 244.039786 205.543549 
L 243.691637 204.190562 
L 243.411822 202.837576 
L 243.21608 201.484589 
L 243.120102 200.131603 
L 243.136301 198.778616 
L 243.271051 197.42563 
L 243.523133 196.072643 
L 243.883426 194.719657 
L 244.335603 193.366671 
L 244.857624 192.013684 
L 245.424038 190.660698 
L 246.008904 189.307711 
L 246.588793 187.954725 
L 247.144944 186.601738 
L 247.663906 185.248752 
L 248.136684 183.895765 
L 248.557194 182.542779 
L 248.920991 181.189792 
L 249.224742 179.836806 
L 249.466221 178.483819 
L 249.644228 177.130833 
L 249.758013 175.777846 
L 249.806257 174.42486 
L 249.786071 173.071873 
L 249.692525 171.718887 
L 249.519075 170.3659 
L 249.258937 169.012914 
L 248.907107 167.659927 
L 248.462479 166.306941 
L 247.929403 164.953954 
L 247.318285 163.600968 
L 246.645231 162.247981 
L 245.931078 160.894995 
L 245.200203 159.542008 
L 244.479241 158.189022 
L 243.795669 156.836036 
L 243.176219 155.483049 
L 242.645306 154.130063 
L 242.223791 152.777076 
L 241.928236 151.42409 
L 241.770531 150.071103 
L 241.757492 148.718117 
L 241.890081 147.36513 
L 242.162323 146.012144 
L 242.56051 144.659157 
L 243.063498 143.306171 
L 243.644592 141.953184 
L 244.274669 140.600198 
L 244.925591 139.247211 
L 245.572813 137.894225 
L 246.196644 136.541238 
L 246.782294 135.188252 
L 247.319234 133.835265 
L 247.800459 132.482279 
L 248.221994 131.129292 
L 248.582724 129.776306 
L 248.884389 128.423319 
L 249.131439 127.070333 
L 249.330527 125.717346 
L 249.489603 124.36436 
L 249.616798 123.011373 
L 249.719426 121.658387 
L 249.803352 120.305401 
L 249.872799 118.952414 
L 249.930524 117.599428 
L 249.978236 116.246441 
L 250.017079 114.893455 
L 250.048052 113.540468 
L 250.072258 112.187482 
L 250.090949 110.834495 
L 250.105418 109.481509 
L 250.116818 108.128522 
L 250.126015 106.775536 
L 250.181446 106.775536 
L 250.181446 106.775536 
L 250.190642 108.128522 
L 250.202043 109.481509 
L 250.216512 110.834495 
L 250.235203 112.187482 
L 250.259409 113.540468 
L 250.290382 114.893455 
L 250.329225 116.246441 
L 250.376937 117.599428 
L 250.434662 118.952414 
L 250.504109 120.305401 
L 250.588035 121.658387 
L 250.690663 123.011373 
L 250.817857 124.36436 
L 250.976934 125.717346 
L 251.176022 127.070333 
L 251.423071 128.423319 
L 251.724736 129.776306 
L 252.085467 131.129292 
L 252.507002 132.482279 
L 252.988227 133.835265 
L 253.525167 135.188252 
L 254.110817 136.541238 
L 254.734648 137.894225 
L 255.381869 139.247211 
L 256.032792 140.600198 
L 256.662869 141.953184 
L 257.243963 143.306171 
L 257.746951 144.659157 
L 258.145138 146.012144 
L 258.41738 147.36513 
L 258.549969 148.718117 
L 258.53693 150.071103 
L 258.379225 151.42409 
L 258.08367 152.777076 
L 257.662155 154.130063 
L 257.131242 155.483049 
L 256.511792 156.836036 
L 255.82822 158.189022 
L 255.107258 159.542008 
L 254.376383 160.894995 
L 253.66223 162.247981 
L 252.989176 163.600968 
L 252.378058 164.953954 
L 251.844982 166.306941 
L 251.400354 167.659927 
L 251.048524 169.012914 
L 250.788385 170.3659 
L 250.614936 171.718887 
L 250.52139 173.071873 
L 250.501204 174.42486 
L 250.549448 175.777846 
L 250.663233 177.130833 
L 250.84124 178.483819 
L 251.082719 179.836806 
L 251.386469 181.189792 
L 251.750267 182.542779 
L 252.170777 183.895765 
L 252.643555 185.248752 
L 253.162517 186.601738 
L 253.718668 187.954725 
L 254.298557 189.307711 
L 254.883423 190.660698 
L 255.449837 192.013684 
L 255.971858 193.366671 
L 256.424035 194.719657 
L 256.784328 196.072643 
L 257.036409 197.42563 
L 257.171159 198.778616 
L 257.187358 200.131603 
L 257.091381 201.484589 
L 256.895639 202.837576 
L 256.615824 204.190562 
L 256.267675 205.543549 
L 255.864491 206.896535 
L 255.416548 208.249522 
L 254.932642 209.602508 
L 254.422816 210.955495 
L 253.90051 212.308481 
L 253.382702 213.661468 
L 252.887786 215.014454 
L 252.432287 216.367441 
L 252.027999 217.720427 
L 251.680651 219.073414 
L 251.390199 220.4264 
L 251.152155 221.779387 
L 250.959305 223.132373 
L 250.803451 224.48536 
L 250.676931 225.838346 
L 250.573671 227.191333 
L 250.489498 228.544319 
L 250.421684 229.897306 
L 250.368082 231.250292 
L 250.326362 232.603278 
L 250.293787 233.956265 
L 250.267545 235.309251 
L 250.245326 236.662238 
L 250.225742 238.015224 
L 250.208348 239.368211 
L 250.19331 240.721197 
z
" clip-path="url(#p0c27a81415)" style="fill: #348abd; fill-opacity: 0.3"/>
   </g>
   <g id="PolyCollection_8">
    <path d="M 278.189824 252.687454 
L 278.092559 252.687454 
L 278.077185 251.040088 
L 278.05918 249.392723 
L 278.037898 247.745357 
L 278.012075 246.097991 
L 277.979678 244.450625 
L 277.937859 242.803259 
L 277.883012 241.155893 
L 277.810898 239.508527 
L 277.716765 237.861161 
L 277.595441 236.213796 
L 277.441432 234.56643 
L 277.249116 232.919064 
L 277.013107 231.271698 
L 276.728837 229.624332 
L 276.393299 227.976966 
L 276.005843 226.3296 
L 275.568819 224.682234 
L 275.087926 223.034868 
L 274.572222 221.387503 
L 274.033926 219.740137 
L 273.488199 218.092771 
L 272.952954 216.445405 
L 272.448481 214.798039 
L 271.99649 213.150673 
L 271.618376 211.503307 
L 271.332934 209.855941 
L 271.154251 208.208575 
L 271.090485 206.56121 
L 271.143849 204.913844 
L 271.311458 203.266478 
L 271.586375 201.619112 
L 271.958267 199.971746 
L 272.413528 198.32438 
L 272.935126 196.677014 
L 273.502706 195.029648 
L 274.093404 193.382283 
L 274.683541 191.734917 
L 275.250914 190.087551 
L 275.777057 188.440185 
L 276.248783 186.792819 
L 276.658633 185.145453 
L 277.004209 183.498087 
L 277.286777 181.850721 
L 277.509569 180.203355 
L 277.676188 178.55599 
L 277.789345 176.908624 
L 277.850034 175.261258 
L 277.857138 173.613892 
L 277.807419 171.966526 
L 277.695855 170.31916 
L 277.516258 168.671794 
L 277.262134 167.024428 
L 276.927717 165.377062 
L 276.509146 163.729697 
L 276.005756 162.082331 
L 275.421419 160.434965 
L 274.765743 158.787599 
L 274.05485 157.140233 
L 273.311418 155.492867 
L 272.563806 153.845501 
L 271.844286 152.198135 
L 271.186601 150.550769 
L 270.623151 148.903404 
L 270.182162 147.256038 
L 269.885142 145.608672 
L 269.744953 143.961306 
L 269.76479 142.31394 
L 269.938343 140.666574 
L 270.251188 139.019208 
L 270.683116 137.371842 
L 271.210678 135.724477 
L 271.809176 134.077111 
L 272.453656 132.429745 
L 273.11915 130.782379 
L 273.780942 129.135013 
L 274.415624 127.487647 
L 275.003107 125.840281 
L 275.528935 124.192915 
L 275.985853 122.545549 
L 276.373798 120.898184 
L 276.698274 119.250818 
L 276.967806 117.603452 
L 277.191483 115.956086 
L 277.377309 114.30872 
L 277.531565 112.661354 
L 277.658932 111.013988 
L 277.762971 109.366622 
L 277.846661 107.719256 
L 277.912794 106.071891 
L 277.96418 104.424525 
L 278.003634 102.777159 
L 278.033812 101.129793 
L 278.057001 99.482427 
L 278.074997 97.835061 
L 278.089111 96.187695 
L 278.100282 94.540329 
L 278.109213 92.892964 
L 278.116448 91.245598 
L 278.122398 89.598232 
L 278.159984 89.598232 
L 278.159984 89.598232 
L 278.165934 91.245598 
L 278.17317 92.892964 
L 278.1821 94.540329 
L 278.193271 96.187695 
L 278.207385 97.835061 
L 278.225382 99.482427 
L 278.248571 101.129793 
L 278.278748 102.777159 
L 278.318202 104.424525 
L 278.369589 106.071891 
L 278.435722 107.719256 
L 278.519411 109.366622 
L 278.623451 111.013988 
L 278.750817 112.661354 
L 278.905073 114.30872 
L 279.090899 115.956086 
L 279.314576 117.603452 
L 279.584109 119.250818 
L 279.908584 120.898184 
L 280.29653 122.545549 
L 280.753448 124.192915 
L 281.279276 125.840281 
L 281.866758 127.487647 
L 282.501441 129.135013 
L 283.163232 130.782379 
L 283.828726 132.429745 
L 284.473206 134.077111 
L 285.071704 135.724477 
L 285.599266 137.371842 
L 286.031194 139.019208 
L 286.34404 140.666574 
L 286.517592 142.31394 
L 286.537429 143.961306 
L 286.39724 145.608672 
L 286.100221 147.256038 
L 285.659231 148.903404 
L 285.095781 150.550769 
L 284.438096 152.198135 
L 283.718577 153.845501 
L 282.970964 155.492867 
L 282.227533 157.140233 
L 281.51664 158.787599 
L 280.860963 160.434965 
L 280.276626 162.082331 
L 279.773237 163.729697 
L 279.354666 165.377062 
L 279.020249 167.024428 
L 278.766124 168.671794 
L 278.586527 170.31916 
L 278.474963 171.966526 
L 278.425244 173.613892 
L 278.432348 175.261258 
L 278.493037 176.908624 
L 278.606194 178.55599 
L 278.772813 180.203355 
L 278.995606 181.850721 
L 279.278174 183.498087 
L 279.62375 185.145453 
L 280.033599 186.792819 
L 280.505326 188.440185 
L 281.031468 190.087551 
L 281.598842 191.734917 
L 282.188978 193.382283 
L 282.779676 195.029648 
L 283.347256 196.677014 
L 283.868855 198.32438 
L 284.324115 199.971746 
L 284.696008 201.619112 
L 284.970924 203.266478 
L 285.138534 204.913844 
L 285.191897 206.56121 
L 285.128132 208.208575 
L 284.949448 209.855941 
L 284.664007 211.503307 
L 284.285892 213.150673 
L 283.833901 214.798039 
L 283.329428 216.445405 
L 282.794184 218.092771 
L 282.248457 219.740137 
L 281.710161 221.387503 
L 281.194457 223.034868 
L 280.713564 224.682234 
L 280.27654 226.3296 
L 279.889084 227.976966 
L 279.553546 229.624332 
L 279.269275 231.271698 
L 279.033267 232.919064 
L 278.840951 234.56643 
L 278.686941 236.213796 
L 278.565617 237.861161 
L 278.471484 239.508527 
L 278.399371 241.155893 
L 278.344524 242.803259 
L 278.302705 244.450625 
L 278.270308 246.097991 
L 278.244484 247.745357 
L 278.223202 249.392723 
L 278.205198 251.040088 
L 278.189824 252.687454 
z
" clip-path="url(#p0c27a81415)" style="fill: #348abd; fill-opacity: 0.3"/>
   </g>
   <g id="PolyCollection_9">
    <path d="M 306.17233 266.903765 
L 306.084974 266.903765 
L 306.069151 264.938426 
L 306.04982 262.973086 
L 306.026298 261.007746 
L 305.997308 259.042407 
L 305.960599 257.077067 
L 305.912606 255.111727 
L 305.848308 253.146388 
L 305.76145 251.181048 
L 305.645154 249.215708 
L 305.492808 247.250369 
L 305.298948 245.285029 
L 305.05983 243.319689 
L 304.773494 241.35435 
L 304.439388 239.38901 
L 304.057892 237.42367 
L 303.630231 235.458331 
L 303.159081 233.492991 
L 302.649784 231.527651 
L 302.111642 229.562312 
L 301.558603 227.596972 
L 301.008852 225.631632 
L 300.48335 223.666293 
L 300.00387 221.700953 
L 299.591283 219.735613 
L 299.264567 217.770274 
L 299.040428 215.804934 
L 298.93292 213.839594 
L 298.952363 211.874255 
L 299.103444 209.908915 
L 299.383095 207.943575 
L 299.779268 205.978236 
L 300.271496 204.012896 
L 300.833338 202.047557 
L 301.435949 200.082217 
L 302.05161 198.116877 
L 302.656255 196.151538 
L 303.230651 194.186198 
L 303.760503 192.220858 
L 304.235981 190.255519 
L 304.65112 188.290179 
L 305.003289 186.324839 
L 305.292705 184.3595 
L 305.521872 182.39416 
L 305.694834 180.42882 
L 305.81623 178.463481 
L 305.89019 176.498141 
L 305.919236 174.532801 
L 305.903377 172.567462 
L 305.83962 170.602122 
L 305.722024 168.636782 
L 305.542361 166.671443 
L 305.291359 164.706103 
L 304.960353 162.740763 
L 304.543121 160.775424 
L 304.037632 158.810084 
L 303.447469 156.844744 
L 302.782797 154.879405 
L 302.060839 152.914065 
L 301.305785 150.948725 
L 300.547924 148.983386 
L 299.821668 147.018046 
L 299.162377 145.052707 
L 298.602419 143.087367 
L 298.167539 141.122027 
L 297.874765 139.156688 
L 297.732414 137.191348 
L 297.741696 135.226008 
L 297.898559 133.260669 
L 298.194562 131.295329 
L 298.616488 129.329989 
L 299.145438 127.36465 
L 299.756549 125.39931 
L 300.420091 123.43397 
L 301.103989 121.468631 
L 301.777246 119.503291 
L 302.413444 117.537951 
L 302.993492 115.572612 
L 303.506886 113.607272 
L 303.951179 111.641932 
L 304.329965 109.676593 
L 304.650218 107.711253 
L 304.919936 105.745913 
L 305.146685 103.780574 
L 305.337009 101.815234 
L 305.496358 99.849894 
L 305.629176 97.884555 
L 305.739018 95.919215 
L 305.828735 93.953875 
L 305.900758 91.988536 
L 305.957384 90.023196 
L 306.000946 88.057857 
L 306.0338 86.092517 
L 306.058193 84.127177 
L 306.076108 82.161838 
L 306.08919 80.196498 
L 306.098751 78.231158 
L 306.105813 76.265819 
L 306.111151 74.300479 
L 306.115327 72.335139 
L 306.141977 72.335139 
L 306.141977 72.335139 
L 306.146153 74.300479 
L 306.151492 76.265819 
L 306.158553 78.231158 
L 306.168114 80.196498 
L 306.181196 82.161838 
L 306.199111 84.127177 
L 306.223504 86.092517 
L 306.256358 88.057857 
L 306.29992 90.023196 
L 306.356546 91.988536 
L 306.428569 93.953875 
L 306.518286 95.919215 
L 306.628128 97.884555 
L 306.760946 99.849894 
L 306.920295 101.815234 
L 307.110619 103.780574 
L 307.337368 105.745913 
L 307.607086 107.711253 
L 307.927339 109.676593 
L 308.306125 111.641932 
L 308.750418 113.607272 
L 309.263812 115.572612 
L 309.84386 117.537951 
L 310.480058 119.503291 
L 311.153315 121.468631 
L 311.837213 123.43397 
L 312.500755 125.39931 
L 313.111866 127.36465 
L 313.640816 129.329989 
L 314.062742 131.295329 
L 314.358745 133.260669 
L 314.515609 135.226008 
L 314.52489 137.191348 
L 314.382539 139.156688 
L 314.089765 141.122027 
L 313.654885 143.087367 
L 313.094927 145.052707 
L 312.435637 147.018046 
L 311.70938 148.983386 
L 310.951519 150.948725 
L 310.196465 152.914065 
L 309.474507 154.879405 
L 308.809835 156.844744 
L 308.219672 158.810084 
L 307.714183 160.775424 
L 307.296951 162.740763 
L 306.965945 164.706103 
L 306.714943 166.671443 
L 306.53528 168.636782 
L 306.417684 170.602122 
L 306.353927 172.567462 
L 306.338069 174.532801 
L 306.367114 176.498141 
L 306.441074 178.463481 
L 306.56247 180.42882 
L 306.735433 182.39416 
L 306.964599 184.3595 
L 307.254015 186.324839 
L 307.606184 188.290179 
L 308.021323 190.255519 
L 308.496801 192.220858 
L 309.026653 194.186198 
L 309.60105 196.151538 
L 310.205694 198.116877 
L 310.821355 200.082217 
L 311.423966 202.047557 
L 311.985808 204.012896 
L 312.478036 205.978236 
L 312.874209 207.943575 
L 313.15386 209.908915 
L 313.304941 211.874255 
L 313.324384 213.839594 
L 313.216876 215.804934 
L 312.992737 217.770274 
L 312.666021 219.735613 
L 312.253434 221.700953 
L 311.773954 223.666293 
L 311.248452 225.631632 
L 310.698701 227.596972 
L 310.145662 229.562312 
L 309.60752 231.527651 
L 309.098223 233.492991 
L 308.627073 235.458331 
L 308.199412 237.42367 
L 307.817916 239.38901 
L 307.48381 241.35435 
L 307.197474 243.319689 
L 306.958356 245.285029 
L 306.764496 247.250369 
L 306.61215 249.215708 
L 306.495854 251.181048 
L 306.408996 253.146388 
L 306.344698 255.111727 
L 306.296705 257.077067 
L 306.259996 259.042407 
L 306.231006 261.007746 
L 306.207484 262.973086 
L 306.188153 264.938426 
L 306.17233 266.903765 
z
" clip-path="url(#p0c27a81415)" style="fill: #348abd; fill-opacity: 0.3"/>
   </g>
   <g id="PolyCollection_10">
    <path d="M 334.160967 281.235806 
L 334.071259 281.235806 
L 334.052131 278.935028 
L 334.027805 276.63425 
L 333.997186 274.333472 
L 333.958395 272.032694 
L 333.908387 269.731916 
L 333.84272 267.431138 
L 333.755632 265.13036 
L 333.640459 262.829582 
L 333.490328 260.528804 
L 333.298959 258.228026 
L 333.061333 255.927248 
L 332.774087 253.62647 
L 332.43556 251.325692 
L 332.045655 249.024914 
L 331.605748 246.724136 
L 331.118949 244.423358 
L 330.590844 242.12258 
L 330.030593 239.821802 
L 329.451928 237.521024 
L 328.873438 235.220246 
L 328.317728 232.919468 
L 327.809499 230.61869 
L 327.373174 228.317912 
L 327.030921 226.017134 
L 326.80151 223.716356 
L 326.699796 221.415578 
L 326.736063 219.1148 
L 326.914622 216.814022 
L 327.231797 214.513244 
L 327.674234 212.212466 
L 328.218722 209.911688 
L 328.834209 207.61091 
L 329.485776 205.310132 
L 330.139457 203.009354 
L 330.766504 200.708576 
L 331.346013 198.407798 
L 331.865509 196.10702 
L 332.319832 193.806242 
L 332.709064 191.505464 
L 333.036332 189.204686 
L 333.306049 186.903908 
L 333.522825 184.60313 
L 333.690943 182.302352 
L 333.814145 180.001574 
L 333.89545 177.700796 
L 333.936858 175.400018 
L 333.93892 173.09924 
L 333.900275 170.798462 
L 333.817302 168.497684 
L 333.684025 166.196906 
L 333.492395 163.896128 
L 333.233068 161.59535 
L 332.896745 159.294572 
L 332.476048 156.993794 
L 331.967679 154.693016 
L 331.37447 152.392238 
L 330.706851 150.09146 
L 329.983363 147.790682 
L 329.230026 145.489904 
L 328.478532 143.189126 
L 327.763388 140.888348 
L 327.118366 138.58757 
L 326.572932 136.286792 
L 326.149561 133.986014 
L 325.862756 131.685236 
L 325.719875 129.384458 
L 325.722977 127.08368 
L 325.870302 124.782902 
L 326.156288 122.482123 
L 326.570117 120.181345 
L 327.093926 117.880567 
L 327.702277 115.579789 
L 328.363833 113.279011 
L 329.045037 110.978233 
L 329.714532 108.677455 
L 330.346855 106.376677 
L 330.92448 104.075899 
L 331.438066 101.775121 
L 331.885371 99.474343 
L 332.269429 97.173565 
L 332.596523 94.872787 
L 332.87428 92.572009 
L 333.110133 90.271231 
L 333.310308 87.970453 
L 333.479429 85.669675 
L 333.6207 83.368897 
L 333.73647 81.068119 
L 333.828932 78.767341 
L 333.900656 76.466563 
L 333.954769 74.165785 
L 333.994771 71.865007 
L 334.02412 69.564229 
L 334.045819 67.263451 
L 334.062172 64.962673 
L 334.074765 62.661895 
L 334.084613 60.361117 
L 334.092363 58.060339 
L 334.098452 55.759561 
L 334.103208 53.458783 
L 334.129018 53.458783 
L 334.129018 53.458783 
L 334.133774 55.759561 
L 334.139863 58.060339 
L 334.147612 60.361117 
L 334.157461 62.661895 
L 334.170054 64.962673 
L 334.186407 67.263451 
L 334.208106 69.564229 
L 334.237455 71.865007 
L 334.277456 74.165785 
L 334.331569 76.466563 
L 334.403294 78.767341 
L 334.495756 81.068119 
L 334.611526 83.368897 
L 334.752796 85.669675 
L 334.921918 87.970453 
L 335.122093 90.271231 
L 335.357946 92.572009 
L 335.635703 94.872787 
L 335.962797 97.173565 
L 336.346855 99.474343 
L 336.79416 101.775121 
L 337.307746 104.075899 
L 337.885371 106.376677 
L 338.517694 108.677455 
L 339.187189 110.978233 
L 339.868393 113.279011 
L 340.529949 115.579789 
L 341.138299 117.880567 
L 341.662109 120.181345 
L 342.075937 122.482123 
L 342.361923 124.782902 
L 342.509248 127.08368 
L 342.512351 129.384458 
L 342.36947 131.685236 
L 342.082665 133.986014 
L 341.659294 136.286792 
L 341.11386 138.58757 
L 340.468838 140.888348 
L 339.753693 143.189126 
L 339.002199 145.489904 
L 338.248863 147.790682 
L 337.525375 150.09146 
L 336.857756 152.392238 
L 336.264547 154.693016 
L 335.756178 156.993794 
L 335.335481 159.294572 
L 334.999158 161.59535 
L 334.73983 163.896128 
L 334.548201 166.196906 
L 334.414924 168.497684 
L 334.331951 170.798462 
L 334.293306 173.09924 
L 334.295368 175.400018 
L 334.336776 177.700796 
L 334.418081 180.001574 
L 334.541282 182.302352 
L 334.709401 184.60313 
L 334.926177 186.903908 
L 335.195894 189.204686 
L 335.523161 191.505464 
L 335.912394 193.806242 
L 336.366717 196.10702 
L 336.886213 198.407798 
L 337.465722 200.708576 
L 338.092769 203.009354 
L 338.74645 205.310132 
L 339.398017 207.61091 
L 340.013504 209.911688 
L 340.557992 212.212466 
L 341.000429 214.513244 
L 341.317604 216.814022 
L 341.496162 219.1148 
L 341.53243 221.415578 
L 341.430716 223.716356 
L 341.201304 226.017134 
L 340.859051 228.317912 
L 340.422727 230.61869 
L 339.914498 232.919468 
L 339.358788 235.220246 
L 338.780298 237.521024 
L 338.201632 239.821802 
L 337.641382 242.12258 
L 337.113277 244.423358 
L 336.626478 246.724136 
L 336.186571 249.024914 
L 335.796666 251.325692 
L 335.458139 253.62647 
L 335.170892 255.927248 
L 334.933267 258.228026 
L 334.741898 260.528804 
L 334.591767 262.829582 
L 334.476593 265.13036 
L 334.389505 267.431138 
L 334.323839 269.731916 
L 334.273831 272.032694 
L 334.23504 274.333472 
L 334.204421 276.63425 
L 334.180095 278.935028 
L 334.160967 281.235806 
z
" clip-path="url(#p0c27a81415)" style="fill: #348abd; fill-opacity: 0.3"/>
   </g>
   <g id="PolyCollection_11">
    <path d="M 362.12234 301.017996 
L 362.084808 301.017996 
L 362.07469 298.355708 
L 362.059876 295.69342 
L 362.038734 293.031133 
L 362.009244 290.368845 
L 361.968831 287.706557 
L 361.914128 285.04427 
L 361.840759 282.381982 
L 361.743277 279.719694 
L 361.615409 277.057407 
L 361.450632 274.395119 
L 361.242941 271.732831 
L 360.987562 269.070544 
L 360.681333 266.408256 
L 360.322686 263.745968 
L 359.911432 261.083681 
L 359.448703 258.421393 
L 358.937419 255.759105 
L 358.383322 253.096817 
L 357.796299 250.43453 
L 357.191453 247.772242 
L 356.589344 245.109954 
L 356.015131 242.447667 
L 355.496651 239.785379 
L 355.061851 237.123091 
L 354.73608 234.460804 
L 354.53969 231.798516 
L 354.486217 229.136228 
L 354.581209 226.473941 
L 354.821712 223.811653 
L 355.196385 221.149365 
L 355.686271 218.487078 
L 356.266208 215.82479 
L 356.90681 213.162502 
L 357.576865 210.500215 
L 358.24594 207.837927 
L 358.88692 205.175639 
L 359.478144 202.513352 
L 360.004781 199.851064 
L 360.459151 197.188776 
L 360.839989 194.526489 
L 361.150908 191.864201 
L 361.398551 189.201913 
L 361.590866 186.539626 
L 361.735759 183.877338 
L 361.840167 181.21505 
L 361.909454 178.552763 
L 361.947004 175.890475 
L 361.953936 173.228187 
L 361.928899 170.5659 
L 361.86796 167.903612 
L 361.764662 165.241324 
L 361.610351 162.579037 
L 361.394909 159.916749 
L 361.107948 157.254461 
L 360.740428 154.592174 
L 360.286548 151.929886 
L 359.74566 149.267598 
L 359.123934 146.605311 
L 358.435448 143.943023 
L 357.702296 141.280735 
L 356.953392 138.618448 
L 356.221802 135.95616 
L 355.540992 133.293872 
L 354.940851 130.631585 
L 354.444721 127.969297 
L 354.068357 125.307009 
L 353.820951 122.644722 
L 353.707335 119.982434 
L 353.729848 117.320146 
L 353.888626 114.657859 
L 354.180093 111.995571 
L 354.594585 109.333283 
L 355.114673 106.670996 
L 355.715427 104.008708 
L 356.366851 101.34642 
L 357.037699 98.684133 
L 357.69937 96.021845 
L 358.328733 93.359557 
L 358.909408 90.69727 
L 359.431651 88.034982 
L 359.891389 85.372694 
L 360.288929 82.710407 
L 360.627678 80.048119 
L 360.912988 77.385831 
L 361.15115 74.723544 
L 361.348552 72.061256 
L 361.511076 69.398968 
L 361.643772 66.736681 
L 361.750831 64.074393 
L 361.835798 61.412105 
L 361.901879 58.749818 
L 361.952187 56.08753 
L 361.989811 53.425242 
L 362.017693 50.762954 
L 362.038424 48.100667 
L 362.054066 45.438379 
L 362.066101 42.776091 
L 362.07551 40.113804 
L 362.082912 37.451516 
L 362.124235 37.451516 
L 362.124235 37.451516 
L 362.131638 40.113804 
L 362.141046 42.776091 
L 362.153081 45.438379 
L 362.168723 48.100667 
L 362.189454 50.762954 
L 362.217337 53.425242 
L 362.25496 56.08753 
L 362.305269 58.749818 
L 362.37135 61.412105 
L 362.456316 64.074393 
L 362.563375 66.736681 
L 362.696071 69.398968 
L 362.858595 72.061256 
L 363.055998 74.723544 
L 363.294159 77.385831 
L 363.57947 80.048119 
L 363.918219 82.710407 
L 364.315758 85.372694 
L 364.775496 88.034982 
L 365.29774 90.69727 
L 365.878415 93.359557 
L 366.507778 96.021845 
L 367.169448 98.684133 
L 367.840296 101.34642 
L 368.49172 104.008708 
L 369.092474 106.670996 
L 369.612563 109.333283 
L 370.027054 111.995571 
L 370.318521 114.657859 
L 370.4773 117.320146 
L 370.499812 119.982434 
L 370.386196 122.644722 
L 370.13879 125.307009 
L 369.762426 127.969297 
L 369.266296 130.631585 
L 368.666156 133.293872 
L 367.985345 135.95616 
L 367.253755 138.618448 
L 366.504851 141.280735 
L 365.7717 143.943023 
L 365.083213 146.605311 
L 364.461488 149.267598 
L 363.920599 151.929886 
L 363.46672 154.592174 
L 363.0992 157.254461 
L 362.812238 159.916749 
L 362.596796 162.579037 
L 362.442486 165.241324 
L 362.339188 167.903612 
L 362.278249 170.5659 
L 362.253211 173.228187 
L 362.260143 175.890475 
L 362.297693 178.552763 
L 362.36698 181.21505 
L 362.471389 183.877338 
L 362.616282 186.539626 
L 362.808596 189.201913 
L 363.056239 191.864201 
L 363.367158 194.526489 
L 363.747996 197.188776 
L 364.202367 199.851064 
L 364.729004 202.513352 
L 365.320228 205.175639 
L 365.961207 207.837927 
L 366.630282 210.500215 
L 367.300337 213.162502 
L 367.940939 215.82479 
L 368.520876 218.487078 
L 369.010762 221.149365 
L 369.385435 223.811653 
L 369.625938 226.473941 
L 369.720931 229.136228 
L 369.667457 231.798516 
L 369.471068 234.460804 
L 369.145296 237.123091 
L 368.710496 239.785379 
L 368.192017 242.447667 
L 367.617804 245.109954 
L 367.015695 247.772242 
L 366.410848 250.43453 
L 365.823825 253.096817 
L 365.269728 255.759105 
L 364.758444 258.421393 
L 364.295716 261.083681 
L 363.884461 263.745968 
L 363.525815 266.408256 
L 363.219585 269.070544 
L 362.964207 271.732831 
L 362.756516 274.395119 
L 362.591738 277.057407 
L 362.463871 279.719694 
L 362.366388 282.381982 
L 362.293019 285.04427 
L 362.238317 287.706557 
L 362.197904 290.368845 
L 362.168413 293.031133 
L 362.147271 295.69342 
L 362.132457 298.355708 
L 362.12234 301.017996 
z
" clip-path="url(#p0c27a81415)" style="fill: #348abd; fill-opacity: 0.3"/>
   </g>
   <g id="PolyCollection_12">
    <path d="M 390.147075 311.239328 
L 390.034994 311.239328 
L 390.010398 308.317441 
L 389.976929 305.395554 
L 389.931496 302.473667 
L 389.869984 299.55178 
L 389.78724 296.629893 
L 389.677285 293.708006 
L 389.533767 290.786119 
L 389.350579 287.864232 
L 389.122481 284.942346 
L 388.845573 282.020459 
L 388.517517 279.098572 
L 388.137543 276.176685 
L 387.706429 273.254798 
L 387.22666 270.332911 
L 386.702892 267.411024 
L 386.142669 264.489137 
L 385.557128 261.567251 
L 384.961426 258.645364 
L 384.374648 255.723477 
L 383.819154 252.80159 
L 383.319393 249.879703 
L 382.90026 246.957816 
L 382.585074 244.035929 
L 382.393327 241.114042 
L 382.338503 238.192155 
L 382.426384 235.270269 
L 382.654245 232.348382 
L 383.01114 229.426495 
L 383.479155 226.504608 
L 384.035246 223.582721 
L 384.653236 220.660834 
L 385.305677 217.738947 
L 385.965546 214.81706 
L 386.607839 211.895173 
L 387.211105 208.973287 
L 387.758787 206.0514 
L 388.240105 203.129513 
L 388.650249 200.207626 
L 388.989799 197.285739 
L 389.263513 194.363852 
L 389.478798 191.441965 
L 389.644165 188.520078 
L 389.767948 185.598192 
L 389.857385 182.676305 
L 389.918068 179.754418 
L 389.953663 176.832531 
L 389.965772 173.910644 
L 389.953854 170.988757 
L 389.915185 168.06687 
L 389.844901 165.144983 
L 389.736227 162.223096 
L 389.58098 159.30121 
L 389.370387 156.379323 
L 389.096182 153.457436 
L 388.751869 150.535549 
L 388.333975 147.613662 
L 387.843116 144.691775 
L 387.284711 141.769888 
L 386.669215 138.848001 
L 386.011829 135.926114 
L 385.331728 133.004228 
L 384.650925 130.082341 
L 383.992931 127.160454 
L 383.381344 124.238567 
L 382.838484 121.31668 
L 382.384161 118.394793 
L 382.034695 115.472906 
L 381.802287 112.551019 
L 381.694796 109.629133 
L 381.715802 106.707246 
L 381.86471 103.785359 
L 382.136651 100.863472 
L 382.522093 97.941585 
L 383.006379 95.019698 
L 383.56964 92.097811 
L 384.187538 89.175924 
L 384.833064 86.254037 
L 385.479194 83.332151 
L 386.101805 80.410264 
L 386.682127 77.488377 
L 387.208091 74.56649 
L 387.674331 71.644603 
L 388.081018 68.722716 
L 388.432014 65.800829 
L 388.732937 62.878942 
L 388.989646 59.957055 
L 389.207353 57.035169 
L 389.390381 54.113282 
L 389.542349 51.191395 
L 389.666524 48.269508 
L 389.766132 45.347621 
L 389.844506 42.425734 
L 389.905065 39.503847 
L 389.95117 36.58196 
L 389.985938 33.660074 
L 390.012085 30.738187 
L 390.031831 27.8163 
L 390.046876 24.894413 
L 390.058455 21.972526 
L 390.123614 21.972526 
L 390.123614 21.972526 
L 390.135193 24.894413 
L 390.150238 27.8163 
L 390.169984 30.738187 
L 390.196131 33.660074 
L 390.230899 36.58196 
L 390.277004 39.503847 
L 390.337563 42.425734 
L 390.415937 45.347621 
L 390.515545 48.269508 
L 390.63972 51.191395 
L 390.791688 54.113282 
L 390.974716 57.035169 
L 391.192423 59.957055 
L 391.449132 62.878942 
L 391.750055 65.800829 
L 392.10105 68.722716 
L 392.507738 71.644603 
L 392.973978 74.56649 
L 393.499941 77.488377 
L 394.080264 80.410264 
L 394.702875 83.332151 
L 395.349005 86.254037 
L 395.994531 89.175924 
L 396.612428 92.097811 
L 397.17569 95.019698 
L 397.659976 97.941585 
L 398.045418 100.863472 
L 398.317359 103.785359 
L 398.466267 106.707246 
L 398.487273 109.629133 
L 398.379782 112.551019 
L 398.147374 115.472906 
L 397.797908 118.394793 
L 397.343585 121.31668 
L 396.800725 124.238567 
L 396.189138 127.160454 
L 395.531144 130.082341 
L 394.850341 133.004228 
L 394.17024 135.926114 
L 393.512854 138.848001 
L 392.897357 141.769888 
L 392.338953 144.691775 
L 391.848094 147.613662 
L 391.4302 150.535549 
L 391.085887 153.457436 
L 390.811682 156.379323 
L 390.601089 159.30121 
L 390.445842 162.223096 
L 390.337168 165.144983 
L 390.266884 168.06687 
L 390.228215 170.988757 
L 390.216297 173.910644 
L 390.228406 176.832531 
L 390.264001 179.754418 
L 390.324684 182.676305 
L 390.414121 185.598192 
L 390.537904 188.520078 
L 390.703271 191.441965 
L 390.918556 194.363852 
L 391.19227 197.285739 
L 391.53182 200.207626 
L 391.941964 203.129513 
L 392.423282 206.0514 
L 392.970964 208.973287 
L 393.57423 211.895173 
L 394.216523 214.81706 
L 394.876392 217.738947 
L 395.528833 220.660834 
L 396.146823 223.582721 
L 396.702914 226.504608 
L 397.170929 229.426495 
L 397.527824 232.348382 
L 397.755685 235.270269 
L 397.843566 238.192155 
L 397.788742 241.114042 
L 397.596995 244.035929 
L 397.281809 246.957816 
L 396.862676 249.879703 
L 396.362915 252.80159 
L 395.807421 255.723477 
L 395.220643 258.645364 
L 394.624941 261.567251 
L 394.0394 264.489137 
L 393.479176 267.411024 
L 392.955409 270.332911 
L 392.47564 273.254798 
L 392.044526 276.176685 
L 391.664552 279.098572 
L 391.336496 282.020459 
L 391.059588 284.942346 
L 390.83149 287.864232 
L 390.648302 290.786119 
L 390.504784 293.708006 
L 390.394829 296.629893 
L 390.312085 299.55178 
L 390.250573 302.473667 
L 390.20514 305.395554 
L 390.171671 308.317441 
L 390.147075 311.239328 
z
" clip-path="url(#p0c27a81415)" style="fill: #348abd; fill-opacity: 0.3"/>
   </g>
   <g id="matplotlib.axis_1">
    <g id="xtick_1">
     <g id="line2d_1">
      <path d="M 82.228966 307.584 
L 82.228966 41.472 
" clip-path="url(#p0c27a81415)" style="fill: none; stroke-dasharray: 1.85,0.8; stroke-dashoffset: 0; stroke: #b2b2b2; stroke-width: 0.5"/>
     </g>
     <g id="line2d_2">
      <defs>
       <path id="m7a3838c219" d="M 0 0 
L 0 -3.5 
" style="stroke: #000000; stroke-width: 0.8"/>
      </defs>
      <g>
       <use xlink:href="#m7a3838c219" x="82.228966" y="307.584" style="stroke: #000000; stroke-width: 0.8"/>
      </g>
     </g>
     <g id="text_1">
      <!-- 0 -->
      <g transform="translate(79.047716 318.682437) scale(0.1 -0.1)">
       <defs>
        <path id="DejaVuSans-30" d="M 2034 4250 
Q 1547 4250 1301 3770 
Q 1056 3291 1056 2328 
Q 1056 1369 1301 889 
Q 1547 409 2034 409 
Q 2525 409 2770 889 
Q 3016 1369 3016 2328 
Q 3016 3291 2770 3770 
Q 2525 4250 2034 4250 
z
M 2034 4750 
Q 2819 4750 3233 4129 
Q 3647 3509 3647 2328 
Q 3647 1150 3233 529 
Q 2819 -91 2034 -91 
Q 1250 -91 836 529 
Q 422 1150 422 2328 
Q 422 3509 836 4129 
Q 1250 4750 2034 4750 
z
" transform="scale(0.015625)"/>
       </defs>
       <use xlink:href="#DejaVuSans-30"/>
      </g>
     </g>
    </g>
    <g id="xtick_2">
     <g id="line2d_3">
      <path d="M 138.203887 307.584 
L 138.203887 41.472 
" clip-path="url(#p0c27a81415)" style="fill: none; stroke-dasharray: 1.85,0.8; stroke-dashoffset: 0; stroke: #b2b2b2; stroke-width: 0.5"/>
     </g>
     <g id="line2d_4">
      <g>
       <use xlink:href="#m7a3838c219" x="138.203887" y="307.584" style="stroke: #000000; stroke-width: 0.8"/>
      </g>
     </g>
     <g id="text_2">
      <!-- 50 -->
      <g transform="translate(131.841387 318.682437) scale(0.1 -0.1)">
       <defs>
        <path id="DejaVuSans-35" d="M 691 4666 
L 3169 4666 
L 3169 4134 
L 1269 4134 
L 1269 2991 
Q 1406 3038 1543 3061 
Q 1681 3084 1819 3084 
Q 2600 3084 3056 2656 
Q 3513 2228 3513 1497 
Q 3513 744 3044 326 
Q 2575 -91 1722 -91 
Q 1428 -91 1123 -41 
Q 819 9 494 109 
L 494 744 
Q 775 591 1075 516 
Q 1375 441 1709 441 
Q 2250 441 2565 725 
Q 2881 1009 2881 1497 
Q 2881 1984 2565 2268 
Q 2250 2553 1709 2553 
Q 1456 2553 1204 2497 
Q 953 2441 691 2322 
L 691 4666 
z
" transform="scale(0.015625)"/>
       </defs>
       <use xlink:href="#DejaVuSans-35"/>
       <use xlink:href="#DejaVuSans-30" x="63.623047"/>
      </g>
     </g>
    </g>
    <g id="xtick_3">
     <g id="line2d_5">
      <path d="M 194.178809 307.584 
L 194.178809 41.472 
" clip-path="url(#p0c27a81415)" style="fill: none; stroke-dasharray: 1.85,0.8; stroke-dashoffset: 0; stroke: #b2b2b2; stroke-width: 0.5"/>
     </g>
     <g id="line2d_6">
      <g>
       <use xlink:href="#m7a3838c219" x="194.178809" y="307.584" style="stroke: #000000; stroke-width: 0.8"/>
      </g>
     </g>
     <g id="text_3">
      <!-- 100 -->
      <g transform="translate(184.635059 318.682437) scale(0.1 -0.1)">
       <defs>
        <path id="DejaVuSans-31" d="M 794 531 
L 1825 531 
L 1825 4091 
L 703 3866 
L 703 4441 
L 1819 4666 
L 2450 4666 
L 2450 531 
L 3481 531 
L 3481 0 
L 794 0 
L 794 531 
z
" transform="scale(0.015625)"/>
       </defs>
       <use xlink:href="#DejaVuSans-31"/>
       <use xlink:href="#DejaVuSans-30" x="63.623047"/>
       <use xlink:href="#DejaVuSans-30" x="127.246094"/>
      </g>
     </g>
    </g>
    <g id="xtick_4">
     <g id="line2d_7">
      <path d="M 250.15373 307.584 
L 250.15373 41.472 
" clip-path="url(#p0c27a81415)" style="fill: none; stroke-dasharray: 1.85,0.8; stroke-dashoffset: 0; stroke: #b2b2b2; stroke-width: 0.5"/>
     </g>
     <g id="line2d_8">
      <g>
       <use xlink:href="#m7a3838c219" x="250.15373" y="307.584" style="stroke: #000000; stroke-width: 0.8"/>
      </g>
     </g>
     <g id="text_4">
      <!-- 150 -->
      <g transform="translate(240.60998 318.682437) scale(0.1 -0.1)">
       <use xlink:href="#DejaVuSans-31"/>
       <use xlink:href="#DejaVuSans-35" x="63.623047"/>
       <use xlink:href="#DejaVuSans-30" x="127.246094"/>
      </g>
     </g>
    </g>
    <g id="xtick_5">
     <g id="line2d_9">
      <path d="M 306.128652 307.584 
L 306.128652 41.472 
" clip-path="url(#p0c27a81415)" style="fill: none; stroke-dasharray: 1.85,0.8; stroke-dashoffset: 0; stroke: #b2b2b2; stroke-width: 0.5"/>
     </g>
     <g id="line2d_10">
      <g>
       <use xlink:href="#m7a3838c219" x="306.128652" y="307.584" style="stroke: #000000; stroke-width: 0.8"/>
      </g>
     </g>
     <g id="text_5">
      <!-- 200 -->
      <g transform="translate(296.584902 318.682437) scale(0.1 -0.1)">
       <defs>
        <path id="DejaVuSans-32" d="M 1228 531 
L 3431 531 
L 3431 0 
L 469 0 
L 469 531 
Q 828 903 1448 1529 
Q 2069 2156 2228 2338 
Q 2531 2678 2651 2914 
Q 2772 3150 2772 3378 
Q 2772 3750 2511 3984 
Q 2250 4219 1831 4219 
Q 1534 4219 1204 4116 
Q 875 4013 500 3803 
L 500 4441 
Q 881 4594 1212 4672 
Q 1544 4750 1819 4750 
Q 2544 4750 2975 4387 
Q 3406 4025 3406 3419 
Q 3406 3131 3298 2873 
Q 3191 2616 2906 2266 
Q 2828 2175 2409 1742 
Q 1991 1309 1228 531 
z
" transform="scale(0.015625)"/>
       </defs>
       <use xlink:href="#DejaVuSans-32"/>
       <use xlink:href="#DejaVuSans-30" x="63.623047"/>
       <use xlink:href="#DejaVuSans-30" x="127.246094"/>
      </g>
     </g>
    </g>
    <g id="xtick_6">
     <g id="line2d_11">
      <path d="M 362.103574 307.584 
L 362.103574 41.472 
" clip-path="url(#p0c27a81415)" style="fill: none; stroke-dasharray: 1.85,0.8; stroke-dashoffset: 0; stroke: #b2b2b2; stroke-width: 0.5"/>
     </g>
     <g id="line2d_12">
      <g>
       <use xlink:href="#m7a3838c219" x="362.103574" y="307.584" style="stroke: #000000; stroke-width: 0.8"/>
      </g>
     </g>
     <g id="text_6">
      <!-- 250 -->
      <g transform="translate(352.559824 318.682437) scale(0.1 -0.1)">
       <use xlink:href="#DejaVuSans-32"/>
       <use xlink:href="#DejaVuSans-35" x="63.623047"/>
       <use xlink:href="#DejaVuSans-30" x="127.246094"/>
      </g>
     </g>
    </g>
    <g id="text_7">
     <!-- $s$ -->
     <g transform="translate(233.34 333.88025) scale(0.12 -0.12)">
      <defs>
       <path id="Cmmi10-73" d="M 556 391 
Q 728 97 1247 97 
Q 1472 97 1675 173 
Q 1878 250 2011 403 
Q 2144 556 2144 775 
Q 2144 941 2025 1047 
Q 1906 1153 1734 1191 
L 1388 1259 
Q 1150 1319 997 1481 
Q 844 1644 844 1875 
Q 844 2159 998 2378 
Q 1153 2597 1406 2712 
Q 1659 2828 1931 2828 
Q 2222 2828 2451 2689 
Q 2681 2550 2681 2278 
Q 2681 2131 2598 2018 
Q 2516 1906 2369 1906 
Q 2284 1906 2223 1961 
Q 2163 2016 2163 2100 
Q 2163 2175 2205 2245 
Q 2247 2316 2317 2358 
Q 2388 2400 2463 2400 
Q 2406 2538 2251 2600 
Q 2097 2663 1919 2663 
Q 1756 2663 1593 2597 
Q 1431 2531 1332 2404 
Q 1234 2278 1234 2106 
Q 1234 1991 1315 1903 
Q 1397 1816 1516 1778 
L 1888 1703 
Q 2066 1666 2214 1570 
Q 2363 1475 2448 1329 
Q 2534 1184 2534 997 
Q 2534 759 2401 528 
Q 2269 297 2075 159 
Q 1734 -72 1241 -72 
Q 900 -72 615 84 
Q 331 241 331 550 
Q 331 725 432 854 
Q 534 984 709 984 
Q 813 984 883 921 
Q 953 859 953 756 
Q 953 609 843 500 
Q 734 391 588 391 
L 556 391 
z
" transform="scale(0.015625)"/>
      </defs>
      <use xlink:href="#Cmmi10-73" transform="translate(0 0.8125)"/>
     </g>
    </g>
   </g>
   <g id="matplotlib.axis_2">
    <g id="ytick_1">
     <g id="line2d_13">
      <path d="M 57.6 307.584 
L 414.72 307.584 
" clip-path="url(#p0c27a81415)" style="fill: none; stroke-dasharray: 1.85,0.8; stroke-dashoffset: 0; stroke: #b2b2b2; stroke-width: 0.5"/>
     </g>
     <g id="line2d_14">
      <defs>
       <path id="m6fd830fbc5" d="M 0 0 
L 3.5 0 
" style="stroke: #000000; stroke-width: 0.8"/>
      </defs>
      <g>
       <use xlink:href="#m6fd830fbc5" x="57.6" y="307.584" style="stroke: #000000; stroke-width: 0.8"/>
      </g>
     </g>
     <g id="text_8">
      <!-- 20 -->
      <g transform="translate(32.995312 311.383219) scale(0.1 -0.1)">
       <defs>
        <path id="DejaVuSans-2212" d="M 678 2272 
L 4684 2272 
L 4684 1741 
L 678 1741 
L 678 2272 
z
" transform="scale(0.015625)"/>
       </defs>
       <use xlink:href="#DejaVuSans-2212"/>
       <use xlink:href="#DejaVuSans-32" x="83.789062"/>
       <use xlink:href="#DejaVuSans-30" x="147.412109"/>
      </g>
     </g>
    </g>
    <g id="ytick_2">
     <g id="line2d_15">
      <path d="M 57.6 274.32 
L 414.72 274.32 
" clip-path="url(#p0c27a81415)" style="fill: none; stroke-dasharray: 1.85,0.8; stroke-dashoffset: 0; stroke: #b2b2b2; stroke-width: 0.5"/>
     </g>
     <g id="line2d_16">
      <g>
       <use xlink:href="#m6fd830fbc5" x="57.6" y="274.32" style="stroke: #000000; stroke-width: 0.8"/>
      </g>
     </g>
     <g id="text_9">
      <!-- 15 -->
      <g transform="translate(32.995312 278.119219) scale(0.1 -0.1)">
       <use xlink:href="#DejaVuSans-2212"/>
       <use xlink:href="#DejaVuSans-31" x="83.789062"/>
       <use xlink:href="#DejaVuSans-35" x="147.412109"/>
      </g>
     </g>
    </g>
    <g id="ytick_3">
     <g id="line2d_17">
      <path d="M 57.6 241.056 
L 414.72 241.056 
" clip-path="url(#p0c27a81415)" style="fill: none; stroke-dasharray: 1.85,0.8; stroke-dashoffset: 0; stroke: #b2b2b2; stroke-width: 0.5"/>
     </g>
     <g id="line2d_18">
      <g>
       <use xlink:href="#m6fd830fbc5" x="57.6" y="241.056" style="stroke: #000000; stroke-width: 0.8"/>
      </g>
     </g>
     <g id="text_10">
      <!-- 10 -->
      <g transform="translate(32.995312 244.855219) scale(0.1 -0.1)">
       <use xlink:href="#DejaVuSans-2212"/>
       <use xlink:href="#DejaVuSans-31" x="83.789062"/>
       <use xlink:href="#DejaVuSans-30" x="147.412109"/>
      </g>
     </g>
    </g>
    <g id="ytick_4">
     <g id="line2d_19">
      <path d="M 57.6 207.792 
L 414.72 207.792 
" clip-path="url(#p0c27a81415)" style="fill: none; stroke-dasharray: 1.85,0.8; stroke-dashoffset: 0; stroke: #b2b2b2; stroke-width: 0.5"/>
     </g>
     <g id="line2d_20">
      <g>
       <use xlink:href="#m6fd830fbc5" x="57.6" y="207.792" style="stroke: #000000; stroke-width: 0.8"/>
      </g>
     </g>
     <g id="text_11">
      <!-- 5 -->
      <g transform="translate(39.357813 211.591219) scale(0.1 -0.1)">
       <use xlink:href="#DejaVuSans-2212"/>
       <use xlink:href="#DejaVuSans-35" x="83.789062"/>
      </g>
     </g>
    </g>
    <g id="ytick_5">
     <g id="line2d_21">
      <path d="M 57.6 174.528 
L 414.72 174.528 
" clip-path="url(#p0c27a81415)" style="fill: none; stroke-dasharray: 1.85,0.8; stroke-dashoffset: 0; stroke: #b2b2b2; stroke-width: 0.5"/>
     </g>
     <g id="line2d_22">
      <g>
       <use xlink:href="#m6fd830fbc5" x="57.6" y="174.528" style="stroke: #000000; stroke-width: 0.8"/>
      </g>
     </g>
     <g id="text_12">
      <!-- 0 -->
      <g transform="translate(47.7375 178.327219) scale(0.1 -0.1)">
       <use xlink:href="#DejaVuSans-30"/>
      </g>
     </g>
    </g>
    <g id="ytick_6">
     <g id="line2d_23">
      <path d="M 57.6 141.264 
L 414.72 141.264 
" clip-path="url(#p0c27a81415)" style="fill: none; stroke-dasharray: 1.85,0.8; stroke-dashoffset: 0; stroke: #b2b2b2; stroke-width: 0.5"/>
     </g>
     <g id="line2d_24">
      <g>
       <use xlink:href="#m6fd830fbc5" x="57.6" y="141.264" style="stroke: #000000; stroke-width: 0.8"/>
      </g>
     </g>
     <g id="text_13">
      <!-- 5 -->
      <g transform="translate(47.7375 145.063219) scale(0.1 -0.1)">
       <use xlink:href="#DejaVuSans-35"/>
      </g>
     </g>
    </g>
    <g id="ytick_7">
     <g id="line2d_25">
      <path d="M 57.6 108 
L 414.72 108 
" clip-path="url(#p0c27a81415)" style="fill: none; stroke-dasharray: 1.85,0.8; stroke-dashoffset: 0; stroke: #b2b2b2; stroke-width: 0.5"/>
     </g>
     <g id="line2d_26">
      <g>
       <use xlink:href="#m6fd830fbc5" x="57.6" y="108" style="stroke: #000000; stroke-width: 0.8"/>
      </g>
     </g>
     <g id="text_14">
      <!-- 10 -->
      <g transform="translate(41.375 111.799219) scale(0.1 -0.1)">
       <use xlink:href="#DejaVuSans-31"/>
       <use xlink:href="#DejaVuSans-30" x="63.623047"/>
      </g>
     </g>
    </g>
    <g id="ytick_8">
     <g id="line2d_27">
      <path d="M 57.6 74.736 
L 414.72 74.736 
" clip-path="url(#p0c27a81415)" style="fill: none; stroke-dasharray: 1.85,0.8; stroke-dashoffset: 0; stroke: #b2b2b2; stroke-width: 0.5"/>
     </g>
     <g id="line2d_28">
      <g>
       <use xlink:href="#m6fd830fbc5" x="57.6" y="74.736" style="stroke: #000000; stroke-width: 0.8"/>
      </g>
     </g>
     <g id="text_15">
      <!-- 15 -->
      <g transform="translate(41.375 78.535219) scale(0.1 -0.1)">
       <use xlink:href="#DejaVuSans-31"/>
       <use xlink:href="#DejaVuSans-35" x="63.623047"/>
      </g>
     </g>
    </g>
    <g id="ytick_9">
     <g id="line2d_29">
      <path d="M 57.6 41.472 
L 414.72 41.472 
" clip-path="url(#p0c27a81415)" style="fill: none; stroke-dasharray: 1.85,0.8; stroke-dashoffset: 0; stroke: #b2b2b2; stroke-width: 0.5"/>
     </g>
     <g id="line2d_30">
      <g>
       <use xlink:href="#m6fd830fbc5" x="57.6" y="41.472" style="stroke: #000000; stroke-width: 0.8"/>
      </g>
     </g>
     <g id="text_16">
      <!-- 20 -->
      <g transform="translate(41.375 45.271219) scale(0.1 -0.1)">
       <use xlink:href="#DejaVuSans-32"/>
       <use xlink:href="#DejaVuSans-30" x="63.623047"/>
      </g>
     </g>
    </g>
    <g id="text_17">
     <!-- $x_{s}$ -->
     <g transform="translate(26.499687 180.348) rotate(-90) scale(0.12 -0.12)">
      <defs>
       <path id="Cmmi10-78" d="M 500 184 
Q 613 97 819 97 
Q 1019 97 1172 289 
Q 1325 481 1381 709 
L 1672 1844 
Q 1741 2153 1741 2266 
Q 1741 2425 1652 2544 
Q 1563 2663 1403 2663 
Q 1200 2663 1022 2536 
Q 844 2409 722 2214 
Q 600 2019 550 1819 
Q 538 1778 500 1778 
L 422 1778 
Q 372 1778 372 1838 
L 372 1856 
Q 434 2094 584 2320 
Q 734 2547 951 2687 
Q 1169 2828 1416 2828 
Q 1650 2828 1839 2703 
Q 2028 2578 2106 2363 
Q 2216 2559 2386 2693 
Q 2556 2828 2759 2828 
Q 2897 2828 3040 2779 
Q 3184 2731 3275 2631 
Q 3366 2531 3366 2381 
Q 3366 2219 3261 2101 
Q 3156 1984 2994 1984 
Q 2891 1984 2822 2050 
Q 2753 2116 2753 2216 
Q 2753 2350 2845 2451 
Q 2938 2553 3066 2572 
Q 2950 2663 2747 2663 
Q 2541 2663 2389 2472 
Q 2238 2281 2175 2047 
L 1894 916 
Q 1825 659 1825 494 
Q 1825 331 1917 214 
Q 2009 97 2163 97 
Q 2463 97 2698 361 
Q 2934 625 3009 941 
Q 3022 978 3059 978 
L 3138 978 
Q 3163 978 3178 961 
Q 3194 944 3194 922 
Q 3194 916 3188 903 
Q 3097 522 2806 225 
Q 2516 -72 2150 -72 
Q 1916 -72 1727 54 
Q 1538 181 1459 397 
Q 1359 209 1182 68 
Q 1006 -72 806 -72 
Q 669 -72 523 -23 
Q 378 25 287 125 
Q 197 225 197 378 
Q 197 528 301 651 
Q 406 775 563 775 
Q 669 775 741 711 
Q 813 647 813 544 
Q 813 409 723 309 
Q 634 209 500 184 
z
" transform="scale(0.015625)"/>
      </defs>
      <use xlink:href="#Cmmi10-78" transform="translate(0 0.8125)"/>
      <use xlink:href="#Cmmi10-73" transform="translate(57.080078 -16.19375) scale(0.7)"/>
     </g>
    </g>
   </g>
   <g id="LineCollection_1">
    <path d="M 282.619185 307.584 
L 282.619185 41.472 
" clip-path="url(#p0c27a81415)" style="fill: none; stroke-dasharray: 7.4,3.2; stroke-dashoffset: 0; stroke: #ff0000; stroke-width: 2"/>
   </g>
   <g id="LineCollection_2">
    <path d="M 78.030846 149.626444 
L 86.427085 149.626444 
" clip-path="url(#p0c27a81415)" style="fill: none; stroke: #348abd; stroke-width: 2"/>
    <path d="M 106.018307 147.008696 
L 114.414545 147.008696 
" clip-path="url(#p0c27a81415)" style="fill: none; stroke: #348abd; stroke-width: 2"/>
    <path d="M 134.005768 141.894116 
L 142.402006 141.894116 
" clip-path="url(#p0c27a81415)" style="fill: none; stroke: #348abd; stroke-width: 2"/>
    <path d="M 161.993229 135.510303 
L 170.389467 135.510303 
" clip-path="url(#p0c27a81415)" style="fill: none; stroke: #348abd; stroke-width: 2"/>
    <path d="M 189.98069 130.287105 
L 198.376928 130.287105 
" clip-path="url(#p0c27a81415)" style="fill: none; stroke: #348abd; stroke-width: 2"/>
    <path d="M 217.96815 117.33467 
L 226.364389 117.33467 
" clip-path="url(#p0c27a81415)" style="fill: none; stroke: #348abd; stroke-width: 2"/>
    <path d="M 245.955611 106.775536 
L 254.35185 106.775536 
" clip-path="url(#p0c27a81415)" style="fill: none; stroke: #348abd; stroke-width: 2"/>
    <path d="M 273.943072 89.598232 
L 282.33931 89.598232 
" clip-path="url(#p0c27a81415)" style="fill: none; stroke: #348abd; stroke-width: 2"/>
    <path d="M 301.930533 72.335139 
L 310.326771 72.335139 
" clip-path="url(#p0c27a81415)" style="fill: none; stroke: #348abd; stroke-width: 2"/>
    <path d="M 329.917994 53.458783 
L 338.314232 53.458783 
" clip-path="url(#p0c27a81415)" style="fill: none; stroke: #348abd; stroke-width: 2"/>
    <path d="M 357.905455 37.451516 
L 366.301693 37.451516 
" clip-path="url(#p0c27a81415)" style="fill: none; stroke: #348abd; stroke-width: 2"/>
    <path d="M 385.892915 21.972526 
L 394.289154 21.972526 
" clip-path="url(#p0c27a81415)" style="fill: none; stroke: #348abd; stroke-width: 2"/>
   </g>
   <g id="LineCollection_3">
    <path d="M 78.030846 202.005943 
L 86.427085 202.005943 
" clip-path="url(#p0c27a81415)" style="fill: none; stroke: #348abd; stroke-width: 2"/>
    <path d="M 106.018307 205.701597 
L 114.414545 205.701597 
" clip-path="url(#p0c27a81415)" style="fill: none; stroke: #348abd; stroke-width: 2"/>
    <path d="M 134.005768 210.595237 
L 142.402006 210.595237 
" clip-path="url(#p0c27a81415)" style="fill: none; stroke: #348abd; stroke-width: 2"/>
    <path d="M 161.993229 216.274205 
L 170.389467 216.274205 
" clip-path="url(#p0c27a81415)" style="fill: none; stroke: #348abd; stroke-width: 2"/>
    <path d="M 189.98069 224.030854 
L 198.376928 224.030854 
" clip-path="url(#p0c27a81415)" style="fill: none; stroke: #348abd; stroke-width: 2"/>
    <path d="M 217.96815 230.45781 
L 226.364389 230.45781 
" clip-path="url(#p0c27a81415)" style="fill: none; stroke: #348abd; stroke-width: 2"/>
    <path d="M 245.955611 240.721197 
L 254.35185 240.721197 
" clip-path="url(#p0c27a81415)" style="fill: none; stroke: #348abd; stroke-width: 2"/>
    <path d="M 273.943072 252.687454 
L 282.33931 252.687454 
" clip-path="url(#p0c27a81415)" style="fill: none; stroke: #348abd; stroke-width: 2"/>
    <path d="M 301.930533 266.903765 
L 310.326771 266.903765 
" clip-path="url(#p0c27a81415)" style="fill: none; stroke: #348abd; stroke-width: 2"/>
    <path d="M 329.917994 281.235806 
L 338.314232 281.235806 
" clip-path="url(#p0c27a81415)" style="fill: none; stroke: #348abd; stroke-width: 2"/>
    <path d="M 357.905455 301.017996 
L 366.301693 301.017996 
" clip-path="url(#p0c27a81415)" style="fill: none; stroke: #348abd; stroke-width: 2"/>
    <path d="M 385.892915 311.239328 
L 394.289154 311.239328 
" clip-path="url(#p0c27a81415)" style="fill: none; stroke: #348abd; stroke-width: 2"/>
   </g>
   <g id="LineCollection_4">
    <path d="M 82.228966 202.005943 
L 82.228966 149.626444 
" clip-path="url(#p0c27a81415)" style="fill: none; stroke: #348abd; stroke-width: 2"/>
    <path d="M 110.216426 205.701597 
L 110.216426 147.008696 
" clip-path="url(#p0c27a81415)" style="fill: none; stroke: #348abd; stroke-width: 2"/>
    <path d="M 138.203887 210.595237 
L 138.203887 141.894116 
" clip-path="url(#p0c27a81415)" style="fill: none; stroke: #348abd; stroke-width: 2"/>
    <path d="M 166.191348 216.274205 
L 166.191348 135.510303 
" clip-path="url(#p0c27a81415)" style="fill: none; stroke: #348abd; stroke-width: 2"/>
    <path d="M 194.178809 224.030854 
L 194.178809 130.287105 
" clip-path="url(#p0c27a81415)" style="fill: none; stroke: #348abd; stroke-width: 2"/>
    <path d="M 222.16627 230.45781 
L 222.16627 117.33467 
" clip-path="url(#p0c27a81415)" style="fill: none; stroke: #348abd; stroke-width: 2"/>
    <path d="M 250.15373 240.721197 
L 250.15373 106.775536 
" clip-path="url(#p0c27a81415)" style="fill: none; stroke: #348abd; stroke-width: 2"/>
    <path d="M 278.141191 252.687454 
L 278.141191 89.598232 
" clip-path="url(#p0c27a81415)" style="fill: none; stroke: #348abd; stroke-width: 2"/>
    <path d="M 306.128652 266.903765 
L 306.128652 72.335139 
" clip-path="url(#p0c27a81415)" style="fill: none; stroke: #348abd; stroke-width: 2"/>
    <path d="M 334.116113 281.235806 
L 334.116113 53.458783 
" clip-path="url(#p0c27a81415)" style="fill: none; stroke: #348abd; stroke-width: 2"/>
    <path d="M 362.103574 301.017996 
L 362.103574 37.451516 
" clip-path="url(#p0c27a81415)" style="fill: none; stroke: #348abd; stroke-width: 2"/>
    <path d="M 390.091034 311.239328 
L 390.091034 21.972526 
" clip-path="url(#p0c27a81415)" style="fill: none; stroke: #348abd; stroke-width: 2"/>
   </g>
   <g id="patch_3">
    <path d="M 57.6 307.584 
L 57.6 41.472 
" style="fill: none; stroke: #bcbcbc; stroke-width: 0.8; stroke-linejoin: miter; stroke-linecap: square"/>
   </g>
   <g id="patch_4">
    <path d="M 414.72 307.584 
L 414.72 41.472 
" style="fill: none; stroke: #bcbcbc; stroke-width: 0.8; stroke-linejoin: miter; stroke-linecap: square"/>
   </g>
   <g id="patch_5">
    <path d="M 57.6 307.584 
L 414.72 307.584 
" style="fill: none; stroke: #bcbcbc; stroke-width: 0.8; stroke-linejoin: miter; stroke-linecap: square"/>
   </g>
   <g id="patch_6">
    <path d="M 57.6 41.472 
L 414.72 41.472 
" style="fill: none; stroke: #bcbcbc; stroke-width: 0.8; stroke-linejoin: miter; stroke-linecap: square"/>
   </g>
   <g id="text_18">
    <!-- Violin plot of critical time n = 10000 -->
    <g transform="translate(105.789375 35.472) scale(0.144 -0.144)">
     <defs>
      <path id="DejaVuSans-56" d="M 1831 0 
L 50 4666 
L 709 4666 
L 2188 738 
L 3669 4666 
L 4325 4666 
L 2547 0 
L 1831 0 
z
" transform="scale(0.015625)"/>
      <path id="DejaVuSans-69" d="M 603 3500 
L 1178 3500 
L 1178 0 
L 603 0 
L 603 3500 
z
M 603 4863 
L 1178 4863 
L 1178 4134 
L 603 4134 
L 603 4863 
z
" transform="scale(0.015625)"/>
      <path id="DejaVuSans-6f" d="M 1959 3097 
Q 1497 3097 1228 2736 
Q 959 2375 959 1747 
Q 959 1119 1226 758 
Q 1494 397 1959 397 
Q 2419 397 2687 759 
Q 2956 1122 2956 1747 
Q 2956 2369 2687 2733 
Q 2419 3097 1959 3097 
z
M 1959 3584 
Q 2709 3584 3137 3096 
Q 3566 2609 3566 1747 
Q 3566 888 3137 398 
Q 2709 -91 1959 -91 
Q 1206 -91 779 398 
Q 353 888 353 1747 
Q 353 2609 779 3096 
Q 1206 3584 1959 3584 
z
" transform="scale(0.015625)"/>
      <path id="DejaVuSans-6c" d="M 603 4863 
L 1178 4863 
L 1178 0 
L 603 0 
L 603 4863 
z
" transform="scale(0.015625)"/>
      <path id="DejaVuSans-6e" d="M 3513 2113 
L 3513 0 
L 2938 0 
L 2938 2094 
Q 2938 2591 2744 2837 
Q 2550 3084 2163 3084 
Q 1697 3084 1428 2787 
Q 1159 2491 1159 1978 
L 1159 0 
L 581 0 
L 581 3500 
L 1159 3500 
L 1159 2956 
Q 1366 3272 1645 3428 
Q 1925 3584 2291 3584 
Q 2894 3584 3203 3211 
Q 3513 2838 3513 2113 
z
" transform="scale(0.015625)"/>
      <path id="DejaVuSans-20" transform="scale(0.015625)"/>
      <path id="DejaVuSans-70" d="M 1159 525 
L 1159 -1331 
L 581 -1331 
L 581 3500 
L 1159 3500 
L 1159 2969 
Q 1341 3281 1617 3432 
Q 1894 3584 2278 3584 
Q 2916 3584 3314 3078 
Q 3713 2572 3713 1747 
Q 3713 922 3314 415 
Q 2916 -91 2278 -91 
Q 1894 -91 1617 61 
Q 1341 213 1159 525 
z
M 3116 1747 
Q 3116 2381 2855 2742 
Q 2594 3103 2138 3103 
Q 1681 3103 1420 2742 
Q 1159 2381 1159 1747 
Q 1159 1113 1420 752 
Q 1681 391 2138 391 
Q 2594 391 2855 752 
Q 3116 1113 3116 1747 
z
" transform="scale(0.015625)"/>
      <path id="DejaVuSans-74" d="M 1172 4494 
L 1172 3500 
L 2356 3500 
L 2356 3053 
L 1172 3053 
L 1172 1153 
Q 1172 725 1289 603 
Q 1406 481 1766 481 
L 2356 481 
L 2356 0 
L 1766 0 
Q 1100 0 847 248 
Q 594 497 594 1153 
L 594 3053 
L 172 3053 
L 172 3500 
L 594 3500 
L 594 4494 
L 1172 4494 
z
" transform="scale(0.015625)"/>
      <path id="DejaVuSans-66" d="M 2375 4863 
L 2375 4384 
L 1825 4384 
Q 1516 4384 1395 4259 
Q 1275 4134 1275 3809 
L 1275 3500 
L 2222 3500 
L 2222 3053 
L 1275 3053 
L 1275 0 
L 697 0 
L 697 3053 
L 147 3053 
L 147 3500 
L 697 3500 
L 697 3744 
Q 697 4328 969 4595 
Q 1241 4863 1831 4863 
L 2375 4863 
z
" transform="scale(0.015625)"/>
      <path id="DejaVuSans-63" d="M 3122 3366 
L 3122 2828 
Q 2878 2963 2633 3030 
Q 2388 3097 2138 3097 
Q 1578 3097 1268 2742 
Q 959 2388 959 1747 
Q 959 1106 1268 751 
Q 1578 397 2138 397 
Q 2388 397 2633 464 
Q 2878 531 3122 666 
L 3122 134 
Q 2881 22 2623 -34 
Q 2366 -91 2075 -91 
Q 1284 -91 818 406 
Q 353 903 353 1747 
Q 353 2603 823 3093 
Q 1294 3584 2113 3584 
Q 2378 3584 2631 3529 
Q 2884 3475 3122 3366 
z
" transform="scale(0.015625)"/>
      <path id="DejaVuSans-72" d="M 2631 2963 
Q 2534 3019 2420 3045 
Q 2306 3072 2169 3072 
Q 1681 3072 1420 2755 
Q 1159 2438 1159 1844 
L 1159 0 
L 581 0 
L 581 3500 
L 1159 3500 
L 1159 2956 
Q 1341 3275 1631 3429 
Q 1922 3584 2338 3584 
Q 2397 3584 2469 3576 
Q 2541 3569 2628 3553 
L 2631 2963 
z
" transform="scale(0.015625)"/>
      <path id="DejaVuSans-61" d="M 2194 1759 
Q 1497 1759 1228 1600 
Q 959 1441 959 1056 
Q 959 750 1161 570 
Q 1363 391 1709 391 
Q 2188 391 2477 730 
Q 2766 1069 2766 1631 
L 2766 1759 
L 2194 1759 
z
M 3341 1997 
L 3341 0 
L 2766 0 
L 2766 531 
Q 2569 213 2275 61 
Q 1981 -91 1556 -91 
Q 1019 -91 701 211 
Q 384 513 384 1019 
Q 384 1609 779 1909 
Q 1175 2209 1959 2209 
L 2766 2209 
L 2766 2266 
Q 2766 2663 2505 2880 
Q 2244 3097 1772 3097 
Q 1472 3097 1187 3025 
Q 903 2953 641 2809 
L 641 3341 
Q 956 3463 1253 3523 
Q 1550 3584 1831 3584 
Q 2591 3584 2966 3190 
Q 3341 2797 3341 1997 
z
" transform="scale(0.015625)"/>
      <path id="DejaVuSans-6d" d="M 3328 2828 
Q 3544 3216 3844 3400 
Q 4144 3584 4550 3584 
Q 5097 3584 5394 3201 
Q 5691 2819 5691 2113 
L 5691 0 
L 5113 0 
L 5113 2094 
Q 5113 2597 4934 2840 
Q 4756 3084 4391 3084 
Q 3944 3084 3684 2787 
Q 3425 2491 3425 1978 
L 3425 0 
L 2847 0 
L 2847 2094 
Q 2847 2600 2669 2842 
Q 2491 3084 2119 3084 
Q 1678 3084 1418 2786 
Q 1159 2488 1159 1978 
L 1159 0 
L 581 0 
L 581 3500 
L 1159 3500 
L 1159 2956 
Q 1356 3278 1631 3431 
Q 1906 3584 2284 3584 
Q 2666 3584 2933 3390 
Q 3200 3197 3328 2828 
z
" transform="scale(0.015625)"/>
      <path id="DejaVuSans-65" d="M 3597 1894 
L 3597 1613 
L 953 1613 
Q 991 1019 1311 708 
Q 1631 397 2203 397 
Q 2534 397 2845 478 
Q 3156 559 3463 722 
L 3463 178 
Q 3153 47 2828 -22 
Q 2503 -91 2169 -91 
Q 1331 -91 842 396 
Q 353 884 353 1716 
Q 353 2575 817 3079 
Q 1281 3584 2069 3584 
Q 2775 3584 3186 3129 
Q 3597 2675 3597 1894 
z
M 3022 2063 
Q 3016 2534 2758 2815 
Q 2500 3097 2075 3097 
Q 1594 3097 1305 2825 
Q 1016 2553 972 2059 
L 3022 2063 
z
" transform="scale(0.015625)"/>
      <path id="DejaVuSans-3d" d="M 678 2906 
L 4684 2906 
L 4684 2381 
L 678 2381 
L 678 2906 
z
M 678 1631 
L 4684 1631 
L 4684 1100 
L 678 1100 
L 678 1631 
z
" transform="scale(0.015625)"/>
     </defs>
     <use xlink:href="#DejaVuSans-56"/>
     <use xlink:href="#DejaVuSans-69" x="66.158203"/>
     <use xlink:href="#DejaVuSans-6f" x="93.941406"/>
     <use xlink:href="#DejaVuSans-6c" x="155.123047"/>
     <use xlink:href="#DejaVuSans-69" x="182.90625"/>
     <use xlink:href="#DejaVuSans-6e" x="210.689453"/>
     <use xlink:href="#DejaVuSans-20" x="274.068359"/>
     <use xlink:href="#DejaVuSans-70" x="305.855469"/>
     <use xlink:href="#DejaVuSans-6c" x="369.332031"/>
     <use xlink:href="#DejaVuSans-6f" x="397.115234"/>
     <use xlink:href="#DejaVuSans-74" x="458.296875"/>
     <use xlink:href="#DejaVuSans-20" x="497.505859"/>
     <use xlink:href="#DejaVuSans-6f" x="529.292969"/>
     <use xlink:href="#DejaVuSans-66" x="590.474609"/>
     <use xlink:href="#DejaVuSans-20" x="625.679688"/>
     <use xlink:href="#DejaVuSans-63" x="657.466797"/>
     <use xlink:href="#DejaVuSans-72" x="712.447266"/>
     <use xlink:href="#DejaVuSans-69" x="753.560547"/>
     <use xlink:href="#DejaVuSans-74" x="781.34375"/>
     <use xlink:href="#DejaVuSans-69" x="820.552734"/>
     <use xlink:href="#DejaVuSans-63" x="848.335938"/>
     <use xlink:href="#DejaVuSans-61" x="903.316406"/>
     <use xlink:href="#DejaVuSans-6c" x="964.595703"/>
     <use xlink:href="#DejaVuSans-20" x="992.378906"/>
     <use xlink:href="#DejaVuSans-74" x="1024.166016"/>
     <use xlink:href="#DejaVuSans-69" x="1063.375"/>
     <use xlink:href="#DejaVuSans-6d" x="1091.158203"/>
     <use xlink:href="#DejaVuSans-65" x="1188.570312"/>
     <use xlink:href="#DejaVuSans-20" x="1250.09375"/>
     <use xlink:href="#DejaVuSans-6e" x="1281.880859"/>
     <use xlink:href="#DejaVuSans-20" x="1345.259766"/>
     <use xlink:href="#DejaVuSans-3d" x="1377.046875"/>
     <use xlink:href="#DejaVuSans-20" x="1460.835938"/>
     <use xlink:href="#DejaVuSans-31" x="1492.623047"/>
     <use xlink:href="#DejaVuSans-30" x="1556.246094"/>
     <use xlink:href="#DejaVuSans-30" x="1619.869141"/>
     <use xlink:href="#DejaVuSans-30" x="1683.492188"/>
     <use xlink:href="#DejaVuSans-30" x="1747.115234"/>
    </g>
   </g>
   <g id="legend_1">
    <g id="patch_7">
     <path d="M 66 68.68575 
L 175.513125 68.68575 
Q 177.913125 68.68575 177.913125 66.28575 
L 177.913125 49.872 
Q 177.913125 47.472 175.513125 47.472 
L 66 47.472 
Q 63.6 47.472 63.6 49.872 
L 63.6 66.28575 
Q 63.6 68.68575 66 68.68575 
z
" style="fill: #eeeeee; opacity: 0.8; stroke: #cccccc; stroke-width: 0.5; stroke-linejoin: miter"/>
    </g>
    <g id="line2d_31">
     <path d="M 68.4 57.190125 
L 92.4 57.190125 
" style="fill: none; stroke-dasharray: 7.4,3.2; stroke-dashoffset: 0; stroke: #ff0000; stroke-width: 2"/>
    </g>
    <g id="text_19">
     <!-- critical time -->
     <g transform="translate(102 61.390125) scale(0.12 -0.12)">
      <use xlink:href="#DejaVuSans-63"/>
      <use xlink:href="#DejaVuSans-72" x="54.980469"/>
      <use xlink:href="#DejaVuSans-69" x="96.09375"/>
      <use xlink:href="#DejaVuSans-74" x="123.876953"/>
      <use xlink:href="#DejaVuSans-69" x="163.085938"/>
      <use xlink:href="#DejaVuSans-63" x="190.869141"/>
      <use xlink:href="#DejaVuSans-61" x="245.849609"/>
      <use xlink:href="#DejaVuSans-6c" x="307.128906"/>
      <use xlink:href="#DejaVuSans-20" x="334.912109"/>
      <use xlink:href="#DejaVuSans-74" x="366.699219"/>
      <use xlink:href="#DejaVuSans-69" x="405.908203"/>
      <use xlink:href="#DejaVuSans-6d" x="433.691406"/>
      <use xlink:href="#DejaVuSans-65" x="531.103516"/>
     </g>
    </g>
   </g>
  </g>
 </g>
 <defs>
  <clipPath id="p0c27a81415">
   <rect x="57.6" y="41.472" width="357.12" height="266.112"/>
  </clipPath>
 </defs>
</svg>
