<?xml version="1.0" encoding="utf-8" standalone="no"?>
<!DOCTYPE svg PUBLIC "-//W3C//DTD SVG 1.1//EN"
  "http://www.w3.org/Graphics/SVG/1.1/DTD/svg11.dtd">
<svg xmlns:xlink="http://www.w3.org/1999/xlink" width="460.8pt" height="345.6pt" viewBox="0 0 460.8 345.6" xmlns="http://www.w3.org/2000/svg" version="1.1">
 <metadata>
  <rdf:RDF xmlns:dc="http://purl.org/dc/elements/1.1/" xmlns:cc="http://creativecommons.org/ns#" xmlns:rdf="http://www.w3.org/1999/02/22-rdf-syntax-ns#">
   <cc:Work>
    <dc:type rdf:resource="http://purl.org/dc/dcmitype/StillImage"/>
    <dc:date>2025-08-11T12:03:28.833156</dc:date>
    <dc:format>image/svg+xml</dc:format>
    <dc:creator>
     <cc:Agent>
      <dc:title>Matplotlib v3.9.2, https://matplotlib.org/</dc:title>
     </cc:Agent>
    </dc:creator>
   </cc:Work>
  </rdf:RDF>
 </metadata>
 <defs>
  <style type="text/css">*{stroke-linejoin: round; stroke-linecap: butt}</style>
 </defs>
 <g id="figure_1">
  <g id="patch_1">
   <path d="M 0 345.6 
L 460.8 345.6 
L 460.8 0 
L 0 0 
z
" style="fill: #ffffff"/>
  </g>
  <g id="axes_1">
   <g id="patch_2">
    <path d="M 57.6 307.584 
L 414.72 307.584 
L 414.72 41.472 
L 57.6 41.472 
z
" style="fill: #eeeeee"/>
   </g>
   <g id="PolyCollection_1">
    <path d="M 82.292919 196.244773 
L 82.165012 196.244773 
L 82.162684 195.794764 
L 82.161016 195.344755 
L 82.158313 194.894746 
L 82.152459 194.444736 
L 82.141204 193.994727 
L 82.122441 193.544718 
L 82.094383 193.094709 
L 82.055636 192.644699 
L 82.005216 192.19469 
L 81.942573 191.744681 
L 81.8677 191.294672 
L 81.781299 190.844663 
L 81.684936 190.394653 
L 81.581013 189.944644 
L 81.472418 189.494635 
L 81.3618 189.044626 
L 81.250585 188.594617 
L 81.13801 188.144607 
L 81.020557 187.694598 
L 80.892077 187.244589 
L 80.744693 186.79458 
L 80.570327 186.34457 
L 80.362436 185.894561 
L 80.117513 185.444552 
L 79.835968 184.994543 
L 79.522199 184.544534 
L 79.183863 184.094524 
L 78.830509 183.644515 
L 78.471864 183.194506 
L 78.116156 182.744497 
L 77.768905 182.294488 
L 77.432518 181.844478 
L 77.106836 181.394469 
L 76.790361 180.94446 
L 76.481656 180.494451 
L 76.18029 180.044442 
L 75.887012 179.594432 
L 75.603266 179.144423 
L 75.330547 178.694414 
L 75.070162 178.244405 
L 74.823606 177.794395 
L 74.593345 177.344386 
L 74.383422 176.894377 
L 74.199415 176.444368 
L 74.047603 175.994359 
L 73.933668 175.544349 
L 73.861522 175.09434 
L 73.832727 174.644331 
L 73.846649 174.194322 
L 73.901165 173.744313 
L 73.993526 173.294303 
L 74.121074 172.844294 
L 74.28164 172.394285 
L 74.473643 171.944276 
L 74.695956 171.494266 
L 74.947615 171.044257 
L 75.22742 170.594248 
L 75.5335 170.144239 
L 75.862967 169.69423 
L 76.211791 169.24422 
L 76.574994 168.794211 
L 76.947146 168.344202 
L 77.323016 167.894193 
L 77.698149 167.444184 
L 78.069146 166.994174 
L 78.433567 166.544165 
L 78.789498 166.094156 
L 79.13497 165.644147 
L 79.467418 165.194137 
L 79.783338 164.744128 
L 80.078251 164.294119 
L 80.347011 163.84411 
L 80.584517 163.394101 
L 80.786772 162.944091 
L 80.952083 162.494082 
L 81.082045 162.044073 
L 81.181868 161.594064 
L 81.259759 161.144055 
L 81.325401 160.694045 
L 81.387938 160.244036 
L 81.454086 159.794027 
L 81.526968 159.344018 
L 81.605975 158.894008 
L 81.687606 158.443999 
L 81.76692 157.99399 
L 81.839098 157.543981 
L 81.900662 157.093972 
L 81.950085 156.643962 
L 81.987732 156.193953 
L 82.015287 155.743944 
L 82.034978 155.293935 
L 82.048903 154.843926 
L 82.05868 154.393916 
L 82.065478 153.943907 
L 82.070296 153.493898 
L 82.074253 153.043889 
L 82.078693 152.59388 
L 82.085024 152.14387 
L 82.09436 151.693861 
L 82.363571 151.693861 
L 82.363571 151.693861 
L 82.372907 152.14387 
L 82.379238 152.59388 
L 82.383678 153.043889 
L 82.387635 153.493898 
L 82.392453 153.943907 
L 82.399251 154.393916 
L 82.409028 154.843926 
L 82.422953 155.293935 
L 82.442644 155.743944 
L 82.470199 156.193953 
L 82.507846 156.643962 
L 82.557269 157.093972 
L 82.618833 157.543981 
L 82.691011 157.99399 
L 82.770325 158.443999 
L 82.851957 158.894008 
L 82.930963 159.344018 
L 83.003845 159.794027 
L 83.069993 160.244036 
L 83.13253 160.694045 
L 83.198172 161.144055 
L 83.276063 161.594064 
L 83.375886 162.044073 
L 83.505848 162.494082 
L 83.671159 162.944091 
L 83.873414 163.394101 
L 84.11092 163.84411 
L 84.37968 164.294119 
L 84.674593 164.744128 
L 84.990514 165.194137 
L 85.322961 165.644147 
L 85.668433 166.094156 
L 86.024364 166.544165 
L 86.388785 166.994174 
L 86.759782 167.444184 
L 87.134915 167.894193 
L 87.510785 168.344202 
L 87.882937 168.794211 
L 88.24614 169.24422 
L 88.594964 169.69423 
L 88.924431 170.144239 
L 89.230511 170.594248 
L 89.510316 171.044257 
L 89.761975 171.494266 
L 89.984288 171.944276 
L 90.176291 172.394285 
L 90.336857 172.844294 
L 90.464405 173.294303 
L 90.556766 173.744313 
L 90.611282 174.194322 
L 90.625204 174.644331 
L 90.596409 175.09434 
L 90.524264 175.544349 
L 90.410328 175.994359 
L 90.258516 176.444368 
L 90.074509 176.894377 
L 89.864586 177.344386 
L 89.634325 177.794395 
L 89.387769 178.244405 
L 89.127384 178.694414 
L 88.854665 179.144423 
L 88.570919 179.594432 
L 88.277641 180.044442 
L 87.976275 180.494451 
L 87.66757 180.94446 
L 87.351096 181.394469 
L 87.025413 181.844478 
L 86.689026 182.294488 
L 86.341775 182.744497 
L 85.986067 183.194506 
L 85.627422 183.644515 
L 85.274068 184.094524 
L 84.935732 184.544534 
L 84.621963 184.994543 
L 84.340418 185.444552 
L 84.095495 185.894561 
L 83.887604 186.34457 
L 83.713238 186.79458 
L 83.565854 187.244589 
L 83.437374 187.694598 
L 83.319921 188.144607 
L 83.207346 188.594617 
L 83.096131 189.044626 
L 82.985513 189.494635 
L 82.876918 189.944644 
L 82.772995 190.394653 
L 82.676632 190.844663 
L 82.590231 191.294672 
L 82.515358 191.744681 
L 82.452715 192.19469 
L 82.402295 192.644699 
L 82.363548 193.094709 
L 82.33549 193.544718 
L 82.316727 193.994727 
L 82.305472 194.444736 
L 82.299618 194.894746 
L 82.296915 195.344755 
L 82.295247 195.794764 
L 82.292919 196.244773 
z
" clip-path="url(#pb2d151dd4d)" style="fill: #348abd; fill-opacity: 0.3"/>
   </g>
   <g id="PolyCollection_2">
    <path d="M 110.289456 199.614543 
L 110.143397 199.614543 
L 110.137594 199.085172 
L 110.131381 198.555802 
L 110.123056 198.026432 
L 110.110494 197.497062 
L 110.091334 196.967691 
L 110.063155 196.438321 
L 110.023609 195.908951 
L 109.97057 195.379581 
L 109.902322 194.85021 
L 109.817847 194.32084 
L 109.717171 193.79147 
L 109.601643 193.2621 
L 109.474002 192.732729 
L 109.338039 192.203359 
L 109.197793 191.673989 
L 109.056342 191.144619 
L 108.914456 190.615248 
L 108.769521 190.085878 
L 108.615143 189.556508 
L 108.441751 189.027138 
L 108.23819 188.497767 
L 107.994002 187.968397 
L 107.701839 187.439027 
L 107.35936 186.909657 
L 106.970146 186.380287 
L 106.543435 185.850916 
L 106.092787 185.321546 
L 105.634057 184.792176 
L 105.183127 184.262806 
L 104.753872 183.733435 
L 104.356728 183.204065 
L 103.998062 182.674695 
L 103.680352 182.145325 
L 103.402962 181.615954 
L 103.163148 181.086584 
L 102.956941 180.557214 
L 102.77968 180.027844 
L 102.626262 179.498473 
L 102.491308 178.969103 
L 102.369548 178.439733 
L 102.256554 177.910363 
L 102.149725 177.380992 
L 102.049231 176.851622 
L 101.958527 176.322252 
L 101.884179 175.792882 
L 101.834925 175.263511 
L 101.820188 174.734141 
L 101.848367 174.204771 
L 101.925294 173.675401 
L 102.053161 173.14603 
L 102.230045 172.61666 
L 102.450065 172.08729 
L 102.704103 171.55792 
L 102.98103 171.028549 
L 103.269291 170.499179 
L 103.558681 169.969809 
L 103.841975 169.440439 
L 104.116018 168.911069 
L 104.381947 168.381698 
L 104.644403 167.852328 
L 104.909903 167.322958 
L 105.184835 166.793588 
L 105.473644 166.264217 
L 105.777695 165.734847 
L 106.095077 165.205477 
L 106.421227 164.676107 
L 106.750051 164.146736 
L 107.075082 163.617366 
L 107.390306 163.087996 
L 107.690503 162.558626 
L 107.971228 162.029255 
L 108.228679 161.499885 
L 108.459743 160.970515 
L 108.662305 160.441145 
L 108.835711 159.911774 
L 108.981132 159.382404 
L 109.10157 158.853034 
L 109.201446 158.323664 
L 109.285874 157.794293 
L 109.359895 157.264923 
L 109.427886 156.735553 
L 109.493264 156.206183 
L 109.558425 155.676812 
L 109.624767 155.147442 
L 109.692698 154.618072 
L 109.76161 154.088702 
L 109.829893 153.559332 
L 109.895103 153.029961 
L 109.954343 152.500591 
L 110.004817 151.971221 
L 110.044429 151.441851 
L 110.072264 150.91248 
L 110.088834 150.38311 
L 110.096022 149.85374 
L 110.096737 149.32437 
L 110.094376 148.794999 
L 110.092204 148.265629 
L 110.092794 147.736259 
L 110.097649 147.206889 
L 110.335203 147.206889 
L 110.335203 147.206889 
L 110.340059 147.736259 
L 110.340649 148.265629 
L 110.338476 148.794999 
L 110.336116 149.32437 
L 110.336831 149.85374 
L 110.344018 150.38311 
L 110.360589 150.91248 
L 110.388423 151.441851 
L 110.428035 151.971221 
L 110.47851 152.500591 
L 110.53775 153.029961 
L 110.60296 153.559332 
L 110.671243 154.088702 
L 110.740155 154.618072 
L 110.808086 155.147442 
L 110.874427 155.676812 
L 110.939588 156.206183 
L 111.004967 156.735553 
L 111.072958 157.264923 
L 111.146978 157.794293 
L 111.231407 158.323664 
L 111.331283 158.853034 
L 111.451721 159.382404 
L 111.597141 159.911774 
L 111.770548 160.441145 
L 111.97311 160.970515 
L 112.204174 161.499885 
L 112.461625 162.029255 
L 112.742349 162.558626 
L 113.042547 163.087996 
L 113.357771 163.617366 
L 113.682802 164.146736 
L 114.011626 164.676107 
L 114.337776 165.205477 
L 114.655158 165.734847 
L 114.959209 166.264217 
L 115.248017 166.793588 
L 115.52295 167.322958 
L 115.78845 167.852328 
L 116.050905 168.381698 
L 116.316834 168.911069 
L 116.590877 169.440439 
L 116.874171 169.969809 
L 117.163562 170.499179 
L 117.451823 171.028549 
L 117.728749 171.55792 
L 117.982788 172.08729 
L 118.202807 172.61666 
L 118.379691 173.14603 
L 118.507558 173.675401 
L 118.584486 174.204771 
L 118.612665 174.734141 
L 118.597928 175.263511 
L 118.548674 175.792882 
L 118.474325 176.322252 
L 118.383622 176.851622 
L 118.283128 177.380992 
L 118.176299 177.910363 
L 118.063305 178.439733 
L 117.941545 178.969103 
L 117.806591 179.498473 
L 117.653173 180.027844 
L 117.475912 180.557214 
L 117.269704 181.086584 
L 117.029891 181.615954 
L 116.752501 182.145325 
L 116.43479 182.674695 
L 116.076124 183.204065 
L 115.678981 183.733435 
L 115.249726 184.262806 
L 114.798796 184.792176 
L 114.340066 185.321546 
L 113.889418 185.850916 
L 113.462707 186.380287 
L 113.073493 186.909657 
L 112.731013 187.439027 
L 112.43885 187.968397 
L 112.194663 188.497767 
L 111.991101 189.027138 
L 111.81771 189.556508 
L 111.663332 190.085878 
L 111.518396 190.615248 
L 111.376511 191.144619 
L 111.235059 191.673989 
L 111.094814 192.203359 
L 110.958851 192.732729 
L 110.83121 193.2621 
L 110.715682 193.79147 
L 110.615005 194.32084 
L 110.530531 194.85021 
L 110.462283 195.379581 
L 110.409243 195.908951 
L 110.369698 196.438321 
L 110.341518 196.967691 
L 110.322359 197.497062 
L 110.309797 198.026432 
L 110.301472 198.555802 
L 110.295259 199.085172 
L 110.289456 199.614543 
z
" clip-path="url(#pb2d151dd4d)" style="fill: #348abd; fill-opacity: 0.3"/>
   </g>
   <g id="PolyCollection_3">
    <path d="M 138.383533 202.252946 
L 138.024241 202.252946 
L 137.980749 201.654705 
L 137.928068 201.056464 
L 137.86466 200.458223 
L 137.789168 199.859981 
L 137.700575 199.26174 
L 137.598321 198.663499 
L 137.482315 198.065258 
L 137.352841 197.467017 
L 137.210374 196.868775 
L 137.055335 196.270534 
L 136.887844 195.672293 
L 136.707535 195.074052 
L 136.513476 194.475811 
L 136.304222 193.87757 
L 136.078 193.279328 
L 135.832966 192.681087 
L 135.567487 192.082846 
L 135.280392 191.484605 
L 134.971157 190.886364 
L 134.640018 190.288122 
L 134.288075 189.689881 
L 133.917414 189.09164 
L 133.531263 188.493399 
L 133.134183 187.895158 
L 132.732179 187.296917 
L 132.332658 186.698675 
L 131.944103 186.100434 
L 131.575448 185.502193 
L 131.235188 184.903952 
L 130.930387 184.305711 
L 130.665781 183.707469 
L 130.443235 183.109228 
L 130.261702 182.510987 
L 130.117746 181.912746 
L 130.006538 181.314505 
L 129.923071 180.716263 
L 129.86331 180.118022 
L 129.824956 179.519781 
L 129.807649 178.92154 
L 129.812567 178.323299 
L 129.841589 177.725058 
L 129.896277 177.126816 
L 129.977024 176.528575 
L 130.082623 175.930334 
L 130.210388 175.332093 
L 130.356765 174.733852 
L 130.518213 174.13561 
L 130.692039 173.537369 
L 130.876876 172.939128 
L 131.072619 172.340887 
L 131.279825 171.742646 
L 131.498749 171.144405 
L 131.728341 170.546163 
L 131.965549 169.947922 
L 132.205159 169.349681 
L 132.440292 168.75144 
L 132.66343 168.153199 
L 132.867752 167.554957 
L 133.048462 166.956716 
L 133.203802 166.358475 
L 133.335556 165.760234 
L 133.448924 165.161993 
L 133.551817 164.563751 
L 133.653687 163.96551 
L 133.764112 163.367269 
L 133.891377 162.769028 
L 134.04131 162.170787 
L 134.216563 161.572546 
L 134.416446 160.974304 
L 134.637301 160.376063 
L 134.873312 159.777822 
L 135.117527 159.179581 
L 135.362887 158.58134 
L 135.603071 157.983098 
L 135.833046 157.384857 
L 136.049311 156.786616 
L 136.2499 156.188375 
L 136.434226 155.590134 
L 136.602843 154.991892 
L 136.757187 154.393651 
L 136.899289 153.79541 
L 137.031453 153.197169 
L 137.155898 152.598928 
L 137.274396 152.000687 
L 137.387954 151.402445 
L 137.49663 150.804204 
L 137.599526 150.205963 
L 137.69499 149.607722 
L 137.780993 149.009481 
L 137.855602 148.411239 
L 137.917437 147.812998 
L 137.966022 147.214757 
L 138.001952 146.616516 
L 138.026844 146.018275 
L 138.043101 145.420034 
L 138.053537 144.821792 
L 138.06096 144.223551 
L 138.06778 143.62531 
L 138.075735 143.027069 
L 138.332039 143.027069 
L 138.332039 143.027069 
L 138.339994 143.62531 
L 138.346814 144.223551 
L 138.354237 144.821792 
L 138.364674 145.420034 
L 138.38093 146.018275 
L 138.405822 146.616516 
L 138.441752 147.214757 
L 138.490337 147.812998 
L 138.552172 148.411239 
L 138.626781 149.009481 
L 138.712785 149.607722 
L 138.808248 150.205963 
L 138.911144 150.804204 
L 139.01982 151.402445 
L 139.133379 152.000687 
L 139.251876 152.598928 
L 139.376321 153.197169 
L 139.508485 153.79541 
L 139.650587 154.393651 
L 139.804931 154.991892 
L 139.973548 155.590134 
L 140.157874 156.188375 
L 140.358464 156.786616 
L 140.574729 157.384857 
L 140.804703 157.983098 
L 141.044887 158.58134 
L 141.290248 159.179581 
L 141.534462 159.777822 
L 141.770473 160.376063 
L 141.991329 160.974304 
L 142.191211 161.572546 
L 142.366464 162.170787 
L 142.516398 162.769028 
L 142.643662 163.367269 
L 142.754087 163.96551 
L 142.855958 164.563751 
L 142.958851 165.161993 
L 143.072219 165.760234 
L 143.203972 166.358475 
L 143.359312 166.956716 
L 143.540022 167.554957 
L 143.744344 168.153199 
L 143.967482 168.75144 
L 144.202615 169.349681 
L 144.442226 169.947922 
L 144.679433 170.546163 
L 144.909026 171.144405 
L 145.127949 171.742646 
L 145.335155 172.340887 
L 145.530899 172.939128 
L 145.715735 173.537369 
L 145.889561 174.13561 
L 146.051009 174.733852 
L 146.197386 175.332093 
L 146.325151 175.930334 
L 146.43075 176.528575 
L 146.511497 177.126816 
L 146.566185 177.725058 
L 146.595207 178.323299 
L 146.600125 178.92154 
L 146.582818 179.519781 
L 146.544464 180.118022 
L 146.484704 180.716263 
L 146.401237 181.314505 
L 146.290028 181.912746 
L 146.146073 182.510987 
L 145.964539 183.109228 
L 145.741993 183.707469 
L 145.477388 184.305711 
L 145.172586 184.903952 
L 144.832327 185.502193 
L 144.463671 186.100434 
L 144.075116 186.698675 
L 143.675595 187.296917 
L 143.273592 187.895158 
L 142.876511 188.493399 
L 142.490361 189.09164 
L 142.119699 189.689881 
L 141.767757 190.288122 
L 141.436617 190.886364 
L 141.127382 191.484605 
L 140.840288 192.082846 
L 140.574808 192.681087 
L 140.329774 193.279328 
L 140.103552 193.87757 
L 139.894299 194.475811 
L 139.700239 195.074052 
L 139.51993 195.672293 
L 139.352439 196.270534 
L 139.197401 196.868775 
L 139.054934 197.467017 
L 138.92546 198.065258 
L 138.809453 198.663499 
L 138.707199 199.26174 
L 138.618607 199.859981 
L 138.543114 200.458223 
L 138.479707 201.056464 
L 138.427026 201.654705 
L 138.383533 202.252946 
z
" clip-path="url(#pb2d151dd4d)" style="fill: #348abd; fill-opacity: 0.3"/>
   </g>
   <g id="PolyCollection_4">
    <path d="M 166.640994 206.593064 
L 165.741702 206.593064 
L 165.65612 205.924831 
L 165.561305 205.256597 
L 165.456885 204.588364 
L 165.342325 203.92013 
L 165.21689 203.251897 
L 165.079645 202.583663 
L 164.929465 201.91543 
L 164.765083 201.247196 
L 164.585132 200.578963 
L 164.388207 199.910729 
L 164.172925 199.242496 
L 163.937984 198.574262 
L 163.682229 197.906029 
L 163.404724 197.237795 
L 163.10485 196.569562 
L 162.782417 195.901328 
L 162.437826 195.233095 
L 162.072248 194.564861 
L 161.687836 193.896628 
L 161.28793 193.228394 
L 160.877221 192.560161 
L 160.461828 191.891927 
L 160.049237 191.223694 
L 159.648056 190.55546 
L 159.267585 189.887227 
L 158.917189 189.218993 
L 158.605573 188.55076 
L 158.340016 187.882526 
L 158.125714 187.214293 
L 157.965319 186.546059 
L 157.858792 185.877826 
L 157.803579 185.209592 
L 157.79511 184.541359 
L 157.827511 183.873125 
L 157.894426 183.204892 
L 157.989779 182.536658 
L 158.10837 181.868425 
L 158.246196 181.200191 
L 158.400497 180.531958 
L 158.569532 179.863724 
L 158.752179 179.195491 
L 158.947454 178.527257 
L 159.154051 177.859024 
L 159.37 177.19079 
L 159.592477 176.522557 
L 159.817807 175.854323 
L 160.041652 175.18609 
L 160.259328 174.517856 
L 160.466227 173.849623 
L 160.658258 173.181389 
L 160.832236 172.513156 
L 160.986165 171.844922 
L 161.119342 171.176689 
L 161.232275 170.508455 
L 161.326426 169.840222 
L 161.403823 169.171988 
L 161.466651 168.503755 
L 161.516893 167.835521 
L 161.556122 167.167288 
L 161.585489 166.499054 
L 161.605885 165.830821 
L 161.61825 165.162587 
L 161.623906 164.494354 
L 161.624838 163.82612 
L 161.623829 163.157887 
L 161.62442 162.489653 
L 161.630696 161.82142 
L 161.646964 161.153186 
L 161.677385 160.484953 
L 161.725637 159.816719 
L 161.794669 159.148486 
L 161.886541 158.480252 
L 162.002366 157.812019 
L 162.142294 157.143785 
L 162.305529 156.475552 
L 162.490338 155.807318 
L 162.694071 155.139085 
L 162.913199 154.470852 
L 163.143413 153.802618 
L 163.379793 153.134385 
L 163.61708 152.466151 
L 163.850019 151.797918 
L 164.073737 151.129684 
L 164.28411 150.461451 
L 164.478063 149.793217 
L 164.653741 149.124984 
L 164.810553 148.45675 
L 164.949061 147.788517 
L 165.070766 147.120283 
L 165.177816 146.45205 
L 165.272687 145.783816 
L 165.357889 145.115583 
L 165.435719 144.447349 
L 165.508091 143.779116 
L 165.576445 143.110882 
L 165.641712 142.442649 
L 165.704354 141.774415 
L 165.764431 141.106182 
L 165.821698 140.437948 
L 166.560998 140.437948 
L 166.560998 140.437948 
L 166.618265 141.106182 
L 166.678342 141.774415 
L 166.740984 142.442649 
L 166.806251 143.110882 
L 166.874604 143.779116 
L 166.946977 144.447349 
L 167.024807 145.115583 
L 167.110008 145.783816 
L 167.20488 146.45205 
L 167.31193 147.120283 
L 167.433635 147.788517 
L 167.572143 148.45675 
L 167.728955 149.124984 
L 167.904633 149.793217 
L 168.098586 150.461451 
L 168.308959 151.129684 
L 168.532677 151.797918 
L 168.765616 152.466151 
L 169.002903 153.134385 
L 169.239283 153.802618 
L 169.469497 154.470852 
L 169.688625 155.139085 
L 169.892358 155.807318 
L 170.077167 156.475552 
L 170.240402 157.143785 
L 170.38033 157.812019 
L 170.496155 158.480252 
L 170.588027 159.148486 
L 170.657059 159.816719 
L 170.705311 160.484953 
L 170.735732 161.153186 
L 170.752 161.82142 
L 170.758276 162.489653 
L 170.758867 163.157887 
L 170.757858 163.82612 
L 170.75879 164.494354 
L 170.764446 165.162587 
L 170.776811 165.830821 
L 170.797207 166.499054 
L 170.826574 167.167288 
L 170.865803 167.835521 
L 170.916045 168.503755 
L 170.978873 169.171988 
L 171.05627 169.840222 
L 171.15042 170.508455 
L 171.263354 171.176689 
L 171.396531 171.844922 
L 171.55046 172.513156 
L 171.724438 173.181389 
L 171.916469 173.849623 
L 172.123368 174.517856 
L 172.341044 175.18609 
L 172.564889 175.854323 
L 172.790219 176.522557 
L 173.012696 177.19079 
L 173.228645 177.859024 
L 173.435242 178.527257 
L 173.630517 179.195491 
L 173.813163 179.863724 
L 173.982199 180.531958 
L 174.1365 181.200191 
L 174.274326 181.868425 
L 174.392917 182.536658 
L 174.48827 183.204892 
L 174.555185 183.873125 
L 174.587586 184.541359 
L 174.579117 185.209592 
L 174.523904 185.877826 
L 174.417377 186.546059 
L 174.256982 187.214293 
L 174.04268 187.882526 
L 173.777123 188.55076 
L 173.465507 189.218993 
L 173.115111 189.887227 
L 172.734639 190.55546 
L 172.333459 191.223694 
L 171.920868 191.891927 
L 171.505475 192.560161 
L 171.094766 193.228394 
L 170.69486 193.896628 
L 170.310448 194.564861 
L 169.94487 195.233095 
L 169.600279 195.901328 
L 169.277846 196.569562 
L 168.977972 197.237795 
L 168.700467 197.906029 
L 168.444712 198.574262 
L 168.209771 199.242496 
L 167.994489 199.910729 
L 167.797564 200.578963 
L 167.617613 201.247196 
L 167.45323 201.91543 
L 167.303051 202.583663 
L 167.165805 203.251897 
L 167.040371 203.92013 
L 166.925811 204.588364 
L 166.821391 205.256597 
L 166.726575 205.924831 
L 166.640994 206.593064 
z
" clip-path="url(#pb2d151dd4d)" style="fill: #348abd; fill-opacity: 0.3"/>
   </g>
   <g id="PolyCollection_5">
    <path d="M 194.695148 213.613179 
L 193.66247 213.613179 
L 193.555278 212.807846 
L 193.431702 212.002512 
L 193.290256 211.197179 
L 193.129506 210.391845 
L 192.948116 209.586512 
L 192.744889 208.781178 
L 192.518824 207.975844 
L 192.26916 207.170511 
L 191.995455 206.365177 
L 191.697657 205.559844 
L 191.376213 204.75451 
L 191.032163 203.949177 
L 190.667254 203.143843 
L 190.284022 202.338509 
L 189.885842 201.533176 
L 189.476937 200.727842 
L 189.062325 199.922509 
L 188.647708 199.117175 
L 188.239313 198.311842 
L 187.843695 197.506508 
L 187.467501 196.701175 
L 187.117226 195.895841 
L 186.79895 195.090507 
L 186.518087 194.285174 
L 186.279126 193.47984 
L 186.085417 192.674507 
L 185.938991 191.869173 
L 185.84046 191.06384 
L 185.789022 190.258506 
L 185.782571 189.453172 
L 185.817925 188.647839 
L 185.891158 187.842505 
L 185.997965 187.037172 
L 186.134036 186.231838 
L 186.29537 185.426505 
L 186.478473 184.621171 
L 186.680428 183.815838 
L 186.898837 183.010504 
L 187.131646 182.20517 
L 187.376923 181.399837 
L 187.632625 180.594503 
L 187.896411 179.78917 
L 188.165531 178.983836 
L 188.436808 178.178503 
L 188.706702 177.373169 
L 188.971443 176.567836 
L 189.227189 175.762502 
L 189.470188 174.957168 
L 189.696921 174.151835 
L 189.904201 173.346501 
L 190.089229 172.541168 
L 190.249619 171.735834 
L 190.383393 170.930501 
L 190.488966 170.125167 
L 190.565154 169.319833 
L 190.611199 168.5145 
L 190.626835 167.709166 
L 190.612407 166.903833 
L 190.569009 166.098499 
L 190.498649 165.293166 
L 190.404396 164.487832 
L 190.290468 163.682499 
L 190.162237 162.877165 
L 190.026099 162.071831 
L 189.889213 161.266498 
L 189.759107 160.461164 
L 189.643184 159.655831 
L 189.548195 158.850497 
L 189.47974 158.045164 
L 189.441879 157.23983 
L 189.436911 156.434496 
L 189.465345 155.629163 
L 189.52608 154.823829 
L 189.616738 154.018496 
L 189.734095 153.213162 
L 189.874532 152.407829 
L 190.034425 151.602495 
L 190.210424 150.797162 
L 190.399586 149.991828 
L 190.599373 149.186494 
L 190.807547 148.381161 
L 191.022005 147.575827 
L 191.24062 146.770494 
L 191.461126 145.96516 
L 191.681075 145.159827 
L 191.897886 144.354493 
L 192.108952 143.54916 
L 192.3118 142.743826 
L 192.504263 141.938492 
L 192.684619 141.133159 
L 192.851698 140.327825 
L 193.004918 139.522492 
L 193.144264 138.717158 
L 193.270205 137.911825 
L 193.383578 137.106491 
L 193.48544 136.301157 
L 193.576937 135.495824 
L 193.659173 134.69049 
L 193.73313 133.885157 
L 194.624488 133.885157 
L 194.624488 133.885157 
L 194.698444 134.69049 
L 194.780681 135.495824 
L 194.872177 136.301157 
L 194.97404 137.106491 
L 195.087412 137.911825 
L 195.213354 138.717158 
L 195.3527 139.522492 
L 195.50592 140.327825 
L 195.672999 141.133159 
L 195.853354 141.938492 
L 196.045817 142.743826 
L 196.248666 143.54916 
L 196.459732 144.354493 
L 196.676542 145.159827 
L 196.896492 145.96516 
L 197.116997 146.770494 
L 197.335613 147.575827 
L 197.550071 148.381161 
L 197.758245 149.186494 
L 197.958032 149.991828 
L 198.147194 150.797162 
L 198.323193 151.602495 
L 198.483086 152.407829 
L 198.623523 153.213162 
L 198.74088 154.018496 
L 198.831538 154.823829 
L 198.892273 155.629163 
L 198.920707 156.434496 
L 198.915738 157.23983 
L 198.877878 158.045164 
L 198.809423 158.850497 
L 198.714433 159.655831 
L 198.59851 160.461164 
L 198.468404 161.266498 
L 198.331518 162.071831 
L 198.19538 162.877165 
L 198.067149 163.682499 
L 197.953222 164.487832 
L 197.858968 165.293166 
L 197.788608 166.098499 
L 197.74521 166.903833 
L 197.730782 167.709166 
L 197.746419 168.5145 
L 197.792463 169.319833 
L 197.868651 170.125167 
L 197.974225 170.930501 
L 198.107998 171.735834 
L 198.268389 172.541168 
L 198.453417 173.346501 
L 198.660696 174.151835 
L 198.88743 174.957168 
L 199.130429 175.762502 
L 199.386174 176.567836 
L 199.650915 177.373169 
L 199.92081 178.178503 
L 200.192086 178.983836 
L 200.461206 179.78917 
L 200.724993 180.594503 
L 200.980695 181.399837 
L 201.225972 182.20517 
L 201.458781 183.010504 
L 201.677189 183.815838 
L 201.879145 184.621171 
L 202.062247 185.426505 
L 202.223581 186.231838 
L 202.359653 187.037172 
L 202.466459 187.842505 
L 202.539692 188.647839 
L 202.575047 189.453172 
L 202.568595 190.258506 
L 202.517157 191.06384 
L 202.418627 191.869173 
L 202.2722 192.674507 
L 202.078491 193.47984 
L 201.839531 194.285174 
L 201.558667 195.090507 
L 201.240392 195.895841 
L 200.890116 196.701175 
L 200.513922 197.506508 
L 200.118304 198.311842 
L 199.70991 199.117175 
L 199.295293 199.922509 
L 198.88068 200.727842 
L 198.471776 201.533176 
L 198.073596 202.338509 
L 197.690363 203.143843 
L 197.325455 203.949177 
L 196.981405 204.75451 
L 196.65996 205.559844 
L 196.362163 206.365177 
L 196.088457 207.170511 
L 195.838794 207.975844 
L 195.612728 208.781178 
L 195.409502 209.586512 
L 195.228111 210.391845 
L 195.067361 211.197179 
L 194.925915 212.002512 
L 194.80234 212.807846 
L 194.695148 213.613179 
z
" clip-path="url(#pb2d151dd4d)" style="fill: #348abd; fill-opacity: 0.3"/>
   </g>
   <g id="PolyCollection_6">
    <path d="M 222.854194 222.625438 
L 221.478345 222.625438 
L 221.34564 221.656782 
L 221.19431 220.688127 
L 221.022816 219.719471 
L 220.829669 218.750816 
L 220.613505 217.78216 
L 220.373179 216.813505 
L 220.107882 215.844849 
L 219.817275 214.876194 
L 219.501623 213.907539 
L 219.161931 212.938883 
L 218.800048 211.970228 
L 218.418734 211.001572 
L 218.021675 210.032917 
L 217.613435 209.064261 
L 217.199335 208.095606 
L 216.785285 207.12695 
L 216.377548 206.158295 
L 215.982488 205.189639 
L 215.6063 204.220984 
L 215.254764 203.252328 
L 214.933029 202.283673 
L 214.645456 201.315017 
L 214.395516 200.346362 
L 214.185762 199.377706 
L 214.017852 198.409051 
L 213.892621 197.440395 
L 213.81018 196.47174 
L 213.770031 195.503084 
L 213.771182 194.534429 
L 213.812239 193.565774 
L 213.891489 192.597118 
L 214.006949 191.628463 
L 214.156394 190.659807 
L 214.337367 189.691152 
L 214.547183 188.722496 
L 214.782924 187.753841 
L 215.041435 186.785185 
L 215.319334 185.81653 
L 215.613027 184.847874 
L 215.918734 183.879219 
L 216.232528 182.910563 
L 216.550381 181.941908 
L 216.868214 180.973252 
L 217.181954 180.004597 
L 217.487595 179.035941 
L 217.781254 178.067286 
L 218.059232 177.09863 
L 218.318071 176.129975 
L 218.554604 175.161319 
L 218.766007 174.192664 
L 218.949844 173.224009 
L 219.104103 172.255353 
L 219.227234 171.286698 
L 219.31818 170.318042 
L 219.376405 169.349387 
L 219.40192 168.380731 
L 219.395304 167.412076 
L 219.357722 166.44342 
L 219.29094 165.474765 
L 219.197325 164.506109 
L 219.07984 163.537454 
L 218.942016 162.568798 
L 218.787908 161.600143 
L 218.622029 160.631487 
L 218.449252 159.662832 
L 218.274693 158.694176 
L 218.103572 157.725521 
L 217.941058 156.756865 
L 217.792096 155.78821 
L 217.66125 154.819554 
L 217.552545 153.850899 
L 217.469333 152.882244 
L 217.414188 151.913588 
L 217.388842 150.944933 
L 217.394154 149.976277 
L 217.430122 149.007622 
L 217.495938 148.038966 
L 217.590074 147.070311 
L 217.710394 146.101655 
L 217.854284 145.133 
L 218.018794 144.164344 
L 218.200766 143.195689 
L 218.396968 142.227033 
L 218.604189 141.258378 
L 218.819332 140.289722 
L 219.039466 139.321067 
L 219.261867 138.352411 
L 219.48404 137.383756 
L 219.703727 136.4151 
L 219.918904 135.446445 
L 220.12779 134.477789 
L 220.328837 133.509134 
L 220.520735 132.540479 
L 220.702414 131.571823 
L 220.873037 130.603168 
L 221.031997 129.634512 
L 221.178909 128.665857 
L 221.313588 127.697201 
L 221.436035 126.728546 
L 222.896504 126.728546 
L 222.896504 126.728546 
L 223.018952 127.697201 
L 223.15363 128.665857 
L 223.300542 129.634512 
L 223.459502 130.603168 
L 223.630125 131.571823 
L 223.811804 132.540479 
L 224.003702 133.509134 
L 224.204749 134.477789 
L 224.413635 135.446445 
L 224.628813 136.4151 
L 224.848499 137.383756 
L 225.070672 138.352411 
L 225.293073 139.321067 
L 225.513207 140.289722 
L 225.72835 141.258378 
L 225.935571 142.227033 
L 226.131773 143.195689 
L 226.313746 144.164344 
L 226.478255 145.133 
L 226.622146 146.101655 
L 226.742465 147.070311 
L 226.836601 148.038966 
L 226.902418 149.007622 
L 226.938385 149.976277 
L 226.943697 150.944933 
L 226.918351 151.913588 
L 226.863207 152.882244 
L 226.779994 153.850899 
L 226.671289 154.819554 
L 226.540443 155.78821 
L 226.391482 156.756865 
L 226.228967 157.725521 
L 226.057847 158.694176 
L 225.883288 159.662832 
L 225.71051 160.631487 
L 225.544631 161.600143 
L 225.390524 162.568798 
L 225.252699 163.537454 
L 225.135214 164.506109 
L 225.041599 165.474765 
L 224.974817 166.44342 
L 224.937235 167.412076 
L 224.930619 168.380731 
L 224.956134 169.349387 
L 225.014359 170.318042 
L 225.105305 171.286698 
L 225.228436 172.255353 
L 225.382695 173.224009 
L 225.566532 174.192664 
L 225.777935 175.161319 
L 226.014468 176.129975 
L 226.273307 177.09863 
L 226.551285 178.067286 
L 226.844944 179.035941 
L 227.150585 180.004597 
L 227.464325 180.973252 
L 227.782158 181.941908 
L 228.100011 182.910563 
L 228.413805 183.879219 
L 228.719512 184.847874 
L 229.013205 185.81653 
L 229.291104 186.785185 
L 229.549615 187.753841 
L 229.785356 188.722496 
L 229.995173 189.691152 
L 230.176146 190.659807 
L 230.32559 191.628463 
L 230.44105 192.597118 
L 230.5203 193.565774 
L 230.561358 194.534429 
L 230.562508 195.503084 
L 230.522359 196.47174 
L 230.439918 197.440395 
L 230.314687 198.409051 
L 230.146777 199.377706 
L 229.937024 200.346362 
L 229.687083 201.315017 
L 229.39951 202.283673 
L 229.077775 203.252328 
L 228.726239 204.220984 
L 228.350051 205.189639 
L 227.954991 206.158295 
L 227.547254 207.12695 
L 227.133204 208.095606 
L 226.719105 209.064261 
L 226.310864 210.032917 
L 225.913805 211.001572 
L 225.532491 211.970228 
L 225.170608 212.938883 
L 224.830916 213.907539 
L 224.515265 214.876194 
L 224.224657 215.844849 
L 223.95936 216.813505 
L 223.719034 217.78216 
L 223.502871 218.750816 
L 223.309723 219.719471 
L 223.138229 220.688127 
L 222.986899 221.656782 
L 222.854194 222.625438 
z
" clip-path="url(#pb2d151dd4d)" style="fill: #348abd; fill-opacity: 0.3"/>
   </g>
   <g id="PolyCollection_7">
    <path d="M 250.459473 237.231999 
L 249.847988 237.231999 
L 249.772234 236.020095 
L 249.679174 234.808191 
L 249.565759 233.596288 
L 249.428838 232.384384 
L 249.265307 231.17248 
L 249.072286 229.960576 
L 248.847315 228.748672 
L 248.588569 227.536768 
L 248.295061 226.324864 
L 247.966834 225.112961 
L 247.605112 223.901057 
L 247.212403 222.689153 
L 246.792535 221.477249 
L 246.350616 220.265345 
L 245.892911 219.053441 
L 245.42664 217.841537 
L 244.959706 216.629633 
L 244.500368 215.41773 
L 244.056889 214.205826 
L 243.637178 212.993922 
L 243.248464 211.782018 
L 242.897024 210.570114 
L 242.587986 209.35821 
L 242.325222 208.146306 
L 242.111334 206.934403 
L 241.947721 205.722499 
L 241.834708 204.510595 
L 241.771724 203.298691 
L 241.757492 202.086787 
L 241.790219 200.874883 
L 241.867748 199.662979 
L 241.987676 198.451075 
L 242.147417 197.239172 
L 242.344226 196.027268 
L 242.575174 194.815364 
L 242.837103 193.60346 
L 243.12657 192.391556 
L 243.439796 191.179652 
L 243.772639 189.967748 
L 244.120598 188.755844 
L 244.478852 187.543941 
L 244.842343 186.332037 
L 245.205877 185.120133 
L 245.564262 183.908229 
L 245.912439 182.696325 
L 246.245617 181.484421 
L 246.559391 180.272517 
L 246.84983 179.060614 
L 247.113547 177.84871 
L 247.347736 176.636806 
L 247.550189 175.424902 
L 247.719299 174.212998 
L 247.854052 173.001094 
L 247.954009 171.78919 
L 248.01929 170.577286 
L 248.050548 169.365383 
L 248.04894 168.153479 
L 248.016081 166.941575 
L 247.953991 165.729671 
L 247.865032 164.517767 
L 247.751832 163.305863 
L 247.617216 162.093959 
L 247.464146 160.882055 
L 247.295672 159.670152 
L 247.114924 158.458248 
L 246.92512 157.246344 
L 246.729605 156.03444 
L 246.5319 154.822536 
L 246.335759 153.610632 
L 246.145203 152.398728 
L 245.964515 151.186825 
L 245.798188 149.974921 
L 245.650816 148.763017 
L 245.526926 147.551113 
L 245.430762 146.339209 
L 245.366049 145.127305 
L 245.335753 143.915401 
L 245.341873 142.703497 
L 245.38529 141.491594 
L 245.465693 140.27969 
L 245.58158 139.067786 
L 245.73036 137.855882 
L 245.908516 136.643978 
L 246.111821 135.432074 
L 246.335585 134.22017 
L 246.574902 133.008267 
L 246.824876 131.796363 
L 247.080811 130.584459 
L 247.338353 129.372555 
L 247.593593 128.160651 
L 247.843116 126.948747 
L 248.084028 125.736843 
L 248.313952 124.524939 
L 248.531006 123.313036 
L 248.733778 122.101132 
L 248.921288 120.889228 
L 249.092957 119.677324 
L 249.248566 118.46542 
L 249.388215 117.253516 
L 250.919246 117.253516 
L 250.919246 117.253516 
L 251.058895 118.46542 
L 251.214503 119.677324 
L 251.386173 120.889228 
L 251.573683 122.101132 
L 251.776455 123.313036 
L 251.993509 124.524939 
L 252.223433 125.736843 
L 252.464345 126.948747 
L 252.713868 128.160651 
L 252.969108 129.372555 
L 253.22665 130.584459 
L 253.482585 131.796363 
L 253.732559 133.008267 
L 253.971876 134.22017 
L 254.19564 135.432074 
L 254.398945 136.643978 
L 254.5771 137.855882 
L 254.725881 139.067786 
L 254.841768 140.27969 
L 254.92217 141.491594 
L 254.965588 142.703497 
L 254.971708 143.915401 
L 254.941412 145.127305 
L 254.876698 146.339209 
L 254.780535 147.551113 
L 254.656645 148.763017 
L 254.509273 149.974921 
L 254.342946 151.186825 
L 254.162257 152.398728 
L 253.971701 153.610632 
L 253.775561 154.822536 
L 253.577856 156.03444 
L 253.38234 157.246344 
L 253.192537 158.458248 
L 253.011789 159.670152 
L 252.843315 160.882055 
L 252.690244 162.093959 
L 252.555629 163.305863 
L 252.442429 164.517767 
L 252.35347 165.729671 
L 252.29138 166.941575 
L 252.258521 168.153479 
L 252.256912 169.365383 
L 252.288171 170.577286 
L 252.353452 171.78919 
L 252.453409 173.001094 
L 252.588161 174.212998 
L 252.757272 175.424902 
L 252.959725 176.636806 
L 253.193914 177.84871 
L 253.457631 179.060614 
L 253.74807 180.272517 
L 254.061844 181.484421 
L 254.395022 182.696325 
L 254.743199 183.908229 
L 255.101583 185.120133 
L 255.465118 186.332037 
L 255.828608 187.543941 
L 256.186863 188.755844 
L 256.534822 189.967748 
L 256.867665 191.179652 
L 257.180891 192.391556 
L 257.470357 193.60346 
L 257.732286 194.815364 
L 257.963235 196.027268 
L 258.160044 197.239172 
L 258.319785 198.451075 
L 258.439713 199.662979 
L 258.517242 200.874883 
L 258.549969 202.086787 
L 258.535737 203.298691 
L 258.472753 204.510595 
L 258.35974 205.722499 
L 258.196127 206.934403 
L 257.982239 208.146306 
L 257.719475 209.35821 
L 257.410437 210.570114 
L 257.058996 211.782018 
L 256.670283 212.993922 
L 256.250572 214.205826 
L 255.807093 215.41773 
L 255.347755 216.629633 
L 254.880821 217.841537 
L 254.414549 219.053441 
L 253.956844 220.265345 
L 253.514926 221.477249 
L 253.095058 222.689153 
L 252.702349 223.901057 
L 252.340627 225.112961 
L 252.0124 226.324864 
L 251.718892 227.536768 
L 251.460146 228.748672 
L 251.235175 229.960576 
L 251.042154 231.17248 
L 250.878623 232.384384 
L 250.741702 233.596288 
L 250.628287 234.808191 
L 250.535227 236.020095 
L 250.459473 237.231999 
z
" clip-path="url(#pb2d151dd4d)" style="fill: #348abd; fill-opacity: 0.3"/>
   </g>
   <g id="PolyCollection_8">
    <path d="M 278.634198 247.708095 
L 277.648185 247.708095 
L 277.52137 246.213202 
L 277.368213 244.718309 
L 277.18541 243.223417 
L 276.969946 241.728524 
L 276.71934 240.233631 
L 276.431909 238.738739 
L 276.107024 237.243846 
L 275.745346 235.748953 
L 275.349 234.254061 
L 274.921672 232.759168 
L 274.468602 231.264275 
L 273.996456 229.769383 
L 273.513096 228.27449 
L 273.027245 226.779597 
L 272.548085 225.284705 
L 272.084821 223.789812 
L 271.646261 222.294919 
L 271.240446 220.800027 
L 270.874358 219.305134 
L 270.553743 217.810241 
L 270.283031 216.315349 
L 270.065361 214.820456 
L 269.902677 213.325563 
L 269.795875 211.830671 
L 269.744953 210.335778 
L 269.74916 208.840885 
L 269.807106 207.345993 
L 269.916831 205.8511 
L 270.075837 204.356207 
L 270.281093 202.861315 
L 270.529019 201.366422 
L 270.81548 199.871529 
L 271.135794 198.376637 
L 271.484768 196.881744 
L 271.856773 195.386851 
L 272.245843 193.891959 
L 272.645812 192.397066 
L 273.050463 190.902173 
L 273.453683 189.407281 
L 273.849617 187.912388 
L 274.232803 186.417495 
L 274.59828 184.922603 
L 274.941666 183.42771 
L 275.259202 181.932817 
L 275.54776 180.437925 
L 275.804824 178.943032 
L 276.028452 177.448139 
L 276.217226 175.953246 
L 276.370197 174.458354 
L 276.48684 172.963461 
L 276.567019 171.468568 
L 276.610969 169.973676 
L 276.619286 168.478783 
L 276.592925 166.98389 
L 276.533199 165.488998 
L 276.441778 163.994105 
L 276.320668 162.499212 
L 276.172193 161.00432 
L 275.998965 159.509427 
L 275.803864 158.014534 
L 275.590019 156.519642 
L 275.360814 155.024749 
L 275.119917 153.529856 
L 274.871322 152.034964 
L 274.619402 150.540071 
L 274.368955 149.045178 
L 274.125224 147.550286 
L 273.893867 146.055393 
L 273.680868 144.5605 
L 273.492374 143.065608 
L 273.334456 141.570715 
L 273.212824 140.075822 
L 273.132491 138.58093 
L 273.09744 137.086037 
L 273.110328 135.591144 
L 273.172238 134.096252 
L 273.282537 132.601359 
L 273.438846 131.106466 
L 273.637123 129.611574 
L 273.871872 128.116681 
L 274.136446 126.621788 
L 274.423422 125.126896 
L 274.725014 123.632003 
L 275.033489 122.13711 
L 275.34155 120.642218 
L 275.642655 119.147325 
L 275.931261 117.652432 
L 276.202966 116.15754 
L 276.454571 114.662647 
L 276.68405 113.167754 
L 276.890449 111.672862 
L 277.073752 110.177969 
L 277.234695 108.683076 
L 277.37459 107.188184 
L 277.495139 105.693291 
L 277.598272 104.198398 
L 277.686012 102.703506 
L 277.760353 101.208613 
L 277.823186 99.71372 
L 278.459197 99.71372 
L 278.459197 99.71372 
L 278.522029 101.208613 
L 278.596371 102.703506 
L 278.68411 104.198398 
L 278.787244 105.693291 
L 278.907792 107.188184 
L 279.047687 108.683076 
L 279.20863 110.177969 
L 279.391933 111.672862 
L 279.598333 113.167754 
L 279.827811 114.662647 
L 280.079416 116.15754 
L 280.351122 117.652432 
L 280.639727 119.147325 
L 280.940833 120.642218 
L 281.248893 122.13711 
L 281.557368 123.632003 
L 281.85896 125.126896 
L 282.145936 126.621788 
L 282.41051 128.116681 
L 282.64526 129.611574 
L 282.843536 131.106466 
L 282.999845 132.601359 
L 283.110144 134.096252 
L 283.172054 135.591144 
L 283.184942 137.086037 
L 283.149892 138.58093 
L 283.069558 140.075822 
L 282.947926 141.570715 
L 282.790009 143.065608 
L 282.601514 144.5605 
L 282.388516 146.055393 
L 282.157159 147.550286 
L 281.913427 149.045178 
L 281.66298 150.540071 
L 281.41106 152.034964 
L 281.162465 153.529856 
L 280.921569 155.024749 
L 280.692364 156.519642 
L 280.478518 158.014534 
L 280.283417 159.509427 
L 280.11019 161.00432 
L 279.961715 162.499212 
L 279.840604 163.994105 
L 279.749183 165.488998 
L 279.689458 166.98389 
L 279.663096 168.478783 
L 279.671413 169.973676 
L 279.715364 171.468568 
L 279.795543 172.963461 
L 279.912185 174.458354 
L 280.065156 175.953246 
L 280.25393 177.448139 
L 280.477559 178.943032 
L 280.734623 180.437925 
L 281.02318 181.932817 
L 281.340716 183.42771 
L 281.684102 184.922603 
L 282.049579 186.417495 
L 282.432765 187.912388 
L 282.828699 189.407281 
L 283.231919 190.902173 
L 283.63657 192.397066 
L 284.03654 193.891959 
L 284.42561 195.386851 
L 284.797614 196.881744 
L 285.146588 198.376637 
L 285.466902 199.871529 
L 285.753363 201.366422 
L 286.001289 202.861315 
L 286.206545 204.356207 
L 286.365552 205.8511 
L 286.475277 207.345993 
L 286.533222 208.840885 
L 286.537429 210.335778 
L 286.486508 211.830671 
L 286.379705 213.325563 
L 286.217022 214.820456 
L 285.999352 216.315349 
L 285.72864 217.810241 
L 285.408025 219.305134 
L 285.041937 220.800027 
L 284.636121 222.294919 
L 284.197562 223.789812 
L 283.734297 225.284705 
L 283.255137 226.779597 
L 282.769286 228.27449 
L 282.285927 229.769383 
L 281.813781 231.264275 
L 281.36071 232.759168 
L 280.933383 234.254061 
L 280.537037 235.748953 
L 280.175358 237.243846 
L 279.850473 238.738739 
L 279.563042 240.233631 
L 279.312437 241.728524 
L 279.096973 243.223417 
L 278.914169 244.718309 
L 278.761012 246.213202 
L 278.634198 247.708095 
z
" clip-path="url(#pb2d151dd4d)" style="fill: #348abd; fill-opacity: 0.3"/>
   </g>
   <g id="PolyCollection_9">
    <path d="M 306.717853 262.84788 
L 305.539451 262.84788 
L 305.399553 261.064919 
L 305.233494 259.281958 
L 305.038573 257.498997 
L 304.812466 255.716036 
L 304.553414 253.933075 
L 304.260423 252.150114 
L 303.933438 250.367153 
L 303.573498 248.584192 
L 303.182836 246.801231 
L 302.76492 245.01827 
L 302.324444 243.235309 
L 301.867228 241.452348 
L 301.400074 239.669387 
L 300.930547 237.886426 
L 300.466722 236.103465 
L 300.016895 234.320504 
L 299.589285 232.537543 
L 299.19174 230.754582 
L 298.831479 228.971621 
L 298.514859 227.18866 
L 298.247214 225.405699 
L 298.032735 223.622738 
L 297.874425 221.839777 
L 297.774095 220.056816 
L 297.732414 218.273855 
L 297.748981 216.490894 
L 297.822419 214.707933 
L 297.950472 212.924972 
L 298.130092 211.142011 
L 298.357522 209.35905 
L 298.628365 207.576089 
L 298.937653 205.793128 
L 299.279915 204.010167 
L 299.649263 202.227206 
L 300.039492 200.444245 
L 300.444206 198.661284 
L 300.856964 196.878323 
L 301.27144 195.095362 
L 301.68158 193.312401 
L 302.081757 191.52944 
L 302.466895 189.746479 
L 302.832558 187.963518 
L 303.174991 186.180557 
L 303.491121 184.397596 
L 303.778506 182.614635 
L 304.035254 180.831674 
L 304.259916 179.048713 
L 304.451375 177.265752 
L 304.60874 175.482791 
L 304.73126 173.69983 
L 304.818277 171.916869 
L 304.869211 170.133908 
L 304.883587 168.350947 
L 304.861104 166.567986 
L 304.801722 164.785025 
L 304.705785 163.002063 
L 304.574139 161.219102 
L 304.408253 159.436141 
L 304.210328 157.65318 
L 303.983376 155.870219 
L 303.731274 154.087258 
L 303.458774 152.304297 
L 303.171479 150.521336 
L 302.875764 148.738375 
L 302.578657 146.955414 
L 302.287666 145.172453 
L 302.010565 143.389492 
L 301.755127 141.606531 
L 301.528826 139.82357 
L 301.338522 138.040609 
L 301.190132 136.257648 
L 301.088329 134.474687 
L 301.036285 132.691726 
L 301.035482 130.908765 
L 301.085628 129.125804 
L 301.184666 127.342843 
L 301.328908 125.559882 
L 301.513264 123.776921 
L 301.731561 121.99396 
L 301.97691 120.210999 
L 302.242103 118.428038 
L 302.519988 116.645077 
L 302.803803 114.862116 
L 303.087447 113.079155 
L 303.365663 111.296194 
L 303.634146 109.513233 
L 303.889568 107.730272 
L 304.129543 105.947311 
L 304.352544 104.16435 
L 304.55779 102.381389 
L 304.745122 100.598428 
L 304.914868 98.815467 
L 305.06773 97.032506 
L 305.204668 95.249545 
L 305.326808 93.466584 
L 305.43536 91.683623 
L 305.531557 89.900662 
L 305.616596 88.117701 
L 305.691608 86.33474 
L 306.565696 86.33474 
L 306.565696 86.33474 
L 306.640708 88.117701 
L 306.725747 89.900662 
L 306.821944 91.683623 
L 306.930496 93.466584 
L 307.052636 95.249545 
L 307.189574 97.032506 
L 307.342436 98.815467 
L 307.512182 100.598428 
L 307.699514 102.381389 
L 307.90476 104.16435 
L 308.127761 105.947311 
L 308.367736 107.730272 
L 308.623158 109.513233 
L 308.891641 111.296194 
L 309.169858 113.079155 
L 309.453501 114.862116 
L 309.737316 116.645077 
L 310.015201 118.428038 
L 310.280394 120.210999 
L 310.525743 121.99396 
L 310.74404 123.776921 
L 310.928396 125.559882 
L 311.072638 127.342843 
L 311.171676 129.125804 
L 311.221822 130.908765 
L 311.221019 132.691726 
L 311.168975 134.474687 
L 311.067172 136.257648 
L 310.918782 138.040609 
L 310.728478 139.82357 
L 310.502177 141.606531 
L 310.246739 143.389492 
L 309.969638 145.172453 
L 309.678647 146.955414 
L 309.38154 148.738375 
L 309.085825 150.521336 
L 308.79853 152.304297 
L 308.52603 154.087258 
L 308.273928 155.870219 
L 308.046976 157.65318 
L 307.849051 159.436141 
L 307.683165 161.219102 
L 307.551519 163.002063 
L 307.455582 164.785025 
L 307.3962 166.567986 
L 307.373717 168.350947 
L 307.388094 170.133908 
L 307.439027 171.916869 
L 307.526044 173.69983 
L 307.648564 175.482791 
L 307.805929 177.265752 
L 307.997388 179.048713 
L 308.22205 180.831674 
L 308.478798 182.614635 
L 308.766183 184.397596 
L 309.082313 186.180557 
L 309.424746 187.963518 
L 309.790409 189.746479 
L 310.175547 191.52944 
L 310.575724 193.312401 
L 310.985864 195.095362 
L 311.40034 196.878323 
L 311.813098 198.661284 
L 312.217813 200.444245 
L 312.608041 202.227206 
L 312.977389 204.010167 
L 313.319651 205.793128 
L 313.628939 207.576089 
L 313.899782 209.35905 
L 314.127212 211.142011 
L 314.306832 212.924972 
L 314.434885 214.707933 
L 314.508324 216.490894 
L 314.52489 218.273855 
L 314.483209 220.056816 
L 314.382879 221.839777 
L 314.224569 223.622738 
L 314.01009 225.405699 
L 313.742445 227.18866 
L 313.425825 228.971621 
L 313.065564 230.754582 
L 312.66802 232.537543 
L 312.240409 234.320504 
L 311.790582 236.103465 
L 311.326757 237.886426 
L 310.85723 239.669387 
L 310.390076 241.452348 
L 309.93286 243.235309 
L 309.492384 245.01827 
L 309.074469 246.801231 
L 308.683806 248.584192 
L 308.323866 250.367153 
L 307.996882 252.150114 
L 307.70389 253.933075 
L 307.444838 255.716036 
L 307.218731 257.498997 
L 307.02381 259.281958 
L 306.857751 261.064919 
L 306.717853 262.84788 
z
" clip-path="url(#pb2d151dd4d)" style="fill: #348abd; fill-opacity: 0.3"/>
   </g>
   <g id="PolyCollection_10">
    <path d="M 334.998258 275.884019 
L 333.233968 275.884019 
L 333.036659 273.771239 
L 332.80857 271.65846 
L 332.5483 269.545681 
L 332.255199 267.432902 
L 331.929508 265.320123 
L 331.57247 263.207344 
L 331.186398 261.094564 
L 330.774682 258.981785 
L 330.341753 256.869006 
L 329.892989 254.756227 
L 329.434571 252.643448 
L 328.973317 250.530668 
L 328.516481 248.417889 
L 328.071553 246.30511 
L 327.646058 244.192331 
L 327.24737 242.079552 
L 326.882532 239.966773 
L 326.558102 237.853993 
L 326.280003 235.741214 
L 326.053391 233.628435 
L 325.882525 231.515656 
L 325.770646 229.402877 
L 325.719875 227.290097 
L 325.731114 225.177318 
L 325.803989 223.064539 
L 325.936819 220.95176 
L 326.126633 218.838981 
L 326.369238 216.726202 
L 326.659336 214.613422 
L 326.990696 212.500643 
L 327.356363 210.387864 
L 327.7489 208.275085 
L 328.160648 206.162306 
L 328.583981 204.049526 
L 329.011548 201.936747 
L 329.436484 199.823968 
L 329.852581 197.711189 
L 330.254403 195.59841 
L 330.637353 193.485631 
L 330.997685 191.372851 
L 331.332461 189.260072 
L 331.639472 187.147293 
L 331.917125 185.034514 
L 332.164309 182.921735 
L 332.380252 180.808955 
L 332.564392 178.696176 
L 332.716255 176.583397 
L 332.83537 174.470618 
L 332.921219 172.357839 
L 332.973226 170.24506 
L 332.990795 168.13228 
L 332.973392 166.019501 
L 332.920664 163.906722 
L 332.832587 161.793943 
L 332.709636 159.681164 
L 332.552955 157.568384 
L 332.364514 155.455605 
L 332.147222 153.342826 
L 331.905005 151.230047 
L 331.642803 149.117268 
L 331.366503 147.004488 
L 331.082788 144.891709 
L 330.798922 142.77893 
L 330.522471 140.666151 
L 330.26099 138.553372 
L 330.021685 136.440593 
L 329.811101 134.327813 
L 329.634828 132.215034 
L 329.497274 130.102255 
L 329.401501 127.989476 
L 329.349149 125.876697 
L 329.340433 123.763917 
L 329.374222 121.651138 
L 329.448176 119.538359 
L 329.55894 117.42558 
L 329.702367 115.312801 
L 329.873758 113.200022 
L 330.068099 111.087242 
L 330.280283 108.974463 
L 330.50531 106.861684 
L 330.738445 104.748905 
L 330.975347 102.636126 
L 331.212154 100.523346 
L 331.445534 98.410567 
L 331.672706 96.297788 
L 331.891433 94.185009 
L 332.099998 92.07223 
L 332.297163 89.959451 
L 332.482117 87.846671 
L 332.654424 85.733892 
L 332.813966 83.621113 
L 332.960882 81.508334 
L 333.095512 79.395555 
L 333.218347 77.282775 
L 333.329979 75.169996 
L 333.431056 73.057217 
L 333.522249 70.944438 
L 333.604225 68.831659 
L 333.677625 66.71888 
L 334.554601 66.71888 
L 334.554601 66.71888 
L 334.628001 68.831659 
L 334.709976 70.944438 
L 334.80117 73.057217 
L 334.902246 75.169996 
L 335.013878 77.282775 
L 335.136714 79.395555 
L 335.271344 81.508334 
L 335.418259 83.621113 
L 335.577801 85.733892 
L 335.750109 87.846671 
L 335.935063 89.959451 
L 336.132227 92.07223 
L 336.340793 94.185009 
L 336.55952 96.297788 
L 336.786692 98.410567 
L 337.020072 100.523346 
L 337.256878 102.636126 
L 337.493781 104.748905 
L 337.726916 106.861684 
L 337.951943 108.974463 
L 338.164127 111.087242 
L 338.358468 113.200022 
L 338.529859 115.312801 
L 338.673286 117.42558 
L 338.78405 119.538359 
L 338.858004 121.651138 
L 338.891792 123.763917 
L 338.883077 125.876697 
L 338.830725 127.989476 
L 338.734952 130.102255 
L 338.597397 132.215034 
L 338.421124 134.327813 
L 338.21054 136.440593 
L 337.971236 138.553372 
L 337.709754 140.666151 
L 337.433304 142.77893 
L 337.149438 144.891709 
L 336.865723 147.004488 
L 336.589423 149.117268 
L 336.327221 151.230047 
L 336.085004 153.342826 
L 335.867712 155.455605 
L 335.67927 157.568384 
L 335.52259 159.681164 
L 335.399639 161.793943 
L 335.311562 163.906722 
L 335.258833 166.019501 
L 335.241431 168.13228 
L 335.259 170.24506 
L 335.311007 172.357839 
L 335.396856 174.470618 
L 335.515971 176.583397 
L 335.667834 178.696176 
L 335.851973 180.808955 
L 336.067917 182.921735 
L 336.3151 185.034514 
L 336.592754 187.147293 
L 336.899765 189.260072 
L 337.234541 191.372851 
L 337.594872 193.485631 
L 337.977823 195.59841 
L 338.379645 197.711189 
L 338.795741 199.823968 
L 339.220678 201.936747 
L 339.648245 204.049526 
L 340.071578 206.162306 
L 340.483326 208.275085 
L 340.875863 210.387864 
L 341.24153 212.500643 
L 341.572889 214.613422 
L 341.862987 216.726202 
L 342.105592 218.838981 
L 342.295407 220.95176 
L 342.428237 223.064539 
L 342.501112 225.177318 
L 342.512351 227.290097 
L 342.461579 229.402877 
L 342.349701 231.515656 
L 342.178835 233.628435 
L 341.952222 235.741214 
L 341.674124 237.853993 
L 341.349693 239.966773 
L 340.984856 242.079552 
L 340.586167 244.192331 
L 340.160673 246.30511 
L 339.715745 248.417889 
L 339.258908 250.530668 
L 338.797654 252.643448 
L 338.339237 254.756227 
L 337.890473 256.869006 
L 337.457544 258.981785 
L 337.045828 261.094564 
L 336.659755 263.207344 
L 336.302718 265.320123 
L 335.977027 267.432902 
L 335.683925 269.545681 
L 335.423656 271.65846 
L 335.195567 273.771239 
L 334.998258 275.884019 
z
" clip-path="url(#pb2d151dd4d)" style="fill: #348abd; fill-opacity: 0.3"/>
   </g>
   <g id="PolyCollection_11">
    <path d="M 362.954828 294.74183 
L 361.25232 294.74183 
L 361.063569 292.273656 
L 360.845016 289.805482 
L 360.594998 287.337308 
L 360.312478 284.869133 
L 359.997189 282.400959 
L 359.649763 279.932785 
L 359.271837 277.464611 
L 358.866121 274.996436 
L 358.436423 272.528262 
L 357.987634 270.060088 
L 357.525662 267.591914 
L 357.057315 265.12374 
L 356.590141 262.655565 
L 356.132232 260.187391 
L 355.691984 257.719217 
L 355.277845 255.251043 
L 354.89804 252.782868 
L 354.560298 250.314694 
L 354.271588 247.84652 
L 354.037878 245.378346 
L 353.863925 242.910172 
L 353.753112 240.441997 
L 353.707335 237.973823 
L 353.726951 235.505649 
L 353.81078 233.037475 
L 353.956178 230.5693 
L 354.159154 228.101126 
L 354.414541 225.632952 
L 354.716207 223.164778 
L 355.057283 220.696604 
L 355.430419 218.228429 
L 355.828029 215.760255 
L 356.242532 213.292081 
L 356.666571 210.823907 
L 357.093203 208.355733 
L 357.516051 205.887558 
L 357.929421 203.419384 
L 358.32837 200.95121 
L 358.708734 198.483036 
L 359.067116 196.014861 
L 359.400836 193.546687 
L 359.707852 191.078513 
L 359.986656 188.610339 
L 360.236159 186.142165 
L 360.455569 183.67399 
L 360.644287 181.205816 
L 360.801803 178.737642 
L 360.927635 176.269468 
L 361.021291 173.801293 
L 361.082272 171.333119 
L 361.110112 168.864945 
L 361.104462 166.396771 
L 361.065199 163.928597 
L 360.992564 161.460422 
L 360.887308 158.992248 
L 360.750839 156.524074 
L 360.585339 154.0559 
L 360.393852 151.587725 
L 360.180306 149.119551 
L 359.949475 146.651377 
L 359.706861 144.183203 
L 359.458513 141.715029 
L 359.210771 139.246854 
L 358.969981 136.77868 
L 358.742182 134.310506 
L 358.532813 131.842332 
L 358.346454 129.374157 
L 358.186639 126.905983 
L 358.055753 124.437809 
L 357.955025 121.969635 
L 357.884606 119.501461 
L 357.843726 117.033286 
L 357.830906 114.565112 
L 357.844195 112.096938 
L 357.881399 109.628764 
L 357.940291 107.160589 
L 358.018761 104.692415 
L 358.114909 102.224241 
L 358.227085 99.756067 
L 358.353858 97.287893 
L 358.493956 94.819718 
L 358.646175 92.351544 
L 358.809285 89.88337 
L 358.981941 87.415196 
L 359.162627 84.947021 
L 359.349619 82.478847 
L 359.540997 80.010673 
L 359.734676 77.542499 
L 359.928473 75.074325 
L 360.120187 72.60615 
L 360.307684 70.137976 
L 360.488989 67.669802 
L 360.662353 65.201628 
L 360.826318 62.733453 
L 360.979748 60.265279 
L 361.121846 57.797105 
L 361.252147 55.328931 
L 361.370494 52.860757 
L 361.477001 50.392582 
L 362.730146 50.392582 
L 362.730146 50.392582 
L 362.836653 52.860757 
L 362.955001 55.328931 
L 363.085302 57.797105 
L 363.2274 60.265279 
L 363.380829 62.733453 
L 363.544794 65.201628 
L 363.718158 67.669802 
L 363.899463 70.137976 
L 364.086961 72.60615 
L 364.278674 75.074325 
L 364.472472 77.542499 
L 364.666151 80.010673 
L 364.857528 82.478847 
L 365.044521 84.947021 
L 365.225206 87.415196 
L 365.397863 89.88337 
L 365.560972 92.351544 
L 365.713192 94.819718 
L 365.85329 97.287893 
L 365.980062 99.756067 
L 366.092238 102.224241 
L 366.188387 104.692415 
L 366.266856 107.160589 
L 366.325748 109.628764 
L 366.362953 112.096938 
L 366.376241 114.565112 
L 366.363421 117.033286 
L 366.322541 119.501461 
L 366.252122 121.969635 
L 366.151394 124.437809 
L 366.020509 126.905983 
L 365.860693 129.374157 
L 365.674334 131.842332 
L 365.464965 134.310506 
L 365.237167 136.77868 
L 364.996376 139.246854 
L 364.748635 141.715029 
L 364.500286 144.183203 
L 364.257672 146.651377 
L 364.026841 149.119551 
L 363.813295 151.587725 
L 363.621808 154.0559 
L 363.456309 156.524074 
L 363.319839 158.992248 
L 363.214583 161.460422 
L 363.141948 163.928597 
L 363.102685 166.396771 
L 363.097035 168.864945 
L 363.124876 171.333119 
L 363.185856 173.801293 
L 363.279513 176.269468 
L 363.405345 178.737642 
L 363.562861 181.205816 
L 363.751578 183.67399 
L 363.970989 186.142165 
L 364.220491 188.610339 
L 364.499295 191.078513 
L 364.806311 193.546687 
L 365.140031 196.014861 
L 365.498413 198.483036 
L 365.878777 200.95121 
L 366.277726 203.419384 
L 366.691096 205.887558 
L 367.113945 208.355733 
L 367.540576 210.823907 
L 367.964615 213.292081 
L 368.379118 215.760255 
L 368.776728 218.228429 
L 369.149864 220.696604 
L 369.490941 223.164778 
L 369.792606 225.632952 
L 370.047994 228.101126 
L 370.25097 230.5693 
L 370.396367 233.037475 
L 370.480197 235.505649 
L 370.499812 237.973823 
L 370.454035 240.441997 
L 370.343222 242.910172 
L 370.169269 245.378346 
L 369.935559 247.84652 
L 369.646849 250.314694 
L 369.309107 252.782868 
L 368.929302 255.251043 
L 368.515163 257.719217 
L 368.074915 260.187391 
L 367.617006 262.655565 
L 367.149833 265.12374 
L 366.681485 267.591914 
L 366.219513 270.060088 
L 365.770725 272.528262 
L 365.341027 274.996436 
L 364.93531 277.464611 
L 364.557384 279.932785 
L 364.209959 282.400959 
L 363.894669 284.869133 
L 363.612149 287.337308 
L 363.362132 289.805482 
L 363.143579 292.273656 
L 362.954828 294.74183 
z
" clip-path="url(#pb2d151dd4d)" style="fill: #348abd; fill-opacity: 0.3"/>
   </g>
   <g id="PolyCollection_12">
    <path d="M 391.170744 311.51535 
L 389.011324 311.51535 
L 388.793803 308.745141 
L 388.54702 305.974933 
L 388.270292 303.204724 
L 387.963611 300.434515 
L 387.627731 297.664307 
L 387.264241 294.894098 
L 386.875597 292.12389 
L 386.465144 289.353681 
L 386.037086 286.583473 
L 385.596444 283.813264 
L 385.148967 281.043056 
L 384.701027 278.272847 
L 384.25948 275.502639 
L 383.831511 272.73243 
L 383.424453 269.962222 
L 383.0456 267.192013 
L 382.702005 264.421805 
L 382.400271 261.651596 
L 382.14635 258.881388 
L 381.945353 256.111179 
L 381.801366 253.34097 
L 381.717304 250.570762 
L 381.694796 247.800553 
L 381.734112 245.030345 
L 381.834139 242.260136 
L 381.99241 239.489928 
L 382.205191 236.719719 
L 382.467618 233.949511 
L 382.773873 231.179302 
L 383.117408 228.409094 
L 383.49118 225.638885 
L 383.887902 222.868677 
L 384.300285 220.098468 
L 384.721261 217.32826 
L 385.144173 214.558051 
L 385.562927 211.787842 
L 385.972097 209.017634 
L 386.366988 206.247425 
L 386.743643 203.477217 
L 387.09883 200.707008 
L 387.429979 197.9368 
L 387.735112 195.166591 
L 388.012746 192.396383 
L 388.261802 189.626174 
L 388.48151 186.855966 
L 388.67133 184.085757 
L 388.830878 181.315549 
L 388.95989 178.54534 
L 389.05819 175.775132 
L 389.125697 173.004923 
L 389.162455 170.234714 
L 389.168674 167.464506 
L 389.14481 164.694297 
L 389.091636 161.924089 
L 389.010327 159.15388 
L 388.902539 156.383672 
L 388.77046 153.613463 
L 388.616837 150.843255 
L 388.444964 148.073046 
L 388.258624 145.302838 
L 388.061988 142.532629 
L 387.859469 139.762421 
L 387.655543 136.992212 
L 387.454561 134.222004 
L 387.260548 131.451795 
L 387.077029 128.681586 
L 386.90689 125.911378 
L 386.752287 123.141169 
L 386.614623 120.370961 
L 386.494582 117.600752 
L 386.392226 114.830544 
L 386.307143 112.060335 
L 386.238616 109.290127 
L 386.185814 106.519918 
L 386.147964 103.74971 
L 386.124491 100.979501 
L 386.115118 98.209293 
L 386.119903 95.439084 
L 386.13922 92.668876 
L 386.173691 89.898667 
L 386.224067 87.128458 
L 386.291091 84.35825 
L 386.375347 81.588041 
L 386.47712 78.817833 
L 386.596282 76.047624 
L 386.732211 73.277416 
L 386.883758 70.507207 
L 387.049259 67.736999 
L 387.226584 64.96679 
L 387.413233 62.196582 
L 387.606439 59.426373 
L 387.803301 56.656165 
L 388.00091 53.885956 
L 388.196469 51.115748 
L 388.387395 48.345539 
L 388.571398 45.575331 
L 388.746545 42.805122 
L 388.911283 40.034913 
L 389.064456 37.264705 
L 391.117613 37.264705 
L 391.117613 37.264705 
L 391.270786 40.034913 
L 391.435524 42.805122 
L 391.610671 45.575331 
L 391.794674 48.345539 
L 391.9856 51.115748 
L 392.181159 53.885956 
L 392.378768 56.656165 
L 392.57563 59.426373 
L 392.768836 62.196582 
L 392.955485 64.96679 
L 393.13281 67.736999 
L 393.298311 70.507207 
L 393.449858 73.277416 
L 393.585787 76.047624 
L 393.704949 78.817833 
L 393.806722 81.588041 
L 393.890978 84.35825 
L 393.958002 87.128458 
L 394.008378 89.898667 
L 394.042849 92.668876 
L 394.062166 95.439084 
L 394.066951 98.209293 
L 394.057578 100.979501 
L 394.034105 103.74971 
L 393.996255 106.519918 
L 393.943453 109.290127 
L 393.874926 112.060335 
L 393.789843 114.830544 
L 393.687487 117.600752 
L 393.567446 120.370961 
L 393.429782 123.141169 
L 393.275179 125.911378 
L 393.10504 128.681586 
L 392.921521 131.451795 
L 392.727508 134.222004 
L 392.526526 136.992212 
L 392.3226 139.762421 
L 392.120081 142.532629 
L 391.923445 145.302838 
L 391.737105 148.073046 
L 391.565232 150.843255 
L 391.411609 153.613463 
L 391.27953 156.383672 
L 391.171742 159.15388 
L 391.090433 161.924089 
L 391.037259 164.694297 
L 391.013395 167.464506 
L 391.019614 170.234714 
L 391.056372 173.004923 
L 391.123879 175.775132 
L 391.222179 178.54534 
L 391.351191 181.315549 
L 391.510739 184.085757 
L 391.700559 186.855966 
L 391.920267 189.626174 
L 392.169323 192.396383 
L 392.446957 195.166591 
L 392.75209 197.9368 
L 393.083239 200.707008 
L 393.438426 203.477217 
L 393.815081 206.247425 
L 394.209972 209.017634 
L 394.619142 211.787842 
L 395.037896 214.558051 
L 395.460808 217.32826 
L 395.881784 220.098468 
L 396.294167 222.868677 
L 396.690889 225.638885 
L 397.064661 228.409094 
L 397.408196 231.179302 
L 397.714451 233.949511 
L 397.976878 236.719719 
L 398.189659 239.489928 
L 398.34793 242.260136 
L 398.447957 245.030345 
L 398.487273 247.800553 
L 398.464765 250.570762 
L 398.380703 253.34097 
L 398.236716 256.111179 
L 398.035719 258.881388 
L 397.781798 261.651596 
L 397.480064 264.421805 
L 397.136469 267.192013 
L 396.757616 269.962222 
L 396.350558 272.73243 
L 395.922589 275.502639 
L 395.481042 278.272847 
L 395.033102 281.043056 
L 394.585625 283.813264 
L 394.144983 286.583473 
L 393.716925 289.353681 
L 393.306472 292.12389 
L 392.917828 294.894098 
L 392.554338 297.664307 
L 392.218458 300.434515 
L 391.911777 303.204724 
L 391.635049 305.974933 
L 391.388266 308.745141 
L 391.170744 311.51535 
z
" clip-path="url(#pb2d151dd4d)" style="fill: #348abd; fill-opacity: 0.3"/>
   </g>
   <g id="matplotlib.axis_1">
    <g id="xtick_1">
     <g id="line2d_1">
      <path d="M 82.228966 307.584 
L 82.228966 41.472 
" clip-path="url(#pb2d151dd4d)" style="fill: none; stroke-dasharray: 1.85,0.8; stroke-dashoffset: 0; stroke: #b2b2b2; stroke-width: 0.5"/>
     </g>
     <g id="line2d_2">
      <defs>
       <path id="m98ef5511e3" d="M 0 0 
L 0 -3.5 
" style="stroke: #000000; stroke-width: 0.8"/>
      </defs>
      <g>
       <use xlink:href="#m98ef5511e3" x="82.228966" y="307.584" style="stroke: #000000; stroke-width: 0.8"/>
      </g>
     </g>
     <g id="text_1">
      <!-- 0 -->
      <g transform="translate(79.047716 318.682437) scale(0.1 -0.1)">
       <defs>
        <path id="DejaVuSans-30" d="M 2034 4250 
Q 1547 4250 1301 3770 
Q 1056 3291 1056 2328 
Q 1056 1369 1301 889 
Q 1547 409 2034 409 
Q 2525 409 2770 889 
Q 3016 1369 3016 2328 
Q 3016 3291 2770 3770 
Q 2525 4250 2034 4250 
z
M 2034 4750 
Q 2819 4750 3233 4129 
Q 3647 3509 3647 2328 
Q 3647 1150 3233 529 
Q 2819 -91 2034 -91 
Q 1250 -91 836 529 
Q 422 1150 422 2328 
Q 422 3509 836 4129 
Q 1250 4750 2034 4750 
z
" transform="scale(0.015625)"/>
       </defs>
       <use xlink:href="#DejaVuSans-30"/>
      </g>
     </g>
    </g>
    <g id="xtick_2">
     <g id="line2d_3">
      <path d="M 138.203887 307.584 
L 138.203887 41.472 
" clip-path="url(#pb2d151dd4d)" style="fill: none; stroke-dasharray: 1.85,0.8; stroke-dashoffset: 0; stroke: #b2b2b2; stroke-width: 0.5"/>
     </g>
     <g id="line2d_4">
      <g>
       <use xlink:href="#m98ef5511e3" x="138.203887" y="307.584" style="stroke: #000000; stroke-width: 0.8"/>
      </g>
     </g>
     <g id="text_2">
      <!-- 50 -->
      <g transform="translate(131.841387 318.682437) scale(0.1 -0.1)">
       <defs>
        <path id="DejaVuSans-35" d="M 691 4666 
L 3169 4666 
L 3169 4134 
L 1269 4134 
L 1269 2991 
Q 1406 3038 1543 3061 
Q 1681 3084 1819 3084 
Q 2600 3084 3056 2656 
Q 3513 2228 3513 1497 
Q 3513 744 3044 326 
Q 2575 -91 1722 -91 
Q 1428 -91 1123 -41 
Q 819 9 494 109 
L 494 744 
Q 775 591 1075 516 
Q 1375 441 1709 441 
Q 2250 441 2565 725 
Q 2881 1009 2881 1497 
Q 2881 1984 2565 2268 
Q 2250 2553 1709 2553 
Q 1456 2553 1204 2497 
Q 953 2441 691 2322 
L 691 4666 
z
" transform="scale(0.015625)"/>
       </defs>
       <use xlink:href="#DejaVuSans-35"/>
       <use xlink:href="#DejaVuSans-30" x="63.623047"/>
      </g>
     </g>
    </g>
    <g id="xtick_3">
     <g id="line2d_5">
      <path d="M 194.178809 307.584 
L 194.178809 41.472 
" clip-path="url(#pb2d151dd4d)" style="fill: none; stroke-dasharray: 1.85,0.8; stroke-dashoffset: 0; stroke: #b2b2b2; stroke-width: 0.5"/>
     </g>
     <g id="line2d_6">
      <g>
       <use xlink:href="#m98ef5511e3" x="194.178809" y="307.584" style="stroke: #000000; stroke-width: 0.8"/>
      </g>
     </g>
     <g id="text_3">
      <!-- 100 -->
      <g transform="translate(184.635059 318.682437) scale(0.1 -0.1)">
       <defs>
        <path id="DejaVuSans-31" d="M 794 531 
L 1825 531 
L 1825 4091 
L 703 3866 
L 703 4441 
L 1819 4666 
L 2450 4666 
L 2450 531 
L 3481 531 
L 3481 0 
L 794 0 
L 794 531 
z
" transform="scale(0.015625)"/>
       </defs>
       <use xlink:href="#DejaVuSans-31"/>
       <use xlink:href="#DejaVuSans-30" x="63.623047"/>
       <use xlink:href="#DejaVuSans-30" x="127.246094"/>
      </g>
     </g>
    </g>
    <g id="xtick_4">
     <g id="line2d_7">
      <path d="M 250.15373 307.584 
L 250.15373 41.472 
" clip-path="url(#pb2d151dd4d)" style="fill: none; stroke-dasharray: 1.85,0.8; stroke-dashoffset: 0; stroke: #b2b2b2; stroke-width: 0.5"/>
     </g>
     <g id="line2d_8">
      <g>
       <use xlink:href="#m98ef5511e3" x="250.15373" y="307.584" style="stroke: #000000; stroke-width: 0.8"/>
      </g>
     </g>
     <g id="text_4">
      <!-- 150 -->
      <g transform="translate(240.60998 318.682437) scale(0.1 -0.1)">
       <use xlink:href="#DejaVuSans-31"/>
       <use xlink:href="#DejaVuSans-35" x="63.623047"/>
       <use xlink:href="#DejaVuSans-30" x="127.246094"/>
      </g>
     </g>
    </g>
    <g id="xtick_5">
     <g id="line2d_9">
      <path d="M 306.128652 307.584 
L 306.128652 41.472 
" clip-path="url(#pb2d151dd4d)" style="fill: none; stroke-dasharray: 1.85,0.8; stroke-dashoffset: 0; stroke: #b2b2b2; stroke-width: 0.5"/>
     </g>
     <g id="line2d_10">
      <g>
       <use xlink:href="#m98ef5511e3" x="306.128652" y="307.584" style="stroke: #000000; stroke-width: 0.8"/>
      </g>
     </g>
     <g id="text_5">
      <!-- 200 -->
      <g transform="translate(296.584902 318.682437) scale(0.1 -0.1)">
       <defs>
        <path id="DejaVuSans-32" d="M 1228 531 
L 3431 531 
L 3431 0 
L 469 0 
L 469 531 
Q 828 903 1448 1529 
Q 2069 2156 2228 2338 
Q 2531 2678 2651 2914 
Q 2772 3150 2772 3378 
Q 2772 3750 2511 3984 
Q 2250 4219 1831 4219 
Q 1534 4219 1204 4116 
Q 875 4013 500 3803 
L 500 4441 
Q 881 4594 1212 4672 
Q 1544 4750 1819 4750 
Q 2544 4750 2975 4387 
Q 3406 4025 3406 3419 
Q 3406 3131 3298 2873 
Q 3191 2616 2906 2266 
Q 2828 2175 2409 1742 
Q 1991 1309 1228 531 
z
" transform="scale(0.015625)"/>
       </defs>
       <use xlink:href="#DejaVuSans-32"/>
       <use xlink:href="#DejaVuSans-30" x="63.623047"/>
       <use xlink:href="#DejaVuSans-30" x="127.246094"/>
      </g>
     </g>
    </g>
    <g id="xtick_6">
     <g id="line2d_11">
      <path d="M 362.103574 307.584 
L 362.103574 41.472 
" clip-path="url(#pb2d151dd4d)" style="fill: none; stroke-dasharray: 1.85,0.8; stroke-dashoffset: 0; stroke: #b2b2b2; stroke-width: 0.5"/>
     </g>
     <g id="line2d_12">
      <g>
       <use xlink:href="#m98ef5511e3" x="362.103574" y="307.584" style="stroke: #000000; stroke-width: 0.8"/>
      </g>
     </g>
     <g id="text_6">
      <!-- 250 -->
      <g transform="translate(352.559824 318.682437) scale(0.1 -0.1)">
       <use xlink:href="#DejaVuSans-32"/>
       <use xlink:href="#DejaVuSans-35" x="63.623047"/>
       <use xlink:href="#DejaVuSans-30" x="127.246094"/>
      </g>
     </g>
    </g>
    <g id="text_7">
     <!-- $s$ -->
     <g transform="translate(233.34 333.88025) scale(0.12 -0.12)">
      <defs>
       <path id="Cmmi10-73" d="M 556 391 
Q 728 97 1247 97 
Q 1472 97 1675 173 
Q 1878 250 2011 403 
Q 2144 556 2144 775 
Q 2144 941 2025 1047 
Q 1906 1153 1734 1191 
L 1388 1259 
Q 1150 1319 997 1481 
Q 844 1644 844 1875 
Q 844 2159 998 2378 
Q 1153 2597 1406 2712 
Q 1659 2828 1931 2828 
Q 2222 2828 2451 2689 
Q 2681 2550 2681 2278 
Q 2681 2131 2598 2018 
Q 2516 1906 2369 1906 
Q 2284 1906 2223 1961 
Q 2163 2016 2163 2100 
Q 2163 2175 2205 2245 
Q 2247 2316 2317 2358 
Q 2388 2400 2463 2400 
Q 2406 2538 2251 2600 
Q 2097 2663 1919 2663 
Q 1756 2663 1593 2597 
Q 1431 2531 1332 2404 
Q 1234 2278 1234 2106 
Q 1234 1991 1315 1903 
Q 1397 1816 1516 1778 
L 1888 1703 
Q 2066 1666 2214 1570 
Q 2363 1475 2448 1329 
Q 2534 1184 2534 997 
Q 2534 759 2401 528 
Q 2269 297 2075 159 
Q 1734 -72 1241 -72 
Q 900 -72 615 84 
Q 331 241 331 550 
Q 331 725 432 854 
Q 534 984 709 984 
Q 813 984 883 921 
Q 953 859 953 756 
Q 953 609 843 500 
Q 734 391 588 391 
L 556 391 
z
" transform="scale(0.015625)"/>
      </defs>
      <use xlink:href="#Cmmi10-73" transform="translate(0 0.8125)"/>
     </g>
    </g>
   </g>
   <g id="matplotlib.axis_2">
    <g id="ytick_1">
     <g id="line2d_13">
      <path d="M 57.6 307.584 
L 414.72 307.584 
" clip-path="url(#pb2d151dd4d)" style="fill: none; stroke-dasharray: 1.85,0.8; stroke-dashoffset: 0; stroke: #b2b2b2; stroke-width: 0.5"/>
     </g>
     <g id="line2d_14">
      <defs>
       <path id="md8caaed115" d="M 0 0 
L 3.5 0 
" style="stroke: #000000; stroke-width: 0.8"/>
      </defs>
      <g>
       <use xlink:href="#md8caaed115" x="57.6" y="307.584" style="stroke: #000000; stroke-width: 0.8"/>
      </g>
     </g>
     <g id="text_8">
      <!-- 20 -->
      <g transform="translate(32.995312 311.383219) scale(0.1 -0.1)">
       <defs>
        <path id="DejaVuSans-2212" d="M 678 2272 
L 4684 2272 
L 4684 1741 
L 678 1741 
L 678 2272 
z
" transform="scale(0.015625)"/>
       </defs>
       <use xlink:href="#DejaVuSans-2212"/>
       <use xlink:href="#DejaVuSans-32" x="83.789062"/>
       <use xlink:href="#DejaVuSans-30" x="147.412109"/>
      </g>
     </g>
    </g>
    <g id="ytick_2">
     <g id="line2d_15">
      <path d="M 57.6 274.32 
L 414.72 274.32 
" clip-path="url(#pb2d151dd4d)" style="fill: none; stroke-dasharray: 1.85,0.8; stroke-dashoffset: 0; stroke: #b2b2b2; stroke-width: 0.5"/>
     </g>
     <g id="line2d_16">
      <g>
       <use xlink:href="#md8caaed115" x="57.6" y="274.32" style="stroke: #000000; stroke-width: 0.8"/>
      </g>
     </g>
     <g id="text_9">
      <!-- 15 -->
      <g transform="translate(32.995312 278.119219) scale(0.1 -0.1)">
       <use xlink:href="#DejaVuSans-2212"/>
       <use xlink:href="#DejaVuSans-31" x="83.789062"/>
       <use xlink:href="#DejaVuSans-35" x="147.412109"/>
      </g>
     </g>
    </g>
    <g id="ytick_3">
     <g id="line2d_17">
      <path d="M 57.6 241.056 
L 414.72 241.056 
" clip-path="url(#pb2d151dd4d)" style="fill: none; stroke-dasharray: 1.85,0.8; stroke-dashoffset: 0; stroke: #b2b2b2; stroke-width: 0.5"/>
     </g>
     <g id="line2d_18">
      <g>
       <use xlink:href="#md8caaed115" x="57.6" y="241.056" style="stroke: #000000; stroke-width: 0.8"/>
      </g>
     </g>
     <g id="text_10">
      <!-- 10 -->
      <g transform="translate(32.995312 244.855219) scale(0.1 -0.1)">
       <use xlink:href="#DejaVuSans-2212"/>
       <use xlink:href="#DejaVuSans-31" x="83.789062"/>
       <use xlink:href="#DejaVuSans-30" x="147.412109"/>
      </g>
     </g>
    </g>
    <g id="ytick_4">
     <g id="line2d_19">
      <path d="M 57.6 207.792 
L 414.72 207.792 
" clip-path="url(#pb2d151dd4d)" style="fill: none; stroke-dasharray: 1.85,0.8; stroke-dashoffset: 0; stroke: #b2b2b2; stroke-width: 0.5"/>
     </g>
     <g id="line2d_20">
      <g>
       <use xlink:href="#md8caaed115" x="57.6" y="207.792" style="stroke: #000000; stroke-width: 0.8"/>
      </g>
     </g>
     <g id="text_11">
      <!-- 5 -->
      <g transform="translate(39.357813 211.591219) scale(0.1 -0.1)">
       <use xlink:href="#DejaVuSans-2212"/>
       <use xlink:href="#DejaVuSans-35" x="83.789062"/>
      </g>
     </g>
    </g>
    <g id="ytick_5">
     <g id="line2d_21">
      <path d="M 57.6 174.528 
L 414.72 174.528 
" clip-path="url(#pb2d151dd4d)" style="fill: none; stroke-dasharray: 1.85,0.8; stroke-dashoffset: 0; stroke: #b2b2b2; stroke-width: 0.5"/>
     </g>
     <g id="line2d_22">
      <g>
       <use xlink:href="#md8caaed115" x="57.6" y="174.528" style="stroke: #000000; stroke-width: 0.8"/>
      </g>
     </g>
     <g id="text_12">
      <!-- 0 -->
      <g transform="translate(47.7375 178.327219) scale(0.1 -0.1)">
       <use xlink:href="#DejaVuSans-30"/>
      </g>
     </g>
    </g>
    <g id="ytick_6">
     <g id="line2d_23">
      <path d="M 57.6 141.264 
L 414.72 141.264 
" clip-path="url(#pb2d151dd4d)" style="fill: none; stroke-dasharray: 1.85,0.8; stroke-dashoffset: 0; stroke: #b2b2b2; stroke-width: 0.5"/>
     </g>
     <g id="line2d_24">
      <g>
       <use xlink:href="#md8caaed115" x="57.6" y="141.264" style="stroke: #000000; stroke-width: 0.8"/>
      </g>
     </g>
     <g id="text_13">
      <!-- 5 -->
      <g transform="translate(47.7375 145.063219) scale(0.1 -0.1)">
       <use xlink:href="#DejaVuSans-35"/>
      </g>
     </g>
    </g>
    <g id="ytick_7">
     <g id="line2d_25">
      <path d="M 57.6 108 
L 414.72 108 
" clip-path="url(#pb2d151dd4d)" style="fill: none; stroke-dasharray: 1.85,0.8; stroke-dashoffset: 0; stroke: #b2b2b2; stroke-width: 0.5"/>
     </g>
     <g id="line2d_26">
      <g>
       <use xlink:href="#md8caaed115" x="57.6" y="108" style="stroke: #000000; stroke-width: 0.8"/>
      </g>
     </g>
     <g id="text_14">
      <!-- 10 -->
      <g transform="translate(41.375 111.799219) scale(0.1 -0.1)">
       <use xlink:href="#DejaVuSans-31"/>
       <use xlink:href="#DejaVuSans-30" x="63.623047"/>
      </g>
     </g>
    </g>
    <g id="ytick_8">
     <g id="line2d_27">
      <path d="M 57.6 74.736 
L 414.72 74.736 
" clip-path="url(#pb2d151dd4d)" style="fill: none; stroke-dasharray: 1.85,0.8; stroke-dashoffset: 0; stroke: #b2b2b2; stroke-width: 0.5"/>
     </g>
     <g id="line2d_28">
      <g>
       <use xlink:href="#md8caaed115" x="57.6" y="74.736" style="stroke: #000000; stroke-width: 0.8"/>
      </g>
     </g>
     <g id="text_15">
      <!-- 15 -->
      <g transform="translate(41.375 78.535219) scale(0.1 -0.1)">
       <use xlink:href="#DejaVuSans-31"/>
       <use xlink:href="#DejaVuSans-35" x="63.623047"/>
      </g>
     </g>
    </g>
    <g id="ytick_9">
     <g id="line2d_29">
      <path d="M 57.6 41.472 
L 414.72 41.472 
" clip-path="url(#pb2d151dd4d)" style="fill: none; stroke-dasharray: 1.85,0.8; stroke-dashoffset: 0; stroke: #b2b2b2; stroke-width: 0.5"/>
     </g>
     <g id="line2d_30">
      <g>
       <use xlink:href="#md8caaed115" x="57.6" y="41.472" style="stroke: #000000; stroke-width: 0.8"/>
      </g>
     </g>
     <g id="text_16">
      <!-- 20 -->
      <g transform="translate(41.375 45.271219) scale(0.1 -0.1)">
       <use xlink:href="#DejaVuSans-32"/>
       <use xlink:href="#DejaVuSans-30" x="63.623047"/>
      </g>
     </g>
    </g>
    <g id="text_17">
     <!-- $x_{s}$ -->
     <g transform="translate(26.499687 180.348) rotate(-90) scale(0.12 -0.12)">
      <defs>
       <path id="Cmmi10-78" d="M 500 184 
Q 613 97 819 97 
Q 1019 97 1172 289 
Q 1325 481 1381 709 
L 1672 1844 
Q 1741 2153 1741 2266 
Q 1741 2425 1652 2544 
Q 1563 2663 1403 2663 
Q 1200 2663 1022 2536 
Q 844 2409 722 2214 
Q 600 2019 550 1819 
Q 538 1778 500 1778 
L 422 1778 
Q 372 1778 372 1838 
L 372 1856 
Q 434 2094 584 2320 
Q 734 2547 951 2687 
Q 1169 2828 1416 2828 
Q 1650 2828 1839 2703 
Q 2028 2578 2106 2363 
Q 2216 2559 2386 2693 
Q 2556 2828 2759 2828 
Q 2897 2828 3040 2779 
Q 3184 2731 3275 2631 
Q 3366 2531 3366 2381 
Q 3366 2219 3261 2101 
Q 3156 1984 2994 1984 
Q 2891 1984 2822 2050 
Q 2753 2116 2753 2216 
Q 2753 2350 2845 2451 
Q 2938 2553 3066 2572 
Q 2950 2663 2747 2663 
Q 2541 2663 2389 2472 
Q 2238 2281 2175 2047 
L 1894 916 
Q 1825 659 1825 494 
Q 1825 331 1917 214 
Q 2009 97 2163 97 
Q 2463 97 2698 361 
Q 2934 625 3009 941 
Q 3022 978 3059 978 
L 3138 978 
Q 3163 978 3178 961 
Q 3194 944 3194 922 
Q 3194 916 3188 903 
Q 3097 522 2806 225 
Q 2516 -72 2150 -72 
Q 1916 -72 1727 54 
Q 1538 181 1459 397 
Q 1359 209 1182 68 
Q 1006 -72 806 -72 
Q 669 -72 523 -23 
Q 378 25 287 125 
Q 197 225 197 378 
Q 197 528 301 651 
Q 406 775 563 775 
Q 669 775 741 711 
Q 813 647 813 544 
Q 813 409 723 309 
Q 634 209 500 184 
z
" transform="scale(0.015625)"/>
      </defs>
      <use xlink:href="#Cmmi10-78" transform="translate(0 0.8125)"/>
      <use xlink:href="#Cmmi10-73" transform="translate(57.080078 -16.19375) scale(0.7)"/>
     </g>
    </g>
   </g>
   <g id="LineCollection_1">
    <path d="M 282.619185 307.584 
L 282.619185 41.472 
" clip-path="url(#pb2d151dd4d)" style="fill: none; stroke-dasharray: 7.4,3.2; stroke-dashoffset: 0; stroke: #ff0000; stroke-width: 2"/>
   </g>
   <g id="LineCollection_2">
    <path d="M 78.030846 151.693861 
L 86.427085 151.693861 
" clip-path="url(#pb2d151dd4d)" style="fill: none; stroke: #348abd; stroke-width: 2"/>
    <path d="M 106.018307 147.206889 
L 114.414545 147.206889 
" clip-path="url(#pb2d151dd4d)" style="fill: none; stroke: #348abd; stroke-width: 2"/>
    <path d="M 134.005768 143.027069 
L 142.402006 143.027069 
" clip-path="url(#pb2d151dd4d)" style="fill: none; stroke: #348abd; stroke-width: 2"/>
    <path d="M 161.993229 140.437948 
L 170.389467 140.437948 
" clip-path="url(#pb2d151dd4d)" style="fill: none; stroke: #348abd; stroke-width: 2"/>
    <path d="M 189.98069 133.885157 
L 198.376928 133.885157 
" clip-path="url(#pb2d151dd4d)" style="fill: none; stroke: #348abd; stroke-width: 2"/>
    <path d="M 217.96815 126.728546 
L 226.364389 126.728546 
" clip-path="url(#pb2d151dd4d)" style="fill: none; stroke: #348abd; stroke-width: 2"/>
    <path d="M 245.955611 117.253516 
L 254.35185 117.253516 
" clip-path="url(#pb2d151dd4d)" style="fill: none; stroke: #348abd; stroke-width: 2"/>
    <path d="M 273.943072 99.71372 
L 282.33931 99.71372 
" clip-path="url(#pb2d151dd4d)" style="fill: none; stroke: #348abd; stroke-width: 2"/>
    <path d="M 301.930533 86.33474 
L 310.326771 86.33474 
" clip-path="url(#pb2d151dd4d)" style="fill: none; stroke: #348abd; stroke-width: 2"/>
    <path d="M 329.917994 66.71888 
L 338.314232 66.71888 
" clip-path="url(#pb2d151dd4d)" style="fill: none; stroke: #348abd; stroke-width: 2"/>
    <path d="M 357.905455 50.392582 
L 366.301693 50.392582 
" clip-path="url(#pb2d151dd4d)" style="fill: none; stroke: #348abd; stroke-width: 2"/>
    <path d="M 385.892915 37.264705 
L 394.289154 37.264705 
" clip-path="url(#pb2d151dd4d)" style="fill: none; stroke: #348abd; stroke-width: 2"/>
   </g>
   <g id="LineCollection_3">
    <path d="M 78.030846 196.244773 
L 86.427085 196.244773 
" clip-path="url(#pb2d151dd4d)" style="fill: none; stroke: #348abd; stroke-width: 2"/>
    <path d="M 106.018307 199.614543 
L 114.414545 199.614543 
" clip-path="url(#pb2d151dd4d)" style="fill: none; stroke: #348abd; stroke-width: 2"/>
    <path d="M 134.005768 202.252946 
L 142.402006 202.252946 
" clip-path="url(#pb2d151dd4d)" style="fill: none; stroke: #348abd; stroke-width: 2"/>
    <path d="M 161.993229 206.593064 
L 170.389467 206.593064 
" clip-path="url(#pb2d151dd4d)" style="fill: none; stroke: #348abd; stroke-width: 2"/>
    <path d="M 189.98069 213.613179 
L 198.376928 213.613179 
" clip-path="url(#pb2d151dd4d)" style="fill: none; stroke: #348abd; stroke-width: 2"/>
    <path d="M 217.96815 222.625438 
L 226.364389 222.625438 
" clip-path="url(#pb2d151dd4d)" style="fill: none; stroke: #348abd; stroke-width: 2"/>
    <path d="M 245.955611 237.231999 
L 254.35185 237.231999 
" clip-path="url(#pb2d151dd4d)" style="fill: none; stroke: #348abd; stroke-width: 2"/>
    <path d="M 273.943072 247.708095 
L 282.33931 247.708095 
" clip-path="url(#pb2d151dd4d)" style="fill: none; stroke: #348abd; stroke-width: 2"/>
    <path d="M 301.930533 262.84788 
L 310.326771 262.84788 
" clip-path="url(#pb2d151dd4d)" style="fill: none; stroke: #348abd; stroke-width: 2"/>
    <path d="M 329.917994 275.884019 
L 338.314232 275.884019 
" clip-path="url(#pb2d151dd4d)" style="fill: none; stroke: #348abd; stroke-width: 2"/>
    <path d="M 357.905455 294.74183 
L 366.301693 294.74183 
" clip-path="url(#pb2d151dd4d)" style="fill: none; stroke: #348abd; stroke-width: 2"/>
    <path d="M 385.892915 311.51535 
L 394.289154 311.51535 
" clip-path="url(#pb2d151dd4d)" style="fill: none; stroke: #348abd; stroke-width: 2"/>
   </g>
   <g id="LineCollection_4">
    <path d="M 82.228966 196.244773 
L 82.228966 151.693861 
" clip-path="url(#pb2d151dd4d)" style="fill: none; stroke: #348abd; stroke-width: 2"/>
    <path d="M 110.216426 199.614543 
L 110.216426 147.206889 
" clip-path="url(#pb2d151dd4d)" style="fill: none; stroke: #348abd; stroke-width: 2"/>
    <path d="M 138.203887 202.252946 
L 138.203887 143.027069 
" clip-path="url(#pb2d151dd4d)" style="fill: none; stroke: #348abd; stroke-width: 2"/>
    <path d="M 166.191348 206.593064 
L 166.191348 140.437948 
" clip-path="url(#pb2d151dd4d)" style="fill: none; stroke: #348abd; stroke-width: 2"/>
    <path d="M 194.178809 213.613179 
L 194.178809 133.885157 
" clip-path="url(#pb2d151dd4d)" style="fill: none; stroke: #348abd; stroke-width: 2"/>
    <path d="M 222.16627 222.625438 
L 222.16627 126.728546 
" clip-path="url(#pb2d151dd4d)" style="fill: none; stroke: #348abd; stroke-width: 2"/>
    <path d="M 250.15373 237.231999 
L 250.15373 117.253516 
" clip-path="url(#pb2d151dd4d)" style="fill: none; stroke: #348abd; stroke-width: 2"/>
    <path d="M 278.141191 247.708095 
L 278.141191 99.71372 
" clip-path="url(#pb2d151dd4d)" style="fill: none; stroke: #348abd; stroke-width: 2"/>
    <path d="M 306.128652 262.84788 
L 306.128652 86.33474 
" clip-path="url(#pb2d151dd4d)" style="fill: none; stroke: #348abd; stroke-width: 2"/>
    <path d="M 334.116113 275.884019 
L 334.116113 66.71888 
" clip-path="url(#pb2d151dd4d)" style="fill: none; stroke: #348abd; stroke-width: 2"/>
    <path d="M 362.103574 294.74183 
L 362.103574 50.392582 
" clip-path="url(#pb2d151dd4d)" style="fill: none; stroke: #348abd; stroke-width: 2"/>
    <path d="M 390.091034 311.51535 
L 390.091034 37.264705 
" clip-path="url(#pb2d151dd4d)" style="fill: none; stroke: #348abd; stroke-width: 2"/>
   </g>
   <g id="patch_3">
    <path d="M 57.6 307.584 
L 57.6 41.472 
" style="fill: none; stroke: #bcbcbc; stroke-width: 0.8; stroke-linejoin: miter; stroke-linecap: square"/>
   </g>
   <g id="patch_4">
    <path d="M 414.72 307.584 
L 414.72 41.472 
" style="fill: none; stroke: #bcbcbc; stroke-width: 0.8; stroke-linejoin: miter; stroke-linecap: square"/>
   </g>
   <g id="patch_5">
    <path d="M 57.6 307.584 
L 414.72 307.584 
" style="fill: none; stroke: #bcbcbc; stroke-width: 0.8; stroke-linejoin: miter; stroke-linecap: square"/>
   </g>
   <g id="patch_6">
    <path d="M 57.6 41.472 
L 414.72 41.472 
" style="fill: none; stroke: #bcbcbc; stroke-width: 0.8; stroke-linejoin: miter; stroke-linecap: square"/>
   </g>
   <g id="text_18">
    <!-- Violin plot of critical time n = 500 -->
    <g transform="translate(114.951375 35.472) scale(0.144 -0.144)">
     <defs>
      <path id="DejaVuSans-56" d="M 1831 0 
L 50 4666 
L 709 4666 
L 2188 738 
L 3669 4666 
L 4325 4666 
L 2547 0 
L 1831 0 
z
" transform="scale(0.015625)"/>
      <path id="DejaVuSans-69" d="M 603 3500 
L 1178 3500 
L 1178 0 
L 603 0 
L 603 3500 
z
M 603 4863 
L 1178 4863 
L 1178 4134 
L 603 4134 
L 603 4863 
z
" transform="scale(0.015625)"/>
      <path id="DejaVuSans-6f" d="M 1959 3097 
Q 1497 3097 1228 2736 
Q 959 2375 959 1747 
Q 959 1119 1226 758 
Q 1494 397 1959 397 
Q 2419 397 2687 759 
Q 2956 1122 2956 1747 
Q 2956 2369 2687 2733 
Q 2419 3097 1959 3097 
z
M 1959 3584 
Q 2709 3584 3137 3096 
Q 3566 2609 3566 1747 
Q 3566 888 3137 398 
Q 2709 -91 1959 -91 
Q 1206 -91 779 398 
Q 353 888 353 1747 
Q 353 2609 779 3096 
Q 1206 3584 1959 3584 
z
" transform="scale(0.015625)"/>
      <path id="DejaVuSans-6c" d="M 603 4863 
L 1178 4863 
L 1178 0 
L 603 0 
L 603 4863 
z
" transform="scale(0.015625)"/>
      <path id="DejaVuSans-6e" d="M 3513 2113 
L 3513 0 
L 2938 0 
L 2938 2094 
Q 2938 2591 2744 2837 
Q 2550 3084 2163 3084 
Q 1697 3084 1428 2787 
Q 1159 2491 1159 1978 
L 1159 0 
L 581 0 
L 581 3500 
L 1159 3500 
L 1159 2956 
Q 1366 3272 1645 3428 
Q 1925 3584 2291 3584 
Q 2894 3584 3203 3211 
Q 3513 2838 3513 2113 
z
" transform="scale(0.015625)"/>
      <path id="DejaVuSans-20" transform="scale(0.015625)"/>
      <path id="DejaVuSans-70" d="M 1159 525 
L 1159 -1331 
L 581 -1331 
L 581 3500 
L 1159 3500 
L 1159 2969 
Q 1341 3281 1617 3432 
Q 1894 3584 2278 3584 
Q 2916 3584 3314 3078 
Q 3713 2572 3713 1747 
Q 3713 922 3314 415 
Q 2916 -91 2278 -91 
Q 1894 -91 1617 61 
Q 1341 213 1159 525 
z
M 3116 1747 
Q 3116 2381 2855 2742 
Q 2594 3103 2138 3103 
Q 1681 3103 1420 2742 
Q 1159 2381 1159 1747 
Q 1159 1113 1420 752 
Q 1681 391 2138 391 
Q 2594 391 2855 752 
Q 3116 1113 3116 1747 
z
" transform="scale(0.015625)"/>
      <path id="DejaVuSans-74" d="M 1172 4494 
L 1172 3500 
L 2356 3500 
L 2356 3053 
L 1172 3053 
L 1172 1153 
Q 1172 725 1289 603 
Q 1406 481 1766 481 
L 2356 481 
L 2356 0 
L 1766 0 
Q 1100 0 847 248 
Q 594 497 594 1153 
L 594 3053 
L 172 3053 
L 172 3500 
L 594 3500 
L 594 4494 
L 1172 4494 
z
" transform="scale(0.015625)"/>
      <path id="DejaVuSans-66" d="M 2375 4863 
L 2375 4384 
L 1825 4384 
Q 1516 4384 1395 4259 
Q 1275 4134 1275 3809 
L 1275 3500 
L 2222 3500 
L 2222 3053 
L 1275 3053 
L 1275 0 
L 697 0 
L 697 3053 
L 147 3053 
L 147 3500 
L 697 3500 
L 697 3744 
Q 697 4328 969 4595 
Q 1241 4863 1831 4863 
L 2375 4863 
z
" transform="scale(0.015625)"/>
      <path id="DejaVuSans-63" d="M 3122 3366 
L 3122 2828 
Q 2878 2963 2633 3030 
Q 2388 3097 2138 3097 
Q 1578 3097 1268 2742 
Q 959 2388 959 1747 
Q 959 1106 1268 751 
Q 1578 397 2138 397 
Q 2388 397 2633 464 
Q 2878 531 3122 666 
L 3122 134 
Q 2881 22 2623 -34 
Q 2366 -91 2075 -91 
Q 1284 -91 818 406 
Q 353 903 353 1747 
Q 353 2603 823 3093 
Q 1294 3584 2113 3584 
Q 2378 3584 2631 3529 
Q 2884 3475 3122 3366 
z
" transform="scale(0.015625)"/>
      <path id="DejaVuSans-72" d="M 2631 2963 
Q 2534 3019 2420 3045 
Q 2306 3072 2169 3072 
Q 1681 3072 1420 2755 
Q 1159 2438 1159 1844 
L 1159 0 
L 581 0 
L 581 3500 
L 1159 3500 
L 1159 2956 
Q 1341 3275 1631 3429 
Q 1922 3584 2338 3584 
Q 2397 3584 2469 3576 
Q 2541 3569 2628 3553 
L 2631 2963 
z
" transform="scale(0.015625)"/>
      <path id="DejaVuSans-61" d="M 2194 1759 
Q 1497 1759 1228 1600 
Q 959 1441 959 1056 
Q 959 750 1161 570 
Q 1363 391 1709 391 
Q 2188 391 2477 730 
Q 2766 1069 2766 1631 
L 2766 1759 
L 2194 1759 
z
M 3341 1997 
L 3341 0 
L 2766 0 
L 2766 531 
Q 2569 213 2275 61 
Q 1981 -91 1556 -91 
Q 1019 -91 701 211 
Q 384 513 384 1019 
Q 384 1609 779 1909 
Q 1175 2209 1959 2209 
L 2766 2209 
L 2766 2266 
Q 2766 2663 2505 2880 
Q 2244 3097 1772 3097 
Q 1472 3097 1187 3025 
Q 903 2953 641 2809 
L 641 3341 
Q 956 3463 1253 3523 
Q 1550 3584 1831 3584 
Q 2591 3584 2966 3190 
Q 3341 2797 3341 1997 
z
" transform="scale(0.015625)"/>
      <path id="DejaVuSans-6d" d="M 3328 2828 
Q 3544 3216 3844 3400 
Q 4144 3584 4550 3584 
Q 5097 3584 5394 3201 
Q 5691 2819 5691 2113 
L 5691 0 
L 5113 0 
L 5113 2094 
Q 5113 2597 4934 2840 
Q 4756 3084 4391 3084 
Q 3944 3084 3684 2787 
Q 3425 2491 3425 1978 
L 3425 0 
L 2847 0 
L 2847 2094 
Q 2847 2600 2669 2842 
Q 2491 3084 2119 3084 
Q 1678 3084 1418 2786 
Q 1159 2488 1159 1978 
L 1159 0 
L 581 0 
L 581 3500 
L 1159 3500 
L 1159 2956 
Q 1356 3278 1631 3431 
Q 1906 3584 2284 3584 
Q 2666 3584 2933 3390 
Q 3200 3197 3328 2828 
z
" transform="scale(0.015625)"/>
      <path id="DejaVuSans-65" d="M 3597 1894 
L 3597 1613 
L 953 1613 
Q 991 1019 1311 708 
Q 1631 397 2203 397 
Q 2534 397 2845 478 
Q 3156 559 3463 722 
L 3463 178 
Q 3153 47 2828 -22 
Q 2503 -91 2169 -91 
Q 1331 -91 842 396 
Q 353 884 353 1716 
Q 353 2575 817 3079 
Q 1281 3584 2069 3584 
Q 2775 3584 3186 3129 
Q 3597 2675 3597 1894 
z
M 3022 2063 
Q 3016 2534 2758 2815 
Q 2500 3097 2075 3097 
Q 1594 3097 1305 2825 
Q 1016 2553 972 2059 
L 3022 2063 
z
" transform="scale(0.015625)"/>
      <path id="DejaVuSans-3d" d="M 678 2906 
L 4684 2906 
L 4684 2381 
L 678 2381 
L 678 2906 
z
M 678 1631 
L 4684 1631 
L 4684 1100 
L 678 1100 
L 678 1631 
z
" transform="scale(0.015625)"/>
     </defs>
     <use xlink:href="#DejaVuSans-56"/>
     <use xlink:href="#DejaVuSans-69" x="66.158203"/>
     <use xlink:href="#DejaVuSans-6f" x="93.941406"/>
     <use xlink:href="#DejaVuSans-6c" x="155.123047"/>
     <use xlink:href="#DejaVuSans-69" x="182.90625"/>
     <use xlink:href="#DejaVuSans-6e" x="210.689453"/>
     <use xlink:href="#DejaVuSans-20" x="274.068359"/>
     <use xlink:href="#DejaVuSans-70" x="305.855469"/>
     <use xlink:href="#DejaVuSans-6c" x="369.332031"/>
     <use xlink:href="#DejaVuSans-6f" x="397.115234"/>
     <use xlink:href="#DejaVuSans-74" x="458.296875"/>
     <use xlink:href="#DejaVuSans-20" x="497.505859"/>
     <use xlink:href="#DejaVuSans-6f" x="529.292969"/>
     <use xlink:href="#DejaVuSans-66" x="590.474609"/>
     <use xlink:href="#DejaVuSans-20" x="625.679688"/>
     <use xlink:href="#DejaVuSans-63" x="657.466797"/>
     <use xlink:href="#DejaVuSans-72" x="712.447266"/>
     <use xlink:href="#DejaVuSans-69" x="753.560547"/>
     <use xlink:href="#DejaVuSans-74" x="781.34375"/>
     <use xlink:href="#DejaVuSans-69" x="820.552734"/>
     <use xlink:href="#DejaVuSans-63" x="848.335938"/>
     <use xlink:href="#DejaVuSans-61" x="903.316406"/>
     <use xlink:href="#DejaVuSans-6c" x="964.595703"/>
     <use xlink:href="#DejaVuSans-20" x="992.378906"/>
     <use xlink:href="#DejaVuSans-74" x="1024.166016"/>
     <use xlink:href="#DejaVuSans-69" x="1063.375"/>
     <use xlink:href="#DejaVuSans-6d" x="1091.158203"/>
     <use xlink:href="#DejaVuSans-65" x="1188.570312"/>
     <use xlink:href="#DejaVuSans-20" x="1250.09375"/>
     <use xlink:href="#DejaVuSans-6e" x="1281.880859"/>
     <use xlink:href="#DejaVuSans-20" x="1345.259766"/>
     <use xlink:href="#DejaVuSans-3d" x="1377.046875"/>
     <use xlink:href="#DejaVuSans-20" x="1460.835938"/>
     <use xlink:href="#DejaVuSans-35" x="1492.623047"/>
     <use xlink:href="#DejaVuSans-30" x="1556.246094"/>
     <use xlink:href="#DejaVuSans-30" x="1619.869141"/>
    </g>
   </g>
   <g id="legend_1">
    <g id="patch_7">
     <path d="M 66 68.68575 
L 175.513125 68.68575 
Q 177.913125 68.68575 177.913125 66.28575 
L 177.913125 49.872 
Q 177.913125 47.472 175.513125 47.472 
L 66 47.472 
Q 63.6 47.472 63.6 49.872 
L 63.6 66.28575 
Q 63.6 68.68575 66 68.68575 
z
" style="fill: #eeeeee; opacity: 0.8; stroke: #cccccc; stroke-width: 0.5; stroke-linejoin: miter"/>
    </g>
    <g id="line2d_31">
     <path d="M 68.4 57.190125 
L 92.4 57.190125 
" style="fill: none; stroke-dasharray: 7.4,3.2; stroke-dashoffset: 0; stroke: #ff0000; stroke-width: 2"/>
    </g>
    <g id="text_19">
     <!-- critical time -->
     <g transform="translate(102 61.390125) scale(0.12 -0.12)">
      <use xlink:href="#DejaVuSans-63"/>
      <use xlink:href="#DejaVuSans-72" x="54.980469"/>
      <use xlink:href="#DejaVuSans-69" x="96.09375"/>
      <use xlink:href="#DejaVuSans-74" x="123.876953"/>
      <use xlink:href="#DejaVuSans-69" x="163.085938"/>
      <use xlink:href="#DejaVuSans-63" x="190.869141"/>
      <use xlink:href="#DejaVuSans-61" x="245.849609"/>
      <use xlink:href="#DejaVuSans-6c" x="307.128906"/>
      <use xlink:href="#DejaVuSans-20" x="334.912109"/>
      <use xlink:href="#DejaVuSans-74" x="366.699219"/>
      <use xlink:href="#DejaVuSans-69" x="405.908203"/>
      <use xlink:href="#DejaVuSans-6d" x="433.691406"/>
      <use xlink:href="#DejaVuSans-65" x="531.103516"/>
     </g>
    </g>
   </g>
  </g>
 </g>
 <defs>
  <clipPath id="pb2d151dd4d">
   <rect x="57.6" y="41.472" width="357.12" height="266.112"/>
  </clipPath>
 </defs>
</svg>
