<?xml version="1.0" encoding="utf-8" standalone="no"?>
<!DOCTYPE svg PUBLIC "-//W3C//DTD SVG 1.1//EN"
  "http://www.w3.org/Graphics/SVG/1.1/DTD/svg11.dtd">
<svg xmlns:xlink="http://www.w3.org/1999/xlink" width="460.8pt" height="345.6pt" viewBox="0 0 460.8 345.6" xmlns="http://www.w3.org/2000/svg" version="1.1">
 <metadata>
  <rdf:RDF xmlns:dc="http://purl.org/dc/elements/1.1/" xmlns:cc="http://creativecommons.org/ns#" xmlns:rdf="http://www.w3.org/1999/02/22-rdf-syntax-ns#">
   <cc:Work>
    <dc:type rdf:resource="http://purl.org/dc/dcmitype/StillImage"/>
    <dc:date>2025-08-11T12:04:36.429351</dc:date>
    <dc:format>image/svg+xml</dc:format>
    <dc:creator>
     <cc:Agent>
      <dc:title>Matplotlib v3.9.2, https://matplotlib.org/</dc:title>
     </cc:Agent>
    </dc:creator>
   </cc:Work>
  </rdf:RDF>
 </metadata>
 <defs>
  <style type="text/css">*{stroke-linejoin: round; stroke-linecap: butt}</style>
 </defs>
 <g id="figure_1">
  <g id="patch_1">
   <path d="M 0 345.6 
L 460.8 345.6 
L 460.8 0 
L 0 0 
z
" style="fill: #ffffff"/>
  </g>
  <g id="axes_1">
   <g id="patch_2">
    <path d="M 57.6 307.584 
L 414.72 307.584 
L 414.72 41.472 
L 57.6 41.472 
z
" style="fill: #eeeeee"/>
   </g>
   <g id="PolyCollection_1">
    <path d="M 82.252185 198.461532 
L 82.205746 198.461532 
L 82.199038 198.001076 
L 82.192462 197.540619 
L 82.186561 197.080162 
L 82.181523 196.619706 
L 82.176677 196.159249 
L 82.17026 195.698792 
L 82.159824 195.238335 
L 82.143171 194.777879 
L 82.119137 194.317422 
L 82.087683 193.856965 
L 82.049324 193.396509 
L 82.00453 192.936052 
L 81.953646 192.475595 
L 81.897169 192.015138 
L 81.835665 191.554682 
L 81.768845 191.094225 
L 81.694322 190.633768 
L 81.60719 190.173312 
L 81.501018 189.712855 
L 81.369475 189.252398 
L 81.20744 188.791941 
L 81.011583 188.331485 
L 80.78169 187.871028 
L 80.523213 187.410571 
L 80.248911 186.950114 
L 79.976117 186.489658 
L 79.718683 186.029201 
L 79.477831 185.568744 
L 79.23921 185.108288 
L 78.980305 184.647831 
L 78.684284 184.187374 
L 78.350453 183.726917 
L 77.993873 183.266461 
L 77.635656 182.806004 
L 77.292158 182.345547 
L 76.969882 181.885091 
L 76.666715 181.424634 
L 76.376269 180.964177 
L 76.09251 180.50372 
L 75.812953 180.043264 
L 75.539103 179.582807 
L 75.274002 179.12235 
L 75.019121 178.661893 
L 74.773771 178.201437 
L 74.538298 177.74098 
L 74.318676 177.280523 
L 74.127794 176.820067 
L 73.980542 176.35961 
L 73.885389 175.899153 
L 73.839601 175.438696 
L 73.832727 174.97824 
L 73.854915 174.517783 
L 73.901556 174.057326 
L 73.969959 173.59687 
L 74.052892 173.136413 
L 74.137701 172.675956 
L 74.213984 172.215499 
L 74.283753 171.755043 
L 74.364943 171.294586 
L 74.484367 170.834129 
L 74.664237 170.373672 
L 74.910702 169.913216 
L 75.211562 169.452759 
L 75.544857 168.992302 
L 75.892873 168.531846 
L 76.251505 168.071389 
L 76.627727 167.610932 
L 77.027653 167.150475 
L 77.445848 166.690019 
L 77.86493 166.229562 
L 78.264638 165.769105 
L 78.631825 165.308649 
L 78.963982 164.848192 
L 79.266002 164.387735 
L 79.545013 163.927278 
L 79.80732 163.466822 
L 80.05758 163.006365 
L 80.298192 162.545908 
L 80.528298 162.085452 
L 80.743822 161.624995 
L 80.939557 161.164538 
L 81.112159 160.704081 
L 81.261849 160.243625 
L 81.391821 159.783168 
L 81.506164 159.322711 
L 81.60787 158.862254 
L 81.697966 158.401798 
L 81.775958 157.941341 
L 81.841148 157.480884 
L 81.894015 157.020428 
L 81.936871 156.559971 
L 81.973311 156.099514 
L 82.006757 155.639057 
L 82.039136 155.178601 
L 82.070595 154.718144 
L 82.100303 154.257687 
L 82.12747 153.797231 
L 82.151751 153.336774 
L 82.172989 152.876317 
L 82.284942 152.876317 
L 82.284942 152.876317 
L 82.30618 153.336774 
L 82.330461 153.797231 
L 82.357628 154.257687 
L 82.387336 154.718144 
L 82.418795 155.178601 
L 82.451174 155.639057 
L 82.48462 156.099514 
L 82.52106 156.559971 
L 82.563916 157.020428 
L 82.616783 157.480884 
L 82.681973 157.941341 
L 82.759966 158.401798 
L 82.850061 158.862254 
L 82.951767 159.322711 
L 83.06611 159.783168 
L 83.196082 160.243625 
L 83.345772 160.704081 
L 83.518374 161.164538 
L 83.714109 161.624995 
L 83.929633 162.085452 
L 84.159739 162.545908 
L 84.400351 163.006365 
L 84.650611 163.466822 
L 84.912918 163.927278 
L 85.191929 164.387735 
L 85.493949 164.848192 
L 85.826106 165.308649 
L 86.193293 165.769105 
L 86.593001 166.229562 
L 87.012083 166.690019 
L 87.430278 167.150475 
L 87.830204 167.610932 
L 88.206426 168.071389 
L 88.565058 168.531846 
L 88.913074 168.992302 
L 89.246369 169.452759 
L 89.547229 169.913216 
L 89.793694 170.373672 
L 89.973564 170.834129 
L 90.092988 171.294586 
L 90.174178 171.755043 
L 90.243947 172.215499 
L 90.32023 172.675956 
L 90.405039 173.136413 
L 90.487972 173.59687 
L 90.556375 174.057326 
L 90.603016 174.517783 
L 90.625204 174.97824 
L 90.61833 175.438696 
L 90.572542 175.899153 
L 90.477389 176.35961 
L 90.330137 176.820067 
L 90.139255 177.280523 
L 89.919633 177.74098 
L 89.68416 178.201437 
L 89.438811 178.661893 
L 89.183929 179.12235 
L 88.918828 179.582807 
L 88.644978 180.043264 
L 88.365421 180.50372 
L 88.081662 180.964177 
L 87.791216 181.424634 
L 87.488049 181.885091 
L 87.165773 182.345547 
L 86.822275 182.806004 
L 86.464058 183.266461 
L 86.107478 183.726917 
L 85.773647 184.187374 
L 85.477626 184.647831 
L 85.218721 185.108288 
L 84.9801 185.568744 
L 84.739248 186.029201 
L 84.481814 186.489658 
L 84.20902 186.950114 
L 83.934718 187.410571 
L 83.676241 187.871028 
L 83.446348 188.331485 
L 83.250491 188.791941 
L 83.088456 189.252398 
L 82.956913 189.712855 
L 82.850741 190.173312 
L 82.763609 190.633768 
L 82.689086 191.094225 
L 82.622266 191.554682 
L 82.560762 192.015138 
L 82.504285 192.475595 
L 82.453401 192.936052 
L 82.408607 193.396509 
L 82.370248 193.856965 
L 82.338794 194.317422 
L 82.31476 194.777879 
L 82.298107 195.238335 
L 82.287671 195.698792 
L 82.281254 196.159249 
L 82.276408 196.619706 
L 82.27137 197.080162 
L 82.265469 197.540619 
L 82.258894 198.001076 
L 82.252185 198.461532 
z
" clip-path="url(#pdf84359186)" style="fill: #348abd; fill-opacity: 0.3"/>
   </g>
   <g id="PolyCollection_2">
    <path d="M 110.247252 201.512685 
L 110.185601 201.512685 
L 110.179904 201.004279 
L 110.175858 200.495872 
L 110.17306 199.987466 
L 110.169988 199.479059 
L 110.164313 198.970653 
L 110.153561 198.462246 
L 110.135764 197.95384 
L 110.109862 197.445434 
L 110.075845 196.937027 
L 110.034725 196.428621 
L 109.988265 195.920214 
L 109.9383 195.411808 
L 109.885642 194.903401 
L 109.829006 194.394995 
L 109.764556 193.886588 
L 109.68639 193.378182 
L 109.587752 192.869776 
L 109.462379 192.361369 
L 109.305477 191.852963 
L 109.114272 191.344556 
L 108.888482 190.83615 
L 108.631014 190.327743 
L 108.348598 189.819337 
L 108.051363 189.31093 
L 107.750401 188.802524 
L 107.453529 188.294117 
L 107.161228 187.785711 
L 106.865647 187.277305 
L 106.554184 186.768898 
L 106.216169 186.260492 
L 105.84864 185.752085 
L 105.457573 185.243679 
L 105.054134 184.735272 
L 104.649138 184.226866 
L 104.24987 183.718459 
L 103.860926 183.210053 
L 103.487292 182.701647 
L 103.136707 182.19324 
L 102.820129 181.684834 
L 102.551101 181.176427 
L 102.34459 180.668021 
L 102.214405 180.159614 
L 102.168585 179.651208 
L 102.204901 179.142801 
L 102.310478 178.634395 
L 102.467465 178.125989 
L 102.661526 177.617582 
L 102.886595 177.109176 
L 103.141355 176.600769 
L 103.419168 176.092363 
L 103.698716 175.583956 
L 103.942915 175.07555 
L 104.108299 174.567143 
L 104.159935 174.058737 
L 104.083248 173.550331 
L 103.886552 173.041924 
L 103.594729 172.533518 
L 103.240255 172.025111 
L 102.858077 171.516705 
L 102.485702 171.008298 
L 102.163916 170.499892 
L 101.932469 169.991485 
L 101.820188 169.483079 
L 101.83581 168.974673 
L 101.967304 168.466266 
L 102.19156 167.95786 
L 102.487847 167.449453 
L 102.845299 166.941047 
L 103.259911 166.43264 
L 103.7253 165.924234 
L 104.226004 165.415827 
L 104.738759 164.907421 
L 105.239981 164.399015 
L 105.713198 163.890608 
L 106.151561 163.382202 
L 106.55528 162.873795 
L 106.927377 162.365389 
L 107.270996 161.856982 
L 107.589036 161.348576 
L 107.884632 160.840169 
L 108.160912 160.331763 
L 108.419854 159.823357 
L 108.661285 159.31495 
L 108.883012 158.806544 
L 109.082098 158.298137 
L 109.256405 157.789731 
L 109.405551 157.281324 
L 109.530978 156.772918 
L 109.635441 156.264511 
L 109.722316 155.756105 
L 109.794994 155.247699 
L 109.856483 154.739292 
L 109.909271 154.230886 
L 109.95541 153.722479 
L 109.996614 153.214073 
L 110.034207 152.705666 
L 110.068951 152.19726 
L 110.100945 151.688853 
L 110.129737 151.180447 
L 110.303116 151.180447 
L 110.303116 151.180447 
L 110.331908 151.688853 
L 110.363901 152.19726 
L 110.398646 152.705666 
L 110.436239 153.214073 
L 110.477442 153.722479 
L 110.523581 154.230886 
L 110.57637 154.739292 
L 110.637859 155.247699 
L 110.710537 155.756105 
L 110.797411 156.264511 
L 110.901874 156.772918 
L 111.027301 157.281324 
L 111.176447 157.789731 
L 111.350755 158.298137 
L 111.549841 158.806544 
L 111.771568 159.31495 
L 112.012998 159.823357 
L 112.27194 160.331763 
L 112.54822 160.840169 
L 112.843816 161.348576 
L 113.161857 161.856982 
L 113.505476 162.365389 
L 113.877572 162.873795 
L 114.281292 163.382202 
L 114.719654 163.890608 
L 115.192872 164.399015 
L 115.694094 164.907421 
L 116.206849 165.415827 
L 116.707553 165.924234 
L 117.172941 166.43264 
L 117.587553 166.941047 
L 117.945006 167.449453 
L 118.241292 167.95786 
L 118.465548 168.466266 
L 118.597042 168.974673 
L 118.612665 169.483079 
L 118.500384 169.991485 
L 118.268936 170.499892 
L 117.947151 171.008298 
L 117.574775 171.516705 
L 117.192597 172.025111 
L 116.838124 172.533518 
L 116.5463 173.041924 
L 116.349604 173.550331 
L 116.272918 174.058737 
L 116.324554 174.567143 
L 116.489938 175.07555 
L 116.734137 175.583956 
L 117.013685 176.092363 
L 117.291498 176.600769 
L 117.546258 177.109176 
L 117.771327 177.617582 
L 117.965387 178.125989 
L 118.122374 178.634395 
L 118.227952 179.142801 
L 118.264268 179.651208 
L 118.218448 180.159614 
L 118.088262 180.668021 
L 117.881752 181.176427 
L 117.612723 181.684834 
L 117.296146 182.19324 
L 116.945561 182.701647 
L 116.571927 183.210053 
L 116.182983 183.718459 
L 115.783714 184.226866 
L 115.378718 184.735272 
L 114.975279 185.243679 
L 114.584213 185.752085 
L 114.216684 186.260492 
L 113.878669 186.768898 
L 113.567206 187.277305 
L 113.271625 187.785711 
L 112.979324 188.294117 
L 112.682451 188.802524 
L 112.38149 189.31093 
L 112.084255 189.819337 
L 111.801839 190.327743 
L 111.544371 190.83615 
L 111.31858 191.344556 
L 111.127376 191.852963 
L 110.970474 192.361369 
L 110.845101 192.869776 
L 110.746462 193.378182 
L 110.668296 193.886588 
L 110.603846 194.394995 
L 110.547211 194.903401 
L 110.494553 195.411808 
L 110.444587 195.920214 
L 110.398127 196.428621 
L 110.357007 196.937027 
L 110.322991 197.445434 
L 110.297089 197.95384 
L 110.279291 198.462246 
L 110.268539 198.970653 
L 110.262865 199.479059 
L 110.259793 199.987466 
L 110.256995 200.495872 
L 110.252948 201.004279 
L 110.247252 201.512685 
z
" clip-path="url(#pdf84359186)" style="fill: #348abd; fill-opacity: 0.3"/>
   </g>
   <g id="PolyCollection_3">
    <path d="M 138.216861 208.503679 
L 138.190913 208.503679 
L 138.188473 207.870722 
L 138.185708 207.237764 
L 138.18233 206.604807 
L 138.178065 205.971849 
L 138.172598 205.338892 
L 138.165391 204.705934 
L 138.155497 204.072977 
L 138.141503 203.440019 
L 138.121695 202.807062 
L 138.094376 202.174104 
L 138.05824 201.541146 
L 138.012664 200.908189 
L 137.957732 200.275231 
L 137.893848 199.642274 
L 137.820927 199.009316 
L 137.73739 198.376359 
L 137.639427 197.743401 
L 137.520984 197.110444 
L 137.37475 196.477486 
L 137.194011 195.844528 
L 136.974783 195.211571 
L 136.71713 194.578613 
L 136.424695 193.945656 
L 136.102334 193.312698 
L 135.753194 192.679741 
L 135.377329 192.046783 
L 134.973225 191.413826 
L 134.541492 190.780868 
L 134.088198 190.147911 
L 133.625201 189.514953 
L 133.166711 188.881995 
L 132.723952 188.249038 
L 132.301308 187.61608 
L 131.896623 186.983123 
L 131.505846 186.350165 
L 131.129519 185.717208 
L 130.777641 185.08425 
L 130.470482 184.451293 
L 130.235139 183.818335 
L 130.099468 183.185377 
L 130.085701 182.55242 
L 130.205793 181.919462 
L 130.459484 181.286505 
L 130.834783 180.653547 
L 131.309744 180.02059 
L 131.854595 179.387632 
L 132.434296 178.754675 
L 133.012095 178.121717 
L 133.553739 177.488759 
L 134.030771 176.855802 
L 134.421306 176.222844 
L 134.708381 175.589887 
L 134.877701 174.956929 
L 134.916693 174.323972 
L 134.815543 173.691014 
L 134.569679 173.058057 
L 134.18279 172.425099 
L 133.669583 171.792142 
L 133.057354 171.159184 
L 132.385491 170.526226 
L 131.702634 169.893269 
L 131.061991 169.260311 
L 130.515559 168.627354 
L 130.107666 167.994396 
L 129.868312 167.361439 
L 129.807649 166.728481 
L 129.913879 166.095524 
L 130.156485 165.462566 
L 130.494642 164.829608 
L 130.888139 164.196651 
L 131.306775 163.563693 
L 131.73506 162.930736 
L 132.171251 162.297778 
L 132.622071 161.664821 
L 133.095606 161.031863 
L 133.594857 160.398906 
L 134.113808 159.765948 
L 134.637055 159.132991 
L 135.14308 158.500033 
L 135.609994 157.867075 
L 136.021508 157.234118 
L 136.370693 156.60116 
L 136.660192 155.968203 
L 136.89929 155.335245 
L 137.099581 154.702288 
L 137.271155 154.06933 
L 137.420558 153.436373 
L 137.550726 152.803415 
L 137.662346 152.170457 
L 137.755699 151.5375 
L 137.832088 150.904542 
L 137.894287 150.271585 
L 137.945962 149.638627 
L 137.990543 149.00567 
L 138.030275 148.372712 
L 138.065959 147.739755 
L 138.097405 147.106797 
L 138.124175 146.473839 
L 138.146114 145.840882 
L 138.261661 145.840882 
L 138.261661 145.840882 
L 138.2836 146.473839 
L 138.310369 147.106797 
L 138.341815 147.739755 
L 138.377499 148.372712 
L 138.417232 149.00567 
L 138.461813 149.638627 
L 138.513487 150.271585 
L 138.575686 150.904542 
L 138.652076 151.5375 
L 138.745428 152.170457 
L 138.857048 152.803415 
L 138.987216 153.436373 
L 139.136619 154.06933 
L 139.308194 154.702288 
L 139.508485 155.335245 
L 139.747583 155.968203 
L 140.037081 156.60116 
L 140.386266 157.234118 
L 140.79778 157.867075 
L 141.264695 158.500033 
L 141.770719 159.132991 
L 142.293967 159.765948 
L 142.812917 160.398906 
L 143.312168 161.031863 
L 143.785703 161.664821 
L 144.236524 162.297778 
L 144.672714 162.930736 
L 145.100999 163.563693 
L 145.519635 164.196651 
L 145.913132 164.829608 
L 146.25129 165.462566 
L 146.493895 166.095524 
L 146.600125 166.728481 
L 146.539462 167.361439 
L 146.300109 167.994396 
L 145.892216 168.627354 
L 145.345783 169.260311 
L 144.705141 169.893269 
L 144.022283 170.526226 
L 143.35042 171.159184 
L 142.738191 171.792142 
L 142.224984 172.425099 
L 141.838096 173.058057 
L 141.592231 173.691014 
L 141.491082 174.323972 
L 141.530073 174.956929 
L 141.699393 175.589887 
L 141.986468 176.222844 
L 142.377003 176.855802 
L 142.854036 177.488759 
L 143.39568 178.121717 
L 143.973478 178.754675 
L 144.55318 179.387632 
L 145.09803 180.02059 
L 145.572992 180.653547 
L 145.948291 181.286505 
L 146.201981 181.919462 
L 146.322074 182.55242 
L 146.308306 183.185377 
L 146.172635 183.818335 
L 145.937293 184.451293 
L 145.630133 185.08425 
L 145.278255 185.717208 
L 144.901928 186.350165 
L 144.511151 186.983123 
L 144.106466 187.61608 
L 143.683822 188.249038 
L 143.241064 188.881995 
L 142.782573 189.514953 
L 142.319576 190.147911 
L 141.866283 190.780868 
L 141.434549 191.413826 
L 141.030445 192.046783 
L 140.654581 192.679741 
L 140.30544 193.312698 
L 139.98308 193.945656 
L 139.690644 194.578613 
L 139.432991 195.211571 
L 139.213763 195.844528 
L 139.033024 196.477486 
L 138.88679 197.110444 
L 138.768348 197.743401 
L 138.670384 198.376359 
L 138.586847 199.009316 
L 138.513926 199.642274 
L 138.450043 200.275231 
L 138.395111 200.908189 
L 138.349535 201.541146 
L 138.313399 202.174104 
L 138.286079 202.807062 
L 138.266271 203.440019 
L 138.252278 204.072977 
L 138.242383 204.705934 
L 138.235177 205.338892 
L 138.22971 205.971849 
L 138.225444 206.604807 
L 138.222066 207.237764 
L 138.219302 207.870722 
L 138.216861 208.503679 
z
" clip-path="url(#pdf84359186)" style="fill: #348abd; fill-opacity: 0.3"/>
   </g>
   <g id="PolyCollection_4">
    <path d="M 166.209996 213.138217 
L 166.1727 213.138217 
L 166.165841 212.404378 
L 166.156384 211.670539 
L 166.143617 210.9367 
L 166.126974 210.202861 
L 166.106095 209.469022 
L 166.080734 208.735183 
L 166.050522 208.001344 
L 166.014662 207.267505 
L 165.971629 206.533666 
L 165.918986 205.799827 
L 165.853363 205.065988 
L 165.770652 204.332149 
L 165.666411 203.59831 
L 165.5364 202.864471 
L 165.377095 202.130632 
L 165.185968 201.396793 
L 164.961384 200.662954 
L 164.702157 199.929115 
L 164.40701 199.195276 
L 164.074325 198.461437 
L 163.702541 197.727598 
L 163.291214 196.993759 
L 162.842402 196.25992 
L 162.361728 195.526081 
L 161.858567 194.792241 
L 161.345126 194.058402 
L 160.834725 193.324563 
L 160.339939 192.590724 
L 159.871312 191.856885 
L 159.437178 191.123046 
L 159.044674 190.389207 
L 158.701565 189.655368 
L 158.418079 188.921529 
L 158.207793 188.18769 
L 158.086844 187.453851 
L 158.07135 186.720012 
L 158.173685 185.986173 
L 158.398831 185.252334 
L 158.74207 184.518495 
L 159.188798 183.784656 
L 159.71641 183.050817 
L 160.29753 182.316978 
L 160.903615 181.583139 
L 161.50806 180.8493 
L 162.088322 180.115461 
L 162.626868 179.381622 
L 163.110982 178.647783 
L 163.531656 177.913944 
L 163.881967 177.180105 
L 164.155465 176.446266 
L 164.345082 175.712427 
L 164.442926 174.978588 
L 164.440967 174.244749 
L 164.332365 173.51091 
L 164.112935 172.777071 
L 163.782393 172.043232 
L 163.34521 171.309393 
L 162.811245 170.575554 
L 162.196331 169.841715 
L 161.522779 169.107876 
L 160.819379 168.374037 
L 160.120268 167.640198 
L 159.462284 166.906359 
L 158.881066 166.17252 
L 158.406881 165.438681 
L 158.061442 164.704842 
L 157.856627 163.971003 
L 157.79511 163.237164 
L 157.872139 162.503325 
L 158.077396 161.769486 
L 158.39626 161.035647 
L 158.810476 160.301808 
L 159.298766 159.567969 
L 159.837906 158.83413 
L 160.404426 158.100291 
L 160.976608 157.366452 
L 161.536224 156.632613 
L 162.069589 155.898773 
L 162.567756 155.164934 
L 163.025963 154.431095 
L 163.442622 153.697256 
L 163.818186 152.963417 
L 164.154234 152.229578 
L 164.452957 151.495739 
L 164.716979 150.7619 
L 164.949287 150.028061 
L 165.153021 149.294222 
L 165.331089 148.560383 
L 165.485795 147.826544 
L 165.618708 147.092705 
L 165.730891 146.358866 
L 165.82335 145.625027 
L 165.897493 144.891188 
L 165.955371 144.157349 
L 165.999669 143.42351 
L 166.033483 142.689671 
L 166.059959 141.955832 
L 166.081878 141.221993 
L 166.101278 140.488154 
L 166.281418 140.488154 
L 166.281418 140.488154 
L 166.300818 141.221993 
L 166.322737 141.955832 
L 166.349213 142.689671 
L 166.383027 143.42351 
L 166.427325 144.157349 
L 166.485203 144.891188 
L 166.559346 145.625027 
L 166.651805 146.358866 
L 166.763988 147.092705 
L 166.896901 147.826544 
L 167.051607 148.560383 
L 167.229675 149.294222 
L 167.433409 150.028061 
L 167.665717 150.7619 
L 167.929739 151.495739 
L 168.228462 152.229578 
L 168.56451 152.963417 
L 168.940074 153.697256 
L 169.356733 154.431095 
L 169.81494 155.164934 
L 170.313107 155.898773 
L 170.846472 156.632613 
L 171.406088 157.366452 
L 171.978269 158.100291 
L 172.54479 158.83413 
L 173.08393 159.567969 
L 173.57222 160.301808 
L 173.986436 161.035647 
L 174.3053 161.769486 
L 174.510557 162.503325 
L 174.587586 163.237164 
L 174.526069 163.971003 
L 174.321254 164.704842 
L 173.975815 165.438681 
L 173.50163 166.17252 
L 172.920412 166.906359 
L 172.262428 167.640198 
L 171.563317 168.374037 
L 170.859917 169.107876 
L 170.186365 169.841715 
L 169.571451 170.575554 
L 169.037486 171.309393 
L 168.600303 172.043232 
L 168.269761 172.777071 
L 168.050331 173.51091 
L 167.941729 174.244749 
L 167.93977 174.978588 
L 168.037614 175.712427 
L 168.227231 176.446266 
L 168.500729 177.180105 
L 168.85104 177.913944 
L 169.271714 178.647783 
L 169.755828 179.381622 
L 170.294374 180.115461 
L 170.874636 180.8493 
L 171.479081 181.583139 
L 172.085166 182.316978 
L 172.666286 183.050817 
L 173.193898 183.784656 
L 173.640626 184.518495 
L 173.983865 185.252334 
L 174.209011 185.986173 
L 174.311346 186.720012 
L 174.295852 187.453851 
L 174.174903 188.18769 
L 173.964617 188.921529 
L 173.681131 189.655368 
L 173.338022 190.389207 
L 172.945518 191.123046 
L 172.511384 191.856885 
L 172.042756 192.590724 
L 171.54797 193.324563 
L 171.03757 194.058402 
L 170.524129 194.792241 
L 170.020968 195.526081 
L 169.540294 196.25992 
L 169.091482 196.993759 
L 168.680155 197.727598 
L 168.308371 198.461437 
L 167.975686 199.195276 
L 167.680538 199.929115 
L 167.421312 200.662954 
L 167.196728 201.396793 
L 167.005601 202.130632 
L 166.846296 202.864471 
L 166.716285 203.59831 
L 166.612044 204.332149 
L 166.529333 205.065988 
L 166.46371 205.799827 
L 166.411067 206.533666 
L 166.368034 207.267505 
L 166.332174 208.001344 
L 166.301962 208.735183 
L 166.276601 209.469022 
L 166.255722 210.202861 
L 166.239079 210.9367 
L 166.226312 211.670539 
L 166.216855 212.404378 
L 166.209996 213.138217 
z
" clip-path="url(#pdf84359186)" style="fill: #348abd; fill-opacity: 0.3"/>
   </g>
   <g id="PolyCollection_5">
    <path d="M 194.191189 224.050162 
L 194.166429 224.050162 
L 194.163083 223.127119 
L 194.158347 222.204076 
L 194.151476 221.281033 
L 194.141663 220.35799 
L 194.128165 219.434947 
L 194.110415 218.511904 
L 194.088053 217.588861 
L 194.06082 216.665818 
L 194.028299 215.742775 
L 193.989517 214.819732 
L 193.942538 213.896689 
L 193.8842 212.973645 
L 193.810129 212.050602 
L 193.715078 211.127559 
L 193.593517 210.204516 
L 193.440286 209.281473 
L 193.251116 208.35843 
L 193.022841 207.435387 
L 192.753223 206.512344 
L 192.440472 205.589301 
L 192.082713 204.666258 
L 191.677777 203.743215 
L 191.223702 202.820172 
L 190.720105 201.897129 
L 190.17017 200.974086 
L 189.58251 200.051043 
L 188.971993 199.128 
L 188.358945 198.204957 
L 187.766834 197.281914 
L 187.219334 196.358871 
L 186.737867 195.435828 
L 186.340377 194.512785 
L 186.041326 193.589741 
L 185.852315 192.666698 
L 185.782571 191.743655 
L 185.838767 190.820612 
L 186.024049 189.897569 
L 186.336407 188.974526 
L 186.766947 188.051483 
L 187.298805 187.12844 
L 187.907554 186.205397 
L 188.563504 185.282354 
L 189.235526 184.359311 
L 189.8952 183.436268 
L 190.519877 182.513225 
L 191.093724 181.590182 
L 191.606827 180.667139 
L 192.053238 179.744096 
L 192.429041 178.821053 
L 192.731121 177.89801 
L 192.956622 176.974967 
L 193.102736 176.051924 
L 193.16646 175.128881 
L 193.144317 174.205838 
L 193.032301 173.282794 
L 192.82635 172.359751 
L 192.523479 171.436708 
L 192.123394 170.513665 
L 191.630219 169.590622 
L 191.053865 168.667579 
L 190.410576 167.744536 
L 189.722411 166.821493 
L 189.01571 165.89845 
L 188.319014 164.975407 
L 187.661072 164.052364 
L 187.069443 163.129321 
L 186.569733 162.206278 
L 186.184975 161.283235 
L 185.934562 160.360192 
L 185.832444 159.437149 
L 185.884919 158.514106 
L 186.088794 157.591063 
L 186.430755 156.66802 
L 186.888425 155.744977 
L 187.433024 154.821934 
L 188.033048 153.898891 
L 188.658027 152.975847 
L 189.281449 152.052804 
L 189.882303 151.129761 
L 190.44525 150.206718 
L 190.959966 149.283675 
L 191.420368 148.360632 
L 191.824152 147.437589 
L 192.172594 146.514546 
L 192.470233 145.591503 
L 192.724034 144.66846 
L 192.942002 143.745417 
L 193.131627 142.822374 
L 193.29868 141.899331 
L 193.446768 140.976288 
L 193.577645 140.053245 
L 193.692002 139.130202 
L 193.790281 138.207159 
L 193.873227 137.284116 
L 193.942051 136.361073 
L 193.998317 135.43803 
L 194.043703 134.514987 
L 194.079807 133.591943 
L 194.108051 132.6689 
L 194.249567 132.6689 
L 194.249567 132.6689 
L 194.277811 133.591943 
L 194.313915 134.514987 
L 194.359301 135.43803 
L 194.415567 136.361073 
L 194.484391 137.284116 
L 194.567336 138.207159 
L 194.665615 139.130202 
L 194.779972 140.053245 
L 194.91085 140.976288 
L 195.058937 141.899331 
L 195.22599 142.822374 
L 195.415615 143.745417 
L 195.633584 144.66846 
L 195.887384 145.591503 
L 196.185023 146.514546 
L 196.533465 147.437589 
L 196.937249 148.360632 
L 197.397652 149.283675 
L 197.912368 150.206718 
L 198.475314 151.129761 
L 199.076168 152.052804 
L 199.69959 152.975847 
L 200.324569 153.898891 
L 200.924594 154.821934 
L 201.469193 155.744977 
L 201.926862 156.66802 
L 202.268824 157.591063 
L 202.472698 158.514106 
L 202.525173 159.437149 
L 202.423056 160.360192 
L 202.172642 161.283235 
L 201.787884 162.206278 
L 201.288174 163.129321 
L 200.696546 164.052364 
L 200.038603 164.975407 
L 199.341908 165.89845 
L 198.635207 166.821493 
L 197.947041 167.744536 
L 197.303752 168.667579 
L 196.727398 169.590622 
L 196.234224 170.513665 
L 195.834138 171.436708 
L 195.531268 172.359751 
L 195.325317 173.282794 
L 195.2133 174.205838 
L 195.191158 175.128881 
L 195.254882 176.051924 
L 195.400995 176.974967 
L 195.626496 177.89801 
L 195.928576 178.821053 
L 196.30438 179.744096 
L 196.750791 180.667139 
L 197.263894 181.590182 
L 197.83774 182.513225 
L 198.462417 183.436268 
L 199.122092 184.359311 
L 199.794113 185.282354 
L 200.450064 186.205397 
L 201.058812 187.12844 
L 201.590671 188.051483 
L 202.021211 188.974526 
L 202.333569 189.897569 
L 202.51885 190.820612 
L 202.575047 191.743655 
L 202.505302 192.666698 
L 202.316292 193.589741 
L 202.017241 194.512785 
L 201.61975 195.435828 
L 201.138283 196.358871 
L 200.590783 197.281914 
L 199.998673 198.204957 
L 199.385624 199.128 
L 198.775108 200.051043 
L 198.187447 200.974086 
L 197.637513 201.897129 
L 197.133916 202.820172 
L 196.67984 203.743215 
L 196.274905 204.666258 
L 195.917146 205.589301 
L 195.604395 206.512344 
L 195.334777 207.435387 
L 195.106502 208.35843 
L 194.917332 209.281473 
L 194.7641 210.204516 
L 194.642539 211.127559 
L 194.547489 212.050602 
L 194.473418 212.973645 
L 194.415079 213.896689 
L 194.368101 214.819732 
L 194.329319 215.742775 
L 194.296797 216.665818 
L 194.269565 217.588861 
L 194.247202 218.511904 
L 194.229453 219.434947 
L 194.215955 220.35799 
L 194.206141 221.281033 
L 194.19927 222.204076 
L 194.194535 223.127119 
L 194.191189 224.050162 
z
" clip-path="url(#pdf84359186)" style="fill: #348abd; fill-opacity: 0.3"/>
   </g>
   <g id="PolyCollection_6">
    <path d="M 222.18655 235.541143 
L 222.14599 235.541143 
L 222.142788 234.381321 
L 222.139332 233.221498 
L 222.134912 232.061676 
L 222.128436 230.901854 
L 222.118498 229.742032 
L 222.103495 228.582209 
L 222.081756 227.422387 
L 222.051661 226.262565 
L 222.011712 225.102743 
L 221.960548 223.94292 
L 221.896866 222.783098 
L 221.819254 221.623276 
L 221.725943 220.463454 
L 221.614508 219.303631 
L 221.481591 218.143809 
L 221.322712 216.983987 
L 221.132259 215.824164 
L 220.903707 214.664342 
L 220.630101 213.50452 
L 220.304808 212.344698 
L 219.922499 211.184875 
L 219.480301 210.025053 
L 218.978956 208.865231 
L 218.423752 207.705409 
L 217.824949 206.545586 
L 217.197547 205.385764 
L 216.560437 204.225942 
L 215.935239 203.06612 
L 215.345241 201.906297 
L 214.814685 200.746475 
L 214.368336 199.586653 
L 214.030815 198.426831 
L 213.825125 197.267008 
L 213.770031 196.107186 
L 213.876683 194.947364 
L 214.145512 193.787542 
L 214.564659 192.627719 
L 215.110721 191.467897 
L 215.751712 190.308075 
L 216.451336 189.148253 
L 217.173385 187.98843 
L 217.885371 186.828608 
L 218.560949 185.668786 
L 219.181075 184.508964 
L 219.733964 183.349141 
L 220.213985 182.189319 
L 220.619855 181.029497 
L 220.952622 179.869675 
L 221.213984 178.709852 
L 221.405241 177.55003 
L 221.526825 176.390208 
L 221.578094 175.230386 
L 221.55714 174.070563 
L 221.460551 172.910741 
L 221.283377 171.750919 
L 221.019674 170.591096 
L 220.663871 169.431274 
L 220.212875 168.271452 
L 219.668462 167.11163 
L 219.039267 165.951807 
L 218.341805 164.791985 
L 217.600307 163.632163 
L 216.845491 162.472341 
L 216.112626 161.312518 
L 215.439092 160.152696 
L 214.861552 158.992874 
L 214.41278 157.833052 
L 214.118402 156.673229 
L 213.994011 155.513407 
L 214.043246 154.353585 
L 214.257301 153.193763 
L 214.616054 152.03394 
L 215.090725 150.874118 
L 215.647659 149.714296 
L 216.252553 148.554474 
L 216.874262 147.394651 
L 217.487385 146.234829 
L 218.073231 145.075007 
L 218.619346 143.915185 
L 219.118272 142.755362 
L 219.56627 141.59554 
L 219.962459 140.435718 
L 220.308322 139.275896 
L 220.607321 138.116073 
L 220.864338 136.956251 
L 221.084918 135.796429 
L 221.274465 134.636607 
L 221.437615 133.476784 
L 221.577928 132.316962 
L 221.697919 131.15714 
L 221.799347 129.997318 
L 221.883596 128.837495 
L 221.952037 127.677673 
L 222.006259 126.517851 
L 222.048142 125.358028 
L 222.079767 124.198206 
L 222.103254 123.038384 
L 222.120555 121.878562 
L 222.133309 120.718739 
L 222.19923 120.718739 
L 222.19923 120.718739 
L 222.211985 121.878562 
L 222.229285 123.038384 
L 222.252772 124.198206 
L 222.284398 125.358028 
L 222.32628 126.517851 
L 222.380502 127.677673 
L 222.448943 128.837495 
L 222.533192 129.997318 
L 222.63462 131.15714 
L 222.754612 132.316962 
L 222.894924 133.476784 
L 223.058074 134.636607 
L 223.247622 135.796429 
L 223.468202 136.956251 
L 223.725218 138.116073 
L 224.024217 139.275896 
L 224.37008 140.435718 
L 224.766269 141.59554 
L 225.214268 142.755362 
L 225.713193 143.915185 
L 226.259309 145.075007 
L 226.845155 146.234829 
L 227.458277 147.394651 
L 228.079986 148.554474 
L 228.68488 149.714296 
L 229.241814 150.874118 
L 229.716485 152.03394 
L 230.075238 153.193763 
L 230.289293 154.353585 
L 230.338528 155.513407 
L 230.214137 156.673229 
L 229.919759 157.833052 
L 229.470987 158.992874 
L 228.893447 160.152696 
L 228.219913 161.312518 
L 227.487048 162.472341 
L 226.732232 163.632163 
L 225.990734 164.791985 
L 225.293273 165.951807 
L 224.664077 167.11163 
L 224.119664 168.271452 
L 223.668668 169.431274 
L 223.312865 170.591096 
L 223.049162 171.750919 
L 222.871988 172.910741 
L 222.775399 174.070563 
L 222.754445 175.230386 
L 222.805714 176.390208 
L 222.927298 177.55003 
L 223.118556 178.709852 
L 223.379917 179.869675 
L 223.712684 181.029497 
L 224.118554 182.189319 
L 224.598576 183.349141 
L 225.151464 184.508964 
L 225.77159 185.668786 
L 226.447168 186.828608 
L 227.159154 187.98843 
L 227.881204 189.148253 
L 228.580827 190.308075 
L 229.221818 191.467897 
L 229.76788 192.627719 
L 230.187027 193.787542 
L 230.455856 194.947364 
L 230.562508 196.107186 
L 230.507414 197.267008 
L 230.301724 198.426831 
L 229.964203 199.586653 
L 229.517854 200.746475 
L 228.987299 201.906297 
L 228.3973 203.06612 
L 227.772102 204.225942 
L 227.134992 205.385764 
L 226.50759 206.545586 
L 225.908788 207.705409 
L 225.353583 208.865231 
L 224.852239 210.025053 
L 224.41004 211.184875 
L 224.027731 212.344698 
L 223.702438 213.50452 
L 223.428832 214.664342 
L 223.20028 215.824164 
L 223.009827 216.983987 
L 222.850948 218.143809 
L 222.718031 219.303631 
L 222.606597 220.463454 
L 222.513285 221.623276 
L 222.435673 222.783098 
L 222.371991 223.94292 
L 222.320827 225.102743 
L 222.280878 226.262565 
L 222.250783 227.422387 
L 222.229044 228.582209 
L 222.214041 229.742032 
L 222.204104 230.901854 
L 222.197627 232.061676 
L 222.193207 233.221498 
L 222.189751 234.381321 
L 222.18655 235.541143 
z
" clip-path="url(#pdf84359186)" style="fill: #348abd; fill-opacity: 0.3"/>
   </g>
   <g id="PolyCollection_7">
    <path d="M 250.16573 250.050043 
L 250.141731 250.050043 
L 250.138805 248.641742 
L 250.135006 247.23344 
L 250.129837 245.825139 
L 250.122616 244.416838 
L 250.112427 243.008537 
L 250.098067 241.600235 
L 250.077998 240.191934 
L 250.050353 238.783633 
L 250.013044 237.375332 
L 249.96396 235.96703 
L 249.901199 234.558729 
L 249.82325 233.150428 
L 249.728986 231.742127 
L 249.617423 230.333825 
L 249.487278 228.925524 
L 249.336441 227.517223 
L 249.161553 226.108921 
L 248.957824 224.70062 
L 248.719197 223.292319 
L 248.438855 221.884018 
L 248.110033 220.475716 
L 247.727033 219.067415 
L 247.286329 217.659114 
L 246.787637 216.250813 
L 246.234859 214.842511 
L 245.636808 213.43421 
L 245.007624 212.025909 
L 244.366745 210.617608 
L 243.7383 209.209306 
L 243.149849 207.801005 
L 242.630566 206.392704 
L 242.209046 204.984402 
L 241.911068 203.576101 
L 241.757492 202.1678 
L 241.762424 200.759499 
L 241.931621 199.351197 
L 242.261215 197.942896 
L 242.737022 196.534595 
L 243.33489 195.126294 
L 244.022527 193.717992 
L 244.762812 192.309691 
L 245.518068 190.90139 
L 246.254262 189.493089 
L 246.944101 188.084787 
L 247.568385 186.676486 
L 248.115699 185.268185 
L 248.580997 183.859883 
L 248.963852 182.451582 
L 249.266882 181.043281 
L 249.494492 179.63498 
L 249.651792 178.226678 
L 249.743518 176.818377 
L 249.772912 175.410076 
L 249.740763 174.001775 
L 249.644882 172.593473 
L 249.480263 171.185172 
L 249.240017 169.776871 
L 248.917007 168.36857 
L 248.505948 166.960268 
L 248.005675 165.551967 
L 247.421201 164.143666 
L 246.765174 162.735364 
L 246.058316 161.327063 
L 245.328586 159.918762 
L 244.60904 158.510461 
L 243.934735 157.102159 
L 243.339281 155.693858 
L 242.851723 154.285557 
L 242.494241 152.877256 
L 242.280876 151.468954 
L 242.217203 150.060653 
L 242.300729 148.652352 
L 242.521808 147.244051 
L 242.86485 145.835749 
L 243.309688 144.427448 
L 243.832939 143.019147 
L 244.409312 141.610845 
L 245.012926 140.202544 
L 245.618778 138.794243 
L 246.204428 137.385942 
L 246.751775 135.97764 
L 247.248516 134.569339 
L 247.688806 133.161038 
L 248.07278 131.752737 
L 248.405004 130.344435 
L 248.692333 128.936134 
L 248.941828 127.527833 
L 249.159312 126.119532 
L 249.34879 124.71123 
L 249.512632 123.302929 
L 249.652205 121.894628 
L 249.768591 120.486326 
L 249.863162 119.078025 
L 249.937875 117.669724 
L 249.995293 116.261423 
L 250.038377 114.853121 
L 250.070167 113.44482 
L 250.093447 112.036519 
L 250.110522 110.628218 
L 250.196939 110.628218 
L 250.196939 110.628218 
L 250.214014 112.036519 
L 250.237294 113.44482 
L 250.269083 114.853121 
L 250.312168 116.261423 
L 250.369585 117.669724 
L 250.444298 119.078025 
L 250.53887 120.486326 
L 250.655256 121.894628 
L 250.794829 123.302929 
L 250.958671 124.71123 
L 251.148149 126.119532 
L 251.365633 127.527833 
L 251.615128 128.936134 
L 251.902457 130.344435 
L 252.234681 131.752737 
L 252.618655 133.161038 
L 253.058945 134.569339 
L 253.555686 135.97764 
L 254.103033 137.385942 
L 254.688683 138.794243 
L 255.294534 140.202544 
L 255.898149 141.610845 
L 256.474521 143.019147 
L 256.997773 144.427448 
L 257.442611 145.835749 
L 257.785653 147.244051 
L 258.006731 148.652352 
L 258.090258 150.060653 
L 258.026585 151.468954 
L 257.81322 152.877256 
L 257.455738 154.285557 
L 256.96818 155.693858 
L 256.372726 157.102159 
L 255.698421 158.510461 
L 254.978875 159.918762 
L 254.249145 161.327063 
L 253.542287 162.735364 
L 252.88626 164.143666 
L 252.301786 165.551967 
L 251.801513 166.960268 
L 251.390454 168.36857 
L 251.067444 169.776871 
L 250.827198 171.185172 
L 250.662578 172.593473 
L 250.566698 174.001775 
L 250.534549 175.410076 
L 250.563943 176.818377 
L 250.655669 178.226678 
L 250.812969 179.63498 
L 251.040579 181.043281 
L 251.343609 182.451582 
L 251.726464 183.859883 
L 252.191761 185.268185 
L 252.739075 186.676486 
L 253.36336 188.084787 
L 254.053198 189.493089 
L 254.789393 190.90139 
L 255.544649 192.309691 
L 256.284934 193.717992 
L 256.97257 195.126294 
L 257.570439 196.534595 
L 258.046246 197.942896 
L 258.37584 199.351197 
L 258.545037 200.759499 
L 258.549969 202.1678 
L 258.396393 203.576101 
L 258.098414 204.984402 
L 257.676895 206.392704 
L 257.157611 207.801005 
L 256.569161 209.209306 
L 255.940715 210.617608 
L 255.299836 212.025909 
L 254.670653 213.43421 
L 254.072602 214.842511 
L 253.519824 216.250813 
L 253.021132 217.659114 
L 252.580428 219.067415 
L 252.197428 220.475716 
L 251.868606 221.884018 
L 251.588264 223.292319 
L 251.349637 224.70062 
L 251.145908 226.108921 
L 250.97102 227.517223 
L 250.820183 228.925524 
L 250.690037 230.333825 
L 250.578475 231.742127 
L 250.484211 233.150428 
L 250.406262 234.558729 
L 250.343501 235.96703 
L 250.294417 237.375332 
L 250.257108 238.783633 
L 250.229463 240.191934 
L 250.209394 241.600235 
L 250.195034 243.008537 
L 250.184845 244.416838 
L 250.177623 245.825139 
L 250.172455 247.23344 
L 250.168656 248.641742 
L 250.16573 250.050043 
z
" clip-path="url(#pdf84359186)" style="fill: #348abd; fill-opacity: 0.3"/>
   </g>
   <g id="PolyCollection_8">
    <path d="M 278.207222 255.62352 
L 278.075161 255.62352 
L 278.05152 253.962406 
L 278.020639 252.301292 
L 277.980584 250.640178 
L 277.929263 248.979064 
L 277.864596 247.31795 
L 277.78467 245.656836 
L 277.687837 243.995721 
L 277.572689 242.334607 
L 277.437877 240.673493 
L 277.28178 239.012379 
L 277.10208 237.351265 
L 276.895384 235.690151 
L 276.657067 234.029037 
L 276.381483 232.367923 
L 276.062592 230.706809 
L 275.69492 229.045695 
L 275.274661 227.384581 
L 274.800724 225.723466 
L 274.275584 224.062352 
L 273.705922 222.401238 
L 273.103058 220.740124 
L 272.483203 219.07901 
L 271.86739 217.417896 
L 271.280885 215.756782 
L 270.751865 214.095668 
L 270.309306 212.434554 
L 269.980281 210.77344 
L 269.787119 209.112326 
L 269.744953 207.451212 
L 269.860086 205.790097 
L 270.129372 204.128983 
L 270.540576 202.467869 
L 271.073538 200.806755 
L 271.701953 199.145641 
L 272.395601 197.484527 
L 273.12283 195.823413 
L 273.853023 194.162299 
L 274.558762 192.501185 
L 275.217411 190.840071 
L 275.812002 189.178957 
L 276.331462 187.517842 
L 276.770325 185.856728 
L 277.128043 184.195614 
L 277.407962 182.5345 
L 277.615983 180.873386 
L 277.758994 179.212272 
L 277.843221 177.551158 
L 277.872781 175.890044 
L 277.848709 174.22893 
L 277.768654 172.567816 
L 277.627358 170.906702 
L 277.417848 169.245587 
L 277.133188 167.584473 
L 276.768487 165.923359 
L 276.322818 164.262245 
L 275.800659 162.601131 
L 275.212555 160.940017 
L 274.574884 159.278903 
L 273.908771 157.617789 
L 273.238444 155.956675 
L 272.589347 154.295561 
L 271.986358 152.634447 
L 271.452333 150.973332 
L 271.007064 149.312218 
L 270.666646 147.651104 
L 270.443152 145.98999 
L 270.344454 144.328876 
L 270.373999 142.667762 
L 270.53043 141.006648 
L 270.80708 139.345534 
L 271.191556 137.68442 
L 271.665802 136.023306 
L 272.206945 134.362192 
L 272.789066 132.701077 
L 273.385652 131.039963 
L 273.972245 129.378849 
L 274.528727 127.717735 
L 275.040792 126.056621 
L 275.500406 124.395507 
L 275.905326 122.734393 
L 276.257901 121.073279 
L 276.563452 119.412165 
L 276.828554 117.751051 
L 277.059533 116.089937 
L 277.261434 114.428822 
L 277.437601 112.767708 
L 277.589868 111.106594 
L 277.719158 109.44548 
L 277.826202 107.784366 
L 277.912123 106.123252 
L 277.978712 104.462138 
L 278.028409 102.801024 
L 278.064075 101.13991 
L 278.088679 99.478796 
L 278.105024 97.817682 
L 278.115548 96.156568 
L 278.122221 94.495453 
L 278.126523 92.834339 
L 278.129482 91.173225 
L 278.1529 91.173225 
L 278.1529 91.173225 
L 278.155859 92.834339 
L 278.160162 94.495453 
L 278.166835 96.156568 
L 278.177359 97.817682 
L 278.193704 99.478796 
L 278.218308 101.13991 
L 278.253973 102.801024 
L 278.303671 104.462138 
L 278.370259 106.123252 
L 278.45618 107.784366 
L 278.563225 109.44548 
L 278.692515 111.106594 
L 278.844782 112.767708 
L 279.020949 114.428822 
L 279.222849 116.089937 
L 279.453829 117.751051 
L 279.718931 119.412165 
L 280.024481 121.073279 
L 280.377056 122.734393 
L 280.781976 124.395507 
L 281.24159 126.056621 
L 281.753655 127.717735 
L 282.310138 129.378849 
L 282.89673 131.039963 
L 283.493316 132.701077 
L 284.075438 134.362192 
L 284.616581 136.023306 
L 285.090826 137.68442 
L 285.475303 139.345534 
L 285.751952 141.006648 
L 285.908384 142.667762 
L 285.937928 144.328876 
L 285.83923 145.98999 
L 285.615737 147.651104 
L 285.275318 149.312218 
L 284.830049 150.973332 
L 284.296024 152.634447 
L 283.693036 154.295561 
L 283.043938 155.956675 
L 282.373611 157.617789 
L 281.707499 159.278903 
L 281.069827 160.940017 
L 280.481724 162.601131 
L 279.959564 164.262245 
L 279.513896 165.923359 
L 279.149195 167.584473 
L 278.864535 169.245587 
L 278.655025 170.906702 
L 278.513729 172.567816 
L 278.433674 174.22893 
L 278.409601 175.890044 
L 278.439162 177.551158 
L 278.523388 179.212272 
L 278.666399 180.873386 
L 278.874421 182.5345 
L 279.154339 184.195614 
L 279.512057 185.856728 
L 279.95092 187.517842 
L 280.470381 189.178957 
L 281.064971 190.840071 
L 281.723621 192.501185 
L 282.42936 194.162299 
L 283.159553 195.823413 
L 283.886781 197.484527 
L 284.58043 199.145641 
L 285.208844 200.806755 
L 285.741806 202.467869 
L 286.15301 204.128983 
L 286.422297 205.790097 
L 286.537429 207.451212 
L 286.495264 209.112326 
L 286.302102 210.77344 
L 285.973077 212.434554 
L 285.530517 214.095668 
L 285.001497 215.756782 
L 284.414992 217.417896 
L 283.799179 219.07901 
L 283.179324 220.740124 
L 282.576461 222.401238 
L 282.006798 224.062352 
L 281.481659 225.723466 
L 281.007721 227.384581 
L 280.587463 229.045695 
L 280.21979 230.706809 
L 279.900899 232.367923 
L 279.625315 234.029037 
L 279.386999 235.690151 
L 279.180303 237.351265 
L 279.000602 239.012379 
L 278.844505 240.673493 
L 278.709693 242.334607 
L 278.594545 243.995721 
L 278.497713 245.656836 
L 278.417787 247.31795 
L 278.353119 248.979064 
L 278.301799 250.640178 
L 278.261744 252.301292 
L 278.230862 253.962406 
L 278.207222 255.62352 
z
" clip-path="url(#pdf84359186)" style="fill: #348abd; fill-opacity: 0.3"/>
   </g>
   <g id="PolyCollection_9">
    <path d="M 306.204027 273.021444 
L 306.053277 273.021444 
L 306.026863 271.030199 
L 305.993291 269.038954 
L 305.951009 267.047709 
L 305.898315 265.056464 
L 305.833467 263.065219 
L 305.754809 261.073974 
L 305.660824 259.082729 
L 305.550052 257.091484 
L 305.420799 255.100239 
L 305.270632 253.108994 
L 305.095812 251.117749 
L 304.890927 249.126504 
L 304.649027 247.135259 
L 304.362467 245.144014 
L 304.024387 243.152769 
L 303.630437 241.161524 
L 303.180199 239.170279 
L 302.677818 237.179034 
L 302.131702 235.18779 
L 301.553567 233.196545 
L 300.957376 231.2053 
L 300.358693 229.214055 
L 299.774642 227.22281 
L 299.224262 225.231565 
L 298.728683 223.24032 
L 298.31058 221.249075 
L 297.992595 219.25783 
L 297.794886 217.266585 
L 297.732414 215.27534 
L 297.812762 213.284095 
L 298.035143 211.29285 
L 298.390802 209.301605 
L 298.864465 207.31036 
L 299.43616 205.319115 
L 300.082778 203.32787 
L 300.779119 201.336625 
L 301.498647 199.34538 
L 302.214427 197.354135 
L 302.900616 195.36289 
L 303.534441 193.371645 
L 304.098247 191.3804 
L 304.580963 189.389155 
L 304.978507 187.39791 
L 305.292987 185.406665 
L 305.53094 183.415421 
L 305.701086 181.424176 
L 305.812104 179.432931 
L 305.87081 177.441686 
L 305.880953 175.450441 
L 305.84269 173.459196 
L 305.752672 171.467951 
L 305.604669 169.476706 
L 305.390629 167.485461 
L 305.102105 165.494216 
L 304.731957 163.502971 
L 304.276229 161.511726 
L 303.736012 159.520481 
L 303.119007 157.529236 
L 302.440416 155.537991 
L 301.722833 153.546746 
L 300.994906 151.555501 
L 300.288874 149.564256 
L 299.63736 147.573011 
L 299.070091 145.581766 
L 298.611243 143.590521 
L 298.277909 141.599276 
L 298.079816 139.608031 
L 298.019952 137.616786 
L 298.09559 135.625541 
L 298.299181 133.634296 
L 298.618879 131.643052 
L 299.038813 129.651807 
L 299.539415 127.660562 
L 300.098174 125.669317 
L 300.690967 123.678072 
L 301.293904 121.686827 
L 301.885343 119.695582 
L 302.447659 117.704337 
L 302.968357 115.713092 
L 303.440321 113.721847 
L 303.861213 111.730602 
L 304.232283 109.739357 
L 304.556948 107.748112 
L 304.839511 105.756867 
L 305.084229 103.765622 
L 305.294828 101.774377 
L 305.474373 99.783132 
L 305.625408 97.791887 
L 305.750193 95.800642 
L 305.850968 93.809397 
L 305.930141 91.818152 
L 305.990382 89.826907 
L 306.034593 87.835662 
L 306.06578 85.844417 
L 306.086876 83.853172 
L 306.100562 81.861927 
L 306.109128 79.870683 
L 306.114395 77.879438 
L 306.117706 75.888193 
L 306.139598 75.888193 
L 306.139598 75.888193 
L 306.142909 77.879438 
L 306.148176 79.870683 
L 306.156742 81.861927 
L 306.170428 83.853172 
L 306.191524 85.844417 
L 306.222711 87.835662 
L 306.266922 89.826907 
L 306.327163 91.818152 
L 306.406337 93.809397 
L 306.507111 95.800642 
L 306.631896 97.791887 
L 306.782931 99.783132 
L 306.962476 101.774377 
L 307.173075 103.765622 
L 307.417794 105.756867 
L 307.700356 107.748112 
L 308.025022 109.739357 
L 308.396091 111.730602 
L 308.816983 113.721847 
L 309.288947 115.713092 
L 309.809645 117.704337 
L 310.371961 119.695582 
L 310.9634 121.686827 
L 311.566337 123.678072 
L 312.15913 125.669317 
L 312.717889 127.660562 
L 313.218491 129.651807 
L 313.638425 131.643052 
L 313.958123 133.634296 
L 314.161714 135.625541 
L 314.237352 137.616786 
L 314.177488 139.608031 
L 313.979395 141.599276 
L 313.646061 143.590521 
L 313.187213 145.581766 
L 312.619944 147.573011 
L 311.96843 149.564256 
L 311.262398 151.555501 
L 310.534471 153.546746 
L 309.816888 155.537991 
L 309.138298 157.529236 
L 308.521292 159.520481 
L 307.981076 161.511726 
L 307.525347 163.502971 
L 307.155199 165.494216 
L 306.866675 167.485461 
L 306.652635 169.476706 
L 306.504632 171.467951 
L 306.414614 173.459196 
L 306.376351 175.450441 
L 306.386495 177.441686 
L 306.4452 179.432931 
L 306.556218 181.424176 
L 306.726364 183.415421 
L 306.964317 185.406665 
L 307.278797 187.39791 
L 307.676341 189.389155 
L 308.159058 191.3804 
L 308.722863 193.371645 
L 309.356688 195.36289 
L 310.042877 197.354135 
L 310.758658 199.34538 
L 311.478185 201.336625 
L 312.174526 203.32787 
L 312.821144 205.319115 
L 313.392839 207.31036 
L 313.866502 209.301605 
L 314.222161 211.29285 
L 314.444543 213.284095 
L 314.52489 215.27534 
L 314.462418 217.266585 
L 314.264709 219.25783 
L 313.946724 221.249075 
L 313.528621 223.24032 
L 313.033042 225.231565 
L 312.482662 227.22281 
L 311.898612 229.214055 
L 311.299928 231.2053 
L 310.703737 233.196545 
L 310.125602 235.18779 
L 309.579486 237.179034 
L 309.077105 239.170279 
L 308.626867 241.161524 
L 308.232917 243.152769 
L 307.894837 245.144014 
L 307.608277 247.135259 
L 307.366377 249.126504 
L 307.161492 251.117749 
L 306.986672 253.108994 
L 306.836505 255.100239 
L 306.707252 257.091484 
L 306.59648 259.082729 
L 306.502495 261.073974 
L 306.423837 263.065219 
L 306.35899 265.056464 
L 306.306295 267.047709 
L 306.264013 269.038954 
L 306.230441 271.030199 
L 306.204027 273.021444 
z
" clip-path="url(#pdf84359186)" style="fill: #348abd; fill-opacity: 0.3"/>
   </g>
   <g id="PolyCollection_10">
    <path d="M 334.189412 293.114187 
L 334.042814 293.114187 
L 334.017036 290.780358 
L 333.984525 288.446528 
L 333.943873 286.112699 
L 333.89339 283.778869 
L 333.831124 281.44504 
L 333.754905 279.11121 
L 333.662396 276.777381 
L 333.551103 274.443552 
L 333.4183 272.109722 
L 333.260877 269.775893 
L 333.075172 267.442063 
L 332.856904 265.108234 
L 332.601352 262.774404 
L 332.303828 260.440575 
L 331.96043 258.106746 
L 331.568892 255.772916 
L 331.129327 253.439087 
L 330.644681 251.105257 
L 330.120822 248.771428 
L 329.566353 246.437598 
L 328.992345 244.103769 
L 328.412164 241.769939 
L 327.841475 239.43611 
L 327.2983 237.102281 
L 326.802854 234.768451 
L 326.376831 232.434622 
L 326.041962 230.100792 
L 325.817905 227.766963 
L 325.719875 225.433133 
L 325.756557 223.099304 
L 325.928862 220.765475 
L 326.229811 218.431645 
L 326.645536 216.097816 
L 327.157054 213.763986 
L 327.742332 211.430157 
L 328.37816 209.096327 
L 329.041576 206.762498 
L 329.710791 204.428669 
L 330.365772 202.094839 
L 330.988721 199.76101 
L 331.564609 197.42718 
L 332.081762 195.093351 
L 332.532377 192.759521 
L 332.912734 190.425692 
L 333.222965 188.091863 
L 333.46632 185.758033 
L 333.64804 183.424204 
L 333.774016 181.090374 
L 333.849487 178.756545 
L 333.877959 176.422715 
L 333.86048 174.088886 
L 333.795331 171.755056 
L 333.678142 169.421227 
L 333.502416 167.087398 
L 333.260438 164.753568 
L 332.94455 162.419739 
L 332.548751 160.085909 
L 332.070468 157.75208 
L 331.512281 155.41825 
L 330.883225 153.084421 
L 330.199291 150.750592 
L 329.482859 148.416762 
L 328.761037 146.082933 
L 328.063232 143.749103 
L 327.418497 141.415274 
L 326.853278 139.081444 
L 326.38992 136.747615 
L 326.045943 134.413786 
L 325.833792 132.079956 
L 325.760617 129.746127 
L 325.827876 127.412297 
L 326.030817 125.078468 
L 326.358202 122.744638 
L 326.792657 120.410809 
L 327.311861 118.07698 
L 327.890484 115.74315 
L 328.502538 113.409321 
L 329.123655 111.075491 
L 329.732915 108.741662 
L 330.313951 106.407832 
L 330.855287 104.074003 
L 331.350018 101.740173 
L 331.795052 99.406344 
L 332.190147 97.072515 
L 332.536948 94.738685 
L 332.838181 92.404856 
L 333.097055 90.071026 
L 333.316887 87.737197 
L 333.500937 85.403367 
L 333.652395 83.069538 
L 333.774456 80.735709 
L 333.870413 78.401879 
L 333.943714 76.06805 
L 333.997929 73.73422 
L 334.036644 71.400391 
L 334.063298 69.066561 
L 334.081009 66.732732 
L 334.092436 64.398903 
L 334.099696 62.065073 
L 334.13253 62.065073 
L 334.13253 62.065073 
L 334.13979 64.398903 
L 334.151217 66.732732 
L 334.168928 69.066561 
L 334.195582 71.400391 
L 334.234296 73.73422 
L 334.288511 76.06805 
L 334.361812 78.401879 
L 334.45777 80.735709 
L 334.579831 83.069538 
L 334.731289 85.403367 
L 334.915339 87.737197 
L 335.13517 90.071026 
L 335.394044 92.404856 
L 335.695278 94.738685 
L 336.042079 97.072515 
L 336.437174 99.406344 
L 336.882208 101.740173 
L 337.376939 104.074003 
L 337.918275 106.407832 
L 338.49931 108.741662 
L 339.108571 111.075491 
L 339.729688 113.409321 
L 340.341741 115.74315 
L 340.920365 118.07698 
L 341.439569 120.410809 
L 341.874024 122.744638 
L 342.201409 125.078468 
L 342.40435 127.412297 
L 342.471609 129.746127 
L 342.398434 132.079956 
L 342.186282 134.413786 
L 341.842306 136.747615 
L 341.378947 139.081444 
L 340.813729 141.415274 
L 340.168994 143.749103 
L 339.471188 146.082933 
L 338.749367 148.416762 
L 338.032935 150.750592 
L 337.349001 153.084421 
L 336.719945 155.41825 
L 336.161758 157.75208 
L 335.683475 160.085909 
L 335.287675 162.419739 
L 334.971788 164.753568 
L 334.72981 167.087398 
L 334.554084 169.421227 
L 334.436895 171.755056 
L 334.371746 174.088886 
L 334.354267 176.422715 
L 334.382739 178.756545 
L 334.45821 181.090374 
L 334.584186 183.424204 
L 334.765905 185.758033 
L 335.009261 188.091863 
L 335.319492 190.425692 
L 335.699849 192.759521 
L 336.150463 195.093351 
L 336.667617 197.42718 
L 337.243505 199.76101 
L 337.866454 202.094839 
L 338.521434 204.428669 
L 339.190649 206.762498 
L 339.854066 209.096327 
L 340.489894 211.430157 
L 341.075171 213.763986 
L 341.58669 216.097816 
L 342.002414 218.431645 
L 342.303363 220.765475 
L 342.475669 223.099304 
L 342.512351 225.433133 
L 342.41432 227.766963 
L 342.190263 230.100792 
L 341.855394 232.434622 
L 341.429372 234.768451 
L 340.933925 237.102281 
L 340.39075 239.43611 
L 339.820062 241.769939 
L 339.239881 244.103769 
L 338.665873 246.437598 
L 338.111404 248.771428 
L 337.587544 251.105257 
L 337.102899 253.439087 
L 336.663334 255.772916 
L 336.271795 258.106746 
L 335.928397 260.440575 
L 335.630874 262.774404 
L 335.375321 265.108234 
L 335.157054 267.442063 
L 334.971348 269.775893 
L 334.813926 272.109722 
L 334.681123 274.443552 
L 334.56983 276.777381 
L 334.477321 279.11121 
L 334.401101 281.44504 
L 334.338835 283.778869 
L 334.288353 286.112699 
L 334.2477 288.446528 
L 334.21519 290.780358 
L 334.189412 293.114187 
z
" clip-path="url(#pdf84359186)" style="fill: #348abd; fill-opacity: 0.3"/>
   </g>
   <g id="PolyCollection_11">
    <path d="M 362.208444 311.72382 
L 361.998704 311.72382 
L 361.965835 309.056417 
L 361.924917 306.389014 
L 361.873993 303.721611 
L 361.81067 301.054208 
L 361.732189 298.386805 
L 361.635572 295.719402 
L 361.517779 293.051999 
L 361.375831 290.384596 
L 361.206832 287.717193 
L 361.007907 285.049789 
L 360.776079 282.382386 
L 360.508216 279.714983 
L 360.201137 277.04758 
L 359.851974 274.380177 
L 359.458807 271.712774 
L 359.021482 269.045371 
L 358.54247 266.377968 
L 358.027536 263.710565 
L 357.486032 261.043162 
L 356.930665 258.375758 
L 356.376751 255.708355 
L 355.841109 253.040952 
L 355.340866 250.373549 
L 354.89244 247.706146 
L 354.510886 245.038743 
L 354.209567 242.37134 
L 353.999977 239.703937 
L 353.891471 237.036534 
L 353.890757 234.369131 
L 354.001172 231.701727 
L 354.221936 229.034324 
L 354.547669 226.366921 
L 354.968362 223.699518 
L 355.469868 221.032115 
L 356.034808 218.364712 
L 356.643711 215.697309 
L 357.276184 213.029906 
L 357.912046 210.362503 
L 358.532351 207.6951 
L 359.120328 205.027696 
L 359.662192 202.360293 
L 360.147758 199.69289 
L 360.570751 197.025487 
L 360.928745 194.358084 
L 361.222702 191.690681 
L 361.456177 189.023278 
L 361.634308 186.355875 
L 361.762731 183.688472 
L 361.846551 181.021069 
L 361.889488 178.353665 
L 361.893253 175.686262 
L 361.857196 173.018859 
L 361.778246 170.351456 
L 361.65116 167.684053 
L 361.469081 165.01665 
L 361.224415 162.349247 
L 360.910002 159.681844 
L 360.520512 157.014441 
L 360.053924 154.347038 
L 359.512869 151.679634 
L 358.905584 149.012231 
L 358.246217 146.344828 
L 357.554343 143.677425 
L 356.853684 141.010022 
L 356.17025 138.342619 
L 355.530232 135.675216 
L 354.958063 133.007813 
L 354.474935 130.34041 
L 354.097938 127.673006 
L 353.839701 125.005603 
L 353.708321 122.3382 
L 353.707335 119.670797 
L 353.835572 117.003394 
L 354.086939 114.335991 
L 354.450314 111.668588 
L 354.909787 109.001185 
L 355.445425 106.333782 
L 356.034573 103.666379 
L 356.653568 100.998975 
L 357.279591 98.331572 
L 357.892361 95.664169 
L 358.47541 92.996766 
L 359.016762 90.329363 
L 359.508989 87.66196 
L 359.948709 84.994557 
L 360.335713 82.327154 
L 360.67195 79.659751 
L 360.960591 76.992348 
L 361.205331 74.324944 
L 361.409974 71.657541 
L 361.578298 68.990138 
L 361.714064 66.322735 
L 361.821094 63.655332 
L 361.903305 60.987929 
L 361.964667 58.320526 
L 362.009091 55.653123 
L 362.040269 52.98572 
L 362.06151 50.318317 
L 362.075622 47.650913 
L 362.131526 47.650913 
L 362.131526 47.650913 
L 362.145638 50.318317 
L 362.166879 52.98572 
L 362.198056 55.653123 
L 362.24248 58.320526 
L 362.303843 60.987929 
L 362.386053 63.655332 
L 362.493083 66.322735 
L 362.62885 68.990138 
L 362.797173 71.657541 
L 363.001817 74.324944 
L 363.246556 76.992348 
L 363.535198 79.659751 
L 363.871435 82.327154 
L 364.258438 84.994557 
L 364.698158 87.66196 
L 365.190385 90.329363 
L 365.731737 92.996766 
L 366.314786 95.664169 
L 366.927556 98.331572 
L 367.553579 100.998975 
L 368.172574 103.666379 
L 368.761722 106.333782 
L 369.29736 109.001185 
L 369.756834 111.668588 
L 370.120209 114.335991 
L 370.371575 117.003394 
L 370.499812 119.670797 
L 370.498826 122.3382 
L 370.367447 125.005603 
L 370.109209 127.673006 
L 369.732212 130.34041 
L 369.249085 133.007813 
L 368.676915 135.675216 
L 368.036898 138.342619 
L 367.353463 141.010022 
L 366.652804 143.677425 
L 365.96093 146.344828 
L 365.301563 149.012231 
L 364.694278 151.679634 
L 364.153224 154.347038 
L 363.686635 157.014441 
L 363.297145 159.681844 
L 362.982732 162.349247 
L 362.738066 165.01665 
L 362.555987 167.684053 
L 362.428902 170.351456 
L 362.349951 173.018859 
L 362.313894 175.686262 
L 362.317659 178.353665 
L 362.360597 181.021069 
L 362.444417 183.688472 
L 362.572839 186.355875 
L 362.750971 189.023278 
L 362.984446 191.690681 
L 363.278402 194.358084 
L 363.636396 197.025487 
L 364.059389 199.69289 
L 364.544955 202.360293 
L 365.086819 205.027696 
L 365.674796 207.6951 
L 366.295101 210.362503 
L 366.930963 213.029906 
L 367.563437 215.697309 
L 368.172339 218.364712 
L 368.73728 221.032115 
L 369.238785 223.699518 
L 369.659478 226.366921 
L 369.985211 229.034324 
L 370.205976 231.701727 
L 370.31639 234.369131 
L 370.315676 237.036534 
L 370.20717 239.703937 
L 369.99758 242.37134 
L 369.696261 245.038743 
L 369.314707 247.706146 
L 368.866281 250.373549 
L 368.366038 253.040952 
L 367.830396 255.708355 
L 367.276482 258.375758 
L 366.721115 261.043162 
L 366.179611 263.710565 
L 365.664677 266.377968 
L 365.185665 269.045371 
L 364.74834 271.712774 
L 364.355173 274.380177 
L 364.00601 277.04758 
L 363.698931 279.714983 
L 363.431068 282.382386 
L 363.199241 285.049789 
L 363.000315 287.717193 
L 362.831317 290.384596 
L 362.689369 293.051999 
L 362.571576 295.719402 
L 362.474958 298.386805 
L 362.396477 301.054208 
L 362.333154 303.721611 
L 362.282231 306.389014 
L 362.241312 309.056417 
L 362.208444 311.72382 
z
" clip-path="url(#pdf84359186)" style="fill: #348abd; fill-opacity: 0.3"/>
   </g>
   <g id="PolyCollection_12">
    <path d="M 390.186562 336.399234 
L 389.995507 336.399234 
L 389.964329 333.351539 
L 389.925243 330.303844 
L 389.876606 327.256149 
L 389.816451 324.208454 
L 389.742442 321.160759 
L 389.651854 318.113064 
L 389.54159 315.065369 
L 389.408262 312.017674 
L 389.248343 308.969979 
L 389.058375 305.922284 
L 388.835208 302.874589 
L 388.576232 299.826894 
L 388.279571 296.779199 
L 387.944218 293.731504 
L 387.570146 290.683809 
L 387.158438 287.636114 
L 386.711487 284.588419 
L 386.233295 281.540724 
L 385.72984 278.493029 
L 385.20942 275.445334 
L 384.682851 272.397639 
L 384.163395 269.349944 
L 383.666346 266.302249 
L 383.20826 263.254554 
L 382.805929 260.206859 
L 382.475206 257.159164 
L 382.229857 254.111469 
L 382.080575 251.063774 
L 382.034293 248.016079 
L 382.093835 244.968384 
L 382.257905 241.920689 
L 382.521335 238.872994 
L 382.875492 235.825299 
L 383.308757 232.777604 
L 383.807053 229.729909 
L 384.354423 226.682214 
L 384.933715 223.634519 
L 385.527395 220.586824 
L 386.118434 217.539129 
L 386.691196 214.491434 
L 387.232213 211.443739 
L 387.730743 208.396044 
L 388.17907 205.348349 
L 388.572553 202.300654 
L 388.909427 199.252959 
L 389.190437 196.205264 
L 389.418307 193.157569 
L 389.597115 190.109874 
L 389.731584 187.062179 
L 389.826349 184.014484 
L 389.885232 180.966789 
L 389.910583 177.919094 
L 389.902782 174.871399 
L 389.859949 171.823704 
L 389.777946 168.776009 
L 389.650715 165.728314 
L 389.470941 162.680619 
L 389.230992 159.632923 
L 388.924046 156.585228 
L 388.545265 153.537533 
L 388.092904 150.489838 
L 387.569252 147.442143 
L 386.981295 144.394448 
L 386.341045 141.346753 
L 385.665426 138.299058 
L 384.97564 135.251363 
L 384.295964 132.203668 
L 383.652042 129.155973 
L 383.068901 126.108278 
L 382.569003 123.060583 
L 382.17073 120.012888 
L 381.88752 116.965193 
L 381.7277 113.917498 
L 381.694796 110.869803 
L 381.787982 107.822108 
L 382.002371 104.774413 
L 382.329077 101.726718 
L 382.755164 98.679023 
L 383.263808 95.631328 
L 383.834925 92.583633 
L 384.446379 89.535938 
L 385.075618 86.488243 
L 385.701425 83.440548 
L 386.305422 80.392853 
L 386.873052 77.345158 
L 387.393955 74.297463 
L 387.861815 71.249768 
L 388.273846 68.202073 
L 388.630125 65.154378 
L 388.932882 62.106683 
L 389.185867 59.058988 
L 389.393791 56.011293 
L 389.561873 52.963598 
L 389.695485 49.915903 
L 389.799884 46.868208 
L 389.880024 43.820513 
L 389.940439 40.772818 
L 389.985159 37.725123 
L 390.017671 34.677428 
L 390.164398 34.677428 
L 390.164398 34.677428 
L 390.19691 37.725123 
L 390.24163 40.772818 
L 390.302045 43.820513 
L 390.382185 46.868208 
L 390.486584 49.915903 
L 390.620196 52.963598 
L 390.788278 56.011293 
L 390.996202 59.058988 
L 391.249187 62.106683 
L 391.551944 65.154378 
L 391.908223 68.202073 
L 392.320254 71.249768 
L 392.788114 74.297463 
L 393.309017 77.345158 
L 393.876647 80.392853 
L 394.480644 83.440548 
L 395.106451 86.488243 
L 395.73569 89.535938 
L 396.347144 92.583633 
L 396.918261 95.631328 
L 397.426905 98.679023 
L 397.852992 101.726718 
L 398.179698 104.774413 
L 398.394087 107.822108 
L 398.487273 110.869803 
L 398.454369 113.917498 
L 398.294549 116.965193 
L 398.011339 120.012888 
L 397.613066 123.060583 
L 397.113168 126.108278 
L 396.530027 129.155973 
L 395.886105 132.203668 
L 395.206428 135.251363 
L 394.516643 138.299058 
L 393.841024 141.346753 
L 393.200774 144.394448 
L 392.612817 147.442143 
L 392.089165 150.489838 
L 391.636804 153.537533 
L 391.258023 156.585228 
L 390.951077 159.632923 
L 390.711128 162.680619 
L 390.531354 165.728314 
L 390.404123 168.776009 
L 390.32212 171.823704 
L 390.279287 174.871399 
L 390.271486 177.919094 
L 390.296837 180.966789 
L 390.355719 184.014484 
L 390.450485 187.062179 
L 390.584954 190.109874 
L 390.763762 193.157569 
L 390.991632 196.205264 
L 391.272641 199.252959 
L 391.609516 202.300654 
L 392.002999 205.348349 
L 392.451326 208.396044 
L 392.949856 211.443739 
L 393.490873 214.491434 
L 394.063635 217.539129 
L 394.654674 220.586824 
L 395.248354 223.634519 
L 395.827646 226.682214 
L 396.375016 229.729909 
L 396.873312 232.777604 
L 397.306577 235.825299 
L 397.660734 238.872994 
L 397.924164 241.920689 
L 398.088234 244.968384 
L 398.147776 248.016079 
L 398.101494 251.063774 
L 397.952212 254.111469 
L 397.706863 257.159164 
L 397.37614 260.206859 
L 396.973809 263.254554 
L 396.515723 266.302249 
L 396.018674 269.349944 
L 395.499218 272.397639 
L 394.972649 275.445334 
L 394.452229 278.493029 
L 393.948774 281.540724 
L 393.470582 284.588419 
L 393.023631 287.636114 
L 392.611923 290.683809 
L 392.237851 293.731504 
L 391.902498 296.779199 
L 391.605837 299.826894 
L 391.346861 302.874589 
L 391.123694 305.922284 
L 390.933726 308.969979 
L 390.773807 312.017674 
L 390.640479 315.065369 
L 390.530215 318.113064 
L 390.439627 321.160759 
L 390.365618 324.208454 
L 390.305463 327.256149 
L 390.256826 330.303844 
L 390.21774 333.351539 
L 390.186562 336.399234 
z
" clip-path="url(#pdf84359186)" style="fill: #348abd; fill-opacity: 0.3"/>
   </g>
   <g id="matplotlib.axis_1">
    <g id="xtick_1">
     <g id="line2d_1">
      <path d="M 82.228966 307.584 
L 82.228966 41.472 
" clip-path="url(#pdf84359186)" style="fill: none; stroke-dasharray: 1.85,0.8; stroke-dashoffset: 0; stroke: #b2b2b2; stroke-width: 0.5"/>
     </g>
     <g id="line2d_2">
      <defs>
       <path id="m913502419c" d="M 0 0 
L 0 -3.5 
" style="stroke: #000000; stroke-width: 0.8"/>
      </defs>
      <g>
       <use xlink:href="#m913502419c" x="82.228966" y="307.584" style="stroke: #000000; stroke-width: 0.8"/>
      </g>
     </g>
     <g id="text_1">
      <!-- 0 -->
      <g transform="translate(79.047716 318.682437) scale(0.1 -0.1)">
       <defs>
        <path id="DejaVuSans-30" d="M 2034 4250 
Q 1547 4250 1301 3770 
Q 1056 3291 1056 2328 
Q 1056 1369 1301 889 
Q 1547 409 2034 409 
Q 2525 409 2770 889 
Q 3016 1369 3016 2328 
Q 3016 3291 2770 3770 
Q 2525 4250 2034 4250 
z
M 2034 4750 
Q 2819 4750 3233 4129 
Q 3647 3509 3647 2328 
Q 3647 1150 3233 529 
Q 2819 -91 2034 -91 
Q 1250 -91 836 529 
Q 422 1150 422 2328 
Q 422 3509 836 4129 
Q 1250 4750 2034 4750 
z
" transform="scale(0.015625)"/>
       </defs>
       <use xlink:href="#DejaVuSans-30"/>
      </g>
     </g>
    </g>
    <g id="xtick_2">
     <g id="line2d_3">
      <path d="M 138.203887 307.584 
L 138.203887 41.472 
" clip-path="url(#pdf84359186)" style="fill: none; stroke-dasharray: 1.85,0.8; stroke-dashoffset: 0; stroke: #b2b2b2; stroke-width: 0.5"/>
     </g>
     <g id="line2d_4">
      <g>
       <use xlink:href="#m913502419c" x="138.203887" y="307.584" style="stroke: #000000; stroke-width: 0.8"/>
      </g>
     </g>
     <g id="text_2">
      <!-- 50 -->
      <g transform="translate(131.841387 318.682437) scale(0.1 -0.1)">
       <defs>
        <path id="DejaVuSans-35" d="M 691 4666 
L 3169 4666 
L 3169 4134 
L 1269 4134 
L 1269 2991 
Q 1406 3038 1543 3061 
Q 1681 3084 1819 3084 
Q 2600 3084 3056 2656 
Q 3513 2228 3513 1497 
Q 3513 744 3044 326 
Q 2575 -91 1722 -91 
Q 1428 -91 1123 -41 
Q 819 9 494 109 
L 494 744 
Q 775 591 1075 516 
Q 1375 441 1709 441 
Q 2250 441 2565 725 
Q 2881 1009 2881 1497 
Q 2881 1984 2565 2268 
Q 2250 2553 1709 2553 
Q 1456 2553 1204 2497 
Q 953 2441 691 2322 
L 691 4666 
z
" transform="scale(0.015625)"/>
       </defs>
       <use xlink:href="#DejaVuSans-35"/>
       <use xlink:href="#DejaVuSans-30" x="63.623047"/>
      </g>
     </g>
    </g>
    <g id="xtick_3">
     <g id="line2d_5">
      <path d="M 194.178809 307.584 
L 194.178809 41.472 
" clip-path="url(#pdf84359186)" style="fill: none; stroke-dasharray: 1.85,0.8; stroke-dashoffset: 0; stroke: #b2b2b2; stroke-width: 0.5"/>
     </g>
     <g id="line2d_6">
      <g>
       <use xlink:href="#m913502419c" x="194.178809" y="307.584" style="stroke: #000000; stroke-width: 0.8"/>
      </g>
     </g>
     <g id="text_3">
      <!-- 100 -->
      <g transform="translate(184.635059 318.682437) scale(0.1 -0.1)">
       <defs>
        <path id="DejaVuSans-31" d="M 794 531 
L 1825 531 
L 1825 4091 
L 703 3866 
L 703 4441 
L 1819 4666 
L 2450 4666 
L 2450 531 
L 3481 531 
L 3481 0 
L 794 0 
L 794 531 
z
" transform="scale(0.015625)"/>
       </defs>
       <use xlink:href="#DejaVuSans-31"/>
       <use xlink:href="#DejaVuSans-30" x="63.623047"/>
       <use xlink:href="#DejaVuSans-30" x="127.246094"/>
      </g>
     </g>
    </g>
    <g id="xtick_4">
     <g id="line2d_7">
      <path d="M 250.15373 307.584 
L 250.15373 41.472 
" clip-path="url(#pdf84359186)" style="fill: none; stroke-dasharray: 1.85,0.8; stroke-dashoffset: 0; stroke: #b2b2b2; stroke-width: 0.5"/>
     </g>
     <g id="line2d_8">
      <g>
       <use xlink:href="#m913502419c" x="250.15373" y="307.584" style="stroke: #000000; stroke-width: 0.8"/>
      </g>
     </g>
     <g id="text_4">
      <!-- 150 -->
      <g transform="translate(240.60998 318.682437) scale(0.1 -0.1)">
       <use xlink:href="#DejaVuSans-31"/>
       <use xlink:href="#DejaVuSans-35" x="63.623047"/>
       <use xlink:href="#DejaVuSans-30" x="127.246094"/>
      </g>
     </g>
    </g>
    <g id="xtick_5">
     <g id="line2d_9">
      <path d="M 306.128652 307.584 
L 306.128652 41.472 
" clip-path="url(#pdf84359186)" style="fill: none; stroke-dasharray: 1.85,0.8; stroke-dashoffset: 0; stroke: #b2b2b2; stroke-width: 0.5"/>
     </g>
     <g id="line2d_10">
      <g>
       <use xlink:href="#m913502419c" x="306.128652" y="307.584" style="stroke: #000000; stroke-width: 0.8"/>
      </g>
     </g>
     <g id="text_5">
      <!-- 200 -->
      <g transform="translate(296.584902 318.682437) scale(0.1 -0.1)">
       <defs>
        <path id="DejaVuSans-32" d="M 1228 531 
L 3431 531 
L 3431 0 
L 469 0 
L 469 531 
Q 828 903 1448 1529 
Q 2069 2156 2228 2338 
Q 2531 2678 2651 2914 
Q 2772 3150 2772 3378 
Q 2772 3750 2511 3984 
Q 2250 4219 1831 4219 
Q 1534 4219 1204 4116 
Q 875 4013 500 3803 
L 500 4441 
Q 881 4594 1212 4672 
Q 1544 4750 1819 4750 
Q 2544 4750 2975 4387 
Q 3406 4025 3406 3419 
Q 3406 3131 3298 2873 
Q 3191 2616 2906 2266 
Q 2828 2175 2409 1742 
Q 1991 1309 1228 531 
z
" transform="scale(0.015625)"/>
       </defs>
       <use xlink:href="#DejaVuSans-32"/>
       <use xlink:href="#DejaVuSans-30" x="63.623047"/>
       <use xlink:href="#DejaVuSans-30" x="127.246094"/>
      </g>
     </g>
    </g>
    <g id="xtick_6">
     <g id="line2d_11">
      <path d="M 362.103574 307.584 
L 362.103574 41.472 
" clip-path="url(#pdf84359186)" style="fill: none; stroke-dasharray: 1.85,0.8; stroke-dashoffset: 0; stroke: #b2b2b2; stroke-width: 0.5"/>
     </g>
     <g id="line2d_12">
      <g>
       <use xlink:href="#m913502419c" x="362.103574" y="307.584" style="stroke: #000000; stroke-width: 0.8"/>
      </g>
     </g>
     <g id="text_6">
      <!-- 250 -->
      <g transform="translate(352.559824 318.682437) scale(0.1 -0.1)">
       <use xlink:href="#DejaVuSans-32"/>
       <use xlink:href="#DejaVuSans-35" x="63.623047"/>
       <use xlink:href="#DejaVuSans-30" x="127.246094"/>
      </g>
     </g>
    </g>
    <g id="text_7">
     <!-- $s$ -->
     <g transform="translate(233.34 333.88025) scale(0.12 -0.12)">
      <defs>
       <path id="Cmmi10-73" d="M 556 391 
Q 728 97 1247 97 
Q 1472 97 1675 173 
Q 1878 250 2011 403 
Q 2144 556 2144 775 
Q 2144 941 2025 1047 
Q 1906 1153 1734 1191 
L 1388 1259 
Q 1150 1319 997 1481 
Q 844 1644 844 1875 
Q 844 2159 998 2378 
Q 1153 2597 1406 2712 
Q 1659 2828 1931 2828 
Q 2222 2828 2451 2689 
Q 2681 2550 2681 2278 
Q 2681 2131 2598 2018 
Q 2516 1906 2369 1906 
Q 2284 1906 2223 1961 
Q 2163 2016 2163 2100 
Q 2163 2175 2205 2245 
Q 2247 2316 2317 2358 
Q 2388 2400 2463 2400 
Q 2406 2538 2251 2600 
Q 2097 2663 1919 2663 
Q 1756 2663 1593 2597 
Q 1431 2531 1332 2404 
Q 1234 2278 1234 2106 
Q 1234 1991 1315 1903 
Q 1397 1816 1516 1778 
L 1888 1703 
Q 2066 1666 2214 1570 
Q 2363 1475 2448 1329 
Q 2534 1184 2534 997 
Q 2534 759 2401 528 
Q 2269 297 2075 159 
Q 1734 -72 1241 -72 
Q 900 -72 615 84 
Q 331 241 331 550 
Q 331 725 432 854 
Q 534 984 709 984 
Q 813 984 883 921 
Q 953 859 953 756 
Q 953 609 843 500 
Q 734 391 588 391 
L 556 391 
z
" transform="scale(0.015625)"/>
      </defs>
      <use xlink:href="#Cmmi10-73" transform="translate(0 0.8125)"/>
     </g>
    </g>
   </g>
   <g id="matplotlib.axis_2">
    <g id="ytick_1">
     <g id="line2d_13">
      <path d="M 57.6 307.584 
L 414.72 307.584 
" clip-path="url(#pdf84359186)" style="fill: none; stroke-dasharray: 1.85,0.8; stroke-dashoffset: 0; stroke: #b2b2b2; stroke-width: 0.5"/>
     </g>
     <g id="line2d_14">
      <defs>
       <path id="mf0cd92954c" d="M 0 0 
L 3.5 0 
" style="stroke: #000000; stroke-width: 0.8"/>
      </defs>
      <g>
       <use xlink:href="#mf0cd92954c" x="57.6" y="307.584" style="stroke: #000000; stroke-width: 0.8"/>
      </g>
     </g>
     <g id="text_8">
      <!-- 20 -->
      <g transform="translate(32.995312 311.383219) scale(0.1 -0.1)">
       <defs>
        <path id="DejaVuSans-2212" d="M 678 2272 
L 4684 2272 
L 4684 1741 
L 678 1741 
L 678 2272 
z
" transform="scale(0.015625)"/>
       </defs>
       <use xlink:href="#DejaVuSans-2212"/>
       <use xlink:href="#DejaVuSans-32" x="83.789062"/>
       <use xlink:href="#DejaVuSans-30" x="147.412109"/>
      </g>
     </g>
    </g>
    <g id="ytick_2">
     <g id="line2d_15">
      <path d="M 57.6 274.32 
L 414.72 274.32 
" clip-path="url(#pdf84359186)" style="fill: none; stroke-dasharray: 1.85,0.8; stroke-dashoffset: 0; stroke: #b2b2b2; stroke-width: 0.5"/>
     </g>
     <g id="line2d_16">
      <g>
       <use xlink:href="#mf0cd92954c" x="57.6" y="274.32" style="stroke: #000000; stroke-width: 0.8"/>
      </g>
     </g>
     <g id="text_9">
      <!-- 15 -->
      <g transform="translate(32.995312 278.119219) scale(0.1 -0.1)">
       <use xlink:href="#DejaVuSans-2212"/>
       <use xlink:href="#DejaVuSans-31" x="83.789062"/>
       <use xlink:href="#DejaVuSans-35" x="147.412109"/>
      </g>
     </g>
    </g>
    <g id="ytick_3">
     <g id="line2d_17">
      <path d="M 57.6 241.056 
L 414.72 241.056 
" clip-path="url(#pdf84359186)" style="fill: none; stroke-dasharray: 1.85,0.8; stroke-dashoffset: 0; stroke: #b2b2b2; stroke-width: 0.5"/>
     </g>
     <g id="line2d_18">
      <g>
       <use xlink:href="#mf0cd92954c" x="57.6" y="241.056" style="stroke: #000000; stroke-width: 0.8"/>
      </g>
     </g>
     <g id="text_10">
      <!-- 10 -->
      <g transform="translate(32.995312 244.855219) scale(0.1 -0.1)">
       <use xlink:href="#DejaVuSans-2212"/>
       <use xlink:href="#DejaVuSans-31" x="83.789062"/>
       <use xlink:href="#DejaVuSans-30" x="147.412109"/>
      </g>
     </g>
    </g>
    <g id="ytick_4">
     <g id="line2d_19">
      <path d="M 57.6 207.792 
L 414.72 207.792 
" clip-path="url(#pdf84359186)" style="fill: none; stroke-dasharray: 1.85,0.8; stroke-dashoffset: 0; stroke: #b2b2b2; stroke-width: 0.5"/>
     </g>
     <g id="line2d_20">
      <g>
       <use xlink:href="#mf0cd92954c" x="57.6" y="207.792" style="stroke: #000000; stroke-width: 0.8"/>
      </g>
     </g>
     <g id="text_11">
      <!-- 5 -->
      <g transform="translate(39.357813 211.591219) scale(0.1 -0.1)">
       <use xlink:href="#DejaVuSans-2212"/>
       <use xlink:href="#DejaVuSans-35" x="83.789062"/>
      </g>
     </g>
    </g>
    <g id="ytick_5">
     <g id="line2d_21">
      <path d="M 57.6 174.528 
L 414.72 174.528 
" clip-path="url(#pdf84359186)" style="fill: none; stroke-dasharray: 1.85,0.8; stroke-dashoffset: 0; stroke: #b2b2b2; stroke-width: 0.5"/>
     </g>
     <g id="line2d_22">
      <g>
       <use xlink:href="#mf0cd92954c" x="57.6" y="174.528" style="stroke: #000000; stroke-width: 0.8"/>
      </g>
     </g>
     <g id="text_12">
      <!-- 0 -->
      <g transform="translate(47.7375 178.327219) scale(0.1 -0.1)">
       <use xlink:href="#DejaVuSans-30"/>
      </g>
     </g>
    </g>
    <g id="ytick_6">
     <g id="line2d_23">
      <path d="M 57.6 141.264 
L 414.72 141.264 
" clip-path="url(#pdf84359186)" style="fill: none; stroke-dasharray: 1.85,0.8; stroke-dashoffset: 0; stroke: #b2b2b2; stroke-width: 0.5"/>
     </g>
     <g id="line2d_24">
      <g>
       <use xlink:href="#mf0cd92954c" x="57.6" y="141.264" style="stroke: #000000; stroke-width: 0.8"/>
      </g>
     </g>
     <g id="text_13">
      <!-- 5 -->
      <g transform="translate(47.7375 145.063219) scale(0.1 -0.1)">
       <use xlink:href="#DejaVuSans-35"/>
      </g>
     </g>
    </g>
    <g id="ytick_7">
     <g id="line2d_25">
      <path d="M 57.6 108 
L 414.72 108 
" clip-path="url(#pdf84359186)" style="fill: none; stroke-dasharray: 1.85,0.8; stroke-dashoffset: 0; stroke: #b2b2b2; stroke-width: 0.5"/>
     </g>
     <g id="line2d_26">
      <g>
       <use xlink:href="#mf0cd92954c" x="57.6" y="108" style="stroke: #000000; stroke-width: 0.8"/>
      </g>
     </g>
     <g id="text_14">
      <!-- 10 -->
      <g transform="translate(41.375 111.799219) scale(0.1 -0.1)">
       <use xlink:href="#DejaVuSans-31"/>
       <use xlink:href="#DejaVuSans-30" x="63.623047"/>
      </g>
     </g>
    </g>
    <g id="ytick_8">
     <g id="line2d_27">
      <path d="M 57.6 74.736 
L 414.72 74.736 
" clip-path="url(#pdf84359186)" style="fill: none; stroke-dasharray: 1.85,0.8; stroke-dashoffset: 0; stroke: #b2b2b2; stroke-width: 0.5"/>
     </g>
     <g id="line2d_28">
      <g>
       <use xlink:href="#mf0cd92954c" x="57.6" y="74.736" style="stroke: #000000; stroke-width: 0.8"/>
      </g>
     </g>
     <g id="text_15">
      <!-- 15 -->
      <g transform="translate(41.375 78.535219) scale(0.1 -0.1)">
       <use xlink:href="#DejaVuSans-31"/>
       <use xlink:href="#DejaVuSans-35" x="63.623047"/>
      </g>
     </g>
    </g>
    <g id="ytick_9">
     <g id="line2d_29">
      <path d="M 57.6 41.472 
L 414.72 41.472 
" clip-path="url(#pdf84359186)" style="fill: none; stroke-dasharray: 1.85,0.8; stroke-dashoffset: 0; stroke: #b2b2b2; stroke-width: 0.5"/>
     </g>
     <g id="line2d_30">
      <g>
       <use xlink:href="#mf0cd92954c" x="57.6" y="41.472" style="stroke: #000000; stroke-width: 0.8"/>
      </g>
     </g>
     <g id="text_16">
      <!-- 20 -->
      <g transform="translate(41.375 45.271219) scale(0.1 -0.1)">
       <use xlink:href="#DejaVuSans-32"/>
       <use xlink:href="#DejaVuSans-30" x="63.623047"/>
      </g>
     </g>
    </g>
    <g id="text_17">
     <!-- $x_{s}$ -->
     <g transform="translate(26.499687 180.348) rotate(-90) scale(0.12 -0.12)">
      <defs>
       <path id="Cmmi10-78" d="M 500 184 
Q 613 97 819 97 
Q 1019 97 1172 289 
Q 1325 481 1381 709 
L 1672 1844 
Q 1741 2153 1741 2266 
Q 1741 2425 1652 2544 
Q 1563 2663 1403 2663 
Q 1200 2663 1022 2536 
Q 844 2409 722 2214 
Q 600 2019 550 1819 
Q 538 1778 500 1778 
L 422 1778 
Q 372 1778 372 1838 
L 372 1856 
Q 434 2094 584 2320 
Q 734 2547 951 2687 
Q 1169 2828 1416 2828 
Q 1650 2828 1839 2703 
Q 2028 2578 2106 2363 
Q 2216 2559 2386 2693 
Q 2556 2828 2759 2828 
Q 2897 2828 3040 2779 
Q 3184 2731 3275 2631 
Q 3366 2531 3366 2381 
Q 3366 2219 3261 2101 
Q 3156 1984 2994 1984 
Q 2891 1984 2822 2050 
Q 2753 2116 2753 2216 
Q 2753 2350 2845 2451 
Q 2938 2553 3066 2572 
Q 2950 2663 2747 2663 
Q 2541 2663 2389 2472 
Q 2238 2281 2175 2047 
L 1894 916 
Q 1825 659 1825 494 
Q 1825 331 1917 214 
Q 2009 97 2163 97 
Q 2463 97 2698 361 
Q 2934 625 3009 941 
Q 3022 978 3059 978 
L 3138 978 
Q 3163 978 3178 961 
Q 3194 944 3194 922 
Q 3194 916 3188 903 
Q 3097 522 2806 225 
Q 2516 -72 2150 -72 
Q 1916 -72 1727 54 
Q 1538 181 1459 397 
Q 1359 209 1182 68 
Q 1006 -72 806 -72 
Q 669 -72 523 -23 
Q 378 25 287 125 
Q 197 225 197 378 
Q 197 528 301 651 
Q 406 775 563 775 
Q 669 775 741 711 
Q 813 647 813 544 
Q 813 409 723 309 
Q 634 209 500 184 
z
" transform="scale(0.015625)"/>
      </defs>
      <use xlink:href="#Cmmi10-78" transform="translate(0 0.8125)"/>
      <use xlink:href="#Cmmi10-73" transform="translate(57.080078 -16.19375) scale(0.7)"/>
     </g>
    </g>
   </g>
   <g id="LineCollection_1">
    <path d="M 282.619185 307.584 
L 282.619185 41.472 
" clip-path="url(#pdf84359186)" style="fill: none; stroke-dasharray: 7.4,3.2; stroke-dashoffset: 0; stroke: #ff0000; stroke-width: 2"/>
   </g>
   <g id="LineCollection_2">
    <path d="M 78.030846 152.876317 
L 86.427085 152.876317 
" clip-path="url(#pdf84359186)" style="fill: none; stroke: #348abd; stroke-width: 2"/>
    <path d="M 106.018307 151.180447 
L 114.414545 151.180447 
" clip-path="url(#pdf84359186)" style="fill: none; stroke: #348abd; stroke-width: 2"/>
    <path d="M 134.005768 145.840882 
L 142.402006 145.840882 
" clip-path="url(#pdf84359186)" style="fill: none; stroke: #348abd; stroke-width: 2"/>
    <path d="M 161.993229 140.488154 
L 170.389467 140.488154 
" clip-path="url(#pdf84359186)" style="fill: none; stroke: #348abd; stroke-width: 2"/>
    <path d="M 189.98069 132.6689 
L 198.376928 132.6689 
" clip-path="url(#pdf84359186)" style="fill: none; stroke: #348abd; stroke-width: 2"/>
    <path d="M 217.96815 120.718739 
L 226.364389 120.718739 
" clip-path="url(#pdf84359186)" style="fill: none; stroke: #348abd; stroke-width: 2"/>
    <path d="M 245.955611 110.628218 
L 254.35185 110.628218 
" clip-path="url(#pdf84359186)" style="fill: none; stroke: #348abd; stroke-width: 2"/>
    <path d="M 273.943072 91.173225 
L 282.33931 91.173225 
" clip-path="url(#pdf84359186)" style="fill: none; stroke: #348abd; stroke-width: 2"/>
    <path d="M 301.930533 75.888193 
L 310.326771 75.888193 
" clip-path="url(#pdf84359186)" style="fill: none; stroke: #348abd; stroke-width: 2"/>
    <path d="M 329.917994 62.065073 
L 338.314232 62.065073 
" clip-path="url(#pdf84359186)" style="fill: none; stroke: #348abd; stroke-width: 2"/>
    <path d="M 357.905455 47.650913 
L 366.301693 47.650913 
" clip-path="url(#pdf84359186)" style="fill: none; stroke: #348abd; stroke-width: 2"/>
    <path d="M 385.892915 34.677428 
L 394.289154 34.677428 
" clip-path="url(#pdf84359186)" style="fill: none; stroke: #348abd; stroke-width: 2"/>
   </g>
   <g id="LineCollection_3">
    <path d="M 78.030846 198.461532 
L 86.427085 198.461532 
" clip-path="url(#pdf84359186)" style="fill: none; stroke: #348abd; stroke-width: 2"/>
    <path d="M 106.018307 201.512685 
L 114.414545 201.512685 
" clip-path="url(#pdf84359186)" style="fill: none; stroke: #348abd; stroke-width: 2"/>
    <path d="M 134.005768 208.503679 
L 142.402006 208.503679 
" clip-path="url(#pdf84359186)" style="fill: none; stroke: #348abd; stroke-width: 2"/>
    <path d="M 161.993229 213.138217 
L 170.389467 213.138217 
" clip-path="url(#pdf84359186)" style="fill: none; stroke: #348abd; stroke-width: 2"/>
    <path d="M 189.98069 224.050162 
L 198.376928 224.050162 
" clip-path="url(#pdf84359186)" style="fill: none; stroke: #348abd; stroke-width: 2"/>
    <path d="M 217.96815 235.541143 
L 226.364389 235.541143 
" clip-path="url(#pdf84359186)" style="fill: none; stroke: #348abd; stroke-width: 2"/>
    <path d="M 245.955611 250.050043 
L 254.35185 250.050043 
" clip-path="url(#pdf84359186)" style="fill: none; stroke: #348abd; stroke-width: 2"/>
    <path d="M 273.943072 255.62352 
L 282.33931 255.62352 
" clip-path="url(#pdf84359186)" style="fill: none; stroke: #348abd; stroke-width: 2"/>
    <path d="M 301.930533 273.021444 
L 310.326771 273.021444 
" clip-path="url(#pdf84359186)" style="fill: none; stroke: #348abd; stroke-width: 2"/>
    <path d="M 329.917994 293.114187 
L 338.314232 293.114187 
" clip-path="url(#pdf84359186)" style="fill: none; stroke: #348abd; stroke-width: 2"/>
    <path d="M 357.905455 311.72382 
L 366.301693 311.72382 
" clip-path="url(#pdf84359186)" style="fill: none; stroke: #348abd; stroke-width: 2"/>
    <path d="M 385.892915 336.399234 
L 394.289154 336.399234 
" clip-path="url(#pdf84359186)" style="fill: none; stroke: #348abd; stroke-width: 2"/>
   </g>
   <g id="LineCollection_4">
    <path d="M 82.228966 198.461532 
L 82.228966 152.876317 
" clip-path="url(#pdf84359186)" style="fill: none; stroke: #348abd; stroke-width: 2"/>
    <path d="M 110.216426 201.512685 
L 110.216426 151.180447 
" clip-path="url(#pdf84359186)" style="fill: none; stroke: #348abd; stroke-width: 2"/>
    <path d="M 138.203887 208.503679 
L 138.203887 145.840882 
" clip-path="url(#pdf84359186)" style="fill: none; stroke: #348abd; stroke-width: 2"/>
    <path d="M 166.191348 213.138217 
L 166.191348 140.488154 
" clip-path="url(#pdf84359186)" style="fill: none; stroke: #348abd; stroke-width: 2"/>
    <path d="M 194.178809 224.050162 
L 194.178809 132.6689 
" clip-path="url(#pdf84359186)" style="fill: none; stroke: #348abd; stroke-width: 2"/>
    <path d="M 222.16627 235.541143 
L 222.16627 120.718739 
" clip-path="url(#pdf84359186)" style="fill: none; stroke: #348abd; stroke-width: 2"/>
    <path d="M 250.15373 250.050043 
L 250.15373 110.628218 
" clip-path="url(#pdf84359186)" style="fill: none; stroke: #348abd; stroke-width: 2"/>
    <path d="M 278.141191 255.62352 
L 278.141191 91.173225 
" clip-path="url(#pdf84359186)" style="fill: none; stroke: #348abd; stroke-width: 2"/>
    <path d="M 306.128652 273.021444 
L 306.128652 75.888193 
" clip-path="url(#pdf84359186)" style="fill: none; stroke: #348abd; stroke-width: 2"/>
    <path d="M 334.116113 293.114187 
L 334.116113 62.065073 
" clip-path="url(#pdf84359186)" style="fill: none; stroke: #348abd; stroke-width: 2"/>
    <path d="M 362.103574 311.72382 
L 362.103574 47.650913 
" clip-path="url(#pdf84359186)" style="fill: none; stroke: #348abd; stroke-width: 2"/>
    <path d="M 390.091034 336.399234 
L 390.091034 34.677428 
" clip-path="url(#pdf84359186)" style="fill: none; stroke: #348abd; stroke-width: 2"/>
   </g>
   <g id="patch_3">
    <path d="M 57.6 307.584 
L 57.6 41.472 
" style="fill: none; stroke: #bcbcbc; stroke-width: 0.8; stroke-linejoin: miter; stroke-linecap: square"/>
   </g>
   <g id="patch_4">
    <path d="M 414.72 307.584 
L 414.72 41.472 
" style="fill: none; stroke: #bcbcbc; stroke-width: 0.8; stroke-linejoin: miter; stroke-linecap: square"/>
   </g>
   <g id="patch_5">
    <path d="M 57.6 307.584 
L 414.72 307.584 
" style="fill: none; stroke: #bcbcbc; stroke-width: 0.8; stroke-linejoin: miter; stroke-linecap: square"/>
   </g>
   <g id="patch_6">
    <path d="M 57.6 41.472 
L 414.72 41.472 
" style="fill: none; stroke: #bcbcbc; stroke-width: 0.8; stroke-linejoin: miter; stroke-linecap: square"/>
   </g>
   <g id="text_18">
    <!-- Violin plot of critical time n = 5000 -->
    <g transform="translate(110.370375 35.472) scale(0.144 -0.144)">
     <defs>
      <path id="DejaVuSans-56" d="M 1831 0 
L 50 4666 
L 709 4666 
L 2188 738 
L 3669 4666 
L 4325 4666 
L 2547 0 
L 1831 0 
z
" transform="scale(0.015625)"/>
      <path id="DejaVuSans-69" d="M 603 3500 
L 1178 3500 
L 1178 0 
L 603 0 
L 603 3500 
z
M 603 4863 
L 1178 4863 
L 1178 4134 
L 603 4134 
L 603 4863 
z
" transform="scale(0.015625)"/>
      <path id="DejaVuSans-6f" d="M 1959 3097 
Q 1497 3097 1228 2736 
Q 959 2375 959 1747 
Q 959 1119 1226 758 
Q 1494 397 1959 397 
Q 2419 397 2687 759 
Q 2956 1122 2956 1747 
Q 2956 2369 2687 2733 
Q 2419 3097 1959 3097 
z
M 1959 3584 
Q 2709 3584 3137 3096 
Q 3566 2609 3566 1747 
Q 3566 888 3137 398 
Q 2709 -91 1959 -91 
Q 1206 -91 779 398 
Q 353 888 353 1747 
Q 353 2609 779 3096 
Q 1206 3584 1959 3584 
z
" transform="scale(0.015625)"/>
      <path id="DejaVuSans-6c" d="M 603 4863 
L 1178 4863 
L 1178 0 
L 603 0 
L 603 4863 
z
" transform="scale(0.015625)"/>
      <path id="DejaVuSans-6e" d="M 3513 2113 
L 3513 0 
L 2938 0 
L 2938 2094 
Q 2938 2591 2744 2837 
Q 2550 3084 2163 3084 
Q 1697 3084 1428 2787 
Q 1159 2491 1159 1978 
L 1159 0 
L 581 0 
L 581 3500 
L 1159 3500 
L 1159 2956 
Q 1366 3272 1645 3428 
Q 1925 3584 2291 3584 
Q 2894 3584 3203 3211 
Q 3513 2838 3513 2113 
z
" transform="scale(0.015625)"/>
      <path id="DejaVuSans-20" transform="scale(0.015625)"/>
      <path id="DejaVuSans-70" d="M 1159 525 
L 1159 -1331 
L 581 -1331 
L 581 3500 
L 1159 3500 
L 1159 2969 
Q 1341 3281 1617 3432 
Q 1894 3584 2278 3584 
Q 2916 3584 3314 3078 
Q 3713 2572 3713 1747 
Q 3713 922 3314 415 
Q 2916 -91 2278 -91 
Q 1894 -91 1617 61 
Q 1341 213 1159 525 
z
M 3116 1747 
Q 3116 2381 2855 2742 
Q 2594 3103 2138 3103 
Q 1681 3103 1420 2742 
Q 1159 2381 1159 1747 
Q 1159 1113 1420 752 
Q 1681 391 2138 391 
Q 2594 391 2855 752 
Q 3116 1113 3116 1747 
z
" transform="scale(0.015625)"/>
      <path id="DejaVuSans-74" d="M 1172 4494 
L 1172 3500 
L 2356 3500 
L 2356 3053 
L 1172 3053 
L 1172 1153 
Q 1172 725 1289 603 
Q 1406 481 1766 481 
L 2356 481 
L 2356 0 
L 1766 0 
Q 1100 0 847 248 
Q 594 497 594 1153 
L 594 3053 
L 172 3053 
L 172 3500 
L 594 3500 
L 594 4494 
L 1172 4494 
z
" transform="scale(0.015625)"/>
      <path id="DejaVuSans-66" d="M 2375 4863 
L 2375 4384 
L 1825 4384 
Q 1516 4384 1395 4259 
Q 1275 4134 1275 3809 
L 1275 3500 
L 2222 3500 
L 2222 3053 
L 1275 3053 
L 1275 0 
L 697 0 
L 697 3053 
L 147 3053 
L 147 3500 
L 697 3500 
L 697 3744 
Q 697 4328 969 4595 
Q 1241 4863 1831 4863 
L 2375 4863 
z
" transform="scale(0.015625)"/>
      <path id="DejaVuSans-63" d="M 3122 3366 
L 3122 2828 
Q 2878 2963 2633 3030 
Q 2388 3097 2138 3097 
Q 1578 3097 1268 2742 
Q 959 2388 959 1747 
Q 959 1106 1268 751 
Q 1578 397 2138 397 
Q 2388 397 2633 464 
Q 2878 531 3122 666 
L 3122 134 
Q 2881 22 2623 -34 
Q 2366 -91 2075 -91 
Q 1284 -91 818 406 
Q 353 903 353 1747 
Q 353 2603 823 3093 
Q 1294 3584 2113 3584 
Q 2378 3584 2631 3529 
Q 2884 3475 3122 3366 
z
" transform="scale(0.015625)"/>
      <path id="DejaVuSans-72" d="M 2631 2963 
Q 2534 3019 2420 3045 
Q 2306 3072 2169 3072 
Q 1681 3072 1420 2755 
Q 1159 2438 1159 1844 
L 1159 0 
L 581 0 
L 581 3500 
L 1159 3500 
L 1159 2956 
Q 1341 3275 1631 3429 
Q 1922 3584 2338 3584 
Q 2397 3584 2469 3576 
Q 2541 3569 2628 3553 
L 2631 2963 
z
" transform="scale(0.015625)"/>
      <path id="DejaVuSans-61" d="M 2194 1759 
Q 1497 1759 1228 1600 
Q 959 1441 959 1056 
Q 959 750 1161 570 
Q 1363 391 1709 391 
Q 2188 391 2477 730 
Q 2766 1069 2766 1631 
L 2766 1759 
L 2194 1759 
z
M 3341 1997 
L 3341 0 
L 2766 0 
L 2766 531 
Q 2569 213 2275 61 
Q 1981 -91 1556 -91 
Q 1019 -91 701 211 
Q 384 513 384 1019 
Q 384 1609 779 1909 
Q 1175 2209 1959 2209 
L 2766 2209 
L 2766 2266 
Q 2766 2663 2505 2880 
Q 2244 3097 1772 3097 
Q 1472 3097 1187 3025 
Q 903 2953 641 2809 
L 641 3341 
Q 956 3463 1253 3523 
Q 1550 3584 1831 3584 
Q 2591 3584 2966 3190 
Q 3341 2797 3341 1997 
z
" transform="scale(0.015625)"/>
      <path id="DejaVuSans-6d" d="M 3328 2828 
Q 3544 3216 3844 3400 
Q 4144 3584 4550 3584 
Q 5097 3584 5394 3201 
Q 5691 2819 5691 2113 
L 5691 0 
L 5113 0 
L 5113 2094 
Q 5113 2597 4934 2840 
Q 4756 3084 4391 3084 
Q 3944 3084 3684 2787 
Q 3425 2491 3425 1978 
L 3425 0 
L 2847 0 
L 2847 2094 
Q 2847 2600 2669 2842 
Q 2491 3084 2119 3084 
Q 1678 3084 1418 2786 
Q 1159 2488 1159 1978 
L 1159 0 
L 581 0 
L 581 3500 
L 1159 3500 
L 1159 2956 
Q 1356 3278 1631 3431 
Q 1906 3584 2284 3584 
Q 2666 3584 2933 3390 
Q 3200 3197 3328 2828 
z
" transform="scale(0.015625)"/>
      <path id="DejaVuSans-65" d="M 3597 1894 
L 3597 1613 
L 953 1613 
Q 991 1019 1311 708 
Q 1631 397 2203 397 
Q 2534 397 2845 478 
Q 3156 559 3463 722 
L 3463 178 
Q 3153 47 2828 -22 
Q 2503 -91 2169 -91 
Q 1331 -91 842 396 
Q 353 884 353 1716 
Q 353 2575 817 3079 
Q 1281 3584 2069 3584 
Q 2775 3584 3186 3129 
Q 3597 2675 3597 1894 
z
M 3022 2063 
Q 3016 2534 2758 2815 
Q 2500 3097 2075 3097 
Q 1594 3097 1305 2825 
Q 1016 2553 972 2059 
L 3022 2063 
z
" transform="scale(0.015625)"/>
      <path id="DejaVuSans-3d" d="M 678 2906 
L 4684 2906 
L 4684 2381 
L 678 2381 
L 678 2906 
z
M 678 1631 
L 4684 1631 
L 4684 1100 
L 678 1100 
L 678 1631 
z
" transform="scale(0.015625)"/>
     </defs>
     <use xlink:href="#DejaVuSans-56"/>
     <use xlink:href="#DejaVuSans-69" x="66.158203"/>
     <use xlink:href="#DejaVuSans-6f" x="93.941406"/>
     <use xlink:href="#DejaVuSans-6c" x="155.123047"/>
     <use xlink:href="#DejaVuSans-69" x="182.90625"/>
     <use xlink:href="#DejaVuSans-6e" x="210.689453"/>
     <use xlink:href="#DejaVuSans-20" x="274.068359"/>
     <use xlink:href="#DejaVuSans-70" x="305.855469"/>
     <use xlink:href="#DejaVuSans-6c" x="369.332031"/>
     <use xlink:href="#DejaVuSans-6f" x="397.115234"/>
     <use xlink:href="#DejaVuSans-74" x="458.296875"/>
     <use xlink:href="#DejaVuSans-20" x="497.505859"/>
     <use xlink:href="#DejaVuSans-6f" x="529.292969"/>
     <use xlink:href="#DejaVuSans-66" x="590.474609"/>
     <use xlink:href="#DejaVuSans-20" x="625.679688"/>
     <use xlink:href="#DejaVuSans-63" x="657.466797"/>
     <use xlink:href="#DejaVuSans-72" x="712.447266"/>
     <use xlink:href="#DejaVuSans-69" x="753.560547"/>
     <use xlink:href="#DejaVuSans-74" x="781.34375"/>
     <use xlink:href="#DejaVuSans-69" x="820.552734"/>
     <use xlink:href="#DejaVuSans-63" x="848.335938"/>
     <use xlink:href="#DejaVuSans-61" x="903.316406"/>
     <use xlink:href="#DejaVuSans-6c" x="964.595703"/>
     <use xlink:href="#DejaVuSans-20" x="992.378906"/>
     <use xlink:href="#DejaVuSans-74" x="1024.166016"/>
     <use xlink:href="#DejaVuSans-69" x="1063.375"/>
     <use xlink:href="#DejaVuSans-6d" x="1091.158203"/>
     <use xlink:href="#DejaVuSans-65" x="1188.570312"/>
     <use xlink:href="#DejaVuSans-20" x="1250.09375"/>
     <use xlink:href="#DejaVuSans-6e" x="1281.880859"/>
     <use xlink:href="#DejaVuSans-20" x="1345.259766"/>
     <use xlink:href="#DejaVuSans-3d" x="1377.046875"/>
     <use xlink:href="#DejaVuSans-20" x="1460.835938"/>
     <use xlink:href="#DejaVuSans-35" x="1492.623047"/>
     <use xlink:href="#DejaVuSans-30" x="1556.246094"/>
     <use xlink:href="#DejaVuSans-30" x="1619.869141"/>
     <use xlink:href="#DejaVuSans-30" x="1683.492188"/>
    </g>
   </g>
   <g id="legend_1">
    <g id="patch_7">
     <path d="M 66 68.68575 
L 175.513125 68.68575 
Q 177.913125 68.68575 177.913125 66.28575 
L 177.913125 49.872 
Q 177.913125 47.472 175.513125 47.472 
L 66 47.472 
Q 63.6 47.472 63.6 49.872 
L 63.6 66.28575 
Q 63.6 68.68575 66 68.68575 
z
" style="fill: #eeeeee; opacity: 0.8; stroke: #cccccc; stroke-width: 0.5; stroke-linejoin: miter"/>
    </g>
    <g id="line2d_31">
     <path d="M 68.4 57.190125 
L 92.4 57.190125 
" style="fill: none; stroke-dasharray: 7.4,3.2; stroke-dashoffset: 0; stroke: #ff0000; stroke-width: 2"/>
    </g>
    <g id="text_19">
     <!-- critical time -->
     <g transform="translate(102 61.390125) scale(0.12 -0.12)">
      <use xlink:href="#DejaVuSans-63"/>
      <use xlink:href="#DejaVuSans-72" x="54.980469"/>
      <use xlink:href="#DejaVuSans-69" x="96.09375"/>
      <use xlink:href="#DejaVuSans-74" x="123.876953"/>
      <use xlink:href="#DejaVuSans-69" x="163.085938"/>
      <use xlink:href="#DejaVuSans-63" x="190.869141"/>
      <use xlink:href="#DejaVuSans-61" x="245.849609"/>
      <use xlink:href="#DejaVuSans-6c" x="307.128906"/>
      <use xlink:href="#DejaVuSans-20" x="334.912109"/>
      <use xlink:href="#DejaVuSans-74" x="366.699219"/>
      <use xlink:href="#DejaVuSans-69" x="405.908203"/>
      <use xlink:href="#DejaVuSans-6d" x="433.691406"/>
      <use xlink:href="#DejaVuSans-65" x="531.103516"/>
     </g>
    </g>
   </g>
  </g>
 </g>
 <defs>
  <clipPath id="pdf84359186">
   <rect x="57.6" y="41.472" width="357.12" height="266.112"/>
  </clipPath>
 </defs>
</svg>
