<?xml version="1.0" encoding="utf-8" standalone="no"?>
<!DOCTYPE svg PUBLIC "-//W3C//DTD SVG 1.1//EN"
  "http://www.w3.org/Graphics/SVG/1.1/DTD/svg11.dtd">
<svg xmlns:xlink="http://www.w3.org/1999/xlink" width="460.8pt" height="345.6pt" viewBox="0 0 460.8 345.6" xmlns="http://www.w3.org/2000/svg" version="1.1">
 <metadata>
  <rdf:RDF xmlns:dc="http://purl.org/dc/elements/1.1/" xmlns:cc="http://creativecommons.org/ns#" xmlns:rdf="http://www.w3.org/1999/02/22-rdf-syntax-ns#">
   <cc:Work>
    <dc:type rdf:resource="http://purl.org/dc/dcmitype/StillImage"/>
    <dc:date>2025-10-07T15:59:39.973943</dc:date>
    <dc:format>image/svg+xml</dc:format>
    <dc:creator>
     <cc:Agent>
      <dc:title>Matplotlib v3.9.2, https://matplotlib.org/</dc:title>
     </cc:Agent>
    </dc:creator>
   </cc:Work>
  </rdf:RDF>
 </metadata>
 <defs>
  <style type="text/css">*{stroke-linejoin: round; stroke-linecap: butt}</style>
 </defs>
 <g id="figure_1">
  <g id="patch_1">
   <path d="M 0 345.6 
L 460.8 345.6 
L 460.8 0 
L 0 0 
z
" style="fill: #ffffff"/>
  </g>
  <g id="axes_1">
   <g id="patch_2">
    <path d="M 57.6 307.584 
L 414.72 307.584 
L 414.72 41.472 
L 57.6 41.472 
z
" style="fill: #eeeeee"/>
   </g>
   <g id="matplotlib.axis_1">
    <g id="xtick_1">
     <g id="line2d_1">
      <path d="M 73.832727 307.584 
L 73.832727 41.472 
" clip-path="url(#p50ffd5e96d)" style="fill: none; stroke-dasharray: 1.85,0.8; stroke-dashoffset: 0; stroke: #b2b2b2; stroke-width: 0.5"/>
     </g>
     <g id="line2d_2">
      <defs>
       <path id="m45524001c0" d="M 0 0 
L 0 -3.5 
" style="stroke: #000000; stroke-width: 0.8"/>
      </defs>
      <g>
       <use xlink:href="#m45524001c0" x="73.832727" y="307.584" style="stroke: #000000; stroke-width: 0.8"/>
      </g>
     </g>
     <g id="text_1">
      <!-- 0.00 -->
      <g transform="translate(62.699915 318.682437) scale(0.1 -0.1)">
       <defs>
        <path id="DejaVuSans-30" d="M 2034 4250 
Q 1547 4250 1301 3770 
Q 1056 3291 1056 2328 
Q 1056 1369 1301 889 
Q 1547 409 2034 409 
Q 2525 409 2770 889 
Q 3016 1369 3016 2328 
Q 3016 3291 2770 3770 
Q 2525 4250 2034 4250 
z
M 2034 4750 
Q 2819 4750 3233 4129 
Q 3647 3509 3647 2328 
Q 3647 1150 3233 529 
Q 2819 -91 2034 -91 
Q 1250 -91 836 529 
Q 422 1150 422 2328 
Q 422 3509 836 4129 
Q 1250 4750 2034 4750 
z
" transform="scale(0.015625)"/>
        <path id="DejaVuSans-2e" d="M 684 794 
L 1344 794 
L 1344 0 
L 684 0 
L 684 794 
z
" transform="scale(0.015625)"/>
       </defs>
       <use xlink:href="#DejaVuSans-30"/>
       <use xlink:href="#DejaVuSans-2e" x="63.623047"/>
       <use xlink:href="#DejaVuSans-30" x="95.410156"/>
       <use xlink:href="#DejaVuSans-30" x="159.033203"/>
      </g>
     </g>
    </g>
    <g id="xtick_2">
     <g id="line2d_3">
      <path d="M 116.721873 307.584 
L 116.721873 41.472 
" clip-path="url(#p50ffd5e96d)" style="fill: none; stroke-dasharray: 1.85,0.8; stroke-dashoffset: 0; stroke: #b2b2b2; stroke-width: 0.5"/>
     </g>
     <g id="line2d_4">
      <g>
       <use xlink:href="#m45524001c0" x="116.721873" y="307.584" style="stroke: #000000; stroke-width: 0.8"/>
      </g>
     </g>
     <g id="text_2">
      <!-- 0.25 -->
      <g transform="translate(105.58906 318.682437) scale(0.1 -0.1)">
       <defs>
        <path id="DejaVuSans-32" d="M 1228 531 
L 3431 531 
L 3431 0 
L 469 0 
L 469 531 
Q 828 903 1448 1529 
Q 2069 2156 2228 2338 
Q 2531 2678 2651 2914 
Q 2772 3150 2772 3378 
Q 2772 3750 2511 3984 
Q 2250 4219 1831 4219 
Q 1534 4219 1204 4116 
Q 875 4013 500 3803 
L 500 4441 
Q 881 4594 1212 4672 
Q 1544 4750 1819 4750 
Q 2544 4750 2975 4387 
Q 3406 4025 3406 3419 
Q 3406 3131 3298 2873 
Q 3191 2616 2906 2266 
Q 2828 2175 2409 1742 
Q 1991 1309 1228 531 
z
" transform="scale(0.015625)"/>
        <path id="DejaVuSans-35" d="M 691 4666 
L 3169 4666 
L 3169 4134 
L 1269 4134 
L 1269 2991 
Q 1406 3038 1543 3061 
Q 1681 3084 1819 3084 
Q 2600 3084 3056 2656 
Q 3513 2228 3513 1497 
Q 3513 744 3044 326 
Q 2575 -91 1722 -91 
Q 1428 -91 1123 -41 
Q 819 9 494 109 
L 494 744 
Q 775 591 1075 516 
Q 1375 441 1709 441 
Q 2250 441 2565 725 
Q 2881 1009 2881 1497 
Q 2881 1984 2565 2268 
Q 2250 2553 1709 2553 
Q 1456 2553 1204 2497 
Q 953 2441 691 2322 
L 691 4666 
z
" transform="scale(0.015625)"/>
       </defs>
       <use xlink:href="#DejaVuSans-30"/>
       <use xlink:href="#DejaVuSans-2e" x="63.623047"/>
       <use xlink:href="#DejaVuSans-32" x="95.410156"/>
       <use xlink:href="#DejaVuSans-35" x="159.033203"/>
      </g>
     </g>
    </g>
    <g id="xtick_3">
     <g id="line2d_5">
      <path d="M 159.611019 307.584 
L 159.611019 41.472 
" clip-path="url(#p50ffd5e96d)" style="fill: none; stroke-dasharray: 1.85,0.8; stroke-dashoffset: 0; stroke: #b2b2b2; stroke-width: 0.5"/>
     </g>
     <g id="line2d_6">
      <g>
       <use xlink:href="#m45524001c0" x="159.611019" y="307.584" style="stroke: #000000; stroke-width: 0.8"/>
      </g>
     </g>
     <g id="text_3">
      <!-- 0.50 -->
      <g transform="translate(148.478206 318.682437) scale(0.1 -0.1)">
       <use xlink:href="#DejaVuSans-30"/>
       <use xlink:href="#DejaVuSans-2e" x="63.623047"/>
       <use xlink:href="#DejaVuSans-35" x="95.410156"/>
       <use xlink:href="#DejaVuSans-30" x="159.033203"/>
      </g>
     </g>
    </g>
    <g id="xtick_4">
     <g id="line2d_7">
      <path d="M 202.500164 307.584 
L 202.500164 41.472 
" clip-path="url(#p50ffd5e96d)" style="fill: none; stroke-dasharray: 1.85,0.8; stroke-dashoffset: 0; stroke: #b2b2b2; stroke-width: 0.5"/>
     </g>
     <g id="line2d_8">
      <g>
       <use xlink:href="#m45524001c0" x="202.500164" y="307.584" style="stroke: #000000; stroke-width: 0.8"/>
      </g>
     </g>
     <g id="text_4">
      <!-- 0.75 -->
      <g transform="translate(191.367352 318.682437) scale(0.1 -0.1)">
       <defs>
        <path id="DejaVuSans-37" d="M 525 4666 
L 3525 4666 
L 3525 4397 
L 1831 0 
L 1172 0 
L 2766 4134 
L 525 4134 
L 525 4666 
z
" transform="scale(0.015625)"/>
       </defs>
       <use xlink:href="#DejaVuSans-30"/>
       <use xlink:href="#DejaVuSans-2e" x="63.623047"/>
       <use xlink:href="#DejaVuSans-37" x="95.410156"/>
       <use xlink:href="#DejaVuSans-35" x="159.033203"/>
      </g>
     </g>
    </g>
    <g id="xtick_5">
     <g id="line2d_9">
      <path d="M 245.38931 307.584 
L 245.38931 41.472 
" clip-path="url(#p50ffd5e96d)" style="fill: none; stroke-dasharray: 1.85,0.8; stroke-dashoffset: 0; stroke: #b2b2b2; stroke-width: 0.5"/>
     </g>
     <g id="line2d_10">
      <g>
       <use xlink:href="#m45524001c0" x="245.38931" y="307.584" style="stroke: #000000; stroke-width: 0.8"/>
      </g>
     </g>
     <g id="text_5">
      <!-- 1.00 -->
      <g transform="translate(234.256497 318.682437) scale(0.1 -0.1)">
       <defs>
        <path id="DejaVuSans-31" d="M 794 531 
L 1825 531 
L 1825 4091 
L 703 3866 
L 703 4441 
L 1819 4666 
L 2450 4666 
L 2450 531 
L 3481 531 
L 3481 0 
L 794 0 
L 794 531 
z
" transform="scale(0.015625)"/>
       </defs>
       <use xlink:href="#DejaVuSans-31"/>
       <use xlink:href="#DejaVuSans-2e" x="63.623047"/>
       <use xlink:href="#DejaVuSans-30" x="95.410156"/>
       <use xlink:href="#DejaVuSans-30" x="159.033203"/>
      </g>
     </g>
    </g>
    <g id="xtick_6">
     <g id="line2d_11">
      <path d="M 288.278455 307.584 
L 288.278455 41.472 
" clip-path="url(#p50ffd5e96d)" style="fill: none; stroke-dasharray: 1.85,0.8; stroke-dashoffset: 0; stroke: #b2b2b2; stroke-width: 0.5"/>
     </g>
     <g id="line2d_12">
      <g>
       <use xlink:href="#m45524001c0" x="288.278455" y="307.584" style="stroke: #000000; stroke-width: 0.8"/>
      </g>
     </g>
     <g id="text_6">
      <!-- 1.25 -->
      <g transform="translate(277.145643 318.682437) scale(0.1 -0.1)">
       <use xlink:href="#DejaVuSans-31"/>
       <use xlink:href="#DejaVuSans-2e" x="63.623047"/>
       <use xlink:href="#DejaVuSans-32" x="95.410156"/>
       <use xlink:href="#DejaVuSans-35" x="159.033203"/>
      </g>
     </g>
    </g>
    <g id="xtick_7">
     <g id="line2d_13">
      <path d="M 331.167601 307.584 
L 331.167601 41.472 
" clip-path="url(#p50ffd5e96d)" style="fill: none; stroke-dasharray: 1.85,0.8; stroke-dashoffset: 0; stroke: #b2b2b2; stroke-width: 0.5"/>
     </g>
     <g id="line2d_14">
      <g>
       <use xlink:href="#m45524001c0" x="331.167601" y="307.584" style="stroke: #000000; stroke-width: 0.8"/>
      </g>
     </g>
     <g id="text_7">
      <!-- 1.50 -->
      <g transform="translate(320.034789 318.682437) scale(0.1 -0.1)">
       <use xlink:href="#DejaVuSans-31"/>
       <use xlink:href="#DejaVuSans-2e" x="63.623047"/>
       <use xlink:href="#DejaVuSans-35" x="95.410156"/>
       <use xlink:href="#DejaVuSans-30" x="159.033203"/>
      </g>
     </g>
    </g>
    <g id="xtick_8">
     <g id="line2d_15">
      <path d="M 374.056747 307.584 
L 374.056747 41.472 
" clip-path="url(#p50ffd5e96d)" style="fill: none; stroke-dasharray: 1.85,0.8; stroke-dashoffset: 0; stroke: #b2b2b2; stroke-width: 0.5"/>
     </g>
     <g id="line2d_16">
      <g>
       <use xlink:href="#m45524001c0" x="374.056747" y="307.584" style="stroke: #000000; stroke-width: 0.8"/>
      </g>
     </g>
     <g id="text_8">
      <!-- 1.75 -->
      <g transform="translate(362.923934 318.682437) scale(0.1 -0.1)">
       <use xlink:href="#DejaVuSans-31"/>
       <use xlink:href="#DejaVuSans-2e" x="63.623047"/>
       <use xlink:href="#DejaVuSans-37" x="95.410156"/>
       <use xlink:href="#DejaVuSans-35" x="159.033203"/>
      </g>
     </g>
    </g>
    <g id="text_9">
     <!-- $s/s_c$ -->
     <g transform="translate(225.3 333.762125) scale(0.12 -0.12)">
      <defs>
       <path id="Cmmi10-73" d="M 556 391 
Q 728 97 1247 97 
Q 1472 97 1675 173 
Q 1878 250 2011 403 
Q 2144 556 2144 775 
Q 2144 941 2025 1047 
Q 1906 1153 1734 1191 
L 1388 1259 
Q 1150 1319 997 1481 
Q 844 1644 844 1875 
Q 844 2159 998 2378 
Q 1153 2597 1406 2712 
Q 1659 2828 1931 2828 
Q 2222 2828 2451 2689 
Q 2681 2550 2681 2278 
Q 2681 2131 2598 2018 
Q 2516 1906 2369 1906 
Q 2284 1906 2223 1961 
Q 2163 2016 2163 2100 
Q 2163 2175 2205 2245 
Q 2247 2316 2317 2358 
Q 2388 2400 2463 2400 
Q 2406 2538 2251 2600 
Q 2097 2663 1919 2663 
Q 1756 2663 1593 2597 
Q 1431 2531 1332 2404 
Q 1234 2278 1234 2106 
Q 1234 1991 1315 1903 
Q 1397 1816 1516 1778 
L 1888 1703 
Q 2066 1666 2214 1570 
Q 2363 1475 2448 1329 
Q 2534 1184 2534 997 
Q 2534 759 2401 528 
Q 2269 297 2075 159 
Q 1734 -72 1241 -72 
Q 900 -72 615 84 
Q 331 241 331 550 
Q 331 725 432 854 
Q 534 984 709 984 
Q 813 984 883 921 
Q 953 859 953 756 
Q 953 609 843 500 
Q 734 391 588 391 
L 556 391 
z
" transform="scale(0.015625)"/>
       <path id="Cmmi10-3d" d="M 359 -1472 
Q 359 -1453 366 -1447 
L 2591 4722 
Q 2603 4759 2634 4779 
Q 2666 4800 2706 4800 
Q 2763 4800 2798 4765 
Q 2834 4731 2834 4672 
L 2834 4647 
L 609 -1522 
Q 572 -1600 488 -1600 
Q 434 -1600 396 -1562 
Q 359 -1525 359 -1472 
z
" transform="scale(0.015625)"/>
       <path id="Cmmi10-63" d="M 750 763 
Q 750 484 892 290 
Q 1034 97 1300 97 
Q 1681 97 2032 272 
Q 2384 447 2606 756 
Q 2625 775 2656 775 
Q 2688 775 2720 739 
Q 2753 703 2753 672 
Q 2753 647 2741 634 
Q 2506 306 2109 117 
Q 1713 -72 1288 -72 
Q 981 -72 747 73 
Q 513 219 384 462 
Q 256 706 256 1013 
Q 256 1444 497 1869 
Q 738 2294 1138 2561 
Q 1538 2828 1978 2828 
Q 2266 2828 2495 2689 
Q 2725 2550 2725 2278 
Q 2725 2103 2623 1979 
Q 2522 1856 2350 1856 
Q 2247 1856 2176 1920 
Q 2106 1984 2106 2088 
Q 2106 2238 2215 2344 
Q 2325 2450 2472 2450 
L 2484 2450 
Q 2409 2559 2267 2611 
Q 2125 2663 1972 2663 
Q 1597 2663 1315 2342 
Q 1034 2022 892 1576 
Q 750 1131 750 763 
z
" transform="scale(0.015625)"/>
      </defs>
      <use xlink:href="#Cmmi10-73"/>
      <use xlink:href="#Cmmi10-3d" transform="translate(46.777344 0)"/>
      <use xlink:href="#Cmmi10-73" transform="translate(96.777344 0)"/>
      <use xlink:href="#Cmmi10-63" transform="translate(143.554688 -17.00625) scale(0.7)"/>
     </g>
    </g>
   </g>
   <g id="matplotlib.axis_2">
    <g id="ytick_1">
     <g id="line2d_17">
      <path d="M 57.6 287.410435 
L 414.72 287.410435 
" clip-path="url(#p50ffd5e96d)" style="fill: none; stroke-dasharray: 1.85,0.8; stroke-dashoffset: 0; stroke: #b2b2b2; stroke-width: 0.5"/>
     </g>
     <g id="line2d_18">
      <defs>
       <path id="m64334a802f" d="M 0 0 
L 3.5 0 
" style="stroke: #000000; stroke-width: 0.8"/>
      </defs>
      <g>
       <use xlink:href="#m64334a802f" x="57.6" y="287.410435" style="stroke: #000000; stroke-width: 0.8"/>
      </g>
     </g>
     <g id="text_10">
      <!-- 0.1 -->
      <g transform="translate(38.196875 291.209654) scale(0.1 -0.1)">
       <use xlink:href="#DejaVuSans-30"/>
       <use xlink:href="#DejaVuSans-2e" x="63.623047"/>
       <use xlink:href="#DejaVuSans-31" x="95.410156"/>
      </g>
     </g>
    </g>
    <g id="ytick_2">
     <g id="line2d_19">
      <path d="M 57.6 256.561883 
L 414.72 256.561883 
" clip-path="url(#p50ffd5e96d)" style="fill: none; stroke-dasharray: 1.85,0.8; stroke-dashoffset: 0; stroke: #b2b2b2; stroke-width: 0.5"/>
     </g>
     <g id="line2d_20">
      <g>
       <use xlink:href="#m64334a802f" x="57.6" y="256.561883" style="stroke: #000000; stroke-width: 0.8"/>
      </g>
     </g>
     <g id="text_11">
      <!-- 0.2 -->
      <g transform="translate(38.196875 260.361102) scale(0.1 -0.1)">
       <use xlink:href="#DejaVuSans-30"/>
       <use xlink:href="#DejaVuSans-2e" x="63.623047"/>
       <use xlink:href="#DejaVuSans-32" x="95.410156"/>
      </g>
     </g>
    </g>
    <g id="ytick_3">
     <g id="line2d_21">
      <path d="M 57.6 225.713331 
L 414.72 225.713331 
" clip-path="url(#p50ffd5e96d)" style="fill: none; stroke-dasharray: 1.85,0.8; stroke-dashoffset: 0; stroke: #b2b2b2; stroke-width: 0.5"/>
     </g>
     <g id="line2d_22">
      <g>
       <use xlink:href="#m64334a802f" x="57.6" y="225.713331" style="stroke: #000000; stroke-width: 0.8"/>
      </g>
     </g>
     <g id="text_12">
      <!-- 0.3 -->
      <g transform="translate(38.196875 229.51255) scale(0.1 -0.1)">
       <defs>
        <path id="DejaVuSans-33" d="M 2597 2516 
Q 3050 2419 3304 2112 
Q 3559 1806 3559 1356 
Q 3559 666 3084 287 
Q 2609 -91 1734 -91 
Q 1441 -91 1130 -33 
Q 819 25 488 141 
L 488 750 
Q 750 597 1062 519 
Q 1375 441 1716 441 
Q 2309 441 2620 675 
Q 2931 909 2931 1356 
Q 2931 1769 2642 2001 
Q 2353 2234 1838 2234 
L 1294 2234 
L 1294 2753 
L 1863 2753 
Q 2328 2753 2575 2939 
Q 2822 3125 2822 3475 
Q 2822 3834 2567 4026 
Q 2313 4219 1838 4219 
Q 1578 4219 1281 4162 
Q 984 4106 628 3988 
L 628 4550 
Q 988 4650 1302 4700 
Q 1616 4750 1894 4750 
Q 2613 4750 3031 4423 
Q 3450 4097 3450 3541 
Q 3450 3153 3228 2886 
Q 3006 2619 2597 2516 
z
" transform="scale(0.015625)"/>
       </defs>
       <use xlink:href="#DejaVuSans-30"/>
       <use xlink:href="#DejaVuSans-2e" x="63.623047"/>
       <use xlink:href="#DejaVuSans-33" x="95.410156"/>
      </g>
     </g>
    </g>
    <g id="ytick_4">
     <g id="line2d_23">
      <path d="M 57.6 194.864779 
L 414.72 194.864779 
" clip-path="url(#p50ffd5e96d)" style="fill: none; stroke-dasharray: 1.85,0.8; stroke-dashoffset: 0; stroke: #b2b2b2; stroke-width: 0.5"/>
     </g>
     <g id="line2d_24">
      <g>
       <use xlink:href="#m64334a802f" x="57.6" y="194.864779" style="stroke: #000000; stroke-width: 0.8"/>
      </g>
     </g>
     <g id="text_13">
      <!-- 0.4 -->
      <g transform="translate(38.196875 198.663998) scale(0.1 -0.1)">
       <defs>
        <path id="DejaVuSans-34" d="M 2419 4116 
L 825 1625 
L 2419 1625 
L 2419 4116 
z
M 2253 4666 
L 3047 4666 
L 3047 1625 
L 3713 1625 
L 3713 1100 
L 3047 1100 
L 3047 0 
L 2419 0 
L 2419 1100 
L 313 1100 
L 313 1709 
L 2253 4666 
z
" transform="scale(0.015625)"/>
       </defs>
       <use xlink:href="#DejaVuSans-30"/>
       <use xlink:href="#DejaVuSans-2e" x="63.623047"/>
       <use xlink:href="#DejaVuSans-34" x="95.410156"/>
      </g>
     </g>
    </g>
    <g id="ytick_5">
     <g id="line2d_25">
      <path d="M 57.6 164.016227 
L 414.72 164.016227 
" clip-path="url(#p50ffd5e96d)" style="fill: none; stroke-dasharray: 1.85,0.8; stroke-dashoffset: 0; stroke: #b2b2b2; stroke-width: 0.5"/>
     </g>
     <g id="line2d_26">
      <g>
       <use xlink:href="#m64334a802f" x="57.6" y="164.016227" style="stroke: #000000; stroke-width: 0.8"/>
      </g>
     </g>
     <g id="text_14">
      <!-- 0.5 -->
      <g transform="translate(38.196875 167.815446) scale(0.1 -0.1)">
       <use xlink:href="#DejaVuSans-30"/>
       <use xlink:href="#DejaVuSans-2e" x="63.623047"/>
       <use xlink:href="#DejaVuSans-35" x="95.410156"/>
      </g>
     </g>
    </g>
    <g id="ytick_6">
     <g id="line2d_27">
      <path d="M 57.6 133.167675 
L 414.72 133.167675 
" clip-path="url(#p50ffd5e96d)" style="fill: none; stroke-dasharray: 1.85,0.8; stroke-dashoffset: 0; stroke: #b2b2b2; stroke-width: 0.5"/>
     </g>
     <g id="line2d_28">
      <g>
       <use xlink:href="#m64334a802f" x="57.6" y="133.167675" style="stroke: #000000; stroke-width: 0.8"/>
      </g>
     </g>
     <g id="text_15">
      <!-- 0.6 -->
      <g transform="translate(38.196875 136.966894) scale(0.1 -0.1)">
       <defs>
        <path id="DejaVuSans-36" d="M 2113 2584 
Q 1688 2584 1439 2293 
Q 1191 2003 1191 1497 
Q 1191 994 1439 701 
Q 1688 409 2113 409 
Q 2538 409 2786 701 
Q 3034 994 3034 1497 
Q 3034 2003 2786 2293 
Q 2538 2584 2113 2584 
z
M 3366 4563 
L 3366 3988 
Q 3128 4100 2886 4159 
Q 2644 4219 2406 4219 
Q 1781 4219 1451 3797 
Q 1122 3375 1075 2522 
Q 1259 2794 1537 2939 
Q 1816 3084 2150 3084 
Q 2853 3084 3261 2657 
Q 3669 2231 3669 1497 
Q 3669 778 3244 343 
Q 2819 -91 2113 -91 
Q 1303 -91 875 529 
Q 447 1150 447 2328 
Q 447 3434 972 4092 
Q 1497 4750 2381 4750 
Q 2619 4750 2861 4703 
Q 3103 4656 3366 4563 
z
" transform="scale(0.015625)"/>
       </defs>
       <use xlink:href="#DejaVuSans-30"/>
       <use xlink:href="#DejaVuSans-2e" x="63.623047"/>
       <use xlink:href="#DejaVuSans-36" x="95.410156"/>
      </g>
     </g>
    </g>
    <g id="ytick_7">
     <g id="line2d_29">
      <path d="M 57.6 102.319123 
L 414.72 102.319123 
" clip-path="url(#p50ffd5e96d)" style="fill: none; stroke-dasharray: 1.85,0.8; stroke-dashoffset: 0; stroke: #b2b2b2; stroke-width: 0.5"/>
     </g>
     <g id="line2d_30">
      <g>
       <use xlink:href="#m64334a802f" x="57.6" y="102.319123" style="stroke: #000000; stroke-width: 0.8"/>
      </g>
     </g>
     <g id="text_16">
      <!-- 0.7 -->
      <g transform="translate(38.196875 106.118341) scale(0.1 -0.1)">
       <use xlink:href="#DejaVuSans-30"/>
       <use xlink:href="#DejaVuSans-2e" x="63.623047"/>
       <use xlink:href="#DejaVuSans-37" x="95.410156"/>
      </g>
     </g>
    </g>
    <g id="ytick_8">
     <g id="line2d_31">
      <path d="M 57.6 71.470571 
L 414.72 71.470571 
" clip-path="url(#p50ffd5e96d)" style="fill: none; stroke-dasharray: 1.85,0.8; stroke-dashoffset: 0; stroke: #b2b2b2; stroke-width: 0.5"/>
     </g>
     <g id="line2d_32">
      <g>
       <use xlink:href="#m64334a802f" x="57.6" y="71.470571" style="stroke: #000000; stroke-width: 0.8"/>
      </g>
     </g>
     <g id="text_17">
      <!-- 0.8 -->
      <g transform="translate(38.196875 75.269789) scale(0.1 -0.1)">
       <defs>
        <path id="DejaVuSans-38" d="M 2034 2216 
Q 1584 2216 1326 1975 
Q 1069 1734 1069 1313 
Q 1069 891 1326 650 
Q 1584 409 2034 409 
Q 2484 409 2743 651 
Q 3003 894 3003 1313 
Q 3003 1734 2745 1975 
Q 2488 2216 2034 2216 
z
M 1403 2484 
Q 997 2584 770 2862 
Q 544 3141 544 3541 
Q 544 4100 942 4425 
Q 1341 4750 2034 4750 
Q 2731 4750 3128 4425 
Q 3525 4100 3525 3541 
Q 3525 3141 3298 2862 
Q 3072 2584 2669 2484 
Q 3125 2378 3379 2068 
Q 3634 1759 3634 1313 
Q 3634 634 3220 271 
Q 2806 -91 2034 -91 
Q 1263 -91 848 271 
Q 434 634 434 1313 
Q 434 1759 690 2068 
Q 947 2378 1403 2484 
z
M 1172 3481 
Q 1172 3119 1398 2916 
Q 1625 2713 2034 2713 
Q 2441 2713 2670 2916 
Q 2900 3119 2900 3481 
Q 2900 3844 2670 4047 
Q 2441 4250 2034 4250 
Q 1625 4250 1398 4047 
Q 1172 3844 1172 3481 
z
" transform="scale(0.015625)"/>
       </defs>
       <use xlink:href="#DejaVuSans-30"/>
       <use xlink:href="#DejaVuSans-2e" x="63.623047"/>
       <use xlink:href="#DejaVuSans-38" x="95.410156"/>
      </g>
     </g>
    </g>
    <g id="text_18">
     <!-- $D_{s}$ -->
     <g transform="translate(31.70125 181.848) rotate(-90) scale(0.12 -0.12)">
      <defs>
       <path id="Cmmi10-44" d="M 313 0 
Q 250 0 250 84 
Q 253 100 262 139 
Q 272 178 289 201 
Q 306 225 331 225 
Q 722 225 878 269 
Q 959 297 997 441 
L 1875 3956 
Q 1888 4019 1888 4044 
Q 1888 4113 1813 4122 
Q 1691 4147 1350 4147 
Q 1288 4147 1288 4231 
Q 1291 4247 1300 4286 
Q 1309 4325 1326 4348 
Q 1344 4372 1369 4372 
L 3669 4372 
Q 4116 4372 4450 4155 
Q 4784 3938 4962 3570 
Q 5141 3203 5141 2759 
Q 5141 2269 4937 1778 
Q 4734 1288 4368 881 
Q 4003 475 3534 237 
Q 3066 0 2572 0 
L 313 0 
z
M 1509 275 
Q 1509 225 1728 225 
L 2472 225 
Q 2828 225 3159 372 
Q 3491 519 3750 775 
Q 3991 1016 4175 1406 
Q 4359 1797 4461 2222 
Q 4563 2647 4563 3003 
Q 4563 3263 4486 3472 
Q 4409 3681 4270 3831 
Q 4131 3981 3922 4064 
Q 3713 4147 3450 4147 
L 2747 4147 
Q 2572 4147 2515 4117 
Q 2459 4088 2413 3928 
L 1538 416 
Q 1509 338 1509 275 
z
" transform="scale(0.015625)"/>
      </defs>
      <use xlink:href="#Cmmi10-44" transform="translate(0 0.6875)"/>
      <use xlink:href="#Cmmi10-73" transform="translate(82.714844 -16.31875) scale(0.7)"/>
     </g>
    </g>
   </g>
   <g id="line2d_33">
    <path d="M 73.832727 140.083849 
L 74.918528 144.585386 
L 77.090131 151.589961 
L 78.175932 153.894077 
L 79.261733 156.767473 
L 80.347534 158.676267 
L 81.433335 161.409811 
L 82.519137 163.561706 
L 83.604938 165.989738 
L 84.690739 167.314816 
L 85.77654 169.627336 
L 86.862341 174.231604 
L 87.948142 177.963147 
L 89.033943 178.466459 
L 90.119745 180.60533 
L 91.205546 183.725318 
L 92.291347 185.168509 
L 93.377148 186.420959 
L 94.462949 188.932901 
L 95.54875 189.273941 
L 96.634552 189.89947 
L 97.720353 191.155596 
L 98.806154 193.443417 
L 99.891955 194.456679 
L 100.977756 194.826522 
L 102.063557 195.70747 
L 103.149358 198.250141 
L 104.23516 199.910877 
L 105.320961 204.499399 
L 106.406762 206.366688 
L 107.492563 207.336084 
L 108.578364 209.848948 
L 109.664165 205.655581 
L 110.749967 205.803977 
L 111.835768 208.071213 
L 112.921569 211.120072 
L 114.00737 215.028705 
L 115.093171 218.32661 
L 116.178972 218.354789 
L 117.264773 218.751066 
L 118.350575 215.733091 
L 119.436376 217.304223 
L 120.522177 216.702128 
L 121.607978 215.052285 
L 122.693779 215.578098 
L 123.77958 216.282144 
L 124.865382 221.89408 
L 125.951183 223.155277 
L 127.036984 225.768485 
L 128.122785 226.177863 
L 129.208586 224.435019 
L 130.294387 225.678731 
L 131.380189 221.313834 
L 132.46599 219.922979 
L 133.551791 219.711518 
L 134.637592 223.930853 
L 135.723393 223.416069 
L 136.809194 220.04393 
L 137.894995 220.935678 
L 140.066598 223.288427 
L 141.152399 224.639234 
L 142.2382 222.902392 
L 143.324001 221.807085 
L 144.409802 226.258777 
L 145.495604 229.708727 
L 146.581405 225.65829 
L 147.667206 225.708828 
L 148.753007 224.65474 
L 149.838808 226.664936 
L 150.924609 224.43114 
L 152.01041 218.684615 
L 153.096212 217.138417 
L 154.182013 217.382537 
L 155.267814 221.023231 
L 156.353615 225.424577 
L 157.439416 220.351501 
L 158.525217 217.794756 
L 159.611019 220.161285 
L 160.69682 215.086711 
L 161.782621 212.413354 
L 162.868422 204.798046 
L 163.954223 204.689485 
L 165.040024 202.327034 
L 166.125825 206.159865 
L 167.211627 204.703098 
L 168.297428 201.116256 
L 169.383229 197.075319 
L 170.46903 199.847897 
L 171.554831 192.405299 
L 172.640632 193.900164 
L 173.726434 197.653159 
L 174.812235 193.593521 
L 175.898036 190.967306 
L 176.983837 191.234915 
L 178.069638 198.269059 
L 179.155439 194.323595 
L 180.24124 192.898375 
L 181.327042 191.162219 
L 182.412843 190.504191 
L 183.498644 196.198139 
L 184.584445 197.763677 
L 185.670246 195.497692 
L 186.756047 194.971172 
L 187.841849 195.17911 
L 188.92765 198.432655 
L 191.099252 210.37251 
L 192.185053 202.668272 
L 193.270854 202.42489 
L 194.356656 209.259521 
L 195.442457 207.094366 
L 196.528258 202.383232 
L 197.614059 203.524093 
L 198.69986 202.932422 
L 199.785661 212.259701 
L 200.871462 211.152754 
L 201.957264 211.974978 
L 203.043065 211.832649 
L 204.128866 211.271422 
L 205.214667 209.123519 
L 206.300468 202.602199 
L 208.472071 195.111031 
L 210.643673 190.906268 
L 211.729474 195.733266 
L 212.815275 199.664078 
L 213.901076 200.197558 
L 214.986877 195.213264 
L 216.072679 196.601001 
L 217.15848 195.214395 
L 218.244281 191.420723 
L 219.330082 189.890178 
L 220.415883 195.650519 
L 221.501684 192.636214 
L 223.673287 181.094571 
L 224.759088 184.765729 
L 225.844889 184.55703 
L 226.93069 186.212443 
L 228.016491 185.889877 
L 229.102292 188.822343 
L 230.188094 188.811165 
L 231.273895 196.061766 
L 232.359696 191.690202 
L 233.445497 189.967996 
L 234.531298 195.174356 
L 235.617099 190.198275 
L 236.702901 193.650721 
L 237.788702 194.442072 
L 238.874503 198.577164 
L 239.960304 197.684568 
L 241.046105 193.413024 
L 242.131906 194.598156 
L 243.217708 199.90584 
L 244.303509 196.071339 
L 245.38931 199.937227 
L 246.475111 199.03374 
L 248.646713 205.611047 
L 249.732514 207.941125 
L 250.818316 203.338455 
L 251.904117 202.579129 
L 252.989918 204.520183 
L 255.16152 200.946002 
L 256.247321 202.851302 
L 257.333123 200.845869 
L 258.418924 196.446505 
L 259.504725 189.98068 
L 260.590526 196.642423 
L 261.676327 200.154716 
L 262.762128 211.127091 
L 263.847929 213.988787 
L 264.933731 216.428669 
L 266.019532 213.479081 
L 267.105333 216.353758 
L 268.191134 224.965232 
L 269.276935 227.923444 
L 270.362736 232.175018 
L 271.448538 234.646278 
L 272.534339 234.185976 
L 273.62014 232.171849 
L 274.705941 231.088047 
L 275.791742 219.400772 
L 276.877543 217.181891 
L 277.963344 221.21097 
L 281.220748 240.412778 
L 282.306549 231.327213 
L 283.39235 235.533877 
L 286.649754 243.099466 
L 287.735555 247.019809 
L 288.821356 241.660793 
L 289.907157 245.270013 
L 290.992958 251.381272 
L 292.07876 251.173092 
L 293.164561 248.688071 
L 294.250362 248.601478 
L 295.336163 241.215956 
L 296.421964 238.571001 
L 297.507765 240.664112 
L 298.593566 242.408237 
L 299.679368 238.600454 
L 300.765169 238.936624 
L 302.936771 243.071621 
L 304.022572 244.544295 
L 305.108373 241.214868 
L 306.194175 239.018726 
L 307.279976 237.79398 
L 308.365777 232.186354 
L 309.451578 229.08349 
L 310.537379 231.070259 
L 311.62318 238.302696 
L 312.708981 231.475403 
L 313.794783 239.339599 
L 314.880584 240.845864 
L 315.966385 240.4634 
L 317.052186 246.473899 
L 318.137987 247.228021 
L 319.223788 254.2351 
L 321.395391 257.230239 
L 322.481192 257.030216 
L 323.566993 264.257726 
L 324.652794 260.3276 
L 325.738595 262.644196 
L 326.824396 261.738633 
L 327.910198 264.588177 
L 328.995999 262.041726 
L 330.0818 263.390114 
L 331.167601 252.803862 
L 332.253402 255.341307 
L 333.339203 252.357742 
L 334.425005 254.010203 
L 335.510806 258.820749 
L 336.596607 259.357875 
L 337.682408 252.078537 
L 338.768209 255.186147 
L 339.85401 255.055662 
L 340.939811 252.31276 
L 342.025613 257.228806 
L 343.111414 254.002493 
L 345.283016 262.281697 
L 346.368817 263.426985 
L 347.454618 270.51157 
L 348.54042 267.330743 
L 349.626221 269.641859 
L 350.712022 274.173331 
L 351.797823 276.200335 
L 352.883624 277.582561 
L 353.969425 278.600621 
L 355.055227 277.674265 
L 356.141028 279.299863 
L 357.226829 272.485576 
L 358.31263 269.223526 
L 359.398431 267.113823 
L 360.484232 266.891342 
L 361.570033 270.411636 
L 362.655835 273.510184 
L 363.741636 271.298375 
L 364.827437 273.273424 
L 366.999039 280.728784 
L 368.08484 283.130937 
L 369.170642 280.571299 
L 370.256443 283.780842 
L 371.342244 287.65442 
L 372.428045 290.938005 
L 373.513846 288.852379 
L 374.599647 288.072016 
L 375.685448 290.348004 
L 376.77125 289.29545 
L 377.857051 290.04442 
L 378.942852 289.845345 
L 380.028653 289.079595 
L 381.114454 291.803306 
L 382.200255 291.614136 
L 383.286057 290.704438 
L 384.371858 291.371546 
L 385.457659 295.202885 
L 386.54346 293.005974 
L 387.629261 295.488 
L 388.715062 291.990087 
L 389.800863 288.878485 
L 390.886665 286.917502 
L 391.972466 292.124309 
L 393.058267 292.704686 
L 394.144068 286.881882 
L 395.229869 295.23402 
L 396.31567 293.58841 
L 397.401472 290.11863 
L 398.487273 287.554913 
L 398.487273 287.554913 
" clip-path="url(#p50ffd5e96d)" style="fill: none; stroke: #0000ff; stroke-width: 2; stroke-linecap: square"/>
   </g>
   <g id="line2d_34">
    <path d="M 73.832727 53.568 
L 74.918528 60.698119 
L 77.090131 72.062007 
L 80.347534 86.060218 
L 82.519137 94.459913 
L 83.604938 97.236955 
L 84.690739 103.109898 
L 85.77654 104.876736 
L 86.862341 107.004316 
L 87.948142 108.117607 
L 89.033943 112.657594 
L 90.119745 114.5066 
L 91.205546 118.199632 
L 92.291347 121.442248 
L 95.54875 128.549709 
L 96.634552 135.588848 
L 97.720353 138.37655 
L 98.806154 142.621565 
L 99.891955 144.358823 
L 100.977756 142.822566 
L 102.063557 148.837414 
L 103.149358 152.226735 
L 104.23516 154.314869 
L 105.320961 160.550376 
L 106.406762 158.99582 
L 107.492563 161.904936 
L 108.578364 165.884422 
L 109.664165 171.19762 
L 110.749967 173.540826 
L 111.835768 173.960792 
L 112.921569 175.425347 
L 114.00737 179.526961 
L 115.093171 181.437985 
L 116.178972 180.201845 
L 117.264773 183.336436 
L 118.350575 183.584454 
L 119.436376 183.653891 
L 120.522177 183.329607 
L 121.607978 185.479167 
L 122.693779 184.7658 
L 123.77958 183.803744 
L 124.865382 184.579682 
L 125.951183 187.330447 
L 127.036984 189.183322 
L 128.122785 189.752461 
L 129.208586 188.372233 
L 130.294387 187.901508 
L 131.380189 186.75937 
L 132.46599 187.612149 
L 133.551791 182.128914 
L 134.637592 180.104785 
L 135.723393 179.837059 
L 136.809194 181.688308 
L 137.894995 179.800777 
L 138.980797 179.136778 
L 140.066598 175.239427 
L 141.152399 175.007894 
L 142.2382 176.028114 
L 143.324001 174.183983 
L 144.409802 178.606072 
L 145.495604 182.113606 
L 146.581405 182.435949 
L 147.667206 188.873314 
L 148.753007 187.536089 
L 149.838808 188.70612 
L 150.924609 182.881725 
L 152.01041 180.593043 
L 154.182013 182.185681 
L 155.267814 183.797009 
L 156.353615 180.536795 
L 157.439416 176.271074 
L 158.525217 182.177023 
L 159.611019 186.634188 
L 160.69682 190.281245 
L 161.782621 190.612083 
L 162.868422 196.114663 
L 163.954223 198.162876 
L 165.040024 196.671888 
L 166.125825 201.527718 
L 167.211627 201.631408 
L 168.297428 204.30679 
L 169.383229 199.371601 
L 170.46903 197.355247 
L 171.554831 200.543113 
L 172.640632 195.270647 
L 173.726434 199.683374 
L 174.812235 199.856595 
L 175.898036 195.851585 
L 176.983837 197.723853 
L 179.155439 200.899141 
L 180.24124 201.865059 
L 181.327042 199.830718 
L 182.412843 198.844616 
L 183.498644 191.009127 
L 184.584445 189.103078 
L 185.670246 189.21258 
L 187.841849 185.506252 
L 188.92765 184.175606 
L 190.013451 181.132211 
L 191.099252 185.140647 
L 192.185053 185.416349 
L 193.270854 187.411117 
L 194.356656 190.09497 
L 195.442457 190.468776 
L 196.528258 186.065479 
L 198.69986 182.774286 
L 200.871462 172.770932 
L 201.957264 173.971633 
L 203.043065 171.637787 
L 204.128866 170.31431 
L 205.214667 167.496621 
L 206.300468 172.475079 
L 207.386269 180.297577 
L 208.472071 179.179872 
L 209.557872 177.361362 
L 210.643673 177.169155 
L 211.729474 174.272844 
L 212.815275 168.823086 
L 213.901076 169.809977 
L 214.986877 169.885819 
L 216.072679 161.837674 
L 218.244281 155.090575 
L 219.330082 156.261409 
L 220.415883 149.535723 
L 221.501684 151.789131 
L 222.587486 148.202859 
L 223.673287 143.963815 
L 224.759088 143.586827 
L 225.844889 144.598182 
L 226.93069 147.122665 
L 228.016491 143.796266 
L 229.102292 147.701541 
L 230.188094 142.624513 
L 232.359696 157.591802 
L 233.445497 159.22675 
L 234.531298 164.280036 
L 235.617099 159.536147 
L 236.702901 156.031164 
L 237.788702 156.835081 
L 238.874503 156.399179 
L 239.960304 158.208329 
L 241.046105 159.189923 
L 242.131906 158.652489 
L 243.217708 158.946099 
L 244.303509 161.709086 
L 245.38931 160.806084 
L 246.475111 162.694923 
L 247.560912 161.980038 
L 248.646713 159.703773 
L 249.732514 159.545233 
L 250.818316 161.935387 
L 251.904117 162.47407 
L 252.989918 162.529653 
L 254.075719 155.644946 
L 255.16152 155.876256 
L 256.247321 162.6772 
L 257.333123 162.737807 
L 258.418924 159.782355 
L 259.504725 159.310758 
L 260.590526 168.747144 
L 261.676327 166.70527 
L 262.762128 166.016029 
L 263.847929 171.287153 
L 264.933731 167.936187 
L 266.019532 157.97011 
L 267.105333 163.973229 
L 269.276935 158.801174 
L 270.362736 151.97243 
L 271.448538 153.776564 
L 272.534339 159.248794 
L 273.62014 167.668253 
L 274.705941 160.06691 
L 275.791742 147.99526 
L 276.877543 149.931306 
L 277.963344 152.141312 
L 279.049146 149.678718 
L 280.134947 155.505595 
L 281.220748 152.737958 
L 282.306549 150.657831 
L 283.39235 152.698702 
L 284.478151 147.908968 
L 285.563953 148.864666 
L 286.649754 151.309698 
L 287.735555 154.934168 
L 288.821356 153.389928 
L 289.907157 148.704532 
L 290.992958 155.053175 
L 292.07876 152.768921 
L 294.250362 163.581471 
L 297.507765 185.837823 
L 298.593566 191.821716 
L 299.679368 194.236992 
L 300.765169 187.105151 
L 301.85097 181.390028 
L 302.936771 182.158721 
L 304.022572 188.803752 
L 305.108373 191.769841 
L 306.194175 198.644151 
L 307.279976 196.481182 
L 308.365777 198.960212 
L 309.451578 206.291841 
L 310.537379 203.111604 
L 311.62318 203.772203 
L 312.708981 207.604409 
L 313.794783 211.021419 
L 314.880584 210.518451 
L 315.966385 207.931661 
L 317.052186 211.425649 
L 318.137987 215.38838 
L 319.223788 219.81084 
L 320.30959 219.205418 
L 321.395391 219.131613 
L 322.481192 222.071634 
L 323.566993 222.584493 
L 324.652794 227.848908 
L 325.738595 222.302647 
L 327.910198 231.065135 
L 328.995999 234.227473 
L 330.0818 233.994391 
L 331.167601 241.053572 
L 332.253402 241.055204 
L 333.339203 238.413548 
L 334.425005 239.481642 
L 335.510806 237.887342 
L 336.596607 240.947307 
L 337.682408 241.766294 
L 339.85401 249.06131 
L 340.939811 248.00395 
L 342.025613 248.913535 
L 343.111414 248.309302 
L 344.197215 247.224854 
L 345.283016 250.639625 
L 346.368817 248.690023 
L 347.454618 241.678484 
L 348.54042 247.550891 
L 349.626221 245.946322 
L 350.712022 246.704564 
L 351.797823 247.184659 
L 352.883624 244.025464 
L 353.969425 250.569402 
L 355.055227 252.714331 
L 356.141028 252.86875 
L 357.226829 258.20904 
L 358.31263 262.501273 
L 359.398431 263.725957 
L 360.484232 259.600146 
L 361.570033 263.087024 
L 362.655835 268.831983 
L 363.741636 265.786707 
L 364.827437 264.104347 
L 365.913238 267.279244 
L 366.999039 269.948704 
L 368.08484 268.767286 
L 369.170642 271.334524 
L 370.256443 270.136965 
L 371.342244 273.833854 
L 372.428045 274.668413 
L 373.513846 275.01873 
L 374.599647 270.734729 
L 375.685448 270.430657 
L 376.77125 269.631108 
L 377.857051 271.267523 
L 378.942852 275.176706 
L 380.028653 271.733267 
L 381.114454 270.16523 
L 382.200255 266.241487 
L 383.286057 268.349334 
L 384.371858 270.820607 
L 385.457659 274.266403 
L 386.54346 275.540789 
L 387.629261 278.401811 
L 388.715062 279.73896 
L 389.800863 283.207395 
L 390.886665 289.209333 
L 391.972466 293.823195 
L 393.058267 293.619744 
L 394.144068 288.582227 
L 395.229869 293.733314 
L 396.31567 292.239491 
L 397.401472 292.171437 
L 398.487273 289.425955 
L 398.487273 289.425955 
" clip-path="url(#p50ffd5e96d)" style="fill: none; stroke: #008000; stroke-width: 2; stroke-linecap: square"/>
   </g>
   <g id="patch_3">
    <path d="M 57.6 307.584 
L 57.6 41.472 
" style="fill: none; stroke: #bcbcbc; stroke-width: 0.8; stroke-linejoin: miter; stroke-linecap: square"/>
   </g>
   <g id="patch_4">
    <path d="M 414.72 307.584 
L 414.72 41.472 
" style="fill: none; stroke: #bcbcbc; stroke-width: 0.8; stroke-linejoin: miter; stroke-linecap: square"/>
   </g>
   <g id="patch_5">
    <path d="M 57.6 307.584 
L 414.72 307.584 
" style="fill: none; stroke: #bcbcbc; stroke-width: 0.8; stroke-linejoin: miter; stroke-linecap: square"/>
   </g>
   <g id="patch_6">
    <path d="M 57.6 41.472 
L 414.72 41.472 
" style="fill: none; stroke: #bcbcbc; stroke-width: 0.8; stroke-linejoin: miter; stroke-linecap: square"/>
   </g>
   <g id="text_19">
    <!-- Correlations with n = 200 -->
    <g transform="translate(143.94375 35.472) scale(0.144 -0.144)">
     <defs>
      <path id="DejaVuSans-43" d="M 4122 4306 
L 4122 3641 
Q 3803 3938 3442 4084 
Q 3081 4231 2675 4231 
Q 1875 4231 1450 3742 
Q 1025 3253 1025 2328 
Q 1025 1406 1450 917 
Q 1875 428 2675 428 
Q 3081 428 3442 575 
Q 3803 722 4122 1019 
L 4122 359 
Q 3791 134 3420 21 
Q 3050 -91 2638 -91 
Q 1578 -91 968 557 
Q 359 1206 359 2328 
Q 359 3453 968 4101 
Q 1578 4750 2638 4750 
Q 3056 4750 3426 4639 
Q 3797 4528 4122 4306 
z
" transform="scale(0.015625)"/>
      <path id="DejaVuSans-6f" d="M 1959 3097 
Q 1497 3097 1228 2736 
Q 959 2375 959 1747 
Q 959 1119 1226 758 
Q 1494 397 1959 397 
Q 2419 397 2687 759 
Q 2956 1122 2956 1747 
Q 2956 2369 2687 2733 
Q 2419 3097 1959 3097 
z
M 1959 3584 
Q 2709 3584 3137 3096 
Q 3566 2609 3566 1747 
Q 3566 888 3137 398 
Q 2709 -91 1959 -91 
Q 1206 -91 779 398 
Q 353 888 353 1747 
Q 353 2609 779 3096 
Q 1206 3584 1959 3584 
z
" transform="scale(0.015625)"/>
      <path id="DejaVuSans-72" d="M 2631 2963 
Q 2534 3019 2420 3045 
Q 2306 3072 2169 3072 
Q 1681 3072 1420 2755 
Q 1159 2438 1159 1844 
L 1159 0 
L 581 0 
L 581 3500 
L 1159 3500 
L 1159 2956 
Q 1341 3275 1631 3429 
Q 1922 3584 2338 3584 
Q 2397 3584 2469 3576 
Q 2541 3569 2628 3553 
L 2631 2963 
z
" transform="scale(0.015625)"/>
      <path id="DejaVuSans-65" d="M 3597 1894 
L 3597 1613 
L 953 1613 
Q 991 1019 1311 708 
Q 1631 397 2203 397 
Q 2534 397 2845 478 
Q 3156 559 3463 722 
L 3463 178 
Q 3153 47 2828 -22 
Q 2503 -91 2169 -91 
Q 1331 -91 842 396 
Q 353 884 353 1716 
Q 353 2575 817 3079 
Q 1281 3584 2069 3584 
Q 2775 3584 3186 3129 
Q 3597 2675 3597 1894 
z
M 3022 2063 
Q 3016 2534 2758 2815 
Q 2500 3097 2075 3097 
Q 1594 3097 1305 2825 
Q 1016 2553 972 2059 
L 3022 2063 
z
" transform="scale(0.015625)"/>
      <path id="DejaVuSans-6c" d="M 603 4863 
L 1178 4863 
L 1178 0 
L 603 0 
L 603 4863 
z
" transform="scale(0.015625)"/>
      <path id="DejaVuSans-61" d="M 2194 1759 
Q 1497 1759 1228 1600 
Q 959 1441 959 1056 
Q 959 750 1161 570 
Q 1363 391 1709 391 
Q 2188 391 2477 730 
Q 2766 1069 2766 1631 
L 2766 1759 
L 2194 1759 
z
M 3341 1997 
L 3341 0 
L 2766 0 
L 2766 531 
Q 2569 213 2275 61 
Q 1981 -91 1556 -91 
Q 1019 -91 701 211 
Q 384 513 384 1019 
Q 384 1609 779 1909 
Q 1175 2209 1959 2209 
L 2766 2209 
L 2766 2266 
Q 2766 2663 2505 2880 
Q 2244 3097 1772 3097 
Q 1472 3097 1187 3025 
Q 903 2953 641 2809 
L 641 3341 
Q 956 3463 1253 3523 
Q 1550 3584 1831 3584 
Q 2591 3584 2966 3190 
Q 3341 2797 3341 1997 
z
" transform="scale(0.015625)"/>
      <path id="DejaVuSans-74" d="M 1172 4494 
L 1172 3500 
L 2356 3500 
L 2356 3053 
L 1172 3053 
L 1172 1153 
Q 1172 725 1289 603 
Q 1406 481 1766 481 
L 2356 481 
L 2356 0 
L 1766 0 
Q 1100 0 847 248 
Q 594 497 594 1153 
L 594 3053 
L 172 3053 
L 172 3500 
L 594 3500 
L 594 4494 
L 1172 4494 
z
" transform="scale(0.015625)"/>
      <path id="DejaVuSans-69" d="M 603 3500 
L 1178 3500 
L 1178 0 
L 603 0 
L 603 3500 
z
M 603 4863 
L 1178 4863 
L 1178 4134 
L 603 4134 
L 603 4863 
z
" transform="scale(0.015625)"/>
      <path id="DejaVuSans-6e" d="M 3513 2113 
L 3513 0 
L 2938 0 
L 2938 2094 
Q 2938 2591 2744 2837 
Q 2550 3084 2163 3084 
Q 1697 3084 1428 2787 
Q 1159 2491 1159 1978 
L 1159 0 
L 581 0 
L 581 3500 
L 1159 3500 
L 1159 2956 
Q 1366 3272 1645 3428 
Q 1925 3584 2291 3584 
Q 2894 3584 3203 3211 
Q 3513 2838 3513 2113 
z
" transform="scale(0.015625)"/>
      <path id="DejaVuSans-73" d="M 2834 3397 
L 2834 2853 
Q 2591 2978 2328 3040 
Q 2066 3103 1784 3103 
Q 1356 3103 1142 2972 
Q 928 2841 928 2578 
Q 928 2378 1081 2264 
Q 1234 2150 1697 2047 
L 1894 2003 
Q 2506 1872 2764 1633 
Q 3022 1394 3022 966 
Q 3022 478 2636 193 
Q 2250 -91 1575 -91 
Q 1294 -91 989 -36 
Q 684 19 347 128 
L 347 722 
Q 666 556 975 473 
Q 1284 391 1588 391 
Q 1994 391 2212 530 
Q 2431 669 2431 922 
Q 2431 1156 2273 1281 
Q 2116 1406 1581 1522 
L 1381 1569 
Q 847 1681 609 1914 
Q 372 2147 372 2553 
Q 372 3047 722 3315 
Q 1072 3584 1716 3584 
Q 2034 3584 2315 3537 
Q 2597 3491 2834 3397 
z
" transform="scale(0.015625)"/>
      <path id="DejaVuSans-20" transform="scale(0.015625)"/>
      <path id="DejaVuSans-77" d="M 269 3500 
L 844 3500 
L 1563 769 
L 2278 3500 
L 2956 3500 
L 3675 769 
L 4391 3500 
L 4966 3500 
L 4050 0 
L 3372 0 
L 2619 2869 
L 1863 0 
L 1184 0 
L 269 3500 
z
" transform="scale(0.015625)"/>
      <path id="DejaVuSans-68" d="M 3513 2113 
L 3513 0 
L 2938 0 
L 2938 2094 
Q 2938 2591 2744 2837 
Q 2550 3084 2163 3084 
Q 1697 3084 1428 2787 
Q 1159 2491 1159 1978 
L 1159 0 
L 581 0 
L 581 4863 
L 1159 4863 
L 1159 2956 
Q 1366 3272 1645 3428 
Q 1925 3584 2291 3584 
Q 2894 3584 3203 3211 
Q 3513 2838 3513 2113 
z
" transform="scale(0.015625)"/>
      <path id="DejaVuSans-3d" d="M 678 2906 
L 4684 2906 
L 4684 2381 
L 678 2381 
L 678 2906 
z
M 678 1631 
L 4684 1631 
L 4684 1100 
L 678 1100 
L 678 1631 
z
" transform="scale(0.015625)"/>
     </defs>
     <use xlink:href="#DejaVuSans-43"/>
     <use xlink:href="#DejaVuSans-6f" x="69.824219"/>
     <use xlink:href="#DejaVuSans-72" x="131.005859"/>
     <use xlink:href="#DejaVuSans-72" x="170.369141"/>
     <use xlink:href="#DejaVuSans-65" x="209.232422"/>
     <use xlink:href="#DejaVuSans-6c" x="270.755859"/>
     <use xlink:href="#DejaVuSans-61" x="298.539062"/>
     <use xlink:href="#DejaVuSans-74" x="359.818359"/>
     <use xlink:href="#DejaVuSans-69" x="399.027344"/>
     <use xlink:href="#DejaVuSans-6f" x="426.810547"/>
     <use xlink:href="#DejaVuSans-6e" x="487.992188"/>
     <use xlink:href="#DejaVuSans-73" x="551.371094"/>
     <use xlink:href="#DejaVuSans-20" x="603.470703"/>
     <use xlink:href="#DejaVuSans-77" x="635.257812"/>
     <use xlink:href="#DejaVuSans-69" x="717.044922"/>
     <use xlink:href="#DejaVuSans-74" x="744.828125"/>
     <use xlink:href="#DejaVuSans-68" x="784.037109"/>
     <use xlink:href="#DejaVuSans-20" x="847.416016"/>
     <use xlink:href="#DejaVuSans-6e" x="879.203125"/>
     <use xlink:href="#DejaVuSans-20" x="942.582031"/>
     <use xlink:href="#DejaVuSans-3d" x="974.369141"/>
     <use xlink:href="#DejaVuSans-20" x="1058.158203"/>
     <use xlink:href="#DejaVuSans-32" x="1089.945312"/>
     <use xlink:href="#DejaVuSans-30" x="1153.568359"/>
     <use xlink:href="#DejaVuSans-30" x="1217.191406"/>
    </g>
   </g>
  </g>
 </g>
 <defs>
  <clipPath id="p50ffd5e96d">
   <rect x="57.6" y="41.472" width="357.12" height="266.112"/>
  </clipPath>
 </defs>
</svg>
