<?xml version="1.0" encoding="utf-8" standalone="no"?>
<!DOCTYPE svg PUBLIC "-//W3C//DTD SVG 1.1//EN"
  "http://www.w3.org/Graphics/SVG/1.1/DTD/svg11.dtd">
<svg xmlns:xlink="http://www.w3.org/1999/xlink" width="460.8pt" height="345.6pt" viewBox="0 0 460.8 345.6" xmlns="http://www.w3.org/2000/svg" version="1.1">
 <metadata>
  <rdf:RDF xmlns:dc="http://purl.org/dc/elements/1.1/" xmlns:cc="http://creativecommons.org/ns#" xmlns:rdf="http://www.w3.org/1999/02/22-rdf-syntax-ns#">
   <cc:Work>
    <dc:type rdf:resource="http://purl.org/dc/dcmitype/StillImage"/>
    <dc:date>2025-10-13T13:43:19.445834</dc:date>
    <dc:format>image/svg+xml</dc:format>
    <dc:creator>
     <cc:Agent>
      <dc:title>Matplotlib v3.10.5, https://matplotlib.org/</dc:title>
     </cc:Agent>
    </dc:creator>
   </cc:Work>
  </rdf:RDF>
 </metadata>
 <defs>
  <style type="text/css">*{stroke-linejoin: round; stroke-linecap: butt}</style>
 </defs>
 <g id="figure_1">
  <g id="patch_1">
   <path d="M 0 345.6 
L 460.8 345.6 
L 460.8 0 
L 0 0 
z
" style="fill: #ffffff"/>
  </g>
  <g id="axes_1">
   <g id="patch_2">
    <path d="M 57.6 307.584 
L 414.72 307.584 
L 414.72 41.472 
L 57.6 41.472 
z
" style="fill: #eeeeee"/>
   </g>
   <g id="matplotlib.axis_1">
    <g id="xtick_1">
     <g id="line2d_1">
      <path d="M 73.832727 307.584 
L 73.832727 41.472 
" clip-path="url(#p74c65c4fd9)" style="fill: none; stroke-dasharray: 1.85,0.8; stroke-dashoffset: 0; stroke: #b2b2b2; stroke-width: 0.5"/>
     </g>
     <g id="line2d_2">
      <defs>
       <path id="md73f7c0811" d="M 0 0 
L 0 -3.5 
" style="stroke: #000000; stroke-width: 0.8"/>
      </defs>
      <g>
       <use xlink:href="#md73f7c0811" x="73.832727" y="307.584" style="stroke: #000000; stroke-width: 0.8"/>
      </g>
     </g>
     <g id="text_1">
      <!-- 0.00 -->
      <g transform="translate(62.699915 318.682437) scale(0.1 -0.1)">
       <defs>
        <path id="DejaVuSans-30" d="M 2034 4250 
Q 1547 4250 1301 3770 
Q 1056 3291 1056 2328 
Q 1056 1369 1301 889 
Q 1547 409 2034 409 
Q 2525 409 2770 889 
Q 3016 1369 3016 2328 
Q 3016 3291 2770 3770 
Q 2525 4250 2034 4250 
z
M 2034 4750 
Q 2819 4750 3233 4129 
Q 3647 3509 3647 2328 
Q 3647 1150 3233 529 
Q 2819 -91 2034 -91 
Q 1250 -91 836 529 
Q 422 1150 422 2328 
Q 422 3509 836 4129 
Q 1250 4750 2034 4750 
z
" transform="scale(0.015625)"/>
        <path id="DejaVuSans-2e" d="M 684 794 
L 1344 794 
L 1344 0 
L 684 0 
L 684 794 
z
" transform="scale(0.015625)"/>
       </defs>
       <use xlink:href="#DejaVuSans-30"/>
       <use xlink:href="#DejaVuSans-2e" transform="translate(63.623047 0)"/>
       <use xlink:href="#DejaVuSans-30" transform="translate(95.410156 0)"/>
       <use xlink:href="#DejaVuSans-30" transform="translate(159.033203 0)"/>
      </g>
     </g>
    </g>
    <g id="xtick_2">
     <g id="line2d_3">
      <path d="M 116.721873 307.584 
L 116.721873 41.472 
" clip-path="url(#p74c65c4fd9)" style="fill: none; stroke-dasharray: 1.85,0.8; stroke-dashoffset: 0; stroke: #b2b2b2; stroke-width: 0.5"/>
     </g>
     <g id="line2d_4">
      <g>
       <use xlink:href="#md73f7c0811" x="116.721873" y="307.584" style="stroke: #000000; stroke-width: 0.8"/>
      </g>
     </g>
     <g id="text_2">
      <!-- 0.25 -->
      <g transform="translate(105.58906 318.682437) scale(0.1 -0.1)">
       <defs>
        <path id="DejaVuSans-32" d="M 1228 531 
L 3431 531 
L 3431 0 
L 469 0 
L 469 531 
Q 828 903 1448 1529 
Q 2069 2156 2228 2338 
Q 2531 2678 2651 2914 
Q 2772 3150 2772 3378 
Q 2772 3750 2511 3984 
Q 2250 4219 1831 4219 
Q 1534 4219 1204 4116 
Q 875 4013 500 3803 
L 500 4441 
Q 881 4594 1212 4672 
Q 1544 4750 1819 4750 
Q 2544 4750 2975 4387 
Q 3406 4025 3406 3419 
Q 3406 3131 3298 2873 
Q 3191 2616 2906 2266 
Q 2828 2175 2409 1742 
Q 1991 1309 1228 531 
z
" transform="scale(0.015625)"/>
        <path id="DejaVuSans-35" d="M 691 4666 
L 3169 4666 
L 3169 4134 
L 1269 4134 
L 1269 2991 
Q 1406 3038 1543 3061 
Q 1681 3084 1819 3084 
Q 2600 3084 3056 2656 
Q 3513 2228 3513 1497 
Q 3513 744 3044 326 
Q 2575 -91 1722 -91 
Q 1428 -91 1123 -41 
Q 819 9 494 109 
L 494 744 
Q 775 591 1075 516 
Q 1375 441 1709 441 
Q 2250 441 2565 725 
Q 2881 1009 2881 1497 
Q 2881 1984 2565 2268 
Q 2250 2553 1709 2553 
Q 1456 2553 1204 2497 
Q 953 2441 691 2322 
L 691 4666 
z
" transform="scale(0.015625)"/>
       </defs>
       <use xlink:href="#DejaVuSans-30"/>
       <use xlink:href="#DejaVuSans-2e" transform="translate(63.623047 0)"/>
       <use xlink:href="#DejaVuSans-32" transform="translate(95.410156 0)"/>
       <use xlink:href="#DejaVuSans-35" transform="translate(159.033203 0)"/>
      </g>
     </g>
    </g>
    <g id="xtick_3">
     <g id="line2d_5">
      <path d="M 159.611019 307.584 
L 159.611019 41.472 
" clip-path="url(#p74c65c4fd9)" style="fill: none; stroke-dasharray: 1.85,0.8; stroke-dashoffset: 0; stroke: #b2b2b2; stroke-width: 0.5"/>
     </g>
     <g id="line2d_6">
      <g>
       <use xlink:href="#md73f7c0811" x="159.611019" y="307.584" style="stroke: #000000; stroke-width: 0.8"/>
      </g>
     </g>
     <g id="text_3">
      <!-- 0.50 -->
      <g transform="translate(148.478206 318.682437) scale(0.1 -0.1)">
       <use xlink:href="#DejaVuSans-30"/>
       <use xlink:href="#DejaVuSans-2e" transform="translate(63.623047 0)"/>
       <use xlink:href="#DejaVuSans-35" transform="translate(95.410156 0)"/>
       <use xlink:href="#DejaVuSans-30" transform="translate(159.033203 0)"/>
      </g>
     </g>
    </g>
    <g id="xtick_4">
     <g id="line2d_7">
      <path d="M 202.500164 307.584 
L 202.500164 41.472 
" clip-path="url(#p74c65c4fd9)" style="fill: none; stroke-dasharray: 1.85,0.8; stroke-dashoffset: 0; stroke: #b2b2b2; stroke-width: 0.5"/>
     </g>
     <g id="line2d_8">
      <g>
       <use xlink:href="#md73f7c0811" x="202.500164" y="307.584" style="stroke: #000000; stroke-width: 0.8"/>
      </g>
     </g>
     <g id="text_4">
      <!-- 0.75 -->
      <g transform="translate(191.367352 318.682437) scale(0.1 -0.1)">
       <defs>
        <path id="DejaVuSans-37" d="M 525 4666 
L 3525 4666 
L 3525 4397 
L 1831 0 
L 1172 0 
L 2766 4134 
L 525 4134 
L 525 4666 
z
" transform="scale(0.015625)"/>
       </defs>
       <use xlink:href="#DejaVuSans-30"/>
       <use xlink:href="#DejaVuSans-2e" transform="translate(63.623047 0)"/>
       <use xlink:href="#DejaVuSans-37" transform="translate(95.410156 0)"/>
       <use xlink:href="#DejaVuSans-35" transform="translate(159.033203 0)"/>
      </g>
     </g>
    </g>
    <g id="xtick_5">
     <g id="line2d_9">
      <path d="M 245.38931 307.584 
L 245.38931 41.472 
" clip-path="url(#p74c65c4fd9)" style="fill: none; stroke-dasharray: 1.85,0.8; stroke-dashoffset: 0; stroke: #b2b2b2; stroke-width: 0.5"/>
     </g>
     <g id="line2d_10">
      <g>
       <use xlink:href="#md73f7c0811" x="245.38931" y="307.584" style="stroke: #000000; stroke-width: 0.8"/>
      </g>
     </g>
     <g id="text_5">
      <!-- 1.00 -->
      <g transform="translate(234.256497 318.682437) scale(0.1 -0.1)">
       <defs>
        <path id="DejaVuSans-31" d="M 794 531 
L 1825 531 
L 1825 4091 
L 703 3866 
L 703 4441 
L 1819 4666 
L 2450 4666 
L 2450 531 
L 3481 531 
L 3481 0 
L 794 0 
L 794 531 
z
" transform="scale(0.015625)"/>
       </defs>
       <use xlink:href="#DejaVuSans-31"/>
       <use xlink:href="#DejaVuSans-2e" transform="translate(63.623047 0)"/>
       <use xlink:href="#DejaVuSans-30" transform="translate(95.410156 0)"/>
       <use xlink:href="#DejaVuSans-30" transform="translate(159.033203 0)"/>
      </g>
     </g>
    </g>
    <g id="xtick_6">
     <g id="line2d_11">
      <path d="M 288.278455 307.584 
L 288.278455 41.472 
" clip-path="url(#p74c65c4fd9)" style="fill: none; stroke-dasharray: 1.85,0.8; stroke-dashoffset: 0; stroke: #b2b2b2; stroke-width: 0.5"/>
     </g>
     <g id="line2d_12">
      <g>
       <use xlink:href="#md73f7c0811" x="288.278455" y="307.584" style="stroke: #000000; stroke-width: 0.8"/>
      </g>
     </g>
     <g id="text_6">
      <!-- 1.25 -->
      <g transform="translate(277.145643 318.682437) scale(0.1 -0.1)">
       <use xlink:href="#DejaVuSans-31"/>
       <use xlink:href="#DejaVuSans-2e" transform="translate(63.623047 0)"/>
       <use xlink:href="#DejaVuSans-32" transform="translate(95.410156 0)"/>
       <use xlink:href="#DejaVuSans-35" transform="translate(159.033203 0)"/>
      </g>
     </g>
    </g>
    <g id="xtick_7">
     <g id="line2d_13">
      <path d="M 331.167601 307.584 
L 331.167601 41.472 
" clip-path="url(#p74c65c4fd9)" style="fill: none; stroke-dasharray: 1.85,0.8; stroke-dashoffset: 0; stroke: #b2b2b2; stroke-width: 0.5"/>
     </g>
     <g id="line2d_14">
      <g>
       <use xlink:href="#md73f7c0811" x="331.167601" y="307.584" style="stroke: #000000; stroke-width: 0.8"/>
      </g>
     </g>
     <g id="text_7">
      <!-- 1.50 -->
      <g transform="translate(320.034789 318.682437) scale(0.1 -0.1)">
       <use xlink:href="#DejaVuSans-31"/>
       <use xlink:href="#DejaVuSans-2e" transform="translate(63.623047 0)"/>
       <use xlink:href="#DejaVuSans-35" transform="translate(95.410156 0)"/>
       <use xlink:href="#DejaVuSans-30" transform="translate(159.033203 0)"/>
      </g>
     </g>
    </g>
    <g id="xtick_8">
     <g id="line2d_15">
      <path d="M 374.056747 307.584 
L 374.056747 41.472 
" clip-path="url(#p74c65c4fd9)" style="fill: none; stroke-dasharray: 1.85,0.8; stroke-dashoffset: 0; stroke: #b2b2b2; stroke-width: 0.5"/>
     </g>
     <g id="line2d_16">
      <g>
       <use xlink:href="#md73f7c0811" x="374.056747" y="307.584" style="stroke: #000000; stroke-width: 0.8"/>
      </g>
     </g>
     <g id="text_8">
      <!-- 1.75 -->
      <g transform="translate(362.923934 318.682437) scale(0.1 -0.1)">
       <use xlink:href="#DejaVuSans-31"/>
       <use xlink:href="#DejaVuSans-2e" transform="translate(63.623047 0)"/>
       <use xlink:href="#DejaVuSans-37" transform="translate(95.410156 0)"/>
       <use xlink:href="#DejaVuSans-35" transform="translate(159.033203 0)"/>
      </g>
     </g>
    </g>
    <g id="text_9">
     <!-- $s/s_c$ -->
     <g transform="translate(225.3 333.762125) scale(0.12 -0.12)">
      <defs>
       <path id="Cmmi10-73" d="M 556 391 
Q 728 97 1247 97 
Q 1472 97 1675 173 
Q 1878 250 2011 403 
Q 2144 556 2144 775 
Q 2144 941 2025 1047 
Q 1906 1153 1734 1191 
L 1388 1259 
Q 1150 1319 997 1481 
Q 844 1644 844 1875 
Q 844 2159 998 2378 
Q 1153 2597 1406 2712 
Q 1659 2828 1931 2828 
Q 2222 2828 2451 2689 
Q 2681 2550 2681 2278 
Q 2681 2131 2598 2018 
Q 2516 1906 2369 1906 
Q 2284 1906 2223 1961 
Q 2163 2016 2163 2100 
Q 2163 2175 2205 2245 
Q 2247 2316 2317 2358 
Q 2388 2400 2463 2400 
Q 2406 2538 2251 2600 
Q 2097 2663 1919 2663 
Q 1756 2663 1593 2597 
Q 1431 2531 1332 2404 
Q 1234 2278 1234 2106 
Q 1234 1991 1315 1903 
Q 1397 1816 1516 1778 
L 1888 1703 
Q 2066 1666 2214 1570 
Q 2363 1475 2448 1329 
Q 2534 1184 2534 997 
Q 2534 759 2401 528 
Q 2269 297 2075 159 
Q 1734 -72 1241 -72 
Q 900 -72 615 84 
Q 331 241 331 550 
Q 331 725 432 854 
Q 534 984 709 984 
Q 813 984 883 921 
Q 953 859 953 756 
Q 953 609 843 500 
Q 734 391 588 391 
L 556 391 
z
" transform="scale(0.015625)"/>
       <path id="Cmmi10-3d" d="M 359 -1472 
Q 359 -1453 366 -1447 
L 2591 4722 
Q 2603 4759 2634 4779 
Q 2666 4800 2706 4800 
Q 2763 4800 2798 4765 
Q 2834 4731 2834 4672 
L 2834 4647 
L 609 -1522 
Q 572 -1600 488 -1600 
Q 434 -1600 396 -1562 
Q 359 -1525 359 -1472 
z
" transform="scale(0.015625)"/>
       <path id="Cmmi10-63" d="M 750 763 
Q 750 484 892 290 
Q 1034 97 1300 97 
Q 1681 97 2032 272 
Q 2384 447 2606 756 
Q 2625 775 2656 775 
Q 2688 775 2720 739 
Q 2753 703 2753 672 
Q 2753 647 2741 634 
Q 2506 306 2109 117 
Q 1713 -72 1288 -72 
Q 981 -72 747 73 
Q 513 219 384 462 
Q 256 706 256 1013 
Q 256 1444 497 1869 
Q 738 2294 1138 2561 
Q 1538 2828 1978 2828 
Q 2266 2828 2495 2689 
Q 2725 2550 2725 2278 
Q 2725 2103 2623 1979 
Q 2522 1856 2350 1856 
Q 2247 1856 2176 1920 
Q 2106 1984 2106 2088 
Q 2106 2238 2215 2344 
Q 2325 2450 2472 2450 
L 2484 2450 
Q 2409 2559 2267 2611 
Q 2125 2663 1972 2663 
Q 1597 2663 1315 2342 
Q 1034 2022 892 1576 
Q 750 1131 750 763 
z
" transform="scale(0.015625)"/>
      </defs>
      <use xlink:href="#Cmmi10-73"/>
      <use xlink:href="#Cmmi10-3d" transform="translate(46.777344 0)"/>
      <use xlink:href="#Cmmi10-73" transform="translate(96.777344 0)"/>
      <use xlink:href="#Cmmi10-63" transform="translate(143.554688 -17.00625) scale(0.7)"/>
     </g>
    </g>
   </g>
   <g id="matplotlib.axis_2">
    <g id="ytick_1">
     <g id="line2d_17">
      <path d="M 57.6 295.498213 
L 414.72 295.498213 
" clip-path="url(#p74c65c4fd9)" style="fill: none; stroke-dasharray: 1.85,0.8; stroke-dashoffset: 0; stroke: #b2b2b2; stroke-width: 0.5"/>
     </g>
     <g id="line2d_18">
      <defs>
       <path id="m33a9d77c39" d="M 0 0 
L 3.5 0 
" style="stroke: #000000; stroke-width: 0.8"/>
      </defs>
      <g>
       <use xlink:href="#m33a9d77c39" x="57.6" y="295.498213" style="stroke: #000000; stroke-width: 0.8"/>
      </g>
     </g>
     <g id="text_10">
      <!-- 0.0 -->
      <g transform="translate(38.196875 299.297432) scale(0.1 -0.1)">
       <use xlink:href="#DejaVuSans-30"/>
       <use xlink:href="#DejaVuSans-2e" transform="translate(63.623047 0)"/>
       <use xlink:href="#DejaVuSans-30" transform="translate(95.410156 0)"/>
      </g>
     </g>
    </g>
    <g id="ytick_2">
     <g id="line2d_19">
      <path d="M 57.6 245.531269 
L 414.72 245.531269 
" clip-path="url(#p74c65c4fd9)" style="fill: none; stroke-dasharray: 1.85,0.8; stroke-dashoffset: 0; stroke: #b2b2b2; stroke-width: 0.5"/>
     </g>
     <g id="line2d_20">
      <g>
       <use xlink:href="#m33a9d77c39" x="57.6" y="245.531269" style="stroke: #000000; stroke-width: 0.8"/>
      </g>
     </g>
     <g id="text_11">
      <!-- 0.2 -->
      <g transform="translate(38.196875 249.330488) scale(0.1 -0.1)">
       <use xlink:href="#DejaVuSans-30"/>
       <use xlink:href="#DejaVuSans-2e" transform="translate(63.623047 0)"/>
       <use xlink:href="#DejaVuSans-32" transform="translate(95.410156 0)"/>
      </g>
     </g>
    </g>
    <g id="ytick_3">
     <g id="line2d_21">
      <path d="M 57.6 195.564325 
L 414.72 195.564325 
" clip-path="url(#p74c65c4fd9)" style="fill: none; stroke-dasharray: 1.85,0.8; stroke-dashoffset: 0; stroke: #b2b2b2; stroke-width: 0.5"/>
     </g>
     <g id="line2d_22">
      <g>
       <use xlink:href="#m33a9d77c39" x="57.6" y="195.564325" style="stroke: #000000; stroke-width: 0.8"/>
      </g>
     </g>
     <g id="text_12">
      <!-- 0.4 -->
      <g transform="translate(38.196875 199.363544) scale(0.1 -0.1)">
       <defs>
        <path id="DejaVuSans-34" d="M 2419 4116 
L 825 1625 
L 2419 1625 
L 2419 4116 
z
M 2253 4666 
L 3047 4666 
L 3047 1625 
L 3713 1625 
L 3713 1100 
L 3047 1100 
L 3047 0 
L 2419 0 
L 2419 1100 
L 313 1100 
L 313 1709 
L 2253 4666 
z
" transform="scale(0.015625)"/>
       </defs>
       <use xlink:href="#DejaVuSans-30"/>
       <use xlink:href="#DejaVuSans-2e" transform="translate(63.623047 0)"/>
       <use xlink:href="#DejaVuSans-34" transform="translate(95.410156 0)"/>
      </g>
     </g>
    </g>
    <g id="ytick_4">
     <g id="line2d_23">
      <path d="M 57.6 145.597382 
L 414.72 145.597382 
" clip-path="url(#p74c65c4fd9)" style="fill: none; stroke-dasharray: 1.85,0.8; stroke-dashoffset: 0; stroke: #b2b2b2; stroke-width: 0.5"/>
     </g>
     <g id="line2d_24">
      <g>
       <use xlink:href="#m33a9d77c39" x="57.6" y="145.597382" style="stroke: #000000; stroke-width: 0.8"/>
      </g>
     </g>
     <g id="text_13">
      <!-- 0.6 -->
      <g transform="translate(38.196875 149.3966) scale(0.1 -0.1)">
       <defs>
        <path id="DejaVuSans-36" d="M 2113 2584 
Q 1688 2584 1439 2293 
Q 1191 2003 1191 1497 
Q 1191 994 1439 701 
Q 1688 409 2113 409 
Q 2538 409 2786 701 
Q 3034 994 3034 1497 
Q 3034 2003 2786 2293 
Q 2538 2584 2113 2584 
z
M 3366 4563 
L 3366 3988 
Q 3128 4100 2886 4159 
Q 2644 4219 2406 4219 
Q 1781 4219 1451 3797 
Q 1122 3375 1075 2522 
Q 1259 2794 1537 2939 
Q 1816 3084 2150 3084 
Q 2853 3084 3261 2657 
Q 3669 2231 3669 1497 
Q 3669 778 3244 343 
Q 2819 -91 2113 -91 
Q 1303 -91 875 529 
Q 447 1150 447 2328 
Q 447 3434 972 4092 
Q 1497 4750 2381 4750 
Q 2619 4750 2861 4703 
Q 3103 4656 3366 4563 
z
" transform="scale(0.015625)"/>
       </defs>
       <use xlink:href="#DejaVuSans-30"/>
       <use xlink:href="#DejaVuSans-2e" transform="translate(63.623047 0)"/>
       <use xlink:href="#DejaVuSans-36" transform="translate(95.410156 0)"/>
      </g>
     </g>
    </g>
    <g id="ytick_5">
     <g id="line2d_25">
      <path d="M 57.6 95.630438 
L 414.72 95.630438 
" clip-path="url(#p74c65c4fd9)" style="fill: none; stroke-dasharray: 1.85,0.8; stroke-dashoffset: 0; stroke: #b2b2b2; stroke-width: 0.5"/>
     </g>
     <g id="line2d_26">
      <g>
       <use xlink:href="#m33a9d77c39" x="57.6" y="95.630438" style="stroke: #000000; stroke-width: 0.8"/>
      </g>
     </g>
     <g id="text_14">
      <!-- 0.8 -->
      <g transform="translate(38.196875 99.429657) scale(0.1 -0.1)">
       <defs>
        <path id="DejaVuSans-38" d="M 2034 2216 
Q 1584 2216 1326 1975 
Q 1069 1734 1069 1313 
Q 1069 891 1326 650 
Q 1584 409 2034 409 
Q 2484 409 2743 651 
Q 3003 894 3003 1313 
Q 3003 1734 2745 1975 
Q 2488 2216 2034 2216 
z
M 1403 2484 
Q 997 2584 770 2862 
Q 544 3141 544 3541 
Q 544 4100 942 4425 
Q 1341 4750 2034 4750 
Q 2731 4750 3128 4425 
Q 3525 4100 3525 3541 
Q 3525 3141 3298 2862 
Q 3072 2584 2669 2484 
Q 3125 2378 3379 2068 
Q 3634 1759 3634 1313 
Q 3634 634 3220 271 
Q 2806 -91 2034 -91 
Q 1263 -91 848 271 
Q 434 634 434 1313 
Q 434 1759 690 2068 
Q 947 2378 1403 2484 
z
M 1172 3481 
Q 1172 3119 1398 2916 
Q 1625 2713 2034 2713 
Q 2441 2713 2670 2916 
Q 2900 3119 2900 3481 
Q 2900 3844 2670 4047 
Q 2441 4250 2034 4250 
Q 1625 4250 1398 4047 
Q 1172 3844 1172 3481 
z
" transform="scale(0.015625)"/>
       </defs>
       <use xlink:href="#DejaVuSans-30"/>
       <use xlink:href="#DejaVuSans-2e" transform="translate(63.623047 0)"/>
       <use xlink:href="#DejaVuSans-38" transform="translate(95.410156 0)"/>
      </g>
     </g>
    </g>
    <g id="ytick_6">
     <g id="line2d_27">
      <path d="M 57.6 45.663494 
L 414.72 45.663494 
" clip-path="url(#p74c65c4fd9)" style="fill: none; stroke-dasharray: 1.85,0.8; stroke-dashoffset: 0; stroke: #b2b2b2; stroke-width: 0.5"/>
     </g>
     <g id="line2d_28">
      <g>
       <use xlink:href="#m33a9d77c39" x="57.6" y="45.663494" style="stroke: #000000; stroke-width: 0.8"/>
      </g>
     </g>
     <g id="text_15">
      <!-- 1.0 -->
      <g transform="translate(38.196875 49.462713) scale(0.1 -0.1)">
       <use xlink:href="#DejaVuSans-31"/>
       <use xlink:href="#DejaVuSans-2e" transform="translate(63.623047 0)"/>
       <use xlink:href="#DejaVuSans-30" transform="translate(95.410156 0)"/>
      </g>
     </g>
    </g>
    <g id="text_16">
     <!-- $D_{s}$ -->
     <g transform="translate(31.70125 181.848) rotate(-90) scale(0.12 -0.12)">
      <defs>
       <path id="Cmmi10-44" d="M 313 0 
Q 250 0 250 84 
Q 253 100 262 139 
Q 272 178 289 201 
Q 306 225 331 225 
Q 722 225 878 269 
Q 959 297 997 441 
L 1875 3956 
Q 1888 4019 1888 4044 
Q 1888 4113 1813 4122 
Q 1691 4147 1350 4147 
Q 1288 4147 1288 4231 
Q 1291 4247 1300 4286 
Q 1309 4325 1326 4348 
Q 1344 4372 1369 4372 
L 3669 4372 
Q 4116 4372 4450 4155 
Q 4784 3938 4962 3570 
Q 5141 3203 5141 2759 
Q 5141 2269 4937 1778 
Q 4734 1288 4368 881 
Q 4003 475 3534 237 
Q 3066 0 2572 0 
L 313 0 
z
M 1509 275 
Q 1509 225 1728 225 
L 2472 225 
Q 2828 225 3159 372 
Q 3491 519 3750 775 
Q 3991 1016 4175 1406 
Q 4359 1797 4461 2222 
Q 4563 2647 4563 3003 
Q 4563 3263 4486 3472 
Q 4409 3681 4270 3831 
Q 4131 3981 3922 4064 
Q 3713 4147 3450 4147 
L 2747 4147 
Q 2572 4147 2515 4117 
Q 2459 4088 2413 3928 
L 1538 416 
Q 1509 338 1509 275 
z
" transform="scale(0.015625)"/>
      </defs>
      <use xlink:href="#Cmmi10-44" transform="translate(0 0.6875)"/>
      <use xlink:href="#Cmmi10-73" transform="translate(82.714844 -16.31875) scale(0.7)"/>
     </g>
    </g>
   </g>
   <g id="line2d_29">
    <path d="M 73.832727 136.431572 
L 74.918528 130.994259 
L 76.00433 122.72554 
L 77.090131 120.271212 
L 78.175932 117.14086 
L 79.261733 117.082991 
L 80.347534 118.629933 
L 81.433335 117.768839 
L 82.519137 109.240487 
L 83.604938 110.571208 
L 84.690739 110.792407 
L 85.77654 107.342198 
L 86.862341 112.036193 
L 87.948142 121.137505 
L 89.033943 112.62875 
L 90.119745 102.156031 
L 91.205546 103.837402 
L 93.377148 89.411165 
L 94.462949 97.96741 
L 95.54875 94.793553 
L 96.634552 90.321021 
L 97.720353 95.863181 
L 98.806154 92.654707 
L 99.891955 94.60666 
L 100.977756 95.140955 
L 102.063557 85.128565 
L 103.149358 72.837299 
L 104.23516 70.397862 
L 106.406762 63.429874 
L 107.492563 54.662964 
L 108.578364 59.794767 
L 109.664165 60.762594 
L 110.749967 79.828771 
L 111.835768 77.340481 
L 112.921569 72.026299 
L 114.00737 63.968174 
L 115.093171 71.863709 
L 116.178972 64.332611 
L 117.264773 66.065377 
L 118.350575 61.149116 
L 119.436376 65.179206 
L 120.522177 67.464449 
L 121.607978 69.454578 
L 122.693779 73.225711 
L 123.77958 68.083622 
L 125.951183 74.945205 
L 127.036984 68.299685 
L 128.122785 60.48077 
L 129.208586 55.993671 
L 130.294387 58.569678 
L 131.380189 53.568 
L 132.46599 61.886273 
L 133.551791 61.903555 
L 134.637592 67.659577 
L 135.723393 68.185476 
L 136.809194 72.558835 
L 137.894995 73.786954 
L 138.980797 77.069462 
L 140.066598 63.55394 
L 141.152399 74.783452 
L 142.2382 82.043843 
L 143.324001 78.167016 
L 144.409802 82.447721 
L 145.495604 74.77336 
L 146.581405 71.717771 
L 147.667206 87.162839 
L 148.753007 94.583456 
L 149.838808 98.994017 
L 150.924609 108.74555 
L 152.01041 114.732052 
L 153.096212 122.485156 
L 154.182013 116.482067 
L 155.267814 119.067645 
L 156.353615 110.814865 
L 157.439416 107.759204 
L 159.611019 115.997633 
L 160.69682 119.631215 
L 161.782621 124.185206 
L 162.868422 124.883189 
L 163.954223 123.077155 
L 165.040024 125.037976 
L 166.125825 129.685816 
L 167.211627 131.33036 
L 168.297428 137.376872 
L 169.383229 135.976746 
L 170.46903 135.17684 
L 171.554831 137.559998 
L 172.640632 144.979695 
L 173.726434 154.691636 
L 174.812235 153.536611 
L 175.898036 156.051911 
L 176.983837 153.451951 
L 178.069638 153.499884 
L 179.155439 156.544183 
L 180.24124 157.353382 
L 181.327042 160.390987 
L 182.412843 162.873375 
L 183.498644 168.205925 
L 184.584445 169.184216 
L 185.670246 163.779043 
L 186.756047 165.470208 
L 187.841849 163.465928 
L 188.92765 171.60885 
L 190.013451 173.814774 
L 191.099252 172.405754 
L 192.185053 170.7232 
L 193.270854 168.176963 
L 194.356656 171.532433 
L 195.442457 176.441654 
L 196.528258 174.209069 
L 197.614059 172.806308 
L 198.69986 173.708987 
L 199.785661 168.823734 
L 200.871462 168.953075 
L 201.957264 171.937583 
L 203.043065 172.688963 
L 204.128866 176.14775 
L 205.214667 182.870801 
L 206.300468 185.68349 
L 207.386269 186.643855 
L 208.472071 189.674797 
L 209.557872 189.557363 
L 210.643673 194.479363 
L 211.729474 198.124818 
L 212.815275 199.118627 
L 213.901076 204.488215 
L 214.986877 206.999917 
L 216.072679 205.149464 
L 217.15848 204.105925 
L 218.244281 207.489499 
L 219.330082 205.796242 
L 220.415883 207.315833 
L 221.501684 210.660651 
L 222.587486 209.899798 
L 223.673287 210.243341 
L 224.759088 208.017011 
L 225.844889 208.123592 
L 226.93069 206.861705 
L 228.016491 207.694384 
L 229.102292 207.849807 
L 231.273895 218.376696 
L 232.359696 217.041067 
L 233.445497 219.428685 
L 234.531298 219.866475 
L 235.617099 218.415338 
L 236.702901 216.73553 
L 237.788702 220.426338 
L 238.874503 221.42171 
L 239.960304 221.559009 
L 241.046105 225.178685 
L 242.131906 225.499289 
L 243.217708 229.350294 
L 244.303509 234.620389 
L 245.38931 233.345443 
L 246.475111 234.923366 
L 247.560912 237.30537 
L 248.646713 240.154938 
L 249.732514 237.954329 
L 250.818316 236.683669 
L 251.904117 239.130931 
L 252.989918 240.853927 
L 254.075719 242.249552 
L 255.16152 243.154785 
L 256.247321 241.29747 
L 257.333123 241.707224 
L 258.418924 243.35281 
L 259.504725 244.773504 
L 260.590526 238.96441 
L 261.676327 240.577142 
L 262.762128 241.881171 
L 263.847929 240.853228 
L 264.933731 244.628447 
L 266.019532 243.947605 
L 267.105333 244.856063 
L 268.191134 246.435936 
L 269.276935 245.948044 
L 270.362736 247.335335 
L 271.448538 245.343189 
L 272.534339 246.095251 
L 273.62014 245.95541 
L 274.705941 244.550375 
L 277.963344 252.451439 
L 279.049146 253.319576 
L 281.220748 254.421804 
L 282.306549 254.504241 
L 283.39235 257.491558 
L 284.478151 258.877517 
L 285.563953 259.701794 
L 286.649754 258.210912 
L 287.735555 258.313204 
L 288.821356 261.93596 
L 289.907157 261.582392 
L 290.992958 260.81248 
L 292.07876 263.095013 
L 293.164561 262.704799 
L 294.250362 266.591921 
L 295.336163 268.586729 
L 296.421964 267.081993 
L 297.507765 269.803119 
L 300.765169 271.331953 
L 301.85097 272.752551 
L 302.936771 274.647846 
L 305.108373 273.104268 
L 306.194175 273.326983 
L 307.279976 275.254739 
L 308.365777 275.460471 
L 309.451578 275.37131 
L 310.537379 275.61597 
L 312.708981 276.67571 
L 313.794783 276.508361 
L 314.880584 277.123575 
L 317.052186 276.704149 
L 318.137987 278.865715 
L 319.223788 279.693684 
L 320.30959 279.168982 
L 322.481192 277.90434 
L 323.566993 277.867364 
L 324.652794 277.506339 
L 325.738595 278.531786 
L 326.824396 278.612905 
L 327.910198 279.483907 
L 328.995999 278.51981 
L 330.0818 278.326946 
L 331.167601 278.820013 
L 332.253402 279.086316 
L 333.339203 280.874224 
L 334.425005 281.845952 
L 335.510806 282.38051 
L 336.596607 283.083988 
L 337.682408 283.136258 
L 339.85401 285.09427 
L 340.939811 284.542066 
L 342.025613 284.432108 
L 343.111414 286.242773 
L 345.283016 287.213266 
L 346.368817 287.896799 
L 347.454618 287.518408 
L 348.54042 287.370232 
L 349.626221 287.667745 
L 350.712022 288.680463 
L 351.797823 288.957266 
L 352.883624 289.007884 
L 353.969425 289.221095 
L 355.055227 290.226825 
L 356.141028 290.644062 
L 357.226829 290.723348 
L 358.31263 290.630433 
L 359.398431 290.846617 
L 360.484232 291.465209 
L 361.570033 291.726029 
L 363.741636 291.989677 
L 364.827437 292.472935 
L 365.913238 292.724034 
L 366.999039 292.713116 
L 373.513846 293.577713 
L 374.599647 293.391703 
L 375.685448 293.655888 
L 377.857051 293.786592 
L 380.028653 294.17745 
L 382.200255 294.35473 
L 388.715062 295.110069 
L 393.058267 295.268437 
L 398.487273 295.488 
L 398.487273 295.488 
" clip-path="url(#p74c65c4fd9)" style="fill: none; stroke: #0000ff; stroke-width: 2; stroke-linecap: square"/>
   </g>
   <g id="line2d_30">
    <path d="M 73.832727 119.636901 
L 74.918528 108.001849 
L 76.00433 110.553242 
L 77.090131 101.976656 
L 78.175932 105.904818 
L 79.261733 114.231869 
L 80.347534 127.318975 
L 81.433335 122.675589 
L 82.519137 122.887057 
L 83.604938 115.691863 
L 84.690739 120.829071 
L 85.77654 119.007162 
L 86.862341 122.987245 
L 89.033943 120.507121 
L 90.119745 122.691047 
L 91.205546 114.990444 
L 92.291347 112.27213 
L 93.377148 117.667912 
L 94.462949 119.017783 
L 95.54875 106.790612 
L 96.634552 114.629252 
L 97.720353 114.02553 
L 98.806154 111.687558 
L 100.977756 105.161541 
L 102.063557 101.89813 
L 103.149358 99.895473 
L 104.23516 101.621028 
L 105.320961 95.779139 
L 107.492563 103.762818 
L 108.578364 109.689907 
L 109.664165 116.499534 
L 110.749967 105.483168 
L 111.835768 106.956748 
L 112.921569 113.474879 
L 114.00737 115.736747 
L 115.093171 112.509813 
L 116.178972 112.928516 
L 117.264773 112.444149 
L 118.350575 111.459613 
L 119.436376 119.750679 
L 120.522177 122.832015 
L 121.607978 115.445244 
L 122.693779 120.338811 
L 123.77958 115.409976 
L 124.865382 115.736463 
L 125.951183 113.521758 
L 127.036984 117.124064 
L 128.122785 130.296006 
L 129.208586 132.718621 
L 131.380189 140.042864 
L 132.46599 127.228996 
L 133.551791 131.441001 
L 134.637592 130.636621 
L 135.723393 127.507578 
L 136.809194 131.026401 
L 137.894995 135.608239 
L 138.980797 146.507029 
L 140.066598 142.683768 
L 141.152399 151.044985 
L 142.2382 148.719166 
L 143.324001 141.513004 
L 144.409802 133.333658 
L 145.495604 133.947767 
L 146.581405 138.316923 
L 147.667206 139.969824 
L 148.753007 138.123271 
L 149.838808 146.263929 
L 150.924609 148.894335 
L 152.01041 140.86541 
L 153.096212 142.521704 
L 154.182013 143.608311 
L 155.267814 151.04696 
L 156.353615 153.479803 
L 157.439416 153.415233 
L 158.525217 159.270788 
L 159.611019 159.559328 
L 160.69682 165.940533 
L 161.782621 168.207876 
L 162.868422 164.855649 
L 163.954223 168.567512 
L 165.040024 169.103958 
L 166.125825 164.304446 
L 167.211627 164.424413 
L 168.297428 160.217029 
L 169.383229 162.490683 
L 170.46903 166.875077 
L 171.554831 169.215404 
L 172.640632 159.124303 
L 173.726434 161.58416 
L 175.898036 172.695297 
L 176.983837 183.356742 
L 178.069638 184.574273 
L 179.155439 179.559945 
L 180.24124 177.309547 
L 181.327042 171.669467 
L 182.412843 167.097284 
L 183.498644 173.956121 
L 184.584445 179.271947 
L 185.670246 182.837471 
L 186.756047 184.752092 
L 187.841849 184.190801 
L 188.92765 191.029558 
L 190.013451 187.911064 
L 191.099252 187.548751 
L 192.185053 193.000016 
L 193.270854 191.224361 
L 194.356656 192.400012 
L 195.442457 190.385041 
L 196.528258 189.345353 
L 197.614059 191.18006 
L 198.69986 191.356653 
L 199.785661 197.115906 
L 200.871462 197.501128 
L 201.957264 200.261625 
L 203.043065 202.076389 
L 205.214667 207.427496 
L 206.300468 206.545262 
L 207.386269 202.402914 
L 208.472071 199.973782 
L 209.557872 200.068514 
L 210.643673 199.784631 
L 211.729474 199.67296 
L 212.815275 200.330551 
L 213.901076 202.8968 
L 214.986877 204.37389 
L 216.072679 205.408021 
L 217.15848 204.428511 
L 218.244281 201.650391 
L 219.330082 197.613413 
L 222.587486 190.953995 
L 223.673287 192.425898 
L 224.759088 193.63898 
L 225.844889 200.309719 
L 226.93069 199.428525 
L 228.016491 201.898584 
L 229.102292 199.298059 
L 230.188094 202.622659 
L 231.273895 203.189778 
L 232.359696 204.899214 
L 233.445497 205.106188 
L 234.531298 204.984838 
L 235.617099 207.857817 
L 236.702901 212.320024 
L 237.788702 215.095053 
L 238.874503 212.108782 
L 239.960304 212.776441 
L 241.046105 214.415024 
L 242.131906 217.615656 
L 243.217708 214.477848 
L 244.303509 217.418879 
L 245.38931 218.001722 
L 246.475111 219.551454 
L 247.560912 224.378561 
L 248.646713 230.833748 
L 249.732514 231.153405 
L 250.818316 235.639999 
L 251.904117 240.761568 
L 252.989918 237.744998 
L 254.075719 242.120171 
L 255.16152 242.700098 
L 256.247321 244.38478 
L 257.333123 243.541848 
L 258.418924 240.783876 
L 259.504725 243.932318 
L 260.590526 242.526752 
L 261.676327 244.727874 
L 262.762128 243.234075 
L 263.847929 247.808653 
L 264.933731 250.727046 
L 266.019532 250.586176 
L 267.105333 249.482451 
L 268.191134 252.636802 
L 269.276935 255.08972 
L 270.362736 256.88377 
L 271.448538 258.290511 
L 272.534339 259.150712 
L 273.62014 260.552808 
L 274.705941 263.700402 
L 275.791742 263.696395 
L 276.877543 261.484778 
L 277.963344 261.250016 
L 279.049146 261.956418 
L 280.134947 262.197179 
L 281.220748 264.711187 
L 282.306549 263.867453 
L 283.39235 266.266651 
L 284.478151 265.580762 
L 285.563953 267.176993 
L 286.649754 267.521273 
L 287.735555 267.699864 
L 288.821356 268.781555 
L 289.907157 268.995678 
L 290.992958 269.898363 
L 292.07876 268.338202 
L 293.164561 267.417504 
L 294.250362 269.086725 
L 295.336163 268.837472 
L 296.421964 268.198726 
L 297.507765 269.301537 
L 298.593566 268.008375 
L 299.679368 269.27213 
L 300.765169 272.037036 
L 301.85097 272.328582 
L 302.936771 272.073053 
L 304.022572 272.774057 
L 305.108373 274.726516 
L 306.194175 273.796446 
L 307.279976 273.407102 
L 308.365777 273.194131 
L 309.451578 273.406503 
L 310.537379 274.182095 
L 311.62318 275.575698 
L 312.708981 275.96601 
L 313.794783 275.797215 
L 314.880584 277.328394 
L 315.966385 277.241899 
L 317.052186 275.240168 
L 318.137987 275.536162 
L 319.223788 277.242429 
L 320.30959 278.175232 
L 321.395391 278.282177 
L 322.481192 277.799816 
L 323.566993 277.917613 
L 324.652794 277.41367 
L 326.824396 280.58071 
L 327.910198 279.592819 
L 333.339203 281.152875 
L 334.425005 283.462332 
L 335.510806 284.358899 
L 336.596607 284.08979 
L 337.682408 285.075129 
L 339.85401 284.54332 
L 340.939811 284.556353 
L 342.025613 285.750582 
L 343.111414 285.519251 
L 344.197215 284.973498 
L 345.283016 284.081564 
L 346.368817 284.224446 
L 347.454618 285.996867 
L 348.54042 285.786809 
L 349.626221 286.44718 
L 350.712022 287.514483 
L 351.797823 287.127653 
L 353.969425 287.84743 
L 355.055227 287.958678 
L 356.141028 289.090816 
L 357.226829 289.108735 
L 359.398431 289.913722 
L 360.484232 290.87678 
L 361.570033 291.136748 
L 362.655835 291.261546 
L 363.741636 291.54437 
L 364.827437 291.484188 
L 365.913238 292.025251 
L 366.999039 292.798953 
L 368.08484 293.031114 
L 369.170642 293.387123 
L 370.256443 293.295904 
L 372.428045 293.41306 
L 374.599647 293.824334 
L 377.857051 293.8136 
L 378.942852 293.953923 
L 380.028653 293.875981 
L 381.114454 294.22312 
L 382.200255 294.306914 
L 383.286057 294.233606 
L 387.629261 294.695796 
L 388.715062 294.718604 
L 393.058267 295.205249 
L 398.487273 295.48488 
L 398.487273 295.48488 
" clip-path="url(#p74c65c4fd9)" style="fill: none; stroke: #008000; stroke-width: 2; stroke-linecap: square"/>
   </g>
   <g id="patch_3">
    <path d="M 57.6 307.584 
L 57.6 41.472 
" style="fill: none; stroke: #bcbcbc; stroke-width: 0.8; stroke-linejoin: miter; stroke-linecap: square"/>
   </g>
   <g id="patch_4">
    <path d="M 414.72 307.584 
L 414.72 41.472 
" style="fill: none; stroke: #bcbcbc; stroke-width: 0.8; stroke-linejoin: miter; stroke-linecap: square"/>
   </g>
   <g id="patch_5">
    <path d="M 57.6 307.584 
L 414.72 307.584 
" style="fill: none; stroke: #bcbcbc; stroke-width: 0.8; stroke-linejoin: miter; stroke-linecap: square"/>
   </g>
   <g id="patch_6">
    <path d="M 57.6 41.472 
L 414.72 41.472 
" style="fill: none; stroke: #bcbcbc; stroke-width: 0.8; stroke-linejoin: miter; stroke-linecap: square"/>
   </g>
   <g id="text_17">
    <!-- Correlations with n = 200 -->
    <g transform="translate(143.94375 35.472) scale(0.144 -0.144)">
     <defs>
      <path id="DejaVuSans-43" d="M 4122 4306 
L 4122 3641 
Q 3803 3938 3442 4084 
Q 3081 4231 2675 4231 
Q 1875 4231 1450 3742 
Q 1025 3253 1025 2328 
Q 1025 1406 1450 917 
Q 1875 428 2675 428 
Q 3081 428 3442 575 
Q 3803 722 4122 1019 
L 4122 359 
Q 3791 134 3420 21 
Q 3050 -91 2638 -91 
Q 1578 -91 968 557 
Q 359 1206 359 2328 
Q 359 3453 968 4101 
Q 1578 4750 2638 4750 
Q 3056 4750 3426 4639 
Q 3797 4528 4122 4306 
z
" transform="scale(0.015625)"/>
      <path id="DejaVuSans-6f" d="M 1959 3097 
Q 1497 3097 1228 2736 
Q 959 2375 959 1747 
Q 959 1119 1226 758 
Q 1494 397 1959 397 
Q 2419 397 2687 759 
Q 2956 1122 2956 1747 
Q 2956 2369 2687 2733 
Q 2419 3097 1959 3097 
z
M 1959 3584 
Q 2709 3584 3137 3096 
Q 3566 2609 3566 1747 
Q 3566 888 3137 398 
Q 2709 -91 1959 -91 
Q 1206 -91 779 398 
Q 353 888 353 1747 
Q 353 2609 779 3096 
Q 1206 3584 1959 3584 
z
" transform="scale(0.015625)"/>
      <path id="DejaVuSans-72" d="M 2631 2963 
Q 2534 3019 2420 3045 
Q 2306 3072 2169 3072 
Q 1681 3072 1420 2755 
Q 1159 2438 1159 1844 
L 1159 0 
L 581 0 
L 581 3500 
L 1159 3500 
L 1159 2956 
Q 1341 3275 1631 3429 
Q 1922 3584 2338 3584 
Q 2397 3584 2469 3576 
Q 2541 3569 2628 3553 
L 2631 2963 
z
" transform="scale(0.015625)"/>
      <path id="DejaVuSans-65" d="M 3597 1894 
L 3597 1613 
L 953 1613 
Q 991 1019 1311 708 
Q 1631 397 2203 397 
Q 2534 397 2845 478 
Q 3156 559 3463 722 
L 3463 178 
Q 3153 47 2828 -22 
Q 2503 -91 2169 -91 
Q 1331 -91 842 396 
Q 353 884 353 1716 
Q 353 2575 817 3079 
Q 1281 3584 2069 3584 
Q 2775 3584 3186 3129 
Q 3597 2675 3597 1894 
z
M 3022 2063 
Q 3016 2534 2758 2815 
Q 2500 3097 2075 3097 
Q 1594 3097 1305 2825 
Q 1016 2553 972 2059 
L 3022 2063 
z
" transform="scale(0.015625)"/>
      <path id="DejaVuSans-6c" d="M 603 4863 
L 1178 4863 
L 1178 0 
L 603 0 
L 603 4863 
z
" transform="scale(0.015625)"/>
      <path id="DejaVuSans-61" d="M 2194 1759 
Q 1497 1759 1228 1600 
Q 959 1441 959 1056 
Q 959 750 1161 570 
Q 1363 391 1709 391 
Q 2188 391 2477 730 
Q 2766 1069 2766 1631 
L 2766 1759 
L 2194 1759 
z
M 3341 1997 
L 3341 0 
L 2766 0 
L 2766 531 
Q 2569 213 2275 61 
Q 1981 -91 1556 -91 
Q 1019 -91 701 211 
Q 384 513 384 1019 
Q 384 1609 779 1909 
Q 1175 2209 1959 2209 
L 2766 2209 
L 2766 2266 
Q 2766 2663 2505 2880 
Q 2244 3097 1772 3097 
Q 1472 3097 1187 3025 
Q 903 2953 641 2809 
L 641 3341 
Q 956 3463 1253 3523 
Q 1550 3584 1831 3584 
Q 2591 3584 2966 3190 
Q 3341 2797 3341 1997 
z
" transform="scale(0.015625)"/>
      <path id="DejaVuSans-74" d="M 1172 4494 
L 1172 3500 
L 2356 3500 
L 2356 3053 
L 1172 3053 
L 1172 1153 
Q 1172 725 1289 603 
Q 1406 481 1766 481 
L 2356 481 
L 2356 0 
L 1766 0 
Q 1100 0 847 248 
Q 594 497 594 1153 
L 594 3053 
L 172 3053 
L 172 3500 
L 594 3500 
L 594 4494 
L 1172 4494 
z
" transform="scale(0.015625)"/>
      <path id="DejaVuSans-69" d="M 603 3500 
L 1178 3500 
L 1178 0 
L 603 0 
L 603 3500 
z
M 603 4863 
L 1178 4863 
L 1178 4134 
L 603 4134 
L 603 4863 
z
" transform="scale(0.015625)"/>
      <path id="DejaVuSans-6e" d="M 3513 2113 
L 3513 0 
L 2938 0 
L 2938 2094 
Q 2938 2591 2744 2837 
Q 2550 3084 2163 3084 
Q 1697 3084 1428 2787 
Q 1159 2491 1159 1978 
L 1159 0 
L 581 0 
L 581 3500 
L 1159 3500 
L 1159 2956 
Q 1366 3272 1645 3428 
Q 1925 3584 2291 3584 
Q 2894 3584 3203 3211 
Q 3513 2838 3513 2113 
z
" transform="scale(0.015625)"/>
      <path id="DejaVuSans-73" d="M 2834 3397 
L 2834 2853 
Q 2591 2978 2328 3040 
Q 2066 3103 1784 3103 
Q 1356 3103 1142 2972 
Q 928 2841 928 2578 
Q 928 2378 1081 2264 
Q 1234 2150 1697 2047 
L 1894 2003 
Q 2506 1872 2764 1633 
Q 3022 1394 3022 966 
Q 3022 478 2636 193 
Q 2250 -91 1575 -91 
Q 1294 -91 989 -36 
Q 684 19 347 128 
L 347 722 
Q 666 556 975 473 
Q 1284 391 1588 391 
Q 1994 391 2212 530 
Q 2431 669 2431 922 
Q 2431 1156 2273 1281 
Q 2116 1406 1581 1522 
L 1381 1569 
Q 847 1681 609 1914 
Q 372 2147 372 2553 
Q 372 3047 722 3315 
Q 1072 3584 1716 3584 
Q 2034 3584 2315 3537 
Q 2597 3491 2834 3397 
z
" transform="scale(0.015625)"/>
      <path id="DejaVuSans-20" transform="scale(0.015625)"/>
      <path id="DejaVuSans-77" d="M 269 3500 
L 844 3500 
L 1563 769 
L 2278 3500 
L 2956 3500 
L 3675 769 
L 4391 3500 
L 4966 3500 
L 4050 0 
L 3372 0 
L 2619 2869 
L 1863 0 
L 1184 0 
L 269 3500 
z
" transform="scale(0.015625)"/>
      <path id="DejaVuSans-68" d="M 3513 2113 
L 3513 0 
L 2938 0 
L 2938 2094 
Q 2938 2591 2744 2837 
Q 2550 3084 2163 3084 
Q 1697 3084 1428 2787 
Q 1159 2491 1159 1978 
L 1159 0 
L 581 0 
L 581 4863 
L 1159 4863 
L 1159 2956 
Q 1366 3272 1645 3428 
Q 1925 3584 2291 3584 
Q 2894 3584 3203 3211 
Q 3513 2838 3513 2113 
z
" transform="scale(0.015625)"/>
      <path id="DejaVuSans-3d" d="M 678 2906 
L 4684 2906 
L 4684 2381 
L 678 2381 
L 678 2906 
z
M 678 1631 
L 4684 1631 
L 4684 1100 
L 678 1100 
L 678 1631 
z
" transform="scale(0.015625)"/>
     </defs>
     <use xlink:href="#DejaVuSans-43"/>
     <use xlink:href="#DejaVuSans-6f" transform="translate(69.824219 0)"/>
     <use xlink:href="#DejaVuSans-72" transform="translate(131.005859 0)"/>
     <use xlink:href="#DejaVuSans-72" transform="translate(170.369141 0)"/>
     <use xlink:href="#DejaVuSans-65" transform="translate(209.232422 0)"/>
     <use xlink:href="#DejaVuSans-6c" transform="translate(270.755859 0)"/>
     <use xlink:href="#DejaVuSans-61" transform="translate(298.539062 0)"/>
     <use xlink:href="#DejaVuSans-74" transform="translate(359.818359 0)"/>
     <use xlink:href="#DejaVuSans-69" transform="translate(399.027344 0)"/>
     <use xlink:href="#DejaVuSans-6f" transform="translate(426.810547 0)"/>
     <use xlink:href="#DejaVuSans-6e" transform="translate(487.992188 0)"/>
     <use xlink:href="#DejaVuSans-73" transform="translate(551.371094 0)"/>
     <use xlink:href="#DejaVuSans-20" transform="translate(603.470703 0)"/>
     <use xlink:href="#DejaVuSans-77" transform="translate(635.257812 0)"/>
     <use xlink:href="#DejaVuSans-69" transform="translate(717.044922 0)"/>
     <use xlink:href="#DejaVuSans-74" transform="translate(744.828125 0)"/>
     <use xlink:href="#DejaVuSans-68" transform="translate(784.037109 0)"/>
     <use xlink:href="#DejaVuSans-20" transform="translate(847.416016 0)"/>
     <use xlink:href="#DejaVuSans-6e" transform="translate(879.203125 0)"/>
     <use xlink:href="#DejaVuSans-20" transform="translate(942.582031 0)"/>
     <use xlink:href="#DejaVuSans-3d" transform="translate(974.369141 0)"/>
     <use xlink:href="#DejaVuSans-20" transform="translate(1058.158203 0)"/>
     <use xlink:href="#DejaVuSans-32" transform="translate(1089.945312 0)"/>
     <use xlink:href="#DejaVuSans-30" transform="translate(1153.568359 0)"/>
     <use xlink:href="#DejaVuSans-30" transform="translate(1217.191406 0)"/>
    </g>
   </g>
  </g>
 </g>
 <defs>
  <clipPath id="p74c65c4fd9">
   <rect x="57.6" y="41.472" width="357.12" height="266.112"/>
  </clipPath>
 </defs>
</svg>
