<?xml version="1.0" encoding="utf-8" standalone="no"?>
<!DOCTYPE svg PUBLIC "-//W3C//DTD SVG 1.1//EN"
  "http://www.w3.org/Graphics/SVG/1.1/DTD/svg11.dtd">
<svg xmlns:xlink="http://www.w3.org/1999/xlink" width="460.8pt" height="345.6pt" viewBox="0 0 460.8 345.6" xmlns="http://www.w3.org/2000/svg" version="1.1">
 <metadata>
  <rdf:RDF xmlns:dc="http://purl.org/dc/elements/1.1/" xmlns:cc="http://creativecommons.org/ns#" xmlns:rdf="http://www.w3.org/1999/02/22-rdf-syntax-ns#">
   <cc:Work>
    <dc:type rdf:resource="http://purl.org/dc/dcmitype/StillImage"/>
    <dc:date>2025-10-04T14:02:00.740514</dc:date>
    <dc:format>image/svg+xml</dc:format>
    <dc:creator>
     <cc:Agent>
      <dc:title>Matplotlib v3.10.5, https://matplotlib.org/</dc:title>
     </cc:Agent>
    </dc:creator>
   </cc:Work>
  </rdf:RDF>
 </metadata>
 <defs>
  <style type="text/css">*{stroke-linejoin: round; stroke-linecap: butt}</style>
 </defs>
 <g id="figure_1">
  <g id="patch_1">
   <path d="M 0 345.6 
L 460.8 345.6 
L 460.8 0 
L 0 0 
z
" style="fill: #ffffff"/>
  </g>
  <g id="axes_1">
   <g id="patch_2">
    <path d="M 57.6 307.584 
L 414.72 307.584 
L 414.72 41.472 
L 57.6 41.472 
z
" style="fill: #eeeeee"/>
   </g>
   <g id="matplotlib.axis_1">
    <g id="xtick_1">
     <g id="line2d_1">
      <path d="M 73.832727 307.584 
L 73.832727 41.472 
" clip-path="url(#p11ec16141c)" style="fill: none; stroke-dasharray: 1.85,0.8; stroke-dashoffset: 0; stroke: #b2b2b2; stroke-width: 0.5"/>
     </g>
     <g id="line2d_2">
      <defs>
       <path id="m75267d95e1" d="M 0 0 
L 0 -3.5 
" style="stroke: #000000; stroke-width: 0.8"/>
      </defs>
      <g>
       <use xlink:href="#m75267d95e1" x="73.832727" y="307.584" style="stroke: #000000; stroke-width: 0.8"/>
      </g>
     </g>
     <g id="text_1">
      <!-- 0.0 -->
      <g transform="translate(65.881165 318.682437) scale(0.1 -0.1)">
       <defs>
        <path id="DejaVuSans-30" d="M 2034 4250 
Q 1547 4250 1301 3770 
Q 1056 3291 1056 2328 
Q 1056 1369 1301 889 
Q 1547 409 2034 409 
Q 2525 409 2770 889 
Q 3016 1369 3016 2328 
Q 3016 3291 2770 3770 
Q 2525 4250 2034 4250 
z
M 2034 4750 
Q 2819 4750 3233 4129 
Q 3647 3509 3647 2328 
Q 3647 1150 3233 529 
Q 2819 -91 2034 -91 
Q 1250 -91 836 529 
Q 422 1150 422 2328 
Q 422 3509 836 4129 
Q 1250 4750 2034 4750 
z
" transform="scale(0.015625)"/>
        <path id="DejaVuSans-2e" d="M 684 794 
L 1344 794 
L 1344 0 
L 684 0 
L 684 794 
z
" transform="scale(0.015625)"/>
       </defs>
       <use xlink:href="#DejaVuSans-30"/>
       <use xlink:href="#DejaVuSans-2e" transform="translate(63.623047 0)"/>
       <use xlink:href="#DejaVuSans-30" transform="translate(95.410156 0)"/>
      </g>
     </g>
    </g>
    <g id="xtick_2">
     <g id="line2d_3">
      <path d="M 150.924609 307.584 
L 150.924609 41.472 
" clip-path="url(#p11ec16141c)" style="fill: none; stroke-dasharray: 1.85,0.8; stroke-dashoffset: 0; stroke: #b2b2b2; stroke-width: 0.5"/>
     </g>
     <g id="line2d_4">
      <g>
       <use xlink:href="#m75267d95e1" x="150.924609" y="307.584" style="stroke: #000000; stroke-width: 0.8"/>
      </g>
     </g>
     <g id="text_2">
      <!-- 0.5 -->
      <g transform="translate(142.973047 318.682437) scale(0.1 -0.1)">
       <defs>
        <path id="DejaVuSans-35" d="M 691 4666 
L 3169 4666 
L 3169 4134 
L 1269 4134 
L 1269 2991 
Q 1406 3038 1543 3061 
Q 1681 3084 1819 3084 
Q 2600 3084 3056 2656 
Q 3513 2228 3513 1497 
Q 3513 744 3044 326 
Q 2575 -91 1722 -91 
Q 1428 -91 1123 -41 
Q 819 9 494 109 
L 494 744 
Q 775 591 1075 516 
Q 1375 441 1709 441 
Q 2250 441 2565 725 
Q 2881 1009 2881 1497 
Q 2881 1984 2565 2268 
Q 2250 2553 1709 2553 
Q 1456 2553 1204 2497 
Q 953 2441 691 2322 
L 691 4666 
z
" transform="scale(0.015625)"/>
       </defs>
       <use xlink:href="#DejaVuSans-30"/>
       <use xlink:href="#DejaVuSans-2e" transform="translate(63.623047 0)"/>
       <use xlink:href="#DejaVuSans-35" transform="translate(95.410156 0)"/>
      </g>
     </g>
    </g>
    <g id="xtick_3">
     <g id="line2d_5">
      <path d="M 228.016491 307.584 
L 228.016491 41.472 
" clip-path="url(#p11ec16141c)" style="fill: none; stroke-dasharray: 1.85,0.8; stroke-dashoffset: 0; stroke: #b2b2b2; stroke-width: 0.5"/>
     </g>
     <g id="line2d_6">
      <g>
       <use xlink:href="#m75267d95e1" x="228.016491" y="307.584" style="stroke: #000000; stroke-width: 0.8"/>
      </g>
     </g>
     <g id="text_3">
      <!-- 1.0 -->
      <g transform="translate(220.064929 318.682437) scale(0.1 -0.1)">
       <defs>
        <path id="DejaVuSans-31" d="M 794 531 
L 1825 531 
L 1825 4091 
L 703 3866 
L 703 4441 
L 1819 4666 
L 2450 4666 
L 2450 531 
L 3481 531 
L 3481 0 
L 794 0 
L 794 531 
z
" transform="scale(0.015625)"/>
       </defs>
       <use xlink:href="#DejaVuSans-31"/>
       <use xlink:href="#DejaVuSans-2e" transform="translate(63.623047 0)"/>
       <use xlink:href="#DejaVuSans-30" transform="translate(95.410156 0)"/>
      </g>
     </g>
    </g>
    <g id="xtick_4">
     <g id="line2d_7">
      <path d="M 305.108373 307.584 
L 305.108373 41.472 
" clip-path="url(#p11ec16141c)" style="fill: none; stroke-dasharray: 1.85,0.8; stroke-dashoffset: 0; stroke: #b2b2b2; stroke-width: 0.5"/>
     </g>
     <g id="line2d_8">
      <g>
       <use xlink:href="#m75267d95e1" x="305.108373" y="307.584" style="stroke: #000000; stroke-width: 0.8"/>
      </g>
     </g>
     <g id="text_4">
      <!-- 1.5 -->
      <g transform="translate(297.156811 318.682437) scale(0.1 -0.1)">
       <use xlink:href="#DejaVuSans-31"/>
       <use xlink:href="#DejaVuSans-2e" transform="translate(63.623047 0)"/>
       <use xlink:href="#DejaVuSans-35" transform="translate(95.410156 0)"/>
      </g>
     </g>
    </g>
    <g id="xtick_5">
     <g id="line2d_9">
      <path d="M 382.200255 307.584 
L 382.200255 41.472 
" clip-path="url(#p11ec16141c)" style="fill: none; stroke-dasharray: 1.85,0.8; stroke-dashoffset: 0; stroke: #b2b2b2; stroke-width: 0.5"/>
     </g>
     <g id="line2d_10">
      <g>
       <use xlink:href="#m75267d95e1" x="382.200255" y="307.584" style="stroke: #000000; stroke-width: 0.8"/>
      </g>
     </g>
     <g id="text_5">
      <!-- 2.0 -->
      <g transform="translate(374.248693 318.682437) scale(0.1 -0.1)">
       <defs>
        <path id="DejaVuSans-32" d="M 1228 531 
L 3431 531 
L 3431 0 
L 469 0 
L 469 531 
Q 828 903 1448 1529 
Q 2069 2156 2228 2338 
Q 2531 2678 2651 2914 
Q 2772 3150 2772 3378 
Q 2772 3750 2511 3984 
Q 2250 4219 1831 4219 
Q 1534 4219 1204 4116 
Q 875 4013 500 3803 
L 500 4441 
Q 881 4594 1212 4672 
Q 1544 4750 1819 4750 
Q 2544 4750 2975 4387 
Q 3406 4025 3406 3419 
Q 3406 3131 3298 2873 
Q 3191 2616 2906 2266 
Q 2828 2175 2409 1742 
Q 1991 1309 1228 531 
z
" transform="scale(0.015625)"/>
       </defs>
       <use xlink:href="#DejaVuSans-32"/>
       <use xlink:href="#DejaVuSans-2e" transform="translate(63.623047 0)"/>
       <use xlink:href="#DejaVuSans-30" transform="translate(95.410156 0)"/>
      </g>
     </g>
    </g>
    <g id="text_6">
     <!-- $s/s_c$ -->
     <g transform="translate(225.3 333.762125) scale(0.12 -0.12)">
      <defs>
       <path id="Cmmi10-73" d="M 556 391 
Q 728 97 1247 97 
Q 1472 97 1675 173 
Q 1878 250 2011 403 
Q 2144 556 2144 775 
Q 2144 941 2025 1047 
Q 1906 1153 1734 1191 
L 1388 1259 
Q 1150 1319 997 1481 
Q 844 1644 844 1875 
Q 844 2159 998 2378 
Q 1153 2597 1406 2712 
Q 1659 2828 1931 2828 
Q 2222 2828 2451 2689 
Q 2681 2550 2681 2278 
Q 2681 2131 2598 2018 
Q 2516 1906 2369 1906 
Q 2284 1906 2223 1961 
Q 2163 2016 2163 2100 
Q 2163 2175 2205 2245 
Q 2247 2316 2317 2358 
Q 2388 2400 2463 2400 
Q 2406 2538 2251 2600 
Q 2097 2663 1919 2663 
Q 1756 2663 1593 2597 
Q 1431 2531 1332 2404 
Q 1234 2278 1234 2106 
Q 1234 1991 1315 1903 
Q 1397 1816 1516 1778 
L 1888 1703 
Q 2066 1666 2214 1570 
Q 2363 1475 2448 1329 
Q 2534 1184 2534 997 
Q 2534 759 2401 528 
Q 2269 297 2075 159 
Q 1734 -72 1241 -72 
Q 900 -72 615 84 
Q 331 241 331 550 
Q 331 725 432 854 
Q 534 984 709 984 
Q 813 984 883 921 
Q 953 859 953 756 
Q 953 609 843 500 
Q 734 391 588 391 
L 556 391 
z
" transform="scale(0.015625)"/>
       <path id="Cmmi10-3d" d="M 359 -1472 
Q 359 -1453 366 -1447 
L 2591 4722 
Q 2603 4759 2634 4779 
Q 2666 4800 2706 4800 
Q 2763 4800 2798 4765 
Q 2834 4731 2834 4672 
L 2834 4647 
L 609 -1522 
Q 572 -1600 488 -1600 
Q 434 -1600 396 -1562 
Q 359 -1525 359 -1472 
z
" transform="scale(0.015625)"/>
       <path id="Cmmi10-63" d="M 750 763 
Q 750 484 892 290 
Q 1034 97 1300 97 
Q 1681 97 2032 272 
Q 2384 447 2606 756 
Q 2625 775 2656 775 
Q 2688 775 2720 739 
Q 2753 703 2753 672 
Q 2753 647 2741 634 
Q 2506 306 2109 117 
Q 1713 -72 1288 -72 
Q 981 -72 747 73 
Q 513 219 384 462 
Q 256 706 256 1013 
Q 256 1444 497 1869 
Q 738 2294 1138 2561 
Q 1538 2828 1978 2828 
Q 2266 2828 2495 2689 
Q 2725 2550 2725 2278 
Q 2725 2103 2623 1979 
Q 2522 1856 2350 1856 
Q 2247 1856 2176 1920 
Q 2106 1984 2106 2088 
Q 2106 2238 2215 2344 
Q 2325 2450 2472 2450 
L 2484 2450 
Q 2409 2559 2267 2611 
Q 2125 2663 1972 2663 
Q 1597 2663 1315 2342 
Q 1034 2022 892 1576 
Q 750 1131 750 763 
z
" transform="scale(0.015625)"/>
      </defs>
      <use xlink:href="#Cmmi10-73"/>
      <use xlink:href="#Cmmi10-3d" transform="translate(46.777344 0)"/>
      <use xlink:href="#Cmmi10-73" transform="translate(96.777344 0)"/>
      <use xlink:href="#Cmmi10-63" transform="translate(143.554688 -17.00625) scale(0.7)"/>
     </g>
    </g>
   </g>
   <g id="matplotlib.axis_2">
    <g id="ytick_1">
     <g id="line2d_11">
      <path d="M 57.6 258.983713 
L 414.72 258.983713 
" clip-path="url(#p11ec16141c)" style="fill: none; stroke-dasharray: 1.85,0.8; stroke-dashoffset: 0; stroke: #b2b2b2; stroke-width: 0.5"/>
     </g>
     <g id="line2d_12">
      <defs>
       <path id="mb1b69cb146" d="M 0 0 
L 3.5 0 
" style="stroke: #000000; stroke-width: 0.8"/>
      </defs>
      <g>
       <use xlink:href="#mb1b69cb146" x="57.6" y="258.983713" style="stroke: #000000; stroke-width: 0.8"/>
      </g>
     </g>
     <g id="text_7">
      <!-- 0.2 -->
      <g transform="translate(38.196875 262.782932) scale(0.1 -0.1)">
       <use xlink:href="#DejaVuSans-30"/>
       <use xlink:href="#DejaVuSans-2e" transform="translate(63.623047 0)"/>
       <use xlink:href="#DejaVuSans-32" transform="translate(95.410156 0)"/>
      </g>
     </g>
    </g>
    <g id="ytick_2">
     <g id="line2d_13">
      <path d="M 57.6 204.801087 
L 414.72 204.801087 
" clip-path="url(#p11ec16141c)" style="fill: none; stroke-dasharray: 1.85,0.8; stroke-dashoffset: 0; stroke: #b2b2b2; stroke-width: 0.5"/>
     </g>
     <g id="line2d_14">
      <g>
       <use xlink:href="#mb1b69cb146" x="57.6" y="204.801087" style="stroke: #000000; stroke-width: 0.8"/>
      </g>
     </g>
     <g id="text_8">
      <!-- 0.4 -->
      <g transform="translate(38.196875 208.600306) scale(0.1 -0.1)">
       <defs>
        <path id="DejaVuSans-34" d="M 2419 4116 
L 825 1625 
L 2419 1625 
L 2419 4116 
z
M 2253 4666 
L 3047 4666 
L 3047 1625 
L 3713 1625 
L 3713 1100 
L 3047 1100 
L 3047 0 
L 2419 0 
L 2419 1100 
L 313 1100 
L 313 1709 
L 2253 4666 
z
" transform="scale(0.015625)"/>
       </defs>
       <use xlink:href="#DejaVuSans-30"/>
       <use xlink:href="#DejaVuSans-2e" transform="translate(63.623047 0)"/>
       <use xlink:href="#DejaVuSans-34" transform="translate(95.410156 0)"/>
      </g>
     </g>
    </g>
    <g id="ytick_3">
     <g id="line2d_15">
      <path d="M 57.6 150.618461 
L 414.72 150.618461 
" clip-path="url(#p11ec16141c)" style="fill: none; stroke-dasharray: 1.85,0.8; stroke-dashoffset: 0; stroke: #b2b2b2; stroke-width: 0.5"/>
     </g>
     <g id="line2d_16">
      <g>
       <use xlink:href="#mb1b69cb146" x="57.6" y="150.618461" style="stroke: #000000; stroke-width: 0.8"/>
      </g>
     </g>
     <g id="text_9">
      <!-- 0.6 -->
      <g transform="translate(38.196875 154.417679) scale(0.1 -0.1)">
       <defs>
        <path id="DejaVuSans-36" d="M 2113 2584 
Q 1688 2584 1439 2293 
Q 1191 2003 1191 1497 
Q 1191 994 1439 701 
Q 1688 409 2113 409 
Q 2538 409 2786 701 
Q 3034 994 3034 1497 
Q 3034 2003 2786 2293 
Q 2538 2584 2113 2584 
z
M 3366 4563 
L 3366 3988 
Q 3128 4100 2886 4159 
Q 2644 4219 2406 4219 
Q 1781 4219 1451 3797 
Q 1122 3375 1075 2522 
Q 1259 2794 1537 2939 
Q 1816 3084 2150 3084 
Q 2853 3084 3261 2657 
Q 3669 2231 3669 1497 
Q 3669 778 3244 343 
Q 2819 -91 2113 -91 
Q 1303 -91 875 529 
Q 447 1150 447 2328 
Q 447 3434 972 4092 
Q 1497 4750 2381 4750 
Q 2619 4750 2861 4703 
Q 3103 4656 3366 4563 
z
" transform="scale(0.015625)"/>
       </defs>
       <use xlink:href="#DejaVuSans-30"/>
       <use xlink:href="#DejaVuSans-2e" transform="translate(63.623047 0)"/>
       <use xlink:href="#DejaVuSans-36" transform="translate(95.410156 0)"/>
      </g>
     </g>
    </g>
    <g id="ytick_4">
     <g id="line2d_17">
      <path d="M 57.6 96.435834 
L 414.72 96.435834 
" clip-path="url(#p11ec16141c)" style="fill: none; stroke-dasharray: 1.85,0.8; stroke-dashoffset: 0; stroke: #b2b2b2; stroke-width: 0.5"/>
     </g>
     <g id="line2d_18">
      <g>
       <use xlink:href="#mb1b69cb146" x="57.6" y="96.435834" style="stroke: #000000; stroke-width: 0.8"/>
      </g>
     </g>
     <g id="text_10">
      <!-- 0.8 -->
      <g transform="translate(38.196875 100.235053) scale(0.1 -0.1)">
       <defs>
        <path id="DejaVuSans-38" d="M 2034 2216 
Q 1584 2216 1326 1975 
Q 1069 1734 1069 1313 
Q 1069 891 1326 650 
Q 1584 409 2034 409 
Q 2484 409 2743 651 
Q 3003 894 3003 1313 
Q 3003 1734 2745 1975 
Q 2488 2216 2034 2216 
z
M 1403 2484 
Q 997 2584 770 2862 
Q 544 3141 544 3541 
Q 544 4100 942 4425 
Q 1341 4750 2034 4750 
Q 2731 4750 3128 4425 
Q 3525 4100 3525 3541 
Q 3525 3141 3298 2862 
Q 3072 2584 2669 2484 
Q 3125 2378 3379 2068 
Q 3634 1759 3634 1313 
Q 3634 634 3220 271 
Q 2806 -91 2034 -91 
Q 1263 -91 848 271 
Q 434 634 434 1313 
Q 434 1759 690 2068 
Q 947 2378 1403 2484 
z
M 1172 3481 
Q 1172 3119 1398 2916 
Q 1625 2713 2034 2713 
Q 2441 2713 2670 2916 
Q 2900 3119 2900 3481 
Q 2900 3844 2670 4047 
Q 2441 4250 2034 4250 
Q 1625 4250 1398 4047 
Q 1172 3844 1172 3481 
z
" transform="scale(0.015625)"/>
       </defs>
       <use xlink:href="#DejaVuSans-30"/>
       <use xlink:href="#DejaVuSans-2e" transform="translate(63.623047 0)"/>
       <use xlink:href="#DejaVuSans-38" transform="translate(95.410156 0)"/>
      </g>
     </g>
    </g>
    <g id="ytick_5">
     <g id="line2d_19">
      <path d="M 57.6 42.253208 
L 414.72 42.253208 
" clip-path="url(#p11ec16141c)" style="fill: none; stroke-dasharray: 1.85,0.8; stroke-dashoffset: 0; stroke: #b2b2b2; stroke-width: 0.5"/>
     </g>
     <g id="line2d_20">
      <g>
       <use xlink:href="#mb1b69cb146" x="57.6" y="42.253208" style="stroke: #000000; stroke-width: 0.8"/>
      </g>
     </g>
     <g id="text_11">
      <!-- 1.0 -->
      <g transform="translate(38.196875 46.052427) scale(0.1 -0.1)">
       <use xlink:href="#DejaVuSans-31"/>
       <use xlink:href="#DejaVuSans-2e" transform="translate(63.623047 0)"/>
       <use xlink:href="#DejaVuSans-30" transform="translate(95.410156 0)"/>
      </g>
     </g>
    </g>
    <g id="text_12">
     <!-- $D_{s}$ -->
     <g transform="translate(31.70125 181.848) rotate(-90) scale(0.12 -0.12)">
      <defs>
       <path id="Cmmi10-44" d="M 313 0 
Q 250 0 250 84 
Q 253 100 262 139 
Q 272 178 289 201 
Q 306 225 331 225 
Q 722 225 878 269 
Q 959 297 997 441 
L 1875 3956 
Q 1888 4019 1888 4044 
Q 1888 4113 1813 4122 
Q 1691 4147 1350 4147 
Q 1288 4147 1288 4231 
Q 1291 4247 1300 4286 
Q 1309 4325 1326 4348 
Q 1344 4372 1369 4372 
L 3669 4372 
Q 4116 4372 4450 4155 
Q 4784 3938 4962 3570 
Q 5141 3203 5141 2759 
Q 5141 2269 4937 1778 
Q 4734 1288 4368 881 
Q 4003 475 3534 237 
Q 3066 0 2572 0 
L 313 0 
z
M 1509 275 
Q 1509 225 1728 225 
L 2472 225 
Q 2828 225 3159 372 
Q 3491 519 3750 775 
Q 3991 1016 4175 1406 
Q 4359 1797 4461 2222 
Q 4563 2647 4563 3003 
Q 4563 3263 4486 3472 
Q 4409 3681 4270 3831 
Q 4131 3981 3922 4064 
Q 3713 4147 3450 4147 
L 2747 4147 
Q 2572 4147 2515 4117 
Q 2459 4088 2413 3928 
L 1538 416 
Q 1509 338 1509 275 
z
" transform="scale(0.015625)"/>
      </defs>
      <use xlink:href="#Cmmi10-44" transform="translate(0 0.6875)"/>
      <use xlink:href="#Cmmi10-73" transform="translate(82.714844 -16.31875) scale(0.7)"/>
     </g>
    </g>
   </g>
   <g id="line2d_21">
    <path d="M 73.832727 53.568 
L 74.918528 61.693948 
L 76.00433 67.925301 
L 77.090131 73.485065 
L 78.175932 78.433463 
L 79.261733 84.483903 
L 81.433335 93.481891 
L 82.519137 99.599903 
L 83.604938 101.954061 
L 84.690739 105.476284 
L 86.862341 114.060232 
L 89.033943 123.278145 
L 90.119745 125.802074 
L 91.205546 131.634098 
L 92.291347 135.677307 
L 93.377148 137.044232 
L 94.462949 138.205287 
L 95.54875 140.328458 
L 96.634552 143.455864 
L 97.720353 143.098713 
L 98.806154 144.073884 
L 99.891955 149.654255 
L 100.977756 154.582805 
L 102.063557 156.936152 
L 103.149358 162.059615 
L 104.23516 163.557615 
L 105.320961 166.369788 
L 106.406762 168.242036 
L 107.492563 170.454814 
L 108.578364 174.45002 
L 109.664165 178.999141 
L 110.749967 179.774928 
L 111.835768 182.26309 
L 112.921569 186.718456 
L 114.00737 187.345473 
L 116.178972 192.157573 
L 117.264773 198.712626 
L 118.350575 200.275595 
L 119.436376 203.704863 
L 120.522177 205.796568 
L 122.693779 211.957899 
L 123.77958 214.254013 
L 124.865382 218.036256 
L 125.951183 217.214915 
L 127.036984 214.778622 
L 128.122785 215.379252 
L 129.208586 215.550571 
L 130.294387 215.920817 
L 131.380189 221.997687 
L 132.46599 224.074576 
L 133.551791 225.790912 
L 134.637592 224.747773 
L 135.723393 227.946467 
L 136.809194 227.892724 
L 137.894995 228.635688 
L 138.980797 230.1915 
L 140.066598 230.312834 
L 141.152399 229.395991 
L 142.2382 229.17612 
L 143.324001 225.441079 
L 144.409802 224.749903 
L 145.495604 226.838484 
L 146.581405 228.504858 
L 147.667206 229.007949 
L 148.753007 228.992875 
L 149.838808 227.575585 
L 150.924609 228.277805 
L 152.01041 230.705497 
L 153.096212 230.551797 
L 154.182013 233.358024 
L 155.267814 235.231192 
L 156.353615 232.017247 
L 157.439416 233.853622 
L 158.525217 235.441693 
L 159.611019 235.482162 
L 160.69682 234.538787 
L 161.782621 238.788641 
L 162.868422 239.160556 
L 163.954223 239.254656 
L 165.040024 237.066306 
L 166.125825 233.010806 
L 168.297428 230.355546 
L 169.383229 226.024268 
L 170.46903 228.90335 
L 171.554831 234.109842 
L 172.640632 230.694112 
L 173.726434 230.765074 
L 174.812235 232.882655 
L 175.898036 232.35835 
L 176.983837 233.301714 
L 178.069638 231.216337 
L 179.155439 234.412361 
L 180.24124 234.058163 
L 181.327042 235.822951 
L 182.412843 235.615969 
L 183.498644 240.775367 
L 184.584445 240.263785 
L 185.670246 239.190184 
L 186.756047 237.47862 
L 187.841849 234.776994 
L 188.92765 233.86028 
L 190.013451 232.662728 
L 191.099252 234.518476 
L 193.270854 229.600015 
L 194.356656 234.806882 
L 195.442457 237.592903 
L 196.528258 237.437092 
L 197.614059 236.275814 
L 198.69986 232.945498 
L 199.785661 232.877642 
L 200.871462 233.423713 
L 201.957264 232.689196 
L 203.043065 230.767432 
L 204.128866 230.363613 
L 205.214667 228.103301 
L 206.300468 230.963029 
L 207.386269 229.019479 
L 208.472071 221.129445 
L 210.643673 219.002582 
L 211.729474 215.694685 
L 212.815275 211.908712 
L 213.901076 210.928661 
L 214.986877 214.727904 
L 216.072679 211.825451 
L 217.15848 203.568532 
L 218.244281 206.274513 
L 219.330082 205.993989 
L 220.415883 210.149921 
L 221.501684 213.317533 
L 222.587486 211.944183 
L 223.673287 209.710458 
L 224.759088 210.0762 
L 225.844889 209.088227 
L 226.93069 209.812885 
L 228.016491 206.687321 
L 229.102292 211.405389 
L 230.188094 209.38551 
L 231.273895 208.049544 
L 232.359696 212.5405 
L 233.445497 212.318581 
L 234.531298 203.90128 
L 236.702901 200.396131 
L 237.788702 204.994852 
L 238.874503 206.157197 
L 239.960304 202.757496 
L 241.046105 200.268276 
L 242.131906 196.557055 
L 243.217708 190.883384 
L 244.303509 196.320175 
L 245.38931 193.540073 
L 246.475111 195.531994 
L 247.560912 199.420092 
L 248.646713 197.73677 
L 250.818316 188.275931 
L 251.904117 194.649843 
L 252.989918 194.585984 
L 254.075719 195.872403 
L 255.16152 200.913798 
L 256.247321 197.413518 
L 257.333123 197.228118 
L 258.418924 197.241372 
L 259.504725 194.87451 
L 260.590526 196.584104 
L 261.676327 199.723802 
L 262.762128 205.012996 
L 263.847929 205.771744 
L 264.933731 209.173496 
L 266.019532 207.812707 
L 267.105333 201.174927 
L 268.191134 199.407802 
L 269.276935 198.829896 
L 270.362736 198.378692 
L 271.448538 197.141348 
L 272.534339 198.634289 
L 273.62014 192.076496 
L 274.705941 195.902587 
L 275.791742 192.250981 
L 276.877543 196.53745 
L 277.963344 196.461761 
L 279.049146 194.154213 
L 280.134947 197.940527 
L 281.220748 195.924868 
L 282.306549 196.093695 
L 283.39235 198.448128 
L 284.478151 208.44704 
L 285.563953 211.153936 
L 286.649754 214.883997 
L 287.735555 207.491403 
L 288.821356 206.783763 
L 289.907157 205.110972 
L 290.992958 205.348088 
L 292.07876 204.494102 
L 293.164561 208.482641 
L 294.250362 208.298385 
L 295.336163 201.56238 
L 296.421964 199.406212 
L 297.507765 205.275593 
L 298.593566 206.647707 
L 299.679368 213.061764 
L 300.765169 217.650501 
L 301.85097 223.171903 
L 302.936771 226.116822 
L 304.022572 227.448232 
L 305.108373 230.565413 
L 306.194175 231.362469 
L 307.279976 228.142077 
L 308.365777 231.938853 
L 309.451578 231.12388 
L 310.537379 224.056718 
L 311.62318 222.575274 
L 312.708981 228.047776 
L 313.794783 225.773021 
L 314.880584 228.986602 
L 315.966385 232.989658 
L 317.052186 231.581787 
L 318.137987 236.822596 
L 319.223788 234.451834 
L 320.30959 235.390751 
L 321.395391 237.610098 
L 322.481192 239.009482 
L 323.566993 241.670272 
L 324.652794 239.351314 
L 325.738595 242.652016 
L 326.824396 246.490655 
L 327.910198 240.027131 
L 328.995999 239.304855 
L 330.0818 243.7783 
L 331.167601 244.63861 
L 332.253402 252.229304 
L 333.339203 250.716867 
L 334.425005 251.445192 
L 335.510806 257.812838 
L 336.596607 251.146298 
L 337.682408 251.907322 
L 338.768209 248.588226 
L 339.85401 249.524032 
L 340.939811 248.33419 
L 342.025613 250.67654 
L 343.111414 255.354915 
L 344.197215 258.599021 
L 345.283016 263.062357 
L 346.368817 263.037319 
L 347.454618 266.663584 
L 349.626221 270.951178 
L 350.712022 270.994541 
L 351.797823 270.590963 
L 352.883624 268.855685 
L 353.969425 271.542513 
L 355.055227 270.324391 
L 356.141028 272.076022 
L 357.226829 274.980698 
L 358.31263 273.035603 
L 359.398431 271.754548 
L 360.484232 274.48049 
L 361.570033 271.668764 
L 362.655835 276.016129 
L 363.741636 271.084562 
L 364.827437 269.81666 
L 365.913238 268.251116 
L 366.999039 270.90725 
L 368.08484 274.044177 
L 369.170642 276.010632 
L 370.256443 275.770855 
L 371.342244 273.318057 
L 372.428045 272.649908 
L 373.513846 272.140782 
L 374.599647 279.856831 
L 375.685448 276.751493 
L 376.77125 282.43584 
L 377.857051 280.401734 
L 378.942852 279.440809 
L 380.028653 281.904184 
L 381.114454 281.504549 
L 382.200255 283.303767 
L 383.286057 281.999802 
L 385.457659 274.394499 
L 386.54346 281.803074 
L 387.629261 281.57354 
L 388.715062 281.178933 
L 390.886665 287.462899 
L 391.972466 290.201006 
L 393.058267 288.650669 
L 394.144068 290.842823 
L 395.229869 291.26834 
L 396.31567 294.8355 
L 397.401472 294.866407 
L 398.487273 295.488 
L 398.487273 295.488 
" clip-path="url(#p11ec16141c)" style="fill: none; stroke: #0000ff; stroke-width: 2; stroke-linecap: square"/>
   </g>
   <g id="line2d_22">
    <path d="M 73.832727 60.84776 
L 74.918528 68.679323 
L 77.090131 81.413304 
L 78.175932 86.376829 
L 79.261733 92.154758 
L 80.347534 95.832023 
L 81.433335 101.257219 
L 82.519137 105.057653 
L 85.77654 119.400181 
L 86.862341 123.486264 
L 87.948142 126.941152 
L 89.033943 131.074689 
L 90.119745 132.363518 
L 91.205546 134.903388 
L 92.291347 138.635553 
L 93.377148 139.735389 
L 95.54875 145.773096 
L 96.634552 146.923102 
L 97.720353 151.045589 
L 98.806154 152.137604 
L 99.891955 155.799802 
L 100.977756 158.168224 
L 102.063557 159.688534 
L 103.149358 162.065319 
L 104.23516 163.15399 
L 105.320961 166.664998 
L 106.406762 168.855339 
L 107.492563 167.093197 
L 108.578364 167.780838 
L 109.664165 169.976249 
L 111.835768 173.338533 
L 112.921569 175.624956 
L 114.00737 177.480383 
L 115.093171 178.625078 
L 116.178972 178.823443 
L 117.264773 180.255872 
L 118.350575 182.715525 
L 119.436376 185.783828 
L 120.522177 186.035655 
L 121.607978 187.146536 
L 122.693779 189.355251 
L 123.77958 190.913777 
L 124.865382 191.397988 
L 125.951183 189.232872 
L 127.036984 189.373708 
L 128.122785 188.021142 
L 129.208586 191.829242 
L 130.294387 192.656699 
L 131.380189 194.66633 
L 132.46599 198.464368 
L 133.551791 199.07029 
L 134.637592 201.508626 
L 135.723393 203.517888 
L 136.809194 205.965505 
L 137.894995 204.890177 
L 138.980797 204.832393 
L 140.066598 205.774861 
L 141.152399 206.440701 
L 142.2382 206.05349 
L 143.324001 208.963805 
L 144.409802 208.102493 
L 145.495604 204.147377 
L 146.581405 203.892877 
L 147.667206 208.806826 
L 148.753007 208.93475 
L 149.838808 207.137858 
L 150.924609 206.058494 
L 152.01041 206.340303 
L 153.096212 207.903941 
L 154.182013 208.02619 
L 155.267814 208.374937 
L 156.353615 207.385372 
L 157.439416 208.280289 
L 158.525217 207.436949 
L 159.611019 204.593699 
L 160.69682 204.99066 
L 161.782621 203.155904 
L 162.868422 203.851026 
L 163.954223 200.015628 
L 165.040024 200.6202 
L 166.125825 201.862556 
L 168.297428 208.843705 
L 169.383229 213.458533 
L 170.46903 216.652746 
L 171.554831 216.193108 
L 172.640632 209.467363 
L 173.726434 212.925618 
L 174.812235 211.758982 
L 175.898036 213.099423 
L 176.983837 215.568836 
L 178.069638 221.019377 
L 179.155439 218.754964 
L 180.24124 221.004417 
L 181.327042 219.664625 
L 182.412843 214.842336 
L 183.498644 216.331061 
L 184.584445 220.380091 
L 185.670246 221.30971 
L 186.756047 219.100644 
L 187.841849 218.216902 
L 188.92765 214.125236 
L 190.013451 212.883429 
L 191.099252 208.244784 
L 192.185053 207.079634 
L 193.270854 211.826922 
L 194.356656 210.712884 
L 195.442457 209.018453 
L 196.528258 208.296215 
L 197.614059 208.547167 
L 198.69986 200.289697 
L 199.785661 199.689924 
L 200.871462 200.907911 
L 201.957264 198.339335 
L 203.043065 199.76025 
L 204.128866 196.730667 
L 205.214667 198.304596 
L 206.300468 198.013289 
L 207.386269 193.321241 
L 208.472071 195.154558 
L 209.557872 199.110491 
L 210.643673 196.331679 
L 211.729474 196.599038 
L 212.815275 195.870938 
L 213.901076 190.607865 
L 214.986877 188.548933 
L 216.072679 188.73338 
L 217.15848 185.186334 
L 218.244281 185.491171 
L 219.330082 183.910313 
L 220.415883 184.818304 
L 221.501684 184.401581 
L 222.587486 181.447927 
L 223.673287 171.175083 
L 224.759088 169.061395 
L 225.844889 163.032952 
L 226.93069 165.486434 
L 228.016491 167.637296 
L 229.102292 168.940262 
L 230.188094 175.439763 
L 231.273895 179.889348 
L 232.359696 180.662163 
L 233.445497 178.633925 
L 235.617099 177.478458 
L 236.702901 179.503473 
L 237.788702 177.147951 
L 238.874503 182.941393 
L 239.960304 181.362044 
L 241.046105 176.305761 
L 242.131906 181.697187 
L 243.217708 181.424697 
L 244.303509 179.528604 
L 245.38931 173.46238 
L 246.475111 176.515354 
L 247.560912 172.310122 
L 248.646713 167.441459 
L 249.732514 164.189293 
L 250.818316 166.977816 
L 251.904117 170.852428 
L 252.989918 173.641332 
L 254.075719 178.041886 
L 255.16152 180.196955 
L 256.247321 180.830569 
L 257.333123 182.444093 
L 258.418924 181.938577 
L 259.504725 177.525995 
L 260.590526 174.437134 
L 261.676327 177.713836 
L 262.762128 171.73205 
L 263.847929 168.603091 
L 264.933731 158.279545 
L 266.019532 150.159847 
L 267.105333 143.530927 
L 269.276935 126.907312 
L 270.362736 135.360429 
L 271.448538 137.33662 
L 272.534339 135.375317 
L 273.62014 136.729297 
L 274.705941 132.602263 
L 275.791742 142.034509 
L 276.877543 132.526425 
L 277.963344 138.223705 
L 279.049146 131.197159 
L 280.134947 132.462745 
L 281.220748 120.869282 
L 282.306549 128.27926 
L 284.478151 137.150409 
L 285.563953 132.040241 
L 286.649754 139.251226 
L 287.735555 145.472018 
L 288.821356 146.056133 
L 289.907157 149.331189 
L 290.992958 154.956528 
L 292.07876 159.460318 
L 293.164561 163.214295 
L 294.250362 166.461491 
L 295.336163 168.401115 
L 296.421964 167.629092 
L 297.507765 167.780402 
L 298.593566 168.51796 
L 299.679368 171.821107 
L 300.765169 171.556615 
L 301.85097 181.312371 
L 302.936771 181.710856 
L 304.022572 178.137197 
L 305.108373 170.549246 
L 306.194175 172.307532 
L 307.279976 178.862196 
L 308.365777 182.373756 
L 309.451578 188.62821 
L 310.537379 193.039417 
L 311.62318 193.166202 
L 312.708981 187.861136 
L 314.880584 203.398319 
L 315.966385 201.33312 
L 317.052186 192.97514 
L 318.137987 193.110588 
L 319.223788 186.239509 
L 320.30959 192.873325 
L 321.395391 191.751975 
L 322.481192 185.516821 
L 323.566993 189.425826 
L 324.652794 197.318632 
L 325.738595 196.519887 
L 326.824396 201.195999 
L 327.910198 208.127711 
L 328.995999 202.62886 
L 330.0818 205.028448 
L 331.167601 214.675846 
L 332.253402 219.344498 
L 333.339203 221.618125 
L 334.425005 221.593881 
L 335.510806 223.66732 
L 336.596607 218.351347 
L 337.682408 214.484061 
L 338.768209 219.330825 
L 339.85401 212.695618 
L 340.939811 213.420288 
L 342.025613 217.90996 
L 343.111414 226.76805 
L 344.197215 223.531348 
L 345.283016 227.898756 
L 346.368817 231.253444 
L 347.454618 233.104065 
L 348.54042 230.409637 
L 349.626221 237.92278 
L 350.712022 241.187043 
L 351.797823 238.09869 
L 352.883624 244.197568 
L 353.969425 242.349929 
L 355.055227 245.23295 
L 356.141028 242.442171 
L 357.226829 242.821626 
L 358.31263 244.384845 
L 359.398431 243.861382 
L 360.484232 240.697908 
L 361.570033 243.038976 
L 362.655835 252.345549 
L 363.741636 250.302368 
L 364.827437 248.877164 
L 365.913238 249.305504 
L 366.999039 255.175509 
L 368.08484 254.78256 
L 369.170642 258.682305 
L 370.256443 256.754154 
L 371.342244 262.88479 
L 372.428045 265.966731 
L 373.513846 270.649474 
L 374.599647 271.695321 
L 375.685448 272.550416 
L 376.77125 274.879583 
L 377.857051 274.613493 
L 378.942852 278.883618 
L 380.028653 275.948286 
L 381.114454 273.718868 
L 382.200255 278.369932 
L 383.286057 280.719308 
L 384.371858 281.925177 
L 385.457659 283.864679 
L 386.54346 282.518446 
L 387.629261 284.970191 
L 388.715062 285.038171 
L 389.800863 285.649504 
L 390.886665 283.52604 
L 391.972466 282.132182 
L 393.058267 280.435403 
L 394.144068 282.046776 
L 395.229869 283.069773 
L 397.401472 280.057806 
L 398.487273 281.993826 
L 398.487273 281.993826 
" clip-path="url(#p11ec16141c)" style="fill: none; stroke: #008000; stroke-width: 2; stroke-linecap: square"/>
   </g>
   <g id="patch_3">
    <path d="M 57.6 307.584 
L 57.6 41.472 
" style="fill: none; stroke: #bcbcbc; stroke-width: 0.8; stroke-linejoin: miter; stroke-linecap: square"/>
   </g>
   <g id="patch_4">
    <path d="M 414.72 307.584 
L 414.72 41.472 
" style="fill: none; stroke: #bcbcbc; stroke-width: 0.8; stroke-linejoin: miter; stroke-linecap: square"/>
   </g>
   <g id="patch_5">
    <path d="M 57.6 307.584 
L 414.72 307.584 
" style="fill: none; stroke: #bcbcbc; stroke-width: 0.8; stroke-linejoin: miter; stroke-linecap: square"/>
   </g>
   <g id="patch_6">
    <path d="M 57.6 41.472 
L 414.72 41.472 
" style="fill: none; stroke: #bcbcbc; stroke-width: 0.8; stroke-linejoin: miter; stroke-linecap: square"/>
   </g>
   <g id="text_13">
    <!-- Correlations with n = 200 -->
    <g transform="translate(143.94375 35.472) scale(0.144 -0.144)">
     <defs>
      <path id="DejaVuSans-43" d="M 4122 4306 
L 4122 3641 
Q 3803 3938 3442 4084 
Q 3081 4231 2675 4231 
Q 1875 4231 1450 3742 
Q 1025 3253 1025 2328 
Q 1025 1406 1450 917 
Q 1875 428 2675 428 
Q 3081 428 3442 575 
Q 3803 722 4122 1019 
L 4122 359 
Q 3791 134 3420 21 
Q 3050 -91 2638 -91 
Q 1578 -91 968 557 
Q 359 1206 359 2328 
Q 359 3453 968 4101 
Q 1578 4750 2638 4750 
Q 3056 4750 3426 4639 
Q 3797 4528 4122 4306 
z
" transform="scale(0.015625)"/>
      <path id="DejaVuSans-6f" d="M 1959 3097 
Q 1497 3097 1228 2736 
Q 959 2375 959 1747 
Q 959 1119 1226 758 
Q 1494 397 1959 397 
Q 2419 397 2687 759 
Q 2956 1122 2956 1747 
Q 2956 2369 2687 2733 
Q 2419 3097 1959 3097 
z
M 1959 3584 
Q 2709 3584 3137 3096 
Q 3566 2609 3566 1747 
Q 3566 888 3137 398 
Q 2709 -91 1959 -91 
Q 1206 -91 779 398 
Q 353 888 353 1747 
Q 353 2609 779 3096 
Q 1206 3584 1959 3584 
z
" transform="scale(0.015625)"/>
      <path id="DejaVuSans-72" d="M 2631 2963 
Q 2534 3019 2420 3045 
Q 2306 3072 2169 3072 
Q 1681 3072 1420 2755 
Q 1159 2438 1159 1844 
L 1159 0 
L 581 0 
L 581 3500 
L 1159 3500 
L 1159 2956 
Q 1341 3275 1631 3429 
Q 1922 3584 2338 3584 
Q 2397 3584 2469 3576 
Q 2541 3569 2628 3553 
L 2631 2963 
z
" transform="scale(0.015625)"/>
      <path id="DejaVuSans-65" d="M 3597 1894 
L 3597 1613 
L 953 1613 
Q 991 1019 1311 708 
Q 1631 397 2203 397 
Q 2534 397 2845 478 
Q 3156 559 3463 722 
L 3463 178 
Q 3153 47 2828 -22 
Q 2503 -91 2169 -91 
Q 1331 -91 842 396 
Q 353 884 353 1716 
Q 353 2575 817 3079 
Q 1281 3584 2069 3584 
Q 2775 3584 3186 3129 
Q 3597 2675 3597 1894 
z
M 3022 2063 
Q 3016 2534 2758 2815 
Q 2500 3097 2075 3097 
Q 1594 3097 1305 2825 
Q 1016 2553 972 2059 
L 3022 2063 
z
" transform="scale(0.015625)"/>
      <path id="DejaVuSans-6c" d="M 603 4863 
L 1178 4863 
L 1178 0 
L 603 0 
L 603 4863 
z
" transform="scale(0.015625)"/>
      <path id="DejaVuSans-61" d="M 2194 1759 
Q 1497 1759 1228 1600 
Q 959 1441 959 1056 
Q 959 750 1161 570 
Q 1363 391 1709 391 
Q 2188 391 2477 730 
Q 2766 1069 2766 1631 
L 2766 1759 
L 2194 1759 
z
M 3341 1997 
L 3341 0 
L 2766 0 
L 2766 531 
Q 2569 213 2275 61 
Q 1981 -91 1556 -91 
Q 1019 -91 701 211 
Q 384 513 384 1019 
Q 384 1609 779 1909 
Q 1175 2209 1959 2209 
L 2766 2209 
L 2766 2266 
Q 2766 2663 2505 2880 
Q 2244 3097 1772 3097 
Q 1472 3097 1187 3025 
Q 903 2953 641 2809 
L 641 3341 
Q 956 3463 1253 3523 
Q 1550 3584 1831 3584 
Q 2591 3584 2966 3190 
Q 3341 2797 3341 1997 
z
" transform="scale(0.015625)"/>
      <path id="DejaVuSans-74" d="M 1172 4494 
L 1172 3500 
L 2356 3500 
L 2356 3053 
L 1172 3053 
L 1172 1153 
Q 1172 725 1289 603 
Q 1406 481 1766 481 
L 2356 481 
L 2356 0 
L 1766 0 
Q 1100 0 847 248 
Q 594 497 594 1153 
L 594 3053 
L 172 3053 
L 172 3500 
L 594 3500 
L 594 4494 
L 1172 4494 
z
" transform="scale(0.015625)"/>
      <path id="DejaVuSans-69" d="M 603 3500 
L 1178 3500 
L 1178 0 
L 603 0 
L 603 3500 
z
M 603 4863 
L 1178 4863 
L 1178 4134 
L 603 4134 
L 603 4863 
z
" transform="scale(0.015625)"/>
      <path id="DejaVuSans-6e" d="M 3513 2113 
L 3513 0 
L 2938 0 
L 2938 2094 
Q 2938 2591 2744 2837 
Q 2550 3084 2163 3084 
Q 1697 3084 1428 2787 
Q 1159 2491 1159 1978 
L 1159 0 
L 581 0 
L 581 3500 
L 1159 3500 
L 1159 2956 
Q 1366 3272 1645 3428 
Q 1925 3584 2291 3584 
Q 2894 3584 3203 3211 
Q 3513 2838 3513 2113 
z
" transform="scale(0.015625)"/>
      <path id="DejaVuSans-73" d="M 2834 3397 
L 2834 2853 
Q 2591 2978 2328 3040 
Q 2066 3103 1784 3103 
Q 1356 3103 1142 2972 
Q 928 2841 928 2578 
Q 928 2378 1081 2264 
Q 1234 2150 1697 2047 
L 1894 2003 
Q 2506 1872 2764 1633 
Q 3022 1394 3022 966 
Q 3022 478 2636 193 
Q 2250 -91 1575 -91 
Q 1294 -91 989 -36 
Q 684 19 347 128 
L 347 722 
Q 666 556 975 473 
Q 1284 391 1588 391 
Q 1994 391 2212 530 
Q 2431 669 2431 922 
Q 2431 1156 2273 1281 
Q 2116 1406 1581 1522 
L 1381 1569 
Q 847 1681 609 1914 
Q 372 2147 372 2553 
Q 372 3047 722 3315 
Q 1072 3584 1716 3584 
Q 2034 3584 2315 3537 
Q 2597 3491 2834 3397 
z
" transform="scale(0.015625)"/>
      <path id="DejaVuSans-20" transform="scale(0.015625)"/>
      <path id="DejaVuSans-77" d="M 269 3500 
L 844 3500 
L 1563 769 
L 2278 3500 
L 2956 3500 
L 3675 769 
L 4391 3500 
L 4966 3500 
L 4050 0 
L 3372 0 
L 2619 2869 
L 1863 0 
L 1184 0 
L 269 3500 
z
" transform="scale(0.015625)"/>
      <path id="DejaVuSans-68" d="M 3513 2113 
L 3513 0 
L 2938 0 
L 2938 2094 
Q 2938 2591 2744 2837 
Q 2550 3084 2163 3084 
Q 1697 3084 1428 2787 
Q 1159 2491 1159 1978 
L 1159 0 
L 581 0 
L 581 4863 
L 1159 4863 
L 1159 2956 
Q 1366 3272 1645 3428 
Q 1925 3584 2291 3584 
Q 2894 3584 3203 3211 
Q 3513 2838 3513 2113 
z
" transform="scale(0.015625)"/>
      <path id="DejaVuSans-3d" d="M 678 2906 
L 4684 2906 
L 4684 2381 
L 678 2381 
L 678 2906 
z
M 678 1631 
L 4684 1631 
L 4684 1100 
L 678 1100 
L 678 1631 
z
" transform="scale(0.015625)"/>
     </defs>
     <use xlink:href="#DejaVuSans-43"/>
     <use xlink:href="#DejaVuSans-6f" transform="translate(69.824219 0)"/>
     <use xlink:href="#DejaVuSans-72" transform="translate(131.005859 0)"/>
     <use xlink:href="#DejaVuSans-72" transform="translate(170.369141 0)"/>
     <use xlink:href="#DejaVuSans-65" transform="translate(209.232422 0)"/>
     <use xlink:href="#DejaVuSans-6c" transform="translate(270.755859 0)"/>
     <use xlink:href="#DejaVuSans-61" transform="translate(298.539062 0)"/>
     <use xlink:href="#DejaVuSans-74" transform="translate(359.818359 0)"/>
     <use xlink:href="#DejaVuSans-69" transform="translate(399.027344 0)"/>
     <use xlink:href="#DejaVuSans-6f" transform="translate(426.810547 0)"/>
     <use xlink:href="#DejaVuSans-6e" transform="translate(487.992188 0)"/>
     <use xlink:href="#DejaVuSans-73" transform="translate(551.371094 0)"/>
     <use xlink:href="#DejaVuSans-20" transform="translate(603.470703 0)"/>
     <use xlink:href="#DejaVuSans-77" transform="translate(635.257812 0)"/>
     <use xlink:href="#DejaVuSans-69" transform="translate(717.044922 0)"/>
     <use xlink:href="#DejaVuSans-74" transform="translate(744.828125 0)"/>
     <use xlink:href="#DejaVuSans-68" transform="translate(784.037109 0)"/>
     <use xlink:href="#DejaVuSans-20" transform="translate(847.416016 0)"/>
     <use xlink:href="#DejaVuSans-6e" transform="translate(879.203125 0)"/>
     <use xlink:href="#DejaVuSans-20" transform="translate(942.582031 0)"/>
     <use xlink:href="#DejaVuSans-3d" transform="translate(974.369141 0)"/>
     <use xlink:href="#DejaVuSans-20" transform="translate(1058.158203 0)"/>
     <use xlink:href="#DejaVuSans-32" transform="translate(1089.945312 0)"/>
     <use xlink:href="#DejaVuSans-30" transform="translate(1153.568359 0)"/>
     <use xlink:href="#DejaVuSans-30" transform="translate(1217.191406 0)"/>
    </g>
   </g>
  </g>
 </g>
 <defs>
  <clipPath id="p11ec16141c">
   <rect x="57.6" y="41.472" width="357.12" height="266.112"/>
  </clipPath>
 </defs>
</svg>
