<?xml version="1.0" encoding="utf-8" standalone="no"?>
<!DOCTYPE svg PUBLIC "-//W3C//DTD SVG 1.1//EN"
  "http://www.w3.org/Graphics/SVG/1.1/DTD/svg11.dtd">
<svg xmlns:xlink="http://www.w3.org/1999/xlink" width="460.8pt" height="345.6pt" viewBox="0 0 460.8 345.6" xmlns="http://www.w3.org/2000/svg" version="1.1">
 <metadata>
  <rdf:RDF xmlns:dc="http://purl.org/dc/elements/1.1/" xmlns:cc="http://creativecommons.org/ns#" xmlns:rdf="http://www.w3.org/1999/02/22-rdf-syntax-ns#">
   <cc:Work>
    <dc:type rdf:resource="http://purl.org/dc/dcmitype/StillImage"/>
    <dc:date>2025-10-04T12:05:51.452015</dc:date>
    <dc:format>image/svg+xml</dc:format>
    <dc:creator>
     <cc:Agent>
      <dc:title>Matplotlib v3.10.5, https://matplotlib.org/</dc:title>
     </cc:Agent>
    </dc:creator>
   </cc:Work>
  </rdf:RDF>
 </metadata>
 <defs>
  <style type="text/css">*{stroke-linejoin: round; stroke-linecap: butt}</style>
 </defs>
 <g id="figure_1">
  <g id="patch_1">
   <path d="M 0 345.6 
L 460.8 345.6 
L 460.8 0 
L 0 0 
z
" style="fill: #ffffff"/>
  </g>
  <g id="axes_1">
   <g id="patch_2">
    <path d="M 57.6 307.584 
L 414.72 307.584 
L 414.72 41.472 
L 57.6 41.472 
z
" style="fill: #eeeeee"/>
   </g>
   <g id="matplotlib.axis_1">
    <g id="xtick_1">
     <g id="line2d_1">
      <path d="M 73.832727 307.584 
L 73.832727 41.472 
" clip-path="url(#pd631db5818)" style="fill: none; stroke-dasharray: 1.85,0.8; stroke-dashoffset: 0; stroke: #b2b2b2; stroke-width: 0.5"/>
     </g>
     <g id="line2d_2">
      <defs>
       <path id="maf5f5052b5" d="M 0 0 
L 0 -3.5 
" style="stroke: #000000; stroke-width: 0.8"/>
      </defs>
      <g>
       <use xlink:href="#maf5f5052b5" x="73.832727" y="307.584" style="stroke: #000000; stroke-width: 0.8"/>
      </g>
     </g>
     <g id="text_1">
      <!-- 0.0 -->
      <g transform="translate(65.881165 318.682437) scale(0.1 -0.1)">
       <defs>
        <path id="DejaVuSans-30" d="M 2034 4250 
Q 1547 4250 1301 3770 
Q 1056 3291 1056 2328 
Q 1056 1369 1301 889 
Q 1547 409 2034 409 
Q 2525 409 2770 889 
Q 3016 1369 3016 2328 
Q 3016 3291 2770 3770 
Q 2525 4250 2034 4250 
z
M 2034 4750 
Q 2819 4750 3233 4129 
Q 3647 3509 3647 2328 
Q 3647 1150 3233 529 
Q 2819 -91 2034 -91 
Q 1250 -91 836 529 
Q 422 1150 422 2328 
Q 422 3509 836 4129 
Q 1250 4750 2034 4750 
z
" transform="scale(0.015625)"/>
        <path id="DejaVuSans-2e" d="M 684 794 
L 1344 794 
L 1344 0 
L 684 0 
L 684 794 
z
" transform="scale(0.015625)"/>
       </defs>
       <use xlink:href="#DejaVuSans-30"/>
       <use xlink:href="#DejaVuSans-2e" transform="translate(63.623047 0)"/>
       <use xlink:href="#DejaVuSans-30" transform="translate(95.410156 0)"/>
      </g>
     </g>
    </g>
    <g id="xtick_2">
     <g id="line2d_3">
      <path d="M 150.924609 307.584 
L 150.924609 41.472 
" clip-path="url(#pd631db5818)" style="fill: none; stroke-dasharray: 1.85,0.8; stroke-dashoffset: 0; stroke: #b2b2b2; stroke-width: 0.5"/>
     </g>
     <g id="line2d_4">
      <g>
       <use xlink:href="#maf5f5052b5" x="150.924609" y="307.584" style="stroke: #000000; stroke-width: 0.8"/>
      </g>
     </g>
     <g id="text_2">
      <!-- 0.5 -->
      <g transform="translate(142.973047 318.682437) scale(0.1 -0.1)">
       <defs>
        <path id="DejaVuSans-35" d="M 691 4666 
L 3169 4666 
L 3169 4134 
L 1269 4134 
L 1269 2991 
Q 1406 3038 1543 3061 
Q 1681 3084 1819 3084 
Q 2600 3084 3056 2656 
Q 3513 2228 3513 1497 
Q 3513 744 3044 326 
Q 2575 -91 1722 -91 
Q 1428 -91 1123 -41 
Q 819 9 494 109 
L 494 744 
Q 775 591 1075 516 
Q 1375 441 1709 441 
Q 2250 441 2565 725 
Q 2881 1009 2881 1497 
Q 2881 1984 2565 2268 
Q 2250 2553 1709 2553 
Q 1456 2553 1204 2497 
Q 953 2441 691 2322 
L 691 4666 
z
" transform="scale(0.015625)"/>
       </defs>
       <use xlink:href="#DejaVuSans-30"/>
       <use xlink:href="#DejaVuSans-2e" transform="translate(63.623047 0)"/>
       <use xlink:href="#DejaVuSans-35" transform="translate(95.410156 0)"/>
      </g>
     </g>
    </g>
    <g id="xtick_3">
     <g id="line2d_5">
      <path d="M 228.016491 307.584 
L 228.016491 41.472 
" clip-path="url(#pd631db5818)" style="fill: none; stroke-dasharray: 1.85,0.8; stroke-dashoffset: 0; stroke: #b2b2b2; stroke-width: 0.5"/>
     </g>
     <g id="line2d_6">
      <g>
       <use xlink:href="#maf5f5052b5" x="228.016491" y="307.584" style="stroke: #000000; stroke-width: 0.8"/>
      </g>
     </g>
     <g id="text_3">
      <!-- 1.0 -->
      <g transform="translate(220.064929 318.682437) scale(0.1 -0.1)">
       <defs>
        <path id="DejaVuSans-31" d="M 794 531 
L 1825 531 
L 1825 4091 
L 703 3866 
L 703 4441 
L 1819 4666 
L 2450 4666 
L 2450 531 
L 3481 531 
L 3481 0 
L 794 0 
L 794 531 
z
" transform="scale(0.015625)"/>
       </defs>
       <use xlink:href="#DejaVuSans-31"/>
       <use xlink:href="#DejaVuSans-2e" transform="translate(63.623047 0)"/>
       <use xlink:href="#DejaVuSans-30" transform="translate(95.410156 0)"/>
      </g>
     </g>
    </g>
    <g id="xtick_4">
     <g id="line2d_7">
      <path d="M 305.108373 307.584 
L 305.108373 41.472 
" clip-path="url(#pd631db5818)" style="fill: none; stroke-dasharray: 1.85,0.8; stroke-dashoffset: 0; stroke: #b2b2b2; stroke-width: 0.5"/>
     </g>
     <g id="line2d_8">
      <g>
       <use xlink:href="#maf5f5052b5" x="305.108373" y="307.584" style="stroke: #000000; stroke-width: 0.8"/>
      </g>
     </g>
     <g id="text_4">
      <!-- 1.5 -->
      <g transform="translate(297.156811 318.682437) scale(0.1 -0.1)">
       <use xlink:href="#DejaVuSans-31"/>
       <use xlink:href="#DejaVuSans-2e" transform="translate(63.623047 0)"/>
       <use xlink:href="#DejaVuSans-35" transform="translate(95.410156 0)"/>
      </g>
     </g>
    </g>
    <g id="xtick_5">
     <g id="line2d_9">
      <path d="M 382.200255 307.584 
L 382.200255 41.472 
" clip-path="url(#pd631db5818)" style="fill: none; stroke-dasharray: 1.85,0.8; stroke-dashoffset: 0; stroke: #b2b2b2; stroke-width: 0.5"/>
     </g>
     <g id="line2d_10">
      <g>
       <use xlink:href="#maf5f5052b5" x="382.200255" y="307.584" style="stroke: #000000; stroke-width: 0.8"/>
      </g>
     </g>
     <g id="text_5">
      <!-- 2.0 -->
      <g transform="translate(374.248693 318.682437) scale(0.1 -0.1)">
       <defs>
        <path id="DejaVuSans-32" d="M 1228 531 
L 3431 531 
L 3431 0 
L 469 0 
L 469 531 
Q 828 903 1448 1529 
Q 2069 2156 2228 2338 
Q 2531 2678 2651 2914 
Q 2772 3150 2772 3378 
Q 2772 3750 2511 3984 
Q 2250 4219 1831 4219 
Q 1534 4219 1204 4116 
Q 875 4013 500 3803 
L 500 4441 
Q 881 4594 1212 4672 
Q 1544 4750 1819 4750 
Q 2544 4750 2975 4387 
Q 3406 4025 3406 3419 
Q 3406 3131 3298 2873 
Q 3191 2616 2906 2266 
Q 2828 2175 2409 1742 
Q 1991 1309 1228 531 
z
" transform="scale(0.015625)"/>
       </defs>
       <use xlink:href="#DejaVuSans-32"/>
       <use xlink:href="#DejaVuSans-2e" transform="translate(63.623047 0)"/>
       <use xlink:href="#DejaVuSans-30" transform="translate(95.410156 0)"/>
      </g>
     </g>
    </g>
    <g id="text_6">
     <!-- $s/s_c$ -->
     <g transform="translate(225.3 333.762125) scale(0.12 -0.12)">
      <defs>
       <path id="Cmmi10-73" d="M 556 391 
Q 728 97 1247 97 
Q 1472 97 1675 173 
Q 1878 250 2011 403 
Q 2144 556 2144 775 
Q 2144 941 2025 1047 
Q 1906 1153 1734 1191 
L 1388 1259 
Q 1150 1319 997 1481 
Q 844 1644 844 1875 
Q 844 2159 998 2378 
Q 1153 2597 1406 2712 
Q 1659 2828 1931 2828 
Q 2222 2828 2451 2689 
Q 2681 2550 2681 2278 
Q 2681 2131 2598 2018 
Q 2516 1906 2369 1906 
Q 2284 1906 2223 1961 
Q 2163 2016 2163 2100 
Q 2163 2175 2205 2245 
Q 2247 2316 2317 2358 
Q 2388 2400 2463 2400 
Q 2406 2538 2251 2600 
Q 2097 2663 1919 2663 
Q 1756 2663 1593 2597 
Q 1431 2531 1332 2404 
Q 1234 2278 1234 2106 
Q 1234 1991 1315 1903 
Q 1397 1816 1516 1778 
L 1888 1703 
Q 2066 1666 2214 1570 
Q 2363 1475 2448 1329 
Q 2534 1184 2534 997 
Q 2534 759 2401 528 
Q 2269 297 2075 159 
Q 1734 -72 1241 -72 
Q 900 -72 615 84 
Q 331 241 331 550 
Q 331 725 432 854 
Q 534 984 709 984 
Q 813 984 883 921 
Q 953 859 953 756 
Q 953 609 843 500 
Q 734 391 588 391 
L 556 391 
z
" transform="scale(0.015625)"/>
       <path id="Cmmi10-3d" d="M 359 -1472 
Q 359 -1453 366 -1447 
L 2591 4722 
Q 2603 4759 2634 4779 
Q 2666 4800 2706 4800 
Q 2763 4800 2798 4765 
Q 2834 4731 2834 4672 
L 2834 4647 
L 609 -1522 
Q 572 -1600 488 -1600 
Q 434 -1600 396 -1562 
Q 359 -1525 359 -1472 
z
" transform="scale(0.015625)"/>
       <path id="Cmmi10-63" d="M 750 763 
Q 750 484 892 290 
Q 1034 97 1300 97 
Q 1681 97 2032 272 
Q 2384 447 2606 756 
Q 2625 775 2656 775 
Q 2688 775 2720 739 
Q 2753 703 2753 672 
Q 2753 647 2741 634 
Q 2506 306 2109 117 
Q 1713 -72 1288 -72 
Q 981 -72 747 73 
Q 513 219 384 462 
Q 256 706 256 1013 
Q 256 1444 497 1869 
Q 738 2294 1138 2561 
Q 1538 2828 1978 2828 
Q 2266 2828 2495 2689 
Q 2725 2550 2725 2278 
Q 2725 2103 2623 1979 
Q 2522 1856 2350 1856 
Q 2247 1856 2176 1920 
Q 2106 1984 2106 2088 
Q 2106 2238 2215 2344 
Q 2325 2450 2472 2450 
L 2484 2450 
Q 2409 2559 2267 2611 
Q 2125 2663 1972 2663 
Q 1597 2663 1315 2342 
Q 1034 2022 892 1576 
Q 750 1131 750 763 
z
" transform="scale(0.015625)"/>
      </defs>
      <use xlink:href="#Cmmi10-73"/>
      <use xlink:href="#Cmmi10-3d" transform="translate(46.777344 0)"/>
      <use xlink:href="#Cmmi10-73" transform="translate(96.777344 0)"/>
      <use xlink:href="#Cmmi10-63" transform="translate(143.554688 -17.00625) scale(0.7)"/>
     </g>
    </g>
   </g>
   <g id="matplotlib.axis_2">
    <g id="ytick_1">
     <g id="line2d_11">
      <path d="M 57.6 266.791656 
L 414.72 266.791656 
" clip-path="url(#pd631db5818)" style="fill: none; stroke-dasharray: 1.85,0.8; stroke-dashoffset: 0; stroke: #b2b2b2; stroke-width: 0.5"/>
     </g>
     <g id="line2d_12">
      <defs>
       <path id="mf19202cbb4" d="M 0 0 
L 3.5 0 
" style="stroke: #000000; stroke-width: 0.8"/>
      </defs>
      <g>
       <use xlink:href="#mf19202cbb4" x="57.6" y="266.791656" style="stroke: #000000; stroke-width: 0.8"/>
      </g>
     </g>
     <g id="text_7">
      <!-- 0.2 -->
      <g transform="translate(38.196875 270.590875) scale(0.1 -0.1)">
       <use xlink:href="#DejaVuSans-30"/>
       <use xlink:href="#DejaVuSans-2e" transform="translate(63.623047 0)"/>
       <use xlink:href="#DejaVuSans-32" transform="translate(95.410156 0)"/>
      </g>
     </g>
    </g>
    <g id="ytick_2">
     <g id="line2d_13">
      <path d="M 57.6 208.483119 
L 414.72 208.483119 
" clip-path="url(#pd631db5818)" style="fill: none; stroke-dasharray: 1.85,0.8; stroke-dashoffset: 0; stroke: #b2b2b2; stroke-width: 0.5"/>
     </g>
     <g id="line2d_14">
      <g>
       <use xlink:href="#mf19202cbb4" x="57.6" y="208.483119" style="stroke: #000000; stroke-width: 0.8"/>
      </g>
     </g>
     <g id="text_8">
      <!-- 0.4 -->
      <g transform="translate(38.196875 212.282337) scale(0.1 -0.1)">
       <defs>
        <path id="DejaVuSans-34" d="M 2419 4116 
L 825 1625 
L 2419 1625 
L 2419 4116 
z
M 2253 4666 
L 3047 4666 
L 3047 1625 
L 3713 1625 
L 3713 1100 
L 3047 1100 
L 3047 0 
L 2419 0 
L 2419 1100 
L 313 1100 
L 313 1709 
L 2253 4666 
z
" transform="scale(0.015625)"/>
       </defs>
       <use xlink:href="#DejaVuSans-30"/>
       <use xlink:href="#DejaVuSans-2e" transform="translate(63.623047 0)"/>
       <use xlink:href="#DejaVuSans-34" transform="translate(95.410156 0)"/>
      </g>
     </g>
    </g>
    <g id="ytick_3">
     <g id="line2d_15">
      <path d="M 57.6 150.174581 
L 414.72 150.174581 
" clip-path="url(#pd631db5818)" style="fill: none; stroke-dasharray: 1.85,0.8; stroke-dashoffset: 0; stroke: #b2b2b2; stroke-width: 0.5"/>
     </g>
     <g id="line2d_16">
      <g>
       <use xlink:href="#mf19202cbb4" x="57.6" y="150.174581" style="stroke: #000000; stroke-width: 0.8"/>
      </g>
     </g>
     <g id="text_9">
      <!-- 0.6 -->
      <g transform="translate(38.196875 153.9738) scale(0.1 -0.1)">
       <defs>
        <path id="DejaVuSans-36" d="M 2113 2584 
Q 1688 2584 1439 2293 
Q 1191 2003 1191 1497 
Q 1191 994 1439 701 
Q 1688 409 2113 409 
Q 2538 409 2786 701 
Q 3034 994 3034 1497 
Q 3034 2003 2786 2293 
Q 2538 2584 2113 2584 
z
M 3366 4563 
L 3366 3988 
Q 3128 4100 2886 4159 
Q 2644 4219 2406 4219 
Q 1781 4219 1451 3797 
Q 1122 3375 1075 2522 
Q 1259 2794 1537 2939 
Q 1816 3084 2150 3084 
Q 2853 3084 3261 2657 
Q 3669 2231 3669 1497 
Q 3669 778 3244 343 
Q 2819 -91 2113 -91 
Q 1303 -91 875 529 
Q 447 1150 447 2328 
Q 447 3434 972 4092 
Q 1497 4750 2381 4750 
Q 2619 4750 2861 4703 
Q 3103 4656 3366 4563 
z
" transform="scale(0.015625)"/>
       </defs>
       <use xlink:href="#DejaVuSans-30"/>
       <use xlink:href="#DejaVuSans-2e" transform="translate(63.623047 0)"/>
       <use xlink:href="#DejaVuSans-36" transform="translate(95.410156 0)"/>
      </g>
     </g>
    </g>
    <g id="ytick_4">
     <g id="line2d_17">
      <path d="M 57.6 91.866044 
L 414.72 91.866044 
" clip-path="url(#pd631db5818)" style="fill: none; stroke-dasharray: 1.85,0.8; stroke-dashoffset: 0; stroke: #b2b2b2; stroke-width: 0.5"/>
     </g>
     <g id="line2d_18">
      <g>
       <use xlink:href="#mf19202cbb4" x="57.6" y="91.866044" style="stroke: #000000; stroke-width: 0.8"/>
      </g>
     </g>
     <g id="text_10">
      <!-- 0.8 -->
      <g transform="translate(38.196875 95.665263) scale(0.1 -0.1)">
       <defs>
        <path id="DejaVuSans-38" d="M 2034 2216 
Q 1584 2216 1326 1975 
Q 1069 1734 1069 1313 
Q 1069 891 1326 650 
Q 1584 409 2034 409 
Q 2484 409 2743 651 
Q 3003 894 3003 1313 
Q 3003 1734 2745 1975 
Q 2488 2216 2034 2216 
z
M 1403 2484 
Q 997 2584 770 2862 
Q 544 3141 544 3541 
Q 544 4100 942 4425 
Q 1341 4750 2034 4750 
Q 2731 4750 3128 4425 
Q 3525 4100 3525 3541 
Q 3525 3141 3298 2862 
Q 3072 2584 2669 2484 
Q 3125 2378 3379 2068 
Q 3634 1759 3634 1313 
Q 3634 634 3220 271 
Q 2806 -91 2034 -91 
Q 1263 -91 848 271 
Q 434 634 434 1313 
Q 434 1759 690 2068 
Q 947 2378 1403 2484 
z
M 1172 3481 
Q 1172 3119 1398 2916 
Q 1625 2713 2034 2713 
Q 2441 2713 2670 2916 
Q 2900 3119 2900 3481 
Q 2900 3844 2670 4047 
Q 2441 4250 2034 4250 
Q 1625 4250 1398 4047 
Q 1172 3844 1172 3481 
z
" transform="scale(0.015625)"/>
       </defs>
       <use xlink:href="#DejaVuSans-30"/>
       <use xlink:href="#DejaVuSans-2e" transform="translate(63.623047 0)"/>
       <use xlink:href="#DejaVuSans-38" transform="translate(95.410156 0)"/>
      </g>
     </g>
    </g>
    <g id="text_11">
     <!-- $D_{s}$ -->
     <g transform="translate(31.70125 181.848) rotate(-90) scale(0.12 -0.12)">
      <defs>
       <path id="Cmmi10-44" d="M 313 0 
Q 250 0 250 84 
Q 253 100 262 139 
Q 272 178 289 201 
Q 306 225 331 225 
Q 722 225 878 269 
Q 959 297 997 441 
L 1875 3956 
Q 1888 4019 1888 4044 
Q 1888 4113 1813 4122 
Q 1691 4147 1350 4147 
Q 1288 4147 1288 4231 
Q 1291 4247 1300 4286 
Q 1309 4325 1326 4348 
Q 1344 4372 1369 4372 
L 3669 4372 
Q 4116 4372 4450 4155 
Q 4784 3938 4962 3570 
Q 5141 3203 5141 2759 
Q 5141 2269 4937 1778 
Q 4734 1288 4368 881 
Q 4003 475 3534 237 
Q 3066 0 2572 0 
L 313 0 
z
M 1509 275 
Q 1509 225 1728 225 
L 2472 225 
Q 2828 225 3159 372 
Q 3491 519 3750 775 
Q 3991 1016 4175 1406 
Q 4359 1797 4461 2222 
Q 4563 2647 4563 3003 
Q 4563 3263 4486 3472 
Q 4409 3681 4270 3831 
Q 4131 3981 3922 4064 
Q 3713 4147 3450 4147 
L 2747 4147 
Q 2572 4147 2515 4117 
Q 2459 4088 2413 3928 
L 1538 416 
Q 1509 338 1509 275 
z
" transform="scale(0.015625)"/>
      </defs>
      <use xlink:href="#Cmmi10-44" transform="translate(0 0.6875)"/>
      <use xlink:href="#Cmmi10-73" transform="translate(82.714844 -16.31875) scale(0.7)"/>
     </g>
    </g>
   </g>
   <g id="line2d_19">
    <path d="M 73.832727 53.568 
L 74.918528 61.995923 
L 77.090131 75.699575 
L 78.175932 81.041063 
L 79.261733 87.258971 
L 80.347534 91.216253 
L 81.433335 97.054568 
L 82.519137 101.144398 
L 85.77654 116.579084 
L 86.862341 120.976316 
L 87.948142 124.694287 
L 89.033943 129.142585 
L 90.119745 130.529557 
L 91.205546 133.262834 
L 92.291347 137.279197 
L 93.377148 138.462783 
L 95.54875 144.96025 
L 96.634552 146.197827 
L 97.720353 150.634235 
L 98.806154 151.809405 
L 99.891955 155.750472 
L 100.977756 158.299246 
L 102.063557 159.935324 
L 103.149358 162.493097 
L 104.23516 163.664669 
L 105.320961 167.443034 
L 106.406762 169.800165 
L 107.492563 167.903839 
L 108.578364 168.643843 
L 109.664165 171.006431 
L 111.835768 174.624747 
L 112.921569 177.085277 
L 114.00737 179.081991 
L 115.093171 180.313853 
L 116.178972 180.527323 
L 117.264773 182.068829 
L 118.350575 184.71578 
L 119.436376 188.01773 
L 120.522177 188.288732 
L 121.607978 189.484205 
L 122.693779 191.861109 
L 123.77958 193.538315 
L 124.865382 194.059398 
L 125.951183 191.729412 
L 127.036984 191.880972 
L 128.122785 190.42541 
L 129.208586 194.523491 
L 130.294387 195.413957 
L 131.380189 197.576618 
L 132.46599 201.66387 
L 133.551791 202.315932 
L 134.637592 204.939942 
L 135.723393 207.102206 
L 136.809194 209.736205 
L 137.894995 208.578993 
L 138.980797 208.516809 
L 140.066598 209.531044 
L 141.152399 210.247586 
L 142.2382 209.83089 
L 143.324001 212.96282 
L 144.409802 212.035921 
L 145.495604 207.77963 
L 146.581405 207.50575 
L 147.667206 212.793887 
L 148.753007 212.931553 
L 149.838808 210.99783 
L 150.924609 209.836276 
L 152.01041 210.139543 
L 153.096212 211.82225 
L 154.182013 211.953807 
L 155.267814 212.329111 
L 156.353615 211.264193 
L 157.439416 212.227256 
L 158.525217 211.319697 
L 159.611019 208.259939 
L 160.69682 208.687128 
L 161.782621 206.712658 
L 162.868422 207.460712 
L 163.954223 203.333255 
L 165.040024 203.983864 
L 166.125825 205.320824 
L 168.297428 212.833575 
L 169.383229 217.799814 
L 170.46903 221.23726 
L 171.554831 220.742622 
L 172.640632 213.504724 
L 173.726434 217.226318 
L 174.812235 215.970845 
L 175.898036 217.413359 
L 176.983837 220.070813 
L 178.069638 225.936403 
L 179.155439 223.499559 
L 180.24124 225.920304 
L 181.327042 224.478489 
L 182.412843 219.288991 
L 183.498644 220.89108 
L 184.584445 225.248436 
L 185.670246 226.248844 
L 186.756047 223.871562 
L 187.841849 222.920524 
L 188.92765 218.517285 
L 190.013451 217.180917 
L 191.099252 212.189047 
L 192.185053 210.935173 
L 193.270854 216.043959 
L 194.356656 214.845089 
L 195.442457 213.02163 
L 196.528258 212.244395 
L 197.614059 212.514456 
L 198.69986 203.628194 
L 199.785661 202.98275 
L 200.871462 204.293484 
L 201.957264 201.529316 
L 203.043065 203.058431 
L 204.128866 199.798151 
L 205.214667 201.491932 
L 206.300468 201.178442 
L 207.386269 196.129103 
L 208.472071 198.102023 
L 209.557872 202.359194 
L 210.643673 199.36878 
L 211.729474 199.656498 
L 212.815275 198.872954 
L 213.901076 193.209108 
L 214.986877 190.993392 
L 216.072679 191.191884 
L 217.15848 187.374737 
L 218.244281 187.702787 
L 219.330082 186.001549 
L 220.415883 186.978682 
L 221.501684 186.530226 
L 222.587486 183.351657 
L 223.673287 172.296554 
L 224.759088 170.021912 
L 225.844889 163.534414 
L 226.93069 166.174724 
L 228.016491 168.489371 
L 229.102292 169.891555 
L 230.188094 176.885982 
L 231.273895 181.674395 
L 232.359696 182.506059 
L 233.445497 180.323374 
L 235.617099 179.07992 
L 236.702901 181.259136 
L 237.788702 178.724245 
L 238.874503 184.958848 
L 239.960304 183.259234 
L 241.046105 177.817924 
L 242.131906 183.619897 
L 243.217708 183.326657 
L 244.303509 181.286181 
L 245.38931 174.758025 
L 246.475111 178.043478 
L 247.560912 173.518024 
L 248.646713 168.278621 
L 249.732514 164.778809 
L 250.818316 167.779673 
L 251.904117 171.949329 
L 252.989918 174.950604 
L 254.075719 179.686251 
L 255.16152 182.005425 
L 256.247321 182.687288 
L 257.333123 184.42368 
L 258.418924 183.879669 
L 259.504725 179.131077 
L 260.590526 175.807005 
L 261.676327 179.333222 
L 262.762128 172.895933 
L 263.847929 169.528709 
L 264.933731 158.419044 
L 266.019532 149.681045 
L 267.105333 142.547344 
L 269.276935 124.65787 
L 270.362736 133.754677 
L 271.448538 135.881352 
L 272.534339 133.770699 
L 273.62014 135.227783 
L 274.705941 130.786483 
L 275.791742 140.936977 
L 276.877543 130.704869 
L 277.963344 136.835986 
L 279.049146 129.274381 
L 280.134947 130.63634 
L 281.220748 118.160055 
L 282.306549 126.13429 
L 284.478151 135.680962 
L 285.563953 130.181663 
L 286.649754 137.941751 
L 287.735555 144.636246 
L 288.821356 145.26484 
L 289.907157 148.789286 
L 290.992958 154.842984 
L 292.07876 159.689731 
L 293.164561 163.729566 
L 294.250362 167.22403 
L 295.336163 169.311353 
L 296.421964 168.480542 
L 297.507765 168.643375 
L 298.593566 169.437096 
L 299.679368 172.991772 
L 300.765169 172.707139 
L 301.85097 183.205779 
L 302.936771 183.634607 
L 304.022572 179.78882 
L 305.108373 171.623061 
L 306.194175 173.515237 
L 307.279976 180.569027 
L 308.365777 184.347986 
L 309.451578 191.078706 
L 310.537379 195.825818 
L 311.62318 195.962258 
L 312.708981 190.253221 
L 314.880584 206.973532 
L 315.966385 204.751072 
L 317.052186 195.756647 
L 318.137987 195.902409 
L 319.223788 188.508109 
L 320.30959 195.647079 
L 321.395391 194.44034 
L 322.481192 187.73039 
L 323.566993 191.937058 
L 324.652794 200.430888 
L 325.738595 199.57132 
L 326.824396 204.60351 
L 327.910198 212.063059 
L 328.995999 206.145481 
L 330.0818 208.727793 
L 331.167601 219.109823 
L 332.253402 224.133985 
L 333.339203 226.580744 
L 334.425005 226.554654 
L 335.510806 228.785982 
L 336.596607 223.065207 
L 337.682408 218.903434 
L 338.768209 224.119271 
L 339.85401 216.978804 
L 340.939811 217.758657 
L 342.025613 222.590209 
L 343.111414 232.122827 
L 344.197215 228.639656 
L 345.283016 233.339635 
L 346.368817 236.949776 
L 347.454618 238.941318 
L 348.54042 236.041715 
L 349.626221 244.12697 
L 350.712022 247.639801 
L 351.797823 244.316276 
L 352.883624 250.879572 
L 353.969425 248.891238 
L 355.055227 251.993797 
L 356.141028 248.990504 
L 357.226829 249.398855 
L 358.31263 251.081109 
L 359.398431 250.517786 
L 360.484232 247.113419 
L 361.570033 249.632755 
L 362.655835 259.648008 
L 363.741636 257.449241 
L 364.827437 255.915511 
L 365.913238 256.376469 
L 366.999039 262.693464 
L 368.08484 262.270592 
L 369.170642 266.467296 
L 370.256443 264.392319 
L 371.342244 270.989793 
L 372.428045 274.306419 
L 373.513846 279.345744 
L 374.599647 280.471231 
L 375.685448 281.391439 
L 376.77125 283.897969 
L 377.857051 283.611616 
L 378.942852 288.206904 
L 380.028653 285.048051 
L 381.114454 282.648867 
L 382.200255 287.654101 
L 383.286057 290.182378 
L 384.371858 291.480072 
L 385.457659 293.567264 
L 386.54346 292.118517 
L 387.629261 294.756958 
L 388.715062 294.830115 
L 389.800863 295.488 
L 390.886665 293.202838 
L 391.972466 291.70284 
L 393.058267 289.876854 
L 394.144068 291.61093 
L 395.229869 292.711826 
L 397.401472 289.470504 
L 398.487273 291.553948 
L 398.487273 291.553948 
" clip-path="url(#pd631db5818)" style="fill: none; stroke: #348abd; stroke-width: 2; stroke-linecap: square"/>
   </g>
   <g id="patch_3">
    <path d="M 57.6 307.584 
L 57.6 41.472 
" style="fill: none; stroke: #bcbcbc; stroke-width: 0.8; stroke-linejoin: miter; stroke-linecap: square"/>
   </g>
   <g id="patch_4">
    <path d="M 414.72 307.584 
L 414.72 41.472 
" style="fill: none; stroke: #bcbcbc; stroke-width: 0.8; stroke-linejoin: miter; stroke-linecap: square"/>
   </g>
   <g id="patch_5">
    <path d="M 57.6 307.584 
L 414.72 307.584 
" style="fill: none; stroke: #bcbcbc; stroke-width: 0.8; stroke-linejoin: miter; stroke-linecap: square"/>
   </g>
   <g id="patch_6">
    <path d="M 57.6 41.472 
L 414.72 41.472 
" style="fill: none; stroke: #bcbcbc; stroke-width: 0.8; stroke-linejoin: miter; stroke-linecap: square"/>
   </g>
   <g id="text_12">
    <!-- Correlations with n = 200 -->
    <g transform="translate(143.94375 35.472) scale(0.144 -0.144)">
     <defs>
      <path id="DejaVuSans-43" d="M 4122 4306 
L 4122 3641 
Q 3803 3938 3442 4084 
Q 3081 4231 2675 4231 
Q 1875 4231 1450 3742 
Q 1025 3253 1025 2328 
Q 1025 1406 1450 917 
Q 1875 428 2675 428 
Q 3081 428 3442 575 
Q 3803 722 4122 1019 
L 4122 359 
Q 3791 134 3420 21 
Q 3050 -91 2638 -91 
Q 1578 -91 968 557 
Q 359 1206 359 2328 
Q 359 3453 968 4101 
Q 1578 4750 2638 4750 
Q 3056 4750 3426 4639 
Q 3797 4528 4122 4306 
z
" transform="scale(0.015625)"/>
      <path id="DejaVuSans-6f" d="M 1959 3097 
Q 1497 3097 1228 2736 
Q 959 2375 959 1747 
Q 959 1119 1226 758 
Q 1494 397 1959 397 
Q 2419 397 2687 759 
Q 2956 1122 2956 1747 
Q 2956 2369 2687 2733 
Q 2419 3097 1959 3097 
z
M 1959 3584 
Q 2709 3584 3137 3096 
Q 3566 2609 3566 1747 
Q 3566 888 3137 398 
Q 2709 -91 1959 -91 
Q 1206 -91 779 398 
Q 353 888 353 1747 
Q 353 2609 779 3096 
Q 1206 3584 1959 3584 
z
" transform="scale(0.015625)"/>
      <path id="DejaVuSans-72" d="M 2631 2963 
Q 2534 3019 2420 3045 
Q 2306 3072 2169 3072 
Q 1681 3072 1420 2755 
Q 1159 2438 1159 1844 
L 1159 0 
L 581 0 
L 581 3500 
L 1159 3500 
L 1159 2956 
Q 1341 3275 1631 3429 
Q 1922 3584 2338 3584 
Q 2397 3584 2469 3576 
Q 2541 3569 2628 3553 
L 2631 2963 
z
" transform="scale(0.015625)"/>
      <path id="DejaVuSans-65" d="M 3597 1894 
L 3597 1613 
L 953 1613 
Q 991 1019 1311 708 
Q 1631 397 2203 397 
Q 2534 397 2845 478 
Q 3156 559 3463 722 
L 3463 178 
Q 3153 47 2828 -22 
Q 2503 -91 2169 -91 
Q 1331 -91 842 396 
Q 353 884 353 1716 
Q 353 2575 817 3079 
Q 1281 3584 2069 3584 
Q 2775 3584 3186 3129 
Q 3597 2675 3597 1894 
z
M 3022 2063 
Q 3016 2534 2758 2815 
Q 2500 3097 2075 3097 
Q 1594 3097 1305 2825 
Q 1016 2553 972 2059 
L 3022 2063 
z
" transform="scale(0.015625)"/>
      <path id="DejaVuSans-6c" d="M 603 4863 
L 1178 4863 
L 1178 0 
L 603 0 
L 603 4863 
z
" transform="scale(0.015625)"/>
      <path id="DejaVuSans-61" d="M 2194 1759 
Q 1497 1759 1228 1600 
Q 959 1441 959 1056 
Q 959 750 1161 570 
Q 1363 391 1709 391 
Q 2188 391 2477 730 
Q 2766 1069 2766 1631 
L 2766 1759 
L 2194 1759 
z
M 3341 1997 
L 3341 0 
L 2766 0 
L 2766 531 
Q 2569 213 2275 61 
Q 1981 -91 1556 -91 
Q 1019 -91 701 211 
Q 384 513 384 1019 
Q 384 1609 779 1909 
Q 1175 2209 1959 2209 
L 2766 2209 
L 2766 2266 
Q 2766 2663 2505 2880 
Q 2244 3097 1772 3097 
Q 1472 3097 1187 3025 
Q 903 2953 641 2809 
L 641 3341 
Q 956 3463 1253 3523 
Q 1550 3584 1831 3584 
Q 2591 3584 2966 3190 
Q 3341 2797 3341 1997 
z
" transform="scale(0.015625)"/>
      <path id="DejaVuSans-74" d="M 1172 4494 
L 1172 3500 
L 2356 3500 
L 2356 3053 
L 1172 3053 
L 1172 1153 
Q 1172 725 1289 603 
Q 1406 481 1766 481 
L 2356 481 
L 2356 0 
L 1766 0 
Q 1100 0 847 248 
Q 594 497 594 1153 
L 594 3053 
L 172 3053 
L 172 3500 
L 594 3500 
L 594 4494 
L 1172 4494 
z
" transform="scale(0.015625)"/>
      <path id="DejaVuSans-69" d="M 603 3500 
L 1178 3500 
L 1178 0 
L 603 0 
L 603 3500 
z
M 603 4863 
L 1178 4863 
L 1178 4134 
L 603 4134 
L 603 4863 
z
" transform="scale(0.015625)"/>
      <path id="DejaVuSans-6e" d="M 3513 2113 
L 3513 0 
L 2938 0 
L 2938 2094 
Q 2938 2591 2744 2837 
Q 2550 3084 2163 3084 
Q 1697 3084 1428 2787 
Q 1159 2491 1159 1978 
L 1159 0 
L 581 0 
L 581 3500 
L 1159 3500 
L 1159 2956 
Q 1366 3272 1645 3428 
Q 1925 3584 2291 3584 
Q 2894 3584 3203 3211 
Q 3513 2838 3513 2113 
z
" transform="scale(0.015625)"/>
      <path id="DejaVuSans-73" d="M 2834 3397 
L 2834 2853 
Q 2591 2978 2328 3040 
Q 2066 3103 1784 3103 
Q 1356 3103 1142 2972 
Q 928 2841 928 2578 
Q 928 2378 1081 2264 
Q 1234 2150 1697 2047 
L 1894 2003 
Q 2506 1872 2764 1633 
Q 3022 1394 3022 966 
Q 3022 478 2636 193 
Q 2250 -91 1575 -91 
Q 1294 -91 989 -36 
Q 684 19 347 128 
L 347 722 
Q 666 556 975 473 
Q 1284 391 1588 391 
Q 1994 391 2212 530 
Q 2431 669 2431 922 
Q 2431 1156 2273 1281 
Q 2116 1406 1581 1522 
L 1381 1569 
Q 847 1681 609 1914 
Q 372 2147 372 2553 
Q 372 3047 722 3315 
Q 1072 3584 1716 3584 
Q 2034 3584 2315 3537 
Q 2597 3491 2834 3397 
z
" transform="scale(0.015625)"/>
      <path id="DejaVuSans-20" transform="scale(0.015625)"/>
      <path id="DejaVuSans-77" d="M 269 3500 
L 844 3500 
L 1563 769 
L 2278 3500 
L 2956 3500 
L 3675 769 
L 4391 3500 
L 4966 3500 
L 4050 0 
L 3372 0 
L 2619 2869 
L 1863 0 
L 1184 0 
L 269 3500 
z
" transform="scale(0.015625)"/>
      <path id="DejaVuSans-68" d="M 3513 2113 
L 3513 0 
L 2938 0 
L 2938 2094 
Q 2938 2591 2744 2837 
Q 2550 3084 2163 3084 
Q 1697 3084 1428 2787 
Q 1159 2491 1159 1978 
L 1159 0 
L 581 0 
L 581 4863 
L 1159 4863 
L 1159 2956 
Q 1366 3272 1645 3428 
Q 1925 3584 2291 3584 
Q 2894 3584 3203 3211 
Q 3513 2838 3513 2113 
z
" transform="scale(0.015625)"/>
      <path id="DejaVuSans-3d" d="M 678 2906 
L 4684 2906 
L 4684 2381 
L 678 2381 
L 678 2906 
z
M 678 1631 
L 4684 1631 
L 4684 1100 
L 678 1100 
L 678 1631 
z
" transform="scale(0.015625)"/>
     </defs>
     <use xlink:href="#DejaVuSans-43"/>
     <use xlink:href="#DejaVuSans-6f" transform="translate(69.824219 0)"/>
     <use xlink:href="#DejaVuSans-72" transform="translate(131.005859 0)"/>
     <use xlink:href="#DejaVuSans-72" transform="translate(170.369141 0)"/>
     <use xlink:href="#DejaVuSans-65" transform="translate(209.232422 0)"/>
     <use xlink:href="#DejaVuSans-6c" transform="translate(270.755859 0)"/>
     <use xlink:href="#DejaVuSans-61" transform="translate(298.539062 0)"/>
     <use xlink:href="#DejaVuSans-74" transform="translate(359.818359 0)"/>
     <use xlink:href="#DejaVuSans-69" transform="translate(399.027344 0)"/>
     <use xlink:href="#DejaVuSans-6f" transform="translate(426.810547 0)"/>
     <use xlink:href="#DejaVuSans-6e" transform="translate(487.992188 0)"/>
     <use xlink:href="#DejaVuSans-73" transform="translate(551.371094 0)"/>
     <use xlink:href="#DejaVuSans-20" transform="translate(603.470703 0)"/>
     <use xlink:href="#DejaVuSans-77" transform="translate(635.257812 0)"/>
     <use xlink:href="#DejaVuSans-69" transform="translate(717.044922 0)"/>
     <use xlink:href="#DejaVuSans-74" transform="translate(744.828125 0)"/>
     <use xlink:href="#DejaVuSans-68" transform="translate(784.037109 0)"/>
     <use xlink:href="#DejaVuSans-20" transform="translate(847.416016 0)"/>
     <use xlink:href="#DejaVuSans-6e" transform="translate(879.203125 0)"/>
     <use xlink:href="#DejaVuSans-20" transform="translate(942.582031 0)"/>
     <use xlink:href="#DejaVuSans-3d" transform="translate(974.369141 0)"/>
     <use xlink:href="#DejaVuSans-20" transform="translate(1058.158203 0)"/>
     <use xlink:href="#DejaVuSans-32" transform="translate(1089.945312 0)"/>
     <use xlink:href="#DejaVuSans-30" transform="translate(1153.568359 0)"/>
     <use xlink:href="#DejaVuSans-30" transform="translate(1217.191406 0)"/>
    </g>
   </g>
  </g>
 </g>
 <defs>
  <clipPath id="pd631db5818">
   <rect x="57.6" y="41.472" width="357.12" height="266.112"/>
  </clipPath>
 </defs>
</svg>
