<?xml version="1.0" encoding="utf-8" standalone="no"?>
<!DOCTYPE svg PUBLIC "-//W3C//DTD SVG 1.1//EN"
  "http://www.w3.org/Graphics/SVG/1.1/DTD/svg11.dtd">
<svg xmlns:xlink="http://www.w3.org/1999/xlink" width="460.8pt" height="345.6pt" viewBox="0 0 460.8 345.6" xmlns="http://www.w3.org/2000/svg" version="1.1">
 <metadata>
  <rdf:RDF xmlns:dc="http://purl.org/dc/elements/1.1/" xmlns:cc="http://creativecommons.org/ns#" xmlns:rdf="http://www.w3.org/1999/02/22-rdf-syntax-ns#">
   <cc:Work>
    <dc:type rdf:resource="http://purl.org/dc/dcmitype/StillImage"/>
    <dc:date>2025-10-04T14:22:08.861180</dc:date>
    <dc:format>image/svg+xml</dc:format>
    <dc:creator>
     <cc:Agent>
      <dc:title>Matplotlib v3.10.5, https://matplotlib.org/</dc:title>
     </cc:Agent>
    </dc:creator>
   </cc:Work>
  </rdf:RDF>
 </metadata>
 <defs>
  <style type="text/css">*{stroke-linejoin: round; stroke-linecap: butt}</style>
 </defs>
 <g id="figure_1">
  <g id="patch_1">
   <path d="M 0 345.6 
L 460.8 345.6 
L 460.8 0 
L 0 0 
z
" style="fill: #ffffff"/>
  </g>
  <g id="axes_1">
   <g id="patch_2">
    <path d="M 57.6 307.584 
L 414.72 307.584 
L 414.72 41.472 
L 57.6 41.472 
z
" style="fill: #eeeeee"/>
   </g>
   <g id="matplotlib.axis_1">
    <g id="xtick_1">
     <g id="line2d_1">
      <path d="M 73.832727 307.584 
L 73.832727 41.472 
" clip-path="url(#pd796d8284b)" style="fill: none; stroke-dasharray: 1.85,0.8; stroke-dashoffset: 0; stroke: #b2b2b2; stroke-width: 0.5"/>
     </g>
     <g id="line2d_2">
      <defs>
       <path id="mf1a2d0e67f" d="M 0 0 
L 0 -3.5 
" style="stroke: #000000; stroke-width: 0.8"/>
      </defs>
      <g>
       <use xlink:href="#mf1a2d0e67f" x="73.832727" y="307.584" style="stroke: #000000; stroke-width: 0.8"/>
      </g>
     </g>
     <g id="text_1">
      <!-- 0.0 -->
      <g transform="translate(65.881165 318.682437) scale(0.1 -0.1)">
       <defs>
        <path id="DejaVuSans-30" d="M 2034 4250 
Q 1547 4250 1301 3770 
Q 1056 3291 1056 2328 
Q 1056 1369 1301 889 
Q 1547 409 2034 409 
Q 2525 409 2770 889 
Q 3016 1369 3016 2328 
Q 3016 3291 2770 3770 
Q 2525 4250 2034 4250 
z
M 2034 4750 
Q 2819 4750 3233 4129 
Q 3647 3509 3647 2328 
Q 3647 1150 3233 529 
Q 2819 -91 2034 -91 
Q 1250 -91 836 529 
Q 422 1150 422 2328 
Q 422 3509 836 4129 
Q 1250 4750 2034 4750 
z
" transform="scale(0.015625)"/>
        <path id="DejaVuSans-2e" d="M 684 794 
L 1344 794 
L 1344 0 
L 684 0 
L 684 794 
z
" transform="scale(0.015625)"/>
       </defs>
       <use xlink:href="#DejaVuSans-30"/>
       <use xlink:href="#DejaVuSans-2e" transform="translate(63.623047 0)"/>
       <use xlink:href="#DejaVuSans-30" transform="translate(95.410156 0)"/>
      </g>
     </g>
    </g>
    <g id="xtick_2">
     <g id="line2d_3">
      <path d="M 150.924609 307.584 
L 150.924609 41.472 
" clip-path="url(#pd796d8284b)" style="fill: none; stroke-dasharray: 1.85,0.8; stroke-dashoffset: 0; stroke: #b2b2b2; stroke-width: 0.5"/>
     </g>
     <g id="line2d_4">
      <g>
       <use xlink:href="#mf1a2d0e67f" x="150.924609" y="307.584" style="stroke: #000000; stroke-width: 0.8"/>
      </g>
     </g>
     <g id="text_2">
      <!-- 0.5 -->
      <g transform="translate(142.973047 318.682437) scale(0.1 -0.1)">
       <defs>
        <path id="DejaVuSans-35" d="M 691 4666 
L 3169 4666 
L 3169 4134 
L 1269 4134 
L 1269 2991 
Q 1406 3038 1543 3061 
Q 1681 3084 1819 3084 
Q 2600 3084 3056 2656 
Q 3513 2228 3513 1497 
Q 3513 744 3044 326 
Q 2575 -91 1722 -91 
Q 1428 -91 1123 -41 
Q 819 9 494 109 
L 494 744 
Q 775 591 1075 516 
Q 1375 441 1709 441 
Q 2250 441 2565 725 
Q 2881 1009 2881 1497 
Q 2881 1984 2565 2268 
Q 2250 2553 1709 2553 
Q 1456 2553 1204 2497 
Q 953 2441 691 2322 
L 691 4666 
z
" transform="scale(0.015625)"/>
       </defs>
       <use xlink:href="#DejaVuSans-30"/>
       <use xlink:href="#DejaVuSans-2e" transform="translate(63.623047 0)"/>
       <use xlink:href="#DejaVuSans-35" transform="translate(95.410156 0)"/>
      </g>
     </g>
    </g>
    <g id="xtick_3">
     <g id="line2d_5">
      <path d="M 228.016491 307.584 
L 228.016491 41.472 
" clip-path="url(#pd796d8284b)" style="fill: none; stroke-dasharray: 1.85,0.8; stroke-dashoffset: 0; stroke: #b2b2b2; stroke-width: 0.5"/>
     </g>
     <g id="line2d_6">
      <g>
       <use xlink:href="#mf1a2d0e67f" x="228.016491" y="307.584" style="stroke: #000000; stroke-width: 0.8"/>
      </g>
     </g>
     <g id="text_3">
      <!-- 1.0 -->
      <g transform="translate(220.064929 318.682437) scale(0.1 -0.1)">
       <defs>
        <path id="DejaVuSans-31" d="M 794 531 
L 1825 531 
L 1825 4091 
L 703 3866 
L 703 4441 
L 1819 4666 
L 2450 4666 
L 2450 531 
L 3481 531 
L 3481 0 
L 794 0 
L 794 531 
z
" transform="scale(0.015625)"/>
       </defs>
       <use xlink:href="#DejaVuSans-31"/>
       <use xlink:href="#DejaVuSans-2e" transform="translate(63.623047 0)"/>
       <use xlink:href="#DejaVuSans-30" transform="translate(95.410156 0)"/>
      </g>
     </g>
    </g>
    <g id="xtick_4">
     <g id="line2d_7">
      <path d="M 305.108373 307.584 
L 305.108373 41.472 
" clip-path="url(#pd796d8284b)" style="fill: none; stroke-dasharray: 1.85,0.8; stroke-dashoffset: 0; stroke: #b2b2b2; stroke-width: 0.5"/>
     </g>
     <g id="line2d_8">
      <g>
       <use xlink:href="#mf1a2d0e67f" x="305.108373" y="307.584" style="stroke: #000000; stroke-width: 0.8"/>
      </g>
     </g>
     <g id="text_4">
      <!-- 1.5 -->
      <g transform="translate(297.156811 318.682437) scale(0.1 -0.1)">
       <use xlink:href="#DejaVuSans-31"/>
       <use xlink:href="#DejaVuSans-2e" transform="translate(63.623047 0)"/>
       <use xlink:href="#DejaVuSans-35" transform="translate(95.410156 0)"/>
      </g>
     </g>
    </g>
    <g id="xtick_5">
     <g id="line2d_9">
      <path d="M 382.200255 307.584 
L 382.200255 41.472 
" clip-path="url(#pd796d8284b)" style="fill: none; stroke-dasharray: 1.85,0.8; stroke-dashoffset: 0; stroke: #b2b2b2; stroke-width: 0.5"/>
     </g>
     <g id="line2d_10">
      <g>
       <use xlink:href="#mf1a2d0e67f" x="382.200255" y="307.584" style="stroke: #000000; stroke-width: 0.8"/>
      </g>
     </g>
     <g id="text_5">
      <!-- 2.0 -->
      <g transform="translate(374.248693 318.682437) scale(0.1 -0.1)">
       <defs>
        <path id="DejaVuSans-32" d="M 1228 531 
L 3431 531 
L 3431 0 
L 469 0 
L 469 531 
Q 828 903 1448 1529 
Q 2069 2156 2228 2338 
Q 2531 2678 2651 2914 
Q 2772 3150 2772 3378 
Q 2772 3750 2511 3984 
Q 2250 4219 1831 4219 
Q 1534 4219 1204 4116 
Q 875 4013 500 3803 
L 500 4441 
Q 881 4594 1212 4672 
Q 1544 4750 1819 4750 
Q 2544 4750 2975 4387 
Q 3406 4025 3406 3419 
Q 3406 3131 3298 2873 
Q 3191 2616 2906 2266 
Q 2828 2175 2409 1742 
Q 1991 1309 1228 531 
z
" transform="scale(0.015625)"/>
       </defs>
       <use xlink:href="#DejaVuSans-32"/>
       <use xlink:href="#DejaVuSans-2e" transform="translate(63.623047 0)"/>
       <use xlink:href="#DejaVuSans-30" transform="translate(95.410156 0)"/>
      </g>
     </g>
    </g>
    <g id="text_6">
     <!-- $s/s_c$ -->
     <g transform="translate(225.3 333.762125) scale(0.12 -0.12)">
      <defs>
       <path id="Cmmi10-73" d="M 556 391 
Q 728 97 1247 97 
Q 1472 97 1675 173 
Q 1878 250 2011 403 
Q 2144 556 2144 775 
Q 2144 941 2025 1047 
Q 1906 1153 1734 1191 
L 1388 1259 
Q 1150 1319 997 1481 
Q 844 1644 844 1875 
Q 844 2159 998 2378 
Q 1153 2597 1406 2712 
Q 1659 2828 1931 2828 
Q 2222 2828 2451 2689 
Q 2681 2550 2681 2278 
Q 2681 2131 2598 2018 
Q 2516 1906 2369 1906 
Q 2284 1906 2223 1961 
Q 2163 2016 2163 2100 
Q 2163 2175 2205 2245 
Q 2247 2316 2317 2358 
Q 2388 2400 2463 2400 
Q 2406 2538 2251 2600 
Q 2097 2663 1919 2663 
Q 1756 2663 1593 2597 
Q 1431 2531 1332 2404 
Q 1234 2278 1234 2106 
Q 1234 1991 1315 1903 
Q 1397 1816 1516 1778 
L 1888 1703 
Q 2066 1666 2214 1570 
Q 2363 1475 2448 1329 
Q 2534 1184 2534 997 
Q 2534 759 2401 528 
Q 2269 297 2075 159 
Q 1734 -72 1241 -72 
Q 900 -72 615 84 
Q 331 241 331 550 
Q 331 725 432 854 
Q 534 984 709 984 
Q 813 984 883 921 
Q 953 859 953 756 
Q 953 609 843 500 
Q 734 391 588 391 
L 556 391 
z
" transform="scale(0.015625)"/>
       <path id="Cmmi10-3d" d="M 359 -1472 
Q 359 -1453 366 -1447 
L 2591 4722 
Q 2603 4759 2634 4779 
Q 2666 4800 2706 4800 
Q 2763 4800 2798 4765 
Q 2834 4731 2834 4672 
L 2834 4647 
L 609 -1522 
Q 572 -1600 488 -1600 
Q 434 -1600 396 -1562 
Q 359 -1525 359 -1472 
z
" transform="scale(0.015625)"/>
       <path id="Cmmi10-63" d="M 750 763 
Q 750 484 892 290 
Q 1034 97 1300 97 
Q 1681 97 2032 272 
Q 2384 447 2606 756 
Q 2625 775 2656 775 
Q 2688 775 2720 739 
Q 2753 703 2753 672 
Q 2753 647 2741 634 
Q 2506 306 2109 117 
Q 1713 -72 1288 -72 
Q 981 -72 747 73 
Q 513 219 384 462 
Q 256 706 256 1013 
Q 256 1444 497 1869 
Q 738 2294 1138 2561 
Q 1538 2828 1978 2828 
Q 2266 2828 2495 2689 
Q 2725 2550 2725 2278 
Q 2725 2103 2623 1979 
Q 2522 1856 2350 1856 
Q 2247 1856 2176 1920 
Q 2106 1984 2106 2088 
Q 2106 2238 2215 2344 
Q 2325 2450 2472 2450 
L 2484 2450 
Q 2409 2559 2267 2611 
Q 2125 2663 1972 2663 
Q 1597 2663 1315 2342 
Q 1034 2022 892 1576 
Q 750 1131 750 763 
z
" transform="scale(0.015625)"/>
      </defs>
      <use xlink:href="#Cmmi10-73"/>
      <use xlink:href="#Cmmi10-3d" transform="translate(46.777344 0)"/>
      <use xlink:href="#Cmmi10-73" transform="translate(96.777344 0)"/>
      <use xlink:href="#Cmmi10-63" transform="translate(143.554688 -17.00625) scale(0.7)"/>
     </g>
    </g>
   </g>
   <g id="matplotlib.axis_2">
    <g id="ytick_1">
     <g id="line2d_11">
      <path d="M 57.6 265.407701 
L 414.72 265.407701 
" clip-path="url(#pd796d8284b)" style="fill: none; stroke-dasharray: 1.85,0.8; stroke-dashoffset: 0; stroke: #b2b2b2; stroke-width: 0.5"/>
     </g>
     <g id="line2d_12">
      <defs>
       <path id="mc6f3067e44" d="M 0 0 
L 3.5 0 
" style="stroke: #000000; stroke-width: 0.8"/>
      </defs>
      <g>
       <use xlink:href="#mc6f3067e44" x="57.6" y="265.407701" style="stroke: #000000; stroke-width: 0.8"/>
      </g>
     </g>
     <g id="text_7">
      <!-- 0.2 -->
      <g transform="translate(38.196875 269.20692) scale(0.1 -0.1)">
       <use xlink:href="#DejaVuSans-30"/>
       <use xlink:href="#DejaVuSans-2e" transform="translate(63.623047 0)"/>
       <use xlink:href="#DejaVuSans-32" transform="translate(95.410156 0)"/>
      </g>
     </g>
    </g>
    <g id="ytick_2">
     <g id="line2d_13">
      <path d="M 57.6 217.715992 
L 414.72 217.715992 
" clip-path="url(#pd796d8284b)" style="fill: none; stroke-dasharray: 1.85,0.8; stroke-dashoffset: 0; stroke: #b2b2b2; stroke-width: 0.5"/>
     </g>
     <g id="line2d_14">
      <g>
       <use xlink:href="#mc6f3067e44" x="57.6" y="217.715992" style="stroke: #000000; stroke-width: 0.8"/>
      </g>
     </g>
     <g id="text_8">
      <!-- 0.4 -->
      <g transform="translate(38.196875 221.515211) scale(0.1 -0.1)">
       <defs>
        <path id="DejaVuSans-34" d="M 2419 4116 
L 825 1625 
L 2419 1625 
L 2419 4116 
z
M 2253 4666 
L 3047 4666 
L 3047 1625 
L 3713 1625 
L 3713 1100 
L 3047 1100 
L 3047 0 
L 2419 0 
L 2419 1100 
L 313 1100 
L 313 1709 
L 2253 4666 
z
" transform="scale(0.015625)"/>
       </defs>
       <use xlink:href="#DejaVuSans-30"/>
       <use xlink:href="#DejaVuSans-2e" transform="translate(63.623047 0)"/>
       <use xlink:href="#DejaVuSans-34" transform="translate(95.410156 0)"/>
      </g>
     </g>
    </g>
    <g id="ytick_3">
     <g id="line2d_15">
      <path d="M 57.6 170.024283 
L 414.72 170.024283 
" clip-path="url(#pd796d8284b)" style="fill: none; stroke-dasharray: 1.85,0.8; stroke-dashoffset: 0; stroke: #b2b2b2; stroke-width: 0.5"/>
     </g>
     <g id="line2d_16">
      <g>
       <use xlink:href="#mc6f3067e44" x="57.6" y="170.024283" style="stroke: #000000; stroke-width: 0.8"/>
      </g>
     </g>
     <g id="text_9">
      <!-- 0.6 -->
      <g transform="translate(38.196875 173.823502) scale(0.1 -0.1)">
       <defs>
        <path id="DejaVuSans-36" d="M 2113 2584 
Q 1688 2584 1439 2293 
Q 1191 2003 1191 1497 
Q 1191 994 1439 701 
Q 1688 409 2113 409 
Q 2538 409 2786 701 
Q 3034 994 3034 1497 
Q 3034 2003 2786 2293 
Q 2538 2584 2113 2584 
z
M 3366 4563 
L 3366 3988 
Q 3128 4100 2886 4159 
Q 2644 4219 2406 4219 
Q 1781 4219 1451 3797 
Q 1122 3375 1075 2522 
Q 1259 2794 1537 2939 
Q 1816 3084 2150 3084 
Q 2853 3084 3261 2657 
Q 3669 2231 3669 1497 
Q 3669 778 3244 343 
Q 2819 -91 2113 -91 
Q 1303 -91 875 529 
Q 447 1150 447 2328 
Q 447 3434 972 4092 
Q 1497 4750 2381 4750 
Q 2619 4750 2861 4703 
Q 3103 4656 3366 4563 
z
" transform="scale(0.015625)"/>
       </defs>
       <use xlink:href="#DejaVuSans-30"/>
       <use xlink:href="#DejaVuSans-2e" transform="translate(63.623047 0)"/>
       <use xlink:href="#DejaVuSans-36" transform="translate(95.410156 0)"/>
      </g>
     </g>
    </g>
    <g id="ytick_4">
     <g id="line2d_17">
      <path d="M 57.6 122.332574 
L 414.72 122.332574 
" clip-path="url(#pd796d8284b)" style="fill: none; stroke-dasharray: 1.85,0.8; stroke-dashoffset: 0; stroke: #b2b2b2; stroke-width: 0.5"/>
     </g>
     <g id="line2d_18">
      <g>
       <use xlink:href="#mc6f3067e44" x="57.6" y="122.332574" style="stroke: #000000; stroke-width: 0.8"/>
      </g>
     </g>
     <g id="text_10">
      <!-- 0.8 -->
      <g transform="translate(38.196875 126.131792) scale(0.1 -0.1)">
       <defs>
        <path id="DejaVuSans-38" d="M 2034 2216 
Q 1584 2216 1326 1975 
Q 1069 1734 1069 1313 
Q 1069 891 1326 650 
Q 1584 409 2034 409 
Q 2484 409 2743 651 
Q 3003 894 3003 1313 
Q 3003 1734 2745 1975 
Q 2488 2216 2034 2216 
z
M 1403 2484 
Q 997 2584 770 2862 
Q 544 3141 544 3541 
Q 544 4100 942 4425 
Q 1341 4750 2034 4750 
Q 2731 4750 3128 4425 
Q 3525 4100 3525 3541 
Q 3525 3141 3298 2862 
Q 3072 2584 2669 2484 
Q 3125 2378 3379 2068 
Q 3634 1759 3634 1313 
Q 3634 634 3220 271 
Q 2806 -91 2034 -91 
Q 1263 -91 848 271 
Q 434 634 434 1313 
Q 434 1759 690 2068 
Q 947 2378 1403 2484 
z
M 1172 3481 
Q 1172 3119 1398 2916 
Q 1625 2713 2034 2713 
Q 2441 2713 2670 2916 
Q 2900 3119 2900 3481 
Q 2900 3844 2670 4047 
Q 2441 4250 2034 4250 
Q 1625 4250 1398 4047 
Q 1172 3844 1172 3481 
z
" transform="scale(0.015625)"/>
       </defs>
       <use xlink:href="#DejaVuSans-30"/>
       <use xlink:href="#DejaVuSans-2e" transform="translate(63.623047 0)"/>
       <use xlink:href="#DejaVuSans-38" transform="translate(95.410156 0)"/>
      </g>
     </g>
    </g>
    <g id="ytick_5">
     <g id="line2d_19">
      <path d="M 57.6 74.640864 
L 414.72 74.640864 
" clip-path="url(#pd796d8284b)" style="fill: none; stroke-dasharray: 1.85,0.8; stroke-dashoffset: 0; stroke: #b2b2b2; stroke-width: 0.5"/>
     </g>
     <g id="line2d_20">
      <g>
       <use xlink:href="#mc6f3067e44" x="57.6" y="74.640864" style="stroke: #000000; stroke-width: 0.8"/>
      </g>
     </g>
     <g id="text_11">
      <!-- 1.0 -->
      <g transform="translate(38.196875 78.440083) scale(0.1 -0.1)">
       <use xlink:href="#DejaVuSans-31"/>
       <use xlink:href="#DejaVuSans-2e" transform="translate(63.623047 0)"/>
       <use xlink:href="#DejaVuSans-30" transform="translate(95.410156 0)"/>
      </g>
     </g>
    </g>
    <g id="text_12">
     <!-- $D_{s}$ -->
     <g transform="translate(31.70125 181.848) rotate(-90) scale(0.12 -0.12)">
      <defs>
       <path id="Cmmi10-44" d="M 313 0 
Q 250 0 250 84 
Q 253 100 262 139 
Q 272 178 289 201 
Q 306 225 331 225 
Q 722 225 878 269 
Q 959 297 997 441 
L 1875 3956 
Q 1888 4019 1888 4044 
Q 1888 4113 1813 4122 
Q 1691 4147 1350 4147 
Q 1288 4147 1288 4231 
Q 1291 4247 1300 4286 
Q 1309 4325 1326 4348 
Q 1344 4372 1369 4372 
L 3669 4372 
Q 4116 4372 4450 4155 
Q 4784 3938 4962 3570 
Q 5141 3203 5141 2759 
Q 5141 2269 4937 1778 
Q 4734 1288 4368 881 
Q 4003 475 3534 237 
Q 3066 0 2572 0 
L 313 0 
z
M 1509 275 
Q 1509 225 1728 225 
L 2472 225 
Q 2828 225 3159 372 
Q 3491 519 3750 775 
Q 3991 1016 4175 1406 
Q 4359 1797 4461 2222 
Q 4563 2647 4563 3003 
Q 4563 3263 4486 3472 
Q 4409 3681 4270 3831 
Q 4131 3981 3922 4064 
Q 3713 4147 3450 4147 
L 2747 4147 
Q 2572 4147 2515 4117 
Q 2459 4088 2413 3928 
L 1538 416 
Q 1509 338 1509 275 
z
" transform="scale(0.015625)"/>
      </defs>
      <use xlink:href="#Cmmi10-44" transform="translate(0 0.6875)"/>
      <use xlink:href="#Cmmi10-73" transform="translate(82.714844 -16.31875) scale(0.7)"/>
     </g>
    </g>
   </g>
   <g id="line2d_21">
    <path d="M 73.832727 53.568 
L 74.918528 61.907647 
L 76.00433 68.749558 
L 80.347534 92.413071 
L 81.433335 97.250768 
L 82.519137 101.362824 
L 83.604938 106.488721 
L 85.77654 115.132125 
L 86.862341 118.559586 
L 87.948142 120.867332 
L 89.033943 125.12714 
L 91.205546 132.288599 
L 92.291347 137.633316 
L 93.377148 140.356875 
L 94.462949 144.418494 
L 95.54875 147.061506 
L 97.720353 156.850119 
L 98.806154 159.196611 
L 99.891955 161.222703 
L 100.977756 166.193658 
L 102.063557 168.077735 
L 103.149358 171.368459 
L 104.23516 172.703087 
L 105.320961 175.116512 
L 106.406762 175.88972 
L 107.492563 178.038843 
L 108.578364 181.168142 
L 109.664165 185.673575 
L 110.749967 186.898337 
L 111.835768 188.705851 
L 112.921569 188.514708 
L 114.00737 189.290136 
L 115.093171 191.770926 
L 116.178972 192.596249 
L 117.264773 194.916032 
L 118.350575 195.752049 
L 121.607978 201.787152 
L 122.693779 202.810227 
L 124.865382 210.224584 
L 125.951183 212.616421 
L 127.036984 214.685138 
L 128.122785 217.224924 
L 129.208586 216.887155 
L 130.294387 217.766986 
L 131.380189 215.207429 
L 132.46599 216.789555 
L 133.551791 216.290645 
L 134.637592 216.516596 
L 135.723393 217.13875 
L 136.809194 219.130859 
L 137.894995 221.506718 
L 138.980797 220.417008 
L 140.066598 221.156128 
L 141.152399 220.314868 
L 142.2382 221.28638 
L 144.409802 224.110136 
L 146.581405 229.957753 
L 147.667206 228.582832 
L 148.753007 229.0687 
L 149.838808 228.713093 
L 150.924609 228.760272 
L 152.01041 229.827025 
L 153.096212 231.772783 
L 155.267814 228.243707 
L 156.353615 229.479363 
L 157.439416 230.150218 
L 158.525217 231.669708 
L 159.611019 232.682522 
L 160.69682 237.244241 
L 161.782621 239.078787 
L 162.868422 237.843568 
L 163.954223 235.684653 
L 165.040024 237.342976 
L 166.125825 237.829782 
L 168.297428 235.734055 
L 169.383229 234.912653 
L 170.46903 235.707625 
L 171.554831 233.495914 
L 172.640632 234.2807 
L 173.726434 233.053532 
L 174.812235 234.334952 
L 175.898036 231.466595 
L 176.983837 227.191777 
L 178.069638 226.660761 
L 179.155439 229.099299 
L 180.24124 228.607374 
L 181.327042 230.043596 
L 182.412843 229.120725 
L 183.498644 231.046321 
L 184.584445 230.887127 
L 185.670246 232.888278 
L 186.756047 233.784201 
L 187.841849 235.786341 
L 188.92765 237.254346 
L 190.013451 236.397338 
L 191.099252 235.999946 
L 192.185053 233.421482 
L 193.270854 234.317703 
L 194.356656 231.884837 
L 195.442457 231.942775 
L 196.528258 232.902561 
L 197.614059 231.48113 
L 198.69986 231.945054 
L 199.785661 233.098361 
L 200.871462 231.305596 
L 201.957264 231.406293 
L 203.043065 232.192759 
L 204.128866 232.218428 
L 205.214667 231.12509 
L 206.300468 230.781001 
L 207.386269 231.220709 
L 208.472071 232.231747 
L 209.557872 232.184935 
L 210.643673 233.370605 
L 211.729474 232.583484 
L 212.815275 229.913443 
L 213.901076 230.383545 
L 214.986877 229.28594 
L 216.072679 227.421752 
L 217.15848 229.652137 
L 218.244281 230.731296 
L 219.330082 233.96708 
L 220.415883 234.507638 
L 221.501684 233.663631 
L 222.587486 235.466917 
L 223.673287 235.257935 
L 224.759088 236.321588 
L 225.844889 236.657563 
L 226.93069 239.943503 
L 228.016491 236.755638 
L 229.102292 235.979014 
L 230.188094 237.376813 
L 231.273895 237.040921 
L 232.359696 237.180527 
L 234.531298 231.824794 
L 235.617099 231.686692 
L 236.702901 230.476906 
L 237.788702 235.035473 
L 238.874503 233.412312 
L 239.960304 236.877434 
L 241.046105 234.22679 
L 242.131906 232.488047 
L 243.217708 231.713423 
L 244.303509 230.72989 
L 245.38931 229.219854 
L 246.475111 230.232821 
L 247.560912 229.060154 
L 248.646713 228.215739 
L 249.732514 229.376962 
L 250.818316 226.692368 
L 251.904117 225.971274 
L 252.989918 226.538025 
L 254.075719 224.36466 
L 255.16152 226.626703 
L 256.247321 226.100522 
L 257.333123 226.455753 
L 258.418924 225.496323 
L 259.504725 223.219954 
L 261.676327 221.141057 
L 262.762128 220.626989 
L 263.847929 220.702769 
L 264.933731 225.618064 
L 266.019532 221.316102 
L 267.105333 222.229855 
L 268.191134 223.657535 
L 269.276935 222.399215 
L 270.362736 222.625039 
L 271.448538 224.096648 
L 272.534339 227.349358 
L 273.62014 226.852334 
L 274.705941 229.31992 
L 275.791742 229.19664 
L 276.877543 228.551803 
L 277.963344 229.604854 
L 279.049146 229.739862 
L 280.134947 228.445918 
L 281.220748 226.741346 
L 282.306549 225.745986 
L 283.39235 226.011554 
L 284.478151 225.972341 
L 285.563953 228.795764 
L 286.649754 227.836458 
L 287.735555 226.142265 
L 288.821356 227.335321 
L 289.907157 231.312774 
L 290.992958 230.261824 
L 292.07876 229.001987 
L 293.164561 232.27625 
L 294.250362 233.622452 
L 295.336163 234.109623 
L 296.421964 233.509932 
L 297.507765 231.169818 
L 298.593566 230.404824 
L 299.679368 228.151651 
L 300.765169 225.312637 
L 301.85097 226.5008 
L 302.936771 225.266913 
L 305.108373 231.528446 
L 306.194175 228.740685 
L 307.279976 230.014411 
L 308.365777 228.750544 
L 309.451578 229.034029 
L 310.537379 225.675261 
L 311.62318 223.521325 
L 312.708981 225.946598 
L 313.794783 226.040843 
L 314.880584 227.41069 
L 315.966385 231.159931 
L 317.052186 230.200665 
L 318.137987 229.470127 
L 319.223788 229.093878 
L 320.30959 231.941795 
L 321.395391 232.684484 
L 322.481192 229.363412 
L 323.566993 229.116091 
L 324.652794 226.730301 
L 325.738595 224.976381 
L 326.824396 225.661655 
L 327.910198 221.068926 
L 328.995999 218.273765 
L 330.0818 220.300871 
L 331.167601 224.232029 
L 335.510806 244.982941 
L 336.596607 244.101267 
L 337.682408 244.828523 
L 338.768209 245.309381 
L 339.85401 244.410682 
L 340.939811 246.607133 
L 342.025613 246.073707 
L 343.111414 246.58935 
L 344.197215 243.719128 
L 345.283016 243.620098 
L 346.368817 244.728546 
L 347.454618 243.557188 
L 348.54042 243.994837 
L 349.626221 242.526162 
L 350.712022 243.587465 
L 351.797823 245.621776 
L 352.883624 246.316807 
L 353.969425 251.171206 
L 355.055227 252.136496 
L 356.141028 252.904776 
L 357.226829 253.34487 
L 358.31263 253.916195 
L 359.398431 257.218994 
L 360.484232 257.92882 
L 361.570033 260.301145 
L 362.655835 259.155456 
L 363.741636 255.493955 
L 364.827437 261.222453 
L 365.913238 265.091753 
L 366.999039 266.288435 
L 368.08484 268.148168 
L 369.170642 269.085632 
L 370.256443 271.947755 
L 371.342244 271.076973 
L 372.428045 271.613724 
L 373.513846 275.776384 
L 375.685448 282.3354 
L 377.857051 283.79118 
L 378.942852 287.522811 
L 380.028653 287.430445 
L 381.114454 287.788098 
L 382.200255 285.745942 
L 383.286057 286.618456 
L 384.371858 287.927408 
L 385.457659 290.604854 
L 386.54346 288.704351 
L 387.629261 289.678897 
L 388.715062 290.144808 
L 389.800863 291.7992 
L 390.886665 292.531862 
L 391.972466 291.036987 
L 393.058267 292.981712 
L 394.144068 292.35837 
L 395.229869 293.253805 
L 396.31567 293.1356 
L 397.401472 294.748283 
L 398.487273 293.092115 
L 398.487273 293.092115 
" clip-path="url(#pd796d8284b)" style="fill: none; stroke: #0000ff; stroke-width: 2; stroke-linecap: square"/>
   </g>
   <g id="line2d_22">
    <path d="M 73.832727 63.725769 
L 74.918528 71.605299 
L 76.00433 78.492653 
L 79.261733 96.448577 
L 81.433335 106.188718 
L 83.604938 113.247887 
L 84.690739 118.41716 
L 85.77654 122.142283 
L 86.862341 124.638747 
L 90.119745 133.227913 
L 91.205546 138.634964 
L 92.291347 139.981345 
L 93.377148 142.257149 
L 94.462949 148.078372 
L 95.54875 152.384443 
L 97.720353 159.320867 
L 98.806154 162.233801 
L 99.891955 162.305787 
L 100.977756 164.342292 
L 102.063557 165.305972 
L 103.149358 164.090264 
L 104.23516 165.965999 
L 105.320961 169.313905 
L 106.406762 171.414919 
L 107.492563 172.870587 
L 108.578364 174.105068 
L 109.664165 177.12311 
L 110.749967 179.16235 
L 111.835768 179.801563 
L 114.00737 183.010941 
L 115.093171 182.250616 
L 116.178972 184.443986 
L 117.264773 187.682079 
L 118.350575 188.367082 
L 119.436376 186.64191 
L 120.522177 188.690373 
L 121.607978 192.684367 
L 122.693779 192.742063 
L 123.77958 191.468408 
L 124.865382 192.569265 
L 125.951183 193.492482 
L 128.122785 193.878253 
L 129.208586 199.326501 
L 130.294387 200.069698 
L 131.380189 202.451703 
L 132.46599 203.190915 
L 133.551791 203.000661 
L 134.637592 205.443675 
L 135.723393 201.945561 
L 136.809194 200.884107 
L 137.894995 204.279469 
L 138.980797 203.885368 
L 140.066598 204.344857 
L 142.2382 211.603608 
L 143.324001 213.706323 
L 144.409802 213.999922 
L 145.495604 213.335363 
L 146.581405 214.086055 
L 147.667206 217.926114 
L 148.753007 217.747558 
L 149.838808 214.930629 
L 150.924609 218.397275 
L 152.01041 223.419393 
L 153.096212 225.085063 
L 154.182013 225.854689 
L 155.267814 224.809323 
L 156.353615 229.650608 
L 157.439416 230.39405 
L 158.525217 229.944869 
L 159.611019 228.45466 
L 160.69682 230.227809 
L 161.782621 232.246858 
L 162.868422 234.022066 
L 163.954223 234.986385 
L 165.040024 236.650796 
L 166.125825 237.956442 
L 167.211627 237.659328 
L 169.383229 241.9286 
L 170.46903 245.177055 
L 171.554831 244.115052 
L 172.640632 243.280466 
L 173.726434 240.492927 
L 174.812235 240.654438 
L 175.898036 242.337844 
L 176.983837 242.579169 
L 178.069638 236.861937 
L 179.155439 236.579664 
L 180.24124 235.693343 
L 181.327042 237.255093 
L 182.412843 235.219932 
L 183.498644 232.067131 
L 184.584445 231.400662 
L 186.756047 235.147809 
L 187.841849 236.417376 
L 188.92765 235.495422 
L 190.013451 236.293665 
L 191.099252 240.620526 
L 192.185053 239.91205 
L 193.270854 241.444785 
L 194.356656 241.202759 
L 195.442457 238.958763 
L 196.528258 240.197916 
L 197.614059 238.402128 
L 198.69986 238.877557 
L 199.785661 238.440309 
L 200.871462 239.638273 
L 201.957264 238.893671 
L 203.043065 237.31112 
L 204.128866 236.926712 
L 205.214667 236.198264 
L 206.300468 234.012774 
L 207.386269 234.207088 
L 208.472071 236.595832 
L 209.557872 233.783721 
L 210.643673 236.257459 
L 211.729474 235.774204 
L 212.815275 236.254431 
L 213.901076 234.8986 
L 214.986877 234.505891 
L 216.072679 233.317545 
L 217.15848 233.123827 
L 218.244281 235.282803 
L 219.330082 233.770207 
L 220.415883 234.264653 
L 221.501684 235.294636 
L 222.587486 233.651975 
L 223.673287 234.34911 
L 224.759088 232.467389 
L 225.844889 231.534397 
L 226.93069 229.730862 
L 228.016491 227.379709 
L 229.102292 224.5229 
L 230.188094 225.478143 
L 231.273895 224.164797 
L 232.359696 222.252335 
L 233.445497 215.355472 
L 234.531298 214.105196 
L 235.617099 215.255713 
L 236.702901 215.295645 
L 237.788702 210.655489 
L 238.874503 210.334999 
L 239.960304 208.30942 
L 241.046105 211.198379 
L 242.131906 202.88771 
L 243.217708 200.347317 
L 244.303509 198.398963 
L 245.38931 197.810751 
L 246.475111 196.382803 
L 247.560912 196.834365 
L 249.732514 201.514377 
L 250.818316 196.388985 
L 251.904117 187.877755 
L 252.989918 189.617981 
L 254.075719 190.053714 
L 255.16152 191.630908 
L 256.247321 196.823193 
L 257.333123 195.985608 
L 258.418924 193.348864 
L 259.504725 192.865118 
L 260.590526 195.421826 
L 261.676327 188.301932 
L 262.762128 188.620077 
L 263.847929 187.276743 
L 264.933731 189.622203 
L 266.019532 184.417929 
L 267.105333 184.657172 
L 268.191134 185.426923 
L 270.362736 178.360854 
L 271.448538 180.174034 
L 272.534339 185.103539 
L 273.62014 185.374015 
L 274.705941 183.375452 
L 275.791742 181.691734 
L 276.877543 186.226547 
L 277.963344 184.339358 
L 279.049146 183.334175 
L 280.134947 184.506668 
L 281.220748 185.961199 
L 282.306549 186.528965 
L 283.39235 182.176642 
L 284.478151 191.325369 
L 286.649754 189.198531 
L 287.735555 188.838296 
L 288.821356 179.526015 
L 289.907157 178.462588 
L 290.992958 179.183522 
L 292.07876 183.352798 
L 293.164561 191.174388 
L 294.250362 196.431865 
L 296.421964 204.27559 
L 297.507765 201.562335 
L 298.593566 196.275045 
L 299.679368 189.550007 
L 300.765169 199.73719 
L 301.85097 204.429049 
L 302.936771 205.805102 
L 304.022572 209.544746 
L 305.108373 210.983938 
L 306.194175 209.272167 
L 307.279976 209.926015 
L 308.365777 209.535791 
L 309.451578 206.64862 
L 310.537379 202.083418 
L 311.62318 201.349599 
L 312.708981 207.027884 
L 313.794783 207.194122 
L 314.880584 205.537332 
L 315.966385 208.499639 
L 317.052186 207.683311 
L 318.137987 208.344271 
L 319.223788 203.621539 
L 320.30959 208.419545 
L 321.395391 204.965087 
L 322.481192 206.253196 
L 323.566993 208.09868 
L 324.652794 200.066303 
L 325.738595 193.414589 
L 326.824396 202.141868 
L 327.910198 205.106669 
L 328.995999 205.990059 
L 331.167601 218.762696 
L 332.253402 215.60606 
L 333.339203 216.079724 
L 334.425005 218.286447 
L 335.510806 216.978479 
L 336.596607 223.615537 
L 338.768209 228.054575 
L 339.85401 226.689358 
L 340.939811 229.88022 
L 342.025613 232.090895 
L 343.111414 228.366166 
L 344.197215 234.975949 
L 345.283016 236.881125 
L 346.368817 237.94673 
L 347.454618 230.383054 
L 348.54042 231.96743 
L 349.626221 235.950849 
L 350.712022 237.686354 
L 351.797823 240.926739 
L 352.883624 247.074912 
L 353.969425 245.070792 
L 355.055227 249.45954 
L 356.141028 249.067742 
L 357.226829 251.122319 
L 358.31263 257.057398 
L 359.398431 256.034924 
L 360.484232 255.242761 
L 361.570033 256.456393 
L 362.655835 254.995871 
L 363.741636 260.138679 
L 364.827437 263.833504 
L 365.913238 262.827557 
L 366.999039 266.845233 
L 368.08484 266.949183 
L 369.170642 270.58972 
L 370.256443 265.72592 
L 372.428045 262.033276 
L 373.513846 268.149232 
L 374.599647 271.491287 
L 375.685448 267.560961 
L 377.857051 271.809612 
L 378.942852 268.240295 
L 380.028653 264.0778 
L 382.200255 272.681513 
L 383.286057 271.376558 
L 384.371858 275.111884 
L 385.457659 280.752702 
L 386.54346 279.51045 
L 387.629261 282.335932 
L 388.715062 286.911509 
L 389.800863 288.963348 
L 390.886665 287.652899 
L 391.972466 290.160545 
L 393.058267 291.457847 
L 394.144068 287.645242 
L 395.229869 286.758735 
L 396.31567 291.613227 
L 397.401472 294.483245 
L 398.487273 295.488 
L 398.487273 295.488 
" clip-path="url(#pd796d8284b)" style="fill: none; stroke: #008000; stroke-width: 2; stroke-linecap: square"/>
   </g>
   <g id="patch_3">
    <path d="M 57.6 307.584 
L 57.6 41.472 
" style="fill: none; stroke: #bcbcbc; stroke-width: 0.8; stroke-linejoin: miter; stroke-linecap: square"/>
   </g>
   <g id="patch_4">
    <path d="M 414.72 307.584 
L 414.72 41.472 
" style="fill: none; stroke: #bcbcbc; stroke-width: 0.8; stroke-linejoin: miter; stroke-linecap: square"/>
   </g>
   <g id="patch_5">
    <path d="M 57.6 307.584 
L 414.72 307.584 
" style="fill: none; stroke: #bcbcbc; stroke-width: 0.8; stroke-linejoin: miter; stroke-linecap: square"/>
   </g>
   <g id="patch_6">
    <path d="M 57.6 41.472 
L 414.72 41.472 
" style="fill: none; stroke: #bcbcbc; stroke-width: 0.8; stroke-linejoin: miter; stroke-linecap: square"/>
   </g>
   <g id="text_13">
    <!-- Correlations with n = 300 -->
    <g transform="translate(143.94375 35.472) scale(0.144 -0.144)">
     <defs>
      <path id="DejaVuSans-43" d="M 4122 4306 
L 4122 3641 
Q 3803 3938 3442 4084 
Q 3081 4231 2675 4231 
Q 1875 4231 1450 3742 
Q 1025 3253 1025 2328 
Q 1025 1406 1450 917 
Q 1875 428 2675 428 
Q 3081 428 3442 575 
Q 3803 722 4122 1019 
L 4122 359 
Q 3791 134 3420 21 
Q 3050 -91 2638 -91 
Q 1578 -91 968 557 
Q 359 1206 359 2328 
Q 359 3453 968 4101 
Q 1578 4750 2638 4750 
Q 3056 4750 3426 4639 
Q 3797 4528 4122 4306 
z
" transform="scale(0.015625)"/>
      <path id="DejaVuSans-6f" d="M 1959 3097 
Q 1497 3097 1228 2736 
Q 959 2375 959 1747 
Q 959 1119 1226 758 
Q 1494 397 1959 397 
Q 2419 397 2687 759 
Q 2956 1122 2956 1747 
Q 2956 2369 2687 2733 
Q 2419 3097 1959 3097 
z
M 1959 3584 
Q 2709 3584 3137 3096 
Q 3566 2609 3566 1747 
Q 3566 888 3137 398 
Q 2709 -91 1959 -91 
Q 1206 -91 779 398 
Q 353 888 353 1747 
Q 353 2609 779 3096 
Q 1206 3584 1959 3584 
z
" transform="scale(0.015625)"/>
      <path id="DejaVuSans-72" d="M 2631 2963 
Q 2534 3019 2420 3045 
Q 2306 3072 2169 3072 
Q 1681 3072 1420 2755 
Q 1159 2438 1159 1844 
L 1159 0 
L 581 0 
L 581 3500 
L 1159 3500 
L 1159 2956 
Q 1341 3275 1631 3429 
Q 1922 3584 2338 3584 
Q 2397 3584 2469 3576 
Q 2541 3569 2628 3553 
L 2631 2963 
z
" transform="scale(0.015625)"/>
      <path id="DejaVuSans-65" d="M 3597 1894 
L 3597 1613 
L 953 1613 
Q 991 1019 1311 708 
Q 1631 397 2203 397 
Q 2534 397 2845 478 
Q 3156 559 3463 722 
L 3463 178 
Q 3153 47 2828 -22 
Q 2503 -91 2169 -91 
Q 1331 -91 842 396 
Q 353 884 353 1716 
Q 353 2575 817 3079 
Q 1281 3584 2069 3584 
Q 2775 3584 3186 3129 
Q 3597 2675 3597 1894 
z
M 3022 2063 
Q 3016 2534 2758 2815 
Q 2500 3097 2075 3097 
Q 1594 3097 1305 2825 
Q 1016 2553 972 2059 
L 3022 2063 
z
" transform="scale(0.015625)"/>
      <path id="DejaVuSans-6c" d="M 603 4863 
L 1178 4863 
L 1178 0 
L 603 0 
L 603 4863 
z
" transform="scale(0.015625)"/>
      <path id="DejaVuSans-61" d="M 2194 1759 
Q 1497 1759 1228 1600 
Q 959 1441 959 1056 
Q 959 750 1161 570 
Q 1363 391 1709 391 
Q 2188 391 2477 730 
Q 2766 1069 2766 1631 
L 2766 1759 
L 2194 1759 
z
M 3341 1997 
L 3341 0 
L 2766 0 
L 2766 531 
Q 2569 213 2275 61 
Q 1981 -91 1556 -91 
Q 1019 -91 701 211 
Q 384 513 384 1019 
Q 384 1609 779 1909 
Q 1175 2209 1959 2209 
L 2766 2209 
L 2766 2266 
Q 2766 2663 2505 2880 
Q 2244 3097 1772 3097 
Q 1472 3097 1187 3025 
Q 903 2953 641 2809 
L 641 3341 
Q 956 3463 1253 3523 
Q 1550 3584 1831 3584 
Q 2591 3584 2966 3190 
Q 3341 2797 3341 1997 
z
" transform="scale(0.015625)"/>
      <path id="DejaVuSans-74" d="M 1172 4494 
L 1172 3500 
L 2356 3500 
L 2356 3053 
L 1172 3053 
L 1172 1153 
Q 1172 725 1289 603 
Q 1406 481 1766 481 
L 2356 481 
L 2356 0 
L 1766 0 
Q 1100 0 847 248 
Q 594 497 594 1153 
L 594 3053 
L 172 3053 
L 172 3500 
L 594 3500 
L 594 4494 
L 1172 4494 
z
" transform="scale(0.015625)"/>
      <path id="DejaVuSans-69" d="M 603 3500 
L 1178 3500 
L 1178 0 
L 603 0 
L 603 3500 
z
M 603 4863 
L 1178 4863 
L 1178 4134 
L 603 4134 
L 603 4863 
z
" transform="scale(0.015625)"/>
      <path id="DejaVuSans-6e" d="M 3513 2113 
L 3513 0 
L 2938 0 
L 2938 2094 
Q 2938 2591 2744 2837 
Q 2550 3084 2163 3084 
Q 1697 3084 1428 2787 
Q 1159 2491 1159 1978 
L 1159 0 
L 581 0 
L 581 3500 
L 1159 3500 
L 1159 2956 
Q 1366 3272 1645 3428 
Q 1925 3584 2291 3584 
Q 2894 3584 3203 3211 
Q 3513 2838 3513 2113 
z
" transform="scale(0.015625)"/>
      <path id="DejaVuSans-73" d="M 2834 3397 
L 2834 2853 
Q 2591 2978 2328 3040 
Q 2066 3103 1784 3103 
Q 1356 3103 1142 2972 
Q 928 2841 928 2578 
Q 928 2378 1081 2264 
Q 1234 2150 1697 2047 
L 1894 2003 
Q 2506 1872 2764 1633 
Q 3022 1394 3022 966 
Q 3022 478 2636 193 
Q 2250 -91 1575 -91 
Q 1294 -91 989 -36 
Q 684 19 347 128 
L 347 722 
Q 666 556 975 473 
Q 1284 391 1588 391 
Q 1994 391 2212 530 
Q 2431 669 2431 922 
Q 2431 1156 2273 1281 
Q 2116 1406 1581 1522 
L 1381 1569 
Q 847 1681 609 1914 
Q 372 2147 372 2553 
Q 372 3047 722 3315 
Q 1072 3584 1716 3584 
Q 2034 3584 2315 3537 
Q 2597 3491 2834 3397 
z
" transform="scale(0.015625)"/>
      <path id="DejaVuSans-20" transform="scale(0.015625)"/>
      <path id="DejaVuSans-77" d="M 269 3500 
L 844 3500 
L 1563 769 
L 2278 3500 
L 2956 3500 
L 3675 769 
L 4391 3500 
L 4966 3500 
L 4050 0 
L 3372 0 
L 2619 2869 
L 1863 0 
L 1184 0 
L 269 3500 
z
" transform="scale(0.015625)"/>
      <path id="DejaVuSans-68" d="M 3513 2113 
L 3513 0 
L 2938 0 
L 2938 2094 
Q 2938 2591 2744 2837 
Q 2550 3084 2163 3084 
Q 1697 3084 1428 2787 
Q 1159 2491 1159 1978 
L 1159 0 
L 581 0 
L 581 4863 
L 1159 4863 
L 1159 2956 
Q 1366 3272 1645 3428 
Q 1925 3584 2291 3584 
Q 2894 3584 3203 3211 
Q 3513 2838 3513 2113 
z
" transform="scale(0.015625)"/>
      <path id="DejaVuSans-3d" d="M 678 2906 
L 4684 2906 
L 4684 2381 
L 678 2381 
L 678 2906 
z
M 678 1631 
L 4684 1631 
L 4684 1100 
L 678 1100 
L 678 1631 
z
" transform="scale(0.015625)"/>
      <path id="DejaVuSans-33" d="M 2597 2516 
Q 3050 2419 3304 2112 
Q 3559 1806 3559 1356 
Q 3559 666 3084 287 
Q 2609 -91 1734 -91 
Q 1441 -91 1130 -33 
Q 819 25 488 141 
L 488 750 
Q 750 597 1062 519 
Q 1375 441 1716 441 
Q 2309 441 2620 675 
Q 2931 909 2931 1356 
Q 2931 1769 2642 2001 
Q 2353 2234 1838 2234 
L 1294 2234 
L 1294 2753 
L 1863 2753 
Q 2328 2753 2575 2939 
Q 2822 3125 2822 3475 
Q 2822 3834 2567 4026 
Q 2313 4219 1838 4219 
Q 1578 4219 1281 4162 
Q 984 4106 628 3988 
L 628 4550 
Q 988 4650 1302 4700 
Q 1616 4750 1894 4750 
Q 2613 4750 3031 4423 
Q 3450 4097 3450 3541 
Q 3450 3153 3228 2886 
Q 3006 2619 2597 2516 
z
" transform="scale(0.015625)"/>
     </defs>
     <use xlink:href="#DejaVuSans-43"/>
     <use xlink:href="#DejaVuSans-6f" transform="translate(69.824219 0)"/>
     <use xlink:href="#DejaVuSans-72" transform="translate(131.005859 0)"/>
     <use xlink:href="#DejaVuSans-72" transform="translate(170.369141 0)"/>
     <use xlink:href="#DejaVuSans-65" transform="translate(209.232422 0)"/>
     <use xlink:href="#DejaVuSans-6c" transform="translate(270.755859 0)"/>
     <use xlink:href="#DejaVuSans-61" transform="translate(298.539062 0)"/>
     <use xlink:href="#DejaVuSans-74" transform="translate(359.818359 0)"/>
     <use xlink:href="#DejaVuSans-69" transform="translate(399.027344 0)"/>
     <use xlink:href="#DejaVuSans-6f" transform="translate(426.810547 0)"/>
     <use xlink:href="#DejaVuSans-6e" transform="translate(487.992188 0)"/>
     <use xlink:href="#DejaVuSans-73" transform="translate(551.371094 0)"/>
     <use xlink:href="#DejaVuSans-20" transform="translate(603.470703 0)"/>
     <use xlink:href="#DejaVuSans-77" transform="translate(635.257812 0)"/>
     <use xlink:href="#DejaVuSans-69" transform="translate(717.044922 0)"/>
     <use xlink:href="#DejaVuSans-74" transform="translate(744.828125 0)"/>
     <use xlink:href="#DejaVuSans-68" transform="translate(784.037109 0)"/>
     <use xlink:href="#DejaVuSans-20" transform="translate(847.416016 0)"/>
     <use xlink:href="#DejaVuSans-6e" transform="translate(879.203125 0)"/>
     <use xlink:href="#DejaVuSans-20" transform="translate(942.582031 0)"/>
     <use xlink:href="#DejaVuSans-3d" transform="translate(974.369141 0)"/>
     <use xlink:href="#DejaVuSans-20" transform="translate(1058.158203 0)"/>
     <use xlink:href="#DejaVuSans-33" transform="translate(1089.945312 0)"/>
     <use xlink:href="#DejaVuSans-30" transform="translate(1153.568359 0)"/>
     <use xlink:href="#DejaVuSans-30" transform="translate(1217.191406 0)"/>
    </g>
   </g>
  </g>
 </g>
 <defs>
  <clipPath id="pd796d8284b">
   <rect x="57.6" y="41.472" width="357.12" height="266.112"/>
  </clipPath>
 </defs>
</svg>
