<?xml version="1.0" encoding="utf-8" standalone="no"?>
<!DOCTYPE svg PUBLIC "-//W3C//DTD SVG 1.1//EN"
  "http://www.w3.org/Graphics/SVG/1.1/DTD/svg11.dtd">
<svg xmlns:xlink="http://www.w3.org/1999/xlink" width="460.8pt" height="345.6pt" viewBox="0 0 460.8 345.6" xmlns="http://www.w3.org/2000/svg" version="1.1">
 <metadata>
  <rdf:RDF xmlns:dc="http://purl.org/dc/elements/1.1/" xmlns:cc="http://creativecommons.org/ns#" xmlns:rdf="http://www.w3.org/1999/02/22-rdf-syntax-ns#">
   <cc:Work>
    <dc:type rdf:resource="http://purl.org/dc/dcmitype/StillImage"/>
    <dc:date>2025-10-13T13:54:35.646403</dc:date>
    <dc:format>image/svg+xml</dc:format>
    <dc:creator>
     <cc:Agent>
      <dc:title>Matplotlib v3.10.5, https://matplotlib.org/</dc:title>
     </cc:Agent>
    </dc:creator>
   </cc:Work>
  </rdf:RDF>
 </metadata>
 <defs>
  <style type="text/css">*{stroke-linejoin: round; stroke-linecap: butt}</style>
 </defs>
 <g id="figure_1">
  <g id="patch_1">
   <path d="M 0 345.6 
L 460.8 345.6 
L 460.8 0 
L 0 0 
z
" style="fill: #ffffff"/>
  </g>
  <g id="axes_1">
   <g id="patch_2">
    <path d="M 57.6 307.584 
L 414.72 307.584 
L 414.72 41.472 
L 57.6 41.472 
z
" style="fill: #eeeeee"/>
   </g>
   <g id="matplotlib.axis_1">
    <g id="xtick_1">
     <g id="line2d_1">
      <path d="M 73.832727 307.584 
L 73.832727 41.472 
" clip-path="url(#pf039541ce9)" style="fill: none; stroke-dasharray: 1.85,0.8; stroke-dashoffset: 0; stroke: #b2b2b2; stroke-width: 0.5"/>
     </g>
     <g id="line2d_2">
      <defs>
       <path id="m12ed557b59" d="M 0 0 
L 0 -3.5 
" style="stroke: #000000; stroke-width: 0.8"/>
      </defs>
      <g>
       <use xlink:href="#m12ed557b59" x="73.832727" y="307.584" style="stroke: #000000; stroke-width: 0.8"/>
      </g>
     </g>
     <g id="text_1">
      <!-- 0.00 -->
      <g transform="translate(62.699915 318.682437) scale(0.1 -0.1)">
       <defs>
        <path id="DejaVuSans-30" d="M 2034 4250 
Q 1547 4250 1301 3770 
Q 1056 3291 1056 2328 
Q 1056 1369 1301 889 
Q 1547 409 2034 409 
Q 2525 409 2770 889 
Q 3016 1369 3016 2328 
Q 3016 3291 2770 3770 
Q 2525 4250 2034 4250 
z
M 2034 4750 
Q 2819 4750 3233 4129 
Q 3647 3509 3647 2328 
Q 3647 1150 3233 529 
Q 2819 -91 2034 -91 
Q 1250 -91 836 529 
Q 422 1150 422 2328 
Q 422 3509 836 4129 
Q 1250 4750 2034 4750 
z
" transform="scale(0.015625)"/>
        <path id="DejaVuSans-2e" d="M 684 794 
L 1344 794 
L 1344 0 
L 684 0 
L 684 794 
z
" transform="scale(0.015625)"/>
       </defs>
       <use xlink:href="#DejaVuSans-30"/>
       <use xlink:href="#DejaVuSans-2e" transform="translate(63.623047 0)"/>
       <use xlink:href="#DejaVuSans-30" transform="translate(95.410156 0)"/>
       <use xlink:href="#DejaVuSans-30" transform="translate(159.033203 0)"/>
      </g>
     </g>
    </g>
    <g id="xtick_2">
     <g id="line2d_3">
      <path d="M 116.721873 307.584 
L 116.721873 41.472 
" clip-path="url(#pf039541ce9)" style="fill: none; stroke-dasharray: 1.85,0.8; stroke-dashoffset: 0; stroke: #b2b2b2; stroke-width: 0.5"/>
     </g>
     <g id="line2d_4">
      <g>
       <use xlink:href="#m12ed557b59" x="116.721873" y="307.584" style="stroke: #000000; stroke-width: 0.8"/>
      </g>
     </g>
     <g id="text_2">
      <!-- 0.25 -->
      <g transform="translate(105.58906 318.682437) scale(0.1 -0.1)">
       <defs>
        <path id="DejaVuSans-32" d="M 1228 531 
L 3431 531 
L 3431 0 
L 469 0 
L 469 531 
Q 828 903 1448 1529 
Q 2069 2156 2228 2338 
Q 2531 2678 2651 2914 
Q 2772 3150 2772 3378 
Q 2772 3750 2511 3984 
Q 2250 4219 1831 4219 
Q 1534 4219 1204 4116 
Q 875 4013 500 3803 
L 500 4441 
Q 881 4594 1212 4672 
Q 1544 4750 1819 4750 
Q 2544 4750 2975 4387 
Q 3406 4025 3406 3419 
Q 3406 3131 3298 2873 
Q 3191 2616 2906 2266 
Q 2828 2175 2409 1742 
Q 1991 1309 1228 531 
z
" transform="scale(0.015625)"/>
        <path id="DejaVuSans-35" d="M 691 4666 
L 3169 4666 
L 3169 4134 
L 1269 4134 
L 1269 2991 
Q 1406 3038 1543 3061 
Q 1681 3084 1819 3084 
Q 2600 3084 3056 2656 
Q 3513 2228 3513 1497 
Q 3513 744 3044 326 
Q 2575 -91 1722 -91 
Q 1428 -91 1123 -41 
Q 819 9 494 109 
L 494 744 
Q 775 591 1075 516 
Q 1375 441 1709 441 
Q 2250 441 2565 725 
Q 2881 1009 2881 1497 
Q 2881 1984 2565 2268 
Q 2250 2553 1709 2553 
Q 1456 2553 1204 2497 
Q 953 2441 691 2322 
L 691 4666 
z
" transform="scale(0.015625)"/>
       </defs>
       <use xlink:href="#DejaVuSans-30"/>
       <use xlink:href="#DejaVuSans-2e" transform="translate(63.623047 0)"/>
       <use xlink:href="#DejaVuSans-32" transform="translate(95.410156 0)"/>
       <use xlink:href="#DejaVuSans-35" transform="translate(159.033203 0)"/>
      </g>
     </g>
    </g>
    <g id="xtick_3">
     <g id="line2d_5">
      <path d="M 159.611019 307.584 
L 159.611019 41.472 
" clip-path="url(#pf039541ce9)" style="fill: none; stroke-dasharray: 1.85,0.8; stroke-dashoffset: 0; stroke: #b2b2b2; stroke-width: 0.5"/>
     </g>
     <g id="line2d_6">
      <g>
       <use xlink:href="#m12ed557b59" x="159.611019" y="307.584" style="stroke: #000000; stroke-width: 0.8"/>
      </g>
     </g>
     <g id="text_3">
      <!-- 0.50 -->
      <g transform="translate(148.478206 318.682437) scale(0.1 -0.1)">
       <use xlink:href="#DejaVuSans-30"/>
       <use xlink:href="#DejaVuSans-2e" transform="translate(63.623047 0)"/>
       <use xlink:href="#DejaVuSans-35" transform="translate(95.410156 0)"/>
       <use xlink:href="#DejaVuSans-30" transform="translate(159.033203 0)"/>
      </g>
     </g>
    </g>
    <g id="xtick_4">
     <g id="line2d_7">
      <path d="M 202.500164 307.584 
L 202.500164 41.472 
" clip-path="url(#pf039541ce9)" style="fill: none; stroke-dasharray: 1.85,0.8; stroke-dashoffset: 0; stroke: #b2b2b2; stroke-width: 0.5"/>
     </g>
     <g id="line2d_8">
      <g>
       <use xlink:href="#m12ed557b59" x="202.500164" y="307.584" style="stroke: #000000; stroke-width: 0.8"/>
      </g>
     </g>
     <g id="text_4">
      <!-- 0.75 -->
      <g transform="translate(191.367352 318.682437) scale(0.1 -0.1)">
       <defs>
        <path id="DejaVuSans-37" d="M 525 4666 
L 3525 4666 
L 3525 4397 
L 1831 0 
L 1172 0 
L 2766 4134 
L 525 4134 
L 525 4666 
z
" transform="scale(0.015625)"/>
       </defs>
       <use xlink:href="#DejaVuSans-30"/>
       <use xlink:href="#DejaVuSans-2e" transform="translate(63.623047 0)"/>
       <use xlink:href="#DejaVuSans-37" transform="translate(95.410156 0)"/>
       <use xlink:href="#DejaVuSans-35" transform="translate(159.033203 0)"/>
      </g>
     </g>
    </g>
    <g id="xtick_5">
     <g id="line2d_9">
      <path d="M 245.38931 307.584 
L 245.38931 41.472 
" clip-path="url(#pf039541ce9)" style="fill: none; stroke-dasharray: 1.85,0.8; stroke-dashoffset: 0; stroke: #b2b2b2; stroke-width: 0.5"/>
     </g>
     <g id="line2d_10">
      <g>
       <use xlink:href="#m12ed557b59" x="245.38931" y="307.584" style="stroke: #000000; stroke-width: 0.8"/>
      </g>
     </g>
     <g id="text_5">
      <!-- 1.00 -->
      <g transform="translate(234.256497 318.682437) scale(0.1 -0.1)">
       <defs>
        <path id="DejaVuSans-31" d="M 794 531 
L 1825 531 
L 1825 4091 
L 703 3866 
L 703 4441 
L 1819 4666 
L 2450 4666 
L 2450 531 
L 3481 531 
L 3481 0 
L 794 0 
L 794 531 
z
" transform="scale(0.015625)"/>
       </defs>
       <use xlink:href="#DejaVuSans-31"/>
       <use xlink:href="#DejaVuSans-2e" transform="translate(63.623047 0)"/>
       <use xlink:href="#DejaVuSans-30" transform="translate(95.410156 0)"/>
       <use xlink:href="#DejaVuSans-30" transform="translate(159.033203 0)"/>
      </g>
     </g>
    </g>
    <g id="xtick_6">
     <g id="line2d_11">
      <path d="M 288.278455 307.584 
L 288.278455 41.472 
" clip-path="url(#pf039541ce9)" style="fill: none; stroke-dasharray: 1.85,0.8; stroke-dashoffset: 0; stroke: #b2b2b2; stroke-width: 0.5"/>
     </g>
     <g id="line2d_12">
      <g>
       <use xlink:href="#m12ed557b59" x="288.278455" y="307.584" style="stroke: #000000; stroke-width: 0.8"/>
      </g>
     </g>
     <g id="text_6">
      <!-- 1.25 -->
      <g transform="translate(277.145643 318.682437) scale(0.1 -0.1)">
       <use xlink:href="#DejaVuSans-31"/>
       <use xlink:href="#DejaVuSans-2e" transform="translate(63.623047 0)"/>
       <use xlink:href="#DejaVuSans-32" transform="translate(95.410156 0)"/>
       <use xlink:href="#DejaVuSans-35" transform="translate(159.033203 0)"/>
      </g>
     </g>
    </g>
    <g id="xtick_7">
     <g id="line2d_13">
      <path d="M 331.167601 307.584 
L 331.167601 41.472 
" clip-path="url(#pf039541ce9)" style="fill: none; stroke-dasharray: 1.85,0.8; stroke-dashoffset: 0; stroke: #b2b2b2; stroke-width: 0.5"/>
     </g>
     <g id="line2d_14">
      <g>
       <use xlink:href="#m12ed557b59" x="331.167601" y="307.584" style="stroke: #000000; stroke-width: 0.8"/>
      </g>
     </g>
     <g id="text_7">
      <!-- 1.50 -->
      <g transform="translate(320.034789 318.682437) scale(0.1 -0.1)">
       <use xlink:href="#DejaVuSans-31"/>
       <use xlink:href="#DejaVuSans-2e" transform="translate(63.623047 0)"/>
       <use xlink:href="#DejaVuSans-35" transform="translate(95.410156 0)"/>
       <use xlink:href="#DejaVuSans-30" transform="translate(159.033203 0)"/>
      </g>
     </g>
    </g>
    <g id="xtick_8">
     <g id="line2d_15">
      <path d="M 374.056747 307.584 
L 374.056747 41.472 
" clip-path="url(#pf039541ce9)" style="fill: none; stroke-dasharray: 1.85,0.8; stroke-dashoffset: 0; stroke: #b2b2b2; stroke-width: 0.5"/>
     </g>
     <g id="line2d_16">
      <g>
       <use xlink:href="#m12ed557b59" x="374.056747" y="307.584" style="stroke: #000000; stroke-width: 0.8"/>
      </g>
     </g>
     <g id="text_8">
      <!-- 1.75 -->
      <g transform="translate(362.923934 318.682437) scale(0.1 -0.1)">
       <use xlink:href="#DejaVuSans-31"/>
       <use xlink:href="#DejaVuSans-2e" transform="translate(63.623047 0)"/>
       <use xlink:href="#DejaVuSans-37" transform="translate(95.410156 0)"/>
       <use xlink:href="#DejaVuSans-35" transform="translate(159.033203 0)"/>
      </g>
     </g>
    </g>
    <g id="text_9">
     <!-- $s/s_c$ -->
     <g transform="translate(225.3 333.762125) scale(0.12 -0.12)">
      <defs>
       <path id="Cmmi10-73" d="M 556 391 
Q 728 97 1247 97 
Q 1472 97 1675 173 
Q 1878 250 2011 403 
Q 2144 556 2144 775 
Q 2144 941 2025 1047 
Q 1906 1153 1734 1191 
L 1388 1259 
Q 1150 1319 997 1481 
Q 844 1644 844 1875 
Q 844 2159 998 2378 
Q 1153 2597 1406 2712 
Q 1659 2828 1931 2828 
Q 2222 2828 2451 2689 
Q 2681 2550 2681 2278 
Q 2681 2131 2598 2018 
Q 2516 1906 2369 1906 
Q 2284 1906 2223 1961 
Q 2163 2016 2163 2100 
Q 2163 2175 2205 2245 
Q 2247 2316 2317 2358 
Q 2388 2400 2463 2400 
Q 2406 2538 2251 2600 
Q 2097 2663 1919 2663 
Q 1756 2663 1593 2597 
Q 1431 2531 1332 2404 
Q 1234 2278 1234 2106 
Q 1234 1991 1315 1903 
Q 1397 1816 1516 1778 
L 1888 1703 
Q 2066 1666 2214 1570 
Q 2363 1475 2448 1329 
Q 2534 1184 2534 997 
Q 2534 759 2401 528 
Q 2269 297 2075 159 
Q 1734 -72 1241 -72 
Q 900 -72 615 84 
Q 331 241 331 550 
Q 331 725 432 854 
Q 534 984 709 984 
Q 813 984 883 921 
Q 953 859 953 756 
Q 953 609 843 500 
Q 734 391 588 391 
L 556 391 
z
" transform="scale(0.015625)"/>
       <path id="Cmmi10-3d" d="M 359 -1472 
Q 359 -1453 366 -1447 
L 2591 4722 
Q 2603 4759 2634 4779 
Q 2666 4800 2706 4800 
Q 2763 4800 2798 4765 
Q 2834 4731 2834 4672 
L 2834 4647 
L 609 -1522 
Q 572 -1600 488 -1600 
Q 434 -1600 396 -1562 
Q 359 -1525 359 -1472 
z
" transform="scale(0.015625)"/>
       <path id="Cmmi10-63" d="M 750 763 
Q 750 484 892 290 
Q 1034 97 1300 97 
Q 1681 97 2032 272 
Q 2384 447 2606 756 
Q 2625 775 2656 775 
Q 2688 775 2720 739 
Q 2753 703 2753 672 
Q 2753 647 2741 634 
Q 2506 306 2109 117 
Q 1713 -72 1288 -72 
Q 981 -72 747 73 
Q 513 219 384 462 
Q 256 706 256 1013 
Q 256 1444 497 1869 
Q 738 2294 1138 2561 
Q 1538 2828 1978 2828 
Q 2266 2828 2495 2689 
Q 2725 2550 2725 2278 
Q 2725 2103 2623 1979 
Q 2522 1856 2350 1856 
Q 2247 1856 2176 1920 
Q 2106 1984 2106 2088 
Q 2106 2238 2215 2344 
Q 2325 2450 2472 2450 
L 2484 2450 
Q 2409 2559 2267 2611 
Q 2125 2663 1972 2663 
Q 1597 2663 1315 2342 
Q 1034 2022 892 1576 
Q 750 1131 750 763 
z
" transform="scale(0.015625)"/>
      </defs>
      <use xlink:href="#Cmmi10-73"/>
      <use xlink:href="#Cmmi10-3d" transform="translate(46.777344 0)"/>
      <use xlink:href="#Cmmi10-73" transform="translate(96.777344 0)"/>
      <use xlink:href="#Cmmi10-63" transform="translate(143.554688 -17.00625) scale(0.7)"/>
     </g>
    </g>
   </g>
   <g id="matplotlib.axis_2">
    <g id="ytick_1">
     <g id="line2d_17">
      <path d="M 57.6 295.49386 
L 414.72 295.49386 
" clip-path="url(#pf039541ce9)" style="fill: none; stroke-dasharray: 1.85,0.8; stroke-dashoffset: 0; stroke: #b2b2b2; stroke-width: 0.5"/>
     </g>
     <g id="line2d_18">
      <defs>
       <path id="mb3c4466c04" d="M 0 0 
L 3.5 0 
" style="stroke: #000000; stroke-width: 0.8"/>
      </defs>
      <g>
       <use xlink:href="#mb3c4466c04" x="57.6" y="295.49386" style="stroke: #000000; stroke-width: 0.8"/>
      </g>
     </g>
     <g id="text_10">
      <!-- 0.0 -->
      <g transform="translate(38.196875 299.293079) scale(0.1 -0.1)">
       <use xlink:href="#DejaVuSans-30"/>
       <use xlink:href="#DejaVuSans-2e" transform="translate(63.623047 0)"/>
       <use xlink:href="#DejaVuSans-30" transform="translate(95.410156 0)"/>
      </g>
     </g>
    </g>
    <g id="ytick_2">
     <g id="line2d_19">
      <path d="M 57.6 243.218511 
L 414.72 243.218511 
" clip-path="url(#pf039541ce9)" style="fill: none; stroke-dasharray: 1.85,0.8; stroke-dashoffset: 0; stroke: #b2b2b2; stroke-width: 0.5"/>
     </g>
     <g id="line2d_20">
      <g>
       <use xlink:href="#mb3c4466c04" x="57.6" y="243.218511" style="stroke: #000000; stroke-width: 0.8"/>
      </g>
     </g>
     <g id="text_11">
      <!-- 0.2 -->
      <g transform="translate(38.196875 247.017729) scale(0.1 -0.1)">
       <use xlink:href="#DejaVuSans-30"/>
       <use xlink:href="#DejaVuSans-2e" transform="translate(63.623047 0)"/>
       <use xlink:href="#DejaVuSans-32" transform="translate(95.410156 0)"/>
      </g>
     </g>
    </g>
    <g id="ytick_3">
     <g id="line2d_21">
      <path d="M 57.6 190.943161 
L 414.72 190.943161 
" clip-path="url(#pf039541ce9)" style="fill: none; stroke-dasharray: 1.85,0.8; stroke-dashoffset: 0; stroke: #b2b2b2; stroke-width: 0.5"/>
     </g>
     <g id="line2d_22">
      <g>
       <use xlink:href="#mb3c4466c04" x="57.6" y="190.943161" style="stroke: #000000; stroke-width: 0.8"/>
      </g>
     </g>
     <g id="text_12">
      <!-- 0.4 -->
      <g transform="translate(38.196875 194.74238) scale(0.1 -0.1)">
       <defs>
        <path id="DejaVuSans-34" d="M 2419 4116 
L 825 1625 
L 2419 1625 
L 2419 4116 
z
M 2253 4666 
L 3047 4666 
L 3047 1625 
L 3713 1625 
L 3713 1100 
L 3047 1100 
L 3047 0 
L 2419 0 
L 2419 1100 
L 313 1100 
L 313 1709 
L 2253 4666 
z
" transform="scale(0.015625)"/>
       </defs>
       <use xlink:href="#DejaVuSans-30"/>
       <use xlink:href="#DejaVuSans-2e" transform="translate(63.623047 0)"/>
       <use xlink:href="#DejaVuSans-34" transform="translate(95.410156 0)"/>
      </g>
     </g>
    </g>
    <g id="ytick_4">
     <g id="line2d_23">
      <path d="M 57.6 138.667811 
L 414.72 138.667811 
" clip-path="url(#pf039541ce9)" style="fill: none; stroke-dasharray: 1.85,0.8; stroke-dashoffset: 0; stroke: #b2b2b2; stroke-width: 0.5"/>
     </g>
     <g id="line2d_24">
      <g>
       <use xlink:href="#mb3c4466c04" x="57.6" y="138.667811" style="stroke: #000000; stroke-width: 0.8"/>
      </g>
     </g>
     <g id="text_13">
      <!-- 0.6 -->
      <g transform="translate(38.196875 142.46703) scale(0.1 -0.1)">
       <defs>
        <path id="DejaVuSans-36" d="M 2113 2584 
Q 1688 2584 1439 2293 
Q 1191 2003 1191 1497 
Q 1191 994 1439 701 
Q 1688 409 2113 409 
Q 2538 409 2786 701 
Q 3034 994 3034 1497 
Q 3034 2003 2786 2293 
Q 2538 2584 2113 2584 
z
M 3366 4563 
L 3366 3988 
Q 3128 4100 2886 4159 
Q 2644 4219 2406 4219 
Q 1781 4219 1451 3797 
Q 1122 3375 1075 2522 
Q 1259 2794 1537 2939 
Q 1816 3084 2150 3084 
Q 2853 3084 3261 2657 
Q 3669 2231 3669 1497 
Q 3669 778 3244 343 
Q 2819 -91 2113 -91 
Q 1303 -91 875 529 
Q 447 1150 447 2328 
Q 447 3434 972 4092 
Q 1497 4750 2381 4750 
Q 2619 4750 2861 4703 
Q 3103 4656 3366 4563 
z
" transform="scale(0.015625)"/>
       </defs>
       <use xlink:href="#DejaVuSans-30"/>
       <use xlink:href="#DejaVuSans-2e" transform="translate(63.623047 0)"/>
       <use xlink:href="#DejaVuSans-36" transform="translate(95.410156 0)"/>
      </g>
     </g>
    </g>
    <g id="ytick_5">
     <g id="line2d_25">
      <path d="M 57.6 86.392462 
L 414.72 86.392462 
" clip-path="url(#pf039541ce9)" style="fill: none; stroke-dasharray: 1.85,0.8; stroke-dashoffset: 0; stroke: #b2b2b2; stroke-width: 0.5"/>
     </g>
     <g id="line2d_26">
      <g>
       <use xlink:href="#mb3c4466c04" x="57.6" y="86.392462" style="stroke: #000000; stroke-width: 0.8"/>
      </g>
     </g>
     <g id="text_14">
      <!-- 0.8 -->
      <g transform="translate(38.196875 90.19168) scale(0.1 -0.1)">
       <defs>
        <path id="DejaVuSans-38" d="M 2034 2216 
Q 1584 2216 1326 1975 
Q 1069 1734 1069 1313 
Q 1069 891 1326 650 
Q 1584 409 2034 409 
Q 2484 409 2743 651 
Q 3003 894 3003 1313 
Q 3003 1734 2745 1975 
Q 2488 2216 2034 2216 
z
M 1403 2484 
Q 997 2584 770 2862 
Q 544 3141 544 3541 
Q 544 4100 942 4425 
Q 1341 4750 2034 4750 
Q 2731 4750 3128 4425 
Q 3525 4100 3525 3541 
Q 3525 3141 3298 2862 
Q 3072 2584 2669 2484 
Q 3125 2378 3379 2068 
Q 3634 1759 3634 1313 
Q 3634 634 3220 271 
Q 2806 -91 2034 -91 
Q 1263 -91 848 271 
Q 434 634 434 1313 
Q 434 1759 690 2068 
Q 947 2378 1403 2484 
z
M 1172 3481 
Q 1172 3119 1398 2916 
Q 1625 2713 2034 2713 
Q 2441 2713 2670 2916 
Q 2900 3119 2900 3481 
Q 2900 3844 2670 4047 
Q 2441 4250 2034 4250 
Q 1625 4250 1398 4047 
Q 1172 3844 1172 3481 
z
" transform="scale(0.015625)"/>
       </defs>
       <use xlink:href="#DejaVuSans-30"/>
       <use xlink:href="#DejaVuSans-2e" transform="translate(63.623047 0)"/>
       <use xlink:href="#DejaVuSans-38" transform="translate(95.410156 0)"/>
      </g>
     </g>
    </g>
    <g id="text_15">
     <!-- $D_{s}$ -->
     <g transform="translate(31.70125 181.848) rotate(-90) scale(0.12 -0.12)">
      <defs>
       <path id="Cmmi10-44" d="M 313 0 
Q 250 0 250 84 
Q 253 100 262 139 
Q 272 178 289 201 
Q 306 225 331 225 
Q 722 225 878 269 
Q 959 297 997 441 
L 1875 3956 
Q 1888 4019 1888 4044 
Q 1888 4113 1813 4122 
Q 1691 4147 1350 4147 
Q 1288 4147 1288 4231 
Q 1291 4247 1300 4286 
Q 1309 4325 1326 4348 
Q 1344 4372 1369 4372 
L 3669 4372 
Q 4116 4372 4450 4155 
Q 4784 3938 4962 3570 
Q 5141 3203 5141 2759 
Q 5141 2269 4937 1778 
Q 4734 1288 4368 881 
Q 4003 475 3534 237 
Q 3066 0 2572 0 
L 313 0 
z
M 1509 275 
Q 1509 225 1728 225 
L 2472 225 
Q 2828 225 3159 372 
Q 3491 519 3750 775 
Q 3991 1016 4175 1406 
Q 4359 1797 4461 2222 
Q 4563 2647 4563 3003 
Q 4563 3263 4486 3472 
Q 4409 3681 4270 3831 
Q 4131 3981 3922 4064 
Q 3713 4147 3450 4147 
L 2747 4147 
Q 2572 4147 2515 4117 
Q 2459 4088 2413 3928 
L 1538 416 
Q 1509 338 1509 275 
z
" transform="scale(0.015625)"/>
      </defs>
      <use xlink:href="#Cmmi10-44" transform="translate(0 0.6875)"/>
      <use xlink:href="#Cmmi10-73" transform="translate(82.714844 -16.31875) scale(0.7)"/>
     </g>
    </g>
   </g>
   <g id="line2d_27">
    <path d="M 73.832727 65.298705 
L 74.918528 68.956912 
L 77.090131 64.167456 
L 78.175932 63.980845 
L 79.261733 58.242239 
L 80.347534 66.543392 
L 81.433335 68.648349 
L 82.519137 66.726127 
L 83.604938 65.664833 
L 84.690739 58.387746 
L 86.862341 53.568 
L 87.948142 62.099523 
L 89.033943 73.27343 
L 90.119745 75.66385 
L 91.205546 71.207424 
L 92.291347 73.757015 
L 93.377148 65.901623 
L 94.462949 73.067558 
L 95.54875 76.901502 
L 96.634552 78.795532 
L 97.720353 77.549713 
L 98.806154 74.996092 
L 99.891955 75.382772 
L 100.977756 79.297738 
L 102.063557 80.234336 
L 103.149358 88.00523 
L 104.23516 82.977538 
L 105.320961 79.55824 
L 106.406762 82.084387 
L 107.492563 85.279509 
L 108.578364 86.070336 
L 109.664165 90.801972 
L 110.749967 85.684009 
L 111.835768 86.629408 
L 112.921569 87.75011 
L 114.00737 90.873017 
L 115.093171 84.825058 
L 116.178972 95.183535 
L 117.264773 100.612709 
L 118.350575 104.521346 
L 119.436376 103.75487 
L 120.522177 103.81005 
L 121.607978 104.081965 
L 122.693779 99.702783 
L 123.77958 104.244415 
L 124.865382 106.892552 
L 125.951183 103.072044 
L 127.036984 102.523739 
L 128.122785 97.879271 
L 129.208586 98.80726 
L 130.294387 103.576827 
L 131.380189 102.073432 
L 132.46599 103.246834 
L 133.551791 104.077098 
L 134.637592 103.817824 
L 135.723393 98.672896 
L 136.809194 99.270811 
L 138.980797 103.601251 
L 140.066598 106.77053 
L 141.152399 102.867823 
L 142.2382 100.19915 
L 143.324001 99.586855 
L 144.409802 104.741472 
L 145.495604 108.428921 
L 146.581405 110.013347 
L 147.667206 114.63349 
L 148.753007 114.584718 
L 149.838808 116.864984 
L 150.924609 120.38548 
L 152.01041 118.151303 
L 153.096212 118.33989 
L 154.182013 122.142643 
L 155.267814 120.057268 
L 156.353615 121.460906 
L 157.439416 124.271756 
L 158.525217 124.916857 
L 159.611019 126.615212 
L 160.69682 123.269134 
L 161.782621 123.772221 
L 162.868422 124.706068 
L 163.954223 127.535589 
L 165.040024 125.512511 
L 166.125825 123.974996 
L 167.211627 124.031823 
L 168.297428 125.056217 
L 169.383229 123.525317 
L 170.46903 122.788546 
L 171.554831 125.100471 
L 172.640632 129.287404 
L 173.726434 130.33718 
L 174.812235 133.05895 
L 175.898036 134.387219 
L 176.983837 131.193816 
L 178.069638 132.065853 
L 179.155439 131.644046 
L 180.24124 137.85503 
L 181.327042 147.030768 
L 182.412843 151.19863 
L 183.498644 148.582661 
L 184.584445 151.899186 
L 186.756047 152.608578 
L 187.841849 154.467849 
L 188.92765 156.75716 
L 190.013451 158.261114 
L 191.099252 162.138431 
L 192.185053 161.503051 
L 193.270854 163.907617 
L 194.356656 164.309687 
L 195.442457 161.741613 
L 196.528258 165.730067 
L 197.614059 166.892273 
L 198.69986 164.688403 
L 199.785661 167.063082 
L 200.871462 168.839075 
L 201.957264 170.255414 
L 203.043065 175.615493 
L 204.128866 179.985693 
L 205.214667 187.281274 
L 206.300468 188.030796 
L 207.386269 188.47157 
L 208.472071 189.45612 
L 210.643673 194.867569 
L 211.729474 196.788794 
L 212.815275 196.996652 
L 213.901076 192.735178 
L 214.986877 195.646108 
L 216.072679 195.54314 
L 217.15848 198.936667 
L 218.244281 201.089009 
L 219.330082 201.104874 
L 220.415883 196.574066 
L 221.501684 199.651539 
L 222.587486 201.67086 
L 224.759088 203.554806 
L 225.844889 205.271783 
L 226.93069 205.046911 
L 228.016491 208.775321 
L 229.102292 208.288527 
L 230.188094 204.044197 
L 232.359696 202.945312 
L 233.445497 204.776516 
L 234.531298 203.709806 
L 235.617099 204.39386 
L 236.702901 207.171775 
L 237.788702 207.577731 
L 238.874503 211.799697 
L 239.960304 210.415365 
L 241.046105 207.966428 
L 242.131906 211.889434 
L 243.217708 217.88834 
L 244.303509 217.564865 
L 245.38931 215.834583 
L 246.475111 216.640366 
L 247.560912 217.766405 
L 248.646713 221.74394 
L 249.732514 220.335809 
L 250.818316 221.484938 
L 251.904117 224.119203 
L 254.075719 233.565827 
L 255.16152 235.663358 
L 256.247321 236.523138 
L 257.333123 236.323512 
L 258.418924 234.640725 
L 259.504725 240.976533 
L 260.590526 242.513761 
L 261.676327 244.49647 
L 262.762128 244.277678 
L 263.847929 245.353749 
L 266.019532 252.024367 
L 267.105333 251.147028 
L 268.191134 250.763721 
L 269.276935 251.910129 
L 270.362736 252.351641 
L 271.448538 254.892372 
L 272.534339 255.840332 
L 273.62014 259.195841 
L 274.705941 259.350886 
L 275.791742 260.5227 
L 276.877543 261.38644 
L 277.963344 261.611074 
L 279.049146 259.197841 
L 280.134947 257.588501 
L 281.220748 258.417781 
L 282.306549 257.108453 
L 283.39235 256.208842 
L 284.478151 258.348637 
L 285.563953 259.573743 
L 286.649754 262.167525 
L 287.735555 262.064141 
L 288.821356 262.480178 
L 289.907157 262.57769 
L 290.992958 264.341812 
L 292.07876 264.034124 
L 293.164561 262.431619 
L 294.250362 263.442677 
L 295.336163 264.723788 
L 296.421964 266.292574 
L 297.507765 266.752632 
L 298.593566 266.926434 
L 299.679368 266.982181 
L 300.765169 268.850785 
L 301.85097 269.677628 
L 304.022572 271.682364 
L 305.108373 272.231387 
L 306.194175 273.830841 
L 307.279976 273.720442 
L 308.365777 274.089712 
L 309.451578 274.896477 
L 310.537379 274.949356 
L 311.62318 275.943759 
L 312.708981 275.594566 
L 313.794783 275.701062 
L 314.880584 276.000627 
L 315.966385 276.790601 
L 317.052186 277.202186 
L 318.137987 278.14751 
L 319.223788 277.744794 
L 320.30959 278.2333 
L 321.395391 278.089092 
L 322.481192 279.123462 
L 323.566993 280.606118 
L 324.652794 280.366608 
L 325.738595 280.248662 
L 326.824396 279.455517 
L 327.910198 279.913616 
L 328.995999 280.785869 
L 330.0818 280.997413 
L 331.167601 281.636579 
L 332.253402 281.70265 
L 333.339203 282.513303 
L 334.425005 282.237289 
L 336.596607 283.292103 
L 337.682408 284.481227 
L 338.768209 285.84459 
L 339.85401 286.198253 
L 340.939811 286.325804 
L 342.025613 286.640683 
L 343.111414 287.271466 
L 344.197215 288.159073 
L 345.283016 288.362398 
L 346.368817 288.828359 
L 347.454618 288.976934 
L 348.54042 289.412025 
L 349.626221 289.631966 
L 350.712022 290.072756 
L 351.797823 290.133328 
L 352.883624 289.682423 
L 353.969425 290.278849 
L 356.141028 290.259066 
L 360.484232 290.958704 
L 363.741636 291.947036 
L 364.827437 292.171133 
L 365.913238 292.157359 
L 368.08484 292.717528 
L 369.170642 292.767129 
L 370.256443 293.10683 
L 371.342244 293.070202 
L 374.599647 293.408592 
L 376.77125 293.719543 
L 381.114454 294.388853 
L 385.457659 294.71385 
L 387.629261 294.942461 
L 395.229869 295.373871 
L 398.487273 295.486196 
L 398.487273 295.486196 
" clip-path="url(#pf039541ce9)" style="fill: none; stroke: #0000ff; stroke-width: 2; stroke-linecap: square"/>
   </g>
   <g id="line2d_28">
    <path d="M 73.832727 152.585675 
L 74.918528 149.880674 
L 76.00433 148.903294 
L 77.090131 146.355257 
L 78.175932 150.17928 
L 80.347534 146.791512 
L 81.433335 136.88747 
L 82.519137 133.722488 
L 83.604938 125.370347 
L 84.690739 123.759665 
L 85.77654 125.40418 
L 86.862341 124.091588 
L 87.948142 123.804138 
L 89.033943 125.056059 
L 90.119745 127.468722 
L 91.205546 124.384243 
L 92.291347 134.246279 
L 93.377148 136.871175 
L 94.462949 142.232351 
L 95.54875 135.837336 
L 96.634552 126.209984 
L 97.720353 132.283898 
L 98.806154 129.362226 
L 99.891955 125.266775 
L 100.977756 111.479859 
L 102.063557 115.058675 
L 103.149358 115.188485 
L 104.23516 118.989624 
L 105.320961 117.089878 
L 106.406762 118.992045 
L 107.492563 117.088049 
L 109.664165 100.677998 
L 110.749967 106.25728 
L 111.835768 101.037348 
L 112.921569 92.573368 
L 114.00737 89.763946 
L 115.093171 94.459461 
L 116.178972 92.622621 
L 117.264773 89.324684 
L 119.436376 81.639004 
L 120.522177 87.689724 
L 121.607978 92.202 
L 122.693779 93.428635 
L 123.77958 89.660384 
L 124.865382 90.581593 
L 125.951183 89.126286 
L 127.036984 97.505459 
L 128.122785 99.773993 
L 129.208586 101.286616 
L 130.294387 101.296213 
L 131.380189 101.74303 
L 132.46599 116.365471 
L 133.551791 112.330898 
L 134.637592 117.919227 
L 135.723393 106.801714 
L 136.809194 115.640021 
L 137.894995 118.883103 
L 140.066598 115.406097 
L 141.152399 115.918039 
L 142.2382 112.732412 
L 143.324001 108.734693 
L 144.409802 102.659918 
L 145.495604 99.641021 
L 146.581405 102.968838 
L 147.667206 97.687613 
L 148.753007 101.89706 
L 149.838808 102.221015 
L 150.924609 90.86438 
L 153.096212 97.897232 
L 154.182013 105.848633 
L 155.267814 108.58377 
L 156.353615 115.551255 
L 157.439416 116.836039 
L 158.525217 116.357204 
L 159.611019 120.481532 
L 160.69682 123.206928 
L 161.782621 125.052465 
L 162.868422 127.789599 
L 163.954223 131.880336 
L 165.040024 131.126494 
L 166.125825 138.683419 
L 167.211627 133.800034 
L 168.297428 132.730614 
L 169.383229 135.262234 
L 170.46903 149.151692 
L 172.640632 160.779862 
L 173.726434 156.037219 
L 174.812235 159.128553 
L 175.898036 167.11825 
L 176.983837 166.47475 
L 178.069638 174.752147 
L 179.155439 178.728214 
L 180.24124 176.695758 
L 181.327042 179.975385 
L 182.412843 174.341199 
L 183.498644 174.445314 
L 184.584445 176.774484 
L 185.670246 178.469409 
L 186.756047 177.431752 
L 187.841849 169.183404 
L 188.92765 170.401919 
L 190.013451 180.852886 
L 191.099252 182.162631 
L 192.185053 187.066289 
L 193.270854 185.056159 
L 194.356656 187.5732 
L 196.528258 193.465337 
L 197.614059 195.742879 
L 198.69986 188.313913 
L 199.785661 196.518551 
L 200.871462 200.23427 
L 201.957264 190.851375 
L 203.043065 196.719389 
L 204.128866 193.589959 
L 205.214667 190.990609 
L 206.300468 195.995309 
L 207.386269 197.068368 
L 208.472071 193.908326 
L 209.557872 194.661099 
L 210.643673 194.392254 
L 211.729474 197.699569 
L 212.815275 202.145671 
L 213.901076 201.499841 
L 214.986877 205.483744 
L 216.072679 213.933127 
L 217.15848 215.965014 
L 218.244281 213.426185 
L 219.330082 211.352467 
L 220.415883 212.413406 
L 221.501684 208.924122 
L 222.587486 209.075288 
L 223.673287 210.699743 
L 224.759088 212.552869 
L 225.844889 211.637076 
L 226.93069 214.089749 
L 228.016491 215.787168 
L 229.102292 209.380449 
L 230.188094 207.672733 
L 231.273895 210.240082 
L 232.359696 211.200265 
L 234.531298 215.832672 
L 235.617099 220.671381 
L 236.702901 221.14426 
L 237.788702 221.744598 
L 238.874503 224.486722 
L 239.960304 226.662143 
L 241.046105 230.17636 
L 242.131906 230.542856 
L 243.217708 233.224955 
L 244.303509 233.505082 
L 245.38931 231.608603 
L 246.475111 229.095096 
L 247.560912 231.308644 
L 248.646713 232.766934 
L 249.732514 232.879647 
L 250.818316 231.594522 
L 251.904117 232.198677 
L 252.989918 229.859499 
L 254.075719 232.506374 
L 255.16152 232.243647 
L 256.247321 232.233899 
L 257.333123 231.720454 
L 258.418924 231.372786 
L 259.504725 233.360449 
L 260.590526 234.31929 
L 261.676327 233.657504 
L 262.762128 237.089529 
L 263.847929 234.895315 
L 264.933731 239.512927 
L 266.019532 235.936532 
L 267.105333 239.901632 
L 268.191134 241.262495 
L 269.276935 239.558902 
L 271.448538 243.35947 
L 272.534339 244.73654 
L 273.62014 242.54708 
L 274.705941 246.941036 
L 276.877543 251.089862 
L 277.963344 253.937113 
L 279.049146 258.430155 
L 280.134947 261.316495 
L 281.220748 262.192125 
L 282.306549 261.590907 
L 283.39235 260.027177 
L 284.478151 260.976064 
L 285.563953 262.938134 
L 287.735555 265.460745 
L 288.821356 264.441882 
L 289.907157 264.344465 
L 290.992958 263.596561 
L 292.07876 267.178811 
L 293.164561 266.474073 
L 294.250362 267.256459 
L 295.336163 266.957344 
L 296.421964 268.062614 
L 297.507765 268.477787 
L 298.593566 268.726115 
L 299.679368 267.458956 
L 300.765169 267.697274 
L 301.85097 270.649093 
L 302.936771 269.18574 
L 304.022572 271.530832 
L 305.108373 272.378178 
L 306.194175 274.312013 
L 308.365777 275.901734 
L 309.451578 275.391344 
L 310.537379 274.204425 
L 311.62318 272.662099 
L 312.708981 273.152995 
L 313.794783 273.903958 
L 315.966385 277.165415 
L 317.052186 278.478034 
L 318.137987 279.166432 
L 319.223788 279.288014 
L 321.395391 280.320958 
L 322.481192 281.478721 
L 323.566993 282.125689 
L 324.652794 282.910591 
L 325.738595 284.507818 
L 326.824396 285.158002 
L 327.910198 285.370217 
L 328.995999 285.182073 
L 331.167601 285.660091 
L 333.339203 284.971114 
L 334.425005 285.732739 
L 335.510806 285.917267 
L 336.596607 286.603409 
L 337.682408 286.336499 
L 338.768209 286.785586 
L 339.85401 287.803853 
L 340.939811 288.448923 
L 343.111414 288.599132 
L 344.197215 287.789748 
L 345.283016 287.498803 
L 346.368817 288.586966 
L 347.454618 289.324856 
L 348.54042 289.184226 
L 349.626221 290.015154 
L 350.712022 290.378107 
L 351.797823 289.884082 
L 352.883624 290.285898 
L 353.969425 289.670571 
L 355.055227 290.18763 
L 356.141028 289.941993 
L 357.226829 289.995967 
L 358.31263 290.600515 
L 359.398431 290.975428 
L 363.741636 291.966291 
L 364.827437 292.054714 
L 365.913238 291.84334 
L 368.08484 292.462039 
L 369.170642 292.767571 
L 370.256443 292.873894 
L 371.342244 292.855314 
L 372.428045 293.082836 
L 373.513846 293.537576 
L 381.114454 294.665668 
L 385.457659 295.06451 
L 387.629261 295.05157 
L 391.972466 295.283762 
L 398.487273 295.488 
L 398.487273 295.488 
" clip-path="url(#pf039541ce9)" style="fill: none; stroke: #008000; stroke-width: 2; stroke-linecap: square"/>
   </g>
   <g id="patch_3">
    <path d="M 57.6 307.584 
L 57.6 41.472 
" style="fill: none; stroke: #bcbcbc; stroke-width: 0.8; stroke-linejoin: miter; stroke-linecap: square"/>
   </g>
   <g id="patch_4">
    <path d="M 414.72 307.584 
L 414.72 41.472 
" style="fill: none; stroke: #bcbcbc; stroke-width: 0.8; stroke-linejoin: miter; stroke-linecap: square"/>
   </g>
   <g id="patch_5">
    <path d="M 57.6 307.584 
L 414.72 307.584 
" style="fill: none; stroke: #bcbcbc; stroke-width: 0.8; stroke-linejoin: miter; stroke-linecap: square"/>
   </g>
   <g id="patch_6">
    <path d="M 57.6 41.472 
L 414.72 41.472 
" style="fill: none; stroke: #bcbcbc; stroke-width: 0.8; stroke-linejoin: miter; stroke-linecap: square"/>
   </g>
   <g id="text_16">
    <!-- Correlations with n = 300 -->
    <g transform="translate(143.94375 35.472) scale(0.144 -0.144)">
     <defs>
      <path id="DejaVuSans-43" d="M 4122 4306 
L 4122 3641 
Q 3803 3938 3442 4084 
Q 3081 4231 2675 4231 
Q 1875 4231 1450 3742 
Q 1025 3253 1025 2328 
Q 1025 1406 1450 917 
Q 1875 428 2675 428 
Q 3081 428 3442 575 
Q 3803 722 4122 1019 
L 4122 359 
Q 3791 134 3420 21 
Q 3050 -91 2638 -91 
Q 1578 -91 968 557 
Q 359 1206 359 2328 
Q 359 3453 968 4101 
Q 1578 4750 2638 4750 
Q 3056 4750 3426 4639 
Q 3797 4528 4122 4306 
z
" transform="scale(0.015625)"/>
      <path id="DejaVuSans-6f" d="M 1959 3097 
Q 1497 3097 1228 2736 
Q 959 2375 959 1747 
Q 959 1119 1226 758 
Q 1494 397 1959 397 
Q 2419 397 2687 759 
Q 2956 1122 2956 1747 
Q 2956 2369 2687 2733 
Q 2419 3097 1959 3097 
z
M 1959 3584 
Q 2709 3584 3137 3096 
Q 3566 2609 3566 1747 
Q 3566 888 3137 398 
Q 2709 -91 1959 -91 
Q 1206 -91 779 398 
Q 353 888 353 1747 
Q 353 2609 779 3096 
Q 1206 3584 1959 3584 
z
" transform="scale(0.015625)"/>
      <path id="DejaVuSans-72" d="M 2631 2963 
Q 2534 3019 2420 3045 
Q 2306 3072 2169 3072 
Q 1681 3072 1420 2755 
Q 1159 2438 1159 1844 
L 1159 0 
L 581 0 
L 581 3500 
L 1159 3500 
L 1159 2956 
Q 1341 3275 1631 3429 
Q 1922 3584 2338 3584 
Q 2397 3584 2469 3576 
Q 2541 3569 2628 3553 
L 2631 2963 
z
" transform="scale(0.015625)"/>
      <path id="DejaVuSans-65" d="M 3597 1894 
L 3597 1613 
L 953 1613 
Q 991 1019 1311 708 
Q 1631 397 2203 397 
Q 2534 397 2845 478 
Q 3156 559 3463 722 
L 3463 178 
Q 3153 47 2828 -22 
Q 2503 -91 2169 -91 
Q 1331 -91 842 396 
Q 353 884 353 1716 
Q 353 2575 817 3079 
Q 1281 3584 2069 3584 
Q 2775 3584 3186 3129 
Q 3597 2675 3597 1894 
z
M 3022 2063 
Q 3016 2534 2758 2815 
Q 2500 3097 2075 3097 
Q 1594 3097 1305 2825 
Q 1016 2553 972 2059 
L 3022 2063 
z
" transform="scale(0.015625)"/>
      <path id="DejaVuSans-6c" d="M 603 4863 
L 1178 4863 
L 1178 0 
L 603 0 
L 603 4863 
z
" transform="scale(0.015625)"/>
      <path id="DejaVuSans-61" d="M 2194 1759 
Q 1497 1759 1228 1600 
Q 959 1441 959 1056 
Q 959 750 1161 570 
Q 1363 391 1709 391 
Q 2188 391 2477 730 
Q 2766 1069 2766 1631 
L 2766 1759 
L 2194 1759 
z
M 3341 1997 
L 3341 0 
L 2766 0 
L 2766 531 
Q 2569 213 2275 61 
Q 1981 -91 1556 -91 
Q 1019 -91 701 211 
Q 384 513 384 1019 
Q 384 1609 779 1909 
Q 1175 2209 1959 2209 
L 2766 2209 
L 2766 2266 
Q 2766 2663 2505 2880 
Q 2244 3097 1772 3097 
Q 1472 3097 1187 3025 
Q 903 2953 641 2809 
L 641 3341 
Q 956 3463 1253 3523 
Q 1550 3584 1831 3584 
Q 2591 3584 2966 3190 
Q 3341 2797 3341 1997 
z
" transform="scale(0.015625)"/>
      <path id="DejaVuSans-74" d="M 1172 4494 
L 1172 3500 
L 2356 3500 
L 2356 3053 
L 1172 3053 
L 1172 1153 
Q 1172 725 1289 603 
Q 1406 481 1766 481 
L 2356 481 
L 2356 0 
L 1766 0 
Q 1100 0 847 248 
Q 594 497 594 1153 
L 594 3053 
L 172 3053 
L 172 3500 
L 594 3500 
L 594 4494 
L 1172 4494 
z
" transform="scale(0.015625)"/>
      <path id="DejaVuSans-69" d="M 603 3500 
L 1178 3500 
L 1178 0 
L 603 0 
L 603 3500 
z
M 603 4863 
L 1178 4863 
L 1178 4134 
L 603 4134 
L 603 4863 
z
" transform="scale(0.015625)"/>
      <path id="DejaVuSans-6e" d="M 3513 2113 
L 3513 0 
L 2938 0 
L 2938 2094 
Q 2938 2591 2744 2837 
Q 2550 3084 2163 3084 
Q 1697 3084 1428 2787 
Q 1159 2491 1159 1978 
L 1159 0 
L 581 0 
L 581 3500 
L 1159 3500 
L 1159 2956 
Q 1366 3272 1645 3428 
Q 1925 3584 2291 3584 
Q 2894 3584 3203 3211 
Q 3513 2838 3513 2113 
z
" transform="scale(0.015625)"/>
      <path id="DejaVuSans-73" d="M 2834 3397 
L 2834 2853 
Q 2591 2978 2328 3040 
Q 2066 3103 1784 3103 
Q 1356 3103 1142 2972 
Q 928 2841 928 2578 
Q 928 2378 1081 2264 
Q 1234 2150 1697 2047 
L 1894 2003 
Q 2506 1872 2764 1633 
Q 3022 1394 3022 966 
Q 3022 478 2636 193 
Q 2250 -91 1575 -91 
Q 1294 -91 989 -36 
Q 684 19 347 128 
L 347 722 
Q 666 556 975 473 
Q 1284 391 1588 391 
Q 1994 391 2212 530 
Q 2431 669 2431 922 
Q 2431 1156 2273 1281 
Q 2116 1406 1581 1522 
L 1381 1569 
Q 847 1681 609 1914 
Q 372 2147 372 2553 
Q 372 3047 722 3315 
Q 1072 3584 1716 3584 
Q 2034 3584 2315 3537 
Q 2597 3491 2834 3397 
z
" transform="scale(0.015625)"/>
      <path id="DejaVuSans-20" transform="scale(0.015625)"/>
      <path id="DejaVuSans-77" d="M 269 3500 
L 844 3500 
L 1563 769 
L 2278 3500 
L 2956 3500 
L 3675 769 
L 4391 3500 
L 4966 3500 
L 4050 0 
L 3372 0 
L 2619 2869 
L 1863 0 
L 1184 0 
L 269 3500 
z
" transform="scale(0.015625)"/>
      <path id="DejaVuSans-68" d="M 3513 2113 
L 3513 0 
L 2938 0 
L 2938 2094 
Q 2938 2591 2744 2837 
Q 2550 3084 2163 3084 
Q 1697 3084 1428 2787 
Q 1159 2491 1159 1978 
L 1159 0 
L 581 0 
L 581 4863 
L 1159 4863 
L 1159 2956 
Q 1366 3272 1645 3428 
Q 1925 3584 2291 3584 
Q 2894 3584 3203 3211 
Q 3513 2838 3513 2113 
z
" transform="scale(0.015625)"/>
      <path id="DejaVuSans-3d" d="M 678 2906 
L 4684 2906 
L 4684 2381 
L 678 2381 
L 678 2906 
z
M 678 1631 
L 4684 1631 
L 4684 1100 
L 678 1100 
L 678 1631 
z
" transform="scale(0.015625)"/>
      <path id="DejaVuSans-33" d="M 2597 2516 
Q 3050 2419 3304 2112 
Q 3559 1806 3559 1356 
Q 3559 666 3084 287 
Q 2609 -91 1734 -91 
Q 1441 -91 1130 -33 
Q 819 25 488 141 
L 488 750 
Q 750 597 1062 519 
Q 1375 441 1716 441 
Q 2309 441 2620 675 
Q 2931 909 2931 1356 
Q 2931 1769 2642 2001 
Q 2353 2234 1838 2234 
L 1294 2234 
L 1294 2753 
L 1863 2753 
Q 2328 2753 2575 2939 
Q 2822 3125 2822 3475 
Q 2822 3834 2567 4026 
Q 2313 4219 1838 4219 
Q 1578 4219 1281 4162 
Q 984 4106 628 3988 
L 628 4550 
Q 988 4650 1302 4700 
Q 1616 4750 1894 4750 
Q 2613 4750 3031 4423 
Q 3450 4097 3450 3541 
Q 3450 3153 3228 2886 
Q 3006 2619 2597 2516 
z
" transform="scale(0.015625)"/>
     </defs>
     <use xlink:href="#DejaVuSans-43"/>
     <use xlink:href="#DejaVuSans-6f" transform="translate(69.824219 0)"/>
     <use xlink:href="#DejaVuSans-72" transform="translate(131.005859 0)"/>
     <use xlink:href="#DejaVuSans-72" transform="translate(170.369141 0)"/>
     <use xlink:href="#DejaVuSans-65" transform="translate(209.232422 0)"/>
     <use xlink:href="#DejaVuSans-6c" transform="translate(270.755859 0)"/>
     <use xlink:href="#DejaVuSans-61" transform="translate(298.539062 0)"/>
     <use xlink:href="#DejaVuSans-74" transform="translate(359.818359 0)"/>
     <use xlink:href="#DejaVuSans-69" transform="translate(399.027344 0)"/>
     <use xlink:href="#DejaVuSans-6f" transform="translate(426.810547 0)"/>
     <use xlink:href="#DejaVuSans-6e" transform="translate(487.992188 0)"/>
     <use xlink:href="#DejaVuSans-73" transform="translate(551.371094 0)"/>
     <use xlink:href="#DejaVuSans-20" transform="translate(603.470703 0)"/>
     <use xlink:href="#DejaVuSans-77" transform="translate(635.257812 0)"/>
     <use xlink:href="#DejaVuSans-69" transform="translate(717.044922 0)"/>
     <use xlink:href="#DejaVuSans-74" transform="translate(744.828125 0)"/>
     <use xlink:href="#DejaVuSans-68" transform="translate(784.037109 0)"/>
     <use xlink:href="#DejaVuSans-20" transform="translate(847.416016 0)"/>
     <use xlink:href="#DejaVuSans-6e" transform="translate(879.203125 0)"/>
     <use xlink:href="#DejaVuSans-20" transform="translate(942.582031 0)"/>
     <use xlink:href="#DejaVuSans-3d" transform="translate(974.369141 0)"/>
     <use xlink:href="#DejaVuSans-20" transform="translate(1058.158203 0)"/>
     <use xlink:href="#DejaVuSans-33" transform="translate(1089.945312 0)"/>
     <use xlink:href="#DejaVuSans-30" transform="translate(1153.568359 0)"/>
     <use xlink:href="#DejaVuSans-30" transform="translate(1217.191406 0)"/>
    </g>
   </g>
  </g>
 </g>
 <defs>
  <clipPath id="pf039541ce9">
   <rect x="57.6" y="41.472" width="357.12" height="266.112"/>
  </clipPath>
 </defs>
</svg>
